solid OpenSCAD_Model
  facet normal -1 0 0
    outer loop
      vertex -34.5 -30.75 -3.875
      vertex -34.5 -30.75 3.875
      vertex -34.5 30.75 -3.875
    endloop
  endfacet
  facet normal -1 0 0
    outer loop
      vertex -34.5 30.75 -3.875
      vertex -34.5 -30.75 3.875
      vertex -34.5 -28.75 5.875
    endloop
  endfacet
  facet normal -1 0 0
    outer loop
      vertex -34.5 30.75 -3.875
      vertex -34.5 -28.75 5.875
      vertex -34.5 28.75 5.875
    endloop
  endfacet
  facet normal -1 0 0
    outer loop
      vertex -34.5 30.75 -3.875
      vertex -34.5 28.75 5.875
      vertex -34.5 30.75 3.875
    endloop
  endfacet
  facet normal 0 -1 0
    outer loop
      vertex -34.5 -30.75 3.875
      vertex -34.5 -30.75 -3.875
      vertex 34.5 -30.75 -3.875
    endloop
  endfacet
  facet normal 0 -1 0
    outer loop
      vertex 34.5 -30.75 3.875
      vertex -34.5 -30.75 3.875
      vertex 34.5 -30.75 -3.875
    endloop
  endfacet
  facet normal 0 0 -1
    outer loop
      vertex 10 -8.66025 -3.875
      vertex 34.5 -30.75 -3.875
      vertex 8.30869 -7.43145 -3.875
    endloop
  endfacet
  facet normal 0 0 -1
    outer loop
      vertex 13.9547 9.94522 -3.875
      vertex -34.5 30.75 -3.875
      vertex 34.5 30.75 -3.875
    endloop
  endfacet
  facet normal 0 0 -1
    outer loop
      vertex 5.21852 -2.07912 -3.875
      vertex -34.5 30.75 -3.875
      vertex 5 0 -3.875
    endloop
  endfacet
  facet normal 0 0 -1
    outer loop
      vertex 5.86454 -4.06737 -3.875
      vertex -34.5 30.75 -3.875
      vertex 5.21852 -2.07912 -3.875
    endloop
  endfacet
  facet normal 0 0 -1
    outer loop
      vertex 6.90983 -5.87785 -3.875
      vertex -34.5 30.75 -3.875
      vertex 5.86454 -4.06737 -3.875
    endloop
  endfacet
  facet normal 0 0 -1
    outer loop
      vertex -34.5 -30.75 -3.875
      vertex -34.5 30.75 -3.875
      vertex 8.30869 -7.43145 -3.875
    endloop
  endfacet
  facet normal 0 0 -1
    outer loop
      vertex -34.5 -30.75 -3.875
      vertex 8.30869 -7.43145 -3.875
      vertex 34.5 -30.75 -3.875
    endloop
  endfacet
  facet normal 0 0 -1
    outer loop
      vertex 11.9098 -9.51056 -3.875
      vertex 34.5 -30.75 -3.875
      vertex 10 -8.66025 -3.875
    endloop
  endfacet
  facet normal 0 0 -1
    outer loop
      vertex 13.9547 -9.94522 -3.875
      vertex 34.5 -30.75 -3.875
      vertex 11.9098 -9.51056 -3.875
    endloop
  endfacet
  facet normal 0 0 -1
    outer loop
      vertex 16.0453 -9.94522 -3.875
      vertex 34.5 -30.75 -3.875
      vertex 13.9547 -9.94522 -3.875
    endloop
  endfacet
  facet normal 0 0 -1
    outer loop
      vertex 25 0 -3.875
      vertex 34.5 30.75 -3.875
      vertex 24.7815 -2.07912 -3.875
    endloop
  endfacet
  facet normal 0 0 -1
    outer loop
      vertex 34.5 -30.75 -3.875
      vertex 16.0453 -9.94522 -3.875
      vertex 18.0902 -9.51056 -3.875
    endloop
  endfacet
  facet normal 0 0 -1
    outer loop
      vertex 34.5 -30.75 -3.875
      vertex 18.0902 -9.51056 -3.875
      vertex 20 -8.66025 -3.875
    endloop
  endfacet
  facet normal 0 0 -1
    outer loop
      vertex 34.5 -30.75 -3.875
      vertex 20 -8.66025 -3.875
      vertex 21.6913 -7.43145 -3.875
    endloop
  endfacet
  facet normal 0 0 -1
    outer loop
      vertex 34.5 -30.75 -3.875
      vertex 21.6913 -7.43145 -3.875
      vertex 23.0902 -5.87785 -3.875
    endloop
  endfacet
  facet normal 0 0 -1
    outer loop
      vertex 34.5 -30.75 -3.875
      vertex 23.0902 -5.87785 -3.875
      vertex 24.1355 -4.06737 -3.875
    endloop
  endfacet
  facet normal 0 0 -1
    outer loop
      vertex 34.5 -30.75 -3.875
      vertex 24.1355 -4.06737 -3.875
      vertex 24.7815 -2.07912 -3.875
    endloop
  endfacet
  facet normal 0 0 -1
    outer loop
      vertex 34.5 -30.75 -3.875
      vertex 24.7815 -2.07912 -3.875
      vertex 34.5 30.75 -3.875
    endloop
  endfacet
  facet normal 0 0 -1
    outer loop
      vertex 24.7815 2.07912 -3.875
      vertex 34.5 30.75 -3.875
      vertex 25 0 -3.875
    endloop
  endfacet
  facet normal 0 0 -1
    outer loop
      vertex 24.1355 4.06737 -3.875
      vertex 34.5 30.75 -3.875
      vertex 24.7815 2.07912 -3.875
    endloop
  endfacet
  facet normal 0 0 -1
    outer loop
      vertex 23.0902 5.87785 -3.875
      vertex 34.5 30.75 -3.875
      vertex 24.1355 4.06737 -3.875
    endloop
  endfacet
  facet normal 0 0 -1
    outer loop
      vertex 13.9547 9.94522 -3.875
      vertex 34.5 30.75 -3.875
      vertex 16.0453 9.94522 -3.875
    endloop
  endfacet
  facet normal 0 0 -1
    outer loop
      vertex 23.0902 5.87785 -3.875
      vertex 21.6913 7.43145 -3.875
      vertex 34.5 30.75 -3.875
    endloop
  endfacet
  facet normal 0 0 -1
    outer loop
      vertex 21.6913 7.43145 -3.875
      vertex 20 8.66025 -3.875
      vertex 34.5 30.75 -3.875
    endloop
  endfacet
  facet normal 0 0 -1
    outer loop
      vertex 20 8.66025 -3.875
      vertex 18.0902 9.51056 -3.875
      vertex 34.5 30.75 -3.875
    endloop
  endfacet
  facet normal 0 0 -1
    outer loop
      vertex 18.0902 9.51056 -3.875
      vertex 16.0453 9.94522 -3.875
      vertex 34.5 30.75 -3.875
    endloop
  endfacet
  facet normal 0 0 -1
    outer loop
      vertex 11.9098 9.51056 -3.875
      vertex -34.5 30.75 -3.875
      vertex 13.9547 9.94522 -3.875
    endloop
  endfacet
  facet normal 0 0 -1
    outer loop
      vertex 10 8.66025 -3.875
      vertex -34.5 30.75 -3.875
      vertex 11.9098 9.51056 -3.875
    endloop
  endfacet
  facet normal 0 0 -1
    outer loop
      vertex 8.30869 7.43145 -3.875
      vertex -34.5 30.75 -3.875
      vertex 10 8.66025 -3.875
    endloop
  endfacet
  facet normal 0 0 -1
    outer loop
      vertex 6.90983 5.87785 -3.875
      vertex -34.5 30.75 -3.875
      vertex 8.30869 7.43145 -3.875
    endloop
  endfacet
  facet normal 0 0 -1
    outer loop
      vertex 5.86454 4.06737 -3.875
      vertex -34.5 30.75 -3.875
      vertex 6.90983 5.87785 -3.875
    endloop
  endfacet
  facet normal 0 0 -1
    outer loop
      vertex 5.21852 2.07912 -3.875
      vertex -34.5 30.75 -3.875
      vertex 5.86454 4.06737 -3.875
    endloop
  endfacet
  facet normal 0 0 -1
    outer loop
      vertex 5 0 -3.875
      vertex -34.5 30.75 -3.875
      vertex 5.21852 2.07912 -3.875
    endloop
  endfacet
  facet normal 0 0 -1
    outer loop
      vertex 8.30869 -7.43145 -3.875
      vertex -34.5 30.75 -3.875
      vertex 6.90983 -5.87785 -3.875
    endloop
  endfacet
  facet normal 0 1 0
    outer loop
      vertex -34.5 30.75 -3.875
      vertex -34.5 30.75 3.875
      vertex 34.5 30.75 -3.875
    endloop
  endfacet
  facet normal 0 1 0
    outer loop
      vertex 34.5 30.75 -3.875
      vertex -34.5 30.75 3.875
      vertex 34.5 30.75 3.875
    endloop
  endfacet
  facet normal 0 0.707107 0.707107
    outer loop
      vertex 34.5 28.75 5.875
      vertex 34.5 30.75 3.875
      vertex -22.5 28.75 5.875
    endloop
  endfacet
  facet normal 0 0.707107 0.707107
    outer loop
      vertex -22.5 28.75 5.875
      vertex 34.5 30.75 3.875
      vertex -34.5 30.75 3.875
    endloop
  endfacet
  facet normal 0 0.707107 0.707107
    outer loop
      vertex -22.5 28.75 5.875
      vertex -34.5 30.75 3.875
      vertex -34.5 28.75 5.875
    endloop
  endfacet
  facet normal 0 0 1
    outer loop
      vertex -22.5 -28.75 5.875
      vertex -22.5 28.75 5.875
      vertex -34.5 28.75 5.875
    endloop
  endfacet
  facet normal 0 0 1
    outer loop
      vertex -34.5 -28.75 5.875
      vertex -22.5 -28.75 5.875
      vertex -34.5 28.75 5.875
    endloop
  endfacet
  facet normal 0 -0.707107 0.707107
    outer loop
      vertex 34.5 -30.75 3.875
      vertex 34.5 -28.75 5.875
      vertex -22.5 -28.75 5.875
    endloop
  endfacet
  facet normal 0 -0.707107 0.707107
    outer loop
      vertex -34.5 -30.75 3.875
      vertex 34.5 -30.75 3.875
      vertex -34.5 -28.75 5.875
    endloop
  endfacet
  facet normal 0 -0.707107 0.707107
    outer loop
      vertex -34.5 -28.75 5.875
      vertex 34.5 -30.75 3.875
      vertex -22.5 -28.75 5.875
    endloop
  endfacet
  facet normal 1 0 0
    outer loop
      vertex 34.5 0 -1.875
      vertex 34.5 -30.75 -3.875
      vertex 34.5 30.75 -3.875
    endloop
  endfacet
  facet normal 1 0 0
    outer loop
      vertex 34.5 28.75 3.875
      vertex 34.5 21.0421 3.875
      vertex 34.5 30.75 -3.875
    endloop
  endfacet
  facet normal 1 0 0
    outer loop
      vertex 34.5 30.75 3.875
      vertex 34.5 28.75 3.875
      vertex 34.5 30.75 -3.875
    endloop
  endfacet
  facet normal 1 0 0
    outer loop
      vertex 34.5 28.75 5.875
      vertex 34.5 28.75 3.875
      vertex 34.5 30.75 3.875
    endloop
  endfacet
  facet normal 1 0 0
    outer loop
      vertex 34.5 -17.5405 1.85335
      vertex 34.5 -28.75 3.875
      vertex 34.5 -30.75 3.875
    endloop
  endfacet
  facet normal 1 0 0
    outer loop
      vertex 34.5 21.0421 3.875
      vertex 34.5 17.5405 1.85335
      vertex 34.5 30.75 -3.875
    endloop
  endfacet
  facet normal 1 0 0
    outer loop
      vertex 34.5 17.5405 1.85335
      vertex 34.5 8.96619 -0.932615
      vertex 34.5 30.75 -3.875
    endloop
  endfacet
  facet normal 1 0 0
    outer loop
      vertex 34.5 -8.96619 -0.932615
      vertex 34.5 -30.75 -3.875
      vertex 34.5 0 -1.875
    endloop
  endfacet
  facet normal 1 0 0
    outer loop
      vertex 34.5 -30.75 3.875
      vertex 34.5 -30.75 -3.875
      vertex 34.5 -8.96619 -0.932615
    endloop
  endfacet
  facet normal 1 0 0
    outer loop
      vertex 34.5 -8.96619 -0.932615
      vertex 34.5 -17.5405 1.85335
      vertex 34.5 -30.75 3.875
    endloop
  endfacet
  facet normal 1 0 0
    outer loop
      vertex 34.5 -28.75 3.875
      vertex 34.5 -28.75 5.875
      vertex 34.5 -30.75 3.875
    endloop
  endfacet
  facet normal 1 0 0
    outer loop
      vertex 34.5 8.96619 -0.932615
      vertex 34.5 0 -1.875
      vertex 34.5 30.75 -3.875
    endloop
  endfacet
  facet normal 1 0 0
    outer loop
      vertex 34.5 -17.5405 1.85335
      vertex 34.5 -21.0421 3.875
      vertex 34.5 -28.75 3.875
    endloop
  endfacet
  facet normal 0.994522 0.104528 0
    outer loop
      vertex 5 0 -1.875
      vertex 5.21852 -2.07912 -1.875
      vertex 5.21852 -2.07912 -3.875
    endloop
  endfacet
  facet normal 0.994522 0.104528 0
    outer loop
      vertex 5 0 -3.875
      vertex 5 0 -1.875
      vertex 5.21852 -2.07912 -3.875
    endloop
  endfacet
  facet normal 0.994522 -0.104528 0
    outer loop
      vertex 5.21852 2.07912 -3.875
      vertex 5.21852 2.07912 -1.875
      vertex 5 0 -1.875
    endloop
  endfacet
  facet normal 0.994522 -0.104528 0
    outer loop
      vertex 5 0 -3.875
      vertex 5.21852 2.07912 -3.875
      vertex 5 0 -1.875
    endloop
  endfacet
  facet normal 0.951057 -0.309017 0
    outer loop
      vertex 5.86454 4.06737 -3.875
      vertex 5.86454 4.06737 -1.875
      vertex 5.21852 2.07912 -1.875
    endloop
  endfacet
  facet normal 0.951057 -0.309017 0
    outer loop
      vertex 5.21852 2.07912 -3.875
      vertex 5.86454 4.06737 -3.875
      vertex 5.21852 2.07912 -1.875
    endloop
  endfacet
  facet normal 0.866025 -0.5 0
    outer loop
      vertex 6.90983 5.87785 -3.875
      vertex 6.90983 5.87785 -1.875
      vertex 5.86454 4.06737 -1.875
    endloop
  endfacet
  facet normal 0.866025 -0.5 0
    outer loop
      vertex 5.86454 4.06737 -3.875
      vertex 6.90983 5.87785 -3.875
      vertex 5.86454 4.06737 -1.875
    endloop
  endfacet
  facet normal 0.743145 -0.669131 0
    outer loop
      vertex 8.30869 7.43145 -3.875
      vertex 8.30869 7.43145 -1.875
      vertex 6.90983 5.87785 -1.875
    endloop
  endfacet
  facet normal 0.743145 -0.669131 0
    outer loop
      vertex 6.90983 5.87785 -3.875
      vertex 8.30869 7.43145 -3.875
      vertex 6.90983 5.87785 -1.875
    endloop
  endfacet
  facet normal 0.587785 -0.809017 0
    outer loop
      vertex 10 8.66025 -3.875
      vertex 10 8.66025 -1.875
      vertex 8.30869 7.43145 -1.875
    endloop
  endfacet
  facet normal 0.587785 -0.809017 0
    outer loop
      vertex 8.30869 7.43145 -3.875
      vertex 10 8.66025 -3.875
      vertex 8.30869 7.43145 -1.875
    endloop
  endfacet
  facet normal 0.406737 -0.913545 0
    outer loop
      vertex 11.9098 9.51056 -3.875
      vertex 11.9098 9.51056 -1.875
      vertex 10 8.66025 -1.875
    endloop
  endfacet
  facet normal 0.406737 -0.913545 0
    outer loop
      vertex 10 8.66025 -3.875
      vertex 11.9098 9.51056 -3.875
      vertex 10 8.66025 -1.875
    endloop
  endfacet
  facet normal 0.207912 -0.978148 0
    outer loop
      vertex 13.9547 9.94522 -3.875
      vertex 13.9547 9.94522 -1.875
      vertex 11.9098 9.51056 -1.875
    endloop
  endfacet
  facet normal 0.207912 -0.978148 0
    outer loop
      vertex 11.9098 9.51056 -3.875
      vertex 13.9547 9.94522 -3.875
      vertex 11.9098 9.51056 -1.875
    endloop
  endfacet
  facet normal 0 -1 0
    outer loop
      vertex 16.0453 9.94522 -3.875
      vertex 16.0453 9.94522 -1.875
      vertex 13.9547 9.94522 -1.875
    endloop
  endfacet
  facet normal 0 -1 0
    outer loop
      vertex 13.9547 9.94522 -3.875
      vertex 16.0453 9.94522 -3.875
      vertex 13.9547 9.94522 -1.875
    endloop
  endfacet
  facet normal -0.207912 -0.978148 0
    outer loop
      vertex 18.0902 9.51056 -3.875
      vertex 18.0902 9.51056 -1.875
      vertex 16.0453 9.94522 -1.875
    endloop
  endfacet
  facet normal -0.207912 -0.978148 0
    outer loop
      vertex 16.0453 9.94522 -3.875
      vertex 18.0902 9.51056 -3.875
      vertex 16.0453 9.94522 -1.875
    endloop
  endfacet
  facet normal -0.406737 -0.913545 0
    outer loop
      vertex 20 8.66025 -3.875
      vertex 20 8.66025 -1.875
      vertex 18.0902 9.51056 -1.875
    endloop
  endfacet
  facet normal -0.406737 -0.913545 0
    outer loop
      vertex 18.0902 9.51056 -3.875
      vertex 20 8.66025 -3.875
      vertex 18.0902 9.51056 -1.875
    endloop
  endfacet
  facet normal -0.587785 -0.809017 0
    outer loop
      vertex 21.6913 7.43145 -3.875
      vertex 21.6913 7.43145 -1.875
      vertex 20 8.66025 -1.875
    endloop
  endfacet
  facet normal -0.587785 -0.809017 0
    outer loop
      vertex 20 8.66025 -3.875
      vertex 21.6913 7.43145 -3.875
      vertex 20 8.66025 -1.875
    endloop
  endfacet
  facet normal -0.743145 -0.669131 0
    outer loop
      vertex 23.0902 5.87785 -1.875
      vertex 21.6913 7.43145 -1.875
      vertex 23.0902 5.87785 -3.875
    endloop
  endfacet
  facet normal -0.743145 -0.669131 0
    outer loop
      vertex 23.0902 5.87785 -3.875
      vertex 21.6913 7.43145 -1.875
      vertex 21.6913 7.43145 -3.875
    endloop
  endfacet
  facet normal -0.866025 -0.5 0
    outer loop
      vertex 24.1355 4.06737 -1.875
      vertex 23.0902 5.87785 -1.875
      vertex 24.1355 4.06737 -3.875
    endloop
  endfacet
  facet normal -0.866025 -0.5 0
    outer loop
      vertex 24.1355 4.06737 -3.875
      vertex 23.0902 5.87785 -1.875
      vertex 23.0902 5.87785 -3.875
    endloop
  endfacet
  facet normal -0.951057 -0.309017 0
    outer loop
      vertex 24.7815 2.07912 -1.875
      vertex 24.1355 4.06737 -1.875
      vertex 24.7815 2.07912 -3.875
    endloop
  endfacet
  facet normal -0.951057 -0.309017 0
    outer loop
      vertex 24.7815 2.07912 -3.875
      vertex 24.1355 4.06737 -1.875
      vertex 24.1355 4.06737 -3.875
    endloop
  endfacet
  facet normal -0.994522 -0.104528 0
    outer loop
      vertex 25 0 -1.875
      vertex 24.7815 2.07912 -1.875
      vertex 25 0 -3.875
    endloop
  endfacet
  facet normal -0.994522 -0.104528 0
    outer loop
      vertex 25 0 -3.875
      vertex 24.7815 2.07912 -1.875
      vertex 24.7815 2.07912 -3.875
    endloop
  endfacet
  facet normal -0.994522 0.104528 0
    outer loop
      vertex 25 0 -1.875
      vertex 25 0 -3.875
      vertex 24.7815 -2.07912 -1.875
    endloop
  endfacet
  facet normal -0.994522 0.104528 0
    outer loop
      vertex 24.7815 -2.07912 -1.875
      vertex 25 0 -3.875
      vertex 24.7815 -2.07912 -3.875
    endloop
  endfacet
  facet normal -0.951057 0.309017 0
    outer loop
      vertex 24.7815 -2.07912 -1.875
      vertex 24.7815 -2.07912 -3.875
      vertex 24.1355 -4.06737 -1.875
    endloop
  endfacet
  facet normal -0.951057 0.309017 0
    outer loop
      vertex 24.1355 -4.06737 -1.875
      vertex 24.7815 -2.07912 -3.875
      vertex 24.1355 -4.06737 -3.875
    endloop
  endfacet
  facet normal -0.866025 0.5 0
    outer loop
      vertex 24.1355 -4.06737 -1.875
      vertex 24.1355 -4.06737 -3.875
      vertex 23.0902 -5.87785 -1.875
    endloop
  endfacet
  facet normal -0.866025 0.5 0
    outer loop
      vertex 23.0902 -5.87785 -1.875
      vertex 24.1355 -4.06737 -3.875
      vertex 23.0902 -5.87785 -3.875
    endloop
  endfacet
  facet normal -0.743145 0.669131 0
    outer loop
      vertex 23.0902 -5.87785 -1.875
      vertex 23.0902 -5.87785 -3.875
      vertex 21.6913 -7.43145 -1.875
    endloop
  endfacet
  facet normal -0.743145 0.669131 0
    outer loop
      vertex 21.6913 -7.43145 -1.875
      vertex 23.0902 -5.87785 -3.875
      vertex 21.6913 -7.43145 -3.875
    endloop
  endfacet
  facet normal -0.587785 0.809017 0
    outer loop
      vertex 21.6913 -7.43145 -1.875
      vertex 21.6913 -7.43145 -3.875
      vertex 20 -8.66025 -1.875
    endloop
  endfacet
  facet normal -0.587785 0.809017 0
    outer loop
      vertex 20 -8.66025 -1.875
      vertex 21.6913 -7.43145 -3.875
      vertex 20 -8.66025 -3.875
    endloop
  endfacet
  facet normal -0.406737 0.913545 0
    outer loop
      vertex 20 -8.66025 -1.875
      vertex 20 -8.66025 -3.875
      vertex 18.0902 -9.51056 -1.875
    endloop
  endfacet
  facet normal -0.406737 0.913545 0
    outer loop
      vertex 18.0902 -9.51056 -1.875
      vertex 20 -8.66025 -3.875
      vertex 18.0902 -9.51056 -3.875
    endloop
  endfacet
  facet normal -0.207912 0.978148 0
    outer loop
      vertex 18.0902 -9.51056 -1.875
      vertex 18.0902 -9.51056 -3.875
      vertex 16.0453 -9.94522 -1.875
    endloop
  endfacet
  facet normal -0.207912 0.978148 0
    outer loop
      vertex 16.0453 -9.94522 -1.875
      vertex 18.0902 -9.51056 -3.875
      vertex 16.0453 -9.94522 -3.875
    endloop
  endfacet
  facet normal 0 1 0
    outer loop
      vertex 16.0453 -9.94522 -1.875
      vertex 16.0453 -9.94522 -3.875
      vertex 13.9547 -9.94522 -1.875
    endloop
  endfacet
  facet normal 0 1 0
    outer loop
      vertex 13.9547 -9.94522 -1.875
      vertex 16.0453 -9.94522 -3.875
      vertex 13.9547 -9.94522 -3.875
    endloop
  endfacet
  facet normal 0.207912 0.978148 0
    outer loop
      vertex 13.9547 -9.94522 -1.875
      vertex 13.9547 -9.94522 -3.875
      vertex 11.9098 -9.51056 -1.875
    endloop
  endfacet
  facet normal 0.207912 0.978148 0
    outer loop
      vertex 11.9098 -9.51056 -1.875
      vertex 13.9547 -9.94522 -3.875
      vertex 11.9098 -9.51056 -3.875
    endloop
  endfacet
  facet normal 0.406737 0.913545 0
    outer loop
      vertex 11.9098 -9.51056 -1.875
      vertex 11.9098 -9.51056 -3.875
      vertex 10 -8.66025 -1.875
    endloop
  endfacet
  facet normal 0.406737 0.913545 0
    outer loop
      vertex 10 -8.66025 -1.875
      vertex 11.9098 -9.51056 -3.875
      vertex 10 -8.66025 -3.875
    endloop
  endfacet
  facet normal 0.587785 0.809017 0
    outer loop
      vertex 10 -8.66025 -1.875
      vertex 10 -8.66025 -3.875
      vertex 8.30869 -7.43145 -1.875
    endloop
  endfacet
  facet normal 0.587785 0.809017 0
    outer loop
      vertex 8.30869 -7.43145 -1.875
      vertex 10 -8.66025 -3.875
      vertex 8.30869 -7.43145 -3.875
    endloop
  endfacet
  facet normal 0.743145 0.669131 0
    outer loop
      vertex 6.90983 -5.87785 -1.875
      vertex 8.30869 -7.43145 -1.875
      vertex 8.30869 -7.43145 -3.875
    endloop
  endfacet
  facet normal 0.743145 0.669131 0
    outer loop
      vertex 6.90983 -5.87785 -3.875
      vertex 6.90983 -5.87785 -1.875
      vertex 8.30869 -7.43145 -3.875
    endloop
  endfacet
  facet normal 0.866025 0.5 0
    outer loop
      vertex 5.86454 -4.06737 -1.875
      vertex 6.90983 -5.87785 -1.875
      vertex 6.90983 -5.87785 -3.875
    endloop
  endfacet
  facet normal 0.866025 0.5 0
    outer loop
      vertex 5.86454 -4.06737 -3.875
      vertex 5.86454 -4.06737 -1.875
      vertex 6.90983 -5.87785 -3.875
    endloop
  endfacet
  facet normal 0.951057 0.309017 0
    outer loop
      vertex 5.21852 -2.07912 -1.875
      vertex 5.86454 -4.06737 -1.875
      vertex 5.86454 -4.06737 -3.875
    endloop
  endfacet
  facet normal 0.951057 0.309017 0
    outer loop
      vertex 5.21852 -2.07912 -3.875
      vertex 5.21852 -2.07912 -1.875
      vertex 5.86454 -4.06737 -3.875
    endloop
  endfacet
  facet normal 0 -1 0
    outer loop
      vertex 34.5 28.75 5.875
      vertex 32.5 28.75 3.875
      vertex 34.5 28.75 3.875
    endloop
  endfacet
  facet normal 0 -1 0
    outer loop
      vertex -22.5 28.75 5.875
      vertex 32.5 28.75 3.875
      vertex 34.5 28.75 5.875
    endloop
  endfacet
  facet normal 0 -1 0
    outer loop
      vertex 32.5 28.75 -1.875
      vertex 32.5 28.75 3.875
      vertex -22.5 28.75 5.875
    endloop
  endfacet
  facet normal 0 -1 0
    outer loop
      vertex -22.5 28.75 3.875
      vertex 32.5 28.75 -1.875
      vertex -22.5 28.75 5.875
    endloop
  endfacet
  facet normal 0 -1 0
    outer loop
      vertex -32.5 28.75 3.875
      vertex 32.5 28.75 -1.875
      vertex -22.5 28.75 3.875
    endloop
  endfacet
  facet normal 0 -1 0
    outer loop
      vertex -32.5 28.75 -1.875
      vertex 32.5 28.75 -1.875
      vertex -32.5 28.75 3.875
    endloop
  endfacet
  facet normal 1 0 0
    outer loop
      vertex -22.5 28.75 3.875
      vertex -22.5 28.75 5.875
      vertex -22.5 -28.75 5.875
    endloop
  endfacet
  facet normal 1 0 0
    outer loop
      vertex -22.5 -28.75 3.875
      vertex -22.5 28.75 3.875
      vertex -22.5 -28.75 5.875
    endloop
  endfacet
  facet normal 0 1 0
    outer loop
      vertex -22.5 -28.75 3.875
      vertex -22.5 -28.75 5.875
      vertex 34.5 -28.75 5.875
    endloop
  endfacet
  facet normal 0 1 0
    outer loop
      vertex 32.5 -28.75 3.875
      vertex 34.5 -28.75 5.875
      vertex 34.5 -28.75 3.875
    endloop
  endfacet
  facet normal 0 1 0
    outer loop
      vertex -22.5 -28.75 3.875
      vertex 34.5 -28.75 5.875
      vertex 32.5 -28.75 3.875
    endloop
  endfacet
  facet normal 0 1 0
    outer loop
      vertex -22.5 -28.75 3.875
      vertex 32.5 -28.75 -1.875
      vertex -32.5 -28.75 3.875
    endloop
  endfacet
  facet normal 0 1 0
    outer loop
      vertex 32.5 -28.75 3.875
      vertex 32.5 -28.75 -1.875
      vertex -22.5 -28.75 3.875
    endloop
  endfacet
  facet normal 0 1 0
    outer loop
      vertex 32.5 -28.75 -1.875
      vertex -32.5 -28.75 -1.875
      vertex -32.5 -28.75 3.875
    endloop
  endfacet
  facet normal 0 0 1
    outer loop
      vertex 32.5 -21.0421 3.875
      vertex 32.5 -28.75 3.875
      vertex 34.5 -28.75 3.875
    endloop
  endfacet
  facet normal 0 0 1
    outer loop
      vertex 34.5 -21.0421 3.875
      vertex 32.5 -21.0421 3.875
      vertex 34.5 -28.75 3.875
    endloop
  endfacet
  facet normal -1.92296e-016 0.5 0.866025
    outer loop
      vertex 34.5 -21.0421 3.875
      vertex 34.5 -17.5405 1.85335
      vertex 32.5 -17.5405 1.85335
    endloop
  endfacet
  facet normal -1.92296e-016 0.5 0.866025
    outer loop
      vertex 32.5 -21.0421 3.875
      vertex 34.5 -21.0421 3.875
      vertex 32.5 -17.5405 1.85335
    endloop
  endfacet
  facet normal -2.11177e-016 0.309017 0.951057
    outer loop
      vertex 34.5 -17.5405 1.85335
      vertex 34.5 -8.96619 -0.932615
      vertex 32.5 -8.96619 -0.932615
    endloop
  endfacet
  facet normal -2.11177e-016 0.309017 0.951057
    outer loop
      vertex 32.5 -17.5405 1.85335
      vertex 34.5 -17.5405 1.85335
      vertex 32.5 -8.96619 -0.932615
    endloop
  endfacet
  facet normal -2.20828e-016 0.104528 0.994522
    outer loop
      vertex 34.5 -8.96619 -0.932615
      vertex 34.5 0 -1.875
      vertex 32.5 0 -1.875
    endloop
  endfacet
  facet normal -2.20828e-016 0.104528 0.994522
    outer loop
      vertex 32.5 -8.96619 -0.932615
      vertex 34.5 -8.96619 -0.932615
      vertex 32.5 0 -1.875
    endloop
  endfacet
  facet normal -2.20828e-016 -0.104528 0.994522
    outer loop
      vertex 34.5 0 -1.875
      vertex 34.5 8.96619 -0.932615
      vertex 32.5 8.96619 -0.932615
    endloop
  endfacet
  facet normal -2.20828e-016 -0.104528 0.994522
    outer loop
      vertex 32.5 0 -1.875
      vertex 34.5 0 -1.875
      vertex 32.5 8.96619 -0.932615
    endloop
  endfacet
  facet normal -2.11177e-016 -0.309017 0.951057
    outer loop
      vertex 34.5 8.96619 -0.932615
      vertex 34.5 17.5405 1.85335
      vertex 32.5 17.5405 1.85335
    endloop
  endfacet
  facet normal -2.11177e-016 -0.309017 0.951057
    outer loop
      vertex 32.5 8.96619 -0.932615
      vertex 34.5 8.96619 -0.932615
      vertex 32.5 17.5405 1.85335
    endloop
  endfacet
  facet normal -1.92296e-016 -0.5 0.866025
    outer loop
      vertex 34.5 17.5405 1.85335
      vertex 34.5 21.0421 3.875
      vertex 32.5 21.0421 3.875
    endloop
  endfacet
  facet normal -1.92296e-016 -0.5 0.866025
    outer loop
      vertex 32.5 17.5405 1.85335
      vertex 34.5 17.5405 1.85335
      vertex 32.5 21.0421 3.875
    endloop
  endfacet
  facet normal 0 0 1
    outer loop
      vertex 32.5 28.75 3.875
      vertex 32.5 21.0421 3.875
      vertex 34.5 21.0421 3.875
    endloop
  endfacet
  facet normal 0 0 1
    outer loop
      vertex 34.5 28.75 3.875
      vertex 32.5 28.75 3.875
      vertex 34.5 21.0421 3.875
    endloop
  endfacet
  facet normal 0 0 1
    outer loop
      vertex 8.30869 7.43145 -1.875
      vertex 32.5 28.75 -1.875
      vertex -32.5 28.75 -1.875
    endloop
  endfacet
  facet normal 0 0 1
    outer loop
      vertex 5.21852 -2.07912 -1.875
      vertex 5 0 -1.875
      vertex -32.5 28.75 -1.875
    endloop
  endfacet
  facet normal 0 0 1
    outer loop
      vertex 5 0 -1.875
      vertex 5.21852 2.07912 -1.875
      vertex -32.5 28.75 -1.875
    endloop
  endfacet
  facet normal 0 0 1
    outer loop
      vertex 5.21852 2.07912 -1.875
      vertex 5.86454 4.06737 -1.875
      vertex -32.5 28.75 -1.875
    endloop
  endfacet
  facet normal 0 0 1
    outer loop
      vertex 5.86454 4.06737 -1.875
      vertex 6.90983 5.87785 -1.875
      vertex -32.5 28.75 -1.875
    endloop
  endfacet
  facet normal 0 0 1
    outer loop
      vertex 11.9098 9.51056 -1.875
      vertex 13.9547 9.94522 -1.875
      vertex 32.5 28.75 -1.875
    endloop
  endfacet
  facet normal 0 0 1
    outer loop
      vertex 6.90983 5.87785 -1.875
      vertex 8.30869 7.43145 -1.875
      vertex -32.5 28.75 -1.875
    endloop
  endfacet
  facet normal 0 0 1
    outer loop
      vertex 10 8.66025 -1.875
      vertex 32.5 28.75 -1.875
      vertex 8.30869 7.43145 -1.875
    endloop
  endfacet
  facet normal 0 0 1
    outer loop
      vertex 24.7815 -2.07912 -1.875
      vertex 24.1355 -4.06737 -1.875
      vertex 32.5 -28.75 -1.875
    endloop
  endfacet
  facet normal 0 0 1
    outer loop
      vertex 13.9547 9.94522 -1.875
      vertex 16.0453 9.94522 -1.875
      vertex 32.5 28.75 -1.875
    endloop
  endfacet
  facet normal 0 0 1
    outer loop
      vertex 24.7815 2.07912 -1.875
      vertex 25 0 -1.875
      vertex 32.5 -28.75 -1.875
    endloop
  endfacet
  facet normal 0 0 1
    outer loop
      vertex 18.0902 9.51056 -1.875
      vertex 32.5 28.75 -1.875
      vertex 16.0453 9.94522 -1.875
    endloop
  endfacet
  facet normal 0 0 1
    outer loop
      vertex 20 8.66025 -1.875
      vertex 32.5 28.75 -1.875
      vertex 18.0902 9.51056 -1.875
    endloop
  endfacet
  facet normal 0 0 1
    outer loop
      vertex 21.6913 7.43145 -1.875
      vertex 32.5 28.75 -1.875
      vertex 20 8.66025 -1.875
    endloop
  endfacet
  facet normal 0 0 1
    outer loop
      vertex 24.1355 -4.06737 -1.875
      vertex 23.0902 -5.87785 -1.875
      vertex 32.5 -28.75 -1.875
    endloop
  endfacet
  facet normal 0 0 1
    outer loop
      vertex 23.0902 5.87785 -1.875
      vertex 32.5 28.75 -1.875
      vertex 21.6913 7.43145 -1.875
    endloop
  endfacet
  facet normal 0 0 1
    outer loop
      vertex 24.1355 4.06737 -1.875
      vertex 32.5 28.75 -1.875
      vertex 23.0902 5.87785 -1.875
    endloop
  endfacet
  facet normal 0 0 1
    outer loop
      vertex 24.7815 2.07912 -1.875
      vertex 32.5 28.75 -1.875
      vertex 24.1355 4.06737 -1.875
    endloop
  endfacet
  facet normal 0 0 1
    outer loop
      vertex 25 0 -1.875
      vertex 24.7815 -2.07912 -1.875
      vertex 32.5 -28.75 -1.875
    endloop
  endfacet
  facet normal 0 0 1
    outer loop
      vertex 32.5 -28.75 -1.875
      vertex 32.5 28.75 -1.875
      vertex 24.7815 2.07912 -1.875
    endloop
  endfacet
  facet normal 0 0 1
    outer loop
      vertex 23.0902 -5.87785 -1.875
      vertex 21.6913 -7.43145 -1.875
      vertex 32.5 -28.75 -1.875
    endloop
  endfacet
  facet normal 0 0 1
    outer loop
      vertex 16.0453 -9.94522 -1.875
      vertex 13.9547 -9.94522 -1.875
      vertex 32.5 -28.75 -1.875
    endloop
  endfacet
  facet normal 0 0 1
    outer loop
      vertex 32.5 -28.75 -1.875
      vertex 21.6913 -7.43145 -1.875
      vertex 20 -8.66025 -1.875
    endloop
  endfacet
  facet normal 0 0 1
    outer loop
      vertex 32.5 -28.75 -1.875
      vertex 20 -8.66025 -1.875
      vertex 18.0902 -9.51056 -1.875
    endloop
  endfacet
  facet normal 0 0 1
    outer loop
      vertex 10 -8.66025 -1.875
      vertex 8.30869 -7.43145 -1.875
      vertex 32.5 -28.75 -1.875
    endloop
  endfacet
  facet normal 0 0 1
    outer loop
      vertex 32.5 -28.75 -1.875
      vertex 18.0902 -9.51056 -1.875
      vertex 16.0453 -9.94522 -1.875
    endloop
  endfacet
  facet normal 0 0 1
    outer loop
      vertex 6.90983 -5.87785 -1.875
      vertex 5.86454 -4.06737 -1.875
      vertex -32.5 28.75 -1.875
    endloop
  endfacet
  facet normal 0 0 1
    outer loop
      vertex 5.86454 -4.06737 -1.875
      vertex 5.21852 -2.07912 -1.875
      vertex -32.5 28.75 -1.875
    endloop
  endfacet
  facet normal 0 0 1
    outer loop
      vertex 32.5 -28.75 -1.875
      vertex 13.9547 -9.94522 -1.875
      vertex 11.9098 -9.51056 -1.875
    endloop
  endfacet
  facet normal 0 0 1
    outer loop
      vertex 8.30869 -7.43145 -1.875
      vertex 6.90983 -5.87785 -1.875
      vertex -32.5 28.75 -1.875
    endloop
  endfacet
  facet normal 0 0 1
    outer loop
      vertex 32.5 -28.75 -1.875
      vertex 11.9098 -9.51056 -1.875
      vertex 10 -8.66025 -1.875
    endloop
  endfacet
  facet normal 0 0 1
    outer loop
      vertex -32.5 -28.75 -1.875
      vertex 8.30869 -7.43145 -1.875
      vertex -32.5 28.75 -1.875
    endloop
  endfacet
  facet normal 0 0 1
    outer loop
      vertex -32.5 -28.75 -1.875
      vertex 32.5 -28.75 -1.875
      vertex 8.30869 -7.43145 -1.875
    endloop
  endfacet
  facet normal 0 0 1
    outer loop
      vertex 10 8.66025 -1.875
      vertex 11.9098 9.51056 -1.875
      vertex 32.5 28.75 -1.875
    endloop
  endfacet
  facet normal -1 0 0
    outer loop
      vertex 32.5 -21.0421 3.875
      vertex 32.5 -17.5405 1.85335
      vertex 32.5 -28.75 3.875
    endloop
  endfacet
  facet normal -1 0 0
    outer loop
      vertex 32.5 -28.75 3.875
      vertex 32.5 -17.5405 1.85335
      vertex 32.5 -8.96619 -0.932615
    endloop
  endfacet
  facet normal -1 0 0
    outer loop
      vertex 32.5 -8.96619 -0.932615
      vertex 32.5 -28.75 -1.875
      vertex 32.5 -28.75 3.875
    endloop
  endfacet
  facet normal -1 0 0
    outer loop
      vertex 32.5 17.5405 1.85335
      vertex 32.5 21.0421 3.875
      vertex 32.5 28.75 3.875
    endloop
  endfacet
  facet normal -1 0 0
    outer loop
      vertex 32.5 17.5405 1.85335
      vertex 32.5 28.75 3.875
      vertex 32.5 8.96619 -0.932615
    endloop
  endfacet
  facet normal -1 0 0
    outer loop
      vertex 32.5 8.96619 -0.932615
      vertex 32.5 28.75 3.875
      vertex 32.5 28.75 -1.875
    endloop
  endfacet
  facet normal -1 0 0
    outer loop
      vertex 32.5 8.96619 -0.932615
      vertex 32.5 28.75 -1.875
      vertex 32.5 0 -1.875
    endloop
  endfacet
  facet normal -1 0 0
    outer loop
      vertex 32.5 0 -1.875
      vertex 32.5 28.75 -1.875
      vertex 32.5 -28.75 -1.875
    endloop
  endfacet
  facet normal -1 0 0
    outer loop
      vertex 32.5 0 -1.875
      vertex 32.5 -28.75 -1.875
      vertex 32.5 -8.96619 -0.932615
    endloop
  endfacet
  facet normal 1 0 0
    outer loop
      vertex -32.5 28.75 -1.875
      vertex -32.5 28.75 3.875
      vertex -32.5 -28.75 3.875
    endloop
  endfacet
  facet normal 1 0 0
    outer loop
      vertex -32.5 -28.75 -1.875
      vertex -32.5 28.75 -1.875
      vertex -32.5 -28.75 3.875
    endloop
  endfacet
  facet normal 0 0 -1
    outer loop
      vertex -22.5 28.75 3.875
      vertex -22.5 -28.75 3.875
      vertex -32.5 28.75 3.875
    endloop
  endfacet
  facet normal 0 0 -1
    outer loop
      vertex -32.5 28.75 3.875
      vertex -22.5 -28.75 3.875
      vertex -32.5 -28.75 3.875
    endloop
  endfacet
endsolid OpenSCAD_Model
