solid OpenSCAD_Model
  facet normal -1 0 0
    outer loop
      vertex -45 -23.15 -3.875
      vertex -45 -23.15 3.875
      vertex -45 23.15 -3.875
    endloop
  endfacet
  facet normal -1 0 0
    outer loop
      vertex -45 23.15 -3.875
      vertex -45 -23.15 3.875
      vertex -45 -21.15 5.875
    endloop
  endfacet
  facet normal -1 0 0
    outer loop
      vertex -45 23.15 -3.875
      vertex -45 -21.15 5.875
      vertex -45 21.15 5.875
    endloop
  endfacet
  facet normal -1 0 0
    outer loop
      vertex -45 23.15 -3.875
      vertex -45 21.15 5.875
      vertex -45 23.15 3.875
    endloop
  endfacet
  facet normal 0 -1 0
    outer loop
      vertex -45 -23.15 3.875
      vertex -45 -23.15 -3.875
      vertex 45 -23.15 -3.875
    endloop
  endfacet
  facet normal 0 -1 0
    outer loop
      vertex 45 -23.15 3.875
      vertex -45 -23.15 3.875
      vertex 45 -23.15 -3.875
    endloop
  endfacet
  facet normal 0 0 -1
    outer loop
      vertex 18.0902 9.51056 -3.875
      vertex -45 23.15 -3.875
      vertex 45 23.15 -3.875
    endloop
  endfacet
  facet normal 0 0 -1
    outer loop
      vertex 5.21852 -2.07912 -3.875
      vertex -45 23.15 -3.875
      vertex 5 0 -3.875
    endloop
  endfacet
  facet normal 0 0 -1
    outer loop
      vertex -45 -23.15 -3.875
      vertex -45 23.15 -3.875
      vertex 5.86454 -4.06737 -3.875
    endloop
  endfacet
  facet normal 0 0 -1
    outer loop
      vertex -45 -23.15 -3.875
      vertex 5.86454 -4.06737 -3.875
      vertex 6.90983 -5.87785 -3.875
    endloop
  endfacet
  facet normal 0 0 -1
    outer loop
      vertex -45 -23.15 -3.875
      vertex 6.90983 -5.87785 -3.875
      vertex 8.30869 -7.43145 -3.875
    endloop
  endfacet
  facet normal 0 0 -1
    outer loop
      vertex -45 -23.15 -3.875
      vertex 8.30869 -7.43145 -3.875
      vertex 10 -8.66025 -3.875
    endloop
  endfacet
  facet normal 0 0 -1
    outer loop
      vertex -45 -23.15 -3.875
      vertex 10 -8.66025 -3.875
      vertex 11.9098 -9.51056 -3.875
    endloop
  endfacet
  facet normal 0 0 -1
    outer loop
      vertex -45 -23.15 -3.875
      vertex 11.9098 -9.51056 -3.875
      vertex 45 -23.15 -3.875
    endloop
  endfacet
  facet normal 0 0 -1
    outer loop
      vertex 16.0453 -9.94522 -3.875
      vertex 45 -23.15 -3.875
      vertex 13.9547 -9.94522 -3.875
    endloop
  endfacet
  facet normal 0 0 -1
    outer loop
      vertex 18.0902 -9.51056 -3.875
      vertex 45 -23.15 -3.875
      vertex 16.0453 -9.94522 -3.875
    endloop
  endfacet
  facet normal 0 0 -1
    outer loop
      vertex 13.9547 -9.94522 -3.875
      vertex 45 -23.15 -3.875
      vertex 11.9098 -9.51056 -3.875
    endloop
  endfacet
  facet normal 0 0 -1
    outer loop
      vertex 20 -8.66025 -3.875
      vertex 45 -23.15 -3.875
      vertex 18.0902 -9.51056 -3.875
    endloop
  endfacet
  facet normal 0 0 -1
    outer loop
      vertex 24.1355 -4.06737 -3.875
      vertex 45 23.15 -3.875
      vertex 23.0902 -5.87785 -3.875
    endloop
  endfacet
  facet normal 0 0 -1
    outer loop
      vertex 45 -23.15 -3.875
      vertex 20 -8.66025 -3.875
      vertex 21.6913 -7.43145 -3.875
    endloop
  endfacet
  facet normal 0 0 -1
    outer loop
      vertex 45 -23.15 -3.875
      vertex 21.6913 -7.43145 -3.875
      vertex 23.0902 -5.87785 -3.875
    endloop
  endfacet
  facet normal 0 0 -1
    outer loop
      vertex 45 -23.15 -3.875
      vertex 23.0902 -5.87785 -3.875
      vertex 45 23.15 -3.875
    endloop
  endfacet
  facet normal 0 0 -1
    outer loop
      vertex 24.7815 -2.07912 -3.875
      vertex 45 23.15 -3.875
      vertex 24.1355 -4.06737 -3.875
    endloop
  endfacet
  facet normal 0 0 -1
    outer loop
      vertex 18.0902 9.51056 -3.875
      vertex 45 23.15 -3.875
      vertex 20 8.66025 -3.875
    endloop
  endfacet
  facet normal 0 0 -1
    outer loop
      vertex 24.7815 -2.07912 -3.875
      vertex 25 0 -3.875
      vertex 45 23.15 -3.875
    endloop
  endfacet
  facet normal 0 0 -1
    outer loop
      vertex 25 0 -3.875
      vertex 24.7815 2.07912 -3.875
      vertex 45 23.15 -3.875
    endloop
  endfacet
  facet normal 0 0 -1
    outer loop
      vertex 24.7815 2.07912 -3.875
      vertex 24.1355 4.06737 -3.875
      vertex 45 23.15 -3.875
    endloop
  endfacet
  facet normal 0 0 -1
    outer loop
      vertex 24.1355 4.06737 -3.875
      vertex 23.0902 5.87785 -3.875
      vertex 45 23.15 -3.875
    endloop
  endfacet
  facet normal 0 0 -1
    outer loop
      vertex 23.0902 5.87785 -3.875
      vertex 21.6913 7.43145 -3.875
      vertex 45 23.15 -3.875
    endloop
  endfacet
  facet normal 0 0 -1
    outer loop
      vertex 21.6913 7.43145 -3.875
      vertex 20 8.66025 -3.875
      vertex 45 23.15 -3.875
    endloop
  endfacet
  facet normal 0 0 -1
    outer loop
      vertex 16.0453 9.94522 -3.875
      vertex -45 23.15 -3.875
      vertex 18.0902 9.51056 -3.875
    endloop
  endfacet
  facet normal 0 0 -1
    outer loop
      vertex 13.9547 9.94522 -3.875
      vertex -45 23.15 -3.875
      vertex 16.0453 9.94522 -3.875
    endloop
  endfacet
  facet normal 0 0 -1
    outer loop
      vertex 11.9098 9.51056 -3.875
      vertex -45 23.15 -3.875
      vertex 13.9547 9.94522 -3.875
    endloop
  endfacet
  facet normal 0 0 -1
    outer loop
      vertex 10 8.66025 -3.875
      vertex -45 23.15 -3.875
      vertex 11.9098 9.51056 -3.875
    endloop
  endfacet
  facet normal 0 0 -1
    outer loop
      vertex 8.30869 7.43145 -3.875
      vertex -45 23.15 -3.875
      vertex 10 8.66025 -3.875
    endloop
  endfacet
  facet normal 0 0 -1
    outer loop
      vertex 6.90983 5.87785 -3.875
      vertex -45 23.15 -3.875
      vertex 8.30869 7.43145 -3.875
    endloop
  endfacet
  facet normal 0 0 -1
    outer loop
      vertex 5.86454 4.06737 -3.875
      vertex -45 23.15 -3.875
      vertex 6.90983 5.87785 -3.875
    endloop
  endfacet
  facet normal 0 0 -1
    outer loop
      vertex 5.21852 2.07912 -3.875
      vertex -45 23.15 -3.875
      vertex 5.86454 4.06737 -3.875
    endloop
  endfacet
  facet normal 0 0 -1
    outer loop
      vertex 5 0 -3.875
      vertex -45 23.15 -3.875
      vertex 5.21852 2.07912 -3.875
    endloop
  endfacet
  facet normal 0 0 -1
    outer loop
      vertex 5.86454 -4.06737 -3.875
      vertex -45 23.15 -3.875
      vertex 5.21852 -2.07912 -3.875
    endloop
  endfacet
  facet normal 0 1 0
    outer loop
      vertex -45 23.15 -3.875
      vertex -45 23.15 3.875
      vertex 45 23.15 -3.875
    endloop
  endfacet
  facet normal 0 1 0
    outer loop
      vertex 45 23.15 -3.875
      vertex -45 23.15 3.875
      vertex 45 23.15 3.875
    endloop
  endfacet
  facet normal 0 0.707107 0.707107
    outer loop
      vertex 45 21.15 5.875
      vertex 45 23.15 3.875
      vertex -33 21.15 5.875
    endloop
  endfacet
  facet normal 0 0.707107 0.707107
    outer loop
      vertex -33 21.15 5.875
      vertex 45 23.15 3.875
      vertex -45 23.15 3.875
    endloop
  endfacet
  facet normal 0 0.707107 0.707107
    outer loop
      vertex -33 21.15 5.875
      vertex -45 23.15 3.875
      vertex -45 21.15 5.875
    endloop
  endfacet
  facet normal 0 0 1
    outer loop
      vertex -33 -21.15 5.875
      vertex -33 21.15 5.875
      vertex -45 21.15 5.875
    endloop
  endfacet
  facet normal 0 0 1
    outer loop
      vertex -45 -21.15 5.875
      vertex -33 -21.15 5.875
      vertex -45 21.15 5.875
    endloop
  endfacet
  facet normal 0 -0.707107 0.707107
    outer loop
      vertex 45 -23.15 3.875
      vertex 45 -21.15 5.875
      vertex -33 -21.15 5.875
    endloop
  endfacet
  facet normal 0 -0.707107 0.707107
    outer loop
      vertex -45 -23.15 3.875
      vertex 45 -23.15 3.875
      vertex -45 -21.15 5.875
    endloop
  endfacet
  facet normal 0 -0.707107 0.707107
    outer loop
      vertex -45 -21.15 5.875
      vertex 45 -23.15 3.875
      vertex -33 -21.15 5.875
    endloop
  endfacet
  facet normal 1 0 0
    outer loop
      vertex 45 0 -1.115
      vertex 45 -23.15 -3.875
      vertex 45 23.15 -3.875
    endloop
  endfacet
  facet normal 1 0 0
    outer loop
      vertex 45 21.15 3.875
      vertex 45 16.796 3.875
      vertex 45 23.15 -3.875
    endloop
  endfacet
  facet normal 1 0 0
    outer loop
      vertex 45 23.15 3.875
      vertex 45 21.15 3.875
      vertex 45 23.15 -3.875
    endloop
  endfacet
  facet normal 1 0 0
    outer loop
      vertex 45 21.15 5.875
      vertex 45 21.15 3.875
      vertex 45 23.15 3.875
    endloop
  endfacet
  facet normal 1 0 0
    outer loop
      vertex 45 16.796 3.875
      vertex 45 12.9037 1.62777
      vertex 45 23.15 -3.875
    endloop
  endfacet
  facet normal 1 0 0
    outer loop
      vertex 45 12.9037 1.62777
      vertex 45 6.596 -0.421733
      vertex 45 23.15 -3.875
    endloop
  endfacet
  facet normal 1 0 0
    outer loop
      vertex 45 -6.596 -0.421733
      vertex 45 -23.15 -3.875
      vertex 45 0 -1.115
    endloop
  endfacet
  facet normal 1 0 0
    outer loop
      vertex 45 -23.15 3.875
      vertex 45 -23.15 -3.875
      vertex 45 -6.596 -0.421733
    endloop
  endfacet
  facet normal 1 0 0
    outer loop
      vertex 45 -23.15 3.875
      vertex 45 -6.596 -0.421733
      vertex 45 -12.9037 1.62777
    endloop
  endfacet
  facet normal 1 0 0
    outer loop
      vertex 45 -21.15 3.875
      vertex 45 -21.15 5.875
      vertex 45 -23.15 3.875
    endloop
  endfacet
  facet normal 1 0 0
    outer loop
      vertex 45 6.596 -0.421733
      vertex 45 0 -1.115
      vertex 45 23.15 -3.875
    endloop
  endfacet
  facet normal 1 0 0
    outer loop
      vertex 45 -12.9037 1.62777
      vertex 45 -21.15 3.875
      vertex 45 -23.15 3.875
    endloop
  endfacet
  facet normal 1 0 0
    outer loop
      vertex 45 -12.9037 1.62777
      vertex 45 -16.796 3.875
      vertex 45 -21.15 3.875
    endloop
  endfacet
  facet normal 0.994522 -0.104528 0
    outer loop
      vertex 5.21852 2.07912 -3.875
      vertex 5.21852 2.07912 -1.875
      vertex 5 0 -1.875
    endloop
  endfacet
  facet normal 0.994522 -0.104528 0
    outer loop
      vertex 5 0 -3.875
      vertex 5.21852 2.07912 -3.875
      vertex 5 0 -1.875
    endloop
  endfacet
  facet normal 0.994522 0.104528 0
    outer loop
      vertex 5 0 -1.875
      vertex 5.21852 -2.07912 -1.875
      vertex 5.21852 -2.07912 -3.875
    endloop
  endfacet
  facet normal 0.994522 0.104528 0
    outer loop
      vertex 5 0 -3.875
      vertex 5 0 -1.875
      vertex 5.21852 -2.07912 -3.875
    endloop
  endfacet
  facet normal 0.951057 -0.309017 0
    outer loop
      vertex 5.86454 4.06737 -3.875
      vertex 5.86454 4.06737 -1.875
      vertex 5.21852 2.07912 -1.875
    endloop
  endfacet
  facet normal 0.951057 -0.309017 0
    outer loop
      vertex 5.21852 2.07912 -3.875
      vertex 5.86454 4.06737 -3.875
      vertex 5.21852 2.07912 -1.875
    endloop
  endfacet
  facet normal 0.866025 -0.5 0
    outer loop
      vertex 6.90983 5.87785 -3.875
      vertex 6.90983 5.87785 -1.875
      vertex 5.86454 4.06737 -1.875
    endloop
  endfacet
  facet normal 0.866025 -0.5 0
    outer loop
      vertex 5.86454 4.06737 -3.875
      vertex 6.90983 5.87785 -3.875
      vertex 5.86454 4.06737 -1.875
    endloop
  endfacet
  facet normal 0.743145 -0.669131 0
    outer loop
      vertex 8.30869 7.43145 -3.875
      vertex 8.30869 7.43145 -1.875
      vertex 6.90983 5.87785 -1.875
    endloop
  endfacet
  facet normal 0.743145 -0.669131 0
    outer loop
      vertex 6.90983 5.87785 -3.875
      vertex 8.30869 7.43145 -3.875
      vertex 6.90983 5.87785 -1.875
    endloop
  endfacet
  facet normal 0.587785 -0.809017 0
    outer loop
      vertex 10 8.66025 -3.875
      vertex 10 8.66025 -1.875
      vertex 8.30869 7.43145 -1.875
    endloop
  endfacet
  facet normal 0.587785 -0.809017 0
    outer loop
      vertex 8.30869 7.43145 -3.875
      vertex 10 8.66025 -3.875
      vertex 8.30869 7.43145 -1.875
    endloop
  endfacet
  facet normal 0.406737 -0.913545 0
    outer loop
      vertex 11.9098 9.51056 -3.875
      vertex 11.9098 9.51056 -1.875
      vertex 10 8.66025 -1.875
    endloop
  endfacet
  facet normal 0.406737 -0.913545 0
    outer loop
      vertex 10 8.66025 -3.875
      vertex 11.9098 9.51056 -3.875
      vertex 10 8.66025 -1.875
    endloop
  endfacet
  facet normal 0.207912 -0.978148 0
    outer loop
      vertex 13.9547 9.94522 -3.875
      vertex 13.9547 9.94522 -1.875
      vertex 11.9098 9.51056 -1.875
    endloop
  endfacet
  facet normal 0.207912 -0.978148 0
    outer loop
      vertex 11.9098 9.51056 -3.875
      vertex 13.9547 9.94522 -3.875
      vertex 11.9098 9.51056 -1.875
    endloop
  endfacet
  facet normal 0 -1 0
    outer loop
      vertex 16.0453 9.94522 -3.875
      vertex 16.0453 9.94522 -1.875
      vertex 13.9547 9.94522 -1.875
    endloop
  endfacet
  facet normal 0 -1 0
    outer loop
      vertex 13.9547 9.94522 -3.875
      vertex 16.0453 9.94522 -3.875
      vertex 13.9547 9.94522 -1.875
    endloop
  endfacet
  facet normal -0.207912 -0.978148 0
    outer loop
      vertex 18.0902 9.51056 -3.875
      vertex 18.0902 9.51056 -1.875
      vertex 16.0453 9.94522 -1.875
    endloop
  endfacet
  facet normal -0.207912 -0.978148 0
    outer loop
      vertex 16.0453 9.94522 -3.875
      vertex 18.0902 9.51056 -3.875
      vertex 16.0453 9.94522 -1.875
    endloop
  endfacet
  facet normal -0.406737 -0.913545 0
    outer loop
      vertex 20 8.66025 -3.875
      vertex 20 8.66025 -1.875
      vertex 18.0902 9.51056 -1.875
    endloop
  endfacet
  facet normal -0.406737 -0.913545 0
    outer loop
      vertex 18.0902 9.51056 -3.875
      vertex 20 8.66025 -3.875
      vertex 18.0902 9.51056 -1.875
    endloop
  endfacet
  facet normal -0.587785 -0.809017 0
    outer loop
      vertex 21.6913 7.43145 -3.875
      vertex 21.6913 7.43145 -1.875
      vertex 20 8.66025 -1.875
    endloop
  endfacet
  facet normal -0.587785 -0.809017 0
    outer loop
      vertex 20 8.66025 -3.875
      vertex 21.6913 7.43145 -3.875
      vertex 20 8.66025 -1.875
    endloop
  endfacet
  facet normal -0.743145 -0.669131 0
    outer loop
      vertex 23.0902 5.87785 -1.875
      vertex 21.6913 7.43145 -1.875
      vertex 23.0902 5.87785 -3.875
    endloop
  endfacet
  facet normal -0.743145 -0.669131 0
    outer loop
      vertex 23.0902 5.87785 -3.875
      vertex 21.6913 7.43145 -1.875
      vertex 21.6913 7.43145 -3.875
    endloop
  endfacet
  facet normal -0.866025 -0.5 0
    outer loop
      vertex 24.1355 4.06737 -1.875
      vertex 23.0902 5.87785 -1.875
      vertex 24.1355 4.06737 -3.875
    endloop
  endfacet
  facet normal -0.866025 -0.5 0
    outer loop
      vertex 24.1355 4.06737 -3.875
      vertex 23.0902 5.87785 -1.875
      vertex 23.0902 5.87785 -3.875
    endloop
  endfacet
  facet normal -0.951057 -0.309017 0
    outer loop
      vertex 24.7815 2.07912 -1.875
      vertex 24.1355 4.06737 -1.875
      vertex 24.7815 2.07912 -3.875
    endloop
  endfacet
  facet normal -0.951057 -0.309017 0
    outer loop
      vertex 24.7815 2.07912 -3.875
      vertex 24.1355 4.06737 -1.875
      vertex 24.1355 4.06737 -3.875
    endloop
  endfacet
  facet normal -0.994522 -0.104528 0
    outer loop
      vertex 25 0 -1.875
      vertex 24.7815 2.07912 -1.875
      vertex 25 0 -3.875
    endloop
  endfacet
  facet normal -0.994522 -0.104528 0
    outer loop
      vertex 25 0 -3.875
      vertex 24.7815 2.07912 -1.875
      vertex 24.7815 2.07912 -3.875
    endloop
  endfacet
  facet normal -0.994522 0.104528 0
    outer loop
      vertex 25 0 -1.875
      vertex 25 0 -3.875
      vertex 24.7815 -2.07912 -1.875
    endloop
  endfacet
  facet normal -0.994522 0.104528 0
    outer loop
      vertex 24.7815 -2.07912 -1.875
      vertex 25 0 -3.875
      vertex 24.7815 -2.07912 -3.875
    endloop
  endfacet
  facet normal -0.951057 0.309017 0
    outer loop
      vertex 24.7815 -2.07912 -1.875
      vertex 24.7815 -2.07912 -3.875
      vertex 24.1355 -4.06737 -1.875
    endloop
  endfacet
  facet normal -0.951057 0.309017 0
    outer loop
      vertex 24.1355 -4.06737 -1.875
      vertex 24.7815 -2.07912 -3.875
      vertex 24.1355 -4.06737 -3.875
    endloop
  endfacet
  facet normal -0.866025 0.5 0
    outer loop
      vertex 24.1355 -4.06737 -1.875
      vertex 24.1355 -4.06737 -3.875
      vertex 23.0902 -5.87785 -1.875
    endloop
  endfacet
  facet normal -0.866025 0.5 0
    outer loop
      vertex 23.0902 -5.87785 -1.875
      vertex 24.1355 -4.06737 -3.875
      vertex 23.0902 -5.87785 -3.875
    endloop
  endfacet
  facet normal -0.743145 0.669131 0
    outer loop
      vertex 23.0902 -5.87785 -1.875
      vertex 23.0902 -5.87785 -3.875
      vertex 21.6913 -7.43145 -1.875
    endloop
  endfacet
  facet normal -0.743145 0.669131 0
    outer loop
      vertex 21.6913 -7.43145 -1.875
      vertex 23.0902 -5.87785 -3.875
      vertex 21.6913 -7.43145 -3.875
    endloop
  endfacet
  facet normal -0.587785 0.809017 0
    outer loop
      vertex 21.6913 -7.43145 -1.875
      vertex 21.6913 -7.43145 -3.875
      vertex 20 -8.66025 -1.875
    endloop
  endfacet
  facet normal -0.587785 0.809017 0
    outer loop
      vertex 20 -8.66025 -1.875
      vertex 21.6913 -7.43145 -3.875
      vertex 20 -8.66025 -3.875
    endloop
  endfacet
  facet normal -0.406737 0.913545 0
    outer loop
      vertex 20 -8.66025 -1.875
      vertex 20 -8.66025 -3.875
      vertex 18.0902 -9.51056 -1.875
    endloop
  endfacet
  facet normal -0.406737 0.913545 0
    outer loop
      vertex 18.0902 -9.51056 -1.875
      vertex 20 -8.66025 -3.875
      vertex 18.0902 -9.51056 -3.875
    endloop
  endfacet
  facet normal -0.207912 0.978148 0
    outer loop
      vertex 18.0902 -9.51056 -1.875
      vertex 18.0902 -9.51056 -3.875
      vertex 16.0453 -9.94522 -1.875
    endloop
  endfacet
  facet normal -0.207912 0.978148 0
    outer loop
      vertex 16.0453 -9.94522 -1.875
      vertex 18.0902 -9.51056 -3.875
      vertex 16.0453 -9.94522 -3.875
    endloop
  endfacet
  facet normal 0 1 0
    outer loop
      vertex 16.0453 -9.94522 -1.875
      vertex 16.0453 -9.94522 -3.875
      vertex 13.9547 -9.94522 -1.875
    endloop
  endfacet
  facet normal 0 1 0
    outer loop
      vertex 13.9547 -9.94522 -1.875
      vertex 16.0453 -9.94522 -3.875
      vertex 13.9547 -9.94522 -3.875
    endloop
  endfacet
  facet normal 0.207912 0.978148 0
    outer loop
      vertex 13.9547 -9.94522 -1.875
      vertex 13.9547 -9.94522 -3.875
      vertex 11.9098 -9.51056 -1.875
    endloop
  endfacet
  facet normal 0.207912 0.978148 0
    outer loop
      vertex 11.9098 -9.51056 -1.875
      vertex 13.9547 -9.94522 -3.875
      vertex 11.9098 -9.51056 -3.875
    endloop
  endfacet
  facet normal 0.406737 0.913545 0
    outer loop
      vertex 11.9098 -9.51056 -1.875
      vertex 11.9098 -9.51056 -3.875
      vertex 10 -8.66025 -1.875
    endloop
  endfacet
  facet normal 0.406737 0.913545 0
    outer loop
      vertex 10 -8.66025 -1.875
      vertex 11.9098 -9.51056 -3.875
      vertex 10 -8.66025 -3.875
    endloop
  endfacet
  facet normal 0.587785 0.809017 0
    outer loop
      vertex 10 -8.66025 -1.875
      vertex 10 -8.66025 -3.875
      vertex 8.30869 -7.43145 -1.875
    endloop
  endfacet
  facet normal 0.587785 0.809017 0
    outer loop
      vertex 8.30869 -7.43145 -1.875
      vertex 10 -8.66025 -3.875
      vertex 8.30869 -7.43145 -3.875
    endloop
  endfacet
  facet normal 0.743145 0.669131 0
    outer loop
      vertex 6.90983 -5.87785 -1.875
      vertex 8.30869 -7.43145 -1.875
      vertex 8.30869 -7.43145 -3.875
    endloop
  endfacet
  facet normal 0.743145 0.669131 0
    outer loop
      vertex 6.90983 -5.87785 -3.875
      vertex 6.90983 -5.87785 -1.875
      vertex 8.30869 -7.43145 -3.875
    endloop
  endfacet
  facet normal 0.866025 0.5 0
    outer loop
      vertex 5.86454 -4.06737 -1.875
      vertex 6.90983 -5.87785 -1.875
      vertex 6.90983 -5.87785 -3.875
    endloop
  endfacet
  facet normal 0.866025 0.5 0
    outer loop
      vertex 5.86454 -4.06737 -3.875
      vertex 5.86454 -4.06737 -1.875
      vertex 6.90983 -5.87785 -3.875
    endloop
  endfacet
  facet normal 0.951057 0.309017 0
    outer loop
      vertex 5.21852 -2.07912 -1.875
      vertex 5.86454 -4.06737 -1.875
      vertex 5.86454 -4.06737 -3.875
    endloop
  endfacet
  facet normal 0.951057 0.309017 0
    outer loop
      vertex 5.21852 -2.07912 -3.875
      vertex 5.21852 -2.07912 -1.875
      vertex 5.86454 -4.06737 -3.875
    endloop
  endfacet
  facet normal 0 -1 0
    outer loop
      vertex 45 21.15 5.875
      vertex 43 21.15 3.875
      vertex 45 21.15 3.875
    endloop
  endfacet
  facet normal 0 -1 0
    outer loop
      vertex -33 21.15 5.875
      vertex 43 21.15 3.875
      vertex 45 21.15 5.875
    endloop
  endfacet
  facet normal 0 -1 0
    outer loop
      vertex 43 21.15 -1.875
      vertex 43 21.15 3.875
      vertex -33 21.15 5.875
    endloop
  endfacet
  facet normal 0 -1 0
    outer loop
      vertex -33 21.15 3.875
      vertex 43 21.15 -1.875
      vertex -33 21.15 5.875
    endloop
  endfacet
  facet normal 0 -1 0
    outer loop
      vertex -43 21.15 3.875
      vertex 43 21.15 -1.875
      vertex -33 21.15 3.875
    endloop
  endfacet
  facet normal 0 -1 0
    outer loop
      vertex -43 21.15 -1.875
      vertex 43 21.15 -1.875
      vertex -43 21.15 3.875
    endloop
  endfacet
  facet normal 1 0 0
    outer loop
      vertex -33 21.15 3.875
      vertex -33 21.15 5.875
      vertex -33 -21.15 5.875
    endloop
  endfacet
  facet normal 1 0 0
    outer loop
      vertex -33 -21.15 3.875
      vertex -33 21.15 3.875
      vertex -33 -21.15 5.875
    endloop
  endfacet
  facet normal 0 1 0
    outer loop
      vertex -33 -21.15 3.875
      vertex -33 -21.15 5.875
      vertex 45 -21.15 5.875
    endloop
  endfacet
  facet normal 0 1 0
    outer loop
      vertex 43 -21.15 3.875
      vertex 45 -21.15 5.875
      vertex 45 -21.15 3.875
    endloop
  endfacet
  facet normal 0 1 0
    outer loop
      vertex -33 -21.15 3.875
      vertex 45 -21.15 5.875
      vertex 43 -21.15 3.875
    endloop
  endfacet
  facet normal 0 1 0
    outer loop
      vertex -33 -21.15 3.875
      vertex 43 -21.15 -1.875
      vertex -43 -21.15 3.875
    endloop
  endfacet
  facet normal 0 1 0
    outer loop
      vertex 43 -21.15 3.875
      vertex 43 -21.15 -1.875
      vertex -33 -21.15 3.875
    endloop
  endfacet
  facet normal 0 1 0
    outer loop
      vertex 43 -21.15 -1.875
      vertex -43 -21.15 -1.875
      vertex -43 -21.15 3.875
    endloop
  endfacet
  facet normal 0 0 1
    outer loop
      vertex 43 -16.796 3.875
      vertex 43 -21.15 3.875
      vertex 45 -21.15 3.875
    endloop
  endfacet
  facet normal 0 0 1
    outer loop
      vertex 45 -16.796 3.875
      vertex 43 -16.796 3.875
      vertex 45 -21.15 3.875
    endloop
  endfacet
  facet normal -1.92296e-016 0.5 0.866025
    outer loop
      vertex 45 -16.796 3.875
      vertex 45 -12.9037 1.62777
      vertex 43 -12.9037 1.62777
    endloop
  endfacet
  facet normal -1.92296e-016 0.5 0.866025
    outer loop
      vertex 43 -16.796 3.875
      vertex 45 -16.796 3.875
      vertex 43 -12.9037 1.62777
    endloop
  endfacet
  facet normal -2.11177e-016 0.309017 0.951057
    outer loop
      vertex 45 -12.9037 1.62777
      vertex 45 -6.596 -0.421733
      vertex 43 -6.596 -0.421733
    endloop
  endfacet
  facet normal -2.11177e-016 0.309017 0.951057
    outer loop
      vertex 43 -12.9037 1.62777
      vertex 45 -12.9037 1.62777
      vertex 43 -6.596 -0.421733
    endloop
  endfacet
  facet normal -2.20828e-016 0.104528 0.994522
    outer loop
      vertex 45 -6.596 -0.421733
      vertex 45 0 -1.115
      vertex 43 0 -1.115
    endloop
  endfacet
  facet normal -2.20828e-016 0.104528 0.994522
    outer loop
      vertex 43 -6.596 -0.421733
      vertex 45 -6.596 -0.421733
      vertex 43 0 -1.115
    endloop
  endfacet
  facet normal -2.20828e-016 -0.104528 0.994522
    outer loop
      vertex 45 0 -1.115
      vertex 45 6.596 -0.421733
      vertex 43 6.596 -0.421733
    endloop
  endfacet
  facet normal -2.20828e-016 -0.104528 0.994522
    outer loop
      vertex 43 0 -1.115
      vertex 45 0 -1.115
      vertex 43 6.596 -0.421733
    endloop
  endfacet
  facet normal -2.11177e-016 -0.309017 0.951057
    outer loop
      vertex 45 6.596 -0.421733
      vertex 45 12.9037 1.62777
      vertex 43 12.9037 1.62777
    endloop
  endfacet
  facet normal -2.11177e-016 -0.309017 0.951057
    outer loop
      vertex 43 6.596 -0.421733
      vertex 45 6.596 -0.421733
      vertex 43 12.9037 1.62777
    endloop
  endfacet
  facet normal -1.92296e-016 -0.5 0.866025
    outer loop
      vertex 45 12.9037 1.62777
      vertex 45 16.796 3.875
      vertex 43 16.796 3.875
    endloop
  endfacet
  facet normal -1.92296e-016 -0.5 0.866025
    outer loop
      vertex 43 12.9037 1.62777
      vertex 45 12.9037 1.62777
      vertex 43 16.796 3.875
    endloop
  endfacet
  facet normal 0 0 1
    outer loop
      vertex 43 21.15 3.875
      vertex 43 16.796 3.875
      vertex 45 16.796 3.875
    endloop
  endfacet
  facet normal 0 0 1
    outer loop
      vertex 45 21.15 3.875
      vertex 43 21.15 3.875
      vertex 45 16.796 3.875
    endloop
  endfacet
  facet normal 0 0 1
    outer loop
      vertex 11.9098 9.51056 -1.875
      vertex 43 21.15 -1.875
      vertex -43 21.15 -1.875
    endloop
  endfacet
  facet normal 0 0 1
    outer loop
      vertex 5 0 -1.875
      vertex 5.21852 2.07912 -1.875
      vertex -43 21.15 -1.875
    endloop
  endfacet
  facet normal 0 0 1
    outer loop
      vertex 5.21852 2.07912 -1.875
      vertex 5.86454 4.06737 -1.875
      vertex -43 21.15 -1.875
    endloop
  endfacet
  facet normal 0 0 1
    outer loop
      vertex 5.86454 4.06737 -1.875
      vertex 6.90983 5.87785 -1.875
      vertex -43 21.15 -1.875
    endloop
  endfacet
  facet normal 0 0 1
    outer loop
      vertex 18.0902 9.51056 -1.875
      vertex 20 8.66025 -1.875
      vertex 43 21.15 -1.875
    endloop
  endfacet
  facet normal 0 0 1
    outer loop
      vertex 6.90983 5.87785 -1.875
      vertex 8.30869 7.43145 -1.875
      vertex -43 21.15 -1.875
    endloop
  endfacet
  facet normal 0 0 1
    outer loop
      vertex 8.30869 7.43145 -1.875
      vertex 10 8.66025 -1.875
      vertex -43 21.15 -1.875
    endloop
  endfacet
  facet normal 0 0 1
    outer loop
      vertex 10 8.66025 -1.875
      vertex 11.9098 9.51056 -1.875
      vertex -43 21.15 -1.875
    endloop
  endfacet
  facet normal 0 0 1
    outer loop
      vertex 13.9547 9.94522 -1.875
      vertex 16.0453 9.94522 -1.875
      vertex 43 21.15 -1.875
    endloop
  endfacet
  facet normal 0 0 1
    outer loop
      vertex 20 -8.66025 -1.875
      vertex 18.0902 -9.51056 -1.875
      vertex 43 -21.15 -1.875
    endloop
  endfacet
  facet normal 0 0 1
    outer loop
      vertex 20 8.66025 -1.875
      vertex 21.6913 7.43145 -1.875
      vertex 43 21.15 -1.875
    endloop
  endfacet
  facet normal 0 0 1
    outer loop
      vertex 23.0902 5.87785 -1.875
      vertex 24.1355 4.06737 -1.875
      vertex 43 -21.15 -1.875
    endloop
  endfacet
  facet normal 0 0 1
    outer loop
      vertex 23.0902 5.87785 -1.875
      vertex 43 21.15 -1.875
      vertex 21.6913 7.43145 -1.875
    endloop
  endfacet
  facet normal 0 0 1
    outer loop
      vertex 21.6913 -7.43145 -1.875
      vertex 20 -8.66025 -1.875
      vertex 43 -21.15 -1.875
    endloop
  endfacet
  facet normal 0 0 1
    outer loop
      vertex 43 -21.15 -1.875
      vertex 43 21.15 -1.875
      vertex 23.0902 5.87785 -1.875
    endloop
  endfacet
  facet normal 0 0 1
    outer loop
      vertex 43 -21.15 -1.875
      vertex 24.1355 4.06737 -1.875
      vertex 24.7815 2.07912 -1.875
    endloop
  endfacet
  facet normal 0 0 1
    outer loop
      vertex 43 -21.15 -1.875
      vertex 24.7815 2.07912 -1.875
      vertex 25 0 -1.875
    endloop
  endfacet
  facet normal 0 0 1
    outer loop
      vertex 43 -21.15 -1.875
      vertex 25 0 -1.875
      vertex 24.7815 -2.07912 -1.875
    endloop
  endfacet
  facet normal 0 0 1
    outer loop
      vertex 43 -21.15 -1.875
      vertex 24.7815 -2.07912 -1.875
      vertex 24.1355 -4.06737 -1.875
    endloop
  endfacet
  facet normal 0 0 1
    outer loop
      vertex 43 -21.15 -1.875
      vertex 24.1355 -4.06737 -1.875
      vertex 23.0902 -5.87785 -1.875
    endloop
  endfacet
  facet normal 0 0 1
    outer loop
      vertex 43 -21.15 -1.875
      vertex 23.0902 -5.87785 -1.875
      vertex 21.6913 -7.43145 -1.875
    endloop
  endfacet
  facet normal 0 0 1
    outer loop
      vertex 11.9098 9.51056 -1.875
      vertex 13.9547 9.94522 -1.875
      vertex 43 21.15 -1.875
    endloop
  endfacet
  facet normal 0 0 1
    outer loop
      vertex 16.0453 -9.94522 -1.875
      vertex 43 -21.15 -1.875
      vertex 18.0902 -9.51056 -1.875
    endloop
  endfacet
  facet normal 0 0 1
    outer loop
      vertex 10 -8.66025 -1.875
      vertex 8.30869 -7.43145 -1.875
      vertex -43 21.15 -1.875
    endloop
  endfacet
  facet normal 0 0 1
    outer loop
      vertex -43 -21.15 -1.875
      vertex 43 -21.15 -1.875
      vertex 16.0453 -9.94522 -1.875
    endloop
  endfacet
  facet normal 0 0 1
    outer loop
      vertex 5.86454 -4.06737 -1.875
      vertex 5.21852 -2.07912 -1.875
      vertex -43 21.15 -1.875
    endloop
  endfacet
  facet normal 0 0 1
    outer loop
      vertex 8.30869 -7.43145 -1.875
      vertex 6.90983 -5.87785 -1.875
      vertex -43 21.15 -1.875
    endloop
  endfacet
  facet normal 0 0 1
    outer loop
      vertex -43 -21.15 -1.875
      vertex 13.9547 -9.94522 -1.875
      vertex 11.9098 -9.51056 -1.875
    endloop
  endfacet
  facet normal 0 0 1
    outer loop
      vertex -43 -21.15 -1.875
      vertex 10 -8.66025 -1.875
      vertex -43 21.15 -1.875
    endloop
  endfacet
  facet normal 0 0 1
    outer loop
      vertex -43 -21.15 -1.875
      vertex 11.9098 -9.51056 -1.875
      vertex 10 -8.66025 -1.875
    endloop
  endfacet
  facet normal 0 0 1
    outer loop
      vertex 6.90983 -5.87785 -1.875
      vertex 5.86454 -4.06737 -1.875
      vertex -43 21.15 -1.875
    endloop
  endfacet
  facet normal 0 0 1
    outer loop
      vertex 16.0453 -9.94522 -1.875
      vertex 13.9547 -9.94522 -1.875
      vertex -43 -21.15 -1.875
    endloop
  endfacet
  facet normal 0 0 1
    outer loop
      vertex 5.21852 -2.07912 -1.875
      vertex 5 0 -1.875
      vertex -43 21.15 -1.875
    endloop
  endfacet
  facet normal 0 0 1
    outer loop
      vertex 16.0453 9.94522 -1.875
      vertex 18.0902 9.51056 -1.875
      vertex 43 21.15 -1.875
    endloop
  endfacet
  facet normal -1 0 0
    outer loop
      vertex 43 -16.796 3.875
      vertex 43 -12.9037 1.62777
      vertex 43 -21.15 3.875
    endloop
  endfacet
  facet normal -1 0 0
    outer loop
      vertex 43 -21.15 3.875
      vertex 43 -12.9037 1.62777
      vertex 43 -6.596 -0.421733
    endloop
  endfacet
  facet normal -1 0 0
    outer loop
      vertex 43 -6.596 -0.421733
      vertex 43 -21.15 -1.875
      vertex 43 -21.15 3.875
    endloop
  endfacet
  facet normal -1 0 0
    outer loop
      vertex 43 12.9037 1.62777
      vertex 43 16.796 3.875
      vertex 43 21.15 3.875
    endloop
  endfacet
  facet normal -1 0 0
    outer loop
      vertex 43 12.9037 1.62777
      vertex 43 21.15 3.875
      vertex 43 6.596 -0.421733
    endloop
  endfacet
  facet normal -1 0 0
    outer loop
      vertex 43 6.596 -0.421733
      vertex 43 21.15 3.875
      vertex 43 21.15 -1.875
    endloop
  endfacet
  facet normal -1 0 0
    outer loop
      vertex 43 6.596 -0.421733
      vertex 43 21.15 -1.875
      vertex 43 0 -1.115
    endloop
  endfacet
  facet normal -1 0 0
    outer loop
      vertex 43 0 -1.115
      vertex 43 21.15 -1.875
      vertex 43 -21.15 -1.875
    endloop
  endfacet
  facet normal -1 0 0
    outer loop
      vertex 43 0 -1.115
      vertex 43 -21.15 -1.875
      vertex 43 -6.596 -0.421733
    endloop
  endfacet
  facet normal 1 0 0
    outer loop
      vertex -43 21.15 -1.875
      vertex -43 21.15 3.875
      vertex -43 -21.15 3.875
    endloop
  endfacet
  facet normal 1 0 0
    outer loop
      vertex -43 -21.15 -1.875
      vertex -43 21.15 -1.875
      vertex -43 -21.15 3.875
    endloop
  endfacet
  facet normal 0 0 -1
    outer loop
      vertex -33 21.15 3.875
      vertex -33 -21.15 3.875
      vertex -43 21.15 3.875
    endloop
  endfacet
  facet normal 0 0 -1
    outer loop
      vertex -43 21.15 3.875
      vertex -33 -21.15 3.875
      vertex -43 -21.15 3.875
    endloop
  endfacet
endsolid OpenSCAD_Model
