  0
SECTION
  2
HEADER
  9
$ACADVER
  1
AC1018
  9
$ACADMAINTVER
 70
   104
  9
$DWGCODEPAGE
  3
ANSI_1252
  9
$LASTSAVEDBY
  1
OdrAdeK
  9
$INSBASE
 10
0.0
 20
0.0
 30
0.0
  9
$EXTMIN
 10
-5.800000000000267
 20
-23.2249999999998
 30
0.0
  9
$EXTMAX
 10
155.3483751169653
 20
155.5150446821562
 30
0.0
  9
$LIMMIN
 10
0.0
 20
0.0
  9
$LIMMAX
 10
420.0
 20
297.0
  9
$ORTHOMODE
 70
     1
  9
$REGENMODE
 70
     1
  9
$FILLMODE
 70
     1
  9
$QTEXTMODE
 70
     0
  9
$MIRRTEXT
 70
     0
  9
$LTSCALE
 40
1.0
  9
$ATTMODE
 70
     1
  9
$TEXTSIZE
 40
2.5
  9
$TRACEWID
 40
1.0
  9
$TEXTSTYLE
  7
Standard
  9
$CLAYER
  8
0
  9
$CELTYPE
  6
ByLayer
  9
$CECOLOR
 62
     1
  9
$CELTSCALE
 40
1.0
  9
$DISPSILH
 70
     0
  9
$DIMSCALE
 40
1.0
  9
$DIMASZ
 40
2.5
  9
$DIMEXO
 40
0.625
  9
$DIMDLI
 40
3.75
  9
$DIMRND
 40
0.0
  9
$DIMDLE
 40
0.0
  9
$DIMEXE
 40
1.25
  9
$DIMTP
 40
0.0
  9
$DIMTM
 40
0.0
  9
$DIMTXT
 40
2.5
  9
$DIMCEN
 40
2.5
  9
$DIMTSZ
 40
0.0
  9
$DIMTOL
 70
     0
  9
$DIMLIM
 70
     0
  9
$DIMTIH
 70
     0
  9
$DIMTOH
 70
     0
  9
$DIMSE1
 70
     0
  9
$DIMSE2
 70
     0
  9
$DIMTAD
 70
     1
  9
$DIMZIN
 70
     8
  9
$DIMBLK
  1

  9
$DIMASO
 70
     1
  9
$DIMSHO
 70
     1
  9
$DIMPOST
  1

  9
$DIMAPOST
  1

  9
$DIMALT
 70
     0
  9
$DIMALTD
 70
     3
  9
$DIMALTF
 40
0.03937007874016
  9
$DIMLFAC
 40
1.0
  9
$DIMTOFL
 70
     1
  9
$DIMTVP
 40
0.0
  9
$DIMTIX
 70
     0
  9
$DIMSOXD
 70
     0
  9
$DIMSAH
 70
     0
  9
$DIMBLK1
  1

  9
$DIMBLK2
  1

  9
$DIMSTYLE
  2
ISO-25
  9
$DIMCLRD
 70
     0
  9
$DIMCLRE
 70
     0
  9
$DIMCLRT
 70
     0
  9
$DIMTFAC
 40
1.0
  9
$DIMGAP
 40
0.625
  9
$DIMJUST
 70
     0
  9
$DIMSD1
 70
     0
  9
$DIMSD2
 70
     0
  9
$DIMTOLJ
 70
     0
  9
$DIMTZIN
 70
     8
  9
$DIMALTZ
 70
     0
  9
$DIMALTTZ
 70
     0
  9
$DIMUPT
 70
     0
  9
$DIMDEC
 70
     2
  9
$DIMTDEC
 70
     2
  9
$DIMALTU
 70
     2
  9
$DIMALTTD
 70
     3
  9
$DIMTXSTY
  7
Standard
  9
$DIMAUNIT
 70
     0
  9
$DIMADEC
 70
     0
  9
$DIMALTRND
 40
0.0
  9
$DIMAZIN
 70
     0
  9
$DIMDSEP
 70
    44
  9
$DIMATFIT
 70
     3
  9
$DIMFRAC
 70
     0
  9
$DIMLDRBLK
  1

  9
$DIMLUNIT
 70
     2
  9
$DIMLWD
 70
    -2
  9
$DIMLWE
 70
    -2
  9
$DIMTMOVE
 70
     0
  9
$LUNITS
 70
     2
  9
$LUPREC
 70
     4
  9
$SKETCHINC
 40
1.0
  9
$FILLETRAD
 40
0.0
  9
$AUNITS
 70
     0
  9
$AUPREC
 70
     0
  9
$MENU
  1
.
  9
$ELEVATION
 40
0.0
  9
$PELEVATION
 40
0.0
  9
$THICKNESS
 40
0.0
  9
$LIMCHECK
 70
     0
  9
$CHAMFERA
 40
0.0
  9
$CHAMFERB
 40
0.0
  9
$CHAMFERC
 40
0.0
  9
$CHAMFERD
 40
0.0
  9
$SKPOLY
 70
     0
  9
$TDCREATE
 40
2457180.003814190
  9
$TDUCREATE
 40
2457179.920480857
  9
$TDUPDATE
 40
2457180.006442952
  9
$TDUUPDATE
 40
2457179.923109618
  9
$TDINDWG
 40
0.0026305787
  9
$TDUSRTIMER
 40
0.0026305787
  9
$USRTIMER
 70
     1
  9
$ANGBASE
 50
0.0
  9
$ANGDIR
 70
     0
  9
$PDMODE
 70
     0
  9
$PDSIZE
 40
0.0
  9
$PLINEWID
 40
0.0
  9
$SPLFRAME
 70
     0
  9
$SPLINETYPE
 70
     6
  9
$SPLINESEGS
 70
     8
  9
$HANDSEED
  5
2DF
  9
$SURFTAB1
 70
     6
  9
$SURFTAB2
 70
     6
  9
$SURFTYPE
 70
     6
  9
$SURFU
 70
     6
  9
$SURFV
 70
     6
  9
$UCSBASE
  2

  9
$UCSNAME
  2

  9
$UCSORG
 10
0.0
 20
0.0
 30
0.0
  9
$UCSXDIR
 10
1.0
 20
0.0
 30
0.0
  9
$UCSYDIR
 10
0.0
 20
1.0
 30
0.0
  9
$UCSORTHOREF
  2

  9
$UCSORTHOVIEW
 70
     1
  9
$UCSORGTOP
 10
0.0
 20
0.0
 30
0.0
  9
$UCSORGBOTTOM
 10
0.0
 20
0.0
 30
0.0
  9
$UCSORGLEFT
 10
0.0
 20
0.0
 30
0.0
  9
$UCSORGRIGHT
 10
0.0
 20
0.0
 30
0.0
  9
$UCSORGFRONT
 10
0.0
 20
0.0
 30
0.0
  9
$UCSORGBACK
 10
0.0
 20
0.0
 30
0.0
  9
$PUCSBASE
  2

  9
$PUCSNAME
  2

  9
$PUCSORG
 10
0.0
 20
0.0
 30
0.0
  9
$PUCSXDIR
 10
1.0
 20
0.0
 30
0.0
  9
$PUCSYDIR
 10
0.0
 20
1.0
 30
0.0
  9
$PUCSORTHOREF
  2

  9
$PUCSORTHOVIEW
 70
     0
  9
$PUCSORGTOP
 10
0.0
 20
0.0
 30
0.0
  9
$PUCSORGBOTTOM
 10
0.0
 20
0.0
 30
0.0
  9
$PUCSORGLEFT
 10
0.0
 20
0.0
 30
0.0
  9
$PUCSORGRIGHT
 10
0.0
 20
0.0
 30
0.0
  9
$PUCSORGFRONT
 10
0.0
 20
0.0
 30
0.0
  9
$PUCSORGBACK
 10
0.0
 20
0.0
 30
0.0
  9
$USERI1
 70
     0
  9
$USERI2
 70
     0
  9
$USERI3
 70
     0
  9
$USERI4
 70
     0
  9
$USERI5
 70
     0
  9
$USERR1
 40
0.0
  9
$USERR2
 40
0.0
  9
$USERR3
 40
0.0
  9
$USERR4
 40
0.0
  9
$USERR5
 40
0.0
  9
$WORLDVIEW
 70
     1
  9
$SHADEDGE
 70
     3
  9
$SHADEDIF
 70
    70
  9
$TILEMODE
 70
     1
  9
$MAXACTVP
 70
    64
  9
$PINSBASE
 10
0.0
 20
0.0
 30
0.0
  9
$PLIMCHECK
 70
     0
  9
$PEXTMIN
 10
0.0
 20
0.0
 30
0.0
  9
$PEXTMAX
 10
0.0
 20
0.0
 30
0.0
  9
$PLIMMIN
 10
0.0
 20
0.0
  9
$PLIMMAX
 10
12.0
 20
9.0
  9
$UNITMODE
 70
     0
  9
$VISRETAIN
 70
     1
  9
$PLINEGEN
 70
     0
  9
$PSLTSCALE
 70
     1
  9
$TREEDEPTH
 70
  3020
  9
$CMLSTYLE
  2
Standard
  9
$CMLJUST
 70
     0
  9
$CMLSCALE
 40
20.0
  9
$PROXYGRAPHICS
 70
     1
  9
$MEASUREMENT
 70
     1
  9
$CELWEIGHT
370
    -1
  9
$ENDCAPS
280
     0
  9
$JOINSTYLE
280
     0
  9
$LWDISPLAY
290
     0
  9
$INSUNITS
 70
     4
  9
$HYPERLINKBASE
  1

  9
$STYLESHEET
  1

  9
$XEDIT
290
     1
  9
$CEPSNTYPE
380
     0
  9
$PSTYLEMODE
290
     1
  9
$FINGERPRINTGUID
  2
{FD47EF51-09A2-4C66-9B15-2C5033612366}
  9
$VERSIONGUID
  2
{E4544700-EBFC-47B5-9927-1AB541716CC9}
  9
$EXTNAMES
290
     1
  9
$PSVPSCALE
 40
0.0
  9
$OLESTARTUP
290
     0
  9
$SORTENTS
280
   127
  9
$INDEXCTL
280
     0
  9
$HIDETEXT
280
     1
  9
$XCLIPFRAME
290
     0
  9
$HALOGAP
280
     0
  9
$OBSCOLOR
 70
   257
  9
$OBSLTYPE
280
     0
  9
$INTERSECTIONDISPLAY
280
     0
  9
$INTERSECTIONCOLOR
 70
   257
  9
$DIMASSOC
280
     2
  9
$PROJECTNAME
  1

  0
ENDSEC
  0
SECTION
  2
CLASSES
  0
CLASS
  1
ACDBDICTIONARYWDFLT
  2
AcDbDictionaryWithDefault
  3
ObjectDBX Classes
 90
        0
 91
        1
280
     0
281
     0
  0
CLASS
  1
DICTIONARYVAR
  2
AcDbDictionaryVar
  3
ObjectDBX Classes
 90
        0
 91
        9
280
     0
281
     0
  0
CLASS
  1
TABLESTYLE
  2
AcDbTableStyle
  3
ObjectDBX Classes
 90
     4095
 91
        1
280
     0
281
     0
  0
CLASS
  1
MATERIAL
  2
AcDbMaterial
  3
ObjectDBX Classes
 90
     1153
 91
        3
280
     0
281
     0
  0
CLASS
  1
VISUALSTYLE
  2
AcDbVisualStyle
  3
ObjectDBX Classes
 90
     4095
 91
       16
280
     0
281
     0
  0
CLASS
  1
SCALE
  2
AcDbScale
  3
ObjectDBX Classes
 90
     1153
 91
       33
280
     0
281
     0
  0
CLASS
  1
MLEADERSTYLE
  2
AcDbMLeaderStyle
  3
ACDB_MLEADERSTYLE_CLASS
 90
     4095
 91
        2
280
     0
281
     0
  0
CLASS
  1
CELLSTYLEMAP
  2
AcDbCellStyleMap
  3
ObjectDBX Classes
 90
     1152
 91
        4
280
     0
281
     0
  0
CLASS
  1
EXACXREFPANELOBJECT
  2
ExAcXREFPanelObject
  3
EXAC_ESW
 90
     1025
 91
        1
280
     0
281
     0
  0
CLASS
  1
NPOCOLLECTION
  2
AcDbImpNonPersistentObjectsCollection
  3
ObjectDBX Classes
 90
     1153
 91
        1
280
     0
281
     0
  0
CLASS
  1
SORTENTSTABLE
  2
AcDbSortentsTable
  3
ObjectDBX Classes
 90
        0
 91
        2
280
     0
281
     0
  0
ENDSEC
  0
SECTION
  2
TABLES
  0
TABLE
  2
VPORT
  5
8
330
0
100
AcDbSymbolTable
 70
     1
  0
VPORT
  5
EA
330
8
100
AcDbSymbolTableRecord
100
AcDbViewportTableRecord
  2
*Active
 70
     0
 10
0.0
 20
0.0
 11
1.0
 21
1.0
 12
89.58220337623187
 22
51.79675822766313
 13
0.0
 23
0.0
 14
10.0
 24
10.0
 15
10.0
 25
10.0
 16
0.0
 26
0.0
 36
1.0
 17
0.0
 27
0.0
 37
0.0
 40
218.9350605326048
 41
1.803484995159728
 42
50.0
 43
0.0
 44
0.0
 50
0.0
 51
0.0
 71
     0
 72
  1000
 73
     1
 74
     3
 75
     0
 76
     0
 77
     0
 78
     0
281
     0
 65
     1
110
0.0
120
0.0
130
0.0
111
1.0
121
0.0
131
0.0
112
0.0
122
1.0
132
0.0
 79
     0
146
0.0
  0
ENDTAB
  0
TABLE
  2
LTYPE
  5
5
330
0
100
AcDbSymbolTable
 70
     2
  0
LTYPE
  5
14
330
5
100
AcDbSymbolTableRecord
100
AcDbLinetypeTableRecord
  2
ByBlock
 70
     0
  3

 72
    65
 73
     0
 40
0.0
  0
LTYPE
  5
15
330
5
100
AcDbSymbolTableRecord
100
AcDbLinetypeTableRecord
  2
ByLayer
 70
     0
  3

 72
    65
 73
     0
 40
0.0
  0
LTYPE
  5
16
330
5
100
AcDbSymbolTableRecord
100
AcDbLinetypeTableRecord
  2
Continuous
 70
     0
  3
Solid line
 72
    65
 73
     0
 40
0.0
  0
ENDTAB
  0
TABLE
  2
LAYER
  5
2
102
{ACAD_XDICTIONARY
360
235
102
}
330
0
100
AcDbSymbolTable
 70
     1
  0
LAYER
  5
10
102
{ACAD_XDICTIONARY
360
13C
102
}
330
2
100
AcDbSymbolTableRecord
100
AcDbLayerTableRecord
  2
0
 70
     0
 62
     7
  6
Continuous
370
    -3
390
F
  0
ENDTAB
  0
TABLE
  2
STYLE
  5
3
330
0
100
AcDbSymbolTable
 70
     2
  0
STYLE
  5
11
330
3
100
AcDbSymbolTableRecord
100
AcDbTextStyleTableRecord
  2
Standard
 70
     0
 40
0.0
 41
1.0
 50
0.0
 71
     0
 42
2.5
  3
txt.shx
  4

  0
STYLE
  5
132
330
3
100
AcDbSymbolTableRecord
100
AcDbTextStyleTableRecord
  2
Anotativo
 70
     0
 40
0.0
 41
1.0
 50
0.0
 71
     0
 42
2.5
  3
txt.shx
  4

1001
AcadAnnotative
1000
AnnotativeData
1002
{
1070
     1
1070
     1
1002
}
  0
ENDTAB
  0
TABLE
  2
VIEW
  5
6
330
0
100
AcDbSymbolTable
 70
     0
  0
ENDTAB
  0
TABLE
  2
UCS
  5
7
330
0
100
AcDbSymbolTable
 70
     0
  0
ENDTAB
  0
TABLE
  2
APPID
  5
9
330
0
100
AcDbSymbolTable
 70
     8
  0
APPID
  5
12
330
9
100
AcDbSymbolTableRecord
100
AcDbRegAppTableRecord
  2
ACAD
 70
     0
  0
APPID
  5
9E
330
9
100
AcDbSymbolTableRecord
100
AcDbRegAppTableRecord
  2
ACAD_PSEXT
 70
     0
  0
APPID
  5
133
330
9
100
AcDbSymbolTableRecord
100
AcDbRegAppTableRecord
  2
AcadAnnoPO
 70
     0
  0
APPID
  5
134
330
9
100
AcDbSymbolTableRecord
100
AcDbRegAppTableRecord
  2
AcadAnnotative
 70
     0
  0
APPID
  5
135
330
9
100
AcDbSymbolTableRecord
100
AcDbRegAppTableRecord
  2
ACAD_DSTYLE_DIMJAG
 70
     0
  0
APPID
  5
136
330
9
100
AcDbSymbolTableRecord
100
AcDbRegAppTableRecord
  2
ACAD_DSTYLE_DIMTALN
 70
     0
  0
APPID
  5
165
330
9
100
AcDbSymbolTableRecord
100
AcDbRegAppTableRecord
  2
ACAD_MLEADERVER
 70
     0
  0
APPID
  5
2C5
330
9
100
AcDbSymbolTableRecord
100
AcDbRegAppTableRecord
  2
ACAD_EXEMPT_FROM_CAD_STANDARDS
 70
     0
  0
ENDTAB
  0
TABLE
  2
DIMSTYLE
  5
A
330
0
100
AcDbSymbolTable
 70
     3
100
AcDbDimStyleTable
 71
     2
340
27
340
137
  0
DIMSTYLE
105
27
330
A
100
AcDbSymbolTableRecord
100
AcDbDimStyleTableRecord
  2
ISO-25
 70
     0
 41
2.5
 42
0.625
 43
3.75
 44
1.25
 73
     0
 74
     0
 77
     1
 78
     8
140
2.5
141
2.5
143
0.03937007874016
147
0.625
171
     3
172
     1
271
     2
272
     2
274
     3
278
    44
283
     0
284
     8
340
11
  0
DIMSTYLE
105
137
330
A
100
AcDbSymbolTableRecord
100
AcDbDimStyleTableRecord
  2
Anotativo
 70
     0
 40
0.0
 41
2.5
 42
0.625
 43
3.75
 44
1.25
 73
     0
 74
     0
 77
     1
 78
     8
140
2.5
141
2.5
143
0.03937007874016
147
0.625
171
     3
172
     1
271
     2
272
     2
274
     3
278
    44
283
     0
284
     8
340
11
1001
AcadAnnotative
1000
AnnotativeData
1002
{
1070
     1
1070
     1
1002
}
1001
ACAD_DSTYLE_DIMJAG
1070
   388
1040
1.5
1001
ACAD_DSTYLE_DIMTALN
1070
   392
1070
     0
  0
ENDTAB
  0
TABLE
  2
BLOCK_RECORD
  5
1
330
0
100
AcDbSymbolTable
 70
     4
  0
BLOCK_RECORD
  5
1F
102
{ACAD_XDICTIONARY
360
2C2
102
}
330
1
100
AcDbSymbolTableRecord
100
AcDbBlockTableRecord
  2
*Model_Space
340
22
  0
BLOCK_RECORD
  5
D2
330
1
100
AcDbSymbolTableRecord
100
AcDbBlockTableRecord
  2
*Paper_Space
340
D3
  0
BLOCK_RECORD
  5
D6
330
1
100
AcDbSymbolTableRecord
100
AcDbBlockTableRecord
  2
*Paper_Space0
340
D7
  0
BLOCK_RECORD
  5
1B2
330
1
100
AcDbSymbolTableRecord
100
AcDbBlockTableRecord
  2
A$C2FD37D32
340
0
102
{BLKREFS
331
238
331
23E
102
}
1001
ACAD
1000
DesignCenter Data
1002
{
1070
     1
1070
     4
1002
}
  0
ENDTAB
  0
ENDSEC
  0
SECTION
  2
BLOCKS
  0
BLOCK
  5
20
330
1F
100
AcDbEntity
  8
0
100
AcDbBlockBegin
  2
*Model_Space
 70
     0
 10
0.0
 20
0.0
 30
0.0
  3
*Model_Space
  1

  0
ENDBLK
  5
21
330
1F
100
AcDbEntity
  8
0
100
AcDbBlockEnd
  0
BLOCK
  5
D4
330
D2
100
AcDbEntity
 67
     1
  8
0
100
AcDbBlockBegin
  2
*Paper_Space
 70
     0
 10
0.0
 20
0.0
 30
0.0
  3
*Paper_Space
  1

  0
ENDBLK
  5
D5
330
D2
100
AcDbEntity
 67
     1
  8
0
100
AcDbBlockEnd
  0
BLOCK
  5
D8
330
D6
100
AcDbEntity
 67
     1
  8
0
100
AcDbBlockBegin
  2
*Paper_Space0
 70
     0
 10
0.0
 20
0.0
 30
0.0
  3
*Paper_Space0
  1

  0
ENDBLK
  5
D9
330
D6
100
AcDbEntity
 67
     1
  8
0
100
AcDbBlockEnd
  0
BLOCK
  5
1B3
330
1B2
100
AcDbEntity
  8
0
 62
   177
100
AcDbBlockBegin
  2
A$C2FD37D32
 70
     0
 10
0.0
 20
0.0
 30
0.0
  3
A$C2FD37D32
  1

  0
ARC
  5
1B4
330
1B2
100
AcDbEntity
  8
0
  6
Continuous
 62
     5
370
     0
100
AcDbCircle
 10
-129.6028678640267
 20
24.66784151806997
 30
0.0
 40
9.628102619222397
100
AcDbArc
 50
288.154949070886
 51
308.8912137947724
  0
ARC
  5
1B5
330
1B2
100
AcDbEntity
  8
0
  6
Continuous
 62
     5
370
     0
100
AcDbCircle
 10
-123.7462773262926
 20
17.40741138287359
 30
0.0
 40
0.3
100
AcDbArc
 50
308.8912137947742
 51
46.99556215761628
  0
ARC
  5
1B6
330
1B2
100
AcDbEntity
  8
0
  6
Continuous
 62
     5
370
     0
100
AcDbCircle
 10
-116.9747652448043
 20
24.66784151807001
 30
0.0
 40
9.628102619222397
100
AcDbArc
 50
180.0
 51
226.9955621576164
  0
LINE
  5
1B7
330
1B2
100
AcDbEntity
  8
0
  6
Continuous
 62
     5
370
     0
100
AcDbLine
 10
-126.6028678640267
 20
13.61905143160076
 30
0.0
 11
-126.6028678640267
 21
29.51905143160077
 31
0.0
210
0.0
220
0.0
230
-1.0
  0
LINE
  5
1B8
330
1B2
100
AcDbEntity
  8
0
  6
Continuous
 62
     5
370
     0
100
AcDbLine
 10
-128.1028678640267
 20
13.61905143160075
 30
0.0
 11
-126.6028678640267
 21
13.61905143160075
 31
0.0
210
0.0
220
0.0
230
-1.0
  0
LINE
  5
1B9
330
1B2
100
AcDbEntity
  8
0
  6
Continuous
 62
     5
370
     0
100
AcDbLine
 10
-128.1028678640267
 20
29.51905143160077
 30
0.0
 11
-126.6028678640267
 21
29.51905143160077
 31
0.0
210
0.0
220
0.0
230
-1.0
  0
CIRCLE
  5
1BA
330
1B2
100
AcDbEntity
  8
0
  6
Continuous
 62
     5
370
     0
100
AcDbCircle
 10
-196.0908079360327
 20
21.56905143160066
 30
0.0
 40
1.650000000000002
  0
ARC
  5
1BB
330
1B2
100
AcDbEntity
  8
0
  6
Continuous
 62
     5
370
     0
100
AcDbCircle
 10
-196.0908079360327
 20
21.56905143160066
 30
0.0
 40
1.379150262212919
100
AcDbArc
 50
343.1400287155855
 51
16.85997128441455
  0
ARC
  5
1BC
330
1B2
100
AcDbEntity
  8
0
  6
Continuous
 62
     5
370
     0
100
AcDbCircle
 10
-196.0908079360327
 20
21.56905143160066
 30
0.0
 40
1.379150262212919
100
AcDbArc
 50
253.1400287155856
 51
286.8599712844143
  0
ARC
  5
1BD
330
1B2
100
AcDbEntity
  8
0
  6
Continuous
 62
     5
370
     0
100
AcDbCircle
 10
-196.0908079360327
 20
21.56905143160066
 30
0.0
 40
1.379150262212919
100
AcDbArc
 50
163.1400287155854
 51
196.8599712844145
  0
ARC
  5
1BE
330
1B2
100
AcDbEntity
  8
0
  6
Continuous
 62
     5
370
     0
100
AcDbCircle
 10
-196.0908079360327
 20
21.56905143160066
 30
0.0
 40
1.379150262212919
100
AcDbArc
 50
73.14002871558564
 51
106.8599712844143
  0
SPLINE
  5
1BF
330
1B2
100
AcDbEntity
  8
0
  6
Continuous
 62
     5
370
     0
100
AcDbSpline
210
0.0
220
0.0
230
1.0
 70
    24
 71
     3
 72
    14
 73
    10
 74
     0
 42
0.0000000001
 43
0.0000000001
 40
2.595427289662389
 40
2.595427289662389
 40
2.595427289662389
 40
2.595427289662389
 40
2.689030220471158
 40
2.689030220471158
 40
2.84197640823959
 40
2.84197640823959
 40
3.008514103967693
 40
3.008514103967693
 40
3.175051799695795
 40
3.175051799695795
 40
3.175051799695795
 40
3.175051799695795
 10
-196.4908079360327
 20
20.24918195102238
 30
0.0
 10
-196.4908079360327
 20
20.27438312909465
 30
0.0
 10
-196.4908079360327
 20
20.30171843633424
 30
0.0
 10
-196.4908079360327
 20
20.37680885702246
 30
0.0
 10
-196.4908079360327
 20
20.42664828913794
 30
0.0
 10
-196.4908079360327
 20
20.52539941310123
 30
0.0
 10
-196.4908079360327
 20
20.58372689654118
 30
0.0
 10
-196.4908079360327
 20
20.70280009608455
 30
0.0
 10
-196.4908079360327
 20
20.76353886635795
 30
0.0
 10
-196.4908079360327
 20
20.81905143160065
 30
0.0
  0
LINE
  5
1C0
330
1B2
100
AcDbEntity
  8
0
  6
Continuous
 62
     5
370
     0
100
AcDbLine
 10
-196.4908079360327
 20
20.81905143160065
 30
0.0
 11
-196.4908079360327
 21
21.16905143160066
 31
0.0
210
0.0
220
0.0
230
-1.0
  0
LINE
  5
1C1
330
1B2
100
AcDbEntity
  8
0
  6
Continuous
 62
     5
370
     0
100
AcDbLine
 10
-196.4908079360327
 20
21.96905143160066
 30
0.0
 11
-196.4908079360327
 21
22.31905143160066
 31
0.0
210
0.0
220
0.0
230
-1.0
  0
SPLINE
  5
1C2
330
1B2
100
AcDbEntity
  8
0
  6
Continuous
 62
     5
370
     0
100
AcDbSpline
210
0.0
220
0.0
230
1.0
 70
    24
 71
     3
 72
    14
 73
    10
 74
     0
 42
0.0000000001
 43
0.0000000001
 40
4.620456247915941
 40
4.620456247915941
 40
4.620456247915941
 40
4.620456247915941
 40
4.786993943644043
 40
4.786993943644043
 40
4.953531639372145
 40
4.953531639372145
 40
5.106477827140577
 40
5.106477827140577
 40
5.200080757949346
 40
5.200080757949346
 40
5.200080757949346
 40
5.200080757949346
 10
-196.4908079360327
 20
22.31905143160066
 30
0.0
 10
-196.4908079360327
 20
22.37456399684336
 30
0.0
 10
-196.4908079360327
 20
22.43530276711676
 30
0.0
 10
-196.4908079360327
 20
22.55437596666013
 30
0.0
 10
-196.4908079360327
 20
22.61270345010008
 30
0.0
 10
-196.4908079360327
 20
22.71145457406337
 30
0.0
 10
-196.4908079360327
 20
22.76129400617886
 30
0.0
 10
-196.4908079360327
 20
22.83638442686707
 30
0.0
 10
-196.4908079360327
 20
22.86371973410666
 30
0.0
 10
-196.4908079360327
 20
22.88892091217893
 30
0.0
  0
SPLINE
  5
1C3
330
1B2
100
AcDbEntity
  8
0
  6
Continuous
 62
     5
370
     0
100
AcDbSpline
210
0.0
220
0.0
230
1.0
 70
    24
 71
     3
 72
    14
 73
    10
 74
     0
 42
0.0000000001
 43
0.0000000001
 40
2.595427289662389
 40
2.595427289662389
 40
2.595427289662389
 40
2.595427289662389
 40
2.689030220471158
 40
2.689030220471158
 40
2.84197640823959
 40
2.84197640823959
 40
3.008514103967692
 40
3.008514103967692
 40
3.175051799695794
 40
3.175051799695794
 40
3.175051799695794
 40
3.175051799695794
 10
-197.410677416611
 20
21.96905143160066
 30
0.0
 10
-197.3854762385388
 20
21.96905143160066
 30
0.0
 10
-197.3581409312992
 20
21.96905143160066
 30
0.0
 10
-197.2830505106109
 20
21.96905143160066
 30
0.0
 10
-197.2332110784955
 20
21.96905143160066
 30
0.0
 10
-197.1344599545322
 20
21.96905143160066
 30
0.0
 10
-197.0761324710922
 20
21.96905143160066
 30
0.0
 10
-196.9570592715488
 20
21.96905143160066
 30
0.0
 10
-196.8963205012754
 20
21.96905143160066
 30
0.0
 10
-196.8408079360328
 20
21.96905143160066
 30
0.0
  0
LINE
  5
1C4
330
1B2
100
AcDbEntity
  8
0
  6
Continuous
 62
     5
370
     0
100
AcDbLine
 10
-196.8408079360328
 20
21.96905143160066
 30
0.0
 11
-196.4908079360327
 21
21.96905143160066
 31
0.0
210
0.0
220
0.0
230
-1.0
  0
LINE
  5
1C5
330
1B2
100
AcDbEntity
  8
0
  6
Continuous
 62
     5
370
     0
100
AcDbLine
 10
-196.4908079360327
 20
21.16905143160066
 30
0.0
 11
-196.8408079360328
 21
21.16905143160066
 31
0.0
210
0.0
220
0.0
230
-1.0
  0
SPLINE
  5
1C6
330
1B2
100
AcDbEntity
  8
0
  6
Continuous
 62
     5
370
     0
100
AcDbSpline
210
0.0
220
0.0
230
1.0
 70
    24
 71
     3
 72
    14
 73
    10
 74
     0
 42
0.0000000001
 43
0.0000000001
 40
4.62045624791594
 40
4.62045624791594
 40
4.62045624791594
 40
4.62045624791594
 40
4.786993943644041
 40
4.786993943644041
 40
4.953531639372144
 40
4.953531639372144
 40
5.106477827140576
 40
5.106477827140576
 40
5.200080757949345
 40
5.200080757949345
 40
5.200080757949345
 40
5.200080757949345
 10
-196.8408079360328
 20
21.16905143160066
 30
0.0
 10
-196.8963205012754
 20
21.16905143160066
 30
0.0
 10
-196.9570592715488
 20
21.16905143160066
 30
0.0
 10
-197.0761324710922
 20
21.16905143160066
 30
0.0
 10
-197.1344599545322
 20
21.16905143160066
 30
0.0
 10
-197.2332110784955
 20
21.16905143160066
 30
0.0
 10
-197.2830505106109
 20
21.16905143160066
 30
0.0
 10
-197.3581409312992
 20
21.16905143160066
 30
0.0
 10
-197.3854762385388
 20
21.16905143160066
 30
0.0
 10
-197.410677416611
 20
21.16905143160066
 30
0.0
  0
SPLINE
  5
1C7
330
1B2
100
AcDbEntity
  8
0
  6
Continuous
 62
     5
370
     0
100
AcDbSpline
210
0.0
220
0.0
230
1.0
 70
    24
 71
     3
 72
    14
 73
    10
 74
     0
 42
0.0000000001
 43
0.0000000001
 40
4.620456247915941
 40
4.620456247915941
 40
4.620456247915941
 40
4.620456247915941
 40
4.786993943644043
 40
4.786993943644043
 40
4.953531639372145
 40
4.953531639372145
 40
5.106477827140577
 40
5.106477827140577
 40
5.200080757949346
 40
5.200080757949346
 40
5.200080757949346
 40
5.200080757949346
 10
-195.6908079360328
 20
20.81905143160065
 30
0.0
 10
-195.6908079360328
 20
20.76353886635795
 30
0.0
 10
-195.6908079360328
 20
20.70280009608455
 30
0.0
 10
-195.6908079360328
 20
20.58372689654118
 30
0.0
 10
-195.6908079360328
 20
20.52539941310123
 30
0.0
 10
-195.6908079360328
 20
20.42664828913794
 30
0.0
 10
-195.6908079360328
 20
20.37680885702246
 30
0.0
 10
-195.6908079360328
 20
20.30171843633424
 30
0.0
 10
-195.6908079360328
 20
20.27438312909465
 30
0.0
 10
-195.6908079360328
 20
20.24918195102238
 30
0.0
  0
LINE
  5
1C8
330
1B2
100
AcDbEntity
  8
0
  6
Continuous
 62
     5
370
     0
100
AcDbLine
 10
-195.6908079360328
 20
21.16905143160066
 30
0.0
 11
-195.6908079360328
 21
20.81905143160065
 31
0.0
210
0.0
220
0.0
230
-1.0
  0
LINE
  5
1C9
330
1B2
100
AcDbEntity
  8
0
  6
Continuous
 62
     5
370
     0
100
AcDbLine
 10
-195.3408079360328
 20
21.16905143160066
 30
0.0
 11
-195.6908079360328
 21
21.16905143160066
 31
0.0
210
0.0
220
0.0
230
-1.0
  0
SPLINE
  5
1CA
330
1B2
100
AcDbEntity
  8
0
  6
Continuous
 62
     5
370
     0
100
AcDbSpline
210
0.0
220
0.0
230
1.0
 70
    24
 71
     3
 72
    14
 73
    10
 74
     0
 42
0.0000000001
 43
0.0000000001
 40
2.595427289662389
 40
2.595427289662389
 40
2.595427289662389
 40
2.595427289662389
 40
2.689030220471158
 40
2.689030220471158
 40
2.84197640823959
 40
2.84197640823959
 40
3.008514103967692
 40
3.008514103967692
 40
3.175051799695794
 40
3.175051799695794
 40
3.175051799695794
 40
3.175051799695794
 10
-194.7709384554545
 20
21.16905143160066
 30
0.0
 10
-194.7961396335267
 20
21.16905143160066
 30
0.0
 10
-194.8234749407663
 20
21.16905143160066
 30
0.0
 10
-194.8985653614546
 20
21.16905143160066
 30
0.0
 10
-194.94840479357
 20
21.16905143160066
 30
0.0
 10
-195.0471559175333
 20
21.16905143160066
 30
0.0
 10
-195.1054834009733
 20
21.16905143160066
 30
0.0
 10
-195.2245566005166
 20
21.16905143160066
 30
0.0
 10
-195.28529537079
 20
21.16905143160066
 30
0.0
 10
-195.3408079360328
 20
21.16905143160066
 30
0.0
  0
SPLINE
  5
1CB
330
1B2
100
AcDbEntity
  8
0
  6
Continuous
 62
     5
370
     0
100
AcDbSpline
210
0.0
220
0.0
230
1.0
 70
    24
 71
     3
 72
    14
 73
    10
 74
     0
 42
0.0000000001
 43
0.0000000001
 40
4.62045624791594
 40
4.62045624791594
 40
4.62045624791594
 40
4.62045624791594
 40
4.786993943644041
 40
4.786993943644041
 40
4.953531639372144
 40
4.953531639372144
 40
5.106477827140576
 40
5.106477827140576
 40
5.200080757949345
 40
5.200080757949345
 40
5.200080757949345
 40
5.200080757949345
 10
-195.3408079360328
 20
21.96905143160066
 30
0.0
 10
-195.28529537079
 20
21.96905143160066
 30
0.0
 10
-195.2245566005166
 20
21.96905143160066
 30
0.0
 10
-195.1054834009733
 20
21.96905143160066
 30
0.0
 10
-195.0471559175333
 20
21.96905143160066
 30
0.0
 10
-194.94840479357
 20
21.96905143160066
 30
0.0
 10
-194.8985653614546
 20
21.96905143160066
 30
0.0
 10
-194.8234749407663
 20
21.96905143160066
 30
0.0
 10
-194.7961396335267
 20
21.96905143160066
 30
0.0
 10
-194.7709384554545
 20
21.96905143160066
 30
0.0
  0
LINE
  5
1CC
330
1B2
100
AcDbEntity
  8
0
  6
Continuous
 62
     5
370
     0
100
AcDbLine
 10
-195.6908079360328
 20
21.96905143160066
 30
0.0
 11
-195.3408079360328
 21
21.96905143160066
 31
0.0
210
0.0
220
0.0
230
-1.0
  0
LINE
  5
1CD
330
1B2
100
AcDbEntity
  8
0
  6
Continuous
 62
     5
370
     0
100
AcDbLine
 10
-195.6908079360328
 20
22.31905143160066
 30
0.0
 11
-195.6908079360328
 21
21.96905143160066
 31
0.0
210
0.0
220
0.0
230
-1.0
  0
SPLINE
  5
1CE
330
1B2
100
AcDbEntity
  8
0
  6
Continuous
 62
     5
370
     0
100
AcDbSpline
210
0.0
220
0.0
230
1.0
 70
    24
 71
     3
 72
    14
 73
    10
 74
     0
 42
0.0000000001
 43
0.0000000001
 40
2.595427289662389
 40
2.595427289662389
 40
2.595427289662389
 40
2.595427289662389
 40
2.689030220471158
 40
2.689030220471158
 40
2.84197640823959
 40
2.84197640823959
 40
3.008514103967693
 40
3.008514103967693
 40
3.175051799695795
 40
3.175051799695795
 40
3.175051799695795
 40
3.175051799695795
 10
-195.6908079360328
 20
22.88892091217893
 30
0.0
 10
-195.6908079360328
 20
22.86371973410666
 30
0.0
 10
-195.6908079360328
 20
22.83638442686707
 30
0.0
 10
-195.6908079360328
 20
22.76129400617886
 30
0.0
 10
-195.6908079360328
 20
22.71145457406337
 30
0.0
 10
-195.6908079360328
 20
22.61270345010008
 30
0.0
 10
-195.6908079360328
 20
22.55437596666013
 30
0.0
 10
-195.6908079360328
 20
22.43530276711676
 30
0.0
 10
-195.6908079360328
 20
22.37456399684336
 30
0.0
 10
-195.6908079360328
 20
22.31905143160066
 30
0.0
  0
LINE
  5
1CF
330
1B2
100
AcDbEntity
  8
0
  6
Continuous
 62
     5
370
     0
100
AcDbLine
 10
-175.6768367475727
 20
20.05500069115146
 30
0.0
 11
-176.4494006436235
 21
22.61303480392797
 31
0.0
210
0.0
220
0.0
230
-1.0
  0
LINE
  5
1D0
330
1B2
100
AcDbEntity
  8
0
  6
Continuous
 62
     5
370
     0
100
AcDbLine
 10
-176.9483481082561
 20
20.08717727777309
 30
0.0
 11
-175.6768367475729
 21
20.05500069115145
 31
0.0
210
0.0
220
0.0
230
-1.0
  0
LINE
  5
1D1
330
1B2
100
AcDbEntity
  8
0
  6
Continuous
 62
     5
370
     0
100
AcDbLine
 10
-176.4494006436235
 20
22.61303480392797
 30
0.0
 11
-176.9483481082559
 21
20.08717727777309
 31
0.0
210
0.0
220
0.0
230
-1.0
  0
ARC
  5
1D2
330
1B2
100
AcDbEntity
  8
0
  6
Continuous
 62
     5
370
     0
100
AcDbCircle
 10
-155.3747955804361
 20
22.20073379750136
 30
0.0
 40
0.7019988474125607
100
AcDbArc
 50
2.704750168524962
 51
90.11384443711829
  0
ARC
  5
1D3
330
1B2
100
AcDbEntity
  8
0
  6
Continuous
 62
     5
370
     0
100
AcDbCircle
 10
-155.9234204340056
 20
22.17481572050841
 30
0.0
 40
1.251235569299382
100
AcDbArc
 50
263.2106611566793
 51
2.704750168525572
  0
LINE
  5
1D4
330
1B2
100
AcDbEntity
  8
0
  6
Continuous
 62
     5
370
     0
100
AcDbLine
 10
-156.093981776177
 20
22.90130503439275
 30
0.0
 11
-156.0713405056429
 21
20.93235441234354
 31
0.0
210
0.0
220
0.0
230
-1.0
  0
LINE
  5
1D5
330
1B2
100
AcDbEntity
  8
0
  6
Continuous
 62
     5
370
     0
100
AcDbLine
 10
-155.3761904233326
 20
22.90273125916476
 30
0.0
 11
-156.0939817761768
 21
22.90130503439276
 31
0.0
210
0.0
220
0.0
230
-1.0
  0
ELLIPSE
  5
1D6
330
1B2
100
AcDbEntity
  8
0
  6
Continuous
 62
     5
370
     0
100
AcDbEllipse
 10
-149.2696100184122
 20
22.24857313145931
 30
0.0
 11
0.0
 21
0.9779610270586765
 31
0.0
210
0.0
220
0.0
230
1.0
 40
0.7306744157162894
 41
0.0
 42
6.283185307179586
  0
CIRCLE
  5
1D7
330
1B2
100
AcDbEntity
  8
0
  6
Continuous
 62
     5
370
     0
100
AcDbCircle
 10
-196.090807936033
 20
21.56905143160066
 30
0.0
 40
2.25
  0
LINE
  5
1D8
330
1B2
100
AcDbEntity
  8
0
  6
Continuous
 62
     5
370
     0
100
AcDbLine
 10
-187.9435675551397
 20
17.01877322357974
 30
0.0
 11
-188.1065906435184
 21
25.05240947468269
 31
0.0
210
0.0
220
0.0
230
-1.0
  0
LINE
  5
1D9
330
1B2
100
AcDbEntity
  8
0
  6
Continuous
 62
     5
370
     0
100
AcDbLine
 10
-186.3133366713517
 20
16.9861823172699
 30
0.0
 11
-187.9435675551397
 21
17.01877322357973
 31
0.0
210
0.0
220
0.0
230
-1.0
  0
LINE
  5
1DA
330
1B2
100
AcDbEntity
  8
0
  6
Continuous
 62
     5
370
     0
100
AcDbLine
 10
-186.2318251271624
 20
21.12521605150591
 30
0.0
 11
-186.3133366713518
 21
16.98618231726989
 31
0.0
210
0.0
220
0.0
230
-1.0
  0
LINE
  5
1DB
330
1B2
100
AcDbEntity
  8
0
  6
Continuous
 62
     5
370
     0
100
AcDbLine
 10
-184.3407573844759
 20
17.98020229192802
 30
0.0
 11
-186.2318251271624
 21
21.12521605150591
 31
0.0
210
0.0
220
0.0
230
-1.0
  0
LINE
  5
1DC
330
1B2
100
AcDbEntity
  8
0
  6
Continuous
 62
     5
370
     0
100
AcDbLine
 10
-182.3681780975999
 20
20.91337574044672
 30
0.0
 11
-184.3407573844758
 21
17.98020229192802
 31
0.0
210
0.0
220
0.0
230
-1.0
  0
LINE
  5
1DD
330
1B2
100
AcDbEntity
  8
0
  6
Continuous
 62
     5
370
     0
100
AcDbLine
 10
-182.3681780975999
 20
17.01877322357974
 30
0.0
 11
-182.3681780975999
 21
20.91337574044672
 31
0.0
210
0.0
220
0.0
230
-1.0
  0
LINE
  5
1DE
330
1B2
100
AcDbEntity
  8
0
  6
Continuous
 62
     5
370
     0
100
AcDbLine
 10
-179.7598086835393
 20
16.98618231726989
 30
0.0
 11
-182.3681780975999
 21
17.01877322357973
 31
0.0
210
0.0
220
0.0
230
-1.0
  0
LINE
  5
1DF
330
1B2
100
AcDbEntity
  8
0
  6
Continuous
 62
     5
370
     0
100
AcDbLine
 10
-179.7598086835393
 20
24.95463698773513
 30
0.0
 11
-179.7598086835393
 21
16.98618231726989
 31
0.0
210
0.0
220
0.0
230
-1.0
  0
LINE
  5
1E0
330
1B2
100
AcDbEntity
  8
0
  6
Continuous
 62
     5
370
     0
100
AcDbLine
 10
-182.0421319208425
 20
25.01981856837284
 30
0.0
 11
-179.7598086835394
 21
24.95463698773509
 31
0.0
210
0.0
220
0.0
230
-1.0
  0
LINE
  5
1E1
330
1B2
100
AcDbEntity
  8
0
  6
Continuous
 62
     5
370
     0
100
AcDbLine
 10
-183.9168974371985
 20
21.02744356455828
 30
0.0
 11
-182.0421319208424
 21
25.01981856837286
 31
0.0
210
0.0
220
0.0
230
-1.0
  0
LINE
  5
1E2
330
1B2
100
AcDbEntity
  8
0
  6
Continuous
 62
     5
370
     0
100
AcDbLine
 10
-185.6938487704976
 20
25.01981856837284
 30
0.0
 11
-183.9168974371984
 21
21.02744356455828
 31
0.0
210
0.0
220
0.0
230
-1.0
  0
LINE
  5
1E3
330
1B2
100
AcDbEntity
  8
0
  6
Continuous
 62
     5
370
     0
100
AcDbLine
 10
-188.1065906435186
 20
25.05240947468268
 30
0.0
 11
-185.6938487704977
 21
25.01981856837285
 31
0.0
210
0.0
220
0.0
230
-1.0
  0
ARC
  5
1E4
330
1B2
100
AcDbEntity
  8
0
  6
Continuous
 62
     5
370
     0
100
AcDbCircle
 10
-165.4733125041251
 20
16.46506719690305
 30
0.0
 40
13.7730973859396
100
AcDbArc
 50
158.8616613935475
 51
177.8285686265132
  0
LINE
  5
1E5
330
1B2
100
AcDbEntity
  8
0
  6
Continuous
 62
     5
370
     0
100
AcDbLine
 10
-177.4635639711811
 20
17.00103588687401
 30
0.0
 11
-179.2365198832183
 21
16.98692373144874
 31
0.0
210
0.0
220
0.0
230
-1.0
  0
LINE
  5
1E6
330
1B2
100
AcDbEntity
  8
0
  6
Continuous
 62
     5
370
     0
100
AcDbLine
 10
-177.4635639711813
 20
18.64469358977315
 30
0.0
 11
-177.4635639711813
 21
17.001035886874
 31
0.0
210
0.0
220
0.0
230
-1.0
  0
LINE
  5
1E7
330
1B2
100
AcDbEntity
  8
0
  6
Continuous
 62
     5
370
     0
100
AcDbLine
 10
-175.3875674231296
 20
18.50087362196317
 30
0.0
 11
-177.4635639711813
 21
18.64469358977315
 31
0.0
210
0.0
220
0.0
230
-1.0
  0
LINE
  5
1E8
330
1B2
100
AcDbEntity
  8
0
  6
Continuous
 62
     5
370
     0
100
AcDbLine
 10
-174.8120435949539
 20
17.00103588687401
 30
0.0
 11
-175.3875674231296
 21
18.50087362196317
 31
0.0
210
0.0
220
0.0
230
-1.0
  0
LINE
  5
1E9
330
1B2
100
AcDbEntity
  8
0
  6
Continuous
 62
     5
370
     0
100
AcDbLine
 10
-172.1194139023859
 20
17.12431014499689
 30
0.0
 11
-174.8120435949538
 21
17.00103588687401
 31
0.0
210
0.0
220
0.0
230
-1.0
  0
LINE
  5
1EA
330
1B2
100
AcDbEntity
  8
0
  6
Continuous
 62
     5
370
     0
100
AcDbLine
 10
-174.4967468959272
 20
24.71003387177207
 30
0.0
 11
-172.1194139023859
 21
17.1243101449969
 31
0.0
210
0.0
220
0.0
230
-1.0
  0
LINE
  5
1EB
330
1B2
100
AcDbEntity
  8
0
  6
Continuous
 62
     5
370
     0
100
AcDbLine
 10
-177.4518475066216
 20
24.7180604457979
 30
0.0
 11
-174.4967468959275
 21
24.71003387177202
 31
0.0
210
0.0
220
0.0
230
-1.0
  0
ARC
  5
1EC
330
1B2
100
AcDbEntity
  8
0
  6
Continuous
 62
     5
370
     0
100
AcDbCircle
 10
-192.6612977659646
 20
26.97694416706049
 30
0.0
 40
15.37627825117687
100
AcDbArc
 50
338.8616613935472
 51
351.5522719677855
  0
LINE
  5
1ED
330
1B2
100
AcDbEntity
  8
0
  6
Continuous
 62
     5
370
     0
100
AcDbLine
 10
-171.5382643065541
 20
16.9497787882978
 30
0.0
 11
-171.6992152213656
 21
24.54343977606416
 31
0.0
210
0.0
220
0.0
230
-1.0
  0
LINE
  5
1EE
330
1B2
100
AcDbEntity
  8
0
  6
Continuous
 62
     5
370
     0
100
AcDbLine
 10
-169.2527632964084
 20
16.96586719759958
 30
0.0
 11
-171.5382643065541
 21
16.9497787882978
 31
0.0
210
0.0
220
0.0
230
-1.0
  0
LINE
  5
1EF
330
1B2
100
AcDbEntity
  8
0
  6
Continuous
 62
     5
370
     0
100
AcDbLine
 10
-169.2205730309388
 20
19.92610783121046
 30
0.0
 11
-169.2527632964085
 21
16.96586719759958
 31
0.0
210
0.0
220
0.0
230
-1.0
  0
LINE
  5
1F0
330
1B2
100
AcDbEntity
  8
0
  6
Continuous
 62
     5
370
     0
100
AcDbLine
 10
-166.9189773005953
 20
16.85324926041463
 30
0.0
 11
-169.2205730309388
 21
19.92610783121044
 31
0.0
210
0.0
220
0.0
230
-1.0
  0
LINE
  5
1F1
330
1B2
100
AcDbEntity
  8
0
  6
Continuous
 62
     5
370
     0
100
AcDbLine
 10
-164.4725253756381
 20
17.20719101730739
 30
0.0
 11
-166.9189773005953
 21
16.85324926041463
 31
0.0
210
0.0
220
0.0
230
-1.0
  0
LINE
  5
1F2
330
1B2
100
AcDbEntity
  8
0
  6
Continuous
 62
     5
370
     0
100
AcDbLine
 10
-167.1121180683396
 20
20.76269745950084
 30
0.0
 11
-164.4725253756382
 21
17.2071910173074
 31
0.0
210
0.0
220
0.0
230
-1.0
  0
LINE
  5
1F3
330
1B2
100
AcDbEntity
  8
0
  6
Continuous
 62
     5
370
     0
100
AcDbLine
 10
-164.907092309331
 20
24.52735136676235
 30
0.0
 11
-167.1121180683395
 21
20.76269745950085
 31
0.0
210
0.0
220
0.0
230
-1.0
  0
LINE
  5
1F4
330
1B2
100
AcDbEntity
  8
0
  6
Continuous
 62
     5
370
     0
100
AcDbLine
 10
-166.9189773005953
 20
24.52735136676235
 30
0.0
 11
-164.9070923093311
 21
24.52735136676235
 31
0.0
210
0.0
220
0.0
230
-1.0
  0
LINE
  5
1F5
330
1B2
100
AcDbEntity
  8
0
  6
Continuous
 62
     5
370
     0
100
AcDbLine
 10
-169.2205730309389
 20
21.26143374020024
 30
0.0
 11
-166.9189773005953
 21
24.52735136676233
 31
0.0
210
0.0
220
0.0
230
-1.0
  0
LINE
  5
1F6
330
1B2
100
AcDbEntity
  8
0
  6
Continuous
 62
     5
370
     0
100
AcDbLine
 10
-169.1561929125364
 20
24.54343977606416
 30
0.0
 11
-169.2205730309388
 21
21.26143374020023
 31
0.0
210
0.0
220
0.0
230
-1.0
  0
LINE
  5
1F7
330
1B2
100
AcDbEntity
  8
0
  6
Continuous
 62
     5
370
     0
100
AcDbLine
 10
-171.6992152213659
 20
24.54343977606416
 30
0.0
 11
-169.1561929125365
 21
24.54343977606416
 31
0.0
210
0.0
220
0.0
230
-1.0
  0
LINE
  5
1F8
330
1B2
100
AcDbEntity
  8
0
  6
Continuous
 62
     5
370
     0
100
AcDbLine
 10
-164.2924682202143
 20
24.42704215764795
 30
0.0
 11
-159.3508004291253
 21
24.36309936040028
 31
0.0
210
0.0
220
0.0
230
-1.0
  0
LINE
  5
1F9
330
1B2
100
AcDbEntity
  8
0
  6
Continuous
 62
     5
370
     0
100
AcDbLine
 10
-164.271270416794
 20
16.98585568674308
 30
0.0
 11
-164.2924682202144
 21
24.42704215764794
 31
0.0
210
0.0
220
0.0
230
-1.0
  0
LINE
  5
1FA
330
1B2
100
AcDbEntity
  8
0
  6
Continuous
 62
     5
370
     0
100
AcDbLine
 10
-159.0439557890371
 20
16.99273974987076
 30
0.0
 11
-164.2712704167941
 21
16.98585568674308
 31
0.0
210
0.0
220
0.0
230
-1.0
  0
LINE
  5
1FB
330
1B2
100
AcDbEntity
  8
0
  6
Continuous
 62
     5
370
     0
100
AcDbLine
 10
-159.0675883860856
 20
18.78805817709727
 30
0.0
 11
-159.043955789037
 21
16.99273974987076
 31
0.0
210
0.0
220
0.0
230
-1.0
  0
LINE
  5
1FC
330
1B2
100
AcDbEntity
  8
0
  6
Continuous
 62
     5
370
     0
100
AcDbLine
 10
-161.8956242872217
 20
18.79593233900941
 30
0.0
 11
-159.0675883860855
 21
18.78805817709728
 31
0.0
210
0.0
220
0.0
230
-1.0
  0
LINE
  5
1FD
330
1B2
100
AcDbEntity
  8
0
  6
Continuous
 62
     5
370
     0
100
AcDbLine
 10
-161.990154675416
 20
20.54400533079924
 30
0.0
 11
-161.8956242872218
 21
18.79593233900941
 31
0.0
210
0.0
220
0.0
230
-1.0
  0
ARC
  5
1FE
330
1B2
100
AcDbEntity
  8
0
  6
Continuous
 62
     5
370
     0
100
AcDbCircle
 10
-161.9853445709485
 20
19.67868035376097
 30
0.0
 40
0.8653383459614376
100
AcDbArc
 50
42.96095493549084
 51
90.31848826019167
  0
ARC
  5
1FF
330
1B2
100
AcDbEntity
  8
0
  6
Continuous
 62
     5
370
     0
100
AcDbCircle
 10
-160.7305879805909
 20
20.84716218829006
 30
0.0
 40
0.8492356240587495
100
AcDbArc
 50
222.9609549354914
 51
137.0390450645088
  0
ARC
  5
200
330
1B2
100
AcDbEntity
  8
0
  6
Continuous
 62
     5
370
     0
100
AcDbCircle
 10
-162.0218169986605
 20
22.04960867346928
 30
0.0
 40
0.9151764385912736
100
AcDbArc
 50
270.9959356023035
 51
317.0390450645087
  0
LINE
  5
201
330
1B2
100
AcDbEntity
  8
0
  6
Continuous
 62
     5
370
     0
100
AcDbLine
 10
-161.9895548465554
 20
22.70058825583473
 30
0.0
 11
-162.0059098776274
 21
21.13457048997469
 31
0.0
210
0.0
220
0.0
230
-1.0
  0
LINE
  5
202
330
1B2
100
AcDbEntity
  8
0
  6
Continuous
 62
     5
370
     0
100
AcDbLine
 10
-159.3987776621589
 20
22.74854517978404
 30
0.0
 11
-161.9895548465554
 21
22.70058825583474
 31
0.0
210
0.0
220
0.0
230
-1.0
  0
LINE
  5
203
330
1B2
100
AcDbEntity
  8
0
  6
Continuous
 62
     5
370
     0
100
AcDbLine
 10
-159.3508004291255
 20
24.36309936040024
 30
0.0
 11
-159.3987776621589
 21
22.74854517978403
 31
0.0
210
0.0
220
0.0
230
-1.0
  0
LINE
  5
204
330
1B2
100
AcDbEntity
  8
0
  6
Continuous
 62
     5
370
     0
100
AcDbLine
 10
-158.4260252155203
 20
16.97182170922085
 30
0.0
 11
-158.5618724261878
 21
24.48551806924545
 31
0.0
210
0.0
220
0.0
230
-1.0
  0
LINE
  5
205
330
1B2
100
AcDbEntity
  8
0
  6
Continuous
 62
     5
370
     0
100
AcDbLine
 10
-156.0713405056429
 20
16.99445316824519
 30
0.0
 11
-158.4260252155203
 21
16.97182170922084
 31
0.0
210
0.0
220
0.0
230
-1.0
  0
LINE
  5
206
330
1B2
100
AcDbEntity
  8
0
  6
Continuous
 62
     5
370
     0
100
AcDbLine
 10
-156.0713405056427
 20
19.39340452752144
 30
0.0
 11
-156.0713405056427
 21
16.9944531682452
 31
0.0
210
0.0
220
0.0
230
-1.0
  0
ARC
  5
207
330
1B2
100
AcDbEntity
  8
0
  6
Continuous
 62
     5
370
     0
100
AcDbCircle
 10
-155.9924568110685
 20
22.13272534521742
 30
0.0
 40
2.740456381614627
100
AcDbArc
 50
268.3505203066574
 51
294.6676644850224
  0
ARC
  5
208
330
1B2
100
AcDbEntity
  8
0
  6
Continuous
 62
     5
370
     0
100
AcDbCircle
 10
-149.9123158517706
 20
21.93275928108763
 30
0.0
 40
5.441875237530764
100
AcDbArc
 50
204.8905108665714
 51
272.616599569505
  0
ARC
  5
209
330
1B2
100
AcDbEntity
  8
0
  6
Continuous
 62
     5
370
     0
100
AcDbCircle
 10
-154.8432981120915
 20
129.8315903156553
 30
0.0
 40
113.4533205786509
100
AcDbArc
 50
272.616599569505
 51
274.0024798399788
  0
LINE
  5
20A
330
1B2
100
AcDbEntity
  8
0
  6
Continuous
 62
     5
370
     0
100
AcDbLine
 10
-147.3091964489363
 20
19.05393032233739
 30
0.0
 11
-146.9242960874681
 21
16.65497896306115
 31
0.0
210
0.0
220
0.0
230
-1.0
  0
ARC
  5
20B
330
1B2
100
AcDbEntity
  8
0
  6
Continuous
 62
     5
370
     0
100
AcDbCircle
 10
-149.257597506706
 20
23.28538174306749
 30
0.0
 40
4.65848127697398
100
AcDbArc
 50
252.1862852138153
 51
294.7240335886931
  0
ARC
  5
20C
330
1B2
100
AcDbEntity
  8
0
  6
Continuous
 62
     5
370
     0
100
AcDbCircle
 10
-148.5925393794945
 20
25.35509301741644
 30
0.0
 40
6.832419425067729
100
AcDbArc
 50
226.3443347193313
 51
252.1862852138153
  0
ARC
  5
20D
330
1B2
100
AcDbEntity
  8
0
  6
Continuous
 62
     5
370
     0
100
AcDbCircle
 10
-154.1420362731852
 20
22.16514895502719
 30
0.0
 40
1.941107059550473
100
AcDbArc
 50
295.4102309782981
 51
55.3149330712149
  0
ARC
  5
20E
330
1B2
100
AcDbEntity
  8
0
  6
Continuous
 62
     5
370
     0
100
AcDbCircle
 10
-155.4293610766373
 20
20.30498015251808
 30
0.0
 40
4.203281483287826
100
AcDbArc
 50
55.3149330712149
 51
90.4180343373234
  0
LINE
  5
20F
330
1B2
100
AcDbEntity
  8
0
  6
Continuous
 62
     5
370
     0
100
AcDbLine
 10
-158.5618724261877
 20
24.48551806924545
 30
0.0
 11
-155.4600282639079
 21
24.50814976025167
 31
0.0
210
0.0
220
0.0
230
-1.0
  0
LINE
  5
210
330
1B2
100
AcDbEntity
  8
0
  6
Continuous
 62
     5
370
     0
100
AcDbLine
 10
-151.6425721819824
 20
22.04060970205104
 30
0.0
 11
-151.6425721819824
 21
22.5225883056433
 31
0.0
210
0.0
220
0.0
230
-1.0
  0
ARC
  5
211
330
1B2
100
AcDbEntity
  8
0
  6
Continuous
 62
     5
370
     0
100
AcDbCircle
 10
-149.1653646235648
 20
22.35918117183329
 30
0.0
 40
2.497607869310211
100
AcDbArc
 50
187.3280757074139
 51
266.7757411462282
  0
ARC
  5
212
330
1B2
100
AcDbEntity
  8
0
  6
Continuous
 62
     5
370
     0
100
AcDbCircle
 10
-149.1847032193528
 20
22.01589295765331
 30
0.0
 40
2.153775382069803
100
AcDbArc
 50
266.7757411462282
 51
0.0
  0
LINE
  5
213
330
1B2
100
AcDbEntity
  8
0
  6
Continuous
 62
     5
370
     0
100
AcDbLine
 10
-147.030927837283
 20
22.54730505004103
 30
0.0
 11
-147.030927837283
 21
22.01589295765331
 31
0.0
210
0.0
220
0.0
230
-1.0
  0
ARC
  5
214
330
1B2
100
AcDbEntity
  8
0
  6
Continuous
 62
     5
370
     0
100
AcDbCircle
 10
-149.4848818275942
 20
22.23442673801056
 30
0.0
 40
2.473819521449121
100
AcDbArc
 50
7.26598956776243
 51
84.70029024979053
  0
ARC
  5
215
330
1B2
100
AcDbEntity
  8
0
  6
Continuous
 62
     5
370
     0
100
AcDbCircle
 10
-149.4581513595341
 20
22.5225883056433
 30
0.0
 40
2.184420822448443
100
AcDbArc
 50
84.70029024979053
 51
180.0
  0
LINE
  5
216
330
1B2
100
AcDbEntity
  8
0
  6
Continuous
 62
     5
370
     0
100
AcDbLine
 10
-146.2280098781412
 20
16.96744026691952
 30
0.0
 11
-146.4280837434309
 21
24.70548725835207
 31
0.0
210
0.0
220
0.0
230
-1.0
  0
LINE
  5
217
330
1B2
100
AcDbEntity
  8
0
  6
Continuous
 62
     5
370
     0
100
AcDbLine
 10
-144.6274181307489
 20
16.99820802741229
 30
0.0
 11
-146.2280098781413
 21
16.96744026691951
 31
0.0
210
0.0
220
0.0
230
-1.0
  0
LINE
  5
218
330
1B2
100
AcDbEntity
  8
0
  6
Continuous
 62
     5
370
     0
100
AcDbLine
 10
-144.5504667710336
 20
20.5980151266989
 30
0.0
 11
-144.627418130749
 21
16.99820802741229
 31
0.0
210
0.0
220
0.0
230
-1.0
  0
LINE
  5
219
330
1B2
100
AcDbEntity
  8
0
  6
Continuous
 62
     5
370
     0
100
AcDbLine
 10
-141.4570152623576
 20
16.98282414716591
 30
0.0
 11
-144.5504667710335
 21
20.5980151266989
 31
0.0
210
0.0
220
0.0
230
-1.0
  0
LINE
  5
21A
330
1B2
100
AcDbEntity
  8
0
  6
Continuous
 62
     5
370
     0
100
AcDbLine
 10
-139.9949361274678
 20
16.99820802741229
 30
0.0
 11
-141.4570152623576
 21
16.98282414716589
 31
0.0
210
0.0
220
0.0
230
-1.0
  0
LINE
  5
21B
330
1B2
100
AcDbEntity
  8
0
  6
Continuous
 62
     5
370
     0
100
AcDbLine
 10
-140.010326646933
 20
20.99799369328635
 30
0.0
 11
-139.9949361274677
 21
16.99820802741229
 31
0.0
210
0.0
220
0.0
230
-1.0
  0
ARC
  5
21C
330
1B2
100
AcDbEntity
  8
0
  6
Continuous
 62
     5
370
     0
100
AcDbCircle
 10
-106.5923574585623
 20
21.31562182140866
 30
0.0
 40
33.41947863600929
100
AcDbArc
 50
174.2047682115885
 51
180.5445634084163
  0
LINE
  5
21D
330
1B2
100
AcDbEntity
  8
0
  6
Continuous
 62
     5
370
     0
100
AcDbLine
 10
-141.6570891276475
 20
24.73625501884485
 30
0.0
 11
-139.8410329954999
 21
24.69010361008753
 31
0.0
210
0.0
220
0.0
230
-1.0
  0
LINE
  5
21E
330
1B2
100
AcDbEntity
  8
0
  6
Continuous
 62
     5
370
     0
100
AcDbLine
 10
-141.7340408998998
 20
20.98260981303996
 30
0.0
 11
-141.6570891276473
 21
24.73625501884484
 31
0.0
210
0.0
220
0.0
230
-1.0
  0
LINE
  5
21F
330
1B2
100
AcDbEntity
  8
0
  6
Continuous
 62
     5
370
     0
100
AcDbLine
 10
-144.3965636390655
 20
24.70548725835207
 30
0.0
 11
-141.7340408998999
 21
20.98260981303995
 31
0.0
210
0.0
220
0.0
230
-1.0
  0
LINE
  5
220
330
1B2
100
AcDbEntity
  8
0
  6
Continuous
 62
     5
370
     0
100
AcDbLine
 10
-146.428083743431
 20
24.70548725835207
 30
0.0
 11
-144.3965636390655
 21
24.70548725835207
 31
0.0
210
0.0
220
0.0
230
-1.0
  0
LINE
  5
221
330
1B2
100
AcDbEntity
  8
0
  6
Continuous
 62
     5
370
     0
100
AcDbLine
 10
-138.6867601245457
 20
16.96744026691952
 30
0.0
 11
-138.8868339898356
 21
25.02854688767126
 31
0.0
210
0.0
220
0.0
230
-1.0
  0
LINE
  5
222
330
1B2
100
AcDbEntity
  8
0
  6
Continuous
 62
     5
370
     0
100
AcDbLine
 10
-136.1165792645609
 20
16.98282414716592
 30
0.0
 11
-138.6867601245457
 21
16.96744026691953
 31
0.0
210
0.0
220
0.0
230
-1.0
  0
LINE
  5
223
330
1B2
100
AcDbEntity
  8
0
  6
Continuous
 62
     5
370
     0
100
AcDbLine
 10
-136.1165792645609
 20
20.09035009433245
 30
0.0
 11
-136.1165792645609
 21
16.98282414716591
 31
0.0
210
0.0
220
0.0
230
-1.0
  0
ARC
  5
224
330
1B2
100
AcDbEntity
  8
0
  6
Continuous
 62
     5
370
     0
100
AcDbCircle
 10
-88.33579004970749
 20
21.58248474062038
 30
0.0
 40
47.80408229217373
100
AcDbArc
 50
176.0140000284391
 51
181.7886946494178
  0
LINE
  5
225
330
1B2
100
AcDbEntity
  8
0
  6
Continuous
 62
     5
370
     0
100
AcDbLine
 10
-138.8868339898356
 20
25.02854688767124
 30
0.0
 11
-136.0242373853801
 21
24.90547654164574
 31
0.0
210
0.0
220
0.0
230
-1.0
  0
ARC
  5
226
330
1B2
100
AcDbEntity
  8
0
  6
Continuous
 62
     5
370
     0
100
AcDbCircle
 10
-204.6028678640269
 20
34.49029595188074
 30
0.0
 40
10.0
100
AcDbArc
 50
315.0
 51
0.0
  0
LINE
  5
227
330
1B2
100
AcDbEntity
  8
0
  6
Continuous
 62
     5
370
     0
100
AcDbLine
 10
-194.6028678640269
 20
42.79405143160068
 30
0.0
 11
-194.6028678640269
 21
34.49029595188074
 31
0.0
210
0.0
220
0.0
230
-1.0
  0
LINE
  5
228
330
1B2
100
AcDbEntity
  8
0
  6
Continuous
 62
     5
370
     0
100
AcDbLine
 10
-197.5318000521614
 20
27.41922814001518
 30
0.0
 11
-200.8363923483043
 21
24.11463584387229
 31
0.0
210
0.0
220
0.0
230
-1.0
  0
ARC
  5
229
330
1B2
100
AcDbEntity
  8
0
  6
Continuous
 62
     5
370
     0
100
AcDbCircle
 10
-192.6028678640269
 20
42.79405143160068
 30
0.0
 40
1.999999999999999
100
AcDbArc
 50
90.0
 51
180.0
  0
ARC
  5
22A
330
1B2
100
AcDbEntity
  8
0
  6
Continuous
 62
     5
370
     0
100
AcDbCircle
 10
-198.290807936033
 20
21.56905143160066
 30
0.0
 40
3.6
100
AcDbArc
 50
134.9999999999984
 51
224.9999999999997
  0
LINE
  5
22B
330
1B2
100
AcDbEntity
  8
0
  6
Continuous
 62
     5
370
     0
100
AcDbLine
 10
-130.1028678640268
 20
44.79405143160067
 30
0.0
 11
-192.6028678640268
 21
44.79405143160067
 31
0.0
210
0.0
220
0.0
230
-1.0
  0
LINE
  5
22C
330
1B2
100
AcDbEntity
  8
0
  6
Continuous
 62
     5
370
     0
100
AcDbLine
 10
-200.8363923483045
 20
19.02346701932913
 30
0.0
 11
-197.5318000521615
 21
15.71887472318621
 31
0.0
210
0.0
220
0.0
230
-1.0
  0
ARC
  5
22D
330
1B2
100
AcDbEntity
  8
0
  6
Continuous
 62
     5
370
     0
100
AcDbCircle
 10
-130.1028678640269
 20
42.79405143160068
 30
0.0
 40
1.999999999999999
100
AcDbArc
 50
0.0
 51
90.0
  0
ARC
  5
22E
330
1B2
100
AcDbEntity
  8
0
  6
Continuous
 62
     5
370
     0
100
AcDbCircle
 10
-204.6028678640269
 20
8.647806911320571
 30
0.0
 40
10.0
100
AcDbArc
 50
0.0
 51
45.0000000000013
  0
LINE
  5
22F
330
1B2
100
AcDbEntity
  8
0
  6
Continuous
 62
     5
370
     0
100
AcDbLine
 10
-128.1028678640269
 20
0.3440514316008603
 30
0.0
 11
-128.1028678640269
 21
42.79405143160068
 31
0.0
210
0.0
220
0.0
230
-1.0
  0
LINE
  5
230
330
1B2
100
AcDbEntity
  8
0
  6
Continuous
 62
     5
370
     0
100
AcDbLine
 10
-194.6028678640269
 20
8.647806911320571
 30
0.0
 11
-194.6028678640269
 21
0.3440514316008603
 31
0.0
210
0.0
220
0.0
230
-1.0
  0
ARC
  5
231
330
1B2
100
AcDbEntity
  8
0
  6
Continuous
 62
     5
370
     0
100
AcDbCircle
 10
-130.1028678640269
 20
0.3440514316008603
 30
0.0
 40
1.999999999999999
100
AcDbArc
 50
270.0
 51
0.0
  0
ARC
  5
232
330
1B2
100
AcDbEntity
  8
0
  6
Continuous
 62
     5
370
     0
100
AcDbCircle
 10
-192.6028678640269
 20
0.3440514316008603
 30
0.0
 40
1.999999999999999
100
AcDbArc
 50
180.0
 51
270.0
  0
LINE
  5
233
330
1B2
100
AcDbEntity
  8
0
  6
Continuous
 62
     5
370
     0
100
AcDbLine
 10
-192.6028678640268
 20
-1.655948568399139
 30
0.0
 11
-130.1028678640268
 21
-1.655948568399139
 31
0.0
210
0.0
220
0.0
230
-1.0
  0
ENDBLK
  5
234
330
1B2
100
AcDbEntity
  8
0
 62
   177
100
AcDbBlockEnd
  0
ENDSEC
  0
SECTION
  2
ENTITIES
  0
INSERT
  5
23E
330
1F
100
AcDbEntity
  8
0
 62
   177
100
AcDbBlockReference
  2
A$C2FD37D32
 10
196.0908079360327
 20
-21.56905143160066
 30
0.0
  0
CIRCLE
  5
248
330
1F
100
AcDbEntity
  8
0
  6
Continuous
 62
     5
370
     0
100
AcDbCircle
 10
0.0
 20
100.0
 30
0.0
 40
1.650000000000002
  0
ARC
  5
249
330
1F
100
AcDbEntity
  8
0
  6
Continuous
 62
     5
370
     0
100
AcDbCircle
 10
0.0
 20
100.0
 30
0.0
 40
1.379150262212919
100
AcDbArc
 50
343.1400287155856
 51
16.85997128441435
  0
ARC
  5
24A
330
1F
100
AcDbEntity
  8
0
  6
Continuous
 62
     5
370
     0
100
AcDbCircle
 10
0.0
 20
100.0
 30
0.0
 40
1.379150262212919
100
AcDbArc
 50
253.1400287155856
 51
286.8599712844143
  0
ARC
  5
24B
330
1F
100
AcDbEntity
  8
0
  6
Continuous
 62
     5
370
     0
100
AcDbCircle
 10
0.0
 20
100.0
 30
0.0
 40
1.379150262212919
100
AcDbArc
 50
163.1400287155856
 51
196.8599712844143
  0
ARC
  5
24C
330
1F
100
AcDbEntity
  8
0
  6
Continuous
 62
     5
370
     0
100
AcDbCircle
 10
0.0
 20
100.0
 30
0.0
 40
1.379150262212919
100
AcDbArc
 50
73.14002871558564
 51
106.8599712844143
  0
SPLINE
  5
24D
330
1F
100
AcDbEntity
  8
0
  6
Continuous
 62
     5
370
     0
100
AcDbSpline
210
0.0
220
0.0
230
1.0
 70
    24
 71
     3
 72
    14
 73
    10
 74
     0
 42
0.0000000001
 43
0.0000000001
 40
2.595427289662389
 40
2.595427289662389
 40
2.595427289662389
 40
2.595427289662389
 40
2.689030220471158
 40
2.689030220471158
 40
2.84197640823959
 40
2.84197640823959
 40
3.008514103967693
 40
3.008514103967693
 40
3.175051799695795
 40
3.175051799695795
 40
3.175051799695795
 40
3.175051799695795
 10
-0.4000000000000057
 20
98.68013051942172
 30
0.0
 10
-0.4000000000000057
 20
98.705331697494
 30
0.0
 10
-0.4000000000000057
 20
98.73266700473358
 30
0.0
 10
-0.4000000000000057
 20
98.8077574254218
 30
0.0
 10
-0.4000000000000057
 20
98.85759685753729
 30
0.0
 10
-0.4000000000000057
 20
98.95634798150057
 30
0.0
 10
-0.4000000000000057
 20
99.01467546494053
 30
0.0
 10
-0.4000000000000057
 20
99.13374866448391
 30
0.0
 10
-0.4000000000000057
 20
99.19448743475729
 30
0.0
 10
-0.4000000000000057
 20
99.25
 30
0.0
  0
LINE
  5
24E
330
1F
100
AcDbEntity
  8
0
  6
Continuous
 62
     5
370
     0
100
AcDbLine
 10
-0.4000000000000057
 20
99.25
 30
0.0
 11
-0.4000000000000057
 21
99.6
 31
0.0
210
0.0
220
0.0
230
-1.0
  0
LINE
  5
24F
330
1F
100
AcDbEntity
  8
0
  6
Continuous
 62
     5
370
     0
100
AcDbLine
 10
-0.4000000000000057
 20
100.4
 30
0.0
 11
-0.4000000000000057
 21
100.75
 31
0.0
210
0.0
220
0.0
230
-1.0
  0
SPLINE
  5
250
330
1F
100
AcDbEntity
  8
0
  6
Continuous
 62
     5
370
     0
100
AcDbSpline
210
0.0
220
0.0
230
1.0
 70
    24
 71
     3
 72
    14
 73
    10
 74
     0
 42
0.0000000001
 43
0.0000000001
 40
4.620456247915941
 40
4.620456247915941
 40
4.620456247915941
 40
4.620456247915941
 40
4.786993943644043
 40
4.786993943644043
 40
4.953531639372145
 40
4.953531639372145
 40
5.106477827140577
 40
5.106477827140577
 40
5.200080757949346
 40
5.200080757949346
 40
5.200080757949346
 40
5.200080757949346
 10
-0.4000000000000057
 20
100.75
 30
0.0
 10
-0.4000000000000057
 20
100.8055125652427
 30
0.0
 10
-0.4000000000000057
 20
100.8662513355161
 30
0.0
 10
-0.4000000000000057
 20
100.9853245350595
 30
0.0
 10
-0.4000000000000057
 20
101.0436520184994
 30
0.0
 10
-0.4000000000000057
 20
101.1424031424627
 30
0.0
 10
-0.4000000000000057
 20
101.1922425745782
 30
0.0
 10
-0.4000000000000057
 20
101.2673329952664
 30
0.0
 10
-0.4000000000000057
 20
101.294668302506
 30
0.0
 10
-0.4000000000000057
 20
101.3198694805782
 30
0.0
  0
SPLINE
  5
251
330
1F
100
AcDbEntity
  8
0
  6
Continuous
 62
     5
370
     0
100
AcDbSpline
210
0.0
220
0.0
230
1.0
 70
    24
 71
     3
 72
    14
 73
    10
 74
     0
 42
0.0000000001
 43
0.0000000001
 40
2.595427289662389
 40
2.595427289662389
 40
2.595427289662389
 40
2.595427289662389
 40
2.689030220471158
 40
2.689030220471158
 40
2.84197640823959
 40
2.84197640823959
 40
3.008514103967692
 40
3.008514103967692
 40
3.175051799695794
 40
3.175051799695794
 40
3.175051799695794
 40
3.175051799695794
 10
-1.319869480578262
 20
100.4
 30
0.0
 10
-1.294668302506011
 20
100.4
 30
0.0
 10
-1.267332995266428
 20
100.4
 30
0.0
 10
-1.192242574578187
 20
100.4
 30
0.0
 10
-1.142403142462711
 20
100.4
 30
0.0
 10
-1.043652018499415
 20
100.4
 30
0.0
 10
-0.9853245350594761
 20
100.4
 30
0.0
 10
-0.8662513355160967
 20
100.4
 30
0.0
 10
-0.8055125652427079
 20
100.4
 30
0.0
 10
-0.75
 20
100.4
 30
0.0
  0
LINE
  5
252
330
1F
100
AcDbEntity
  8
0
  6
Continuous
 62
     5
370
     0
100
AcDbLine
 10
-0.75
 20
100.4
 30
0.0
 11
-0.4000000000000057
 21
100.4
 31
0.0
210
0.0
220
0.0
230
-1.0
  0
LINE
  5
253
330
1F
100
AcDbEntity
  8
0
  6
Continuous
 62
     5
370
     0
100
AcDbLine
 10
-0.4000000000000057
 20
99.6
 30
0.0
 11
-0.75
 21
99.6
 31
0.0
210
0.0
220
0.0
230
-1.0
  0
SPLINE
  5
254
330
1F
100
AcDbEntity
  8
0
  6
Continuous
 62
     5
370
     0
100
AcDbSpline
210
0.0
220
0.0
230
1.0
 70
    24
 71
     3
 72
    14
 73
    10
 74
     0
 42
0.0000000001
 43
0.0000000001
 40
4.62045624791594
 40
4.62045624791594
 40
4.62045624791594
 40
4.62045624791594
 40
4.786993943644041
 40
4.786993943644041
 40
4.953531639372144
 40
4.953531639372144
 40
5.106477827140576
 40
5.106477827140576
 40
5.200080757949345
 40
5.200080757949345
 40
5.200080757949345
 40
5.200080757949345
 10
-0.75
 20
99.6
 30
0.0
 10
-0.8055125652427079
 20
99.6
 30
0.0
 10
-0.8662513355160967
 20
99.6
 30
0.0
 10
-0.9853245350594761
 20
99.6
 30
0.0
 10
-1.043652018499415
 20
99.6
 30
0.0
 10
-1.142403142462711
 20
99.6
 30
0.0
 10
-1.192242574578187
 20
99.6
 30
0.0
 10
-1.267332995266428
 20
99.6
 30
0.0
 10
-1.294668302506011
 20
99.6
 30
0.0
 10
-1.319869480578262
 20
99.6
 30
0.0
  0
SPLINE
  5
255
330
1F
100
AcDbEntity
  8
0
  6
Continuous
 62
     5
370
     0
100
AcDbSpline
210
0.0
220
0.0
230
1.0
 70
    24
 71
     3
 72
    14
 73
    10
 74
     0
 42
0.0000000001
 43
0.0000000001
 40
4.620456247915941
 40
4.620456247915941
 40
4.620456247915941
 40
4.620456247915941
 40
4.786993943644043
 40
4.786993943644043
 40
4.953531639372145
 40
4.953531639372145
 40
5.106477827140577
 40
5.106477827140577
 40
5.200080757949346
 40
5.200080757949346
 40
5.200080757949346
 40
5.200080757949346
 10
0.4000000000000057
 20
99.25
 30
0.0
 10
0.4000000000000057
 20
99.19448743475729
 30
0.0
 10
0.4000000000000057
 20
99.13374866448391
 30
0.0
 10
0.4000000000000057
 20
99.01467546494053
 30
0.0
 10
0.4000000000000057
 20
98.95634798150057
 30
0.0
 10
0.4000000000000057
 20
98.85759685753729
 30
0.0
 10
0.4000000000000057
 20
98.8077574254218
 30
0.0
 10
0.4000000000000057
 20
98.73266700473358
 30
0.0
 10
0.4000000000000057
 20
98.705331697494
 30
0.0
 10
0.4000000000000057
 20
98.68013051942172
 30
0.0
  0
LINE
  5
256
330
1F
100
AcDbEntity
  8
0
  6
Continuous
 62
     5
370
     0
100
AcDbLine
 10
0.4000000000000057
 20
99.6
 30
0.0
 11
0.4000000000000057
 21
99.25
 31
0.0
210
0.0
220
0.0
230
-1.0
  0
LINE
  5
257
330
1F
100
AcDbEntity
  8
0
  6
Continuous
 62
     5
370
     0
100
AcDbLine
 10
0.75
 20
99.6
 30
0.0
 11
0.4000000000000057
 21
99.6
 31
0.0
210
0.0
220
0.0
230
-1.0
  0
SPLINE
  5
258
330
1F
100
AcDbEntity
  8
0
  6
Continuous
 62
     5
370
     0
100
AcDbSpline
210
0.0
220
0.0
230
1.0
 70
    24
 71
     3
 72
    14
 73
    10
 74
     0
 42
0.0000000001
 43
0.0000000001
 40
2.595427289662389
 40
2.595427289662389
 40
2.595427289662389
 40
2.595427289662389
 40
2.689030220471158
 40
2.689030220471158
 40
2.84197640823959
 40
2.84197640823959
 40
3.008514103967692
 40
3.008514103967692
 40
3.175051799695794
 40
3.175051799695794
 40
3.175051799695794
 40
3.175051799695794
 10
1.319869480578262
 20
99.6
 30
0.0
 10
1.294668302506011
 20
99.6
 30
0.0
 10
1.267332995266428
 20
99.6
 30
0.0
 10
1.192242574578187
 20
99.6
 30
0.0
 10
1.142403142462711
 20
99.6
 30
0.0
 10
1.043652018499415
 20
99.6
 30
0.0
 10
0.9853245350594761
 20
99.6
 30
0.0
 10
0.8662513355160967
 20
99.6
 30
0.0
 10
0.8055125652427079
 20
99.6
 30
0.0
 10
0.75
 20
99.6
 30
0.0
  0
SPLINE
  5
259
330
1F
100
AcDbEntity
  8
0
  6
Continuous
 62
     5
370
     0
100
AcDbSpline
210
0.0
220
0.0
230
1.0
 70
    24
 71
     3
 72
    14
 73
    10
 74
     0
 42
0.0000000001
 43
0.0000000001
 40
4.62045624791594
 40
4.62045624791594
 40
4.62045624791594
 40
4.62045624791594
 40
4.786993943644041
 40
4.786993943644041
 40
4.953531639372144
 40
4.953531639372144
 40
5.106477827140576
 40
5.106477827140576
 40
5.200080757949345
 40
5.200080757949345
 40
5.200080757949345
 40
5.200080757949345
 10
0.75
 20
100.4
 30
0.0
 10
0.8055125652427079
 20
100.4
 30
0.0
 10
0.8662513355160967
 20
100.4
 30
0.0
 10
0.9853245350594761
 20
100.4
 30
0.0
 10
1.043652018499415
 20
100.4
 30
0.0
 10
1.142403142462711
 20
100.4
 30
0.0
 10
1.192242574578187
 20
100.4
 30
0.0
 10
1.267332995266428
 20
100.4
 30
0.0
 10
1.294668302506011
 20
100.4
 30
0.0
 10
1.319869480578262
 20
100.4
 30
0.0
  0
LINE
  5
25A
330
1F
100
AcDbEntity
  8
0
  6
Continuous
 62
     5
370
     0
100
AcDbLine
 10
0.4000000000000057
 20
100.4
 30
0.0
 11
0.75
 21
100.4
 31
0.0
210
0.0
220
0.0
230
-1.0
  0
LINE
  5
25B
330
1F
100
AcDbEntity
  8
0
  6
Continuous
 62
     5
370
     0
100
AcDbLine
 10
0.4000000000000057
 20
100.75
 30
0.0
 11
0.4000000000000057
 21
100.4
 31
0.0
210
0.0
220
0.0
230
-1.0
  0
SPLINE
  5
25C
330
1F
100
AcDbEntity
  8
0
  6
Continuous
 62
     5
370
     0
100
AcDbSpline
210
0.0
220
0.0
230
1.0
 70
    24
 71
     3
 72
    14
 73
    10
 74
     0
 42
0.0000000001
 43
0.0000000001
 40
2.595427289662389
 40
2.595427289662389
 40
2.595427289662389
 40
2.595427289662389
 40
2.689030220471158
 40
2.689030220471158
 40
2.84197640823959
 40
2.84197640823959
 40
3.008514103967693
 40
3.008514103967693
 40
3.175051799695795
 40
3.175051799695795
 40
3.175051799695795
 40
3.175051799695795
 10
0.4000000000000057
 20
101.3198694805782
 30
0.0
 10
0.4000000000000057
 20
101.294668302506
 30
0.0
 10
0.4000000000000057
 20
101.2673329952664
 30
0.0
 10
0.4000000000000057
 20
101.1922425745782
 30
0.0
 10
0.4000000000000057
 20
101.1424031424627
 30
0.0
 10
0.4000000000000057
 20
101.0436520184994
 30
0.0
 10
0.4000000000000057
 20
100.9853245350595
 30
0.0
 10
0.4000000000000057
 20
100.8662513355161
 30
0.0
 10
0.4000000000000057
 20
100.8055125652427
 30
0.0
 10
0.4000000000000057
 20
100.75
 30
0.0
  0
LINE
  5
25D
330
1F
100
AcDbEntity
  8
0
  6
Continuous
 62
     5
370
     0
100
AcDbLine
 10
20.41397118846004
 20
98.48594925955081
 30
0.0
 11
19.64140729240921
 21
101.0439833723273
 31
0.0
210
0.0
220
0.0
230
-1.0
  0
LINE
  5
25E
330
1F
100
AcDbEntity
  8
0
  6
Continuous
 62
     5
370
     0
100
AcDbLine
 10
19.14245982777666
 20
98.51812584617244
 30
0.0
 11
20.41397118845984
 21
98.4859492595508
 31
0.0
210
0.0
220
0.0
230
-1.0
  0
LINE
  5
25F
330
1F
100
AcDbEntity
  8
0
  6
Continuous
 62
     5
370
     0
100
AcDbLine
 10
19.64140729240921
 20
101.0439833723273
 30
0.0
 11
19.14245982777683
 21
98.51812584617244
 31
0.0
210
0.0
220
0.0
230
-1.0
  0
ARC
  5
260
330
1F
100
AcDbEntity
  8
0
  6
Continuous
 62
     5
370
     0
100
AcDbCircle
 10
40.7160123555966
 20
100.6316823659007
 30
0.0
 40
0.7019988474125607
100
AcDbArc
 50
2.704750168524555
 51
90.11384443711829
  0
ARC
  5
261
330
1F
100
AcDbEntity
  8
0
  6
Continuous
 62
     5
370
     0
100
AcDbCircle
 10
40.16738750202716
 20
100.6057642889077
 30
0.0
 40
1.251235569299382
100
AcDbArc
 50
263.2106611566792
 51
2.704750168525369
  0
LINE
  5
262
330
1F
100
AcDbEntity
  8
0
  6
Continuous
 62
     5
370
     0
100
AcDbLine
 10
39.99682615985575
 20
101.3322536027921
 30
0.0
 11
40.01946743038985
 21
99.36330298074288
 31
0.0
210
0.0
220
0.0
230
-1.0
  0
LINE
  5
263
330
1F
100
AcDbEntity
  8
0
  6
Continuous
 62
     5
370
     0
100
AcDbLine
 10
40.71461751270013
 20
101.3336798275641
 30
0.0
 11
39.99682615985591
 21
101.3322536027921
 31
0.0
210
0.0
220
0.0
230
-1.0
  0
ELLIPSE
  5
264
330
1F
100
AcDbEntity
  8
0
  6
Continuous
 62
     5
370
     0
100
AcDbEllipse
 10
46.82119791762056
 20
100.6795216998586
 30
0.0
 11
0.0
 21
0.9779610270586765
 31
0.0
210
0.0
220
0.0
230
1.0
 40
0.7306744157162894
 41
0.0
 42
6.283185307179586
  0
CIRCLE
  5
265
330
1F
100
AcDbEntity
  8
0
  6
Continuous
 62
     5
370
     0
100
AcDbCircle
 10
-0.0000000000002274
 20
100.0
 30
0.0
 40
2.25
  0
LINE
  5
266
330
1F
100
AcDbEntity
  8
0
  6
Continuous
 62
     5
370
     0
100
AcDbLine
 10
8.147240380893094
 20
95.44972179197909
 30
0.0
 11
7.984217292514301
 21
103.483358043082
 31
0.0
210
0.0
220
0.0
230
-1.0
  0
LINE
  5
267
330
1F
100
AcDbEntity
  8
0
  6
Continuous
 62
     5
370
     0
100
AcDbLine
 10
9.777471264681025
 20
95.41713088566925
 30
0.0
 11
8.147240380893094
 21
95.44972179197907
 31
0.0
210
0.0
220
0.0
230
-1.0
  0
LINE
  5
268
330
1F
100
AcDbEntity
  8
0
  6
Continuous
 62
     5
370
     0
100
AcDbLine
 10
9.858982808870308
 20
99.55616461990526
 30
0.0
 11
9.777471264680912
 21
95.41713088566924
 31
0.0
210
0.0
220
0.0
230
-1.0
  0
LINE
  5
269
330
1F
100
AcDbEntity
  8
0
  6
Continuous
 62
     5
370
     0
100
AcDbLine
 10
11.75005055155685
 20
96.41115086032737
 30
0.0
 11
9.858982808870337
 21
99.55616461990524
 31
0.0
210
0.0
220
0.0
230
-1.0
  0
LINE
  5
26A
330
1F
100
AcDbEntity
  8
0
  6
Continuous
 62
     5
370
     0
100
AcDbLine
 10
13.72262983843285
 20
99.34432430884607
 30
0.0
 11
11.75005055155691
 21
96.41115086032737
 31
0.0
210
0.0
220
0.0
230
-1.0
  0
LINE
  5
26B
330
1F
100
AcDbEntity
  8
0
  6
Continuous
 62
     5
370
     0
100
AcDbLine
 10
13.72262983843279
 20
95.44972179197909
 30
0.0
 11
13.72262983843279
 21
99.34432430884607
 31
0.0
210
0.0
220
0.0
230
-1.0
  0
LINE
  5
26C
330
1F
100
AcDbEntity
  8
0
  6
Continuous
 62
     5
370
     0
100
AcDbLine
 10
16.3309992524934
 20
95.41713088566924
 30
0.0
 11
13.72262983843279
 21
95.44972179197907
 31
0.0
210
0.0
220
0.0
230
-1.0
  0
LINE
  5
26D
330
1F
100
AcDbEntity
  8
0
  6
Continuous
 62
     5
370
     0
100
AcDbLine
 10
16.33099925249348
 20
103.3855855561345
 30
0.0
 11
16.33099925249348
 21
95.41713088566924
 31
0.0
210
0.0
220
0.0
230
-1.0
  0
LINE
  5
26E
330
1F
100
AcDbEntity
  8
0
  6
Continuous
 62
     5
370
     0
100
AcDbLine
 10
14.04867601519027
 20
103.4507671367722
 30
0.0
 11
16.33099925249331
 21
103.3855855561344
 31
0.0
210
0.0
220
0.0
230
-1.0
  0
LINE
  5
26F
330
1F
100
AcDbEntity
  8
0
  6
Continuous
 62
     5
370
     0
100
AcDbLine
 10
12.17391049883423
 20
99.45839213295762
 30
0.0
 11
14.04867601519032
 21
103.4507671367722
 31
0.0
210
0.0
220
0.0
230
-1.0
  0
LINE
  5
270
330
1F
100
AcDbEntity
  8
0
  6
Continuous
 62
     5
370
     0
100
AcDbLine
 10
10.39695916553515
 20
103.4507671367722
 30
0.0
 11
12.17391049883431
 21
99.45839213295762
 31
0.0
210
0.0
220
0.0
230
-1.0
  0
LINE
  5
271
330
1F
100
AcDbEntity
  8
0
  6
Continuous
 62
     5
370
     0
100
AcDbLine
 10
7.984217292514188
 20
103.483358043082
 30
0.0
 11
10.39695916553506
 21
103.4507671367722
 31
0.0
210
0.0
220
0.0
230
-1.0
  0
ARC
  5
272
330
1F
100
AcDbEntity
  8
0
  6
Continuous
 62
     5
370
     0
100
AcDbCircle
 10
30.61749543190763
 20
94.89601576530239
 30
0.0
 40
13.7730973859396
100
AcDbArc
 50
158.8616613935471
 51
177.8285686265128
  0
LINE
  5
273
330
1F
100
AcDbEntity
  8
0
  6
Continuous
 62
     5
370
     0
100
AcDbLine
 10
18.62724396485163
 20
95.43198445527336
 30
0.0
 11
16.85428805281446
 21
95.41787229984809
 31
0.0
210
0.0
220
0.0
230
-1.0
  0
LINE
  5
274
330
1F
100
AcDbEntity
  8
0
  6
Continuous
 62
     5
370
     0
100
AcDbLine
 10
18.62724396485146
 20
97.07564215817249
 30
0.0
 11
18.62724396485146
 21
95.43198445527336
 31
0.0
210
0.0
220
0.0
230
-1.0
  0
LINE
  5
275
330
1F
100
AcDbEntity
  8
0
  6
Continuous
 62
     5
370
     0
100
AcDbLine
 10
20.70324051290311
 20
96.93182219036252
 30
0.0
 11
18.62724396485146
 21
97.07564215817249
 31
0.0
210
0.0
220
0.0
230
-1.0
  0
LINE
  5
276
330
1F
100
AcDbEntity
  8
0
  6
Continuous
 62
     5
370
     0
100
AcDbLine
 10
21.27876434107881
 20
95.43198445527336
 30
0.0
 11
20.70324051290314
 21
96.93182219036252
 31
0.0
210
0.0
220
0.0
230
-1.0
  0
LINE
  5
277
330
1F
100
AcDbEntity
  8
0
  6
Continuous
 62
     5
370
     0
100
AcDbLine
 10
23.97139403364684
 20
95.55525871339623
 30
0.0
 11
21.27876434107893
 21
95.43198445527336
 31
0.0
210
0.0
220
0.0
230
-1.0
  0
LINE
  5
278
330
1F
100
AcDbEntity
  8
0
  6
Continuous
 62
     5
370
     0
100
AcDbLine
 10
21.59406104010554
 20
103.1409824401714
 30
0.0
 11
23.97139403364682
 21
95.55525871339625
 31
0.0
210
0.0
220
0.0
230
-1.0
  0
LINE
  5
279
330
1F
100
AcDbEntity
  8
0
  6
Continuous
 62
     5
370
     0
100
AcDbLine
 10
18.63896042941121
 20
103.1490090141972
 30
0.0
 11
21.59406104010526
 21
103.1409824401714
 31
0.0
210
0.0
220
0.0
230
-1.0
  0
ARC
  5
27A
330
1F
100
AcDbEntity
  8
0
  6
Continuous
 62
     5
370
     0
100
AcDbCircle
 10
3.429510170068169
 20
105.4078927354598
 30
0.0
 40
15.37627825117687
100
AcDbArc
 50
338.8616613935472
 51
351.5522719677855
  0
LINE
  5
27B
330
1F
100
AcDbEntity
  8
0
  6
Continuous
 62
     5
370
     0
100
AcDbLine
 10
24.55254362947869
 20
95.38072735669715
 30
0.0
 11
24.39159271466713
 21
102.9743883444635
 31
0.0
210
0.0
220
0.0
230
-1.0
  0
LINE
  5
27C
330
1F
100
AcDbEntity
  8
0
  6
Continuous
 62
     5
370
     0
100
AcDbLine
 10
26.83804463962437
 20
95.39681576599893
 30
0.0
 11
24.55254362947869
 21
95.38072735669715
 31
0.0
210
0.0
220
0.0
230
-1.0
  0
LINE
  5
27D
330
1F
100
AcDbEntity
  8
0
  6
Continuous
 62
     5
370
     0
100
AcDbLine
 10
26.87023490509398
 20
98.35705639960981
 30
0.0
 11
26.83804463962426
 21
95.39681576599893
 31
0.0
210
0.0
220
0.0
230
-1.0
  0
LINE
  5
27E
330
1F
100
AcDbEntity
  8
0
  6
Continuous
 62
     5
370
     0
100
AcDbLine
 10
29.17183063543743
 20
95.28419782881398
 30
0.0
 11
26.87023490509393
 21
98.35705639960979
 31
0.0
210
0.0
220
0.0
230
-1.0
  0
LINE
  5
27F
330
1F
100
AcDbEntity
  8
0
  6
Continuous
 62
     5
370
     0
100
AcDbLine
 10
31.61828256039465
 20
95.63813958570674
 30
0.0
 11
29.1718306354374
 21
95.28419782881398
 31
0.0
210
0.0
220
0.0
230
-1.0
  0
LINE
  5
280
330
1F
100
AcDbEntity
  8
0
  6
Continuous
 62
     5
370
     0
100
AcDbLine
 10
28.97868986769319
 20
99.19364602790018
 30
0.0
 11
31.61828256039459
 21
95.63813958570674
 31
0.0
210
0.0
220
0.0
230
-1.0
  0
LINE
  5
281
330
1F
100
AcDbEntity
  8
0
  6
Continuous
 62
     5
370
     0
100
AcDbLine
 10
31.18371562670172
 20
102.9582999351617
 30
0.0
 11
28.97868986769325
 21
99.1936460279002
 31
0.0
210
0.0
220
0.0
230
-1.0
  0
LINE
  5
282
330
1F
100
AcDbEntity
  8
0
  6
Continuous
 62
     5
370
     0
100
AcDbLine
 10
29.1718306354374
 20
102.9582999351617
 30
0.0
 11
31.18371562670168
 21
102.9582999351617
 31
0.0
210
0.0
220
0.0
230
-1.0
  0
LINE
  5
283
330
1F
100
AcDbEntity
  8
0
  6
Continuous
 62
     5
370
     0
100
AcDbLine
 10
26.87023490509389
 20
99.69238230859957
 30
0.0
 11
29.1718306354374
 21
102.9582999351617
 31
0.0
210
0.0
220
0.0
230
-1.0
  0
LINE
  5
284
330
1F
100
AcDbEntity
  8
0
  6
Continuous
 62
     5
370
     0
100
AcDbLine
 10
26.93461502349635
 20
102.9743883444635
 30
0.0
 11
26.87023490509398
 21
99.69238230859957
 31
0.0
210
0.0
220
0.0
230
-1.0
  0
LINE
  5
285
330
1F
100
AcDbEntity
  8
0
  6
Continuous
 62
     5
370
     0
100
AcDbLine
 10
24.3915927146669
 20
102.9743883444635
 30
0.0
 11
26.93461502349624
 21
102.9743883444635
 31
0.0
210
0.0
220
0.0
230
-1.0
  0
LINE
  5
286
330
1F
100
AcDbEntity
  8
0
  6
Continuous
 62
     5
370
     0
100
AcDbLine
 10
31.79833971581849
 20
102.8579907260473
 30
0.0
 11
36.74000750690743
 21
102.7940479287996
 31
0.0
210
0.0
220
0.0
230
-1.0
  0
LINE
  5
287
330
1F
100
AcDbEntity
  8
0
  6
Continuous
 62
     5
370
     0
100
AcDbLine
 10
31.81953751923876
 20
95.41680425514242
 30
0.0
 11
31.79833971581838
 21
102.8579907260473
 31
0.0
210
0.0
220
0.0
230
-1.0
  0
LINE
  5
288
330
1F
100
AcDbEntity
  8
0
  6
Continuous
 62
     5
370
     0
100
AcDbLine
 10
37.04685214699569
 20
95.4236883182701
 30
0.0
 11
31.81953751923868
 21
95.41680425514242
 31
0.0
210
0.0
220
0.0
230
-1.0
  0
LINE
  5
289
330
1F
100
AcDbEntity
  8
0
  6
Continuous
 62
     5
370
     0
100
AcDbLine
 10
37.02321954994716
 20
97.21900674549662
 30
0.0
 11
37.04685214699572
 21
95.4236883182701
 31
0.0
210
0.0
220
0.0
230
-1.0
  0
LINE
  5
28A
330
1F
100
AcDbEntity
  8
0
  6
Continuous
 62
     5
370
     0
100
AcDbLine
 10
34.195183648811
 20
97.22688090740875
 30
0.0
 11
37.02321954994727
 21
97.21900674549663
 31
0.0
210
0.0
220
0.0
230
-1.0
  0
LINE
  5
28B
330
1F
100
AcDbEntity
  8
0
  6
Continuous
 62
     5
370
     0
100
AcDbLine
 10
34.10065326061675
 20
98.97495389919859
 30
0.0
 11
34.19518364881097
 21
97.22688090740875
 31
0.0
210
0.0
220
0.0
230
-1.0
  0
ARC
  5
28C
330
1F
100
AcDbEntity
  8
0
  6
Continuous
 62
     5
370
     0
100
AcDbCircle
 10
34.10546336508423
 20
98.10962892216032
 30
0.0
 40
0.8653383459614376
100
AcDbArc
 50
42.96095493549113
 51
90.31848826019167
  0
ARC
  5
28D
330
1F
100
AcDbEntity
  8
0
  6
Continuous
 62
     5
370
     0
100
AcDbCircle
 10
35.36021995544184
 20
99.27811075668941
 30
0.0
 40
0.8492356240587495
100
AcDbArc
 50
222.9609549354911
 51
137.0390450645088
  0
ARC
  5
28E
330
1F
100
AcDbEntity
  8
0
  6
Continuous
 62
     5
370
     0
100
AcDbCircle
 10
34.06899093737229
 20
100.4805572418686
 30
0.0
 40
0.9151764385912736
100
AcDbArc
 50
270.9959356023035
 51
317.0390450645089
  0
LINE
  5
28F
330
1F
100
AcDbEntity
  8
0
  6
Continuous
 62
     5
370
     0
100
AcDbLine
 10
34.10125308947738
 20
101.1315368242341
 30
0.0
 11
34.08489805840537
 21
99.56551905837404
 31
0.0
210
0.0
220
0.0
230
-1.0
  0
LINE
  5
290
330
1F
100
AcDbEntity
  8
0
  6
Continuous
 62
     5
370
     0
100
AcDbLine
 10
36.69203027387388
 20
101.1794937481834
 30
0.0
 11
34.10125308947733
 21
101.1315368242341
 31
0.0
210
0.0
220
0.0
230
-1.0
  0
LINE
  5
291
330
1F
100
AcDbEntity
  8
0
  6
Continuous
 62
     5
370
     0
100
AcDbLine
 10
36.74000750690721
 20
102.7940479287996
 30
0.0
 11
36.69203027387383
 21
101.1794937481834
 31
0.0
210
0.0
220
0.0
230
-1.0
  0
LINE
  5
292
330
1F
100
AcDbEntity
  8
0
  6
Continuous
 62
     5
370
     0
100
AcDbLine
 10
37.66478272051245
 20
95.40277027762019
 30
0.0
 11
37.52893550984499
 21
102.9164666376448
 31
0.0
210
0.0
220
0.0
230
-1.0
  0
LINE
  5
293
330
1F
100
AcDbEntity
  8
0
  6
Continuous
 62
     5
370
     0
100
AcDbLine
 10
40.01946743038987
 20
95.42540173664454
 30
0.0
 11
37.66478272051242
 21
95.40277027762019
 31
0.0
210
0.0
220
0.0
230
-1.0
  0
LINE
  5
294
330
1F
100
AcDbEntity
  8
0
  6
Continuous
 62
     5
370
     0
100
AcDbLine
 10
40.01946743039002
 20
97.82435309592079
 30
0.0
 11
40.01946743039002
 21
95.42540173664454
 31
0.0
210
0.0
220
0.0
230
-1.0
  0
ARC
  5
295
330
1F
100
AcDbEntity
  8
0
  6
Continuous
 62
     5
370
     0
100
AcDbCircle
 10
40.0983511249642
 20
100.5636739136168
 30
0.0
 40
2.740456381614627
100
AcDbArc
 50
268.3505203066574
 51
294.6676644850226
  0
ARC
  5
296
330
1F
100
AcDbEntity
  8
0
  6
Continuous
 62
     5
370
     0
100
AcDbCircle
 10
46.17849208426219
 20
100.363707849487
 30
0.0
 40
5.441875237530764
100
AcDbArc
 50
204.8905108665714
 51
272.616599569505
  0
ARC
  5
297
330
1F
100
AcDbEntity
  8
0
  6
Continuous
 62
     5
370
     0
100
AcDbCircle
 10
41.2475098239413
 20
208.2625388840547
 30
0.0
 40
113.4533205786509
100
AcDbArc
 50
272.616599569505
 51
274.0024798399788
  0
LINE
  5
298
330
1F
100
AcDbEntity
  8
0
  6
Continuous
 62
     5
370
     0
100
AcDbLine
 10
48.78161148709643
 20
97.48487889073674
 30
0.0
 11
49.16651184856466
 21
95.0859275314605
 31
0.0
210
0.0
220
0.0
230
-1.0
  0
ARC
  5
299
330
1F
100
AcDbEntity
  8
0
  6
Continuous
 62
     5
370
     0
100
AcDbCircle
 10
46.83321042932675
 20
101.7163303114668
 30
0.0
 40
4.65848127697398
100
AcDbArc
 50
252.1862852138154
 51
294.7240335886931
  0
ARC
  5
29A
330
1F
100
AcDbEntity
  8
0
  6
Continuous
 62
     5
370
     0
100
AcDbCircle
 10
47.49826855653828
 20
103.7860415858158
 30
0.0
 40
6.832419425067729
100
AcDbArc
 50
226.3443347193313
 51
252.1862852138154
  0
ARC
  5
29B
330
1F
100
AcDbEntity
  8
0
  6
Continuous
 62
     5
370
     0
100
AcDbCircle
 10
41.94877166284754
 20
100.5960975234265
 30
0.0
 40
1.941107059550473
100
AcDbArc
 50
295.4102309782982
 51
55.31493307121503
  0
ARC
  5
29C
330
1F
100
AcDbEntity
  8
0
  6
Continuous
 62
     5
370
     0
100
AcDbCircle
 10
40.66144685939548
 20
98.73592872091743
 30
0.0
 40
4.203281483287826
100
AcDbArc
 50
55.31493307121503
 51
90.4180343373234
  0
LINE
  5
29D
330
1F
100
AcDbEntity
  8
0
  6
Continuous
 62
     5
370
     0
100
AcDbLine
 10
37.5289355098451
 20
102.9164666376448
 30
0.0
 11
40.6307796721249
 21
102.939098328651
 31
0.0
210
0.0
220
0.0
230
-1.0
  0
LINE
  5
29E
330
1F
100
AcDbEntity
  8
0
  6
Continuous
 62
     5
370
     0
100
AcDbLine
 10
44.4482357540503
 20
100.4715582704504
 30
0.0
 11
44.4482357540503
 21
100.9535368740426
 31
0.0
210
0.0
220
0.0
230
-1.0
  0
ARC
  5
29F
330
1F
100
AcDbEntity
  8
0
  6
Continuous
 62
     5
370
     0
100
AcDbCircle
 10
46.9254433124679
 20
100.7901297402326
 30
0.0
 40
2.497607869310211
100
AcDbArc
 50
187.3280757074137
 51
266.7757411462282
  0
ARC
  5
2A0
330
1F
100
AcDbEntity
  8
0
  6
Continuous
 62
     5
370
     0
100
AcDbCircle
 10
46.90610471667992
 20
100.4468415260526
 30
0.0
 40
2.153775382069803
100
AcDbArc
 50
266.7757411462282
 51
0.0
  0
LINE
  5
2A1
330
1F
100
AcDbEntity
  8
0
  6
Continuous
 62
     5
370
     0
100
AcDbLine
 10
49.05988009874977
 20
100.9782536184403
 30
0.0
 11
49.05988009874977
 21
100.4468415260526
 31
0.0
210
0.0
220
0.0
230
-1.0
  0
ARC
  5
2A2
330
1F
100
AcDbEntity
  8
0
  6
Continuous
 62
     5
370
     0
100
AcDbCircle
 10
46.60592610843855
 20
100.6653753064099
 30
0.0
 40
2.473819521449121
100
AcDbArc
 50
7.26598956776243
 51
84.70029024979053
  0
ARC
  5
2A3
330
1F
100
AcDbEntity
  8
0
  6
Continuous
 62
     5
370
     0
100
AcDbCircle
 10
46.63265657649867
 20
100.9535368740426
 30
0.0
 40
2.184420822448443
100
AcDbArc
 50
84.70029024979053
 51
180.0
  0
LINE
  5
2A4
330
1F
100
AcDbEntity
  8
0
  6
Continuous
 62
     5
370
     0
100
AcDbLine
 10
49.86279805789161
 20
95.39838883531887
 30
0.0
 11
49.66272419260184
 21
103.1364358267514
 31
0.0
210
0.0
220
0.0
230
-1.0
  0
LINE
  5
2A5
330
1F
100
AcDbEntity
  8
0
  6
Continuous
 62
     5
370
     0
100
AcDbLine
 10
51.4633898052839
 20
95.42915659581163
 30
0.0
 11
49.86279805789147
 21
95.39838883531885
 31
0.0
210
0.0
220
0.0
230
-1.0
  0
LINE
  5
2A6
330
1F
100
AcDbEntity
  8
0
  6
Continuous
 62
     5
370
     0
100
AcDbLine
 10
51.54034116499921
 20
99.02896369509825
 30
0.0
 11
51.46338980528378
 21
95.42915659581163
 31
0.0
210
0.0
220
0.0
230
-1.0
  0
LINE
  5
2A7
330
1F
100
AcDbEntity
  8
0
  6
Continuous
 62
     5
370
     0
100
AcDbLine
 10
54.63379267367514
 20
95.41377271556525
 30
0.0
 11
51.54034116499929
 21
99.02896369509825
 31
0.0
210
0.0
220
0.0
230
-1.0
  0
LINE
  5
2A8
330
1F
100
AcDbEntity
  8
0
  6
Continuous
 62
     5
370
     0
100
AcDbLine
 10
56.09587180856499
 20
95.42915659581163
 30
0.0
 11
54.63379267367518
 21
95.41377271556525
 31
0.0
210
0.0
220
0.0
230
-1.0
  0
LINE
  5
2A9
330
1F
100
AcDbEntity
  8
0
  6
Continuous
 62
     5
370
     0
100
AcDbLine
 10
56.0804812890997
 20
99.42894226168569
 30
0.0
 11
56.09587180856505
 21
95.42915659581163
 31
0.0
210
0.0
220
0.0
230
-1.0
  0
ARC
  5
2AA
330
1F
100
AcDbEntity
  8
0
  6
Continuous
 62
     5
370
     0
100
AcDbCircle
 10
89.49845047747045
 20
99.74657038980801
 30
0.0
 40
33.41947863600929
100
AcDbArc
 50
174.2047682115883
 51
180.5445634084161
  0
LINE
  5
2AB
330
1F
100
AcDbEntity
  8
0
  6
Continuous
 62
     5
370
     0
100
AcDbLine
 10
54.43371880838526
 20
103.1672035872442
 30
0.0
 11
56.2497749405328
 21
103.1210521784869
 31
0.0
210
0.0
220
0.0
230
-1.0
  0
LINE
  5
2AC
330
1F
100
AcDbEntity
  8
0
  6
Continuous
 62
     5
370
     0
100
AcDbLine
 10
54.35676703613296
 20
99.4135583814393
 30
0.0
 11
54.43371880838546
 21
103.1672035872442
 31
0.0
210
0.0
220
0.0
230
-1.0
  0
LINE
  5
2AD
330
1F
100
AcDbEntity
  8
0
  6
Continuous
 62
     5
370
     0
100
AcDbLine
 10
51.69424429696727
 20
103.1364358267514
 30
0.0
 11
54.35676703613288
 21
99.41355838143929
 31
0.0
210
0.0
220
0.0
230
-1.0
  0
LINE
  5
2AE
330
1F
100
AcDbEntity
  8
0
  6
Continuous
 62
     5
370
     0
100
AcDbLine
 10
49.6627241926017
 20
103.1364358267514
 30
0.0
 11
51.69424429696729
 21
103.1364358267514
 31
0.0
210
0.0
220
0.0
230
-1.0
  0
LINE
  5
2AF
330
1F
100
AcDbEntity
  8
0
  6
Continuous
 62
     5
370
     0
100
AcDbLine
 10
57.40404781148701
 20
95.39838883531887
 30
0.0
 11
57.20397394619718
 21
103.4594954560706
 31
0.0
210
0.0
220
0.0
230
-1.0
  0
LINE
  5
2B0
330
1F
100
AcDbEntity
  8
0
  6
Continuous
 62
     5
370
     0
100
AcDbLine
 10
59.97422867147185
 20
95.41377271556527
 30
0.0
 11
57.40404781148701
 21
95.39838883531887
 31
0.0
210
0.0
220
0.0
230
-1.0
  0
LINE
  5
2B1
330
1F
100
AcDbEntity
  8
0
  6
Continuous
 62
     5
370
     0
100
AcDbLine
 10
59.97422867147179
 20
98.5212986627318
 30
0.0
 11
59.97422867147179
 21
95.41377271556525
 31
0.0
210
0.0
220
0.0
230
-1.0
  0
ARC
  5
2B2
330
1F
100
AcDbEntity
  8
0
  6
Continuous
 62
     5
370
     0
100
AcDbCircle
 10
107.7550178863253
 20
100.0134333090197
 30
0.0
 40
47.80408229217373
100
AcDbArc
 50
176.0140000284392
 51
181.788694649418
  0
LINE
  5
2B3
330
1F
100
AcDbEntity
  8
0
  6
Continuous
 62
     5
370
     0
100
AcDbLine
 10
57.20397394619715
 20
103.4594954560706
 30
0.0
 11
60.06657055065261
 21
103.3364251100451
 31
0.0
210
0.0
220
0.0
230
-1.0
  0
ARC
  5
2B4
330
1F
100
AcDbEntity
  8
0
  6
Continuous
 62
     5
370
     0
100
AcDbCircle
 10
-8.512059927994187
 20
112.9212445202801
 30
0.0
 40
10.0
100
AcDbArc
 50
315.0
 51
0.0
  0
LINE
  5
2B5
330
1F
100
AcDbEntity
  8
0
  6
Continuous
 62
     5
370
     0
100
AcDbLine
 10
1.487940072005812
 20
121.225
 30
0.0
 11
1.487940072005814
 21
112.9212445202801
 31
0.0
210
0.0
220
0.0
230
-1.0
  0
LINE
  5
2B6
330
1F
100
AcDbEntity
  8
0
  6
Continuous
 62
     5
370
     0
100
AcDbLine
 10
-1.440992116128626
 20
105.8501767084145
 30
0.0
 11
-4.745584412271568
 21
102.5455844122716
 31
0.0
210
0.0
220
0.0
230
-1.0
  0
ARC
  5
2B7
330
1F
100
AcDbEntity
  8
0
  6
Continuous
 62
     5
370
     0
100
AcDbCircle
 10
3.487940072005812
 20
121.225
 30
0.0
 40
1.999999999999999
100
AcDbArc
 50
90.0
 51
180.0
  0
ARC
  5
2B8
330
1F
100
AcDbEntity
  8
0
  6
Continuous
 62
     5
370
     0
100
AcDbCircle
 10
-2.200000000000272
 20
100.0
 30
0.0
 40
3.6
100
AcDbArc
 50
134.9999999999982
 51
224.9999999999994
  0
LINE
  5
2B9
330
1F
100
AcDbEntity
  8
0
  6
Continuous
 62
     5
370
     0
100
AcDbLine
 10
65.98794007200592
 20
123.225
 30
0.0
 11
3.487940072005926
 21
123.225
 31
0.0
210
0.0
220
0.0
230
-1.0
  0
LINE
  5
2BA
330
1F
100
AcDbEntity
  8
0
  6
Continuous
 62
     5
370
     0
100
AcDbLine
 10
-4.745584412271682
 20
97.45441558772848
 30
0.0
 11
-1.440992116128711
 21
94.14982329158554
 31
0.0
210
0.0
220
0.0
230
-1.0
  0
ARC
  5
2BB
330
1F
100
AcDbEntity
  8
0
  6
Continuous
 62
     5
370
     0
100
AcDbCircle
 10
65.98794007200581
 20
121.225
 30
0.0
 40
1.999999999999999
100
AcDbArc
 50
0.0
 51
90.0
  0
ARC
  5
2BC
330
1F
100
AcDbEntity
  8
0
  6
Continuous
 62
     5
370
     0
100
AcDbCircle
 10
-8.512059927994187
 20
87.07875547971992
 30
0.0
 40
10.0
100
AcDbArc
 50
0.0
 51
45.00000000000173
  0
LINE
  5
2BD
330
1F
100
AcDbEntity
  8
0
  6
Continuous
 62
     5
370
     0
100
AcDbLine
 10
67.98794007200581
 20
78.7750000000002
 30
0.0
 11
67.98794007200581
 21
121.225
 31
0.0
210
0.0
220
0.0
230
-1.0
  0
LINE
  5
2BE
330
1F
100
AcDbEntity
  8
0
  6
Continuous
 62
     5
370
     0
100
AcDbLine
 10
1.487940072005812
 20
87.07875547971992
 30
0.0
 11
1.487940072005812
 21
78.7750000000002
 31
0.0
210
0.0
220
0.0
230
-1.0
  0
ARC
  5
2BF
330
1F
100
AcDbEntity
  8
0
  6
Continuous
 62
     5
370
     0
100
AcDbCircle
 10
65.98794007200581
 20
78.7750000000002
 30
0.0
 40
1.999999999999999
100
AcDbArc
 50
270.0
 51
0.0
  0
ARC
  5
2C0
330
1F
100
AcDbEntity
  8
0
  6
Continuous
 62
     5
370
     0
100
AcDbCircle
 10
3.487940072005812
 20
78.7750000000002
 30
0.0
 40
1.999999999999999
100
AcDbArc
 50
180.0
 51
270.0
  0
LINE
  5
2C1
330
1F
100
AcDbEntity
  8
0
  6
Continuous
 62
     5
370
     0
100
AcDbLine
 10
3.487940072005926
 20
76.7750000000002
 30
0.0
 11
65.98794007200592
 21
76.7750000000002
 31
0.0
210
0.0
220
0.0
230
-1.0
  0
LINE
  5
2CB
330
1F
100
AcDbEntity
  8
0
  6
Continuous
 62
     1
370
     0
100
AcDbLine
 10
2.987940072005812
 20
121.225
 30
0.0
 11
2.987940072005812
 21
78.7750000000002
 31
0.0
210
0.0
220
0.0
230
-1.0
  0
ARC
  5
2CC
330
1F
100
AcDbEntity
  8
0
  6
Continuous
 62
     1
370
     0
100
AcDbCircle
 10
3.487940072005812
 20
121.225
 30
0.0
 40
0.4999999999999999
100
AcDbArc
 50
90.0
 51
180.0
  0
LINE
  5
2CD
330
1F
100
AcDbEntity
  8
0
  6
Continuous
 62
     1
370
     0
100
AcDbLine
 10
65.98794007200592
 20
121.725
 30
0.0
 11
3.487940072005926
 21
121.725
 31
0.0
210
0.0
220
0.0
230
-1.0
  0
ARC
  5
2CE
330
1F
100
AcDbEntity
  8
0
  6
Continuous
 62
     1
370
     0
100
AcDbCircle
 10
65.98794007200581
 20
121.225
 30
0.0
 40
0.4999999999999999
100
AcDbArc
 50
0.0
 51
90.0
  0
LINE
  5
2CF
330
1F
100
AcDbEntity
  8
0
  6
Continuous
 62
     1
370
     0
100
AcDbLine
 10
66.48794007200582
 20
78.7750000000002
 30
0.0
 11
66.48794007200582
 21
121.225
 31
0.0
210
0.0
220
0.0
230
-1.0
  0
ARC
  5
2D0
330
1F
100
AcDbEntity
  8
0
  6
Continuous
 62
     1
370
     0
100
AcDbCircle
 10
65.98794007200581
 20
78.7750000000002
 30
0.0
 40
0.4999999999999999
100
AcDbArc
 50
270.0
 51
0.0
  0
LINE
  5
2D1
330
1F
100
AcDbEntity
  8
0
  6
Continuous
 62
     1
370
     0
100
AcDbLine
 10
3.487940072005926
 20
78.2750000000002
 30
0.0
 11
65.98794007200592
 21
78.2750000000002
 31
0.0
210
0.0
220
0.0
230
-1.0
  0
ARC
  5
2D2
330
1F
100
AcDbEntity
  8
0
  6
Continuous
 62
     1
370
     0
100
AcDbCircle
 10
3.487940072005812
 20
78.7750000000002
 30
0.0
 40
0.4999999999999999
100
AcDbArc
 50
180.0
 51
270.0
  0
ENDSEC
  0
SECTION
  2
OBJECTS
  0
DICTIONARY
  5
C
330
0
100
AcDbDictionary
281
     1
  3
ACAD_COLOR
350
6B
  3
ACAD_GROUP
350
D
  3
ACAD_LAYOUT
350
1A
  3
ACAD_MATERIAL
350
6A
  3
ACAD_MLEADERSTYLE
350
12D
  3
ACAD_MLINESTYLE
350
17
  3
ACAD_PLOTSETTINGS
350
19
  3
ACAD_PLOTSTYLENAME
350
E
  3
ACAD_SCALELIST
350
10C
  3
ACAD_TABLESTYLE
350
7E
  3
ACAD_VISUALSTYLE
350
EF
  3
ACDB_RECOMPOSE_DATA
350
15D
  3
AcDbVariableDictionary
350
5E
  0
DICTIONARY
  5
235
330
2
100
AcDbDictionary
280
     1
281
     1
  3
ACAD_LAYERSTATES
360
236
  0
DICTIONARY
  5
13C
330
10
100
AcDbDictionary
280
     1
281
     1
  3
ADSK_XREC_LAYER_RECONCILED
360
23F
  0
DICTIONARY
  5
2C2
330
1F
100
AcDbDictionary
280
     1
281
     1
  3
ACAD_SORTENTS
360
2C3
  0
DICTIONARY
  5
6B
102
{ACAD_REACTORS
330
C
102
}
330
C
100
AcDbDictionary
281
     1
  0
DICTIONARY
  5
D
102
{ACAD_REACTORS
330
C
102
}
330
C
100
AcDbDictionary
281
     1
  0
DICTIONARY
  5
1A
102
{ACAD_REACTORS
330
C
102
}
330
C
100
AcDbDictionary
281
     1
  3
Model
350
22
  3
Presentacin1
350
D3
  3
Presentacin2
350
D7
  0
DICTIONARY
  5
6A
102
{ACAD_REACTORS
330
C
102
}
330
C
100
AcDbDictionary
281
     1
  3
ByBlock
350
ED
  3
ByLayer
350
EC
  3
Global
350
EE
  0
DICTIONARY
  5
12D
102
{ACAD_REACTORS
330
C
102
}
330
C
100
AcDbDictionary
281
     1
  3
Anotativo
350
13B
  3
Standard
350
12E
  0
DICTIONARY
  5
17
102
{ACAD_REACTORS
330
C
102
}
330
C
100
AcDbDictionary
281
     1
  3
Standard
350
18
  0
DICTIONARY
  5
19
102
{ACAD_REACTORS
330
C
102
}
330
C
100
AcDbDictionary
281
     1
  0
ACDBDICTIONARYWDFLT
  5
E
102
{ACAD_REACTORS
330
C
102
}
330
C
100
AcDbDictionary
281
     1
  3
Normal
350
F
100
AcDbDictionaryWithDefault
340
F
  0
DICTIONARY
  5
10C
102
{ACAD_REACTORS
330
C
102
}
330
C
100
AcDbDictionary
281
     1
  3
A0
350
10D
  3
A1
350
188
  3
A2
350
189
  3
A3
350
18A
  3
A4
350
18B
  3
A5
350
18C
  3
A6
350
18D
  3
A7
350
18E
  3
A8
350
18F
  3
A9
350
190
  3
B0
350
191
  3
B1
350
192
  3
B2
350
193
  3
B3
350
194
  3
B4
350
195
  3
B5
350
196
  3
B6
350
197
  3
B7
350
198
  3
B8
350
199
  3
B9
350
19A
  3
C0
350
19B
  3
C1
350
19C
  3
C2
350
19D
  3
C3
350
19E
  3
C4
350
19F
  3
C5
350
1A0
  3
C6
350
1A1
  3
C7
350
1A2
  3
C8
350
1A3
  3
C9
350
1A4
  3
D0
350
1A5
  3
D1
350
1A6
  3
D2
350
1A7
  0
DICTIONARY
  5
7E
102
{ACAD_REACTORS
330
C
102
}
330
C
100
AcDbDictionary
281
     1
  3
Standard
350
7F
  0
DICTIONARY
  5
EF
102
{ACAD_REACTORS
330
C
102
}
330
C
100
AcDbDictionary
281
     1
  3
2dWireframe
350
F5
  3
3D Hidden
350
F7
  3
3dWireframe
350
F6
  3
Basic
350
F4
  3
Brighten
350
FB
  3
ColorChange
350
FF
  3
Conceptual
350
F8
  3
Dim
350
FA
  3
Facepattern
350
FE
  3
Flat
350
F0
  3
FlatWithEdges
350
F1
  3
Gouraud
350
F2
  3
GouraudWithEdges
350
F3
  3
Linepattern
350
FD
  3
Realistic
350
F9
  3
Thicken
350
FC
  0
XRECORD
  5
15D
102
{ACAD_REACTORS
330
C
102
}
330
C
100
AcDbXrecord
280
     1
 90
        1
330
7F
  0
DICTIONARY
  5
5E
102
{ACAD_REACTORS
330
C
102
}
330
C
100
AcDbDictionary
281
     1
  3
CANNOSCALE
350
146
  3
CMLEADERSTYLE
350
145
  3
CTABLESTYLE
350
84
  3
DIMASSOC
350
5F
  3
HIDETEXT
350
63
  3
LIGHTINGUNITS
350
2D5
  3
MSLTSCALE
350
2D4
  3
PSOLHEIGHT
350
2D7
  3
PSOLWIDTH
350
2D6
  0
DICTIONARY
  5
236
102
{ACAD_REACTORS
330
235
102
}
330
235
100
AcDbDictionary
281
     1
  0
XRECORD
  5
23F
102
{ACAD_REACTORS
330
13C
102
}
330
13C
100
AcDbXrecord
280
     1
290
     1
  0
SORTENTSTABLE
  5
2C3
102
{ACAD_REACTORS
330
2C2
102
}
330
2C2
100
AcDbSortentsTable
330
1F
331
2CE
  5
2BF
331
2AC
  5
2AC
331
292
  5
292
331
270
  5
270
331
2BD
  5
2C1
331
2A3
  5
2A3
331
281
  5
281
331
25F
  5
25F
331
24E
  5
24E
331
2CC
  5
2B9
331
2AA
  5
2AA
331
290
  5
290
331
2BB
  5
2BE
331
2A1
  5
2A1
331
27F
  5
27F
331
25D
  5
25D
331
26E
  5
26E
331
24C
  5
24C
331
2A8
  5
2A8
331
2B9
  5
2BB
331
29F
  5
29F
331
27D
  5
27D
331
25B
  5
25B
331
28E
  5
28E
331
26C
  5
26C
331
24A
  5
24A
331
2B7
  5
2B8
331
29D
  5
29D
331
27B
  5
27B
331
259
  5
259
331
28C
  5
28C
331
26A
  5
26A
331
248
  5
248
331
2B5
  5
2B5
331
29B
  5
29B
331
279
  5
279
331
257
  5
257
331
28A
  5
28A
331
268
  5
268
331
2B3
  5
2B3
331
299
  5
299
331
277
  5
277
331
255
  5
255
331
288
  5
288
331
266
  5
266
331
2B1
  5
2B1
331
297
  5
297
331
275
  5
275
331
253
  5
253
331
286
  5
286
331
264
  5
264
331
2D1
  5
2D2
331
2AF
  5
2AF
331
295
  5
295
331
273
  5
273
331
2C0
  5
2CF
331
2A6
  5
2A6
331
284
  5
284
331
262
  5
262
331
251
  5
251
331
2CF
  5
2CB
331
2AD
  5
2AD
331
293
  5
293
331
271
  5
271
331
2BE
  5
2CC
331
2A4
  5
2A4
331
282
  5
282
331
260
  5
260
331
24F
  5
24F
331
23E
  5
23E
331
2CD
  5
2BC
331
2AB
  5
2AB
331
291
  5
291
331
2BC
  5
2C0
331
2A2
  5
2A2
331
280
  5
280
331
25E
  5
25E
331
26F
  5
26F
331
24D
  5
24D
331
2CB
  5
2B6
331
2A9
  5
2A9
331
2BA
  5
2BD
331
2A0
  5
2A0
331
27E
  5
27E
331
25C
  5
25C
331
28F
  5
28F
331
26D
  5
26D
331
24B
  5
24B
331
2B8
  5
2BA
331
29E
  5
29E
331
27C
  5
27C
331
25A
  5
25A
331
28D
  5
28D
331
26B
  5
26B
331
249
  5
249
331
2B6
  5
2B7
331
29C
  5
29C
331
27A
  5
27A
331
258
  5
258
331
28B
  5
28B
331
269
  5
269
331
2B4
  5
2B4
331
29A
  5
29A
331
278
  5
278
331
256
  5
256
331
289
  5
289
331
267
  5
267
331
2B2
  5
2B2
331
298
  5
298
331
276
  5
276
331
254
  5
254
331
287
  5
287
331
265
  5
265
331
2D2
  5
2D0
331
2B0
  5
2B0
331
296
  5
296
331
274
  5
274
331
252
  5
252
331
2C1
  5
2D1
331
2A7
  5
2A7
331
285
  5
285
331
263
  5
263
331
2D0
  5
2CE
331
2AE
  5
2AE
331
294
  5
294
331
272
  5
272
331
2BF
  5
2CD
331
2A5
  5
2A5
331
283
  5
283
331
261
  5
261
331
250
  5
250
  0
LAYOUT
  5
22
102
{ACAD_REACTORS
330
1A
102
}
330
1A
100
AcDbPlotSettings
  1

  2
none_device
  4
ISO_A4_(210.00_x_297.00_MM)
  6

 40
7.5
 41
20.0
 42
7.5
 43
20.0
 44
210.0
 45
297.0
 46
11.54999923706054
 47
-13.65000009536743
 48
0.0
 49
0.0
140
0.0
141
0.0
142
1.0
143
8.704084754739808
 70
 11952
 72
     1
 73
     0
 74
     0
  7

 75
     0
147
0.1148885871608098
 76
     0
 77
     2
 78
   300
148
0.0
149
0.0
100
AcDbLayout
  1
Model
 70
     1
 71
     0
 10
0.0
 20
0.0
 11
12.0
 21
9.0
 12
0.0
 22
0.0
 32
0.0
 14
0.0
 24
0.0
 34
0.0
 15
0.0
 25
0.0
 35
0.0
146
0.0
 13
0.0
 23
0.0
 33
0.0
 16
1.0
 26
0.0
 36
0.0
 17
0.0
 27
1.0
 37
0.0
 76
     0
330
1F
331
EA
1001
ACAD_PSEXT
1000
None
1000
None
1000
Not applicable
1000
The layout will not be plotted unless a new plotter configuration name is selected.
1070
     0
  0
LAYOUT
  5
D3
102
{ACAD_REACTORS
330
1A
102
}
330
1A
100
AcDbPlotSettings
  1

  2
C:\Documents and Settings\basas\Application Data\Autodesk\AutoCAD 2005\R16.1\enu\plotters\Default Windows System Printer.pc3
  4

  6

 40
0.0
 41
0.0
 42
0.0
 43
0.0
 44
0.0
 45
0.0
 46
0.0
 47
0.0
 48
0.0
 49
0.0
140
0.0
141
0.0
142
1.0
143
1.0
 70
   688
 72
     0
 73
     0
 74
     5
  7

 75
    16
147
1.0
 76
     0
 77
     2
 78
   300
148
0.0
149
0.0
100
AcDbLayout
  1
Presentacin1
 70
     1
 71
     1
 10
0.0
 20
0.0
 11
12.0
 21
9.0
 12
0.0
 22
0.0
 32
0.0
 14
0.0
 24
0.0
 34
0.0
 15
0.0
 25
0.0
 35
0.0
146
0.0
 13
0.0
 23
0.0
 33
0.0
 16
1.0
 26
0.0
 36
0.0
 17
0.0
 27
1.0
 37
0.0
 76
     0
330
D2
  0
LAYOUT
  5
D7
102
{ACAD_REACTORS
330
1A
102
}
330
1A
100
AcDbPlotSettings
  1

  2
C:\Documents and Settings\basas\Application Data\Autodesk\AutoCAD 2005\R16.1\enu\plotters\Default Windows System Printer.pc3
  4

  6

 40
0.0
 41
0.0
 42
0.0
 43
0.0
 44
0.0
 45
0.0
 46
0.0
 47
0.0
 48
0.0
 49
0.0
140
0.0
141
0.0
142
1.0
143
1.0
 70
   688
 72
     0
 73
     0
 74
     5
  7

 75
    16
147
1.0
 76
     0
 77
     2
 78
   300
148
0.0
149
0.0
100
AcDbLayout
  1
Presentacin2
 70
     1
 71
     2
 10
0.0
 20
0.0
 11
12.0
 21
9.0
 12
0.0
 22
0.0
 32
0.0
 14
0.0
 24
0.0
 34
0.0
 15
0.0
 25
0.0
 35
0.0
146
0.0
 13
0.0
 23
0.0
 33
0.0
 16
1.0
 26
0.0
 36
0.0
 17
0.0
 27
1.0
 37
0.0
 76
     0
330
D6
  0
MATERIAL
  5
ED
102
{ACAD_XDICTIONARY
360
2DC
102
}
102
{ACAD_REACTORS
330
6A
102
}
330
6A
100
AcDbMaterial
  1
ByBlock
  0
MATERIAL
  5
EC
102
{ACAD_XDICTIONARY
360
2DA
102
}
102
{ACAD_REACTORS
330
6A
102
}
330
6A
100
AcDbMaterial
  1
ByLayer
  0
MATERIAL
  5
EE
102
{ACAD_XDICTIONARY
360
173
102
}
102
{ACAD_REACTORS
330
6A
102
}
330
6A
100
AcDbMaterial
  1
Global
 43
0.0007999999797903
 43
0.0
 43
0.0
 43
0.0
 43
0.0
 43
0.0007999999797903
 43
0.0
 43
0.0
 43
0.0
 43
0.0
 43
1.0
 43
0.0
 43
0.0
 43
0.0
 43
0.0
 43
1.0
 49
0.0007999999797903
 49
0.0
 49
0.0
 49
0.0
 49
0.0
 49
0.0007999999797903
 49
0.0
 49
0.0
 49
0.0
 49
0.0
 49
1.0
 49
0.0
 49
0.0
 49
0.0
 49
0.0
 49
1.0
142
0.0007999999797903
142
0.0
142
0.0
142
0.0
142
0.0
142
0.0007999999797903
142
0.0
142
0.0
142
0.0
142
0.0
142
1.0
142
0.0
142
0.0
142
0.0
142
0.0
142
1.0
144
0.0007999999797903
144
0.0
144
0.0
144
0.0
144
0.0
144
0.0007999999797903
144
0.0
144
0.0
144
0.0
144
0.0
144
1.0
144
0.0
144
0.0
144
0.0
144
0.0
144
1.0
1001
ACAD
1070
    -1
1070
     3
1070
     0
1000

1071
        0
1070
     0
  0
MLEADERSTYLE
  5
13B
102
{ACAD_REACTORS
330
12D
102
}
330
12D
100
AcDbMLeaderStyle
170
     2
171
     1
172
     0
 90
        2
 40
0.0
 41
0.0
173
     1
 91
-1056964608
340
14
 92
       -2
290
     1
 42
2.0
291
     1
 43
8.0
  3
Standard
 44
4.0
300

342
11
174
     1
178
     1
175
     1
176
     0
 93
-1056964608
 45
4.0
292
     0
297
     0
 46
4.0
 94
-1056964608
 47
1.0
 49
1.0
140
1.0
293
     1
141
0.0
294
     1
177
     0
142
1.0
295
     0
296
     1
143
3.75
1001
ACAD_MLEADERVER
1070
     2
  0
MLEADERSTYLE
  5
12E
102
{ACAD_REACTORS
330
12D
102
}
330
12D
100
AcDbMLeaderStyle
170
     2
171
     1
172
     0
 90
        2
 40
0.0
 41
0.0
173
     1
 91
-1056964608
340
14
 92
       -2
290
     1
 42
2.0
291
     1
 43
8.0
  3
Standard
 44
4.0
300

342
11
174
     1
178
     1
175
     1
176
     0
 93
-1056964608
 45
4.0
292
     0
297
     0
 46
4.0
 94
-1056964608
 47
1.0
 49
1.0
140
1.0
293
     1
141
0.0
294
     1
177
     0
142
1.0
295
     0
296
     0
143
3.75
1001
ACAD_MLEADERVER
1070
     2
  0
MLINESTYLE
  5
18
102
{ACAD_REACTORS
330
17
102
}
330
17
100
AcDbMlineStyle
  2
STANDARD
 70
     0
  3

 62
   256
 51
90.0
 52
90.0
 71
     2
 49
0.5
 62
   256
  6
BYLAYER
 49
-0.5
 62
   256
  6
BYLAYER
  0
ACDBPLACEHOLDER
  5
F
102
{ACAD_REACTORS
330
E
102
}
330
E
  0
SCALE
  5
10D
102
{ACAD_REACTORS
330
10C
102
}
330
10C
100
AcDbScale
 70
     0
300
1:1
140
1.0
141
1.0
290
     1
  0
SCALE
  5
188
102
{ACAD_REACTORS
330
10C
102
}
330
10C
100
AcDbScale
 70
     0
300
1:2
140
1.0
141
2.0
290
     0
  0
SCALE
  5
189
102
{ACAD_REACTORS
330
10C
102
}
330
10C
100
AcDbScale
 70
     0
300
1:4
140
1.0
141
4.0
290
     0
  0
SCALE
  5
18A
102
{ACAD_REACTORS
330
10C
102
}
330
10C
100
AcDbScale
 70
     0
300
1:5
140
1.0
141
5.0
290
     0
  0
SCALE
  5
18B
102
{ACAD_REACTORS
330
10C
102
}
330
10C
100
AcDbScale
 70
     0
300
1:8
140
1.0
141
8.0
290
     0
  0
SCALE
  5
18C
102
{ACAD_REACTORS
330
10C
102
}
330
10C
100
AcDbScale
 70
     0
300
1:10
140
1.0
141
10.0
290
     0
  0
SCALE
  5
18D
102
{ACAD_REACTORS
330
10C
102
}
330
10C
100
AcDbScale
 70
     0
300
1:16
140
1.0
141
16.0
290
     0
  0
SCALE
  5
18E
102
{ACAD_REACTORS
330
10C
102
}
330
10C
100
AcDbScale
 70
     0
300
1:20
140
1.0
141
20.0
290
     0
  0
SCALE
  5
18F
102
{ACAD_REACTORS
330
10C
102
}
330
10C
100
AcDbScale
 70
     0
300
1:30
140
1.0
141
30.0
290
     0
  0
SCALE
  5
190
102
{ACAD_REACTORS
330
10C
102
}
330
10C
100
AcDbScale
 70
     0
300
1:40
140
1.0
141
40.0
290
     0
  0
SCALE
  5
191
102
{ACAD_REACTORS
330
10C
102
}
330
10C
100
AcDbScale
 70
     0
300
1:50
140
1.0
141
50.0
290
     0
  0
SCALE
  5
192
102
{ACAD_REACTORS
330
10C
102
}
330
10C
100
AcDbScale
 70
     0
300
1:100
140
1.0
141
100.0
290
     0
  0
SCALE
  5
193
102
{ACAD_REACTORS
330
10C
102
}
330
10C
100
AcDbScale
 70
     0
300
2:1
140
2.0
141
1.0
290
     0
  0
SCALE
  5
194
102
{ACAD_REACTORS
330
10C
102
}
330
10C
100
AcDbScale
 70
     0
300
4:1
140
4.0
141
1.0
290
     0
  0
SCALE
  5
195
102
{ACAD_REACTORS
330
10C
102
}
330
10C
100
AcDbScale
 70
     0
300
8:1
140
8.0
141
1.0
290
     0
  0
SCALE
  5
196
102
{ACAD_REACTORS
330
10C
102
}
330
10C
100
AcDbScale
 70
     0
300
10:1
140
10.0
141
1.0
290
     0
  0
SCALE
  5
197
102
{ACAD_REACTORS
330
10C
102
}
330
10C
100
AcDbScale
 70
     0
300
100:1
140
100.0
141
1.0
290
     0
  0
SCALE
  5
198
102
{ACAD_REACTORS
330
10C
102
}
330
10C
100
AcDbScale
 70
     0
300
1/128" = 1'-0"
140
0.0078125
141
12.0
290
     0
  0
SCALE
  5
199
102
{ACAD_REACTORS
330
10C
102
}
330
10C
100
AcDbScale
 70
     0
300
1/64" = 1'-0"
140
0.015625
141
12.0
290
     0
  0
SCALE
  5
19A
102
{ACAD_REACTORS
330
10C
102
}
330
10C
100
AcDbScale
 70
     0
300
1/32" = 1'-0"
140
0.03125
141
12.0
290
     0
  0
SCALE
  5
19B
102
{ACAD_REACTORS
330
10C
102
}
330
10C
100
AcDbScale
 70
     0
300
1/16" = 1'-0"
140
0.0625
141
12.0
290
     0
  0
SCALE
  5
19C
102
{ACAD_REACTORS
330
10C
102
}
330
10C
100
AcDbScale
 70
     0
300
3/32" = 1'-0"
140
0.09375
141
12.0
290
     0
  0
SCALE
  5
19D
102
{ACAD_REACTORS
330
10C
102
}
330
10C
100
AcDbScale
 70
     0
300
1/8" = 1'-0"
140
0.125
141
12.0
290
     0
  0
SCALE
  5
19E
102
{ACAD_REACTORS
330
10C
102
}
330
10C
100
AcDbScale
 70
     0
300
3/16" = 1'-0"
140
0.1875
141
12.0
290
     0
  0
SCALE
  5
19F
102
{ACAD_REACTORS
330
10C
102
}
330
10C
100
AcDbScale
 70
     0
300
1/4" = 1'-0"
140
0.25
141
12.0
290
     0
  0
SCALE
  5
1A0
102
{ACAD_REACTORS
330
10C
102
}
330
10C
100
AcDbScale
 70
     0
300
3/8" = 1'-0"
140
0.375
141
12.0
290
     0
  0
SCALE
  5
1A1
102
{ACAD_REACTORS
330
10C
102
}
330
10C
100
AcDbScale
 70
     0
300
1/2" = 1'-0"
140
0.5
141
12.0
290
     0
  0
SCALE
  5
1A2
102
{ACAD_REACTORS
330
10C
102
}
330
10C
100
AcDbScale
 70
     0
300
3/4" = 1'-0"
140
0.75
141
12.0
290
     0
  0
SCALE
  5
1A3
102
{ACAD_REACTORS
330
10C
102
}
330
10C
100
AcDbScale
 70
     0
300
1" = 1'-0"
140
1.0
141
12.0
290
     0
  0
SCALE
  5
1A4
102
{ACAD_REACTORS
330
10C
102
}
330
10C
100
AcDbScale
 70
     0
300
1-1/2" = 1'-0"
140
1.5
141
12.0
290
     0
  0
SCALE
  5
1A5
102
{ACAD_REACTORS
330
10C
102
}
330
10C
100
AcDbScale
 70
     0
300
3" = 1'-0"
140
3.0
141
12.0
290
     0
  0
SCALE
  5
1A6
102
{ACAD_REACTORS
330
10C
102
}
330
10C
100
AcDbScale
 70
     0
300
6" = 1'-0"
140
6.0
141
12.0
290
     0
  0
SCALE
  5
1A7
102
{ACAD_REACTORS
330
10C
102
}
330
10C
100
AcDbScale
 70
     0
300
1'-0" = 1'-0"
140
12.0
141
12.0
290
     0
  0
TABLESTYLE
  5
7F
102
{ACAD_XDICTIONARY
360
162
102
}
102
{ACAD_REACTORS
330
7E
102
}
330
7E
100
AcDbTableStyle
  3
Standard
 70
     0
 71
     0
 40
1.5
 41
1.5
280
     0
281
     0
  7
Standard
140
4.5
170
     2
 62
     0
 63
     7
283
     0
274
    -2
284
     1
 64
     0
275
    -2
285
     1
 65
     0
276
    -2
286
     1
 66
     0
277
    -2
287
     1
 67
     0
278
    -2
288
     1
 68
     0
279
    -2
289
     1
 69
     0
  7
Standard
140
6.0
170
     5
 62
     0
 63
     7
283
     0
274
    -2
284
     1
 64
     0
275
    -2
285
     1
 65
     0
276
    -2
286
     1
 66
     0
277
    -2
287
     1
 67
     0
278
    -2
288
     1
 68
     0
279
    -2
289
     1
 69
     0
  7
Standard
140
4.5
170
     5
 62
     0
 63
     7
283
     0
274
    -2
284
     1
 64
     0
275
    -2
285
     1
 65
     0
276
    -2
286
     1
 66
     0
277
    -2
287
     1
 67
     0
278
    -2
288
     1
 68
     0
279
    -2
289
     1
 69
     0
  0
VISUALSTYLE
  5
F5
102
{ACAD_REACTORS
330
EF
102
}
330
EF
100
AcDbVisualStyle
  2
2dWireframe
 70
     4
 71
     0
 72
     2
 73
     1
 90
        0
 40
-0.6
 41
-30.0
 62
     5
 63
     7
421
 16777215
 74
     1
 91
        4
 64
     7
 65
   257
 75
     1
175
     1
 42
1.0
 92
        0
 66
   257
 43
1.0
 76
     1
 77
     6
 78
     2
 67
     7
 79
     5
170
     0
171
     0
290
     0
174
     0
 93
        1
 44
0.0
173
     0
291
     0
 45
0.0
1001
ACAD
1000
AcDbSavedByObjectVersion
1070
     0
  0
VISUALSTYLE
  5
F7
102
{ACAD_REACTORS
330
EF
102
}
330
EF
100
AcDbVisualStyle
  2
3D Hidden
 70
     6
 71
     1
 72
     2
 73
     2
 90
        0
 40
-0.6
 41
-30.0
 62
     5
 63
     7
421
 16777215
 74
     2
 91
        2
 64
     7
 65
   257
 75
     2
175
     1
 42
40.0
 92
        0
 66
   257
 43
1.0
 76
     1
 77
     6
 78
     2
 67
     7
 79
     3
170
     0
171
     0
290
     0
174
     0
 93
        1
 44
0.0
173
     0
291
     0
 45
0.0
1001
ACAD
1000
AcDbSavedByObjectVersion
1070
     0
  0
VISUALSTYLE
  5
F6
102
{ACAD_REACTORS
330
EF
102
}
330
EF
100
AcDbVisualStyle
  2
3dWireframe
 70
     5
 71
     0
 72
     2
 73
     1
 90
        0
 40
-0.6
 41
-30.0
 62
     5
 63
     7
421
 16777215
 74
     1
 91
        4
 64
     7
 65
   257
 75
     1
175
     1
 42
1.0
 92
        0
 66
   257
 43
1.0
 76
     1
 77
     6
 78
     2
 67
     7
 79
     5
170
     0
171
     0
290
     0
174
     0
 93
        1
 44
0.0
173
     0
291
     0
 45
0.0
1001
ACAD
1000
AcDbSavedByObjectVersion
1070
     0
  0
VISUALSTYLE
  5
F4
102
{ACAD_REACTORS
330
EF
102
}
330
EF
100
AcDbVisualStyle
  2
Basic
 70
     7
 71
     1
 72
     0
 73
     1
 90
        0
 40
-0.6
 41
-30.0
 62
     5
 63
     7
421
 16777215
 74
     0
 91
        4
 64
     7
 65
   257
 75
     1
175
     1
 42
1.0
 92
        8
 66
     7
 43
1.0
 76
     1
 77
     6
 78
     2
 67
     7
 79
     5
170
     0
171
     0
290
     0
174
     0
 93
        1
 44
0.0
173
     0
291
     1
 45
0.0
1001
ACAD
1000
AcDbSavedByObjectVersion
1070
     0
  0
VISUALSTYLE
  5
FB
102
{ACAD_REACTORS
330
EF
102
}
330
EF
100
AcDbVisualStyle
  2
Brighten
 70
    12
 71
     2
 72
     2
 73
     1
 90
        0
 40
-0.6
 41
-30.0
 62
     5
 63
     7
421
 16777215
 74
     1
 91
        4
 64
     7
 65
   257
 75
     1
175
     1
 42
1.0
 92
        8
 66
     7
 43
1.0
 76
     1
 77
     6
 78
     2
 67
     7
 79
     5
170
     0
171
     0
290
     0
174
     0
 93
        1
 44
50.0
173
     0
291
     1
 45
0.0
1001
ACAD
1000
AcDbSavedByObjectVersion
1070
     0
  0
VISUALSTYLE
  5
FF
102
{ACAD_REACTORS
330
EF
102
}
330
EF
100
AcDbVisualStyle
  2
ColorChange
 70
    16
 71
     2
 72
     2
 73
     3
 90
        0
 40
-0.6
 41
-30.0
 62
     5
 63
     8
421
  8421504
 74
     1
 91
        4
 64
     7
 65
   257
 75
     1
175
     1
 42
1.0
 92
        8
 66
     8
424
  8421504
 43
1.0
 76
     1
 77
     6
 78
     2
 67
     7
 79
     5
170
     0
171
     0
290
     0
174
     0
 93
        1
 44
0.0
173
     0
291
     1
 45
0.0
1001
ACAD
1000
AcDbSavedByObjectVersion
1070
     0
  0
VISUALSTYLE
  5
F8
102
{ACAD_REACTORS
330
EF
102
}
330
EF
100
AcDbVisualStyle
  2
Conceptual
 70
     9
 71
     3
 72
     2
 73
     1
 90
        0
 40
-0.6
 41
-30.0
 62
     5
 63
     7
421
 16777215
 74
     2
 91
        2
 64
     7
 65
   257
 75
     1
175
     1
 42
40.0
 92
        8
 66
     7
 43
1.0
 76
     1
 77
     6
 78
     2
 67
     7
 79
     3
170
     0
171
     0
290
     0
174
     0
 93
        1
 44
0.0
173
     0
291
     0
 45
0.0
1001
ACAD
1000
AcDbSavedByObjectVersion
1070
     0
  0
VISUALSTYLE
  5
FA
102
{ACAD_REACTORS
330
EF
102
}
330
EF
100
AcDbVisualStyle
  2
Dim
 70
    11
 71
     2
 72
     2
 73
     1
 90
        0
 40
-0.6
 41
-30.0
 62
     5
 63
     7
421
 16777215
 74
     1
 91
        4
 64
     7
 65
   257
 75
     1
175
     1
 42
1.0
 92
        8
 66
     7
 43
1.0
 76
     1
 77
     6
 78
     2
 67
     7
 79
     5
170
     0
171
     0
290
     0
174
     0
 93
        1
 44
-50.0
173
     0
291
     1
 45
0.0
1001
ACAD
1000
AcDbSavedByObjectVersion
1070
     0
  0
VISUALSTYLE
  5
FE
102
{ACAD_REACTORS
330
EF
102
}
330
EF
100
AcDbVisualStyle
  2
Facepattern
 70
    15
 71
     2
 72
     2
 73
     1
 90
        0
 40
-0.6
 41
-30.0
 62
     5
 63
     7
421
 16777215
 74
     1
 91
        4
 64
     7
 65
   257
 75
     1
175
     1
 42
1.0
 92
        8
 66
     7
 43
1.0
 76
     1
 77
     6
 78
     2
 67
     7
 79
     5
170
     0
171
     0
290
     0
174
     0
 93
        1
 44
0.0
173
     0
291
     1
 45
0.0
1001
ACAD
1000
AcDbSavedByObjectVersion
1070
     0
  0
VISUALSTYLE
  5
F0
102
{ACAD_REACTORS
330
EF
102
}
330
EF
100
AcDbVisualStyle
  2
Flat
 70
     0
 71
     2
 72
     1
 73
     1
 90
        2
 40
-0.6
 41
30.0
 62
     5
 63
     7
421
 16777215
 74
     0
 91
        4
 64
     7
 65
   257
 75
     1
175
     1
 42
1.0
 92
        8
 66
     7
 43
1.0
 76
     1
 77
     6
 78
     2
 67
     7
 79
     5
170
     0
171
     0
290
     0
174
     0
 93
        1
 44
0.0
173
     0
291
     1
 45
0.0
1001
ACAD
1000
AcDbSavedByObjectVersion
1070
     0
  0
VISUALSTYLE
  5
F1
102
{ACAD_REACTORS
330
EF
102
}
330
EF
100
AcDbVisualStyle
  2
FlatWithEdges
 70
     1
 71
     2
 72
     1
 73
     1
 90
        2
 40
-0.6
 41
30.0
 62
     5
 63
     7
421
 16777215
 74
     1
 91
        4
 64
     7
 65
   257
 75
     1
175
     1
 42
1.0
 92
        0
 66
   257
 43
1.0
 76
     1
 77
     6
 78
     2
 67
     7
 79
     5
170
     0
171
     0
290
     0
174
     0
 93
        1
 44
0.0
173
     0
291
     1
 45
0.0
1001
ACAD
1000
AcDbSavedByObjectVersion
1070
     0
  0
VISUALSTYLE
  5
F2
102
{ACAD_REACTORS
330
EF
102
}
330
EF
100
AcDbVisualStyle
  2
Gouraud
 70
     2
 71
     2
 72
     2
 73
     1
 90
        2
 40
-0.6
 41
30.0
 62
     5
 63
     7
421
 16777215
 74
     0
 91
        4
 64
     7
 65
   257
 75
     1
175
     1
 42
1.0
 92
        0
 66
     7
 43
1.0
 76
     1
 77
     6
 78
     2
 67
     7
 79
     5
170
     0
171
     0
290
     0
174
     0
 93
        1
 44
0.0
173
     0
291
     1
 45
0.0
1001
ACAD
1000
AcDbSavedByObjectVersion
1070
     0
  0
VISUALSTYLE
  5
F3
102
{ACAD_REACTORS
330
EF
102
}
330
EF
100
AcDbVisualStyle
  2
GouraudWithEdges
 70
     3
 71
     2
 72
     2
 73
     1
 90
        2
 40
-0.6
 41
30.0
 62
     5
 63
     7
421
 16777215
 74
     1
 91
        4
 64
     7
 65
   257
 75
     1
175
     1
 42
1.0
 92
        0
 66
   257
 43
1.0
 76
     1
 77
     6
 78
     2
 67
     7
 79
     5
170
     0
171
     0
290
     0
174
     0
 93
        1
 44
0.0
173
     0
291
     1
 45
0.0
1001
ACAD
1000
AcDbSavedByObjectVersion
1070
     0
  0
VISUALSTYLE
  5
FD
102
{ACAD_REACTORS
330
EF
102
}
330
EF
100
AcDbVisualStyle
  2
Linepattern
 70
    14
 71
     2
 72
     2
 73
     1
 90
        0
 40
-0.6
 41
-30.0
 62
     5
 63
     7
421
 16777215
 74
     1
 91
        4
 64
     7
 65
   257
 75
     7
175
     7
 42
1.0
 92
        8
 66
     7
 43
1.0
 76
     1
 77
     6
 78
     2
 67
     7
 79
     5
170
     0
171
     0
290
     0
174
     0
 93
        1
 44
0.0
173
     0
291
     1
 45
0.0
1001
ACAD
1000
AcDbSavedByObjectVersion
1070
     0
  0
VISUALSTYLE
  5
F9
102
{ACAD_REACTORS
330
EF
102
}
330
EF
100
AcDbVisualStyle
  2
Realistic
 70
     8
 71
     2
 72
     2
 73
     1
 90
        0
 40
-0.6
 41
-30.0
 62
     5
 63
     7
421
 16777215
 74
     1
 91
        0
 64
     7
 65
   257
 75
     1
175
     1
 42
1.0
 92
        8
 66
     8
424
  7895160
 43
1.0
 76
     1
 77
     6
 78
     2
 67
     7
 79
     5
170
     0
171
     0
290
     0
174
     0
 93
       13
 44
0.0
173
     0
291
     0
 45
0.0
1001
ACAD
1000
AcDbSavedByObjectVersion
1070
     0
  0
VISUALSTYLE
  5
FC
102
{ACAD_REACTORS
330
EF
102
}
330
EF
100
AcDbVisualStyle
  2
Thicken
 70
    13
 71
     2
 72
     2
 73
     1
 90
        0
 40
-0.6
 41
-30.0
 62
     5
 63
     7
421
 16777215
 74
     1
 91
        4
 64
     7
 65
   257
 75
     1
175
     1
 42
1.0
 92
       12
 66
     7
 43
1.0
 76
     1
 77
     6
 78
     2
 67
     7
 79
     5
170
     0
171
     0
290
     0
174
     0
 93
        1
 44
0.0
173
     0
291
     1
 45
0.0
1001
ACAD
1000
AcDbSavedByObjectVersion
1070
     0
  0
DICTIONARYVAR
  5
146
102
{ACAD_REACTORS
330
5E
102
}
330
5E
100
DictionaryVariables
280
     0
  1
1:1
  0
DICTIONARYVAR
  5
145
102
{ACAD_REACTORS
330
5E
102
}
330
5E
100
DictionaryVariables
280
     0
  1
STANDARD
  0
DICTIONARYVAR
  5
84
102
{ACAD_REACTORS
330
5E
102
}
330
5E
100
DictionaryVariables
280
     0
  1
STANDARD
  0
DICTIONARYVAR
  5
5F
102
{ACAD_REACTORS
330
5E
102
}
330
5E
100
DictionaryVariables
280
     0
  1
2
  0
DICTIONARYVAR
  5
63
102
{ACAD_REACTORS
330
5E
102
}
330
5E
100
DictionaryVariables
280
     0
  1
1
  0
DICTIONARYVAR
  5
2D5
102
{ACAD_REACTORS
330
5E
102
}
330
5E
100
DictionaryVariables
280
     0
  1
2
  0
DICTIONARYVAR
  5
2D4
102
{ACAD_REACTORS
330
5E
102
}
330
5E
100
DictionaryVariables
280
     0
  1
1
  0
DICTIONARYVAR
  5
2D7
102
{ACAD_REACTORS
330
5E
102
}
330
5E
100
DictionaryVariables
280
     0
  1
80.000000
  0
DICTIONARYVAR
  5
2D6
102
{ACAD_REACTORS
330
5E
102
}
330
5E
100
DictionaryVariables
280
     0
  1
5.000000
  0
DICTIONARY
  5
2DC
330
ED
100
AcDbDictionary
280
     1
281
     1
  3
ACAD_XREC_ROUNDTRIP
360
2DD
  0
DICTIONARY
  5
2DA
330
EC
100
AcDbDictionary
280
     1
281
     1
  3
ACAD_XREC_ROUNDTRIP
360
2DB
  0
DICTIONARY
  5
173
330
EE
100
AcDbDictionary
280
     1
281
     1
  3
ACAD_XREC_ROUNDTRIP
360
2DE
  3
BUMPTILE
360
175
  3
DIFFUSETILE
360
174
  3
OPACITYTILE
360
176
  3
REFLECTIONTILE
360
177
  0
DICTIONARY
  5
162
330
7F
100
AcDbDictionary
280
     1
281
     1
  3
ACAD_ROUNDTRIP_2008_TABLESTYLE_CELLSTYLEMAP
360
2D8
  3
ACAD_XREC_ROUNDTRIP
360
2D9
  0
XRECORD
  5
2DD
102
{ACAD_REACTORS
330
2DC
102
}
330
2DC
100
AcDbXrecord
280
     1
102
MATERIAL
148
0.0
149
0.0
149
0.0
 93
        0
 94
       63
282
     0
 72
     1
 77
     1
171
     1
175
     1
179
     1
273
     0
  0
XRECORD
  5
2DB
102
{ACAD_REACTORS
330
2DA
102
}
330
2DA
100
AcDbXrecord
280
     1
102
MATERIAL
148
0.0
149
0.0
149
0.0
 93
        0
 94
       63
282
     0
 72
     1
 77
     1
171
     1
175
     1
179
     1
273
     0
  0
XRECORD
  5
2DE
102
{ACAD_REACTORS
330
173
102
}
330
173
100
AcDbXrecord
280
     1
102
MATERIAL
148
0.0
149
0.0
149
0.0
 93
        0
 94
       63
282
     0
 72
     1
 77
     1
171
     1
175
     1
179
     1
273
     0
  0
XRECORD
  5
175
102
{ACAD_REACTORS
330
173
102
}
330
173
100
AcDbXrecord
280
     1
270
     1
271
     1
  0
XRECORD
  5
174
102
{ACAD_REACTORS
330
173
102
}
330
173
100
AcDbXrecord
280
     1
270
     1
271
     1
  0
XRECORD
  5
176
102
{ACAD_REACTORS
330
173
102
}
330
173
100
AcDbXrecord
280
     1
270
     1
271
     1
  0
XRECORD
  5
177
102
{ACAD_REACTORS
330
173
102
}
330
173
100
AcDbXrecord
280
     1
270
     1
271
     1
  0
CELLSTYLEMAP
  5
2D8
102
{ACAD_REACTORS
330
162
102
}
330
162
100
AcDbCellStyleMap
 90
        3
300
CELLSTYLE
  1
TABLEFORMAT_BEGIN
 90
        5
170
     1
 91
        0
 92
    32768
 62
   257
 93
        1
300
CONTENTFORMAT
  1
CONTENTFORMAT_BEGIN
 90
        0
 91
        0
 92
      512
 93
        0
300

 40
0.0
140
1.0
 94
        5
 62
     0
340
11
144
6.0
309
CONTENTFORMAT_END
171
     1
301
MARGIN
  1
CELLMARGIN_BEGIN
 40
1.5
 40
1.5
 40
1.5
 40
1.5
 40
4.5
 40
4.5
309
CELLMARGIN_END
 94
        6
 95
        1
302
GRIDFORMAT
  1
GRIDFORMAT_BEGIN
 90
        0
 91
        1
 62
     0
 92
       -2
340
14
 93
        0
 40
1.125
309
GRIDFORMAT_END
 95
        2
302
GRIDFORMAT
  1
GRIDFORMAT_BEGIN
 90
        0
 91
        1
 62
     0
 92
       -2
340
14
 93
        0
 40
1.125
309
GRIDFORMAT_END
 95
        4
302
GRIDFORMAT
  1
GRIDFORMAT_BEGIN
 90
        0
 91
        1
 62
     0
 92
       -2
340
14
 93
        0
 40
1.125
309
GRIDFORMAT_END
 95
        8
302
GRIDFORMAT
  1
GRIDFORMAT_BEGIN
 90
        0
 91
        1
 62
     0
 92
       -2
340
14
 93
        0
 40
1.125
309
GRIDFORMAT_END
 95
       16
302
GRIDFORMAT
  1
GRIDFORMAT_BEGIN
 90
        0
 91
        1
 62
     0
 92
       -2
340
14
 93
        0
 40
1.125
309
GRIDFORMAT_END
 95
       32
302
GRIDFORMAT
  1
GRIDFORMAT_BEGIN
 90
        0
 91
        1
 62
     0
 92
       -2
340
14
 93
        0
 40
1.125
309
GRIDFORMAT_END
309
TABLEFORMAT_END
  1
CELLSTYLE_BEGIN
 90
        1
 91
        1
300
_TITLE
309
CELLSTYLE_END
300
CELLSTYLE
  1
TABLEFORMAT_BEGIN
 90
        5
170
     1
 91
        0
 92
        0
 62
   257
 93
        1
300
CONTENTFORMAT
  1
CONTENTFORMAT_BEGIN
 90
        0
 91
        0
 92
      512
 93
        0
300

 40
0.0
140
1.0
 94
        5
 62
     0
340
11
144
4.5
309
CONTENTFORMAT_END
171
     1
301
MARGIN
  1
CELLMARGIN_BEGIN
 40
1.5
 40
1.5
 40
1.5
 40
1.5
 40
4.5
 40
4.5
309
CELLMARGIN_END
 94
        6
 95
        1
302
GRIDFORMAT
  1
GRIDFORMAT_BEGIN
 90
        0
 91
        1
 62
     0
 92
       -2
340
14
 93
        0
 40
1.125
309
GRIDFORMAT_END
 95
        2
302
GRIDFORMAT
  1
GRIDFORMAT_BEGIN
 90
        0
 91
        1
 62
     0
 92
       -2
340
14
 93
        0
 40
1.125
309
GRIDFORMAT_END
 95
        4
302
GRIDFORMAT
  1
GRIDFORMAT_BEGIN
 90
        0
 91
        1
 62
     0
 92
       -2
340
14
 93
        0
 40
1.125
309
GRIDFORMAT_END
 95
        8
302
GRIDFORMAT
  1
GRIDFORMAT_BEGIN
 90
        0
 91
        1
 62
     0
 92
       -2
340
14
 93
        0
 40
1.125
309
GRIDFORMAT_END
 95
       16
302
GRIDFORMAT
  1
GRIDFORMAT_BEGIN
 90
        0
 91
        1
 62
     0
 92
       -2
340
14
 93
        0
 40
1.125
309
GRIDFORMAT_END
 95
       32
302
GRIDFORMAT
  1
GRIDFORMAT_BEGIN
 90
        0
 91
        1
 62
     0
 92
       -2
340
14
 93
        0
 40
1.125
309
GRIDFORMAT_END
309
TABLEFORMAT_END
  1
CELLSTYLE_BEGIN
 90
        2
 91
        1
300
_HEADER
309
CELLSTYLE_END
300
CELLSTYLE
  1
TABLEFORMAT_BEGIN
 90
        5
170
     1
 91
        0
 92
        0
 62
   257
 93
        1
300
CONTENTFORMAT
  1
CONTENTFORMAT_BEGIN
 90
        0
 91
        0
 92
      512
 93
        0
300

 40
0.0
140
1.0
 94
        2
 62
     0
340
11
144
4.5
309
CONTENTFORMAT_END
171
     1
301
MARGIN
  1
CELLMARGIN_BEGIN
 40
1.5
 40
1.5
 40
1.5
 40
1.5
 40
4.5
 40
4.5
309
CELLMARGIN_END
 94
        6
 95
        1
302
GRIDFORMAT
  1
GRIDFORMAT_BEGIN
 90
        0
 91
        1
 62
     0
 92
       -2
340
14
 93
        0
 40
1.125
309
GRIDFORMAT_END
 95
        2
302
GRIDFORMAT
  1
GRIDFORMAT_BEGIN
 90
        0
 91
        1
 62
     0
 92
       -2
340
14
 93
        0
 40
1.125
309
GRIDFORMAT_END
 95
        4
302
GRIDFORMAT
  1
GRIDFORMAT_BEGIN
 90
        0
 91
        1
 62
     0
 92
       -2
340
14
 93
        0
 40
1.125
309
GRIDFORMAT_END
 95
        8
302
GRIDFORMAT
  1
GRIDFORMAT_BEGIN
 90
        0
 91
        1
 62
     0
 92
       -2
340
14
 93
        0
 40
1.125
309
GRIDFORMAT_END
 95
       16
302
GRIDFORMAT
  1
GRIDFORMAT_BEGIN
 90
        0
 91
        1
 62
     0
 92
       -2
340
14
 93
        0
 40
1.125
309
GRIDFORMAT_END
 95
       32
302
GRIDFORMAT
  1
GRIDFORMAT_BEGIN
 90
        0
 91
        1
 62
     0
 92
       -2
340
14
 93
        0
 40
1.125
309
GRIDFORMAT_END
309
TABLEFORMAT_END
  1
CELLSTYLE_BEGIN
 90
        3
 91
        2
300
_DATA
309
CELLSTYLE_END
  0
XRECORD
  5
2D9
102
{ACAD_REACTORS
330
162
102
}
330
162
100
AcDbXrecord
280
     1
102
ACAD_ROUNDTRIP_PRE2007_TABLESTYLE
 90
      512
 91
        0
  1

 92
      512
 93
        0
  2

 94
      512
 95
        0
  3

  0
ENDSEC
  0
EOF
