  0
SECTION
  2
HEADER
  9
$ACADVER
  1
AC1018
  9
$ACADMAINTVER
 70
   104
  9
$DWGCODEPAGE
  3
ANSI_1252
  9
$LASTSAVEDBY
  1
OdrAdeK
  9
$INSBASE
 10
0.0
 20
0.0
 30
0.0
  9
$EXTMIN
 10
-27.73040676923745
 20
-26.86033564347349
 30
-0.0015258207003583
  9
$EXTMAX
 10
50.74401910270569
 20
119.6093907437862
 30
0.0000000349246037
  9
$LIMMIN
 10
0.0
 20
0.0
  9
$LIMMAX
 10
420.0
 20
297.0
  9
$ORTHOMODE
 70
     1
  9
$REGENMODE
 70
     1
  9
$FILLMODE
 70
     1
  9
$QTEXTMODE
 70
     0
  9
$MIRRTEXT
 70
     0
  9
$LTSCALE
 40
1.0
  9
$ATTMODE
 70
     1
  9
$TEXTSIZE
 40
2.5
  9
$TRACEWID
 40
1.0
  9
$TEXTSTYLE
  7
Standard
  9
$CLAYER
  8
0
  9
$CELTYPE
  6
ByLayer
  9
$CECOLOR
 62
     1
  9
$CELTSCALE
 40
1.0
  9
$DISPSILH
 70
     0
  9
$DIMSCALE
 40
1.0
  9
$DIMASZ
 40
2.5
  9
$DIMEXO
 40
0.625
  9
$DIMDLI
 40
3.75
  9
$DIMRND
 40
0.0
  9
$DIMDLE
 40
0.0
  9
$DIMEXE
 40
1.25
  9
$DIMTP
 40
0.0
  9
$DIMTM
 40
0.0
  9
$DIMTXT
 40
2.5
  9
$DIMCEN
 40
2.5
  9
$DIMTSZ
 40
0.0
  9
$DIMTOL
 70
     0
  9
$DIMLIM
 70
     0
  9
$DIMTIH
 70
     0
  9
$DIMTOH
 70
     0
  9
$DIMSE1
 70
     0
  9
$DIMSE2
 70
     0
  9
$DIMTAD
 70
     1
  9
$DIMZIN
 70
     8
  9
$DIMBLK
  1

  9
$DIMASO
 70
     1
  9
$DIMSHO
 70
     1
  9
$DIMPOST
  1

  9
$DIMAPOST
  1

  9
$DIMALT
 70
     0
  9
$DIMALTD
 70
     3
  9
$DIMALTF
 40
0.03937007874016
  9
$DIMLFAC
 40
1.0
  9
$DIMTOFL
 70
     1
  9
$DIMTVP
 40
0.0
  9
$DIMTIX
 70
     0
  9
$DIMSOXD
 70
     0
  9
$DIMSAH
 70
     0
  9
$DIMBLK1
  1

  9
$DIMBLK2
  1

  9
$DIMSTYLE
  2
ISO-25
  9
$DIMCLRD
 70
     0
  9
$DIMCLRE
 70
     0
  9
$DIMCLRT
 70
     0
  9
$DIMTFAC
 40
1.0
  9
$DIMGAP
 40
0.625
  9
$DIMJUST
 70
     0
  9
$DIMSD1
 70
     0
  9
$DIMSD2
 70
     0
  9
$DIMTOLJ
 70
     0
  9
$DIMTZIN
 70
     8
  9
$DIMALTZ
 70
     0
  9
$DIMALTTZ
 70
     0
  9
$DIMUPT
 70
     0
  9
$DIMDEC
 70
     2
  9
$DIMTDEC
 70
     2
  9
$DIMALTU
 70
     2
  9
$DIMALTTD
 70
     3
  9
$DIMTXSTY
  7
Standard
  9
$DIMAUNIT
 70
     0
  9
$DIMADEC
 70
     0
  9
$DIMALTRND
 40
0.0
  9
$DIMAZIN
 70
     0
  9
$DIMDSEP
 70
    44
  9
$DIMATFIT
 70
     3
  9
$DIMFRAC
 70
     0
  9
$DIMLDRBLK
  1

  9
$DIMLUNIT
 70
     2
  9
$DIMLWD
 70
    -2
  9
$DIMLWE
 70
    -2
  9
$DIMTMOVE
 70
     0
  9
$LUNITS
 70
     2
  9
$LUPREC
 70
     4
  9
$SKETCHINC
 40
1.0
  9
$FILLETRAD
 40
0.0
  9
$AUNITS
 70
     0
  9
$AUPREC
 70
     0
  9
$MENU
  1
.
  9
$ELEVATION
 40
0.0
  9
$PELEVATION
 40
0.0
  9
$THICKNESS
 40
0.0
  9
$LIMCHECK
 70
     0
  9
$CHAMFERA
 40
0.0
  9
$CHAMFERB
 40
0.0
  9
$CHAMFERC
 40
0.0
  9
$CHAMFERD
 40
0.0
  9
$SKPOLY
 70
     0
  9
$TDCREATE
 40
2457179.994397419
  9
$TDUCREATE
 40
2457179.911064085
  9
$TDUPDATE
 40
2457180.003546366
  9
$TDUUPDATE
 40
2457179.920213033
  9
$TDINDWG
 40
0.0091505787
  9
$TDUSRTIMER
 40
0.0091503935
  9
$USRTIMER
 70
     1
  9
$ANGBASE
 50
0.0
  9
$ANGDIR
 70
     0
  9
$PDMODE
 70
     0
  9
$PDSIZE
 40
0.0
  9
$PLINEWID
 40
0.0
  9
$SPLFRAME
 70
     0
  9
$SPLINETYPE
 70
     6
  9
$SPLINESEGS
 70
     8
  9
$HANDSEED
  5
317
  9
$SURFTAB1
 70
     6
  9
$SURFTAB2
 70
     6
  9
$SURFTYPE
 70
     6
  9
$SURFU
 70
     6
  9
$SURFV
 70
     6
  9
$UCSBASE
  2

  9
$UCSNAME
  2

  9
$UCSORG
 10
0.0
 20
0.0
 30
0.0
  9
$UCSXDIR
 10
1.0
 20
0.0
 30
0.0
  9
$UCSYDIR
 10
0.0
 20
1.0
 30
0.0
  9
$UCSORTHOREF
  2

  9
$UCSORTHOVIEW
 70
     1
  9
$UCSORGTOP
 10
0.0
 20
0.0
 30
0.0
  9
$UCSORGBOTTOM
 10
0.0
 20
0.0
 30
0.0
  9
$UCSORGLEFT
 10
0.0
 20
0.0
 30
0.0
  9
$UCSORGRIGHT
 10
0.0
 20
0.0
 30
0.0
  9
$UCSORGFRONT
 10
0.0
 20
0.0
 30
0.0
  9
$UCSORGBACK
 10
0.0
 20
0.0
 30
0.0
  9
$PUCSBASE
  2

  9
$PUCSNAME
  2

  9
$PUCSORG
 10
0.0
 20
0.0
 30
0.0
  9
$PUCSXDIR
 10
1.0
 20
0.0
 30
0.0
  9
$PUCSYDIR
 10
0.0
 20
1.0
 30
0.0
  9
$PUCSORTHOREF
  2

  9
$PUCSORTHOVIEW
 70
     0
  9
$PUCSORGTOP
 10
0.0
 20
0.0
 30
0.0
  9
$PUCSORGBOTTOM
 10
0.0
 20
0.0
 30
0.0
  9
$PUCSORGLEFT
 10
0.0
 20
0.0
 30
0.0
  9
$PUCSORGRIGHT
 10
0.0
 20
0.0
 30
0.0
  9
$PUCSORGFRONT
 10
0.0
 20
0.0
 30
0.0
  9
$PUCSORGBACK
 10
0.0
 20
0.0
 30
0.0
  9
$USERI1
 70
     0
  9
$USERI2
 70
     0
  9
$USERI3
 70
     0
  9
$USERI4
 70
     0
  9
$USERI5
 70
     0
  9
$USERR1
 40
0.0
  9
$USERR2
 40
0.0
  9
$USERR3
 40
0.0
  9
$USERR4
 40
0.0
  9
$USERR5
 40
0.0
  9
$WORLDVIEW
 70
     1
  9
$SHADEDGE
 70
     3
  9
$SHADEDIF
 70
    70
  9
$TILEMODE
 70
     1
  9
$MAXACTVP
 70
    64
  9
$PINSBASE
 10
0.0
 20
0.0
 30
0.0
  9
$PLIMCHECK
 70
     0
  9
$PEXTMIN
 10
0.0
 20
0.0
 30
0.0
  9
$PEXTMAX
 10
0.0
 20
0.0
 30
0.0
  9
$PLIMMIN
 10
0.0
 20
0.0
  9
$PLIMMAX
 10
12.0
 20
9.0
  9
$UNITMODE
 70
     0
  9
$VISRETAIN
 70
     1
  9
$PLINEGEN
 70
     0
  9
$PSLTSCALE
 70
     1
  9
$TREEDEPTH
 70
  3020
  9
$CMLSTYLE
  2
Standard
  9
$CMLJUST
 70
     0
  9
$CMLSCALE
 40
20.0
  9
$PROXYGRAPHICS
 70
     1
  9
$MEASUREMENT
 70
     1
  9
$CELWEIGHT
370
    -1
  9
$ENDCAPS
280
     0
  9
$JOINSTYLE
280
     0
  9
$LWDISPLAY
290
     0
  9
$INSUNITS
 70
     4
  9
$HYPERLINKBASE
  1

  9
$STYLESHEET
  1

  9
$XEDIT
290
     1
  9
$CEPSNTYPE
380
     0
  9
$PSTYLEMODE
290
     1
  9
$FINGERPRINTGUID
  2
{E17D9503-3A84-46D5-A3EE-C6A01D8545D7}
  9
$VERSIONGUID
  2
{FB852656-27FD-4103-9B1C-D4B21105643D}
  9
$EXTNAMES
290
     1
  9
$PSVPSCALE
 40
0.0
  9
$OLESTARTUP
290
     0
  9
$SORTENTS
280
   127
  9
$INDEXCTL
280
     0
  9
$HIDETEXT
280
     1
  9
$XCLIPFRAME
290
     0
  9
$HALOGAP
280
     0
  9
$OBSCOLOR
 70
   257
  9
$OBSLTYPE
280
     0
  9
$INTERSECTIONDISPLAY
280
     0
  9
$INTERSECTIONCOLOR
 70
   257
  9
$DIMASSOC
280
     2
  9
$PROJECTNAME
  1

  0
ENDSEC
  0
SECTION
  2
CLASSES
  0
CLASS
  1
ACDBDICTIONARYWDFLT
  2
AcDbDictionaryWithDefault
  3
ObjectDBX Classes
 90
        0
 91
        1
280
     0
281
     0
  0
CLASS
  1
DICTIONARYVAR
  2
AcDbDictionaryVar
  3
ObjectDBX Classes
 90
        0
 91
        9
280
     0
281
     0
  0
CLASS
  1
TABLESTYLE
  2
AcDbTableStyle
  3
ObjectDBX Classes
 90
     4095
 91
        1
280
     0
281
     0
  0
CLASS
  1
MATERIAL
  2
AcDbMaterial
  3
ObjectDBX Classes
 90
     1153
 91
        3
280
     0
281
     0
  0
CLASS
  1
VISUALSTYLE
  2
AcDbVisualStyle
  3
ObjectDBX Classes
 90
     4095
 91
       16
280
     0
281
     0
  0
CLASS
  1
SCALE
  2
AcDbScale
  3
ObjectDBX Classes
 90
     1153
 91
       33
280
     0
281
     0
  0
CLASS
  1
MLEADERSTYLE
  2
AcDbMLeaderStyle
  3
ACDB_MLEADERSTYLE_CLASS
 90
     4095
 91
        2
280
     0
281
     0
  0
CLASS
  1
CELLSTYLEMAP
  2
AcDbCellStyleMap
  3
ObjectDBX Classes
 90
     1152
 91
        7
280
     0
281
     0
  0
CLASS
  1
EXACXREFPANELOBJECT
  2
ExAcXREFPanelObject
  3
EXAC_ESW
 90
     1025
 91
        1
280
     0
281
     0
  0
CLASS
  1
NPOCOLLECTION
  2
AcDbImpNonPersistentObjectsCollection
  3
ObjectDBX Classes
 90
     1153
 91
        1
280
     0
281
     0
  0
CLASS
  1
SORTENTSTABLE
  2
AcDbSortentsTable
  3
ObjectDBX Classes
 90
        0
 91
        2
280
     0
281
     0
  0
ENDSEC
  0
SECTION
  2
TABLES
  0
TABLE
  2
VPORT
  5
8
330
0
100
AcDbSymbolTable
 70
     1
  0
VPORT
  5
EA
330
8
100
AcDbSymbolTableRecord
100
AcDbViewportTableRecord
  2
*Active
 70
     0
 10
0.0
 20
0.0
 11
1.0
 21
1.0
 12
135.9060809320871
 22
93.13046402863889
 13
0.0
 23
0.0
 14
10.0
 24
10.0
 15
10.0
 25
10.0
 16
0.0
 26
0.0
 36
1.0
 17
0.0
 27
0.0
 37
0.0
 40
325.7497919836806
 41
1.803484995159728
 42
50.0
 43
0.0
 44
0.0
 50
0.0
 51
0.0
 71
     0
 72
  1000
 73
     1
 74
     3
 75
     0
 76
     0
 77
     0
 78
     0
281
     0
 65
     1
110
0.0
120
0.0
130
0.0
111
1.0
121
0.0
131
0.0
112
0.0
122
1.0
132
0.0
 79
     0
146
0.0
  0
ENDTAB
  0
TABLE
  2
LTYPE
  5
5
330
0
100
AcDbSymbolTable
 70
     2
  0
LTYPE
  5
14
330
5
100
AcDbSymbolTableRecord
100
AcDbLinetypeTableRecord
  2
ByBlock
 70
     0
  3

 72
    65
 73
     0
 40
0.0
  0
LTYPE
  5
15
330
5
100
AcDbSymbolTableRecord
100
AcDbLinetypeTableRecord
  2
ByLayer
 70
     0
  3

 72
    65
 73
     0
 40
0.0
  0
LTYPE
  5
16
330
5
100
AcDbSymbolTableRecord
100
AcDbLinetypeTableRecord
  2
Continuous
 70
     0
  3
Solid line
 72
    65
 73
     0
 40
0.0
  0
ENDTAB
  0
TABLE
  2
LAYER
  5
2
102
{ACAD_XDICTIONARY
360
23E
102
}
330
0
100
AcDbSymbolTable
 70
     1
  0
LAYER
  5
10
102
{ACAD_XDICTIONARY
360
13C
102
}
330
2
100
AcDbSymbolTableRecord
100
AcDbLayerTableRecord
  2
0
 70
     0
 62
     7
  6
Continuous
370
    -3
390
F
  0
ENDTAB
  0
TABLE
  2
STYLE
  5
3
330
0
100
AcDbSymbolTable
 70
     2
  0
STYLE
  5
11
330
3
100
AcDbSymbolTableRecord
100
AcDbTextStyleTableRecord
  2
Standard
 70
     0
 40
0.0
 41
1.0
 50
0.0
 71
     0
 42
2.5
  3
txt.shx
  4

  0
STYLE
  5
132
330
3
100
AcDbSymbolTableRecord
100
AcDbTextStyleTableRecord
  2
Anotativo
 70
     0
 40
0.0
 41
1.0
 50
0.0
 71
     0
 42
2.5
  3
txt.shx
  4

1001
AcadAnnotative
1000
AnnotativeData
1002
{
1070
     1
1070
     1
1002
}
  0
ENDTAB
  0
TABLE
  2
VIEW
  5
6
330
0
100
AcDbSymbolTable
 70
     2
  0
ENDTAB
  0
TABLE
  2
UCS
  5
7
330
0
100
AcDbSymbolTable
 70
     0
  0
ENDTAB
  0
TABLE
  2
APPID
  5
9
330
0
100
AcDbSymbolTable
 70
     8
  0
APPID
  5
12
330
9
100
AcDbSymbolTableRecord
100
AcDbRegAppTableRecord
  2
ACAD
 70
     0
  0
APPID
  5
9E
330
9
100
AcDbSymbolTableRecord
100
AcDbRegAppTableRecord
  2
ACAD_PSEXT
 70
     0
  0
APPID
  5
133
330
9
100
AcDbSymbolTableRecord
100
AcDbRegAppTableRecord
  2
AcadAnnoPO
 70
     0
  0
APPID
  5
134
330
9
100
AcDbSymbolTableRecord
100
AcDbRegAppTableRecord
  2
AcadAnnotative
 70
     0
  0
APPID
  5
135
330
9
100
AcDbSymbolTableRecord
100
AcDbRegAppTableRecord
  2
ACAD_DSTYLE_DIMJAG
 70
     0
  0
APPID
  5
136
330
9
100
AcDbSymbolTableRecord
100
AcDbRegAppTableRecord
  2
ACAD_DSTYLE_DIMTALN
 70
     0
  0
APPID
  5
165
330
9
100
AcDbSymbolTableRecord
100
AcDbRegAppTableRecord
  2
ACAD_MLEADERVER
 70
     0
  0
APPID
  5
2EF
330
9
100
AcDbSymbolTableRecord
100
AcDbRegAppTableRecord
  2
ACAD_EXEMPT_FROM_CAD_STANDARDS
 70
     0
  0
ENDTAB
  0
TABLE
  2
DIMSTYLE
  5
A
330
0
100
AcDbSymbolTable
 70
     3
100
AcDbDimStyleTable
 71
     2
340
27
340
137
  0
DIMSTYLE
105
27
330
A
100
AcDbSymbolTableRecord
100
AcDbDimStyleTableRecord
  2
ISO-25
 70
     0
 41
2.5
 42
0.625
 43
3.75
 44
1.25
 73
     0
 74
     0
 77
     1
 78
     8
140
2.5
141
2.5
143
0.03937007874016
147
0.625
171
     3
172
     1
271
     2
272
     2
274
     3
278
    44
283
     0
284
     8
340
11
  0
DIMSTYLE
105
137
330
A
100
AcDbSymbolTableRecord
100
AcDbDimStyleTableRecord
  2
Anotativo
 70
     0
 40
0.0
 41
2.5
 42
0.625
 43
3.75
 44
1.25
 73
     0
 74
     0
 77
     1
 78
     8
140
2.5
141
2.5
143
0.03937007874016
147
0.625
171
     3
172
     1
271
     2
272
     2
274
     3
278
    44
283
     0
284
     8
340
11
1001
AcadAnnotative
1000
AnnotativeData
1002
{
1070
     1
1070
     1
1002
}
1001
ACAD_DSTYLE_DIMJAG
1070
   388
1040
1.5
1001
ACAD_DSTYLE_DIMTALN
1070
   392
1070
     0
  0
ENDTAB
  0
TABLE
  2
BLOCK_RECORD
  5
1
330
0
100
AcDbSymbolTable
 70
     4
  0
BLOCK_RECORD
  5
1F
102
{ACAD_XDICTIONARY
360
2D9
102
}
330
1
100
AcDbSymbolTableRecord
100
AcDbBlockTableRecord
  2
*Model_Space
340
22
  0
BLOCK_RECORD
  5
D2
330
1
100
AcDbSymbolTableRecord
100
AcDbBlockTableRecord
  2
*Paper_Space
340
D3
  0
BLOCK_RECORD
  5
D6
330
1
100
AcDbSymbolTableRecord
100
AcDbBlockTableRecord
  2
*Paper_Space0
340
D7
  0
BLOCK_RECORD
  5
1B2
330
1
100
AcDbSymbolTableRecord
100
AcDbBlockTableRecord
  2
A$C684E0D0A
340
0
102
{BLKREFS
331
241
331
247
102
}
1001
ACAD
1000
DesignCenter Data
1002
{
1070
     1
1070
     4
1002
}
  0
BLOCK_RECORD
  5
240
102
{ACAD_XDICTIONARY
360
242
102
}
330
1
100
AcDbSymbolTableRecord
100
AcDbBlockTableRecord
  2
A$C24495478
340
0
1001
ACAD
1000
DesignCenter Data
1002
{
1070
     1
1070
     4
1002
}
  0
ENDTAB
  0
ENDSEC
  0
SECTION
  2
BLOCKS
  0
BLOCK
  5
20
330
1F
100
AcDbEntity
  8
0
100
AcDbBlockBegin
  2
*Model_Space
 70
     0
 10
0.0
 20
0.0
 30
0.0
  3
*Model_Space
  1

  0
ENDBLK
  5
21
330
1F
100
AcDbEntity
  8
0
100
AcDbBlockEnd
  0
BLOCK
  5
D4
330
D2
100
AcDbEntity
 67
     1
  8
0
100
AcDbBlockBegin
  2
*Paper_Space
 70
     0
 10
0.0
 20
0.0
 30
0.0
  3
*Paper_Space
  1

  0
ENDBLK
  5
D5
330
D2
100
AcDbEntity
 67
     1
  8
0
100
AcDbBlockEnd
  0
BLOCK
  5
D8
330
D6
100
AcDbEntity
 67
     1
  8
0
100
AcDbBlockBegin
  2
*Paper_Space0
 70
     0
 10
0.0
 20
0.0
 30
0.0
  3
*Paper_Space0
  1

  0
ENDBLK
  5
D9
330
D6
100
AcDbEntity
 67
     1
  8
0
100
AcDbBlockEnd
  0
BLOCK
  5
1B3
330
1B2
100
AcDbEntity
  8
0
 62
   177
100
AcDbBlockBegin
  2
A$C684E0D0A
 70
     0
 10
0.0
 20
0.0
 30
0.0
  3
A$C684E0D0A
  1

  0
ARC
  5
1B4
330
1B2
100
AcDbEntity
  8
0
  6
Continuous
 62
     5
370
     0
100
AcDbCircle
 10
-96.74827823607643
 20
-132.3253484585085
 30
0.0
 40
9.628102619222397
100
AcDbArc
 50
231.1087862052271
 51
251.8450509291143
  0
ARC
  5
1B5
330
1B2
100
AcDbEntity
  8
0
  6
Continuous
 62
     5
370
     0
100
AcDbCircle
 10
-102.6048687738104
 20
-139.5857785937049
 30
0.0
 40
0.3
100
AcDbArc
 50
133.0044378423835
 51
231.1087862052265
  0
ARC
  5
1B6
330
1B2
100
AcDbEntity
  8
0
  6
Continuous
 62
     5
370
     0
100
AcDbCircle
 10
-109.3763808552988
 20
-132.3253484585084
 30
0.0
 40
9.628102619222397
100
AcDbArc
 50
313.0044378423836
 51
0.0
  0
LINE
  5
1B7
330
1B2
100
AcDbEntity
  8
0
  6
Continuous
 62
     5
370
     0
100
AcDbLine
 10
-98.24827823607641
 20
-143.3741385449777
 30
0.0
 11
-99.7482782360764
 21
-143.3741385449777
 31
0.0
  0
LINE
  5
1B8
330
1B2
100
AcDbEntity
  8
0
  6
Continuous
 62
     5
370
     0
100
AcDbLine
 10
-99.7482782360764
 20
-127.4741385449777
 30
0.0
 11
-99.7482782360764
 21
-143.3741385449777
 31
0.0
  0
LINE
  5
1B9
330
1B2
100
AcDbEntity
  8
0
  6
Continuous
 62
     5
370
     0
100
AcDbLine
 10
-98.24827823607641
 20
-127.4741385449777
 30
0.0
 11
-99.7482782360764
 21
-127.4741385449777
 31
0.0
  0
SPLINE
  5
1BA
330
1B2
100
AcDbEntity
  8
0
  6
Continuous
 62
     5
370
     0
100
AcDbSpline
210
0.0
220
0.0
230
1.0
 70
     8
 71
     3
 72
    11
 73
     7
 74
     0
 42
0.0000000001
 43
0.0000000001
 40
0.0
 40
0.0
 40
0.0
 40
0.0
 40
0.07692307692308
 40
0.1538461538462
 40
0.2307692307692
 40
0.2328709017367021
 40
0.2328709017367021
 40
0.2328709017367021
 40
0.2328709017367021
 10
-48.09686772375677
 20
-132.3793704487175
 30
0.0
 10
-48.12360647843011
 20
-132.3594398404883
 30
0.0
 10
-48.18319266761825
 20
-132.3297862539638
 30
0.0
 10
-48.29615759082259
 20
-132.3150587353767
 30
0.0
 10
-48.37804104911509
 20
-132.3272844451995
 30
0.0
 10
-48.42106131399095
 20
-132.3393087596026
 30
0.0
 10
-48.42220646832906
 20
-132.3396326607048
 30
0.0
  0
LINE
  5
1BB
330
1B2
100
AcDbEntity
  8
0
  6
Continuous
 62
     5
370
     0
100
AcDbLine
 10
-90.52963672350868
 20
-156.5491385449778
 30
0.0
 11
-96.14827823607626
 21
-156.5491385449778
 31
0.0
  0
LINE
  5
1BC
330
1B2
100
AcDbEntity
  8
0
  6
Continuous
 62
     5
370
     0
100
AcDbLine
 10
-82.17963672350876
 20
-156.5491385449778
 30
0.0
 11
-81.82963672350867
 21
-156.5491385449778
 31
0.0
  0
LINE
  5
1BD
330
1B2
100
AcDbEntity
  8
0
  6
Continuous
 62
     5
370
     0
100
AcDbLine
 10
-90.52963672350863
 20
-156.5491385449778
 30
0.0
 11
-90.17963672350854
 21
-156.5491385449778
 31
0.0
  0
LINE
  5
1BE
330
1B2
100
AcDbEntity
  8
0
  6
Continuous
 62
     5
370
     0
100
AcDbLine
 10
-90.52963672350868
 20
-158.6491385449777
 30
0.0
 11
-90.52963672350868
 21
-156.5491385449778
 31
0.0
  0
LINE
  5
1BF
330
1B2
100
AcDbEntity
  8
0
  6
Continuous
 62
     5
370
     0
100
AcDbLine
 10
-81.82963672350863
 20
-156.5491385449778
 30
0.0
 11
-81.82963672350863
 21
-158.6491385449777
 31
0.0
  0
LINE
  5
1C0
330
1B2
100
AcDbEntity
  8
0
  6
Continuous
 62
     5
370
     0
100
AcDbLine
 10
-72.76248339486908
 20
-156.5491385449778
 30
0.0
 11
-81.82963672350874
 21
-156.5491385449778
 31
0.0
  0
LINE
  5
1C1
330
1B2
100
AcDbEntity
  8
0
  6
Continuous
 62
     5
370
     0
100
AcDbLine
 10
-33.44333445960425
 20
-156.5491385449778
 30
0.0
 11
-47.7711246016972
 21
-156.5491385449778
 31
0.0
  0
SPLINE
  5
1C2
330
1B2
100
AcDbEntity
  8
0
  6
Continuous
 62
     5
370
     0
100
AcDbSpline
210
0.0
220
0.0
230
1.0
 70
     8
 71
     3
 72
     8
 73
     4
 74
     0
 42
0.0000000001
 43
0.0000000001
 40
1.685959374471102
 40
1.685959374471102
 40
1.685959374471102
 40
1.685959374471102
 40
2.133260361460209
 40
2.133260361460209
 40
2.133260361460209
 40
2.133260361460209
 10
-33.42331960860972
 20
-156.9740971724443
 30
0.0
 10
-33.42992962484934
 20
-156.8323715117017
 30
0.0
 10
-33.4365953397257
 20
-156.6908520434953
 30
0.0
 10
-33.44333445960407
 20
-156.5491385449778
 30
0.0
  0
SPLINE
  5
1C3
330
1B2
100
AcDbEntity
  8
0
  6
Continuous
 62
     5
370
     0
100
AcDbSpline
210
0.0
220
0.0
230
1.0
 70
     8
 71
     3
 72
    14
 73
    10
 74
     0
 42
0.0000000001
 43
0.0000000001
 40
-11.73697729644412
 40
-11.73697729644412
 40
-11.73697729644412
 40
-11.73697729644412
 40
-7.522669450840871
 40
-7.522669450840871
 40
-3.814517621344339
 40
-3.814517621344339
 40
-1.467122162055514
 40
-1.467122162055514
 40
0.0
 40
0.0
 40
0.0
 40
0.0
 10
-33.84827823607631
 20
-148.3453830652577
 30
0.0
 10
-33.84827823607631
 20
-146.8913955613871
 30
0.0
 10
-33.57053585326432
 20
-145.4360122433015
 30
0.0
 10
-32.69528423186895
 20
-143.0555532472505
 30
0.0
 10
-32.18271892934669
 20
-142.1625569521072
 30
0.0
 10
-31.40991809414979
 20
-141.0418782438877
 30
0.0
 10
-31.12806334543549
 20
-140.6896100763324
 30
0.0
 10
-30.67206679225498
 20
-140.1693944224503
 30
0.0
 10
-30.49615972351964
 20
-139.9812804479867
 30
0.0
 10
-30.30427028843425
 20
-139.7893910129013
 30
0.0
  0
SPLINE
  5
1C4
330
1B2
100
AcDbEntity
  8
0
  6
Continuous
 62
     5
370
     0
100
AcDbSpline
210
0.0
220
0.0
230
1.0
 70
    24
 71
     3
 72
    14
 73
    10
 74
     0
 42
0.0000000001
 43
0.0000000001
 40
0.000000000000684
 40
0.000000000000684
 40
0.000000000000684
 40
0.000000000000684
 40
0.736051511432894
 40
0.736051511432894
 40
1.913733929724429
 40
1.913733929724429
 40
3.798025798990887
 40
3.798025798990887
 40
5.888412091458363
 40
5.888412091458363
 40
5.888412091458363
 40
5.888412091458363
 10
-26.99967799229032
 20
-136.4847987167575
 30
0.0
 10
-27.17166099374433
 20
-136.6567817182115
 30
0.0
 10
-27.34449318286053
 20
-136.8296139073275
 30
0.0
 10
-27.79002871725217
 20
-137.2751494417191
 30
0.0
 10
-28.06043482931816
 20
-137.5455555537853
 30
0.0
 10
-28.72793404765932
 20
-138.2130547721265
 30
0.0
 10
-29.10319095384736
 20
-138.5883116783144
 30
0.0
 10
-29.76705850397522
 20
-139.2521792284423
 30
0.0
 10
-30.04216006865155
 20
-139.5272807931184
 30
0.0
 10
-30.30427028843334
 20
-139.7893910129004
 30
0.0
  0
SPLINE
  5
1C5
330
1B2
100
AcDbEntity
  8
0
  6
Continuous
 62
     5
370
     0
100
AcDbSpline
210
0.0
220
0.0
230
1.0
 70
     8
 71
     3
 72
    14
 73
    10
 74
     0
 42
0.0000000001
 43
0.0000000001
 40
0.000000000000193
 40
0.000000000000193
 40
0.000000000000193
 40
0.000000000000193
 40
0.196407097915323
 40
0.196407097915323
 40
0.5106584545795312
 40
0.5106584545795312
 40
1.013460625242264
 40
1.013460625242264
 40
1.571256783321233
 40
1.571256783321233
 40
1.571256783321233
 40
1.571256783321233
 10
-26.56033816407009
 20
-135.4241385449779
 30
0.0
 10
-26.56033816407009
 20
-135.4732403194567
 30
0.0
 10
-26.56275547754078
 20
-135.5224636933685
 30
0.0
 10
-26.57531993801806
 20
-135.6497942939801
 30
0.0
 10
-26.58917684786454
 20
-135.7272690419985
 30
0.0
 10
-26.640964927162
 20
-135.9253980871813
 30
0.0
 10
-26.68838059610787
 20
-136.0433578553929
 30
0.0
 10
-26.81678674886413
 20
-136.2743751127082
 30
0.0
 10
-26.90192859298619
 20
-136.3870493174535
 30
0.0
 10
-26.99967799229032
 20
-136.4847987167576
 30
0.0
  0
SPLINE
  5
1C6
330
1B2
100
AcDbEntity
  8
0
  6
Continuous
 62
     5
370
     0
100
AcDbSpline
210
0.0
220
0.0
230
1.0
 70
     8
 71
     3
 72
    14
 73
    10
 74
     0
 42
0.0000000001
 43
0.0000000001
 40
-1.56991141352924
 40
-1.56991141352924
 40
-1.56991141352924
 40
-1.56991141352924
 40
-1.012592861726359
 40
-1.012592861726359
 40
-0.5102212093970032
 40
-0.5102212093970032
 40
-0.196238926691155
 40
-0.196238926691155
 40
0.0
 40
0.0
 40
0.0
 40
0.0
 10
-26.56033816407009
 20
-135.424138544978
 30
0.0
 10
-26.56033816407009
 20
-135.2848089070273
 30
0.0
 10
-26.57989598477363
 20
-135.1452619222892
 30
0.0
 10
-26.65297633872498
 20
-134.8901330151234
 30
0.0
 10
-26.70260134848147
 20
-134.7741890659346
 30
0.0
 10
-26.80618466075336
 20
-134.5975167960579
 30
0.0
 10
-26.85145730878591
 20
-134.5326429416867
 30
0.0
 10
-26.93239568019291
 20
-134.4341128073061
 30
0.0
 10
-26.96528866040555
 20
-134.3978677050829
 30
0.0
 10
-26.99967799229009
 20
-134.3634783731983
 30
0.0
  0
SPLINE
  5
1C7
330
1B2
100
AcDbEntity
  8
0
  6
Continuous
 62
     5
370
     0
100
AcDbSpline
210
0.0
220
0.0
230
1.0
 70
    24
 71
     3
 72
    14
 73
    10
 74
     0
 42
0.0000000001
 43
0.0000000001
 40
-5.885946987115939
 40
-5.885946987115939
 40
-5.885946987115939
 40
-5.885946987115939
 40
-3.796435806690579
 40
-3.796435806690579
 40
-1.912932770814196
 40
-1.912932770814196
 40
-0.7357433733914575
 40
-0.7357433733914575
 40
-0.0000000000022457
 40
-0.0000000000022457
 40
-0.0000000000022457
 40
-0.0000000000022457
 10
-26.99967799229054
 20
-134.363478373198
 30
0.0
 10
-27.48790524106264
 20
-133.8752511244258
 30
0.0
 10
-27.974217967459
 20
-133.3889383980295
 30
0.0
 10
-28.82977097777459
 20
-132.5333853877139
 30
0.0
 10
-29.19195414313433
 20
-132.1712022223543
 30
0.0
 10
-29.68895811044374
 20
-131.674198255045
 30
0.0
 10
-29.85980425153022
 20
-131.5033521139584
 30
0.0
 10
-30.11738078373989
 20
-131.2457755817487
 30
0.0
 10
-30.2120165944643
 20
-131.1511397710242
 30
0.0
 10
-30.30427028843334
 20
-131.0588860770552
 30
0.0
  0
SPLINE
  5
1C8
330
1B2
100
AcDbEntity
  8
0
  6
Continuous
 62
     5
370
     0
100
AcDbSpline
210
0.0
220
0.0
230
1.0
 70
     8
 71
     3
 72
    16
 73
    12
 74
     0
 42
0.0000000001
 43
0.0000000001
 40
0.0
 40
0.0
 40
0.0
 40
0.0
 40
1.468421687879176
 40
1.468421687879176
 40
3.81789638848586
 40
3.81789638848586
 40
7.220908758303447
 40
7.220908758303447
 40
11.26594108279603
 40
11.26594108279603
 40
11.74737350303341
 40
11.74737350303341
 40
11.74737350303341
 40
11.74737350303341
 10
-33.84827823607631
 20
-122.502894024698
 30
0.0
 10
-33.84827823607631
 20
-123.0095173808479
 30
0.0
 10
-33.81639861661117
 20
-123.5144488896983
 30
0.0
 10
-33.65322814783801
 20
-124.8114143027674
 30
0.0
 10
-33.47095359803708
 20
-125.595818035114
 30
0.0
 10
-32.88457406443146
 20
-127.3612916759085
 30
0.0
 10
-32.42041529441346
 20
-128.2642380622965
 30
0.0
 10
-31.45893243544103
 20
-129.7878497869066
 30
0.0
 10
-30.99282009768146
 20
-130.3438397183346
 30
0.0
 10
-30.42838804415098
 20
-130.9333880459654
 30
0.0
 10
-30.36723832036725
 20
-130.9959180451214
 30
0.0
 10
-30.30427028843334
 20
-131.0588860770552
 30
0.0
  0
LINE
  5
1C9
330
1B2
100
AcDbEntity
  8
0
  6
Continuous
 62
     5
370
     0
100
AcDbLine
 10
-33.84827823607632
 20
-125.4341906661173
 30
0.0
 11
-33.8482782360763
 21
-122.502894024698
 31
0.0
  0
LINE
  5
1CA
330
1B2
100
AcDbEntity
  8
0
  6
Continuous
 62
     5
370
     0
100
AcDbLine
 10
-33.84827823607647
 20
-148.3453830652577
 30
0.0
 11
-33.84827823607646
 21
-145.4140864238389
 31
0.0
  0
SPLINE
  5
1CB
330
1B2
100
AcDbEntity
  8
0
  6
Continuous
 62
     5
370
     0
100
AcDbSpline
210
0.0
220
0.0
230
1.0
 70
    24
 71
     3
 72
    14
 73
    10
 74
     0
 42
0.0000000001
 43
0.0000000001
 40
-8.213962783624801
 40
-8.213962783624801
 40
-8.213962783624801
 40
-8.213962783624801
 40
-6.85047412967169
 40
-6.85047412967169
 40
-3.451789290145342
 40
-3.451789290145342
 40
-1.327611265441374
 40
-1.327611265441374
 40
-0.0000000000013958
 40
-0.0000000000013958
 40
-0.0000000000013958
 40
-0.0000000000013958
 10
-33.84827823607654
 20
-156.5491390388384
 30
0.0
 10
-33.84827823607654
 20
-156.0939781856229
 30
0.0
 10
-33.84827823607654
 20
-155.6387654444618
 30
0.0
 10
-33.84827823607654
 20
-154.0492301016094
 30
0.0
 10
-33.84827823607654
 20
-152.9155191589452
 30
0.0
 10
-33.84827823607654
 20
-151.0768080015343
 30
0.0
 10
-33.84827823607631
 20
-150.3703860578363
 30
0.0
 10
-33.84827823607631
 20
-149.2246453029524
 30
0.0
 10
-33.84827823607631
 20
-148.7844977544112
 30
0.0
 10
-33.84827823607631
 20
-148.3453830652577
 30
0.0
  0
SPLINE
  5
1CC
330
1B2
100
AcDbEntity
  8
0
  6
Continuous
 62
     5
370
     0
100
AcDbSpline
210
0.0
220
0.0
230
1.0
 70
    24
 71
     3
 72
    18
 73
    14
 74
     0
 42
0.0000000001
 43
0.0000000001
 40
2.406927339896163
 40
2.406927339896163
 40
2.406927339896163
 40
2.406927339896163
 40
3.982833796319957
 40
3.982833796319957
 40
5.310445061759943
 40
5.310445061759943
 40
5.974250694479936
 40
5.974250694479936
 40
7.036339706831924
 40
7.036339706831924
 40
8.735682126595104
 40
8.735682126595104
 40
9.422516781683736
 40
9.422516781683736
 40
9.422516781683736
 40
9.422516781683736
 10
-33.84827823607631
 20
-114.2991376063367
 30
0.0
 10
-33.84827823607631
 20
-114.8252082050414
 30
0.0
 10
-33.84827823607631
 20
-115.3513464439049
 30
0.0
 10
-33.84827823607631
 20
-116.3204204997491
 30
0.0
 10
-33.84827823607631
 20
-116.7634060783397
 30
0.0
 10
-33.84827823607631
 20
-117.4275522511476
 30
0.0
 10
-33.84827823607631
 20
-117.6488794772047
 30
0.0
 10
-33.84827823607631
 20
-118.2241610030653
 30
0.0
 10
-33.84827823607631
 20
-118.5780137959237
 30
0.0
 10
-33.84827823607631
 20
-119.4975029210193
 30
0.0
 10
-33.84827823607631
 20
-120.0628382257757
 30
0.0
 10
-33.84827823607631
 20
-120.8556405251587
 30
0.0
 10
-33.84827823607631
 20
-121.0837333367667
 30
0.0
 10
-33.84827823607631
 20
-121.3116611762071
 30
0.0
  0
SPLINE
  5
1CD
330
1B2
100
AcDbEntity
  8
0
  6
Continuous
 62
     5
370
     0
100
AcDbSpline
210
0.0
220
0.0
230
1.0
 70
     8
 71
     3
 72
     8
 73
     4
 74
     0
 42
0.0000000001
 43
0.0000000001
 40
3.122479804822282
 40
3.122479804822282
 40
3.122479804822282
 40
3.122479804822282
 40
3.605862701948633
 40
3.605862701948633
 40
3.605862701948633
 40
3.605862701948633
 10
-33.44333445946015
 20
-114.2991385449778
 30
0.0
 10
-33.43659534071409
 20
-114.1574250694149
 30
0.0
 10
-33.4299296254014
 20
-114.0159055908891
 30
0.0
 10
-33.42331960860949
 20
-113.874179917511
 30
0.0
  0
SPLINE
  5
1CE
330
1B2
100
AcDbEntity
  8
0
  6
Continuous
 62
     5
370
     0
100
AcDbSpline
210
0.0
220
0.0
230
1.0
 70
    24
 71
     3
 72
     8
 73
     4
 74
     0
 42
0.0000000001
 43
0.0000000001
 40
9.422516781683736
 40
9.422516781683736
 40
9.422516781683736
 40
9.422516781683736
 40
10.62089012351989
 40
10.62089012351989
 40
10.62089012351989
 40
10.62089012351989
 10
-33.84827823607631
 20
-121.3116611762071
 30
0.0
 10
-33.84827823607631
 20
-121.7093444390186
 30
0.0
 10
-33.84827823607631
 20
-122.1065254858126
 30
0.0
 10
-33.84827823607631
 20
-122.502894024698
 30
0.0
  0
LINE
  5
1CF
330
1B2
100
AcDbEntity
  8
0
  6
Continuous
 62
     5
370
     0
100
AcDbLine
 10
-33.44333445946015
 20
-114.2991385449778
 30
0.0
 11
-47.77112460169743
 21
-114.2991385449778
 31
0.0
  0
LINE
  5
1D0
330
1B2
100
AcDbEntity
  8
0
  6
Continuous
 62
     5
370
     0
100
AcDbLine
 10
-72.76248339486862
 20
-114.2991385449778
 30
0.0
 11
-96.14827823607559
 21
-114.2991385449778
 31
0.0
  0
SPLINE
  5
1D1
330
1B2
100
AcDbEntity
  8
0
  6
Continuous
 62
     5
370
     0
100
AcDbSpline
210
0.0
220
0.0
230
1.0
 70
     8
 71
     3
 72
    12
 73
     8
 74
     0
 42
0.0000000001
 43
0.0000000001
 40
10.06495249704509
 40
10.06495249704509
 40
10.06495249704509
 40
10.06495249704509
 40
10.703962011534
 40
10.703962011534
 40
11.49364056506216
 40
11.49364056506216
 40
12.01748391487209
 40
12.01748391487209
 40
12.01748391487209
 40
12.01748391487209
 10
-24.46033816407018
 20
-135.4241385449775
 30
0.0
 10
-24.46033816407018
 20
-135.6691682242344
 30
0.0
 10
-24.48526733502715
 20
-135.9608264291838
 30
0.0
 10
-24.6612393506218
 20
-136.6782680190721
 30
0.0
 10
-24.82304464642604
 20
-137.0483260406053
 30
0.0
 10
-25.18267774082139
 20
-137.6032719337792
 30
0.0
 10
-25.34360776718947
 20
-137.7985769726401
 30
0.0
 10
-25.51475375179868
 20
-137.9697229572493
 30
0.0
  0
SPLINE
  5
1D2
330
1B2
100
AcDbEntity
  8
0
  6
Continuous
 62
     5
370
     0
100
AcDbSpline
210
0.0
220
0.0
230
1.0
 70
    24
 71
     3
 72
    12
 73
     8
 74
     0
 42
0.0000000001
 43
0.0000000001
 40
0.0524118433590777
 40
0.0524118433590777
 40
0.0524118433590777
 40
0.0524118433590777
 40
2.569150269257939
 40
2.569150269257939
 40
5.391380734577939
 40
5.391380734577939
 40
8.457093458894666
 40
8.457093458894666
 40
8.457093458894666
 40
8.457093458894666
 10
-25.51475375179868
 20
-137.9697229572493
 30
0.0
 10
-26.0783179090258
 20
-138.5332871144765
 30
0.0
 10
-26.52986602512803
 20
-138.9848352305309
 30
0.0
 10
-27.3466132773203
 20
-139.8015824827236
 30
0.0
 10
-27.65757553654427
 20
-140.1125447418944
 30
0.0
 10
-28.21364345803315
 20
-140.6686126633833
 30
0.0
 10
-28.49288239652421
 20
-140.9478516019749
 30
0.0
 10
-28.81934604794171
 20
-141.2743152533923
 30
0.0
  0
SPLINE
  5
1D3
330
1B2
100
AcDbEntity
  8
0
  6
Continuous
 62
     5
370
     0
100
AcDbSpline
210
0.0
220
0.0
230
1.0
 70
     8
 71
     3
 72
    16
 73
    12
 74
     0
 42
0.0000000001
 43
0.0000000001
 40
0.0
 40
0.0
 40
0.0
 40
0.0
 40
1.977075662475347
 40
1.977075662475347
 40
3.755939319978006
 40
3.755939319978006
 40
4.550645251352761
 40
4.550645251352761
 40
5.947174980946798
 40
5.947174980946798
 40
7.712514740069823
 40
7.712514740069823
 40
7.712514740069823
 40
7.712514740069823
 10
-28.81934604794171
 20
-141.2743152533924
 30
0.0
 10
-29.07922138540673
 20
-141.5341905908574
 30
0.0
 10
-29.33780446453417
 20
-141.8195343469359
 30
0.0
 10
-29.84678217110488
 20
-142.4660878817458
 30
0.0
 10
-30.15031416990971
 20
-142.8835543214782
 30
0.0
 10
-30.61220488217279
 20
-143.7068721119556
 30
0.0
 10
-30.74781653732336
 20
-143.9739960966496
 30
0.0
 10
-31.10497828877575
 20
-144.7728244295253
 30
0.0
 10
-31.30044397509457
 20
-145.3259213096329
 30
0.0
 10
-31.63193016132684
 20
-146.6452928750721
 30
0.0
 10
-31.74827823607618
 20
-147.4647366632958
 30
0.0
 10
-31.74827823607618
 20
-148.3453830652579
 30
0.0
  0
SPLINE
  5
1D4
330
1B2
100
AcDbEntity
  8
0
  6
Continuous
 62
     5
370
     0
100
AcDbSpline
210
0.0
220
0.0
230
1.0
 70
    24
 71
     3
 72
     8
 73
     4
 74
     0
 42
0.0000000001
 43
0.0000000001
 40
0.0502634048249969
 40
0.0502634048249969
 40
0.0502634048249969
 40
0.0502634048249969
 40
5.917217434111217
 40
5.917217434111217
 40
5.917217434111217
 40
5.917217434111217
 10
-31.74827823607618
 20
-148.3453830652579
 30
0.0
 10
-31.74827823607618
 20
-150.2966684439106
 30
0.0
 10
-31.74827823607618
 20
-152.9354774485565
 30
0.0
 10
-31.74827823607618
 20
-156.6491385449776
 30
0.0
  0
SPLINE
  5
1D5
330
1B2
100
AcDbEntity
  8
0
  6
Continuous
 62
     5
370
     0
100
AcDbSpline
210
0.0
220
0.0
230
1.0
 70
    24
 71
     3
 72
     8
 73
     4
 74
     0
 42
0.0000000001
 43
0.0000000001
 40
0.8434430002197183
 40
0.8434430002197183
 40
0.8434430002197183
 40
0.8434430002197183
 40
0.9485397723890361
 40
0.9485397723890361
 40
0.9485397723890361
 40
0.9485397723890361
 10
-33.42331960860972
 20
-156.9740971724443
 30
0.0
 10
-33.3983716871837
 20
-156.9990450938702
 30
0.0
 10
-33.3732829711075
 20
-157.0241338099465
 30
0.0
 10
-33.34827823607654
 20
-157.0491385449775
 30
0.0
  0
SPLINE
  5
1D6
330
1B2
100
AcDbEntity
  8
0
  6
Continuous
 62
     5
370
     0
100
AcDbSpline
210
0.0
220
0.0
230
1.0
 70
    24
 71
     3
 72
     8
 73
     4
 74
     0
 42
0.0000000001
 43
0.0000000001
 40
-18.66951684415248
 40
-18.66951684415248
 40
-18.66951684415248
 40
-18.66951684415248
 40
-17.57235233178865
 40
-17.57235233178865
 40
-17.57235233178865
 40
-17.57235233178865
 10
-33.34827823607654
 20
-157.0491385449774
 30
0.0
 10
-32.99225842532312
 20
-157.4051583557307
 30
0.0
 10
-32.65254749477228
 20
-157.7448692862816
 30
0.0
 10
-32.33406467078314
 20
-158.0633521102708
 30
0.0
  0
ARC
  5
1D7
330
1B2
100
AcDbEntity
  8
0
  6
Continuous
 62
     5
370
     0
100
AcDbCircle
 10
-33.74827823607617
 20
-156.6491385449776
 30
0.0
 40
1.999999999999999
100
AcDbArc
 50
270.0
 51
314.9999999999967
  0
SPLINE
  5
1D8
330
1B2
100
AcDbEntity
  8
0
  6
Continuous
 62
     5
370
     0
100
AcDbSpline
210
0.0
220
0.0
230
1.0
 70
     8
 71
     3
 72
    18
 73
    14
 74
     0
 42
0.0000000001
 43
0.0000000001
 40
-2.753213899210622
 40
-2.753213899210622
 40
-2.753213899210622
 40
-2.753213899210622
 40
-2.716509647660304
 40
-2.716509647660304
 40
-2.618702525717698
 40
-2.618702525717698
 40
-2.451468550400354
 40
-2.451468550400354
 40
-1.894329900390305
 40
-1.894329900390305
 40
-1.211444345988776
 40
-1.211444345988776
 40
-1.179815188439096
 40
-1.179815188439096
 40
-1.179815188439096
 40
-1.179815188439096
 10
-31.74827823607618
 20
-156.6491385449776
 30
0.0
 10
-31.74827823607618
 20
-156.6613721576898
 30
0.0
 10
-31.74839048203486
 20
-156.6736058637108
 30
0.0
 10
-31.74921320437872
 20
-156.718433841123
 30
0.0
 10
-31.75060833648442
 20
-156.7510101317952
 30
0.0
 10
-31.75654503685948
 20
-156.8391546880612
 30
0.0
 10
-31.76261449937394
 20
-156.8945908571172
 30
0.0
 10
-31.79890014380291
 20
-157.1333003128334
 30
0.0
 10
-31.85224518691504
 20
-157.3121221887599
 30
0.0
 10
-32.02416641626653
 20
-157.6880091885893
 30
0.0
 10
-32.15349267196709
 20
-157.8773378587517
 30
0.0
 10
-32.31922178703937
 20
-158.0483914960231
 30
0.0
 10
-32.32661510543469
 20
-158.0559025449223
 30
0.0
 10
-32.33406467078314
 20
-158.0633521102708
 30
0.0
  0
SPLINE
  5
1D9
330
1B2
100
AcDbEntity
  8
0
  6
Continuous
 62
     5
370
     0
100
AcDbSpline
210
0.0
220
0.0
230
1.0
 70
    24
 71
     3
 72
     8
 73
     4
 74
     0
 42
0.0000000001
 43
0.0000000001
 40
0.0
 40
0.0
 40
0.0
 40
0.0
 40
0.1069663648633358
 40
0.1069663648633358
 40
0.1069663648633358
 40
0.1069663648633358
 10
-33.34827823607631
 20
-113.7991385449778
 30
0.0
 10
-33.37349016542791
 20
-113.8243504743295
 30
0.0
 10
-33.3985718101155
 20
-113.8494321190171
 30
0.0
 10
-33.42331960860949
 20
-113.874179917511
 30
0.0
  0
SPLINE
  5
1DA
330
1B2
100
AcDbEntity
  8
0
  6
Continuous
 62
     5
370
     0
100
AcDbSpline
210
0.0
220
0.0
230
1.0
 70
     8
 71
     3
 72
    16
 73
    12
 74
     0
 42
0.0000000001
 43
0.0000000001
 40
0.0
 40
0.0
 40
0.0
 40
0.0
 40
1.977075662475347
 40
1.977075662475347
 40
3.755939319978006
 40
3.755939319978006
 40
4.550645251352761
 40
4.550645251352761
 40
5.947174980946798
 40
5.947174980946798
 40
7.712514740069823
 40
7.712514740069823
 40
7.712514740069823
 40
7.712514740069823
 10
-28.81934604794171
 20
-129.5739618365633
 30
0.0
 10
-29.07922138540673
 20
-129.3140864990983
 30
0.0
 10
-29.33780446453417
 20
-129.0287427430197
 30
0.0
 10
-29.84678217110488
 20
-128.3821892082098
 30
0.0
 10
-30.15031416990971
 20
-127.9647227684773
 30
0.0
 10
-30.61220488217279
 20
-127.1414049779999
 30
0.0
 10
-30.74781653732336
 20
-126.874280993306
 30
0.0
 10
-31.10497828877575
 20
-126.0754526604303
 30
0.0
 10
-31.30044397509457
 20
-125.5223557803226
 30
0.0
 10
-31.63193016132684
 20
-124.2029842148836
 30
0.0
 10
-31.74827823607618
 20
-123.3835404266597
 30
0.0
 10
-31.74827823607618
 20
-122.5028940246977
 30
0.0
  0
SPLINE
  5
1DB
330
1B2
100
AcDbEntity
  8
0
  6
Continuous
 62
     5
370
     0
100
AcDbSpline
210
0.0
220
0.0
230
1.0
 70
    24
 71
     3
 72
    12
 73
     8
 74
     0
 42
0.0000000001
 43
0.0000000001
 40
0.0524118433590777
 40
0.0524118433590777
 40
0.0524118433590777
 40
0.0524118433590777
 40
2.569150269257939
 40
2.569150269257939
 40
5.391380734577939
 40
5.391380734577939
 40
8.457093458894666
 40
8.457093458894666
 40
8.457093458894666
 40
8.457093458894666
 10
-25.51475375179868
 20
-132.8785541327062
 30
0.0
 10
-26.0783179090258
 20
-132.3149899754791
 30
0.0
 10
-26.52986602512803
 20
-131.8634418594246
 30
0.0
 10
-27.3466132773203
 20
-131.046694607232
 30
0.0
 10
-27.65757553654427
 20
-130.7357323480612
 30
0.0
 10
-28.21364345803315
 20
-130.1796644265723
 30
0.0
 10
-28.49288239652421
 20
-129.9004254879806
 30
0.0
 10
-28.81934604794171
 20
-129.5739618365633
 30
0.0
  0
SPLINE
  5
1DC
330
1B2
100
AcDbEntity
  8
0
  6
Continuous
 62
     5
370
     0
100
AcDbSpline
210
0.0
220
0.0
230
1.0
 70
     8
 71
     3
 72
    12
 73
     8
 74
     0
 42
0.0000000001
 43
0.0000000001
 40
10.06495249704509
 40
10.06495249704509
 40
10.06495249704509
 40
10.06495249704509
 40
10.703962011534
 40
10.703962011534
 40
11.49364056506216
 40
11.49364056506216
 40
12.01748391487209
 40
12.01748391487209
 40
12.01748391487209
 40
12.01748391487209
 10
-24.46033816407018
 20
-135.424138544978
 30
0.0
 10
-24.46033816407018
 20
-135.1791088657211
 30
0.0
 10
-24.48526733502715
 20
-134.8874506607717
 30
0.0
 10
-24.6612393506218
 20
-134.1700090708835
 30
0.0
 10
-24.82304464642604
 20
-133.7999510493503
 30
0.0
 10
-25.18267774082139
 20
-133.2450051561764
 30
0.0
 10
-25.34360776718947
 20
-133.0497001173154
 30
0.0
 10
-25.51475375179868
 20
-132.8785541327062
 30
0.0
  0
SPLINE
  5
1DD
330
1B2
100
AcDbEntity
  8
0
  6
Continuous
 62
     5
370
     0
100
AcDbSpline
210
0.0
220
0.0
230
1.0
 70
    24
 71
     3
 72
     8
 73
     4
 74
     0
 42
0.0000000001
 43
0.0000000001
 40
26.46741322872179
 40
26.46741322872179
 40
26.46741322872179
 40
26.46741322872179
 40
27.11216120192736
 40
27.11216120192736
 40
27.11216120192736
 40
27.11216120192736
 10
-33.34827823607631
 20
-113.7991385449778
 30
0.0
 10
-33.0575069772037
 20
-113.5083672861054
 30
0.0
 10
-32.74884146968427
 20
-113.199701778586
 30
0.0
 10
-32.33406467370307
 20
-112.7849249826047
 30
0.0
  0
LINE
  5
1DE
330
1B2
100
AcDbEntity
  8
0
  6
Continuous
 62
     5
370
     0
100
AcDbLine
 10
-75.54827823607613
 20
-156.1991385449778
 30
0.0
 11
-75.54827823607613
 21
-156.5491385449778
 31
0.0
  0
LINE
  5
1DF
330
1B2
100
AcDbEntity
  8
0
  6
Continuous
 62
     5
370
     0
100
AcDbLine
 10
-75.54827823607613
 20
-114.6491385449778
 30
0.0
 11
-75.54827823607613
 21
-114.2991385449778
 31
0.0
  0
LINE
  5
1E0
330
1B2
100
AcDbEntity
  8
0
  6
Continuous
 62
     5
370
     0
100
AcDbLine
 10
-76.24827823607614
 20
-156.5491385449778
 30
0.0
 11
-76.24827823607614
 21
-156.1991385449778
 31
0.0
  0
LINE
  5
1E1
330
1B2
100
AcDbEntity
  8
0
  6
Continuous
 62
     5
370
     0
100
AcDbLine
 10
-76.94827823607599
 20
-114.2991385449778
 30
0.0
 11
-76.94827823607599
 21
-114.6491385449778
 31
0.0
  0
LINE
  5
1E2
330
1B2
100
AcDbEntity
  8
0
  6
Continuous
 62
     5
370
     0
100
AcDbLine
 10
-96.14827823607559
 20
-156.5491385449778
 30
0.0
 11
-96.14827823607559
 21
-153.5366385449776
 31
0.0
  0
LINE
  5
1E3
330
1B2
100
AcDbEntity
  8
0
  6
Continuous
 62
     5
370
     0
100
AcDbLine
 10
-96.1482782360763
 20
-149.5366385449776
 30
0.0
 11
-96.14827823607624
 21
-153.5366385449776
 31
0.0
  0
LINE
  5
1E4
330
1B2
100
AcDbEntity
  8
0
  6
Continuous
 62
     5
370
     0
100
AcDbLine
 10
-96.1482782360763
 20
-121.3116385449777
 30
0.0
 11
-96.14827823607624
 21
-117.3116385449777
 31
0.0
  0
LINE
  5
1E5
330
1B2
100
AcDbEntity
  8
0
  6
Continuous
 62
     5
370
     0
100
AcDbLine
 10
-96.14827823607559
 20
-114.2991385449778
 30
0.0
 11
-96.14827823607559
 21
-117.3116385449777
 31
0.0
  0
LINE
  5
1E6
330
1B2
100
AcDbEntity
  8
0
  6
Continuous
 62
     5
370
     0
100
AcDbLine
 10
-96.24827823607619
 20
-158.6491385449776
 30
0.0
 11
-90.5296367235088
 21
-158.6491385449776
 31
0.0
  0
LINE
  5
1E7
330
1B2
100
AcDbEntity
  8
0
  6
Continuous
 62
     5
370
     0
100
AcDbLine
 10
-90.17963672350854
 20
-158.6491385449777
 30
0.0
 11
-90.52963672350863
 21
-158.6491385449777
 31
0.0
  0
LINE
  5
1E8
330
1B2
100
AcDbEntity
  8
0
  6
Continuous
 62
     5
370
     0
100
AcDbLine
 10
-81.82963672350867
 20
-158.6491385449777
 30
0.0
 11
-82.17963672350865
 21
-158.6491385449777
 31
0.0
  0
LINE
  5
1E9
330
1B2
100
AcDbEntity
  8
0
  6
Continuous
 62
     5
370
     0
100
AcDbLine
 10
-63.84116062299219
 20
-158.6491385449777
 30
0.0
 11
-81.82963672350869
 21
-158.6491385449777
 31
0.0
  0
LINE
  5
1EA
330
1B2
100
AcDbEntity
  8
0
  6
Continuous
 62
     5
370
     0
100
AcDbLine
 10
-33.74827823607623
 20
-158.6491385449777
 30
0.0
 11
-52.77061953830909
 21
-158.6491385449777
 31
0.0
  0
ARC
  5
1EB
330
1B2
100
AcDbEntity
  8
0
  6
Continuous
 62
     5
370
     0
100
AcDbCircle
 10
-96.24827823607617
 20
-156.6491385449776
 30
0.0
 40
1.999999999999999
100
AcDbArc
 50
180.0
 51
270.0
  0
LINE
  5
1EC
330
1B2
100
AcDbEntity
  8
0
  6
Continuous
 62
     5
370
     0
100
AcDbLine
 10
-98.24827823607618
 20
-117.3116385449777
 30
0.0
 11
-98.24827823607618
 21
-114.1991385449778
 31
0.0
  0
LINE
  5
1ED
330
1B2
100
AcDbEntity
  8
0
  6
Continuous
 62
     5
370
     0
100
AcDbLine
 10
-98.24827823607618
 20
-117.3116385449777
 30
0.0
 11
-98.24827823607618
 21
-121.3116385449777
 31
0.0
  0
LINE
  5
1EE
330
1B2
100
AcDbEntity
  8
0
  6
Continuous
 62
     5
370
     0
100
AcDbLine
 10
-98.24827823607618
 20
-153.5366385449776
 30
0.0
 11
-98.24827823607618
 21
-149.5366385449776
 31
0.0
  0
LINE
  5
1EF
330
1B2
100
AcDbEntity
  8
0
  6
Continuous
 62
     5
370
     0
100
AcDbLine
 10
-98.24827823607618
 20
-153.5366385449776
 30
0.0
 11
-98.24827823607618
 21
-156.6491385449776
 31
0.0
  0
ARC
  5
1F0
330
1B2
100
AcDbEntity
  8
0
  6
Continuous
 62
     5
370
     0
100
AcDbCircle
 10
-96.24827823607617
 20
-114.1991385449778
 30
0.0
 40
1.999999999999999
100
AcDbArc
 50
90.0
 51
180.0
  0
LINE
  5
1F1
330
1B2
100
AcDbEntity
  8
0
  6
Continuous
 62
     5
370
     0
100
AcDbLine
 10
-52.77061953830909
 20
-112.1991385449778
 30
0.0
 11
-33.74827823607629
 21
-112.1991385449778
 31
0.0
  0
LINE
  5
1F2
330
1B2
100
AcDbEntity
  8
0
  6
Continuous
 62
     5
370
     0
100
AcDbLine
 10
-96.24827823607619
 20
-112.1991385449778
 30
0.0
 11
-63.84116062299219
 21
-112.1991385449778
 31
0.0
  0
SPLINE
  5
1F3
330
1B2
100
AcDbEntity
  8
0
  6
Continuous
 62
     5
370
     0
100
AcDbSpline
210
0.0
220
0.0
230
1.0
 70
     8
 71
     3
 72
    18
 73
    14
 74
     0
 42
0.0000000001
 43
0.0000000001
 40
-4.323695380060454
 40
-4.323695380060454
 40
-4.323695380060454
 40
-4.323695380060454
 40
-3.84511671093009
 40
-3.84511671093009
 40
-3.337867581284456
 40
-3.337867581284456
 40
-3.099064471319396
 40
-3.099064471319396
 40
-2.905841908337304
 40
-2.905841908337304
 40
-2.80224662547056
 40
-2.80224662547056
 40
-2.750972919346388
 40
-2.750972919346388
 40
-2.750972919346388
 40
-2.750972919346388
 10
-32.33406467370307
 20
-112.7849249826047
 30
0.0
 10
-32.221521594309
 20
-112.8974680619987
 30
0.0
 10
-32.12268204362656
 20
-113.023177043039
 30
0.0
 10
-31.95185762683966
 20
-113.3038945184669
 30
0.0
 10
-31.88263241786646
 20
-113.4588994139833
 30
0.0
 10
-31.81071608170916
 20
-113.6969542671273
 30
0.0
 10
-31.79226612370186
 20
-113.7744590547979
 30
0.0
 10
-31.76733284789063
 20
-113.9162896104293
 30
0.0
 10
-31.7592521682561
 20
-113.9802244292341
 30
0.0
 10
-31.75159936601969
 20
-114.0788644274921
 30
0.0
 10
-31.74982044171381
 20
-114.1133550552593
 30
0.0
 10
-31.74849727938064
 20
-114.1649593689294
 30
0.0
 10
-31.74827823607618
 20
-114.1820488479966
 30
0.0
 10
-31.74827823607618
 20
-114.1991385449778
 30
0.0
  0
ARC
  5
1F4
330
1B2
100
AcDbEntity
  8
0
  6
Continuous
 62
     5
370
     0
100
AcDbCircle
 10
-33.74827823607617
 20
-114.1991385449778
 30
0.0
 40
1.999999999999999
100
AcDbArc
 50
44.99999999999871
 51
90.0
  0
SPLINE
  5
1F5
330
1B2
100
AcDbEntity
  8
0
  6
Continuous
 62
     5
370
     0
100
AcDbSpline
210
0.0
220
0.0
230
1.0
 70
    24
 71
     3
 72
     8
 73
     4
 74
     0
 42
0.0000000001
 43
0.0000000001
 40
0.0502634048249969
 40
0.0502634048249969
 40
0.0502634048249969
 40
0.0502634048249969
 40
1.166650337390896
 40
1.166650337390896
 40
1.166650337390896
 40
1.166650337390896
 10
-31.74827823607618
 20
-122.5028940246977
 30
0.0
 10
-31.74827823607618
 20
-122.131595819946
 30
0.0
 10
-31.74827823607618
 20
-121.735398400853
 30
0.0
 10
-31.74827823607618
 20
-121.3116385449747
 30
0.0
  0
SPLINE
  5
1F6
330
1B2
100
AcDbEntity
  8
0
  6
Continuous
 62
     5
370
     0
100
AcDbSpline
210
0.0
220
0.0
230
1.0
 70
    24
 71
     3
 72
     8
 73
     4
 74
     0
 42
0.0000000001
 43
0.0000000001
 40
1.166650337390896
 40
1.166650337390896
 40
1.166650337390896
 40
1.166650337390896
 40
5.917215993016101
 40
5.917215993016101
 40
5.917215993016101
 40
5.917215993016101
 10
-31.74827823607618
 20
-121.3116385449747
 30
0.0
 10
-31.74827823607618
 20
-119.5084115823109
 30
0.0
 10
-31.74827823607618
 20
-117.2061405325887
 30
0.0
 10
-31.74827823607618
 20
-114.1991385449778
 30
0.0
  0
ARC
  5
1F7
330
1B2
100
AcDbEntity
  8
0
  6
Continuous
 62
     5
370
     0
100
AcDbCircle
 10
-94.61388468308607
 20
-125.3116385449777
 30
0.0
 40
3.999999999999999
100
AcDbArc
 50
54.88508944682316
 51
90.0
  0
LINE
  5
1F8
330
1B2
100
AcDbEntity
  8
0
  6
Continuous
 62
     5
370
     0
100
AcDbLine
 10
-92.31301209741534
 20
-122.039638339521
 30
0.0
 11
-88.9890620450962
 21
-124.3770420899136
 31
0.0
  0
LINE
  5
1F9
330
1B2
100
AcDbEntity
  8
0
  6
Continuous
 62
     5
370
     0
100
AcDbLine
 10
-92.31301209741534
 20
-148.8086387504348
 30
0.0
 11
-88.9890620450962
 21
-146.4712350000423
 31
0.0
  0
ARC
  5
1FA
330
1B2
100
AcDbEntity
  8
0
  6
Continuous
 62
     5
370
     0
100
AcDbCircle
 10
-94.61388468308607
 20
-145.5366385449781
 30
0.0
 40
3.999999999999999
100
AcDbArc
 50
270.0
 51
305.1149105531769
  0
LINE
  5
1FB
330
1B2
100
AcDbEntity
  8
0
  6
Continuous
 62
     5
370
     0
100
AcDbLine
 10
-94.61388468308589
 20
-149.5366385449781
 30
0.0
 11
-95.24827823607612
 21
-149.5366385449781
 31
0.0
  0
LINE
  5
1FC
330
1B2
100
AcDbEntity
  8
0
  6
Continuous
 62
     5
370
     0
100
AcDbLine
 10
-94.61388468308589
 20
-121.3116385449777
 30
0.0
 11
-95.24827823607612
 21
-121.3116385449777
 31
0.0
  0
LINE
  5
1FD
330
1B2
100
AcDbEntity
  8
0
  6
Continuous
 62
     5
370
     0
100
AcDbLine
 10
-98.24827823607618
 20
-121.3116385449777
 30
0.0
 11
-98.24827823607618
 21
-149.5366385449781
 31
0.0
  0
LINE
  5
1FE
330
1B2
100
AcDbEntity
  8
0
  6
Continuous
 62
     5
370
     0
100
AcDbLine
 10
-95.24827823607614
 20
-121.3116385449777
 30
0.0
 11
-98.24827823607614
 21
-121.3116385449777
 31
0.0
  0
LINE
  5
1FF
330
1B2
100
AcDbEntity
  8
0
  6
Continuous
 62
     5
370
     0
100
AcDbLine
 10
-95.24827823607617
 20
-149.5366385449781
 30
0.0
 11
-95.24827823607617
 21
-121.3116385449777
 31
0.0
  0
LINE
  5
200
330
1B2
100
AcDbEntity
  8
0
  6
Continuous
 62
     5
370
     0
100
AcDbLine
 10
-98.24827823607614
 20
-149.5366385449781
 30
0.0
 11
-95.24827823607614
 21
-149.5366385449781
 31
0.0
  0
SPLINE
  5
201
330
1B2
100
AcDbEntity
  8
0
  6
Continuous
 62
     5
370
     0
100
AcDbSpline
210
0.0
220
0.0
230
1.0
 70
     8
 71
     3
 72
    12
 73
     8
 74
     0
 42
0.0000000001
 43
0.0000000001
 40
0.0
 40
0.0
 40
0.0
 40
0.0
 40
1.364308584763529
 40
1.364308584763529
 40
3.06194423352125
 40
3.06194423352125
 40
4.550524406168641
 40
4.550524406168641
 40
4.550524406168641
 40
4.550524406168641
 10
-63.03661102598468
 20
-137.3801603370542
 30
0.0
 10
-62.62403745744856
 20
-137.5714673530631
 30
0.0
 10
-62.17036160186168
 20
-137.7320722565232
 30
0.0
 10
-61.14833982659135
 20
-138.0865445139497
 30
0.0
 10
-60.48912451281577
 20
-138.3110623794214
 30
0.0
 10
-58.71699161865442
 20
-139.0766444607917
 30
0.0
 10
-57.31201989719394
 20
-139.744678641838
 30
0.0
 10
-56.18635953134568
 20
-140.2499422296143
 30
0.0
  0
SPLINE
  5
202
330
1B2
100
AcDbEntity
  8
0
  6
Continuous
 62
     5
370
     0
100
AcDbSpline
210
0.0
220
0.0
230
1.0
 70
     8
 71
     3
 72
    12
 73
     8
 74
     0
 42
0.0000000001
 43
0.0000000001
 40
0.0
 40
0.0
 40
0.0
 40
0.0
 40
0.8611962635134368
 40
0.8611962635134368
 40
2.696893567661064
 40
2.696893567661064
 40
4.062951028608774
 40
4.062951028608774
 40
4.062951028608774
 40
4.062951028608774
 10
-55.46883697707468
 20
-134.5103270570735
 30
0.0
 10
-55.75588862755464
 20
-134.5131388161225
 30
0.0
 10
-56.15210286829844
 20
-134.5907976766415
 30
0.0
 10
-56.82833341926309
 20
-134.7357053581972
 30
0.0
 10
-57.97672648781755
 20
-135.0202119961229
 30
0.0
 10
-60.43302284733065
 20
-136.0429589385291
 30
0.0
 10
-61.51941025725225
 20
-136.5947642345364
 30
0.0
 10
-63.03661102598468
 20
-137.3801603370542
 30
0.0
  0
SPLINE
  5
203
330
1B2
100
AcDbEntity
  8
0
  6
Continuous
 62
     5
370
     0
100
AcDbSpline
210
0.0
220
0.0
230
1.0
 70
    11
 71
     3
 72
    42
 73
    38
 74
     0
 42
0.0000000001
 43
0.0000000001
 40
0.0
 40
0.0
 40
0.0
 40
0.0
 40
0.4650760900567636
 40
0.4650760900567636
 40
0.8490659103278353
 40
0.8490659103278353
 40
1.330087909034843
 40
1.330087909034843
 40
2.056500231732806
 40
2.056500231732806
 40
2.709881673748127
 40
2.709881673748127
 40
3.407299410893397
 40
3.407299410893397
 40
3.979070485116281
 40
3.979070485116281
 40
4.441788130075128
 40
4.441788130075128
 40
4.960367540180078
 40
4.960367540180078
 40
5.45319376851812
 40
5.45319376851812
 40
5.932252554650982
 40
5.932252554650982
 40
6.340582223260947
 40
6.340582223260947
 40
6.690463276328176
 40
6.690463276328176
 40
7.012048433000362
 40
7.012048433000362
 40
7.334158714487754
 40
7.334158714487754
 40
7.660641924251207
 40
7.660641924251207
 40
7.857939229036575
 40
7.857939229036575
 40
8.084950701316081
 40
8.084950701316081
 40
8.084950701316081
 40
8.084950701316081
 10
-52.19047370307746
 20
-139.0433655931979
 30
0.0
 10
-52.03582452190923
 20
-139.0541588339765
 30
0.0
 10
-51.88267939865747
 20
-139.0390060444937
 30
0.0
 10
-51.61481050715835
 20
-138.9484398058718
 30
0.0
 10
-51.50459908657601
 20
-138.8861590503149
 30
0.0
 10
-51.28213186004924
 20
-138.7034395630601
 30
0.0
 10
-51.19412204821831
 20
-138.5868592991229
 30
0.0
 10
-51.0450852563458
 20
-138.3480731040824
 30
0.0
 10
-50.98346098911608
 20
-138.1917171627953
 30
0.0
 10
-50.9317045719342
 20
-137.8749728507808
 30
0.0
 10
-50.93617467805867
 20
-137.7231724765894
 30
0.0
 10
-51.00124827882061
 20
-137.415813974272
 30
0.0
 10
-51.06539309644015
 20
-137.2623215106042
 30
0.0
 10
-51.22601589511006
 20
-137.0157446341621
 30
0.0
 10
-51.32845853455475
 20
-136.89438738609
 30
0.0
 10
-51.59119080358752
 20
-136.715348468606
 30
0.0
 10
-51.72092942561741
 20
-136.6608346073083
 30
0.0
 10
-52.01486495852598
 20
-136.5931361142218
 30
0.0
 10
-52.19204378841183
 20
-136.5831587425833
 30
0.0
 10
-52.53934243309115
 20
-136.6338540725354
 30
0.0
 10
-52.68932889038453
 20
-136.6868271827879
 30
0.0
 10
-52.9539293811192
 20
-136.8449370566152
 30
0.0
 10
-53.06916123578068
 20
-136.9484913795788
 30
0.0
 10
-53.24013942117446
 20
-137.1723622332846
 30
0.0
 10
-53.31911620236198
 20
-137.3082492135464
 30
0.0
 10
-53.40906660022548
 20
-137.6510590629535
 30
0.0
 10
-53.42135880448651
 20
-137.820770364938
 30
0.0
 10
-53.38500079374646
 20
-138.131220911036
 30
0.0
 10
-53.34161719303185
 20
-138.2684229063317
 30
0.0
 10
-53.1942059067753
 20
-138.5297765393731
 30
0.0
 10
-53.09611880158465
 20
-138.6432260221984
 30
0.0
 10
-52.87355021085611
 20
-138.8473575033226
 30
0.0
 10
-52.76835244772403
 20
-138.919716897346
 30
0.0
 10
-52.58775305664173
 20
-138.9982485220911
 30
0.0
 10
-52.51757320356611
 20
-139.0190275622501
 30
0.0
 10
-52.36051022358672
 20
-139.0459588670723
 30
0.0
 10
-52.27545917475115
 20
-139.0489487405904
 30
0.0
 10
-52.19047370307746
 20
-139.0433655931979
 30
0.0
  0
SPLINE
  5
204
330
1B2
100
AcDbEntity
  8
0
  6
Continuous
 62
     5
370
     0
100
AcDbSpline
210
0.0
220
0.0
230
1.0
 70
     8
 71
     3
 72
    14
 73
    10
 74
     0
 42
0.0000000001
 43
0.0000000001
 40
0.0
 40
0.0
 40
0.0
 40
0.0
 40
2.316931796331488
 40
2.316931796331488
 40
4.272323557282146
 40
4.272323557282146
 40
5.835316947694626
 40
5.835316947694626
 40
7.889615776045385
 40
7.889615776045385
 40
7.889615776045385
 40
7.889615776045385
 10
-48.91226459134188
 20
-134.4451678077134
 30
0.0
 10
-48.38352008688705
 20
-135.0081002281621
 30
0.0
 10
-48.03520429288184
 20
-135.5486537613081
 30
0.0
 10
-47.52549090797922
 20
-136.9247997341281
 30
0.0
 10
-47.46021771731213
 20
-137.3659554460866
 30
0.0
 10
-47.46859002980065
 20
-138.1510487292518
 30
0.0
 10
-47.52201603949899
 20
-138.4951933372397
 30
0.0
 10
-47.72343969707637
 20
-139.274002550295
 30
0.0
 10
-47.89769545753708
 20
-139.7094401741251
 30
0.0
 10
-48.0967205322174
 20
-140.1194952623424
 30
0.0
  0
SPLINE
  5
205
330
1B2
100
AcDbEntity
  8
0
  6
Continuous
 62
     5
370
     0
100
AcDbSpline
210
0.0
220
0.0
230
1.0
 70
     8
 71
     3
 72
    16
 73
    12
 74
     0
 42
0.0000000001
 43
0.0000000001
 40
0.0
 40
0.0
 40
0.0
 40
0.0
 40
1.133746974381422
 40
1.133746974381422
 40
1.768993046405403
 40
1.768993046405403
 40
3.347301494502432
 40
3.347301494502432
 40
3.974353243253636
 40
3.974353243253636
 40
3.993312392916846
 40
3.993312392916846
 40
3.993312392916846
 40
3.993312392916846
 10
-43.79155951288132
 20
-135.1587078368854
 30
0.0
 10
-44.16579361728233
 20
-135.2113298832239
 30
0.0
 10
-44.42103199828804
 20
-135.2100638318325
 30
0.0
 10
-44.80819645459698
 20
-135.1835408947042
 30
0.0
 10
-45.31453319471412
 20
-135.1384169425882
 30
0.0
 10
-46.26596914139028
 20
-135.0225268003022
 30
0.0
 10
-46.74168843192908
 20
-134.8946069212454
 30
0.0
 10
-47.7046209165837
 20
-134.6640078549174
 30
0.0
 10
-48.00900678047193
 20
-134.5934170587167
 30
0.0
 10
-48.38571988495889
 20
-134.521967412256
 30
0.0
 10
-48.82713025985115
 20
-134.4381868060258
 30
0.0
 10
-48.91226459134188
 20
-134.4451678077134
 30
0.0
  0
SPLINE
  5
206
330
1B2
100
AcDbEntity
  8
0
  6
Continuous
 62
     5
370
     0
100
AcDbSpline
210
0.0
220
0.0
230
1.0
 70
     8
 71
     3
 72
    14
 73
    10
 74
     0
 42
0.0000000001
 43
0.0000000001
 40
0.0
 40
0.0
 40
0.0
 40
0.0
 40
2.819609614042798
 40
2.819609614042798
 40
5.13590882311513
 40
5.13590882311513
 40
7.784155402659747
 40
7.784155402659747
 40
10.97009048417137
 40
10.97009048417137
 40
10.97009048417137
 40
10.97009048417137
 10
-56.18635953134568
 20
-140.2499422296143
 30
0.0
 10
-56.61331106450254
 20
-139.4126443355514
 30
0.0
 10
-56.81133072552367
 20
-138.7632810407748
 30
0.0
 10
-56.91280339956367
 20
-137.6685503632978
 30
0.0
 10
-56.86628362693657
 20
-137.1674178603074
 30
0.0
 10
-56.58757259031856
 20
-136.1414116551007
 30
0.0
 10
-56.35727982474688
 20
-135.7246506286555
 30
0.0
 10
-55.91030373089345
 20
-135.04038495895
 30
0.0
 10
-55.64583514269654
 20
-134.7285037246639
 30
0.0
 10
-55.46883697707468
 20
-134.5103270570735
 30
0.0
  0
SPLINE
  5
207
330
1B2
100
AcDbEntity
  8
0
  6
Continuous
 62
     5
370
     0
100
AcDbSpline
210
0.0
220
0.0
230
1.0
 70
     8
 71
     3
 72
    16
 73
    12
 74
     0
 42
0.0000000001
 43
0.0000000001
 40
0.0
 40
0.0
 40
0.0
 40
0.0
 40
1.187532317290299
 40
1.187532317290299
 40
1.905921102485764
 40
1.905921102485764
 40
2.53773864462305
 40
2.53773864462305
 40
3.177038670758485
 40
3.177038670758485
 40
3.793663995600983
 40
3.793663995600983
 40
3.793663995600983
 40
3.793663995600983
 10
-48.0967205322174
 20
-140.1194952623424
 30
0.0
 10
-47.7376808164233
 20
-139.9528128141059
 30
0.0
 10
-47.48059989291775
 20
-139.7909567133757
 30
0.0
 10
-46.99106732734819
 20
-139.4463484275585
 30
0.0
 10
-46.53079334778086
 20
-139.1219567634107
 30
0.0
 10
-45.79039203379053
 20
-138.4704509745125
 30
0.0
 10
-45.48031199396493
 20
-138.1410006512129
 30
0.0
 10
-44.76605400615627
 20
-137.150374686435
 30
0.0
 10
-44.36263759107279
 20
-136.4745009289368
 30
0.0
 10
-43.93108361997062
 20
-135.6376316546937
 30
0.0
 10
-43.85704470864877
 20
-135.4103420498963
 30
0.0
 10
-43.79155951288132
 20
-135.1587078368854
 30
0.0
  0
LINE
  5
208
330
1B2
100
AcDbEntity
  8
0
  6
Continuous
 62
     5
370
     0
100
AcDbLine
 10
-90.40068440214801
 20
-129.060177514299
 30
0.0
 11
-87.80723946506951
 21
-126.4667325772205
 31
0.0
  0
ARC
  5
209
330
1B2
100
AcDbEntity
  8
0
  6
Continuous
 62
     5
370
     0
100
AcDbCircle
 10
-84.03672337146891
 20
-135.4241385449778
 30
0.0
 40
9.0
100
AcDbArc
 50
135.0000000000015
 51
224.9999999999986
  0
LINE
  5
20A
330
1B2
100
AcDbEntity
  8
0
  6
Continuous
 62
     5
370
     0
100
AcDbLine
 10
-90.40068440214808
 20
-141.7880995756567
 30
0.0
 11
-87.80723946506942
 21
-144.3815445127354
 31
0.0
  0
ARC
  5
20B
330
1B2
100
AcDbEntity
  8
0
  6
Continuous
 62
     5
370
     0
100
AcDbCircle
 10
-88.51434624625582
 20
-145.0886512939219
 30
0.0
 40
1.0
100
AcDbArc
 50
291.4218215217914
 51
45.00000000000029
  0
ARC
  5
20C
330
1B2
100
AcDbEntity
  8
0
  6
Continuous
 62
     5
370
     0
100
AcDbCircle
 10
-86.6881894594255
 20
-149.743235205499
 30
0.0
 40
3.999999999999999
100
AcDbArc
 50
45.0
 51
111.4218215217957
  0
ARC
  5
20D
330
1B2
100
AcDbEntity
  8
0
  6
Continuous
 62
     5
370
     0
100
AcDbCircle
 10
-86.6881894594255
 20
-149.743235205499
 30
0.0
 40
3.999999999999999
100
AcDbArc
 50
111.4218215217957
 51
125.1149105531768
  0
ARC
  5
20E
330
1B2
100
AcDbEntity
  8
0
  6
Continuous
 62
     5
370
     0
100
AcDbCircle
 10
-86.6881894594255
 20
-121.1050418844568
 30
0.0
 40
3.999999999999999
100
AcDbArc
 50
234.8850894468232
 51
248.5781784782043
  0
ARC
  5
20F
330
1B2
100
AcDbEntity
  8
0
  6
Continuous
 62
     5
370
     0
100
AcDbCircle
 10
-86.6881894594255
 20
-121.1050418844568
 30
0.0
 40
3.999999999999999
100
AcDbArc
 50
248.5781784782043
 51
315.0
  0
ARC
  5
210
330
1B2
100
AcDbEntity
  8
0
  6
Continuous
 62
     5
370
     0
100
AcDbCircle
 10
-88.51434624625605
 20
-125.7596257960339
 30
0.0
 40
1.0
100
AcDbArc
 50
314.9999999999997
 51
68.57817847820314
  0
LINE
  5
211
330
1B2
100
AcDbEntity
  8
0
  6
Continuous
 62
     5
370
     0
100
AcDbLine
 10
-75.69302440288149
 20
-138.4889210182995
 30
0.0
 11
-75.69302440288149
 21
-135.1625875871431
 31
0.0
  0
SPLINE
  5
212
330
1B2
100
AcDbEntity
  8
0
  6
Continuous
 62
     5
370
     0
100
AcDbSpline
210
0.0
220
0.0
230
1.0
 70
     8
 71
     3
 72
    40
 73
    36
 74
     0
 42
0.0000000001
 43
0.0000000001
 40
0.0
 40
0.0
 40
0.0
 40
0.0
 40
8.975490161910537
 40
8.975490161910537
 40
14.65803272109656
 40
14.65803272109656
 40
18.17080031895384
 40
18.17080031895384
 40
19.47611572897264
 40
19.47611572897264
 40
20.56675100333981
 40
20.56675100333981
 40
21.78594895112724
 40
21.78594895112724
 40
24.00500729994908
 40
24.00500729994908
 40
28.69734849691923
 40
28.69734849691923
 40
37.61080305143364
 40
37.61080305143364
 40
41.54120161583434
 40
41.54120161583434
 40
51.9752907326721
 40
51.9752907326721
 40
60.67634629138255
 40
60.67634629138255
 40
68.63138145618504
 40
68.63138145618504
 40
83.35753467949958
 40
83.35753467949958
 40
100.5390573158486
 40
100.5390573158486
 40
112.8140186131832
 40
112.8140186131832
 40
128.9611245426845
 40
128.9611245426845
 40
128.9611245426845
 40
128.9611245426845
 10
-49.27112864331886
 20
-132.1297534089208
 30
0.0
 10
-46.36812839136311
 20
-132.8533808054341
 30
0.0
 10
-45.35746620236247
 20
-133.0522281716995
 30
0.0
 10
-44.08249255621851
 20
-133.2108628354358
 30
0.0
 10
-43.35019987295547
 20
-133.2734979546031
 30
0.0
 10
-41.78630528011078
 20
-133.3249847367995
 30
0.0
 10
-41.53197947675423
 20
-133.3184273302811
 30
0.0
 10
-41.29217283455338
 20
-133.361084174545
 30
0.0
 10
-41.23963892210414
 20
-133.3775722537197
 30
0.0
 10
-41.15975704492027
 20
-133.4219112880694
 30
0.0
 10
-41.12963995992342
 20
-133.4474862198077
 30
0.0
 10
-41.07522482488659
 20
-133.516570883565
 30
0.0
 10
-41.05432705941322
 20
-133.5589701190975
 30
0.0
 10
-41.01097436379811
 20
-133.6824056014948
 30
0.0
 10
-40.99912360324807
 20
-133.7729818953223
 30
0.0
 10
-40.98622172341149
 20
-134.03490945922
 30
0.0
 10
-41.00701511251119
 20
-134.2651076245839
 30
0.0
 10
-41.18143295102206
 20
-135.1505356815645
 30
0.0
 10
-41.52107211790391
 20
-136.3149616266962
 30
0.0
 10
-42.37070533270113
 20
-137.9790737044638
 30
0.0
 10
-42.67787919237227
 20
-138.4917491426845
 30
0.0
 10
-43.84031581285168
 20
-140.1735018346798
 30
0.0
 10
-44.74046811743093
 20
-140.9811150056658
 30
0.0
 10
-46.50869917527958
 20
-142.1219350853795
 30
0.0
 10
-47.8626002701728
 20
-142.8346209599875
 30
0.0
 10
-51.14659261023027
 20
-143.4534489592471
 30
0.0
 10
-52.60529513161301
 20
-143.370937778226
 30
0.0
 10
-55.18687941385834
 20
-143.0538059729242
 30
0.0
 10
-56.47002037756394
 20
-142.5618583252719
 30
0.0
 10
-60.56188151421335
 20
-140.8295523754503
 30
0.0
 10
-63.20383339162546
 20
-139.643681492386
 30
0.0
 10
-68.17350135639069
 20
-138.5573447929344
 30
0.0
 10
-70.07777875975759
 20
-138.4436403871691
 30
0.0
 10
-73.35195037063042
 20
-138.3935117493591
 30
0.0
 10
-75.24408351092162
 20
-138.5132695290311
 30
0.0
 10
-75.69302440288149
 20
-138.4889210182995
 30
0.0
  0
SPLINE
  5
213
330
1B2
100
AcDbEntity
  8
0
  6
Continuous
 62
     5
370
     0
100
AcDbSpline
210
0.0
220
0.0
230
1.0
 70
     8
 71
     3
 72
    28
 73
    24
 74
     0
 42
0.0000000001
 43
0.0000000001
 40
0.0
 40
0.0
 40
0.0
 40
0.0
 40
6.535483930244351
 40
6.535483930244351
 40
12.71769540029369
 40
12.71769540029369
 40
16.48541300286251
 40
16.48541300286251
 40
19.44610577738095
 40
19.44610577738095
 40
22.04640538782212
 40
22.04640538782212
 40
24.51777579942942
 40
24.51777579942942
 40
27.1248520552607
 40
27.1248520552607
 40
30.57167680522968
 40
30.57167680522968
 40
36.40842774903912
 40
36.40842774903912
 40
51.33946809249305
 40
51.33946809249305
 40
87.27645919152038
 40
87.27645919152038
 40
87.27645919152038
 40
87.27645919152038
 10
-52.50041693061345
 20
-132.0971480905304
 30
0.0
 10
-52.46967057658295
 20
-129.9188704284541
 30
0.0
 10
-52.34852931773978
 20
-126.8765893108889
 30
0.0
 10
-52.1573333561266
 20
-122.7729355056295
 30
0.0
 10
-52.11350916651778
 20
-122.1530399593055
 30
0.0
 10
-51.92911871211865
 20
-121.3681003094986
 30
0.0
 10
-51.83852694822983
 20
-121.1601242752631
 30
0.0
 10
-51.6346447745536
 20
-120.863761166283
 30
0.0
 10
-51.52238469584628
 20
-120.7478781486961
 30
0.0
 10
-51.27192469080362
 20
-120.585808650104
 30
0.0
 10
-51.15313089760658
 20
-120.5421505732951
 30
0.0
 10
-50.94290734612442
 20
-120.5036914007447
 30
0.0
 10
-50.84003668490843
 20
-120.504679539676
 30
0.0
 10
-50.63083969063971
 20
-120.5501767595293
 30
0.0
 10
-50.53253029228037
 20
-120.5952354815034
 30
0.0
 10
-50.3184170619854
 20
-120.7357265993095
 30
0.0
 10
-50.20068283180146
 20
-120.8468586684461
 30
0.0
 10
-49.93021123872515
 20
-121.1997234119808
 30
0.0
 10
-49.881878624285
 20
-121.3725004771328
 30
0.0
 10
-49.80094747396217
 20
-121.6787077719363
 30
0.0
 10
-49.7581362806363
 20
-122.0222536861662
 30
0.0
 10
-49.602182998605
 20
-124.151079254194
 30
0.0
 10
-49.44959535362634
 20
-127.73862852112
 30
0.0
 10
-49.27112864331886
 20
-132.1297534089208
 30
0.0
  0
SPLINE
  5
214
330
1B2
100
AcDbEntity
  8
0
  6
Continuous
 62
     5
370
     0
100
AcDbSpline
210
0.0
220
0.0
230
1.0
 70
     8
 71
     3
 72
    92
 73
    88
 74
     0
 42
0.0000000001
 43
0.0000000001
 40
0.0
 40
0.0
 40
0.0
 40
0.0
 40
11.43298030487773
 40
11.43298030487773
 40
22.3193593176468
 40
22.3193593176468
 40
29.25872805325305
 40
29.25872805325305
 40
33.54211202070621
 40
33.54211202070621
 40
38.11124053575065
 40
38.11124053575065
 40
42.66415673164164
 40
42.66415673164164
 40
45.33830542689858
 40
45.33830542689858
 40
47.21257267739697
 40
47.21257267739697
 40
49.23067849189874
 40
49.23067849189874
 40
51.50323130860753
 40
51.50323130860753
 40
52.83282458115782
 40
52.83282458115782
 40
53.80354407223459
 40
53.80354407223459
 40
54.8791200992744
 40
54.8791200992744
 40
55.90027662106752
 40
55.90027662106752
 40
56.8484839089706
 40
56.8484839089706
 40
57.99198973230594
 40
57.99198973230594
 40
58.65838604696403
 40
58.65838604696403
 40
59.0113322595258
 40
59.0113322595258
 40
59.23728678126828
 40
59.23728678126828
 40
59.47613894797211
 40
59.47613894797211
 40
59.73678395443601
 40
59.73678395443601
 40
60.08746155082448
 40
60.08746155082448
 40
60.44399038969392
 40
60.44399038969392
 40
60.77243524624019
 40
60.77243524624019
 40
61.50917743126994
 40
61.50917743126994
 40
63.18555135607446
 40
63.18555135607446
 40
65.23613861204701
 40
65.23613861204701
 40
67.12062340006569
 40
67.12062340006569
 40
69.33060870796696
 40
69.33060870796696
 40
72.6327736997242
 40
72.6327736997242
 40
76.61190020945628
 40
76.61190020945628
 40
80.86924182577581
 40
80.86924182577581
 40
85.68627106152179
 40
85.68627106152179
 40
90.21861230467811
 40
90.21861230467811
 40
95.87198646699674
 40
95.87198646699674
 40
104.6395440523188
 40
104.6395440523188
 40
114.1212312210232
 40
114.1212312210232
 40
127.3050630763586
 40
127.3050630763586
 40
145.4380609193832
 40
145.4380609193832
 40
162.5312807243832
 40
162.5312807243832
 40
180.2334056030441
 40
180.2334056030441
 40
212.5876702699479
 40
212.5876702699479
 40
279.8105460989784
 40
279.8105460989784
 40
279.8105460989784
 40
279.8105460989784
 10
-56.05591256407385
 20
-132.4884632986357
 30
0.0
 10
-58.9081772204656
 20
-129.9609630926611
 30
0.0
 10
-61.08114079409412
 20
-128.0236699797329
 30
0.0
 10
-64.49200405738927
 20
-125.4165143041325
 30
0.0
 10
-65.84746227169623
 20
-124.6310051944329
 30
0.0
 10
-68.2718836189376
 20
-123.6056784770067
 30
0.0
 10
-69.20223560611972
 20
-123.298431353054
 30
0.0
 10
-70.52243970781112
 20
-123.19822826837
 30
0.0
 10
-70.88201850598463
 20
-123.2609253353887
 30
0.0
 10
-71.45585893127028
 20
-123.4457677938689
 30
0.0
 10
-71.732236099662
 20
-123.5956705266873
 30
0.0
 10
-72.21154672419536
 20
-123.9864526106163
 30
0.0
 10
-72.40028441621345
 20
-124.215372700535
 30
0.0
 10
-72.60196011062564
 20
-124.5916881986107
 30
0.0
 10
-72.68236168458471
 20
-124.7799096848777
 30
0.0
 10
-72.72141857630933
 20
-125.1705230493734
 30
0.0
 10
-72.70688212180513
 20
-125.331307600373
 30
0.0
 10
-72.61851107938079
 20
-125.6548972522885
 30
0.0
 10
-72.54086471049524
 20
-125.8140436508557
 30
0.0
 10
-72.32628329702194
 20
-126.1138159188141
 30
0.0
 10
-72.18796203423309
 20
-126.2427947183339
 30
0.0
 10
-71.96458990165158
 20
-126.3810898409027
 30
0.0
 10
-71.84921582635545
 20
-126.4377026899185
 30
0.0
 10
-71.59879925307016
 20
-126.477720417779
 30
0.0
 10
-71.49243159144541
 20
-126.4743362049229
 30
0.0
 10
-71.27173928951262
 20
-126.4286792281838
 30
0.0
 10
-71.16046921585868
 20
-126.3827327054435
 30
0.0
 10
-70.96329148621063
 20
-126.2635490649505
 30
0.0
 10
-70.85218559709867
 20
-126.1777458502772
 30
0.0
 10
-70.65988885027739
 20
-125.9336476531055
 30
0.0
 10
-70.60091611816162
 20
-125.8113961404558
 30
0.0
 10
-70.50954735017919
 20
-125.571599339815
 30
0.0
 10
-70.45974411419203
 20
-125.3934649450918
 30
0.0
 10
-70.41312010371277
 20
-125.1750762238432
 30
0.0
 10
-70.40529655319639
 20
-125.1197042468077
 30
0.0
 10
-70.38851746122188
 20
-125.0503302775643
 30
0.0
 10
-70.38142186969387
 20
-125.0272873753772
 30
0.0
 10
-70.36487507580225
 20
-124.9985624775239
 30
0.0
 10
-70.35842674045418
 20
-124.9917462550867
 30
0.0
 10
-70.34638439595298
 20
-124.9822199316191
 30
0.0
 10
-70.33943340909534
 20
-124.9786467887435
 30
0.0
 10
-70.32362752687774
 20
-124.9739340184334
 30
0.0
 10
-70.31500520340952
 20
-124.9731482526344
 30
0.0
 10
-70.29483878622452
 20
-124.9743463818663
 30
0.0
 10
-70.28334670266779
 20
-124.9773701610433
 30
0.0
 10
-70.26172567450837
 20
-124.9864224929688
 30
0.0
 10
-70.24635487248244
 20
-124.9946584516204
 30
0.0
 10
-70.21724839594909
 20
-125.0226253372429
 30
0.0
 10
-70.20460235360698
 20
-125.0403740210421
 30
0.0
 10
-70.15800820016031
 20
-125.121953709982
 30
0.0
 10
-70.06161933915516
 20
-125.3312379825784
 30
0.0
 10
-69.88164244288438
 20
-125.8281615924391
 30
0.0
 10
-69.85344103860367
 20
-126.1133518673242
 30
0.0
 10
-69.84146780367743
 20
-126.5671840691599
 30
0.0
 10
-69.87085885124017
 20
-126.8243472341008
 30
0.0
 10
-70.02528749336917
 20
-127.2795925969506
 30
0.0
 10
-70.13148716083808
 20
-127.4494691341701
 30
0.0
 10
-70.40550520631061
 20
-127.7591462126793
 30
0.0
 10
-70.58709748880321
 20
-127.8958732386781
 30
0.0
 10
-71.07835008227991
 20
-128.16170815827
 30
0.0
 10
-71.39126150391209
 20
-128.2451672621821
 30
0.0
 10
-71.98288344244312
 20
-128.3229193269517
 30
0.0
 10
-72.30779096488638
 20
-128.3041426952708
 30
0.0
 10
-72.96129121678697
 20
-128.1290424440734
 30
0.0
 10
-73.27058009655885
 20
-127.967877664454
 30
0.0
 10
-73.86121504265654
 20
-127.5176679650826
 30
0.0
 10
-74.16144991714983
 20
-127.1933276736362
 30
0.0
 10
-74.61059399386383
 20
-126.4157453720513
 30
0.0
 10
-74.74917413490513
 20
-126.0036063391238
 30
0.0
 10
-74.87516516538263
 20
-125.0299316606361
 30
0.0
 10
-74.80797113059608
 20
-124.5302424195491
 30
0.0
 10
-74.58973784901011
 20
-123.5769974204425
 30
0.0
 10
-74.34257193992945
 20
-123.0108559331444
 30
0.0
 10
-73.62107880261621
 20
-121.9991267260065
 30
0.0
 10
-73.20665695555269
 20
-121.6734081147256
 30
0.0
 10
-72.38318224584119
 20
-121.1636676853582
 30
0.0
 10
-71.84478222577761
 20
-120.9637963487588
 30
0.0
 10
-70.53280159767993
 20
-120.6837892238576
 30
0.0
 10
-69.73343896940443
 20
-120.6729812851224
 30
0.0
 10
-68.23400046017806
 20
-120.8965275877983
 30
0.0
 10
-67.36585922408059
 20
-121.1389369087357
 30
0.0
 10
-65.14380909791154
 20
-122.1418745335796
 30
0.0
 10
-64.0194801696293
 20
-122.8251921117416
 30
0.0
 10
-62.68406036892267
 20
-123.6532504600189
 30
0.0
 10
-61.9929632185808
 20
-124.1385844207216
 30
0.0
 10
-59.39495681883156
 20
-126.0756552101591
 30
0.0
 10
-56.24962431508286
 20
-128.5425017118338
 30
0.0
 10
-52.50041693061345
 20
-132.0971480905304
 30
0.0
  0
SPLINE
  5
215
330
1B2
100
AcDbEntity
  8
0
  6
Continuous
 62
     5
370
     0
100
AcDbSpline
210
0.0
220
0.0
230
1.0
 70
     8
 71
     3
 72
    16
 73
    12
 74
     0
 42
0.0000000001
 43
0.0000000001
 40
0.0
 40
0.0
 40
0.0
 40
0.0
 40
3.649116047729997
 40
3.649116047729997
 40
12.72893235347643
 40
12.72893235347643
 40
39.21576413409697
 40
39.21576413409697
 40
74.94343351498013
 40
74.94343351498013
 40
126.4597794485471
 40
126.4597794485471
 40
126.4597794485471
 40
126.4597794485471
 10
-75.69302440288149
 20
-135.1625875871431
 30
0.0
 10
-74.47972936678522
 20
-135.2490516633416
 30
0.0
 10
-73.872278315285
 20
-135.2830128254014
 30
0.0
 10
-69.63353951620158
 20
-135.4726204312209
 30
0.0
 10
-68.81997338839616
 20
-135.4530933797697
 30
0.0
 10
-67.51578022679834
 20
-135.4341674300308
 30
0.0
 10
-66.42700749081834
 20
-135.3670019767587
 30
0.0
 10
-63.50923015782652
 20
-134.8261077521892
 30
0.0
 10
-62.38784784415585
 20
-134.3878838556994
 30
0.0
 10
-59.62873535978335
 20
-133.2741159774718
 30
0.0
 10
-58.24262438602111
 20
-132.6697776920088
 30
0.0
 10
-56.05591256407385
 20
-132.4884632986357
 30
0.0
  0
LINE
  5
216
330
1B2
100
AcDbEntity
  8
0
  6
Continuous
 62
     5
370
     0
100
AcDbLine
 10
-75.75820934595205
 20
-144.1306688482484
 30
0.0
 11
-75.75820934595205
 21
-142.4022786490343
 31
0.0
  0
SPLINE
  5
217
330
1B2
100
AcDbEntity
  8
0
  6
Continuous
 62
     5
370
     0
100
AcDbSpline
210
0.0
220
0.0
230
1.0
 70
     8
 71
     3
 72
    48
 73
    44
 74
     0
 42
0.0000000001
 43
0.0000000001
 40
0.0
 40
0.0
 40
0.0
 40
0.0
 40
15.95599854878338
 40
15.95599854878338
 40
21.97382208926259
 40
21.97382208926259
 40
36.88173959068752
 40
36.88173959068752
 40
43.87803681578341
 40
43.87803681578341
 40
52.14440307794713
 40
52.14440307794713
 40
63.03170836209978
 40
63.03170836209978
 40
78.10297117074327
 40
78.10297117074327
 40
86.0666738883544
 40
86.0666738883544
 40
92.15184098968565
 40
92.15184098968565
 40
97.04510508571761
 40
97.04510508571761
 40
101.5132444025293
 40
101.5132444025293
 40
106.1544568451482
 40
106.1544568451482
 40
111.8344312666211
 40
111.8344312666211
 40
120.7195302070158
 40
120.7195302070158
 40
130.6598164923266
 40
130.6598164923266
 40
145.8190671382634
 40
145.8190671382634
 40
167.7127853083513
 40
167.7127853083513
 40
196.5370029248974
 40
196.5370029248974
 40
206.0573471997551
 40
206.0573471997551
 40
223.0153707693373
 40
223.0153707693373
 40
246.3686774750325
 40
246.3686774750325
 40
246.3686774750325
 40
246.3686774750325
 10
-75.75820934595205
 20
-142.4022786490343
 30
0.0
 10
-70.44130661305437
 20
-142.2653286788805
 30
0.0
 10
-67.16799328453541
 20
-143.217335936818
 30
0.0
 10
-63.63738339856192
 20
-144.4523349222547
 30
0.0
 10
-62.33413206885299
 20
-144.9355894592067
 30
0.0
 10
-58.94513877640585
 20
-146.1652056551709
 30
0.0
 10
-56.94005947610751
 20
-146.8359896606662
 30
0.0
 10
-53.34749356214612
 20
-147.0936877137187
 30
0.0
 10
-52.22944886737625
 20
-147.0567769954091
 30
0.0
 10
-49.70829853216489
 20
-146.7577970852943
 30
0.0
 10
-48.23595751007516
 20
-146.4492219206179
 30
0.0
 10
-45.18241227903101
 20
-145.5689368961305
 30
0.0
 10
-44.23526637053029
 20
-145.1062226129506
 30
0.0
 10
-42.67636394302368
 20
-144.2492351507597
 30
0.0
 10
-42.11109831942278
 20
-143.8065238396116
 30
0.0
 10
-41.24418343541239
 20
-143.4558564444044
 30
0.0
 10
-40.95330352343964
 20
-143.3979618524796
 30
0.0
 10
-40.4871396257665
 20
-143.3995603534769
 30
0.0
 10
-40.30077264351641
 20
-143.4345836663272
 30
0.0
 10
-40.00685825411889
 20
-143.5560651482457
 30
0.0
 10
-39.8878151404858
 20
-143.6324309848665
 30
0.0
 10
-39.69637708557477
 20
-143.8241571594229
 30
0.0
 10
-39.62386514367265
 20
-143.9325538701854
 30
0.0
 10
-39.52353183298598
 20
-144.1774530256241
 30
0.0
 10
-39.49939862967605
 20
-144.309776558534
 30
0.0
 10
-39.49875791310044
 20
-144.6103603465628
 30
0.0
 10
-39.53400758428936
 20
-144.7737952308405
 30
0.0
 10
-39.68240270754061
 20
-145.1724198897077
 30
0.0
 10
-39.82926800849438
 20
-145.3993556266283
 30
0.0
 10
-40.17907238636891
 20
-145.8257325655032
 30
0.0
 10
-40.52200254510305
 20
-146.1873837466846
 30
0.0
 10
-42.28649684977901
 20
-147.3873775093322
 30
0.0
 10
-43.8135056100152
 20
-148.1223543679416
 30
0.0
 10
-47.99183465737402
 20
-149.4465152706052
 30
0.0
 10
-50.8618132355675
 20
-149.8332264845694
 30
0.0
 10
-56.28464622344811
 20
-149.8522094034476
 30
0.0
 10
-58.3742701134897
 20
-149.2066171997529
 30
0.0
 10
-61.33963717989965
 20
-148.0065096970103
 30
0.0
 10
-61.91015296963811
 20
-147.7592088475656
 30
0.0
 10
-64.82531342391595
 20
-146.5013833634668
 30
0.0
 10
-65.92273328055691
 20
-146.0262933792323
 30
0.0
 10
-69.41906832315973
 20
-144.9117477670823
 30
0.0
 10
-72.03757475633754
 20
-144.3382595123018
 30
0.0
 10
-75.75820934595205
 20
-144.1306688482484
 30
0.0
  0
LINE
  5
218
330
1B2
100
AcDbEntity
  8
0
  6
Continuous
 62
     5
370
     0
100
AcDbLine
 10
-47.82087207000319
 20
-156.598886013284
 30
0.0
 11
-27.35323138288322
 21
-136.1312453261645
 31
0.0
  0
ARC
  5
219
330
1B2
100
AcDbEntity
  8
0
  6
Continuous
 62
     5
370
     0
100
AcDbCircle
 10
-52.77061953830909
 20
-151.649138544978
 30
0.0
 40
6.999999999999999
100
AcDbArc
 50
270.0
 51
314.9999999999995
  0
LINE
  5
21A
330
1B2
100
AcDbEntity
  8
0
  6
Continuous
 62
     5
370
     0
100
AcDbLine
 10
-63.84116062299208
 20
-158.6491385449781
 30
0.0
 11
-52.77061953830898
 21
-158.6491385449781
 31
0.0
  0
LINE
  5
21B
330
1B2
100
AcDbEntity
  8
0
  6
Continuous
 62
     5
370
     0
100
AcDbLine
 10
-27.3532313828833
 20
-134.7170317637914
 30
0.0
 11
-47.82087207000333
 21
-114.2493910766719
 31
0.0
  0
ARC
  5
21C
330
1B2
100
AcDbEntity
  8
0
  6
Continuous
 62
     5
370
     0
100
AcDbCircle
 10
-63.84116062299219
 20
-138.6491385449781
 30
0.0
 40
20.0
100
AcDbArc
 50
224.9999999999986
 51
270.0
  0
ARC
  5
21D
330
1B2
100
AcDbEntity
  8
0
  6
Continuous
 62
     5
370
     0
100
AcDbCircle
 10
-52.77061953830909
 20
-119.1991385449778
 30
0.0
 40
6.999999999999999
100
AcDbArc
 50
45.00000000000057
 51
90.0
  0
LINE
  5
21E
330
1B2
100
AcDbEntity
  8
0
  6
Continuous
 62
     5
370
     0
100
AcDbLine
 10
-89.69357762096143
 20
-141.0809927944703
 30
0.0
 11
-77.98329624672326
 21
-152.7912741687088
 31
0.0
  0
LINE
  5
21F
330
1B2
100
AcDbEntity
  8
0
  6
Continuous
 62
     5
370
     0
100
AcDbLine
 10
-52.77061953830898
 20
-112.1991385449778
 30
0.0
 11
-63.84116062299208
 21
-112.1991385449778
 31
0.0
  0
ARC
  5
220
330
1B2
100
AcDbEntity
  8
0
  6
Continuous
 62
     5
370
     0
100
AcDbCircle
 10
-84.03672337146891
 20
-135.4241385449778
 30
0.0
 40
8.0
100
AcDbArc
 50
135.0000000000013
 51
224.9999999999986
  0
ARC
  5
221
330
1B2
100
AcDbEntity
  8
0
  6
Continuous
 62
     5
370
     0
100
AcDbCircle
 10
-63.84116062299219
 20
-132.1991385449778
 30
0.0
 40
20.0
100
AcDbArc
 50
90.0
 51
135.0000000000014
  0
LINE
  5
222
330
1B2
100
AcDbEntity
  8
0
  6
Continuous
 62
     5
370
     0
100
AcDbLine
 10
-77.98329624672328
 20
-118.057002921247
 30
0.0
 11
-89.69357762096139
 21
-129.7672842954854
 31
0.0
  0
ARC
  5
223
330
1B2
100
AcDbEntity
  8
0
  6
Continuous
 62
     5
370
     0
100
AcDbCircle
 10
-28.06033816406986
 20
-135.424138544978
 30
0.0
 40
0.999999999999998
100
AcDbArc
 50
315.0
 51
45.0000000000023
  0
LINE
  5
224
330
1B2
100
AcDbEntity
  8
0
  6
Continuous
 62
     5
370
     0
100
AcDbLine
 10
-93.69827823607622
 20
-121.3116385449777
 30
0.0
 11
-93.69827823607622
 21
-121.4178402920897
 31
0.0
  0
LINE
  5
225
330
1B2
100
AcDbEntity
  8
0
  6
Continuous
 62
     5
370
     0
100
AcDbLine
 10
-95.79827823607553
 20
-117.3116385449777
 30
0.0
 11
-95.7982782360755
 21
-114.6491385449778
 31
0.0
  0
LINE
  5
226
330
1B2
100
AcDbEntity
  8
0
  6
Continuous
 62
     5
370
     0
100
AcDbLine
 10
-95.79827823607587
 20
-153.536638544977
 30
0.0
 11
-95.79827823607592
 21
-149.536638544977
 31
0.0
  0
LINE
  5
227
330
1B2
100
AcDbEntity
  8
0
  6
Continuous
 62
     5
370
     0
100
AcDbLine
 10
-95.79827823607553
 20
-153.536638544977
 30
0.0
 11
-95.7982782360755
 21
-156.1991385449769
 31
0.0
  0
LINE
  5
228
330
1B2
100
AcDbEntity
  8
0
  6
Continuous
 62
     5
370
     0
100
AcDbLine
 10
-95.79827823607544
 20
-156.1991385449769
 30
0.0
 11
-90.17963672350854
 21
-156.1991385449769
 31
0.0
  0
LINE
  5
229
330
1B2
100
AcDbEntity
  8
0
  6
Continuous
 62
     5
370
     0
100
AcDbLine
 10
-90.17963672350854
 20
-158.6491385449778
 30
0.0
 11
-90.17963672350854
 21
-156.1991385449778
 31
0.0
  0
LINE
  5
22A
330
1B2
100
AcDbEntity
  8
0
  6
Continuous
 62
     5
370
     0
100
AcDbLine
 10
-82.17963672350853
 20
-158.6491385449778
 30
0.0
 11
-90.17963672350854
 21
-158.6491385449778
 31
0.0
  0
LINE
  5
22B
330
1B2
100
AcDbEntity
  8
0
  6
Continuous
 62
     5
370
     0
100
AcDbLine
 10
-82.17963672350876
 20
-156.1991385449778
 30
0.0
 11
-82.17963672350876
 21
-158.6491385449778
 31
0.0
  0
LINE
  5
22C
330
1B2
100
AcDbEntity
  8
0
  6
Continuous
 62
     5
370
     0
100
AcDbLine
 10
-73.432693347224
 20
-156.1991385449778
 30
0.0
 11
-82.17963672350876
 21
-156.1991385449778
 31
0.0
  0
LINE
  5
22D
330
1B2
100
AcDbEntity
  8
0
  6
Continuous
 62
     5
370
     0
100
AcDbLine
 10
-34.19827823607611
 20
-156.1991385449778
 30
0.0
 11
-47.42112460169717
 21
-156.1991385449778
 31
0.0
  0
LINE
  5
22E
330
1B2
100
AcDbEntity
  8
0
  6
Continuous
 62
     5
370
     0
100
AcDbLine
 10
-34.19827823607622
 20
-148.3453830652577
 30
0.0
 11
-34.19827823607622
 21
-156.1991385449778
 31
0.0
  0
ARC
  5
22F
330
1B2
100
AcDbEntity
  8
0
  6
Continuous
 62
     5
370
     0
100
AcDbCircle
 10
-21.74827823607618
 20
-148.3453830652577
 30
0.0
 40
12.45
100
AcDbArc
 50
135.0
 51
180.0
  0
LINE
  5
230
330
1B2
100
AcDbEntity
  8
0
  6
Continuous
 62
     5
370
     0
100
AcDbLine
 10
-27.24716536570561
 20
-136.2373113433423
 30
0.0
 11
-30.55175766184871
 21
-139.5419036394852
 31
0.0
  0
ARC
  5
231
330
1B2
100
AcDbEntity
  8
0
  6
Continuous
 62
     5
370
     0
100
AcDbCircle
 10
-28.06033816407009
 20
-135.4241385449778
 30
0.0
 40
1.149999999999999
100
AcDbArc
 50
314.9999999999997
 51
45.00000000000029
  0
LINE
  5
232
330
1B2
100
AcDbEntity
  8
0
  6
Continuous
 62
     5
370
     0
100
AcDbLine
 10
-27.24716536570564
 20
-134.6109657466134
 30
0.0
 11
-30.55175766184874
 21
-131.3063734504704
 31
0.0
  0
ARC
  5
233
330
1B2
100
AcDbEntity
  8
0
  6
Continuous
 62
     5
370
     0
100
AcDbCircle
 10
-21.74827823607618
 20
-122.502894024698
 30
0.0
 40
12.45
100
AcDbArc
 50
180.0
 51
225.0
  0
LINE
  5
234
330
1B2
100
AcDbEntity
  8
0
  6
Continuous
 62
     5
370
     0
100
AcDbLine
 10
-34.19827823607622
 20
-114.6491385449778
 30
0.0
 11
-34.19827823607622
 21
-122.502894024698
 31
0.0
  0
LINE
  5
235
330
1B2
100
AcDbEntity
  8
0
  6
Continuous
 62
     5
370
     0
100
AcDbLine
 10
-47.42112460169741
 20
-114.6491385449778
 30
0.0
 11
-34.19827823607611
 21
-114.6491385449778
 31
0.0
  0
LINE
  5
236
330
1B2
100
AcDbEntity
  8
0
  6
Continuous
 62
     5
370
     0
100
AcDbLine
 10
-95.79827823607544
 20
-114.6491385449778
 30
0.0
 11
-73.43269334722359
 21
-114.6491385449778
 31
0.0
  0
LINE
  5
237
330
1B2
100
AcDbEntity
  8
0
  6
Continuous
 62
     5
370
     0
100
AcDbLine
 10
-95.79827823607587
 20
-117.3116385449777
 30
0.0
 11
-95.79827823607592
 21
-121.3116385449777
 31
0.0
  0
LINE
  5
238
330
1B2
100
AcDbEntity
  8
0
  6
Continuous
 62
     5
370
     0
100
AcDbLine
 10
-93.69827823607622
 20
-121.3116385449777
 30
0.0
 11
-93.69827823607622
 21
-117.3116385449777
 31
0.0
  0
LINE
  5
239
330
1B2
100
AcDbEntity
  8
0
  6
Continuous
 62
     5
370
     0
100
AcDbLine
 10
-93.69827823607622
 20
-149.536638544977
 30
0.0
 11
-93.69827823607622
 21
-153.536638544977
 31
0.0
  0
LINE
  5
23A
330
1B2
100
AcDbEntity
  8
0
  6
Continuous
 62
     5
370
     0
100
AcDbLine
 10
-94.61388468308607
 20
-121.3116385449777
 30
0.0
 11
-93.69827823607622
 21
-121.3116385449777
 31
0.0
  0
LINE
  5
23B
330
1B2
100
AcDbEntity
  8
0
  6
Continuous
 62
     5
370
     0
100
AcDbLine
 10
-93.69827823607622
 20
-149.536638544977
 30
0.0
 11
-93.69827823607622
 21
-149.4304367978662
 31
0.0
  0
LINE
  5
23C
330
1B2
100
AcDbEntity
  8
0
  6
Continuous
 62
     5
370
     0
100
AcDbLine
 10
-94.61388468308607
 20
-149.536638544977
 30
0.0
 11
-93.69827823607622
 21
-149.536638544977
 31
0.0
  0
ENDBLK
  5
23D
330
1B2
100
AcDbEntity
  8
0
 62
   177
100
AcDbBlockEnd
  0
BLOCK
  5
244
330
240
100
AcDbEntity
  8
0
100
AcDbBlockBegin
  2
A$C24495478
 70
     0
 10
0.0
 20
0.0
 30
0.0
  3
A$C24495478
  1

  0
INSERT
  5
241
330
240
100
AcDbEntity
  8
0
 62
   177
100
AcDbBlockReference
  2
A$C684E0D0A
 10
-24.46033847661113
 20
-112.1991382802699
 30
0.0000000000000192
 50
180.0
  0
ENDBLK
  5
245
330
240
100
AcDbEntity
  8
0
100
AcDbBlockEnd
  0
ENDSEC
  0
SECTION
  2
ENTITIES
  0
INSERT
  5
247
330
1F
100
AcDbEntity
  8
0
 62
   177
100
AcDbBlockReference
  2
A$C684E0D0A
 10
-52.19047370307747
 20
-139.0433655931979
 30
0.0000000000000159
 50
180.0
  0
SPLINE
  5
256
330
1F
100
AcDbEntity
  8
0
  6
Continuous
 62
     5
370
     0
100
AcDbSpline
210
0.0
220
0.0000000000000002
230
1.0
 70
     8
 71
     3
 72
    11
 73
     7
 74
     0
 42
0.0000000001
 43
0.0000000001
 40
0.0
 40
0.0
 40
0.0
 40
0.0
 40
0.07692307692308
 40
0.1538461538462
 40
0.2307692307692
 40
0.2328709017367021
 40
0.2328709017367021
 40
0.2328709017367021
 40
0.2328709017367021
 10
-4.093605979320685
 20
93.3360048555196
 30
0.0000000000000045
 10
-4.066867224647346
 20
93.31607424729046
 30
0.0000000000000045
 10
-4.0072810354592
 20
93.28642066076595
 30
0.0000000000000045
 10
-3.894316112254863
 20
93.27169314217881
 30
0.0000000000000045
 10
-3.812432653962375
 20
93.28391885200165
 30
0.0000000000000045
 10
-3.769412389086511
 20
93.29594316640472
 30
0.0000000000000045
 10
-3.768267234748392
 20
93.29626706750687
 30
0.0000000000000045
  0
SPLINE
  5
29D
330
1F
100
AcDbEntity
  8
0
  6
Continuous
 62
     5
370
     0
100
AcDbSpline
210
-0.0000000000000172
220
-0.0000000000000413
230
-1.0
 70
     8
 71
     3
 72
    12
 73
     8
 74
     0
 42
0.0000000001
 43
0.0000000001
 40
0.0
 40
0.0
 40
0.0
 40
0.0
 40
1.364308584763529
 40
1.364308584763529
 40
3.06194423352125
 40
3.06194423352125
 40
4.550524406168641
 40
4.550524406168641
 40
4.550524406168641
 40
4.550524406168641
 10
10.84613732290722
 20
98.33679474385633
 30
0.0000000000000039
 10
10.4335637543711
 20
98.52810175986519
 30
0.0000000000000038
 10
9.979887898784227
 20
98.68870666332529
 30
0.0000000000000038
 10
8.957866123513895
 20
99.04317892075182
 30
0.0000000000000038
 10
8.298650809738319
 20
99.26769678622349
 30
0.0000000000000037
 10
6.52651791557696
 20
100.0332788675938
 30
0.0000000000000037
 10
5.12154619411649
 20
100.7013130486401
 30
0.0000000000000036
 10
3.995885828268228
 20
101.2065766364163
 30
0.0000000000000035
  0
SPLINE
  5
29E
330
1F
100
AcDbEntity
  8
0
  6
Continuous
 62
     5
370
     0
100
AcDbSpline
210
-0.0000000000000022
220
0.0000000000000059
230
1.0
 70
     8
 71
     3
 72
    12
 73
     8
 74
     0
 42
0.0000000001
 43
0.0000000001
 40
0.0
 40
0.0
 40
0.0
 40
0.0
 40
0.8611962635134368
 40
0.8611962635134368
 40
2.696893567661064
 40
2.696893567661064
 40
4.062951028608774
 40
4.062951028608774
 40
4.062951028608774
 40
4.062951028608774
 10
3.278363273997229
 20
95.46696146387564
 30
0.0000000000000042
 10
3.565414924477181
 20
95.46977322292462
 30
0.0000000000000042
 10
3.961629165220983
 20
95.5474320834436
 30
0.0000000000000042
 10
4.63785971618563
 20
95.69233976499935
 30
0.0000000000000042
 10
5.786252784740099
 20
95.97684640292499
 30
0.0000000000000041
 10
8.242549144253189
 20
96.99959334533119
 30
0.000000000000004
 10
9.328936554174788
 20
97.55139864133855
 30
0.000000000000004
 10
10.84613732290722
 20
98.33679474385633
 30
0.0000000000000039
  0
SPLINE
  5
29F
330
1F
100
AcDbEntity
  8
0
  6
Continuous
 62
     5
370
     0
100
AcDbSpline
210
0.0
220
-0.0000000000000001
230
-1.0
 70
    11
 71
     3
 72
    42
 73
    38
 74
     0
 42
0.0000000001
 43
0.0000000001
 40
0.0
 40
0.0
 40
0.0
 40
0.0
 40
0.4650760900567636
 40
0.4650760900567636
 40
0.8490659103278353
 40
0.8490659103278353
 40
1.330087909034843
 40
1.330087909034843
 40
2.056500231732806
 40
2.056500231732806
 40
2.709881673748127
 40
2.709881673748127
 40
3.407299410893397
 40
3.407299410893397
 40
3.979070485116281
 40
3.979070485116281
 40
4.441788130075128
 40
4.441788130075128
 40
4.960367540180078
 40
4.960367540180078
 40
5.45319376851812
 40
5.45319376851812
 40
5.932252554650982
 40
5.932252554650982
 40
6.340582223260947
 40
6.340582223260947
 40
6.690463276328176
 40
6.690463276328176
 40
7.012048433000362
 40
7.012048433000362
 40
7.334158714487754
 40
7.334158714487754
 40
7.660641924251207
 40
7.660641924251207
 40
7.857939229036575
 40
7.857939229036575
 40
8.084950701316081
 40
8.084950701316081
 40
8.084950701316081
 40
8.084950701316081
 10
0.0
 20
100.0
 30
0.0000000000000037
 10
-0.1546491811682245
 20
100.0107932407786
 30
0.0000000000000037
 10
-0.3077943044199856
 20
99.99564045129586
 30
0.0000000000000037
 10
-0.5756631959191055
 20
99.90507421267393
 30
0.0000000000000037
 10
-0.6858746165014509
 20
99.84279345711701
 30
0.0000000000000037
 10
-0.9083418430282108
 20
99.66007396986226
 30
0.0000000000000037
 10
-0.9963516548591542
 20
99.54349370592503
 30
0.0000000000000037
 10
-1.145388446731658
 20
99.30470751088456
 30
0.0000000000000037
 10
-1.207012713961375
 20
99.14835156959737
 30
0.0000000000000038
 10
-1.258769131143253
 20
98.8316072575829
 30
0.0000000000000038
 10
-1.254299025018781
 20
98.67980688339157
 30
0.0000000000000038
 10
-1.189225424256846
 20
98.37244838107416
 30
0.0000000000000039
 10
-1.125080606637311
 20
98.21895591740627
 30
0.0000000000000039
 10
-0.964457807967392
 20
97.97237904096427
 30
0.0000000000000039
 10
-0.8620151685227028
 20
97.85102179289209
 30
0.0000000000000039
 10
-0.5992828994899356
 20
97.67198287540816
 30
0.0000000000000039
 10
-0.4695442774600452
 20
97.61746901411044
 30
0.0000000000000039
 10
-0.1756087445514822
 20
97.5497705210239
 30
0.000000000000004
 10
0.0015700853343787
 20
97.5397931493854
 30
0.000000000000004
 10
0.3488687300136917
 20
97.59048847933749
 30
0.0000000000000039
 10
0.4988551873070719
 20
97.64346158959
 30
0.0000000000000039
 10
0.763455678041737
 20
97.80157146341728
 30
0.0000000000000039
 10
0.8786875327032248
 20
97.90512578638089
 30
0.0000000000000039
 10
1.049665718097003
 20
98.12899664008671
 30
0.0000000000000039
 10
1.128642499284524
 20
98.26488362034854
 30
0.0000000000000039
 10
1.218592897148027
 20
98.60769346975558
 30
0.0000000000000038
 10
1.230885101409057
 20
98.77740477174015
 30
0.0000000000000038
 10
1.194527090668998
 20
99.08785531783815
 30
0.0000000000000038
 10
1.151143489954392
 20
99.22505731313382
 30
0.0000000000000037
 10
1.003732203697836
 20
99.48641094617522
 30
0.0000000000000037
 10
0.9056450985071933
 20
99.5998604290005
 30
0.0000000000000037
 10
0.683076507778651
 20
99.8039919101247
 30
0.0000000000000037
 10
0.5778787446465686
 20
99.87635130414815
 30
0.0000000000000037
 10
0.3972793535642722
 20
99.95488292889323
 30
0.0000000000000037
 10
0.3270995004886572
 20
99.97566196905223
 30
0.0000000000000037
 10
0.1700365205092567
 20
100.0025932738744
 30
0.0000000000000037
 10
0.08498547167369
 20
100.0055831473925
 30
0.0000000000000037
 10
0.0
 20
100.0
 30
0.0000000000000037
  0
SPLINE
  5
2A0
330
1F
100
AcDbEntity
  8
0
  6
Continuous
 62
     5
370
     0
100
AcDbSpline
210
0.0000000000000004
220
0.0000000000000002
230
1.0
 70
     8
 71
     3
 72
    14
 73
    10
 74
     0
 42
0.0000000001
 43
0.0000000001
 40
0.0
 40
0.0
 40
0.0
 40
0.0
 40
2.316931796331488
 40
2.316931796331488
 40
4.272323557282146
 40
4.272323557282146
 40
5.835316947694626
 40
5.835316947694626
 40
7.889615776045385
 40
7.889615776045385
 40
7.889615776045385
 40
7.889615776045385
 10
-3.278209111735577
 20
95.40180221451549
 30
0.0000000000000042
 10
-3.806953616190412
 20
95.96473463496421
 30
0.0000000000000041
 10
-4.155269410195614
 20
96.50528816811025
 30
0.0000000000000041
 10
-4.664982795098239
 20
97.88143414093021
 30
0.0000000000000039
 10
-4.730255985765325
 20
98.32258985288877
 30
0.0000000000000039
 10
-4.721883673276806
 20
99.10768313605395
 30
0.0000000000000038
 10
-4.668457663578465
 20
99.4518277440418
 30
0.0000000000000037
 10
-4.467034006001085
 20
100.2306369570971
 30
0.0000000000000036
 10
-4.292778245540375
 20
100.6660745809272
 30
0.0000000000000036
 10
-4.093753170860054
 20
101.0761296691445
 30
0.0000000000000035
  0
SPLINE
  5
2A1
330
1F
100
AcDbEntity
  8
0
  6
Continuous
 62
     5
370
     0
100
AcDbSpline
210
0.0000000000000004
220
0.0000000000000025
230
1.0
 70
     8
 71
     3
 72
    16
 73
    12
 74
     0
 42
0.0000000001
 43
0.0000000001
 40
0.0
 40
0.0
 40
0.0
 40
0.0
 40
1.133746974381422
 40
1.133746974381422
 40
1.768993046405403
 40
1.768993046405403
 40
3.347301494502432
 40
3.347301494502432
 40
3.974353243253636
 40
3.974353243253636
 40
3.993312392916846
 40
3.993312392916846
 40
3.993312392916846
 40
3.993312392916846
 10
-8.398914190196137
 20
96.11534224368757
 30
0.0000000000000041
 10
-8.024680085795125
 20
96.16796429002603
 30
0.0000000000000041
 10
-7.769441704789414
 20
96.16669823863459
 30
0.0000000000000041
 10
-7.382277248480477
 20
96.14017530150636
 30
0.0000000000000041
 10
-6.875940508363328
 20
96.09505134939036
 30
0.0000000000000041
 10
-5.924504561687172
 20
95.97916120710436
 30
0.0000000000000041
 10
-5.448785271148381
 20
95.85124132804754
 30
0.0000000000000042
 10
-4.485852786493751
 20
95.62064226171953
 30
0.0000000000000042
 10
-4.181466922605522
 20
95.55005146551883
 30
0.0000000000000042
 10
-3.80475381811857
 20
95.47860181905809
 30
0.0000000000000042
 10
-3.363343443226312
 20
95.39482121282791
 30
0.0000000000000042
 10
-3.278209111735577
 20
95.40180221451549
 30
0.0000000000000042
  0
SPLINE
  5
2A2
330
1F
100
AcDbEntity
  8
0
  6
Continuous
 62
     5
370
     0
100
AcDbSpline
210
-0.0000000000000005
220
0.0000000000000002
230
1.0
 70
     8
 71
     3
 72
    14
 73
    10
 74
     0
 42
0.0000000001
 43
0.0000000001
 40
0.0
 40
0.0
 40
0.0
 40
0.0
 40
2.819609614042798
 40
2.819609614042798
 40
5.13590882311513
 40
5.13590882311513
 40
7.784155402659747
 40
7.784155402659747
 40
10.97009048417137
 40
10.97009048417137
 40
10.97009048417137
 40
10.97009048417137
 10
3.995885828268228
 20
101.2065766364163
 30
0.0000000000000035
 10
4.422837361425081
 20
100.3692787423535
 30
0.0000000000000036
 10
4.620857022446216
 20
99.71991544757692
 30
0.0000000000000037
 10
4.722329696486212
 20
98.62518477009992
 30
0.0000000000000038
 10
4.675809923859105
 20
98.12405226710957
 30
0.0000000000000039
 10
4.397098887241099
 20
97.09804606190283
 30
0.000000000000004
 10
4.166806121669424
 20
96.68128503545762
 30
0.0000000000000041
 10
3.719830027815987
 20
95.99701936575213
 30
0.0000000000000041
 10
3.455361439619082
 20
95.68513813146603
 30
0.0000000000000042
 10
3.278363273997229
 20
95.46696146387564
 30
0.0000000000000042
  0
SPLINE
  5
2A3
330
1F
100
AcDbEntity
  8
0
  6
Continuous
 62
     5
370
     0
100
AcDbSpline
210
0.0000000000000035
220
-0.0000000000000031
230
-1.0
 70
     8
 71
     3
 72
    16
 73
    12
 74
     0
 42
0.0000000001
 43
0.0000000001
 40
0.0
 40
0.0
 40
0.0
 40
0.0
 40
1.187532317290299
 40
1.187532317290299
 40
1.905921102485764
 40
1.905921102485764
 40
2.53773864462305
 40
2.53773864462305
 40
3.177038670758485
 40
3.177038670758485
 40
3.793663995600983
 40
3.793663995600983
 40
3.793663995600983
 40
3.793663995600983
 10
-4.093753170860054
 20
101.0761296691445
 30
0.0000000000000035
 10
-4.452792886654151
 20
100.909447220908
 30
0.0000000000000035
 10
-4.709873810159706
 20
100.7475911201778
 30
0.0000000000000036
 10
-5.199406375729267
 20
100.4029828343605
 30
0.0000000000000036
 10
-5.659680355296586
 20
100.0785911702128
 30
0.0000000000000036
 10
-6.400081669286919
 20
99.42708538131462
 30
0.0000000000000037
 10
-6.710161709112526
 20
99.097635058015
 30
0.0000000000000038
 10
-7.424419696921177
 20
98.10700909323708
 30
0.0000000000000039
 10
-7.827836112004661
 20
97.43113533573888
 30
0.000000000000004
 10
-8.259390083106836
 20
96.59426606149578
 30
0.0000000000000041
 10
-8.333428994428686
 20
96.36697645669844
 30
0.0000000000000041
 10
-8.398914190196137
 20
96.11534224368757
 30
0.0000000000000041
  0
LINE
  5
2AD
330
1F
100
AcDbEntity
  8
0
  6
Continuous
 62
     5
370
     0
100
AcDbLine
 10
23.50255069980403
 20
99.44555542510158
 30
0.0000000000000037
 11
23.50255069980403
 21
96.1192219939452
 31
0.0000000000000041
  0
SPLINE
  5
2AE
330
1F
100
AcDbEntity
  8
0
  6
Continuous
 62
     5
370
     0
100
AcDbSpline
210
0.0
220
0.0000000000000002
230
1.0
 70
     8
 71
     3
 72
    40
 73
    36
 74
     0
 42
0.0000000001
 43
0.0000000001
 40
0.0
 40
0.0
 40
0.0
 40
0.0
 40
8.975490161910537
 40
8.975490161910537
 40
14.65803272109656
 40
14.65803272109656
 40
18.17080031895384
 40
18.17080031895384
 40
19.47611572897264
 40
19.47611572897264
 40
20.56675100333981
 40
20.56675100333981
 40
21.78594895112724
 40
21.78594895112724
 40
24.00500729994908
 40
24.00500729994908
 40
28.69734849691923
 40
28.69734849691923
 40
37.61080305143364
 40
37.61080305143364
 40
41.54120161583434
 40
41.54120161583434
 40
51.9752907326721
 40
51.9752907326721
 40
60.67634629138255
 40
60.67634629138255
 40
68.63138145618504
 40
68.63138145618504
 40
83.35753467949958
 40
83.35753467949958
 40
100.5390573158486
 40
100.5390573158486
 40
112.8140186131832
 40
112.8140186131832
 40
128.9611245426845
 40
128.9611245426845
 40
128.9611245426845
 40
128.9611245426845
 10
-2.919345059758597
 20
93.08638781572289
 30
0.0000000000000045
 10
-5.822345311714343
 20
93.81001521223627
 30
0.0000000000000044
 10
-6.833007500714984
 20
94.00886257850164
 30
0.0000000000000044
 10
-8.107981146858946
 20
94.16749724223791
 30
0.0000000000000044
 10
-8.840273830121986
 20
94.23013236140523
 30
0.0000000000000044
 10
-10.40416842296667
 20
94.28161914360158
 30
0.0000000000000044
 10
-10.65849422632322
 20
94.27506173708321
 30
0.0000000000000044
 10
-10.89830086852407
 20
94.31771858134709
 30
0.0000000000000044
 10
-10.95083478097331
 20
94.33420666052176
 30
0.0000000000000043
 10
-11.03071665815719
 20
94.37854569487155
 30
0.0000000000000043
 10
-11.06083374315403
 20
94.40412062660982
 30
0.0000000000000043
 10
-11.11524887819087
 20
94.47320529036716
 30
0.0000000000000043
 10
-11.13614664366423
 20
94.51560452589959
 30
0.0000000000000043
 10
-11.17949933927934
 20
94.63904000829694
 30
0.0000000000000043
 10
-11.19135009982938
 20
94.72961630212438
 30
0.0000000000000043
 10
-11.20425197966597
 20
94.99154386602208
 30
0.0000000000000043
 10
-11.18345859056626
 20
95.22174203138598
 30
0.0000000000000042
 10
-11.0090407520554
 20
96.10717008836665
 30
0.0000000000000041
 10
-10.66940158517354
 20
97.27159603349836
 30
0.000000000000004
 10
-9.819768370376323
 20
98.93570811126597
 30
0.0000000000000038
 10
-9.512594510705184
 20
99.44838354948661
 30
0.0000000000000037
 10
-8.350157890225773
 20
101.1301362414819
 30
0.0000000000000035
 10
-7.450005585646522
 20
101.9377494124679
 30
0.0000000000000034
 10
-5.68177452779787
 20
103.0785694921816
 30
0.0000000000000033
 10
-4.327873432904652
 20
103.7912553667896
 30
0.0000000000000032
 10
-1.043881092847186
 20
104.4100833660492
 30
0.0000000000000031
 10
0.4148214285355607
 20
104.3275721850281
 30
0.0000000000000031
 10
2.996405710780891
 20
104.0104403797263
 30
0.0000000000000032
 10
4.279546674486482
 20
103.518492732074
 30
0.0000000000000032
 10
8.371407811135895
 20
101.7861867822524
 30
0.0000000000000034
 10
11.01335968854801
 20
100.6003158991881
 30
0.0000000000000036
 10
15.98302765331323
 20
99.51397919973647
 30
0.0000000000000037
 10
17.88730505668013
 20
99.40027479397123
 30
0.0000000000000037
 10
21.16147666755296
 20
99.35014615616125
 30
0.0000000000000037
 10
23.05360980784417
 20
99.46990393583318
 30
0.0000000000000037
 10
23.50255069980403
 20
99.44555542510158
 30
0.0000000000000037
  0
SPLINE
  5
2AF
330
1F
100
AcDbEntity
  8
0
  6
Continuous
 62
     5
370
     0
100
AcDbSpline
210
0.0
220
0.0000000000000001
230
1.0
 70
     8
 71
     3
 72
    28
 73
    24
 74
     0
 42
0.0000000001
 43
0.0000000001
 40
0.0
 40
0.0
 40
0.0
 40
0.0
 40
6.535483930244351
 40
6.535483930244351
 40
12.71769540029369
 40
12.71769540029369
 40
16.48541300286251
 40
16.48541300286251
 40
19.44610577738095
 40
19.44610577738095
 40
22.04640538782212
 40
22.04640538782212
 40
24.51777579942942
 40
24.51777579942942
 40
27.1248520552607
 40
27.1248520552607
 40
30.57167680522968
 40
30.57167680522968
 40
36.40842774903912
 40
36.40842774903912
 40
51.33946809249305
 40
51.33946809249305
 40
87.27645919152038
 40
87.27645919152038
 40
87.27645919152038
 40
87.27645919152038
 10
0.3099432275359959
 20
93.05378249733252
 30
0.0000000000000045
 10
0.2791968735054979
 20
90.87550483525621
 30
0.0000000000000048
 10
0.1580556146623167
 20
87.833223717691
 30
0.0000000000000051
 10
-0.0331403469508587
 20
83.72956991243162
 30
0.0000000000000056
 10
-0.0769645365596716
 20
83.10967436610766
 30
0.0000000000000057
 10
-0.2613549909588073
 20
82.32473471630076
 30
0.0000000000000058
 10
-0.3519467548476314
 20
82.11675868206526
 30
0.0000000000000058
 10
-0.5558289285238516
 20
81.82039557308508
 30
0.0000000000000059
 10
-0.6680890072311741
 20
81.70451255549824
 30
0.0000000000000059
 10
-0.9185490122738428
 20
81.5424430569061
 30
0.0000000000000059
 10
-1.037342805470871
 20
81.49878498009725
 30
0.0000000000000059
 10
-1.247566356953029
 20
81.46032580754678
 30
0.0000000000000059
 10
-1.350437018169031
 20
81.46131394647815
 30
0.0000000000000059
 10
-1.559634012437754
 20
81.5068111663314
 30
0.0000000000000059
 10
-1.657943410797088
 20
81.55186988830548
 30
0.0000000000000059
 10
-1.872056641092058
 20
81.69236100611163
 30
0.0000000000000059
 10
-1.989790871275999
 20
81.80349307524826
 30
0.0000000000000059
 10
-2.260262464352308
 20
82.15635781878294
 30
0.0000000000000058
 10
-2.30859507879245
 20
82.3291348839349
 30
0.0000000000000058
 10
-2.38952622911529
 20
82.63534217873838
 30
0.0000000000000058
 10
-2.43233742244115
 20
82.97888809296827
 30
0.0000000000000057
 10
-2.588290704472456
 20
85.10771366099616
 30
0.0000000000000055
 10
-2.740878349451122
 20
88.6952629279221
 30
0.000000000000005
 10
-2.919345059758597
 20
93.08638781572289
 30
0.0000000000000045
  0
SPLINE
  5
2B0
330
1F
100
AcDbEntity
  8
0
  6
Continuous
 62
     5
370
     0
100
AcDbSpline
210
0.0
220
-0.0000000000000001
230
-1.0
 70
     8
 71
     3
 72
    92
 73
    88
 74
     0
 42
0.0000000001
 43
0.0000000001
 40
0.0
 40
0.0
 40
0.0
 40
0.0
 40
11.43298030487773
 40
11.43298030487773
 40
22.3193593176468
 40
22.3193593176468
 40
29.25872805325305
 40
29.25872805325305
 40
33.54211202070621
 40
33.54211202070621
 40
38.11124053575065
 40
38.11124053575065
 40
42.66415673164164
 40
42.66415673164164
 40
45.33830542689858
 40
45.33830542689858
 40
47.21257267739697
 40
47.21257267739697
 40
49.23067849189874
 40
49.23067849189874
 40
51.50323130860753
 40
51.50323130860753
 40
52.83282458115782
 40
52.83282458115782
 40
53.80354407223459
 40
53.80354407223459
 40
54.8791200992744
 40
54.8791200992744
 40
55.90027662106752
 40
55.90027662106752
 40
56.8484839089706
 40
56.8484839089706
 40
57.99198973230594
 40
57.99198973230594
 40
58.65838604696403
 40
58.65838604696403
 40
59.0113322595258
 40
59.0113322595258
 40
59.23728678126828
 40
59.23728678126828
 40
59.47613894797211
 40
59.47613894797211
 40
59.73678395443601
 40
59.73678395443601
 40
60.08746155082448
 40
60.08746155082448
 40
60.44399038969392
 40
60.44399038969392
 40
60.77243524624019
 40
60.77243524624019
 40
61.50917743126994
 40
61.50917743126994
 40
63.18555135607446
 40
63.18555135607446
 40
65.23613861204701
 40
65.23613861204701
 40
67.12062340006569
 40
67.12062340006569
 40
69.33060870796696
 40
69.33060870796696
 40
72.6327736997242
 40
72.6327736997242
 40
76.61190020945628
 40
76.61190020945628
 40
80.86924182577581
 40
80.86924182577581
 40
85.68627106152179
 40
85.68627106152179
 40
90.21861230467811
 40
90.21861230467811
 40
95.87198646699674
 40
95.87198646699674
 40
104.6395440523188
 40
104.6395440523188
 40
114.1212312210232
 40
114.1212312210232
 40
127.3050630763586
 40
127.3050630763586
 40
145.4380609193832
 40
145.4380609193832
 40
162.5312807243832
 40
162.5312807243832
 40
180.2334056030441
 40
180.2334056030441
 40
212.5876702699479
 40
212.5876702699479
 40
279.8105460989784
 40
279.8105460989784
 40
279.8105460989784
 40
279.8105460989784
 10
3.865438860996391
 20
93.44509770543778
 30
0.0000000000000045
 10
6.717703517388144
 20
90.91759749946325
 30
0.0000000000000048
 10
8.890667091016666
 20
88.98030438653501
 30
0.000000000000005
 10
12.30153035431181
 20
86.37314871093463
 30
0.0000000000000053
 10
13.65698856861877
 20
85.58763960123496
 30
0.0000000000000054
 10
16.08140991586015
 20
84.56231288380879
 30
0.0000000000000055
 10
17.01176190304227
 20
84.25506575985615
 30
0.0000000000000056
 10
18.33196600473366
 20
84.15486267517211
 30
0.0000000000000056
 10
18.69154480290717
 20
84.21755974219077
 30
0.0000000000000056
 10
19.26538522819283
 20
84.40240220067103
 30
0.0000000000000056
 10
19.54176239658454
 20
84.55230493348942
 30
0.0000000000000055
 10
20.0210730211179
 20
84.94308701741841
 30
0.0000000000000055
 10
20.20981071313599
 20
85.1720071073371
 30
0.0000000000000055
 10
20.41148640754818
 20
85.5483226054128
 30
0.0000000000000054
 10
20.49188798150726
 20
85.73654409167977
 30
0.0000000000000054
 10
20.53094487323187
 20
86.12715745617547
 30
0.0000000000000054
 10
20.51640841872768
 20
86.28794200717509
 30
0.0000000000000053
 10
20.42803737630334
 20
86.61153165909063
 30
0.0000000000000053
 10
20.35039100741778
 20
86.77067805765783
 30
0.0000000000000053
 10
20.13580959394449
 20
87.07045032561619
 30
0.0000000000000052
 10
19.99748833115564
 20
87.19942912513598
 30
0.0000000000000052
 10
19.77411619857412
 20
87.33772424770485
 30
0.0000000000000052
 10
19.65874212327799
 20
87.39433709672061
 30
0.0000000000000052
 10
19.40832554999269
 20
87.43435482458107
 30
0.0000000000000052
 10
19.30195788836795
 20
87.43097061172504
 30
0.0000000000000052
 10
19.08126558643516
 20
87.38531363498591
 30
0.0000000000000052
 10
18.96999551278122
 20
87.33936711224563
 30
0.0000000000000052
 10
18.77281778313317
 20
87.22018347175263
 30
0.0000000000000052
 10
18.66171189402121
 20
87.13438025707935
 30
0.0000000000000052
 10
18.46941514719992
 20
86.89028205990759
 30
0.0000000000000053
 10
18.41044241508416
 20
86.76803054725793
 30
0.0000000000000053
 10
18.31907364710173
 20
86.52823374661709
 30
0.0000000000000053
 10
18.26927041111457
 20
86.35009935189392
 30
0.0000000000000053
 10
18.22264640063531
 20
86.13171063064529
 30
0.0000000000000054
 10
18.21482285011893
 20
86.07633865360977
 30
0.0000000000000054
 10
18.19804375814442
 20
86.00696468436643
 30
0.0000000000000054
 10
18.19094816661641
 20
85.98392178217926
 30
0.0000000000000054
 10
18.17440137272479
 20
85.95519688432604
 30
0.0000000000000054
 10
18.16795303737672
 20
85.94838066188883
 30
0.0000000000000054
 10
18.15591069287552
 20
85.93885433842116
 30
0.0000000000000054
 10
18.14895970601788
 20
85.93528119554555
 30
0.0000000000000054
 10
18.13315382380028
 20
85.93056842523553
 30
0.0000000000000054
 10
18.12453150033207
 20
85.92978265943649
 30
0.0000000000000054
 10
18.10436508314706
 20
85.93098078866837
 30
0.0000000000000054
 10
18.09287299959033
 20
85.93400456784543
 30
0.0000000000000054
 10
18.07125197143091
 20
85.94305689977096
 30
0.0000000000000054
 10
18.05588116940498
 20
85.95129285842254
 30
0.0000000000000054
 10
18.02677469287164
 20
85.97925974404496
 30
0.0000000000000054
 10
18.01412865052953
 20
85.9970084278442
 30
0.0000000000000054
 10
17.96753449708285
 20
86.07858811678408
 30
0.0000000000000054
 10
17.8711456360777
 20
86.28787238938047
 30
0.0000000000000053
 10
17.69116873980692
 20
86.78479599924118
 30
0.0000000000000053
 10
17.66296733552622
 20
87.06998627412632
 30
0.0000000000000052
 10
17.65099410059997
 20
87.52381847596199
 30
0.0000000000000052
 10
17.68038514816271
 20
87.78098164090287
 30
0.0000000000000052
 10
17.83481379029172
 20
88.23622700375265
 30
0.0000000000000051
 10
17.94101345776062
 20
88.40610354097218
 30
0.0000000000000051
 10
18.21503150323315
 20
88.71578061948138
 30
0.000000000000005
 10
18.39662378572575
 20
88.85250764548016
 30
0.000000000000005
 10
18.88787637920245
 20
89.1183425650721
 30
0.000000000000005
 10
19.20078780083463
 20
89.20180166898422
 30
0.000000000000005
 10
19.79240973936567
 20
89.27955373375386
 30
0.000000000000005
 10
20.11731726180892
 20
89.26077710207295
 30
0.000000000000005
 10
20.77081751370952
 20
89.0856768508755
 30
0.000000000000005
 10
21.0801063934814
 20
88.92451207125615
 30
0.000000000000005
 10
21.67074133957908
 20
88.47430237188472
 30
0.0000000000000051
 10
21.97097621407238
 20
88.14996208043835
 30
0.0000000000000051
 10
22.42012029078637
 20
87.37237977885341
 30
0.0000000000000052
 10
22.55870043182767
 20
86.96024074592587
 30
0.0000000000000053
 10
22.68469146230518
 20
85.98656606743823
 30
0.0000000000000054
 10
22.61749742751863
 20
85.48687682635117
 30
0.0000000000000054
 10
22.39926414593265
 20
84.53363182724455
 30
0.0000000000000055
 10
22.152098236852
 20
83.96749033994648
 30
0.0000000000000056
 10
21.43060509953875
 20
82.95576113280864
 30
0.0000000000000057
 10
21.01618325247523
 20
82.63004252152775
 30
0.0000000000000058
 10
20.19270854276374
 20
82.12030209216031
 30
0.0000000000000058
 10
19.65430852270015
 20
81.92043075556091
 30
0.0000000000000059
 10
18.34232789460248
 20
81.64042363065975
 30
0.0000000000000059
 10
17.54296526632697
 20
81.62961569192452
 30
0.0000000000000059
 10
16.0435267571006
 20
81.85316199460038
 30
0.0000000000000059
 10
15.17538552100313
 20
82.09557131553777
 30
0.0000000000000058
 10
12.95333539483408
 20
83.09850894038174
 30
0.0000000000000057
 10
11.82900646655184
 20
83.78182651854366
 30
0.0000000000000056
 10
10.49358666584521
 20
84.60988486682103
 30
0.0000000000000055
 10
9.802489515503339
 20
85.09521882752371
 30
0.0000000000000055
 10
7.204483115754101
 20
87.03228961696117
 30
0.0000000000000052
 10
4.059150612005396
 20
89.49913611863596
 30
0.0000000000000049
 10
0.3099432275359959
 20
93.05378249733252
 30
0.0000000000000045
  0
SPLINE
  5
2B1
330
1F
100
AcDbEntity
  8
0
  6
Continuous
 62
     5
370
     0
100
AcDbSpline
210
-0.0000000000000001
220
0.0000000000000004
230
1.0
 70
     8
 71
     3
 72
    16
 73
    12
 74
     0
 42
0.0000000001
 43
0.0000000001
 40
0.0
 40
0.0
 40
0.0
 40
0.0
 40
3.649116047729997
 40
3.649116047729997
 40
12.72893235347643
 40
12.72893235347643
 40
39.21576413409697
 40
39.21576413409697
 40
74.94343351498013
 40
74.94343351498013
 40
126.4597794485471
 40
126.4597794485471
 40
126.4597794485471
 40
126.4597794485471
 10
23.50255069980403
 20
96.1192219939452
 30
0.0000000000000041
 10
22.28925566370776
 20
96.20568607014371
 30
0.0000000000000041
 10
21.68180461220754
 20
96.23964723220348
 30
0.0000000000000041
 10
17.44306581312412
 20
96.42925483802301
 30
0.0000000000000041
 10
16.6294996853187
 20
96.40972778657186
 30
0.0000000000000041
 10
15.32530652372088
 20
96.39080183683297
 30
0.0000000000000041
 10
14.23653378774088
 20
96.3236363835608
 30
0.0000000000000041
 10
11.31875645474906
 20
95.78274215899131
 30
0.0000000000000042
 10
10.1973741410784
 20
95.34451826250151
 30
0.0000000000000042
 10
7.43826165670589
 20
94.2307503842739
 30
0.0000000000000044
 10
6.052150682943647
 20
93.62641209881088
 30
0.0000000000000044
 10
3.865438860996391
 20
93.44509770543778
 30
0.0000000000000045
  0
LINE
  5
2B2
330
1F
100
AcDbEntity
  8
0
  6
Continuous
 62
     5
370
     0
100
AcDbLine
 10
23.56773564287459
 20
105.0873032550505
 30
0.000000000000003
 11
23.56773564287459
 21
103.3589130558364
 31
0.0000000000000032
  0
SPLINE
  5
2B3
330
1F
100
AcDbEntity
  8
0
  6
Continuous
 62
     5
370
     0
100
AcDbSpline
210
0.0
220
0.0000000000000001
230
1.0
 70
     8
 71
     3
 72
    48
 73
    44
 74
     0
 42
0.0000000001
 43
0.0000000001
 40
0.0
 40
0.0
 40
0.0
 40
0.0
 40
15.95599854878338
 40
15.95599854878338
 40
21.97382208926259
 40
21.97382208926259
 40
36.88173959068752
 40
36.88173959068752
 40
43.87803681578341
 40
43.87803681578341
 40
52.14440307794713
 40
52.14440307794713
 40
63.03170836209978
 40
63.03170836209978
 40
78.10297117074327
 40
78.10297117074327
 40
86.0666738883544
 40
86.0666738883544
 40
92.15184098968565
 40
92.15184098968565
 40
97.04510508571761
 40
97.04510508571761
 40
101.5132444025293
 40
101.5132444025293
 40
106.1544568451482
 40
106.1544568451482
 40
111.8344312666211
 40
111.8344312666211
 40
120.7195302070158
 40
120.7195302070158
 40
130.6598164923266
 40
130.6598164923266
 40
145.8190671382634
 40
145.8190671382634
 40
167.7127853083513
 40
167.7127853083513
 40
196.5370029248974
 40
196.5370029248974
 40
206.0573471997551
 40
206.0573471997551
 40
223.0153707693373
 40
223.0153707693373
 40
246.3686774750325
 40
246.3686774750325
 40
246.3686774750325
 40
246.3686774750325
 10
23.56773564287459
 20
103.3589130558364
 30
0.0000000000000032
 10
18.25083290997691
 20
103.2219630856826
 30
0.0000000000000033
 10
14.97751958145795
 20
104.1739703436201
 30
0.0000000000000031
 10
11.44690969548446
 20
105.4089693290568
 30
0.000000000000003
 10
10.14365836577553
 20
105.8922238660088
 30
0.0000000000000029
 10
6.754665073328403
 20
107.121840061973
 30
0.0000000000000028
 10
4.749585773030055
 20
107.7926240674683
 30
0.0000000000000027
 10
1.157019859068675
 20
108.0503221205207
 30
0.0000000000000027
 10
0.0389751642987974
 20
108.0134114022112
 30
0.0000000000000027
 10
-2.482175170912562
 20
107.7144314920964
 30
0.0000000000000027
 10
-3.954516193002284
 20
107.40585632742
 30
0.0000000000000027
 10
-7.008061424046438
 20
106.5255713029326
 30
0.0000000000000029
 10
-7.955207332547153
 20
106.0628570197527
 30
0.0000000000000029
 10
-9.51410976005377
 20
105.2058695575618
 30
0.000000000000003
 10
-10.07937538365468
 20
104.7631582464137
 30
0.0000000000000031
 10
-10.94629026766506
 20
104.4124908512065
 30
0.0000000000000031
 10
-11.23717017963781
 20
104.3545962592817
 30
0.0000000000000031
 10
-11.70333407731095
 20
104.356194760279
 30
0.0000000000000031
 10
-11.88970105956105
 20
104.3912180731293
 30
0.0000000000000031
 10
-12.18361544895856
 20
104.5126995550478
 30
0.0000000000000031
 10
-12.30265856259166
 20
104.5890653916686
 30
0.0000000000000031
 10
-12.49409661750269
 20
104.780791566225
 30
0.0000000000000031
 10
-12.56660855940481
 20
104.8891882769875
 30
0.0000000000000031
 10
-12.66694187009148
 20
105.1340874324262
 30
0.000000000000003
 10
-12.6910750734014
 20
105.2664109653361
 30
0.000000000000003
 10
-12.69171578997702
 20
105.5669947533649
 30
0.000000000000003
 10
-12.6564661187881
 20
105.7304296376426
 30
0.000000000000003
 10
-12.50807099553685
 20
106.1290542965098
 30
0.0000000000000029
 10
-12.36120569458307
 20
106.3559900334303
 30
0.0000000000000029
 10
-12.01140131670853
 20
106.7823669723053
 30
0.0000000000000028
 10
-11.6684711579744
 20
107.1440181534867
 30
0.0000000000000028
 10
-9.903976853298438
 20
108.3440119161343
 30
0.0000000000000026
 10
-8.376968093062252
 20
109.0789887747438
 30
0.0000000000000025
 10
-4.198639045703423
 20
110.4031496774073
 30
0.0000000000000024
 10
-1.328660467509955
 20
110.7898608913715
 30
0.0000000000000023
 10
4.094172520370655
 20
110.8088438102497
 30
0.0000000000000023
 10
6.183796410412249
 20
110.163251606555
 30
0.0000000000000024
 10
9.149163476822202
 20
108.9631441038124
 30
0.0000000000000026
 10
9.719679266560667
 20
108.7158432543677
 30
0.0000000000000026
 10
12.6348397208385
 20
107.4580177702689
 30
0.0000000000000027
 10
13.73225957747945
 20
106.9829277860344
 30
0.0000000000000028
 10
17.22859462008227
 20
105.8683821738844
 30
0.0000000000000029
 10
19.84710105326007
 20
105.2948939191039
 30
0.000000000000003
 10
23.56773564287459
 20
105.0873032550505
 30
0.000000000000003
  0
LINE
  5
2B4
330
1F
100
AcDbEntity
  8
0
  6
Continuous
 62
     5
370
     0
100
AcDbLine
 10
-4.369601633074253
 20
117.5555204200861
 30
0.0000000000000015
 11
-24.83724232019423
 21
97.08787973296663
 31
0.000000000000004
  0
ARC
  5
2B5
330
1F
100
AcDbEntity
  8
0
  6
Continuous
 62
     5
370
     0
100
AcDbCircle
 10
0.5801458352316402
 20
112.6057729517802
 30
0.0000000000000021
 40
6.999999999999999
100
AcDbArc
 50
90.0
 51
134.9999999999994
  0
LINE
  5
2B6
330
1F
100
AcDbEntity
  8
0
  6
Continuous
 62
     5
370
     0
100
AcDbLine
 10
11.65068691991463
 20
119.6057729517802
 30
0.0000000000000013
 11
0.5801458352315266
 21
119.6057729517802
 31
0.0000000000000013
  0
LINE
  5
2B7
330
1F
100
AcDbEntity
  8
0
  6
Continuous
 62
     5
370
     0
100
AcDbLine
 10
-24.83724232019416
 20
95.67366617059352
 30
0.0000000000000042
 11
-4.369601633074125
 21
75.20602548347404
 31
0.0000000000000067
  0
ARC
  5
2B8
330
1F
100
AcDbEntity
  8
0
  6
Continuous
 62
     5
370
     0
100
AcDbCircle
 10
11.65068691991473
 20
99.60577295178019
 30
0.0000000000000037
 40
20.0
100
AcDbArc
 50
44.99999999999857
 51
90.0
  0
ARC
  5
2B9
330
1F
100
AcDbEntity
  8
0
  6
Continuous
 62
     5
370
     0
100
AcDbCircle
 10
0.5801458352316331
 20
80.1557729517799
 30
0.0000000000000061
 40
6.999999999999999
100
AcDbArc
 50
225.0000000000006
 51
270.0
  0
LINE
  5
2BA
330
1F
100
AcDbEntity
  8
0
  6
Continuous
 62
     5
370
     0
100
AcDbLine
 10
37.50310391788398
 20
102.0376272012724
 30
0.0000000000000034
 11
25.7928225436458
 21
113.7479085755109
 31
0.000000000000002
  0
LINE
  5
2BB
330
1F
100
AcDbEntity
  8
0
  6
Continuous
 62
     5
370
     0
100
AcDbLine
 10
0.5801458352315195
 20
73.15577295177991
 30
0.0000000000000069
 11
11.65068691991462
 21
73.15577295177989
 31
0.0000000000000069
  0
ARC
  5
2BC
330
1F
100
AcDbEntity
  8
0
  6
Continuous
 62
     5
370
     0
100
AcDbCircle
 10
31.84624966839147
 20
96.38077295177993
 30
0.0000000000000041
 40
8.0
100
AcDbArc
 50
315.0000000000012
 51
44.99999999999857
  0
ARC
  5
2BD
330
1F
100
AcDbEntity
  8
0
  6
Continuous
 62
     5
370
     0
100
AcDbCircle
 10
11.65068691991473
 20
93.15577295177991
 30
0.0000000000000045
 40
20.0
100
AcDbArc
 50
270.0
 51
315.0000000000014
  0
LINE
  5
2BE
330
1F
100
AcDbEntity
  8
0
  6
Continuous
 62
     5
370
     0
100
AcDbLine
 10
25.79282254364583
 20
79.01363732804914
 30
0.0000000000000062
 11
37.50310391788393
 21
90.72391870228756
 31
0.0000000000000048
  0
ARC
  5
2BF
330
1F
100
AcDbEntity
  8
0
  6
Continuous
 62
     5
370
     0
100
AcDbCircle
 10
-24.13013553900759
 20
96.38077295178014
 30
0.0000000000000041
 40
0.999999999999998
100
AcDbArc
 50
135.0
 51
225.0000000000023
  0
LINE
  5
2F6
330
1F
100
AcDbEntity
  8
0
  6
Continuous
 62
     1
370
     0
100
AcDbLine
 10
11.65068691991463
 20
118.1057729517801
 30
0.0000000000000013
 11
0.5801458352315266
 21
118.1057729517801
 31
0.0000000000000013
  0
ARC
  5
2F7
330
1F
100
AcDbEntity
  8
0
  6
Continuous
 62
     1
370
     0
100
AcDbCircle
 10
11.65068691991473
 20
99.60577295178019
 30
0.0000000000000037
 40
18.5
100
AcDbArc
 50
44.99999999999857
 51
90.0
  0
ARC
  5
2F8
330
1F
100
AcDbEntity
  8
0
  6
Continuous
 62
     1
370
     0
100
AcDbCircle
 10
0.5801458352316402
 20
112.6057729517802
 30
0.0000000000000021
 40
5.499999999999999
100
AcDbArc
 50
90.0
 51
134.9999999999994
  0
LINE
  5
2F9
330
1F
100
AcDbEntity
  8
0
  6
Continuous
 62
     1
370
     0
100
AcDbLine
 10
-3.308941461294446
 20
116.4948602483062
 30
0.0000000000000015
 11
-23.4230287578211
 21
96.38077295178012
 31
0.0000000000000042
  0
LINE
  5
2FA
330
1F
100
AcDbEntity
  8
0
  6
Continuous
 62
     1
370
     0
100
AcDbLine
 10
-23.4230287578211
 20
96.38077295178012
 30
0.0000000000000042
 11
-3.308941461294318
 21
76.26668565525386
 31
0.0000000000000067
  0
ARC
  5
2FB
330
1F
100
AcDbEntity
  8
0
  6
Continuous
 62
     1
370
     0
100
AcDbCircle
 10
0.5801458352316331
 20
80.1557729517799
 30
0.0000000000000061
 40
5.499999999999999
100
AcDbArc
 50
225.0000000000006
 51
270.0
  0
LINE
  5
2FC
330
1F
100
AcDbEntity
  8
0
  6
Continuous
 62
     1
370
     0
100
AcDbLine
 10
0.5801458352315213
 20
74.65577295177991
 30
0.0000000000000069
 11
11.65068691991462
 21
74.6557729517799
 31
0.0000000000000069
  0
ARC
  5
2FD
330
1F
100
AcDbEntity
  8
0
  6
Continuous
 62
     1
370
     0
100
AcDbCircle
 10
11.65068691991473
 20
93.15577295177991
 30
0.0000000000000045
 40
18.5
100
AcDbArc
 50
270.0
 51
315.0000000000014
  0
LINE
  5
2FE
330
1F
100
AcDbEntity
  8
0
  6
Continuous
 62
     1
370
     0
100
AcDbLine
 10
24.73216237186599
 20
80.07429749982895
 30
0.0000000000000062
 11
36.4424437461041
 21
91.78457887406736
 31
0.0000000000000048
  0
ARC
  5
2FF
330
1F
100
AcDbEntity
  8
0
  6
Continuous
 62
     1
370
     0
100
AcDbCircle
 10
31.84624966839147
 20
96.38077295177993
 30
0.0000000000000041
 40
6.5
100
AcDbArc
 50
315.0000000000012
 51
44.99999999999857
  0
LINE
  5
300
330
1F
100
AcDbEntity
  8
0
  6
Continuous
 62
     1
370
     0
100
AcDbLine
 10
36.44244374610414
 20
100.9769670294926
 30
0.0000000000000034
 11
24.73216237186596
 21
112.6872484037311
 31
0.000000000000002
  0
ENDSEC
  0
SECTION
  2
OBJECTS
  0
DICTIONARY
  5
C
330
0
100
AcDbDictionary
281
     1
  3
ACAD_COLOR
350
6B
  3
ACAD_GROUP
350
D
  3
ACAD_LAYOUT
350
1A
  3
ACAD_MATERIAL
350
6A
  3
ACAD_MLEADERSTYLE
350
12D
  3
ACAD_MLINESTYLE
350
17
  3
ACAD_PLOTSETTINGS
350
19
  3
ACAD_PLOTSTYLENAME
350
E
  3
ACAD_SCALELIST
350
10C
  3
ACAD_TABLESTYLE
350
7E
  3
ACAD_VISUALSTYLE
350
EF
  3
ACDB_RECOMPOSE_DATA
350
15D
  3
AcDbVariableDictionary
350
5E
  0
DICTIONARY
  5
23E
330
2
100
AcDbDictionary
280
     1
281
     1
  3
ACAD_LAYERSTATES
360
23F
  0
DICTIONARY
  5
13C
330
10
100
AcDbDictionary
280
     1
281
     1
  3
ADSK_XREC_LAYER_RECONCILED
360
24B
  0
DICTIONARY
  5
2D9
330
1F
100
AcDbDictionary
280
     1
281
     1
  3
ACAD_SORTENTS
360
2DA
  0
DICTIONARY
  5
242
330
240
100
AcDbDictionary
280
     1
281
     1
  3
ACAD_SORTENTS
360
243
  0
DICTIONARY
  5
6B
102
{ACAD_REACTORS
330
C
102
}
330
C
100
AcDbDictionary
281
     1
  0
DICTIONARY
  5
D
102
{ACAD_REACTORS
330
C
102
}
330
C
100
AcDbDictionary
281
     1
  0
DICTIONARY
  5
1A
102
{ACAD_REACTORS
330
C
102
}
330
C
100
AcDbDictionary
281
     1
  3
Model
350
22
  3
Presentacin1
350
D3
  3
Presentacin2
350
D7
  0
DICTIONARY
  5
6A
102
{ACAD_REACTORS
330
C
102
}
330
C
100
AcDbDictionary
281
     1
  3
ByBlock
350
ED
  3
ByLayer
350
EC
  3
Global
350
EE
  0
DICTIONARY
  5
12D
102
{ACAD_REACTORS
330
C
102
}
330
C
100
AcDbDictionary
281
     1
  3
Anotativo
350
13B
  3
Standard
350
12E
  0
DICTIONARY
  5
17
102
{ACAD_REACTORS
330
C
102
}
330
C
100
AcDbDictionary
281
     1
  3
Standard
350
18
  0
DICTIONARY
  5
19
102
{ACAD_REACTORS
330
C
102
}
330
C
100
AcDbDictionary
281
     1
  0
ACDBDICTIONARYWDFLT
  5
E
102
{ACAD_REACTORS
330
C
102
}
330
C
100
AcDbDictionary
281
     1
  3
Normal
350
F
100
AcDbDictionaryWithDefault
340
F
  0
DICTIONARY
  5
10C
102
{ACAD_REACTORS
330
C
102
}
330
C
100
AcDbDictionary
281
     1
  3
A0
350
10D
  3
A1
350
188
  3
A2
350
189
  3
A3
350
18A
  3
A4
350
18B
  3
A5
350
18C
  3
A6
350
18D
  3
A7
350
18E
  3
A8
350
18F
  3
A9
350
190
  3
B0
350
191
  3
B1
350
192
  3
B2
350
193
  3
B3
350
194
  3
B4
350
195
  3
B5
350
196
  3
B6
350
197
  3
B7
350
198
  3
B8
350
199
  3
B9
350
19A
  3
C0
350
19B
  3
C1
350
19C
  3
C2
350
19D
  3
C3
350
19E
  3
C4
350
19F
  3
C5
350
1A0
  3
C6
350
1A1
  3
C7
350
1A2
  3
C8
350
1A3
  3
C9
350
1A4
  3
D0
350
1A5
  3
D1
350
1A6
  3
D2
350
1A7
  0
DICTIONARY
  5
7E
102
{ACAD_REACTORS
330
C
102
}
330
C
100
AcDbDictionary
281
     1
  3
Standard
350
7F
  0
DICTIONARY
  5
EF
102
{ACAD_REACTORS
330
C
102
}
330
C
100
AcDbDictionary
281
     1
  3
2dWireframe
350
F5
  3
3D Hidden
350
F7
  3
3dWireframe
350
F6
  3
Basic
350
F4
  3
Brighten
350
FB
  3
ColorChange
350
FF
  3
Conceptual
350
F8
  3
Dim
350
FA
  3
Facepattern
350
FE
  3
Flat
350
F0
  3
FlatWithEdges
350
F1
  3
Gouraud
350
F2
  3
GouraudWithEdges
350
F3
  3
Linepattern
350
FD
  3
Realistic
350
F9
  3
Thicken
350
FC
  0
XRECORD
  5
15D
102
{ACAD_REACTORS
330
C
102
}
330
C
100
AcDbXrecord
280
     1
 90
        1
330
7F
  0
DICTIONARY
  5
5E
102
{ACAD_REACTORS
330
C
102
}
330
C
100
AcDbDictionary
281
     1
  3
CANNOSCALE
350
146
  3
CMLEADERSTYLE
350
145
  3
CTABLESTYLE
350
84
  3
DIMASSOC
350
5F
  3
HIDETEXT
350
63
  3
LIGHTINGUNITS
350
306
  3
MSLTSCALE
350
305
  3
PSOLHEIGHT
350
308
  3
PSOLWIDTH
350
307
  0
DICTIONARY
  5
23F
102
{ACAD_REACTORS
330
23E
102
}
330
23E
100
AcDbDictionary
281
     1
  0
XRECORD
  5
24B
102
{ACAD_REACTORS
330
13C
102
}
330
13C
100
AcDbXrecord
280
     1
290
     1
  0
SORTENTSTABLE
  5
2DA
102
{ACAD_REACTORS
330
2D9
102
}
330
2D9
100
AcDbSortentsTable
330
1F
331
2BC
  5
2FA
331
300
  5
2F7
331
2A2
  5
2A2
331
2FE
  5
2FF
331
2BA
  5
2F6
331
2A0
  5
2A0
331
2FC
  5
2F9
331
2B8
  5
2E2
331
29E
  5
29E
331
2FA
  5
2E0
331
2B6
  5
2BF
331
247
  5
247
331
2F8
  5
2BD
331
2B4
  5
2B4
331
256
  5
256
331
2F6
  5
2DC
331
2B2
  5
2B2
331
2B0
  5
2B0
331
2BF
  5
300
331
2AE
  5
2AE
331
2BD
  5
2FC
331
2A3
  5
2A3
331
2FF
  5
2FB
331
2BB
  5
2F8
331
2A1
  5
2A1
331
2B9
  5
2E6
331
29F
  5
29F
331
2FB
  5
2F5
331
2B7
  5
2DE
331
29D
  5
29D
331
2B5
  5
2B9
331
2F9
  5
2B6
331
2F7
  5
2E4
331
2B3
  5
2B3
331
2B1
  5
2B1
331
2AF
  5
2AF
331
2BE
  5
2FE
331
2AD
  5
2AD
  0
SORTENTSTABLE
  5
243
102
{ACAD_REACTORS
330
242
102
}
330
242
100
AcDbSortentsTable
330
240
  0
LAYOUT
  5
22
102
{ACAD_REACTORS
330
1A
102
}
330
1A
100
AcDbPlotSettings
  1

  2
none_device
  4
ISO_A4_(210.00_x_297.00_MM)
  6

 40
7.5
 41
20.0
 42
7.5
 43
20.0
 44
210.0
 45
297.0
 46
11.54999923706054
 47
-13.65000009536743
 48
0.0
 49
0.0
140
0.0
141
0.0
142
1.0
143
8.704084754739808
 70
 11952
 72
     1
 73
     0
 74
     0
  7

 75
     0
147
0.1148885871608098
 76
     0
 77
     2
 78
   300
148
0.0
149
0.0
100
AcDbLayout
  1
Model
 70
     1
 71
     0
 10
0.0
 20
0.0
 11
12.0
 21
9.0
 12
0.0
 22
0.0
 32
0.0
 14
0.0
 24
0.0
 34
0.0
 15
0.0
 25
0.0
 35
0.0
146
0.0
 13
0.0
 23
0.0
 33
0.0
 16
1.0
 26
0.0
 36
0.0
 17
0.0
 27
1.0
 37
0.0
 76
     0
330
1F
331
EA
1001
ACAD_PSEXT
1000
None
1000
None
1000
Not applicable
1000
The layout will not be plotted unless a new plotter configuration name is selected.
1070
     0
  0
LAYOUT
  5
D3
102
{ACAD_REACTORS
330
1A
102
}
330
1A
100
AcDbPlotSettings
  1

  2
C:\Documents and Settings\basas\Application Data\Autodesk\AutoCAD 2005\R16.1\enu\plotters\Default Windows System Printer.pc3
  4

  6

 40
0.0
 41
0.0
 42
0.0
 43
0.0
 44
0.0
 45
0.0
 46
0.0
 47
0.0
 48
0.0
 49
0.0
140
0.0
141
0.0
142
1.0
143
1.0
 70
   688
 72
     0
 73
     0
 74
     5
  7

 75
    16
147
1.0
 76
     0
 77
     2
 78
   300
148
0.0
149
0.0
100
AcDbLayout
  1
Presentacin1
 70
     1
 71
     1
 10
0.0
 20
0.0
 11
12.0
 21
9.0
 12
0.0
 22
0.0
 32
0.0
 14
0.0
 24
0.0
 34
0.0
 15
0.0
 25
0.0
 35
0.0
146
0.0
 13
0.0
 23
0.0
 33
0.0
 16
1.0
 26
0.0
 36
0.0
 17
0.0
 27
1.0
 37
0.0
 76
     0
330
D2
  0
LAYOUT
  5
D7
102
{ACAD_REACTORS
330
1A
102
}
330
1A
100
AcDbPlotSettings
  1

  2
C:\Documents and Settings\basas\Application Data\Autodesk\AutoCAD 2005\R16.1\enu\plotters\Default Windows System Printer.pc3
  4

  6

 40
0.0
 41
0.0
 42
0.0
 43
0.0
 44
0.0
 45
0.0
 46
0.0
 47
0.0
 48
0.0
 49
0.0
140
0.0
141
0.0
142
1.0
143
1.0
 70
   688
 72
     0
 73
     0
 74
     5
  7

 75
    16
147
1.0
 76
     0
 77
     2
 78
   300
148
0.0
149
0.0
100
AcDbLayout
  1
Presentacin2
 70
     1
 71
     2
 10
0.0
 20
0.0
 11
12.0
 21
9.0
 12
0.0
 22
0.0
 32
0.0
 14
0.0
 24
0.0
 34
0.0
 15
0.0
 25
0.0
 35
0.0
146
0.0
 13
0.0
 23
0.0
 33
0.0
 16
1.0
 26
0.0
 36
0.0
 17
0.0
 27
1.0
 37
0.0
 76
     0
330
D6
  0
MATERIAL
  5
ED
102
{ACAD_XDICTIONARY
360
314
102
}
102
{ACAD_REACTORS
330
6A
102
}
330
6A
100
AcDbMaterial
  1
ByBlock
  0
MATERIAL
  5
EC
102
{ACAD_XDICTIONARY
360
312
102
}
102
{ACAD_REACTORS
330
6A
102
}
330
6A
100
AcDbMaterial
  1
ByLayer
  0
MATERIAL
  5
EE
102
{ACAD_XDICTIONARY
360
173
102
}
102
{ACAD_REACTORS
330
6A
102
}
330
6A
100
AcDbMaterial
  1
Global
 43
0.0007999999797903
 43
0.0
 43
0.0
 43
0.0
 43
0.0
 43
0.0007999999797903
 43
0.0
 43
0.0
 43
0.0
 43
0.0
 43
1.0
 43
0.0
 43
0.0
 43
0.0
 43
0.0
 43
1.0
 49
0.0007999999797903
 49
0.0
 49
0.0
 49
0.0
 49
0.0
 49
0.0007999999797903
 49
0.0
 49
0.0
 49
0.0
 49
0.0
 49
1.0
 49
0.0
 49
0.0
 49
0.0
 49
0.0
 49
1.0
142
0.0007999999797903
142
0.0
142
0.0
142
0.0
142
0.0
142
0.0007999999797903
142
0.0
142
0.0
142
0.0
142
0.0
142
1.0
142
0.0
142
0.0
142
0.0
142
0.0
142
1.0
144
0.0007999999797903
144
0.0
144
0.0
144
0.0
144
0.0
144
0.0007999999797903
144
0.0
144
0.0
144
0.0
144
0.0
144
1.0
144
0.0
144
0.0
144
0.0
144
0.0
144
1.0
1001
ACAD
1070
    -1
1070
     3
1070
     0
1000

1071
        0
1070
     0
  0
MLEADERSTYLE
  5
13B
102
{ACAD_REACTORS
330
12D
102
}
330
12D
100
AcDbMLeaderStyle
170
     2
171
     1
172
     0
 90
        2
 40
0.0
 41
0.0
173
     1
 91
-1056964608
340
14
 92
       -2
290
     1
 42
2.0
291
     1
 43
8.0
  3
Standard
 44
4.0
300

342
11
174
     1
178
     1
175
     1
176
     0
 93
-1056964608
 45
4.0
292
     0
297
     0
 46
4.0
 94
-1056964608
 47
1.0
 49
1.0
140
1.0
293
     1
141
0.0
294
     1
177
     0
142
1.0
295
     0
296
     1
143
3.75
1001
ACAD_MLEADERVER
1070
     2
  0
MLEADERSTYLE
  5
12E
102
{ACAD_REACTORS
330
12D
102
}
330
12D
100
AcDbMLeaderStyle
170
     2
171
     1
172
     0
 90
        2
 40
0.0
 41
0.0
173
     1
 91
-1056964608
340
14
 92
       -2
290
     1
 42
2.0
291
     1
 43
8.0
  3
Standard
 44
4.0
300

342
11
174
     1
178
     1
175
     1
176
     0
 93
-1056964608
 45
4.0
292
     0
297
     0
 46
4.0
 94
-1056964608
 47
1.0
 49
1.0
140
1.0
293
     1
141
0.0
294
     1
177
     0
142
1.0
295
     0
296
     0
143
3.75
1001
ACAD_MLEADERVER
1070
     2
  0
MLINESTYLE
  5
18
102
{ACAD_REACTORS
330
17
102
}
330
17
100
AcDbMlineStyle
  2
STANDARD
 70
     0
  3

 62
   256
 51
90.0
 52
90.0
 71
     2
 49
0.5
 62
   256
  6
BYLAYER
 49
-0.5
 62
   256
  6
BYLAYER
  0
ACDBPLACEHOLDER
  5
F
102
{ACAD_REACTORS
330
E
102
}
330
E
  0
SCALE
  5
10D
102
{ACAD_REACTORS
330
10C
102
}
330
10C
100
AcDbScale
 70
     0
300
1:1
140
1.0
141
1.0
290
     1
  0
SCALE
  5
188
102
{ACAD_REACTORS
330
10C
102
}
330
10C
100
AcDbScale
 70
     0
300
1:2
140
1.0
141
2.0
290
     0
  0
SCALE
  5
189
102
{ACAD_REACTORS
330
10C
102
}
330
10C
100
AcDbScale
 70
     0
300
1:4
140
1.0
141
4.0
290
     0
  0
SCALE
  5
18A
102
{ACAD_REACTORS
330
10C
102
}
330
10C
100
AcDbScale
 70
     0
300
1:5
140
1.0
141
5.0
290
     0
  0
SCALE
  5
18B
102
{ACAD_REACTORS
330
10C
102
}
330
10C
100
AcDbScale
 70
     0
300
1:8
140
1.0
141
8.0
290
     0
  0
SCALE
  5
18C
102
{ACAD_REACTORS
330
10C
102
}
330
10C
100
AcDbScale
 70
     0
300
1:10
140
1.0
141
10.0
290
     0
  0
SCALE
  5
18D
102
{ACAD_REACTORS
330
10C
102
}
330
10C
100
AcDbScale
 70
     0
300
1:16
140
1.0
141
16.0
290
     0
  0
SCALE
  5
18E
102
{ACAD_REACTORS
330
10C
102
}
330
10C
100
AcDbScale
 70
     0
300
1:20
140
1.0
141
20.0
290
     0
  0
SCALE
  5
18F
102
{ACAD_REACTORS
330
10C
102
}
330
10C
100
AcDbScale
 70
     0
300
1:30
140
1.0
141
30.0
290
     0
  0
SCALE
  5
190
102
{ACAD_REACTORS
330
10C
102
}
330
10C
100
AcDbScale
 70
     0
300
1:40
140
1.0
141
40.0
290
     0
  0
SCALE
  5
191
102
{ACAD_REACTORS
330
10C
102
}
330
10C
100
AcDbScale
 70
     0
300
1:50
140
1.0
141
50.0
290
     0
  0
SCALE
  5
192
102
{ACAD_REACTORS
330
10C
102
}
330
10C
100
AcDbScale
 70
     0
300
1:100
140
1.0
141
100.0
290
     0
  0
SCALE
  5
193
102
{ACAD_REACTORS
330
10C
102
}
330
10C
100
AcDbScale
 70
     0
300
2:1
140
2.0
141
1.0
290
     0
  0
SCALE
  5
194
102
{ACAD_REACTORS
330
10C
102
}
330
10C
100
AcDbScale
 70
     0
300
4:1
140
4.0
141
1.0
290
     0
  0
SCALE
  5
195
102
{ACAD_REACTORS
330
10C
102
}
330
10C
100
AcDbScale
 70
     0
300
8:1
140
8.0
141
1.0
290
     0
  0
SCALE
  5
196
102
{ACAD_REACTORS
330
10C
102
}
330
10C
100
AcDbScale
 70
     0
300
10:1
140
10.0
141
1.0
290
     0
  0
SCALE
  5
197
102
{ACAD_REACTORS
330
10C
102
}
330
10C
100
AcDbScale
 70
     0
300
100:1
140
100.0
141
1.0
290
     0
  0
SCALE
  5
198
102
{ACAD_REACTORS
330
10C
102
}
330
10C
100
AcDbScale
 70
     0
300
1/128" = 1'-0"
140
0.0078125
141
12.0
290
     0
  0
SCALE
  5
199
102
{ACAD_REACTORS
330
10C
102
}
330
10C
100
AcDbScale
 70
     0
300
1/64" = 1'-0"
140
0.015625
141
12.0
290
     0
  0
SCALE
  5
19A
102
{ACAD_REACTORS
330
10C
102
}
330
10C
100
AcDbScale
 70
     0
300
1/32" = 1'-0"
140
0.03125
141
12.0
290
     0
  0
SCALE
  5
19B
102
{ACAD_REACTORS
330
10C
102
}
330
10C
100
AcDbScale
 70
     0
300
1/16" = 1'-0"
140
0.0625
141
12.0
290
     0
  0
SCALE
  5
19C
102
{ACAD_REACTORS
330
10C
102
}
330
10C
100
AcDbScale
 70
     0
300
3/32" = 1'-0"
140
0.09375
141
12.0
290
     0
  0
SCALE
  5
19D
102
{ACAD_REACTORS
330
10C
102
}
330
10C
100
AcDbScale
 70
     0
300
1/8" = 1'-0"
140
0.125
141
12.0
290
     0
  0
SCALE
  5
19E
102
{ACAD_REACTORS
330
10C
102
}
330
10C
100
AcDbScale
 70
     0
300
3/16" = 1'-0"
140
0.1875
141
12.0
290
     0
  0
SCALE
  5
19F
102
{ACAD_REACTORS
330
10C
102
}
330
10C
100
AcDbScale
 70
     0
300
1/4" = 1'-0"
140
0.25
141
12.0
290
     0
  0
SCALE
  5
1A0
102
{ACAD_REACTORS
330
10C
102
}
330
10C
100
AcDbScale
 70
     0
300
3/8" = 1'-0"
140
0.375
141
12.0
290
     0
  0
SCALE
  5
1A1
102
{ACAD_REACTORS
330
10C
102
}
330
10C
100
AcDbScale
 70
     0
300
1/2" = 1'-0"
140
0.5
141
12.0
290
     0
  0
SCALE
  5
1A2
102
{ACAD_REACTORS
330
10C
102
}
330
10C
100
AcDbScale
 70
     0
300
3/4" = 1'-0"
140
0.75
141
12.0
290
     0
  0
SCALE
  5
1A3
102
{ACAD_REACTORS
330
10C
102
}
330
10C
100
AcDbScale
 70
     0
300
1" = 1'-0"
140
1.0
141
12.0
290
     0
  0
SCALE
  5
1A4
102
{ACAD_REACTORS
330
10C
102
}
330
10C
100
AcDbScale
 70
     0
300
1-1/2" = 1'-0"
140
1.5
141
12.0
290
     0
  0
SCALE
  5
1A5
102
{ACAD_REACTORS
330
10C
102
}
330
10C
100
AcDbScale
 70
     0
300
3" = 1'-0"
140
3.0
141
12.0
290
     0
  0
SCALE
  5
1A6
102
{ACAD_REACTORS
330
10C
102
}
330
10C
100
AcDbScale
 70
     0
300
6" = 1'-0"
140
6.0
141
12.0
290
     0
  0
SCALE
  5
1A7
102
{ACAD_REACTORS
330
10C
102
}
330
10C
100
AcDbScale
 70
     0
300
1'-0" = 1'-0"
140
12.0
141
12.0
290
     0
  0
TABLESTYLE
  5
7F
102
{ACAD_XDICTIONARY
360
162
102
}
102
{ACAD_REACTORS
330
7E
102
}
330
7E
100
AcDbTableStyle
  3
Standard
 70
     0
 71
     0
 40
1.5
 41
1.5
280
     0
281
     0
  7
Standard
140
4.5
170
     2
 62
     0
 63
     7
283
     0
274
    -2
284
     1
 64
     0
275
    -2
285
     1
 65
     0
276
    -2
286
     1
 66
     0
277
    -2
287
     1
 67
     0
278
    -2
288
     1
 68
     0
279
    -2
289
     1
 69
     0
  7
Standard
140
6.0
170
     5
 62
     0
 63
     7
283
     0
274
    -2
284
     1
 64
     0
275
    -2
285
     1
 65
     0
276
    -2
286
     1
 66
     0
277
    -2
287
     1
 67
     0
278
    -2
288
     1
 68
     0
279
    -2
289
     1
 69
     0
  7
Standard
140
4.5
170
     5
 62
     0
 63
     7
283
     0
274
    -2
284
     1
 64
     0
275
    -2
285
     1
 65
     0
276
    -2
286
     1
 66
     0
277
    -2
287
     1
 67
     0
278
    -2
288
     1
 68
     0
279
    -2
289
     1
 69
     0
  0
VISUALSTYLE
  5
F5
102
{ACAD_REACTORS
330
EF
102
}
330
EF
100
AcDbVisualStyle
  2
2dWireframe
 70
     4
 71
     0
 72
     2
 73
     1
 90
        0
 40
-0.6
 41
-30.0
 62
     5
 63
     7
421
 16777215
 74
     1
 91
        4
 64
     7
 65
   257
 75
     1
175
     1
 42
1.0
 92
        0
 66
   257
 43
1.0
 76
     1
 77
     6
 78
     2
 67
     7
 79
     5
170
     0
171
     0
290
     0
174
     0
 93
        1
 44
0.0
173
     0
291
     0
 45
0.0
1001
ACAD
1000
AcDbSavedByObjectVersion
1070
     0
  0
VISUALSTYLE
  5
F7
102
{ACAD_REACTORS
330
EF
102
}
330
EF
100
AcDbVisualStyle
  2
3D Hidden
 70
     6
 71
     1
 72
     2
 73
     2
 90
        0
 40
-0.6
 41
-30.0
 62
     5
 63
     7
421
 16777215
 74
     2
 91
        2
 64
     7
 65
   257
 75
     2
175
     1
 42
40.0
 92
        0
 66
   257
 43
1.0
 76
     1
 77
     6
 78
     2
 67
     7
 79
     3
170
     0
171
     0
290
     0
174
     0
 93
        1
 44
0.0
173
     0
291
     0
 45
0.0
1001
ACAD
1000
AcDbSavedByObjectVersion
1070
     0
  0
VISUALSTYLE
  5
F6
102
{ACAD_REACTORS
330
EF
102
}
330
EF
100
AcDbVisualStyle
  2
3dWireframe
 70
     5
 71
     0
 72
     2
 73
     1
 90
        0
 40
-0.6
 41
-30.0
 62
     5
 63
     7
421
 16777215
 74
     1
 91
        4
 64
     7
 65
   257
 75
     1
175
     1
 42
1.0
 92
        0
 66
   257
 43
1.0
 76
     1
 77
     6
 78
     2
 67
     7
 79
     5
170
     0
171
     0
290
     0
174
     0
 93
        1
 44
0.0
173
     0
291
     0
 45
0.0
1001
ACAD
1000
AcDbSavedByObjectVersion
1070
     0
  0
VISUALSTYLE
  5
F4
102
{ACAD_REACTORS
330
EF
102
}
330
EF
100
AcDbVisualStyle
  2
Basic
 70
     7
 71
     1
 72
     0
 73
     1
 90
        0
 40
-0.6
 41
-30.0
 62
     5
 63
     7
421
 16777215
 74
     0
 91
        4
 64
     7
 65
   257
 75
     1
175
     1
 42
1.0
 92
        8
 66
     7
 43
1.0
 76
     1
 77
     6
 78
     2
 67
     7
 79
     5
170
     0
171
     0
290
     0
174
     0
 93
        1
 44
0.0
173
     0
291
     1
 45
0.0
1001
ACAD
1000
AcDbSavedByObjectVersion
1070
     0
  0
VISUALSTYLE
  5
FB
102
{ACAD_REACTORS
330
EF
102
}
330
EF
100
AcDbVisualStyle
  2
Brighten
 70
    12
 71
     2
 72
     2
 73
     1
 90
        0
 40
-0.6
 41
-30.0
 62
     5
 63
     7
421
 16777215
 74
     1
 91
        4
 64
     7
 65
   257
 75
     1
175
     1
 42
1.0
 92
        8
 66
     7
 43
1.0
 76
     1
 77
     6
 78
     2
 67
     7
 79
     5
170
     0
171
     0
290
     0
174
     0
 93
        1
 44
50.0
173
     0
291
     1
 45
0.0
1001
ACAD
1000
AcDbSavedByObjectVersion
1070
     0
  0
VISUALSTYLE
  5
FF
102
{ACAD_REACTORS
330
EF
102
}
330
EF
100
AcDbVisualStyle
  2
ColorChange
 70
    16
 71
     2
 72
     2
 73
     3
 90
        0
 40
-0.6
 41
-30.0
 62
     5
 63
     8
421
  8421504
 74
     1
 91
        4
 64
     7
 65
   257
 75
     1
175
     1
 42
1.0
 92
        8
 66
     8
424
  8421504
 43
1.0
 76
     1
 77
     6
 78
     2
 67
     7
 79
     5
170
     0
171
     0
290
     0
174
     0
 93
        1
 44
0.0
173
     0
291
     1
 45
0.0
1001
ACAD
1000
AcDbSavedByObjectVersion
1070
     0
  0
VISUALSTYLE
  5
F8
102
{ACAD_REACTORS
330
EF
102
}
330
EF
100
AcDbVisualStyle
  2
Conceptual
 70
     9
 71
     3
 72
     2
 73
     1
 90
        0
 40
-0.6
 41
-30.0
 62
     5
 63
     7
421
 16777215
 74
     2
 91
        2
 64
     7
 65
   257
 75
     1
175
     1
 42
40.0
 92
        8
 66
     7
 43
1.0
 76
     1
 77
     6
 78
     2
 67
     7
 79
     3
170
     0
171
     0
290
     0
174
     0
 93
        1
 44
0.0
173
     0
291
     0
 45
0.0
1001
ACAD
1000
AcDbSavedByObjectVersion
1070
     0
  0
VISUALSTYLE
  5
FA
102
{ACAD_REACTORS
330
EF
102
}
330
EF
100
AcDbVisualStyle
  2
Dim
 70
    11
 71
     2
 72
     2
 73
     1
 90
        0
 40
-0.6
 41
-30.0
 62
     5
 63
     7
421
 16777215
 74
     1
 91
        4
 64
     7
 65
   257
 75
     1
175
     1
 42
1.0
 92
        8
 66
     7
 43
1.0
 76
     1
 77
     6
 78
     2
 67
     7
 79
     5
170
     0
171
     0
290
     0
174
     0
 93
        1
 44
-50.0
173
     0
291
     1
 45
0.0
1001
ACAD
1000
AcDbSavedByObjectVersion
1070
     0
  0
VISUALSTYLE
  5
FE
102
{ACAD_REACTORS
330
EF
102
}
330
EF
100
AcDbVisualStyle
  2
Facepattern
 70
    15
 71
     2
 72
     2
 73
     1
 90
        0
 40
-0.6
 41
-30.0
 62
     5
 63
     7
421
 16777215
 74
     1
 91
        4
 64
     7
 65
   257
 75
     1
175
     1
 42
1.0
 92
        8
 66
     7
 43
1.0
 76
     1
 77
     6
 78
     2
 67
     7
 79
     5
170
     0
171
     0
290
     0
174
     0
 93
        1
 44
0.0
173
     0
291
     1
 45
0.0
1001
ACAD
1000
AcDbSavedByObjectVersion
1070
     0
  0
VISUALSTYLE
  5
F0
102
{ACAD_REACTORS
330
EF
102
}
330
EF
100
AcDbVisualStyle
  2
Flat
 70
     0
 71
     2
 72
     1
 73
     1
 90
        2
 40
-0.6
 41
30.0
 62
     5
 63
     7
421
 16777215
 74
     0
 91
        4
 64
     7
 65
   257
 75
     1
175
     1
 42
1.0
 92
        8
 66
     7
 43
1.0
 76
     1
 77
     6
 78
     2
 67
     7
 79
     5
170
     0
171
     0
290
     0
174
     0
 93
        1
 44
0.0
173
     0
291
     1
 45
0.0
1001
ACAD
1000
AcDbSavedByObjectVersion
1070
     0
  0
VISUALSTYLE
  5
F1
102
{ACAD_REACTORS
330
EF
102
}
330
EF
100
AcDbVisualStyle
  2
FlatWithEdges
 70
     1
 71
     2
 72
     1
 73
     1
 90
        2
 40
-0.6
 41
30.0
 62
     5
 63
     7
421
 16777215
 74
     1
 91
        4
 64
     7
 65
   257
 75
     1
175
     1
 42
1.0
 92
        0
 66
   257
 43
1.0
 76
     1
 77
     6
 78
     2
 67
     7
 79
     5
170
     0
171
     0
290
     0
174
     0
 93
        1
 44
0.0
173
     0
291
     1
 45
0.0
1001
ACAD
1000
AcDbSavedByObjectVersion
1070
     0
  0
VISUALSTYLE
  5
F2
102
{ACAD_REACTORS
330
EF
102
}
330
EF
100
AcDbVisualStyle
  2
Gouraud
 70
     2
 71
     2
 72
     2
 73
     1
 90
        2
 40
-0.6
 41
30.0
 62
     5
 63
     7
421
 16777215
 74
     0
 91
        4
 64
     7
 65
   257
 75
     1
175
     1
 42
1.0
 92
        0
 66
     7
 43
1.0
 76
     1
 77
     6
 78
     2
 67
     7
 79
     5
170
     0
171
     0
290
     0
174
     0
 93
        1
 44
0.0
173
     0
291
     1
 45
0.0
1001
ACAD
1000
AcDbSavedByObjectVersion
1070
     0
  0
VISUALSTYLE
  5
F3
102
{ACAD_REACTORS
330
EF
102
}
330
EF
100
AcDbVisualStyle
  2
GouraudWithEdges
 70
     3
 71
     2
 72
     2
 73
     1
 90
        2
 40
-0.6
 41
30.0
 62
     5
 63
     7
421
 16777215
 74
     1
 91
        4
 64
     7
 65
   257
 75
     1
175
     1
 42
1.0
 92
        0
 66
   257
 43
1.0
 76
     1
 77
     6
 78
     2
 67
     7
 79
     5
170
     0
171
     0
290
     0
174
     0
 93
        1
 44
0.0
173
     0
291
     1
 45
0.0
1001
ACAD
1000
AcDbSavedByObjectVersion
1070
     0
  0
VISUALSTYLE
  5
FD
102
{ACAD_REACTORS
330
EF
102
}
330
EF
100
AcDbVisualStyle
  2
Linepattern
 70
    14
 71
     2
 72
     2
 73
     1
 90
        0
 40
-0.6
 41
-30.0
 62
     5
 63
     7
421
 16777215
 74
     1
 91
        4
 64
     7
 65
   257
 75
     7
175
     7
 42
1.0
 92
        8
 66
     7
 43
1.0
 76
     1
 77
     6
 78
     2
 67
     7
 79
     5
170
     0
171
     0
290
     0
174
     0
 93
        1
 44
0.0
173
     0
291
     1
 45
0.0
1001
ACAD
1000
AcDbSavedByObjectVersion
1070
     0
  0
VISUALSTYLE
  5
F9
102
{ACAD_REACTORS
330
EF
102
}
330
EF
100
AcDbVisualStyle
  2
Realistic
 70
     8
 71
     2
 72
     2
 73
     1
 90
        0
 40
-0.6
 41
-30.0
 62
     5
 63
     7
421
 16777215
 74
     1
 91
        0
 64
     7
 65
   257
 75
     1
175
     1
 42
1.0
 92
        8
 66
     8
424
  7895160
 43
1.0
 76
     1
 77
     6
 78
     2
 67
     7
 79
     5
170
     0
171
     0
290
     0
174
     0
 93
       13
 44
0.0
173
     0
291
     0
 45
0.0
1001
ACAD
1000
AcDbSavedByObjectVersion
1070
     0
  0
VISUALSTYLE
  5
FC
102
{ACAD_REACTORS
330
EF
102
}
330
EF
100
AcDbVisualStyle
  2
Thicken
 70
    13
 71
     2
 72
     2
 73
     1
 90
        0
 40
-0.6
 41
-30.0
 62
     5
 63
     7
421
 16777215
 74
     1
 91
        4
 64
     7
 65
   257
 75
     1
175
     1
 42
1.0
 92
       12
 66
     7
 43
1.0
 76
     1
 77
     6
 78
     2
 67
     7
 79
     5
170
     0
171
     0
290
     0
174
     0
 93
        1
 44
0.0
173
     0
291
     1
 45
0.0
1001
ACAD
1000
AcDbSavedByObjectVersion
1070
     0
  0
DICTIONARYVAR
  5
146
102
{ACAD_REACTORS
330
5E
102
}
330
5E
100
DictionaryVariables
280
     0
  1
1:1
  0
DICTIONARYVAR
  5
145
102
{ACAD_REACTORS
330
5E
102
}
330
5E
100
DictionaryVariables
280
     0
  1
STANDARD
  0
DICTIONARYVAR
  5
84
102
{ACAD_REACTORS
330
5E
102
}
330
5E
100
DictionaryVariables
280
     0
  1
STANDARD
  0
DICTIONARYVAR
  5
5F
102
{ACAD_REACTORS
330
5E
102
}
330
5E
100
DictionaryVariables
280
     0
  1
2
  0
DICTIONARYVAR
  5
63
102
{ACAD_REACTORS
330
5E
102
}
330
5E
100
DictionaryVariables
280
     0
  1
1
  0
DICTIONARYVAR
  5
306
102
{ACAD_REACTORS
330
5E
102
}
330
5E
100
DictionaryVariables
280
     0
  1
2
  0
DICTIONARYVAR
  5
305
102
{ACAD_REACTORS
330
5E
102
}
330
5E
100
DictionaryVariables
280
     0
  1
1
  0
DICTIONARYVAR
  5
308
102
{ACAD_REACTORS
330
5E
102
}
330
5E
100
DictionaryVariables
280
     0
  1
80.000000
  0
DICTIONARYVAR
  5
307
102
{ACAD_REACTORS
330
5E
102
}
330
5E
100
DictionaryVariables
280
     0
  1
5.000000
  0
DICTIONARY
  5
314
330
ED
100
AcDbDictionary
280
     1
281
     1
  3
ACAD_XREC_ROUNDTRIP
360
315
  0
DICTIONARY
  5
312
330
EC
100
AcDbDictionary
280
     1
281
     1
  3
ACAD_XREC_ROUNDTRIP
360
313
  0
DICTIONARY
  5
173
330
EE
100
AcDbDictionary
280
     1
281
     1
  3
ACAD_XREC_ROUNDTRIP
360
316
  3
BUMPTILE
360
175
  3
DIFFUSETILE
360
174
  3
OPACITYTILE
360
176
  3
REFLECTIONTILE
360
177
  0
DICTIONARY
  5
162
330
7F
100
AcDbDictionary
280
     1
281
     1
  3
ACAD_ROUNDTRIP_2008_TABLESTYLE_CELLSTYLEMAP
360
310
  3
ACAD_XREC_ROUNDTRIP
360
311
  0
XRECORD
  5
315
102
{ACAD_REACTORS
330
314
102
}
330
314
100
AcDbXrecord
280
     1
102
MATERIAL
148
0.0
149
0.0
149
0.0
 93
        0
 94
       63
282
     0
 72
     1
 77
     1
171
     1
175
     1
179
     1
273
     0
  0
XRECORD
  5
313
102
{ACAD_REACTORS
330
312
102
}
330
312
100
AcDbXrecord
280
     1
102
MATERIAL
148
0.0
149
0.0
149
0.0
 93
        0
 94
       63
282
     0
 72
     1
 77
     1
171
     1
175
     1
179
     1
273
     0
  0
XRECORD
  5
316
102
{ACAD_REACTORS
330
173
102
}
330
173
100
AcDbXrecord
280
     1
102
MATERIAL
148
0.0
149
0.0
149
0.0
 93
        0
 94
       63
282
     0
 72
     1
 77
     1
171
     1
175
     1
179
     1
273
     0
  0
XRECORD
  5
175
102
{ACAD_REACTORS
330
173
102
}
330
173
100
AcDbXrecord
280
     1
270
     1
271
     1
  0
XRECORD
  5
174
102
{ACAD_REACTORS
330
173
102
}
330
173
100
AcDbXrecord
280
     1
270
     1
271
     1
  0
XRECORD
  5
176
102
{ACAD_REACTORS
330
173
102
}
330
173
100
AcDbXrecord
280
     1
270
     1
271
     1
  0
XRECORD
  5
177
102
{ACAD_REACTORS
330
173
102
}
330
173
100
AcDbXrecord
280
     1
270
     1
271
     1
  0
CELLSTYLEMAP
  5
310
102
{ACAD_REACTORS
330
162
102
}
330
162
100
AcDbCellStyleMap
 90
        3
300
CELLSTYLE
  1
TABLEFORMAT_BEGIN
 90
        5
170
     1
 91
        0
 92
    32768
 62
   257
 93
        1
300
CONTENTFORMAT
  1
CONTENTFORMAT_BEGIN
 90
        0
 91
        0
 92
      512
 93
        0
300

 40
0.0
140
1.0
 94
        5
 62
     0
340
11
144
6.0
309
CONTENTFORMAT_END
171
     1
301
MARGIN
  1
CELLMARGIN_BEGIN
 40
1.5
 40
1.5
 40
1.5
 40
1.5
 40
4.5
 40
4.5
309
CELLMARGIN_END
 94
        6
 95
        1
302
GRIDFORMAT
  1
GRIDFORMAT_BEGIN
 90
        0
 91
        1
 62
     0
 92
       -2
340
14
 93
        0
 40
1.125
309
GRIDFORMAT_END
 95
        2
302
GRIDFORMAT
  1
GRIDFORMAT_BEGIN
 90
        0
 91
        1
 62
     0
 92
       -2
340
14
 93
        0
 40
1.125
309
GRIDFORMAT_END
 95
        4
302
GRIDFORMAT
  1
GRIDFORMAT_BEGIN
 90
        0
 91
        1
 62
     0
 92
       -2
340
14
 93
        0
 40
1.125
309
GRIDFORMAT_END
 95
        8
302
GRIDFORMAT
  1
GRIDFORMAT_BEGIN
 90
        0
 91
        1
 62
     0
 92
       -2
340
14
 93
        0
 40
1.125
309
GRIDFORMAT_END
 95
       16
302
GRIDFORMAT
  1
GRIDFORMAT_BEGIN
 90
        0
 91
        1
 62
     0
 92
       -2
340
14
 93
        0
 40
1.125
309
GRIDFORMAT_END
 95
       32
302
GRIDFORMAT
  1
GRIDFORMAT_BEGIN
 90
        0
 91
        1
 62
     0
 92
       -2
340
14
 93
        0
 40
1.125
309
GRIDFORMAT_END
309
TABLEFORMAT_END
  1
CELLSTYLE_BEGIN
 90
        1
 91
        1
300
_TITLE
309
CELLSTYLE_END
300
CELLSTYLE
  1
TABLEFORMAT_BEGIN
 90
        5
170
     1
 91
        0
 92
        0
 62
   257
 93
        1
300
CONTENTFORMAT
  1
CONTENTFORMAT_BEGIN
 90
        0
 91
        0
 92
      512
 93
        0
300

 40
0.0
140
1.0
 94
        5
 62
     0
340
11
144
4.5
309
CONTENTFORMAT_END
171
     1
301
MARGIN
  1
CELLMARGIN_BEGIN
 40
1.5
 40
1.5
 40
1.5
 40
1.5
 40
4.5
 40
4.5
309
CELLMARGIN_END
 94
        6
 95
        1
302
GRIDFORMAT
  1
GRIDFORMAT_BEGIN
 90
        0
 91
        1
 62
     0
 92
       -2
340
14
 93
        0
 40
1.125
309
GRIDFORMAT_END
 95
        2
302
GRIDFORMAT
  1
GRIDFORMAT_BEGIN
 90
        0
 91
        1
 62
     0
 92
       -2
340
14
 93
        0
 40
1.125
309
GRIDFORMAT_END
 95
        4
302
GRIDFORMAT
  1
GRIDFORMAT_BEGIN
 90
        0
 91
        1
 62
     0
 92
       -2
340
14
 93
        0
 40
1.125
309
GRIDFORMAT_END
 95
        8
302
GRIDFORMAT
  1
GRIDFORMAT_BEGIN
 90
        0
 91
        1
 62
     0
 92
       -2
340
14
 93
        0
 40
1.125
309
GRIDFORMAT_END
 95
       16
302
GRIDFORMAT
  1
GRIDFORMAT_BEGIN
 90
        0
 91
        1
 62
     0
 92
       -2
340
14
 93
        0
 40
1.125
309
GRIDFORMAT_END
 95
       32
302
GRIDFORMAT
  1
GRIDFORMAT_BEGIN
 90
        0
 91
        1
 62
     0
 92
       -2
340
14
 93
        0
 40
1.125
309
GRIDFORMAT_END
309
TABLEFORMAT_END
  1
CELLSTYLE_BEGIN
 90
        2
 91
        1
300
_HEADER
309
CELLSTYLE_END
300
CELLSTYLE
  1
TABLEFORMAT_BEGIN
 90
        5
170
     1
 91
        0
 92
        0
 62
   257
 93
        1
300
CONTENTFORMAT
  1
CONTENTFORMAT_BEGIN
 90
        0
 91
        0
 92
      512
 93
        0
300

 40
0.0
140
1.0
 94
        2
 62
     0
340
11
144
4.5
309
CONTENTFORMAT_END
171
     1
301
MARGIN
  1
CELLMARGIN_BEGIN
 40
1.5
 40
1.5
 40
1.5
 40
1.5
 40
4.5
 40
4.5
309
CELLMARGIN_END
 94
        6
 95
        1
302
GRIDFORMAT
  1
GRIDFORMAT_BEGIN
 90
        0
 91
        1
 62
     0
 92
       -2
340
14
 93
        0
 40
1.125
309
GRIDFORMAT_END
 95
        2
302
GRIDFORMAT
  1
GRIDFORMAT_BEGIN
 90
        0
 91
        1
 62
     0
 92
       -2
340
14
 93
        0
 40
1.125
309
GRIDFORMAT_END
 95
        4
302
GRIDFORMAT
  1
GRIDFORMAT_BEGIN
 90
        0
 91
        1
 62
     0
 92
       -2
340
14
 93
        0
 40
1.125
309
GRIDFORMAT_END
 95
        8
302
GRIDFORMAT
  1
GRIDFORMAT_BEGIN
 90
        0
 91
        1
 62
     0
 92
       -2
340
14
 93
        0
 40
1.125
309
GRIDFORMAT_END
 95
       16
302
GRIDFORMAT
  1
GRIDFORMAT_BEGIN
 90
        0
 91
        1
 62
     0
 92
       -2
340
14
 93
        0
 40
1.125
309
GRIDFORMAT_END
 95
       32
302
GRIDFORMAT
  1
GRIDFORMAT_BEGIN
 90
        0
 91
        1
 62
     0
 92
       -2
340
14
 93
        0
 40
1.125
309
GRIDFORMAT_END
309
TABLEFORMAT_END
  1
CELLSTYLE_BEGIN
 90
        3
 91
        2
300
_DATA
309
CELLSTYLE_END
  0
XRECORD
  5
311
102
{ACAD_REACTORS
330
162
102
}
330
162
100
AcDbXrecord
280
     1
102
ACAD_ROUNDTRIP_PRE2007_TABLESTYLE
 90
      512
 91
        0
  1

 92
      512
 93
        0
  2

 94
      512
 95
        0
  3

  0
ENDSEC
  0
EOF
