  0
SECTION
  2
HEADER
  9
$ACADVER
  1
AC1015
  9
$ACADMAINTVER
 70
    20
  9
$DWGCODEPAGE
  3
ANSI_1252
  9
$INSBASE
 10
0.0
 20
0.0
 30
0.0
  9
$EXTMIN
 10
0.0000000000000009
 20
-0.0000000000000107
 30
-0.0000000000000018
  9
$EXTMAX
 10
46.10000000000015
 20
-0.0000000000000004
 30
12.00000000000001
  9
$LIMMIN
 10
0.0
 20
0.0
  9
$LIMMAX
 10
420.0
 20
297.0
  9
$ORTHOMODE
 70
     1
  9
$REGENMODE
 70
     1
  9
$FILLMODE
 70
     1
  9
$QTEXTMODE
 70
     0
  9
$MIRRTEXT
 70
     0
  9
$LTSCALE
 40
1.0
  9
$ATTMODE
 70
     1
  9
$TEXTSIZE
 40
2.5
  9
$TRACEWID
 40
1.0
  9
$TEXTSTYLE
  7
Standard
  9
$CLAYER
  8
0
  9
$CELTYPE
  6
ByLayer
  9
$CECOLOR
 62
     1
  9
$CELTSCALE
 40
1.0
  9
$DISPSILH
 70
     0
  9
$DIMSCALE
 40
1.0
  9
$DIMASZ
 40
2.5
  9
$DIMEXO
 40
0.625
  9
$DIMDLI
 40
3.75
  9
$DIMRND
 40
0.0
  9
$DIMDLE
 40
0.0
  9
$DIMEXE
 40
1.25
  9
$DIMTP
 40
0.0
  9
$DIMTM
 40
0.0
  9
$DIMTXT
 40
2.5
  9
$DIMCEN
 40
2.5
  9
$DIMTSZ
 40
0.0
  9
$DIMTOL
 70
     0
  9
$DIMLIM
 70
     0
  9
$DIMTIH
 70
     0
  9
$DIMTOH
 70
     0
  9
$DIMSE1
 70
     0
  9
$DIMSE2
 70
     0
  9
$DIMTAD
 70
     1
  9
$DIMZIN
 70
     8
  9
$DIMBLK
  1

  9
$DIMASO
 70
     1
  9
$DIMSHO
 70
     1
  9
$DIMPOST
  1

  9
$DIMAPOST
  1

  9
$DIMALT
 70
     0
  9
$DIMALTD
 70
     3
  9
$DIMALTF
 40
0.03937007874016
  9
$DIMLFAC
 40
1.0
  9
$DIMTOFL
 70
     1
  9
$DIMTVP
 40
0.0
  9
$DIMTIX
 70
     0
  9
$DIMSOXD
 70
     0
  9
$DIMSAH
 70
     0
  9
$DIMBLK1
  1

  9
$DIMBLK2
  1

  9
$DIMSTYLE
  2
ISO-25
  9
$DIMCLRD
 70
     0
  9
$DIMCLRE
 70
     0
  9
$DIMCLRT
 70
     0
  9
$DIMTFAC
 40
1.0
  9
$DIMGAP
 40
0.625
  9
$DIMJUST
 70
     0
  9
$DIMSD1
 70
     0
  9
$DIMSD2
 70
     0
  9
$DIMTOLJ
 70
     0
  9
$DIMTZIN
 70
     8
  9
$DIMALTZ
 70
     0
  9
$DIMALTTZ
 70
     0
  9
$DIMUPT
 70
     0
  9
$DIMDEC
 70
     2
  9
$DIMTDEC
 70
     2
  9
$DIMALTU
 70
     2
  9
$DIMALTTD
 70
     3
  9
$DIMTXSTY
  7
Standard
  9
$DIMAUNIT
 70
     0
  9
$DIMADEC
 70
     0
  9
$DIMALTRND
 40
0.0
  9
$DIMAZIN
 70
     0
  9
$DIMDSEP
 70
    44
  9
$DIMATFIT
 70
     3
  9
$DIMFRAC
 70
     0
  9
$DIMLDRBLK
  1

  9
$DIMLUNIT
 70
     2
  9
$DIMLWD
 70
    -2
  9
$DIMLWE
 70
    -2
  9
$DIMTMOVE
 70
     0
  9
$LUNITS
 70
     2
  9
$LUPREC
 70
     4
  9
$SKETCHINC
 40
1.0
  9
$FILLETRAD
 40
0.0
  9
$AUNITS
 70
     0
  9
$AUPREC
 70
     0
  9
$MENU
  1
.
  9
$ELEVATION
 40
0.0
  9
$PELEVATION
 40
0.0
  9
$THICKNESS
 40
0.0
  9
$LIMCHECK
 70
     0
  9
$CHAMFERA
 40
0.0
  9
$CHAMFERB
 40
0.0
  9
$CHAMFERC
 40
0.0
  9
$CHAMFERD
 40
0.0
  9
$SKPOLY
 70
     0
  9
$TDCREATE
 40
2457179.895329861
  9
$TDUCREATE
 40
2457179.811996528
  9
$TDUPDATE
 40
2457180.404827107
  9
$TDUUPDATE
 40
2457180.321493773
  9
$TDINDWG
 40
0.0075929398
  9
$TDUSRTIMER
 40
0.0075927662
  9
$USRTIMER
 70
     1
  9
$ANGBASE
 50
0.0
  9
$ANGDIR
 70
     0
  9
$PDMODE
 70
     0
  9
$PDSIZE
 40
0.0
  9
$PLINEWID
 40
0.0
  9
$SPLFRAME
 70
     0
  9
$SPLINETYPE
 70
     6
  9
$SPLINESEGS
 70
     8
  9
$HANDSEED
  5
416
  9
$SURFTAB1
 70
     6
  9
$SURFTAB2
 70
     6
  9
$SURFTYPE
 70
     6
  9
$SURFU
 70
     6
  9
$SURFV
 70
     6
  9
$UCSBASE
  2

  9
$UCSNAME
  2

  9
$UCSORG
 10
0.0
 20
0.0
 30
0.0
  9
$UCSXDIR
 10
1.0
 20
0.0
 30
0.0
  9
$UCSYDIR
 10
0.0
 20
0.0
 30
1.0
  9
$UCSORTHOREF
  2

  9
$UCSORTHOVIEW
 70
     3
  9
$UCSORGTOP
 10
0.0
 20
0.0
 30
0.0
  9
$UCSORGBOTTOM
 10
0.0
 20
0.0
 30
0.0
  9
$UCSORGLEFT
 10
0.0
 20
0.0
 30
0.0
  9
$UCSORGRIGHT
 10
0.0
 20
0.0
 30
0.0
  9
$UCSORGFRONT
 10
0.0
 20
0.0
 30
0.0
  9
$UCSORGBACK
 10
0.0
 20
0.0
 30
0.0
  9
$PUCSBASE
  2

  9
$PUCSNAME
  2

  9
$PUCSORG
 10
0.0
 20
0.0
 30
0.0
  9
$PUCSXDIR
 10
1.0
 20
0.0
 30
0.0
  9
$PUCSYDIR
 10
0.0
 20
1.0
 30
0.0
  9
$PUCSORTHOREF
  2

  9
$PUCSORTHOVIEW
 70
     0
  9
$PUCSORGTOP
 10
0.0
 20
0.0
 30
0.0
  9
$PUCSORGBOTTOM
 10
0.0
 20
0.0
 30
0.0
  9
$PUCSORGLEFT
 10
0.0
 20
0.0
 30
0.0
  9
$PUCSORGRIGHT
 10
0.0
 20
0.0
 30
0.0
  9
$PUCSORGFRONT
 10
0.0
 20
0.0
 30
0.0
  9
$PUCSORGBACK
 10
0.0
 20
0.0
 30
0.0
  9
$USERI1
 70
     0
  9
$USERI2
 70
     0
  9
$USERI3
 70
     0
  9
$USERI4
 70
     0
  9
$USERI5
 70
     0
  9
$USERR1
 40
0.0
  9
$USERR2
 40
0.0
  9
$USERR3
 40
0.0
  9
$USERR4
 40
0.0
  9
$USERR5
 40
0.0
  9
$WORLDVIEW
 70
     1
  9
$SHADEDGE
 70
     3
  9
$SHADEDIF
 70
    70
  9
$TILEMODE
 70
     1
  9
$MAXACTVP
 70
    64
  9
$PINSBASE
 10
0.0
 20
0.0
 30
0.0
  9
$PLIMCHECK
 70
     0
  9
$PEXTMIN
 10
0.0
 20
0.0
 30
0.0
  9
$PEXTMAX
 10
0.0
 20
0.0
 30
0.0
  9
$PLIMMIN
 10
0.0
 20
0.0
  9
$PLIMMAX
 10
12.0
 20
9.0
  9
$UNITMODE
 70
     0
  9
$VISRETAIN
 70
     1
  9
$PLINEGEN
 70
     0
  9
$PSLTSCALE
 70
     1
  9
$TREEDEPTH
 70
  3020
  9
$CMLSTYLE
  2
Standard
  9
$CMLJUST
 70
     0
  9
$CMLSCALE
 40
20.0
  9
$PROXYGRAPHICS
 70
     1
  9
$MEASUREMENT
 70
     1
  9
$CELWEIGHT
370
    -1
  9
$ENDCAPS
280
     0
  9
$JOINSTYLE
280
     0
  9
$LWDISPLAY
290
     0
  9
$INSUNITS
 70
     4
  9
$HYPERLINKBASE
  1

  9
$STYLESHEET
  1

  9
$XEDIT
290
     1
  9
$CEPSNTYPE
380
     0
  9
$PSTYLEMODE
290
     1
  9
$FINGERPRINTGUID
  2
{96C6BEBC-3123-4DA4-984A-05E9C42E8442}
  9
$VERSIONGUID
  2
{C8DD368F-1A26-41AB-A0AE-BF51ED494D05}
  9
$EXTNAMES
290
     1
  9
$PSVPSCALE
 40
0.0
  9
$OLESTARTUP
290
     0
  0
ENDSEC
  0
SECTION
  2
CLASSES
  0
CLASS
  1
ACDBDICTIONARYWDFLT
  2
AcDbDictionaryWithDefault
  3
ObjectDBX Classes
 90
        0
280
     0
281
     0
  0
CLASS
  1
DICTIONARYVAR
  2
AcDbDictionaryVar
  3
ObjectDBX Classes
 90
        0
280
     0
281
     0
  0
CLASS
  1
TABLESTYLE
  2
AcDbTableStyle
  3
ObjectDBX Classes
 90
     4095
280
     0
281
     0
  0
CLASS
  1
MATERIAL
  2
AcDbMaterial
  3
ObjectDBX Classes
 90
     1153
280
     0
281
     0
  0
CLASS
  1
VISUALSTYLE
  2
AcDbVisualStyle
  3
ObjectDBX Classes
 90
     4095
280
     0
281
     0
  0
CLASS
  1
SCALE
  2
AcDbScale
  3
ObjectDBX Classes
 90
     1153
280
     0
281
     0
  0
CLASS
  1
MLEADERSTYLE
  2
AcDbMLeaderStyle
  3
ACDB_MLEADERSTYLE_CLASS
 90
     4095
280
     0
281
     0
  0
CLASS
  1
CELLSTYLEMAP
  2
AcDbCellStyleMap
  3
ObjectDBX Classes
 90
     1152
280
     0
281
     0
  0
CLASS
  1
EXACXREFPANELOBJECT
  2
ExAcXREFPanelObject
  3
EXAC_ESW
 90
     1025
280
     0
281
     0
  0
CLASS
  1
NPOCOLLECTION
  2
AcDbImpNonPersistentObjectsCollection
  3
ObjectDBX Classes
 90
     1153
280
     0
281
     0
  0
CLASS
  1
SORTENTSTABLE
  2
AcDbSortentsTable
  3
ObjectDBX Classes
 90
        0
280
     0
281
     0
  0
CLASS
  1
ACDBPLACEHOLDER
  2
AcDbPlaceHolder
  3
ObjectDBX Classes
 90
        0
280
     0
281
     0
  0
CLASS
  1
LAYOUT
  2
AcDbLayout
  3
ObjectDBX Classes
 90
        0
280
     0
281
     0
  0
ENDSEC
  0
SECTION
  2
TABLES
  0
TABLE
  2
VPORT
  5
8
330
0
100
AcDbSymbolTable
 70
     1
  0
VPORT
  5
EA
330
8
100
AcDbSymbolTableRecord
100
AcDbViewportTableRecord
  2
*Active
 70
     0
 10
0.0
 20
0.0
 11
1.0
 21
1.0
 12
20.42849947602271
 22
-1.491121012427306
 13
0.0
 23
0.0
 14
10.0
 24
10.0
 15
10.0
 25
10.0
 16
0.0
 26
-1.0
 36
0.0
 17
0.0
 27
0.0
 37
0.0
 40
96.14586373972622
 41
1.803484995159728
 42
50.0
 43
0.0
 44
0.0
 50
0.0
 51
0.0
 71
     0
 72
  1000
 73
     1
 74
     3
 75
     0
 76
     0
 77
     0
 78
     0
281
     0
 65
     1
110
0.0
120
0.0
130
0.0
111
1.0
121
0.0
131
0.0
112
0.0
122
0.0
132
1.0
 79
     0
146
0.0
  0
ENDTAB
  0
TABLE
  2
LTYPE
  5
5
330
0
100
AcDbSymbolTable
 70
     1
  0
LTYPE
  5
14
330
5
100
AcDbSymbolTableRecord
100
AcDbLinetypeTableRecord
  2
ByBlock
 70
     0
  3

 72
    65
 73
     0
 40
0.0
  0
LTYPE
  5
15
330
5
100
AcDbSymbolTableRecord
100
AcDbLinetypeTableRecord
  2
ByLayer
 70
     0
  3

 72
    65
 73
     0
 40
0.0
  0
LTYPE
  5
16
330
5
100
AcDbSymbolTableRecord
100
AcDbLinetypeTableRecord
  2
Continuous
 70
     0
  3
Solid line
 72
    65
 73
     0
 40
0.0
  0
ENDTAB
  0
TABLE
  2
LAYER
  5
2
102
{ACAD_XDICTIONARY
360
2BE
102
}
330
0
100
AcDbSymbolTable
 70
     1
  0
LAYER
  5
10
102
{ACAD_XDICTIONARY
360
13C
102
}
330
2
100
AcDbSymbolTableRecord
100
AcDbLayerTableRecord
  2
0
 70
     0
 62
     7
  6
Continuous
370
    -3
390
F
  0
ENDTAB
  0
TABLE
  2
STYLE
  5
3
330
0
100
AcDbSymbolTable
 70
     2
  0
STYLE
  5
11
330
3
100
AcDbSymbolTableRecord
100
AcDbTextStyleTableRecord
  2
Standard
 70
     0
 40
0.0
 41
1.0
 50
0.0
 71
     0
 42
2.5
  3
txt.shx
  4

  0
STYLE
  5
132
330
3
100
AcDbSymbolTableRecord
100
AcDbTextStyleTableRecord
  2
Anotativo
 70
     0
 40
0.0
 41
1.0
 50
0.0
 71
     0
 42
2.5
  3
txt.shx
  4

1001
AcadAnnotative
1000
AnnotativeData
1002
{
1070
     1
1070
     1
1002
}
  0
ENDTAB
  0
TABLE
  2
VIEW
  5
6
330
0
100
AcDbSymbolTable
 70
     0
  0
ENDTAB
  0
TABLE
  2
UCS
  5
7
330
0
100
AcDbSymbolTable
 70
     0
  0
ENDTAB
  0
TABLE
  2
APPID
  5
9
330
0
100
AcDbSymbolTable
 70
     8
  0
APPID
  5
12
330
9
100
AcDbSymbolTableRecord
100
AcDbRegAppTableRecord
  2
ACAD
 70
     0
  0
APPID
  5
9E
330
9
100
AcDbSymbolTableRecord
100
AcDbRegAppTableRecord
  2
ACAD_PSEXT
 70
     0
  0
APPID
  5
133
330
9
100
AcDbSymbolTableRecord
100
AcDbRegAppTableRecord
  2
AcadAnnoPO
 70
     0
  0
APPID
  5
134
330
9
100
AcDbSymbolTableRecord
100
AcDbRegAppTableRecord
  2
AcadAnnotative
 70
     0
  0
APPID
  5
135
330
9
100
AcDbSymbolTableRecord
100
AcDbRegAppTableRecord
  2
ACAD_DSTYLE_DIMJAG
 70
     0
  0
APPID
  5
136
330
9
100
AcDbSymbolTableRecord
100
AcDbRegAppTableRecord
  2
ACAD_DSTYLE_DIMTALN
 70
     0
  0
APPID
  5
165
330
9
100
AcDbSymbolTableRecord
100
AcDbRegAppTableRecord
  2
ACAD_MLEADERVER
 70
     0
  0
APPID
  5
3D3
330
9
100
AcDbSymbolTableRecord
100
AcDbRegAppTableRecord
  2
ACAD_EXEMPT_FROM_CAD_STANDARDS
 70
     0
  0
ENDTAB
  0
TABLE
  2
DIMSTYLE
  5
A
330
0
100
AcDbSymbolTable
 70
     2
100
AcDbDimStyleTable
 71
     2
340
27
340
137
  0
DIMSTYLE
105
27
330
A
100
AcDbSymbolTableRecord
100
AcDbDimStyleTableRecord
  2
ISO-25
 70
     0
 41
2.5
 42
0.625
 43
3.75
 44
1.25
 73
     0
 74
     0
 77
     1
 78
     8
140
2.5
141
2.5
143
0.03937007874016
147
0.625
171
     3
172
     1
271
     2
272
     2
274
     3
278
    44
283
     0
284
     8
340
11
  0
DIMSTYLE
105
137
330
A
100
AcDbSymbolTableRecord
100
AcDbDimStyleTableRecord
  2
Anotativo
 70
     0
 40
0.0
 41
2.5
 42
0.625
 43
3.75
 44
1.25
 73
     0
 74
     0
 77
     1
 78
     8
140
2.5
141
2.5
143
0.03937007874016
147
0.625
171
     3
172
     1
271
     2
272
     2
274
     3
278
    44
283
     0
284
     8
340
11
1001
AcadAnnotative
1000
AnnotativeData
1002
{
1070
     1
1070
     1
1002
}
1001
ACAD_DSTYLE_DIMJAG
1070
   388
1040
1.5
1001
ACAD_DSTYLE_DIMTALN
1070
   392
1070
     0
  0
ENDTAB
  0
TABLE
  2
BLOCK_RECORD
  5
1
330
0
100
AcDbSymbolTable
 70
     3
  0
BLOCK_RECORD
  5
1F
102
{ACAD_XDICTIONARY
360
317
102
}
330
1
100
AcDbSymbolTableRecord
100
AcDbBlockTableRecord
  2
*Model_Space
340
22
  0
BLOCK_RECORD
  5
D2
330
1
100
AcDbSymbolTableRecord
100
AcDbBlockTableRecord
  2
*Paper_Space
340
D3
  0
BLOCK_RECORD
  5
D6
330
1
100
AcDbSymbolTableRecord
100
AcDbBlockTableRecord
  2
*Paper_Space0
340
D7
  0
BLOCK_RECORD
  5
1B2
330
1
100
AcDbSymbolTableRecord
100
AcDbBlockTableRecord
  2
A$C122A1D72
340
0
1001
ACAD
1000
DesignCenter Data
1002
{
1070
     1
1070
     4
1002
}
  0
BLOCK_RECORD
  5
26E
330
1
100
AcDbSymbolTableRecord
100
AcDbBlockTableRecord
  2
A$C2E796F9F
340
0
1001
ACAD
1000
DesignCenter Data
1002
{
1070
     1
1070
     4
1002
}
  0
ENDTAB
  0
ENDSEC
  0
SECTION
  2
BLOCKS
  0
BLOCK
  5
20
330
1F
100
AcDbEntity
  8
0
100
AcDbBlockBegin
  2
*Model_Space
 70
     0
 10
0.0
 20
0.0
 30
0.0
  3
*Model_Space
  1

  0
ENDBLK
  5
21
330
1F
100
AcDbEntity
  8
0
100
AcDbBlockEnd
  0
BLOCK
  5
D4
330
D2
100
AcDbEntity
 67
     1
  8
0
100
AcDbBlockBegin
  2
*Paper_Space
 70
     0
 10
0.0
 20
0.0
 30
0.0
  3
*Paper_Space
  1

  0
ENDBLK
  5
D5
330
D2
100
AcDbEntity
 67
     1
  8
0
100
AcDbBlockEnd
  0
BLOCK
  5
D8
330
D6
100
AcDbEntity
 67
     1
  8
0
100
AcDbBlockBegin
  2
*Paper_Space0
 70
     0
 10
0.0
 20
0.0
 30
0.0
  3
*Paper_Space0
  1

  0
ENDBLK
  5
D9
330
D6
100
AcDbEntity
 67
     1
  8
0
100
AcDbBlockEnd
  0
BLOCK
  5
1B3
330
1B2
100
AcDbEntity
  8
0
 62
     2
100
AcDbBlockBegin
  2
A$C122A1D72
 70
     0
 10
0.0
 20
0.0
 30
0.0
  3
A$C122A1D72
  1

  0
CIRCLE
  5
1B4
330
1B2
100
AcDbEntity
  8
0
  6
Continuous
 62
     5
370
     0
100
AcDbCircle
 10
-70.5
 20
-12.19999999999998
 30
0.0
 40
4.0
  0
LINE
  5
1B5
330
1B2
100
AcDbEntity
  8
0
  6
Continuous
 62
     5
370
     0
100
AcDbLine
 10
-70.9578126538118
 20
-8.199999999999981
 30
0.0
 11
-70.40000000000003
 21
-8.199999999999981
 31
0.0
210
0.0
220
1.0
230
0.0
  0
LINE
  5
1B6
330
1B2
100
AcDbEntity
  8
0
  6
Continuous
 62
     5
370
     0
100
AcDbLine
 10
-70.40000000000006
 20
-16.19999999999998
 30
0.0
 11
-70.60000000000005
 21
-16.19999999999998
 31
0.0
210
0.0
220
1.0
230
0.0
  0
LINE
  5
1B7
330
1B2
100
AcDbEntity
  8
0
  6
Continuous
 62
     5
370
     0
100
AcDbLine
 10
-71.4
 20
-15.69999999999998
 30
0.0
 11
-69.59999999999999
 21
-15.69999999999998
 31
0.0
210
0.0
220
1.0
230
0.0
  0
LINE
  5
1B8
330
1B2
100
AcDbEntity
  8
0
  6
Continuous
 62
     5
370
     0
100
AcDbLine
 10
-71.4
 20
-14.69999999999998
 30
0.0
 11
-71.4
 21
-15.69999999999998
 31
0.0
210
0.0
220
1.0
230
0.0
  0
LINE
  5
1B9
330
1B2
100
AcDbEntity
  8
0
  6
Continuous
 62
     5
370
     0
100
AcDbLine
 10
-69.59999999999999
 20
-15.69999999999998
 30
0.0
 11
-69.59999999999999
 21
-14.69999999999998
 31
0.0
210
0.0
220
1.0
230
0.0
  0
LINE
  5
1BA
330
1B2
100
AcDbEntity
  8
0
  6
Continuous
 62
     5
370
     0
100
AcDbLine
 10
-74.0
 20
-11.29999999999998
 30
0.0
 11
-74.0
 21
-13.09999999999998
 31
0.0
210
0.0
220
1.0
230
0.0
  0
LINE
  5
1BB
330
1B2
100
AcDbEntity
  8
0
  6
Continuous
 62
     5
370
     0
100
AcDbLine
 10
-73.0
 20
-11.29999999999998
 30
0.0
 11
-74.0
 21
-11.29999999999998
 31
0.0
210
0.0
220
1.0
230
0.0
  0
LINE
  5
1BC
330
1B2
100
AcDbEntity
  8
0
  6
Continuous
 62
     5
370
     0
100
AcDbLine
 10
-74.0
 20
-13.09999999999998
 30
0.0
 11
-73.0
 21
-13.09999999999998
 31
0.0
210
0.0
220
1.0
230
0.0
  0
LINE
  5
1BD
330
1B2
100
AcDbEntity
  8
0
  6
Continuous
 62
     5
370
     0
100
AcDbLine
 10
-69.59999999999999
 20
-8.699999999999985
 30
0.0
 11
-71.39999999999997
 21
-8.699999999999985
 31
0.0
210
0.0
220
1.0
230
0.0
  0
LINE
  5
1BE
330
1B2
100
AcDbEntity
  8
0
  6
Continuous
 62
     5
370
     0
100
AcDbLine
 10
-69.59999999999999
 20
-9.699999999999985
 30
0.0
 11
-69.59999999999999
 21
-8.699999999999985
 31
0.0
210
0.0
220
1.0
230
0.0
  0
LINE
  5
1BF
330
1B2
100
AcDbEntity
  8
0
  6
Continuous
 62
     5
370
     0
100
AcDbLine
 10
-71.4
 20
-8.699999999999985
 30
0.0
 11
-71.4
 21
-9.699999999999985
 31
0.0
210
0.0
220
1.0
230
0.0
  0
LINE
  5
1C0
330
1B2
100
AcDbEntity
  8
0
  6
Continuous
 62
     5
370
     0
100
AcDbLine
 10
-67.0
 20
-11.29999999999998
 30
0.0
 11
-67.0
 21
-13.09999999999998
 31
0.0
210
0.0
220
1.0
230
0.0
  0
LINE
  5
1C1
330
1B2
100
AcDbEntity
  8
0
  6
Continuous
 62
     5
370
     0
100
AcDbLine
 10
-68.0
 20
-11.29999999999998
 30
0.0
 11
-67.0
 21
-11.29999999999998
 31
0.0
210
0.0
220
1.0
230
0.0
  0
LINE
  5
1C2
330
1B2
100
AcDbEntity
  8
0
  6
Continuous
 62
     5
370
     0
100
AcDbLine
 10
-67.0
 20
-13.09999999999998
 30
0.0
 11
-68.0
 21
-13.09999999999998
 31
0.0
210
0.0
220
1.0
230
0.0
  0
CIRCLE
  5
1C3
330
1B2
100
AcDbEntity
  8
0
  6
Continuous
 62
     5
370
     0
100
AcDbCircle
 10
-70.5
 20
-12.19999999999998
 30
0.0
 40
2.0
  0
LINE
  5
1C4
330
1B2
100
AcDbEntity
  8
0
  6
Continuous
 62
     5
370
     0
100
AcDbLine
 10
-73.0
 20
-9.699999999999985
 30
0.0
 11
-68.0
 21
-9.699999999999985
 31
0.0
210
0.0
220
1.0
230
0.0
  0
LINE
  5
1C5
330
1B2
100
AcDbEntity
  8
0
  6
Continuous
 62
     5
370
     0
100
AcDbLine
 10
-68.0
 20
-9.699999999999985
 30
0.0
 11
-68.0
 21
-14.69999999999998
 31
0.0
210
0.0
220
1.0
230
0.0
  0
LINE
  5
1C6
330
1B2
100
AcDbEntity
  8
0
  6
Continuous
 62
     5
370
     0
100
AcDbLine
 10
-68.0
 20
-14.69999999999998
 30
0.0
 11
-73.0
 21
-14.69999999999998
 31
0.0
210
0.0
220
1.0
230
0.0
  0
LINE
  5
1C7
330
1B2
100
AcDbEntity
  8
0
  6
Continuous
 62
     5
370
     0
100
AcDbLine
 10
-73.0
 20
-14.69999999999998
 30
0.0
 11
-73.0
 21
-9.699999999999985
 31
0.0
210
0.0
220
1.0
230
0.0
  0
CIRCLE
  5
1C8
330
1B2
100
AcDbEntity
  8
0
  6
Continuous
 62
     5
370
     0
100
AcDbCircle
 10
-70.5
 20
-12.19999999999998
 30
0.0
 40
0.6
  0
LINE
  5
1C9
330
1B2
100
AcDbEntity
  8
0
  6
Continuous
 62
     5
370
     0
100
AcDbLine
 10
-36.74017816999045
 20
-6.000000000000027
 30
0.0
 11
36.74017816998919
 21
-6.000000000000027
 31
0.0
210
0.0
220
1.0
230
0.0
  0
LINE
  5
1CA
330
1B2
100
AcDbEntity
  8
0
  6
Continuous
 62
     5
370
     0
100
AcDbLine
 10
36.74017816998919
 20
-0.0000000000000284
 30
0.0
 11
-36.74017816999045
 21
-0.0000000000000284
 31
0.0
210
0.0
220
1.0
230
0.0
  0
LINE
  5
1CB
330
1B2
100
AcDbEntity
  8
0
  6
Continuous
 62
     5
370
     0
100
AcDbLine
 10
59.49165836410887
 20
-25.99999999999997
 30
0.0
 11
63.38556234547719
 21
-25.99999999999997
 31
0.0
210
0.0
220
1.0
230
0.0
  0
LINE
  5
1CC
330
1B2
100
AcDbEntity
  8
0
  6
Continuous
 62
     5
370
     0
100
AcDbLine
 10
59.49165836410887
 20
-25.99999999999997
 30
0.0
 11
59.49165836410887
 21
-6.0
 31
0.0
210
0.0
220
1.0
230
0.0
  0
LINE
  5
1CD
330
1B2
100
AcDbEntity
  8
0
  6
Continuous
 62
     5
370
     0
100
AcDbLine
 10
70.38321714656645
 20
-6.004808866259836
 30
0.0
 11
70.38321714656645
 21
-5.999999999999971
 31
0.0
210
0.0
220
1.0
230
0.0
  0
LINE
  5
1CE
330
1B2
100
AcDbEntity
  8
0
  6
Continuous
 62
     5
370
     0
100
AcDbLine
 10
64.09517312318192
 20
-15.43642513544209
 30
0.0
 11
64.09517312318192
 21
-6.0
 31
0.0
210
0.0
220
1.0
230
0.0
  0
LINE
  5
1CF
330
1B2
100
AcDbEntity
  8
0
  6
Continuous
 62
     5
370
     0
100
AcDbLine
 10
65.84150215894296
 20
-25.99999999999997
 30
0.0
 11
63.38556234547721
 21
-25.99999999999997
 31
0.0
210
0.0
220
1.0
230
0.0
  0
ELLIPSE
  5
1D0
330
1B2
100
AcDbEntity
  8
0
  6
Continuous
 62
     5
370
     0
100
AcDbEllipse
 10
68.08912100641393
 20
-25.99999999999997
 30
0.0
 11
0.0
 21
20.0
 31
0.0
210
0.0
220
0.0
230
1.0
 40
0.2351779330468406
 41
1.014342037995249
 42
1.570796326794896
  0
ELLIPSE
  5
1D1
330
1B2
100
AcDbEntity
  8
0
  6
Continuous
 62
     5
370
     0
100
AcDbEllipse
 10
66.97672907390799
 20
-25.99999999999997
 30
0.0
 11
0.0
 21
20.00000000000001
 31
0.0
210
0.0
220
0.0
230
1.0
 40
0.16967631833548
 41
0.0000000000000879
 42
1.014342037995249
  0
ELLIPSE
  5
1D2
330
1B2
100
AcDbEntity
  8
0
  6
Continuous
 62
     5
370
     0
100
AcDbEllipse
 10
66.97672907389412
 20
-25.99999999999997
 30
0.0
 11
155.3501334005836
 21
0.0
 31
0.0
210
0.0
220
0.0
230
1.0
 40
0.1287414407841434
 41
1.548866760036335
 42
1.570796326794809
  0
ELLIPSE
  5
1D3
330
1B2
100
AcDbEntity
  8
0
  6
Continuous
 62
     5
370
     0
100
AcDbEllipse
 10
70.48110899922831
 20
-25.99999999999997
 30
0.0
 11
0.0
 21
-20.00000000000001
 31
0.0
210
0.0
220
0.0
230
1.0
 40
0.2232139383057742
 41
3.163522220348353
 42
4.221495120311893
  0
ELLIPSE
  5
1D4
330
1B2
100
AcDbEntity
  8
0
  6
Continuous
 62
     5
370
     0
100
AcDbEllipse
 10
71.79050270427318
 20
-25.99999999999997
 30
0.0
 11
0.0
 21
-20.0
 31
0.0
210
0.0
220
0.0
230
1.0
 40
0.2974500272665143
 41
4.221495120311893
 42
4.712388980384688
  0
LINE
  5
1D5
330
1B2
100
AcDbEntity
  8
0
  6
Continuous
 62
     5
370
     0
100
AcDbLine
 10
-54.29294755837328
 20
-5.999999999999999
 30
0.0
 11
-51.09868405177032
 21
-5.999999999999999
 31
0.0
210
0.0
220
1.0
230
0.0
  0
LINE
  5
1D6
330
1B2
100
AcDbEntity
  8
0
  6
Continuous
 62
     5
370
     0
100
AcDbLine
 10
-51.09868405177032
 20
0.0
 30
0.0
 11
-54.29294755837328
 21
0.0
 31
0.0
210
0.0
220
1.0
230
0.0
  0
LINE
  5
1D7
330
1B2
100
AcDbEntity
  8
0
  6
Continuous
 62
     5
370
     0
100
AcDbLine
 10
-51.09868405177032
 20
-5.999999999999999
 30
0.0
 11
-47.22368526727398
 21
-5.999999999999999
 31
0.0
210
0.0
220
1.0
230
0.0
  0
LINE
  5
1D8
330
1B2
100
AcDbEntity
  8
0
  6
Continuous
 62
     5
370
     0
100
AcDbLine
 10
-51.09868405177032
 20
-5.999999999999999
 30
0.0
 11
-51.09868405177032
 21
0.0000000000000009
 31
0.0
210
0.0
220
1.0
230
0.0
  0
LINE
  5
1D9
330
1B2
100
AcDbEntity
  8
0
  6
Continuous
 62
     5
370
     0
100
AcDbLine
 10
-47.22368526727398
 20
0.0
 30
0.0
 11
-51.09868405177032
 21
0.0
 31
0.0
210
0.0
220
1.0
230
0.0
  0
LINE
  5
1DA
330
1B2
100
AcDbEntity
  8
0
  6
Continuous
 62
     5
370
     0
100
AcDbLine
 10
-47.22368526727382
 20
-5.999999999999999
 30
0.0
 11
-42.49512528123107
 21
-5.999999999999999
 31
0.0
210
0.0
220
1.0
230
0.0
  0
LINE
  5
1DB
330
1B2
100
AcDbEntity
  8
0
  6
Continuous
 62
     5
370
     0
100
AcDbLine
 10
-47.22368526727382
 20
-5.999999999999999
 30
0.0
 11
-47.22368526727382
 21
0.0000000000000009
 31
0.0
210
0.0
220
1.0
230
0.0
  0
LINE
  5
1DC
330
1B2
100
AcDbEntity
  8
0
  6
Continuous
 62
     5
370
     0
100
AcDbLine
 10
-42.49512528123107
 20
0.0
 30
0.0
 11
-47.22368526727382
 21
0.0
 31
0.0
210
0.0
220
1.0
230
0.0
  0
LINE
  5
1DD
330
1B2
100
AcDbEntity
  8
0
  6
Continuous
 62
     5
370
     0
100
AcDbLine
 10
-42.49512528123115
 20
-5.999999999999999
 30
0.0
 11
-36.74017816999048
 21
-5.999999999999999
 31
0.0
210
0.0
220
1.0
230
0.0
  0
LINE
  5
1DE
330
1B2
100
AcDbEntity
  8
0
  6
Continuous
 62
     5
370
     0
100
AcDbLine
 10
-42.49512528123115
 20
-5.999999999999999
 30
0.0
 11
-42.49512528123115
 21
0.0000000000000009
 31
0.0
210
0.0
220
1.0
230
0.0
  0
LINE
  5
1DF
330
1B2
100
AcDbEntity
  8
0
  6
Continuous
 62
     5
370
     0
100
AcDbLine
 10
-36.74017816999048
 20
0.0
 30
0.0
 11
-42.49512528123115
 21
0.0
 31
0.0
210
0.0
220
1.0
230
0.0
  0
LINE
  5
1E0
330
1B2
100
AcDbEntity
  8
0
  6
Continuous
 62
     5
370
     0
100
AcDbLine
 10
36.74017816998912
 20
-5.999999999999999
 30
0.0
 11
42.49512528123182
 21
-5.999999999999999
 31
0.0
210
0.0
220
1.0
230
0.0
  0
LINE
  5
1E1
330
1B2
100
AcDbEntity
  8
0
  6
Continuous
 62
     5
370
     0
100
AcDbLine
 10
42.49512528123182
 20
0.0
 30
0.0
 11
36.74017816998912
 21
0.0
 31
0.0
210
0.0
220
1.0
230
0.0
  0
LINE
  5
1E2
330
1B2
100
AcDbEntity
  8
0
  6
Continuous
 62
     5
370
     0
100
AcDbLine
 10
42.49512528123204
 20
-5.999999999999999
 30
0.0
 11
47.2236852672742
 21
-5.999999999999999
 31
0.0
210
0.0
220
1.0
230
0.0
  0
LINE
  5
1E3
330
1B2
100
AcDbEntity
  8
0
  6
Continuous
 62
     5
370
     0
100
AcDbLine
 10
42.49512528123204
 20
-5.999999999999999
 30
0.0
 11
42.49512528123204
 21
0.0000000000000009
 31
0.0
210
0.0
220
1.0
230
0.0
  0
LINE
  5
1E4
330
1B2
100
AcDbEntity
  8
0
  6
Continuous
 62
     5
370
     0
100
AcDbLine
 10
47.2236852672742
 20
0.0
 30
0.0
 11
42.49512528123204
 21
0.0
 31
0.0
210
0.0
220
1.0
230
0.0
  0
LINE
  5
1E5
330
1B2
100
AcDbEntity
  8
0
  6
Continuous
 62
     5
370
     0
100
AcDbLine
 10
47.22368526727404
 20
-5.999999999999999
 30
0.0
 11
51.09868405177036
 21
-5.999999999999999
 31
0.0
210
0.0
220
1.0
230
0.0
  0
LINE
  5
1E6
330
1B2
100
AcDbEntity
  8
0
  6
Continuous
 62
     5
370
     0
100
AcDbLine
 10
47.22368526727404
 20
-5.999999999999999
 30
0.0
 11
47.22368526727404
 21
0.0000000000000009
 31
0.0
210
0.0
220
1.0
230
0.0
  0
LINE
  5
1E7
330
1B2
100
AcDbEntity
  8
0
  6
Continuous
 62
     5
370
     0
100
AcDbLine
 10
51.09868405177036
 20
0.0
 30
0.0
 11
47.22368526727404
 21
0.0
 31
0.0
210
0.0
220
1.0
230
0.0
  0
LINE
  5
1E8
330
1B2
100
AcDbEntity
  8
0
  6
Continuous
 62
     5
370
     0
100
AcDbLine
 10
51.09868405177032
 20
-5.999999999999999
 30
0.0
 11
54.29294755837314
 21
-5.999999999999999
 31
0.0
210
0.0
220
1.0
230
0.0
  0
LINE
  5
1E9
330
1B2
100
AcDbEntity
  8
0
  6
Continuous
 62
     5
370
     0
100
AcDbLine
 10
51.09868405177032
 20
-5.999999999999999
 30
0.0
 11
51.09868405177032
 21
0.0000000000000009
 31
0.0
210
0.0
220
1.0
230
0.0
  0
LINE
  5
1EA
330
1B2
100
AcDbEntity
  8
0
  6
Continuous
 62
     5
370
     0
100
AcDbLine
 10
54.29294755837314
 20
0.0
 30
0.0
 11
51.09868405177032
 21
0.0
 31
0.0
210
0.0
220
1.0
230
0.0
  0
LINE
  5
1EB
330
1B2
100
AcDbEntity
  8
0
  6
Continuous
 62
     5
370
     0
100
AcDbLine
 10
54.29294755837327
 20
-5.999999999999999
 30
0.0
 11
56.96489770181496
 21
-5.999999999999999
 31
0.0
210
0.0
220
1.0
230
0.0
  0
LINE
  5
1EC
330
1B2
100
AcDbEntity
  8
0
  6
Continuous
 62
     5
370
     0
100
AcDbLine
 10
54.29294755837327
 20
-5.999999999999999
 30
0.0
 11
54.29294755837327
 21
0.0000000000000009
 31
0.0
210
0.0
220
1.0
230
0.0
  0
LINE
  5
1ED
330
1B2
100
AcDbEntity
  8
0
  6
Continuous
 62
     5
370
     0
100
AcDbLine
 10
56.96489770181496
 20
0.0
 30
0.0
 11
54.29294755837327
 21
0.0
 31
0.0
210
0.0
220
1.0
230
0.0
  0
LINE
  5
1EE
330
1B2
100
AcDbEntity
  8
0
  6
Continuous
 62
     5
370
     0
100
AcDbLine
 10
56.96489770181483
 20
-5.999999999999999
 30
0.0
 11
59.21534036114675
 21
-5.999999999999999
 31
0.0
210
0.0
220
1.0
230
0.0
  0
LINE
  5
1EF
330
1B2
100
AcDbEntity
  8
0
  6
Continuous
 62
     5
370
     0
100
AcDbLine
 10
56.96489770181483
 20
-5.999999999999999
 30
0.0
 11
56.96489770181483
 21
0.0000000000000009
 31
0.0
210
0.0
220
1.0
230
0.0
  0
LINE
  5
1F0
330
1B2
100
AcDbEntity
  8
0
  6
Continuous
 62
     5
370
     0
100
AcDbLine
 10
59.21534036114675
 20
0.0
 30
0.0
 11
56.96489770181483
 21
0.0
 31
0.0
210
0.0
220
1.0
230
0.0
  0
LINE
  5
1F1
330
1B2
100
AcDbEntity
  8
0
  6
Continuous
 62
     5
370
     0
100
AcDbLine
 10
59.21534036114687
 20
-5.999999999999999
 30
0.0
 11
61.13067740650052
 21
-5.999999999999999
 31
0.0
210
0.0
220
1.0
230
0.0
  0
LINE
  5
1F2
330
1B2
100
AcDbEntity
  8
0
  6
Continuous
 62
     5
370
     0
100
AcDbLine
 10
59.21534036114687
 20
-5.999999999999999
 30
0.0
 11
59.21534036114687
 21
0.0000000000000009
 31
0.0
210
0.0
220
1.0
230
0.0
  0
LINE
  5
1F3
330
1B2
100
AcDbEntity
  8
0
  6
Continuous
 62
     5
370
     0
100
AcDbLine
 10
61.13067740650052
 20
0.0
 30
0.0
 11
59.21534036114687
 21
0.0
 31
0.0
210
0.0
220
1.0
230
0.0
  0
LINE
  5
1F4
330
1B2
100
AcDbEntity
  8
0
  6
Continuous
 62
     5
370
     0
100
AcDbLine
 10
61.13067740650055
 20
-5.999999999999999
 30
0.0
 11
62.79731070800703
 21
-5.999999999999999
 31
0.0
210
0.0
220
1.0
230
0.0
  0
LINE
  5
1F5
330
1B2
100
AcDbEntity
  8
0
  6
Continuous
 62
     5
370
     0
100
AcDbLine
 10
61.13067740650055
 20
-5.999999999999999
 30
0.0
 11
61.13067740650055
 21
0.0000000000000009
 31
0.0
210
0.0
220
1.0
230
0.0
  0
LINE
  5
1F6
330
1B2
100
AcDbEntity
  8
0
  6
Continuous
 62
     5
370
     0
100
AcDbLine
 10
62.79731070800703
 20
0.0
 30
0.0
 11
61.13067740650055
 21
0.0
 31
0.0
210
0.0
220
1.0
230
0.0
  0
LINE
  5
1F7
330
1B2
100
AcDbEntity
  8
0
  6
Continuous
 62
     5
370
     0
100
AcDbLine
 10
62.79731070800696
 20
-5.999999999999999
 30
0.0
 11
64.30164213579769
 21
-5.999999999999999
 31
0.0
210
0.0
220
1.0
230
0.0
  0
LINE
  5
1F8
330
1B2
100
AcDbEntity
  8
0
  6
Continuous
 62
     5
370
     0
100
AcDbLine
 10
62.79731070800696
 20
-5.999999999999999
 30
0.0
 11
62.79731070800696
 21
0.0000000000000009
 31
0.0
210
0.0
220
1.0
230
0.0
  0
LINE
  5
1F9
330
1B2
100
AcDbEntity
  8
0
  6
Continuous
 62
     5
370
     0
100
AcDbLine
 10
64.30164213579769
 20
0.0
 30
0.0
 11
62.79731070800696
 21
0.0
 31
0.0
210
0.0
220
1.0
230
0.0
  0
LINE
  5
1FA
330
1B2
100
AcDbEntity
  8
0
  6
Continuous
 62
     5
370
     0
100
AcDbLine
 10
64.30164213579764
 20
-5.999999999999999
 30
0.0
 11
65.73007356000404
 21
-5.999999999999999
 31
0.0
210
0.0
220
1.0
230
0.0
  0
LINE
  5
1FB
330
1B2
100
AcDbEntity
  8
0
  6
Continuous
 62
     5
370
     0
100
AcDbLine
 10
64.30164213579764
 20
-5.999999999999999
 30
0.0
 11
64.30164213579764
 21
0.0000000000000009
 31
0.0
210
0.0
220
1.0
230
0.0
  0
LINE
  5
1FC
330
1B2
100
AcDbEntity
  8
0
  6
Continuous
 62
     5
370
     0
100
AcDbLine
 10
65.73007356000404
 20
0.0
 30
0.0
 11
64.30164213579764
 21
0.0
 31
0.0
210
0.0
220
1.0
230
0.0
  0
LINE
  5
1FD
330
1B2
100
AcDbEntity
  8
0
  6
Continuous
 62
     5
370
     0
100
AcDbLine
 10
65.730073560004
 20
-5.999999999999999
 30
0.0
 11
67.16900685075732
 21
-5.999999999999999
 31
0.0
210
0.0
220
1.0
230
0.0
  0
LINE
  5
1FE
330
1B2
100
AcDbEntity
  8
0
  6
Continuous
 62
     5
370
     0
100
AcDbLine
 10
65.730073560004
 20
-5.999999999999999
 30
0.0
 11
65.730073560004
 21
0.0000000000000009
 31
0.0
210
0.0
220
1.0
230
0.0
  0
LINE
  5
1FF
330
1B2
100
AcDbEntity
  8
0
  6
Continuous
 62
     5
370
     0
100
AcDbLine
 10
67.16900685075732
 20
0.0
 30
0.0
 11
65.730073560004
 21
0.0
 31
0.0
210
0.0
220
1.0
230
0.0
  0
LINE
  5
200
330
1B2
100
AcDbEntity
  8
0
  6
Continuous
 62
     5
370
     0
100
AcDbLine
 10
67.16900685075732
 20
-5.999999999999999
 30
0.0
 11
68.70484387818887
 21
-5.999999999999999
 31
0.0
210
0.0
220
1.0
230
0.0
  0
LINE
  5
201
330
1B2
100
AcDbEntity
  8
0
  6
Continuous
 62
     5
370
     0
100
AcDbLine
 10
67.16900685075732
 20
-5.999999999999999
 30
0.0
 11
67.16900685075732
 21
0.0000000000000009
 31
0.0
210
0.0
220
1.0
230
0.0
  0
LINE
  5
202
330
1B2
100
AcDbEntity
  8
0
  6
Continuous
 62
     5
370
     0
100
AcDbLine
 10
68.70484387818887
 20
0.0
 30
0.0
 11
67.16900685075732
 21
0.0
 31
0.0
210
0.0
220
1.0
230
0.0
  0
LINE
  5
203
330
1B2
100
AcDbEntity
  8
0
  6
Continuous
 62
     5
370
     0
100
AcDbLine
 10
68.70484387818894
 20
-5.999999999999999
 30
0.0
 11
70.35727293792193
 21
-5.999999999999999
 31
0.0
210
0.0
220
1.0
230
0.0
  0
LINE
  5
204
330
1B2
100
AcDbEntity
  8
0
  6
Continuous
 62
     5
370
     0
100
AcDbLine
 10
70.35727293792193
 20
0.0
 30
0.0
 11
68.70484387818894
 21
0.0
 31
0.0
210
0.0
220
1.0
230
0.0
  0
LINE
  5
205
330
1B2
100
AcDbEntity
  8
0
  6
Continuous
 62
     5
370
     0
100
AcDbLine
 10
70.35727293792203
 20
-5.999999999999999
 30
0.0
 11
71.87912802754548
 21
-5.999999999999999
 31
0.0
210
0.0
220
1.0
230
0.0
  0
LINE
  5
206
330
1B2
100
AcDbEntity
  8
0
  6
Continuous
 62
     5
370
     0
100
AcDbLine
 10
70.35727293792203
 20
-5.999999999999999
 30
0.0
 11
70.35727293792203
 21
0.0000000000000009
 31
0.0
210
0.0
220
1.0
230
0.0
  0
LINE
  5
207
330
1B2
100
AcDbEntity
  8
0
  6
Continuous
 62
     5
370
     0
100
AcDbLine
 10
71.87912802754548
 20
0.0
 30
0.0
 11
70.35727293792203
 21
0.0
 31
0.0
210
0.0
220
1.0
230
0.0
  0
LINE
  5
208
330
1B2
100
AcDbEntity
  8
0
  6
Continuous
 62
     5
370
     0
100
AcDbLine
 10
71.87912802754542
 20
-5.999999999999999
 30
0.0
 11
72.95652957014056
 21
-5.999999999999999
 31
0.0
210
0.0
220
1.0
230
0.0
  0
LINE
  5
209
330
1B2
100
AcDbEntity
  8
0
  6
Continuous
 62
     5
370
     0
100
AcDbLine
 10
71.87912802754542
 20
-5.999999999999999
 30
0.0
 11
71.87912802754542
 21
0.0000000000000009
 31
0.0
210
0.0
220
1.0
230
0.0
  0
LINE
  5
20A
330
1B2
100
AcDbEntity
  8
0
  6
Continuous
 62
     5
370
     0
100
AcDbLine
 10
72.95652957014056
 20
0.0
 30
0.0
 11
71.87912802754542
 21
0.0
 31
0.0
210
0.0
220
1.0
230
0.0
  0
LINE
  5
20B
330
1B2
100
AcDbEntity
  8
0
  6
Continuous
 62
     5
370
     0
100
AcDbLine
 10
72.9565295701404
 20
-5.999999999999999
 30
0.0
 11
73.27559798878827
 21
-5.999999999999999
 31
0.0
210
0.0
220
1.0
230
0.0
  0
LINE
  5
20C
330
1B2
100
AcDbEntity
  8
0
  6
Continuous
 62
     5
370
     0
100
AcDbLine
 10
72.9565295701404
 20
-5.999999999999999
 30
0.0
 11
72.9565295701404
 21
0.0000000000000009
 31
0.0
210
0.0
220
1.0
230
0.0
  0
LINE
  5
20D
330
1B2
100
AcDbEntity
  8
0
  6
Continuous
 62
     5
370
     0
100
AcDbLine
 10
73.27559798878827
 20
0.0
 30
0.0
 11
72.9565295701404
 21
0.0
 31
0.0
210
0.0
220
1.0
230
0.0
  0
LINE
  5
20E
330
1B2
100
AcDbEntity
  8
0
  6
Continuous
 62
     5
370
     0
100
AcDbLine
 10
73.27559798878835
 20
-5.999999999999999
 30
0.0
 11
73.27559798878835
 21
0.0000000000000009
 31
0.0
210
0.0
220
1.0
230
0.0
  0
LINE
  5
20F
330
1B2
100
AcDbEntity
  8
0
  6
Continuous
 62
     5
370
     0
100
AcDbLine
 10
-61.37720728497717
 20
-5.999999999999999
 30
0.0
 11
-61.13067740650068
 21
-5.999999999999999
 31
0.0
210
0.0
220
1.0
230
0.0
  0
LINE
  5
210
330
1B2
100
AcDbEntity
  8
0
  6
Continuous
 62
     5
370
     0
100
AcDbLine
 10
-61.13067740650068
 20
0.0
 30
0.0
 11
-61.45089119235937
 21
0.0
 31
0.0
210
0.0
220
1.0
230
0.0
  0
LINE
  5
211
330
1B2
100
AcDbEntity
  8
0
  6
Continuous
 62
     5
370
     0
100
AcDbLine
 10
-61.13067740650059
 20
-5.999999999999999
 30
0.0
 11
-59.21534036114707
 21
-5.999999999999999
 31
0.0
210
0.0
220
1.0
230
0.0
  0
LINE
  5
212
330
1B2
100
AcDbEntity
  8
0
  6
Continuous
 62
     5
370
     0
100
AcDbLine
 10
-61.13067740650059
 20
-5.999999999999999
 30
0.0
 11
-61.13067740650059
 21
0.0000000000000009
 31
0.0
210
0.0
220
1.0
230
0.0
  0
LINE
  5
213
330
1B2
100
AcDbEntity
  8
0
  6
Continuous
 62
     5
370
     0
100
AcDbLine
 10
-59.21534036114707
 20
0.0
 30
0.0
 11
-61.13067740650059
 21
0.0
 31
0.0
210
0.0
220
1.0
230
0.0
  0
LINE
  5
214
330
1B2
100
AcDbEntity
  8
0
  6
Continuous
 62
     5
370
     0
100
AcDbLine
 10
-59.21534036114714
 20
-5.999999999999999
 30
0.0
 11
-56.96489770181508
 21
-5.999999999999999
 31
0.0
210
0.0
220
1.0
230
0.0
  0
LINE
  5
215
330
1B2
100
AcDbEntity
  8
0
  6
Continuous
 62
     5
370
     0
100
AcDbLine
 10
-59.21534036114714
 20
-5.999999999999999
 30
0.0
 11
-59.21534036114714
 21
0.0000000000000009
 31
0.0
210
0.0
220
1.0
230
0.0
  0
LINE
  5
216
330
1B2
100
AcDbEntity
  8
0
  6
Continuous
 62
     5
370
     0
100
AcDbLine
 10
-56.96489770181508
 20
0.0
 30
0.0
 11
-59.21534036114714
 21
0.0
 31
0.0
210
0.0
220
1.0
230
0.0
  0
LINE
  5
217
330
1B2
100
AcDbEntity
  8
0
  6
Continuous
 62
     5
370
     0
100
AcDbLine
 10
-54.29294755837328
 20
-5.999999999999999
 30
0.0
 11
-54.29294755837328
 21
0.0000000000000009
 31
0.0
210
0.0
220
1.0
230
0.0
  0
LINE
  5
218
330
1B2
100
AcDbEntity
  8
0
  6
Continuous
 62
     5
370
     0
100
AcDbLine
 10
-56.96489770181507
 20
-5.999999999999999
 30
0.0
 11
-54.29294755837317
 21
-5.999999999999999
 31
0.0
210
0.0
220
1.0
230
0.0
  0
LINE
  5
219
330
1B2
100
AcDbEntity
  8
0
  6
Continuous
 62
     5
370
     0
100
AcDbLine
 10
-56.96489770181507
 20
-5.999999999999999
 30
0.0
 11
-56.96489770181507
 21
0.0000000000000009
 31
0.0
210
0.0
220
1.0
230
0.0
  0
LINE
  5
21A
330
1B2
100
AcDbEntity
  8
0
  6
Continuous
 62
     5
370
     0
100
AcDbLine
 10
-54.29294755837317
 20
0.0
 30
0.0
 11
-56.96489770181507
 21
0.0
 31
0.0
210
0.0
220
1.0
230
0.0
  0
LINE
  5
21B
330
1B2
100
AcDbEntity
  8
0
  6
Continuous
 62
     5
370
     0
100
AcDbLine
 10
-74.80000000000012
 20
-12.85764732189801
 30
0.0
 11
-74.80000000000012
 21
-11.54235267810193
 31
0.0
210
0.0
220
1.0
230
0.0
  0
LINE
  5
21C
330
1B2
100
AcDbEntity
  8
0
  6
Continuous
 62
     5
370
     0
100
AcDbLine
 10
-76.50000000000017
 20
-6.199999999999985
 30
0.0
 11
-76.50000000000017
 21
-9.199999999999985
 31
0.0
210
0.0
220
1.0
230
0.0
  0
LINE
  5
21D
330
1B2
100
AcDbEntity
  8
0
  6
Continuous
 62
     5
370
     0
100
AcDbLine
 10
-76.50000000000017
 20
-15.19999999999998
 30
0.0
 11
-76.50000000000017
 21
-18.19999999999998
 31
0.0
210
0.0
220
1.0
230
0.0
  0
LINE
  5
21E
330
1B2
100
AcDbEntity
  8
0
  6
Continuous
 62
     5
370
     0
100
AcDbLine
 10
-72.2000000000001
 20
-8.299999999999965
 30
0.0
 11
-71.38881944173147
 21
-8.299999999999965
 31
0.0
210
0.0
220
1.0
230
0.0
  0
LINE
  5
21F
330
1B2
100
AcDbEntity
  8
0
  6
Continuous
 62
     5
370
     0
100
AcDbLine
 10
-72.2000000000001
 20
-16.09999999999997
 30
0.0
 11
-72.2000000000001
 21
-15.82077339804627
 31
0.0
210
0.0
220
1.0
230
0.0
  0
LINE
  5
220
330
1B2
100
AcDbEntity
  8
0
  6
Continuous
 62
     5
370
     0
100
AcDbLine
 10
-72.2000000000001
 20
-8.579226601953699
 30
0.0
 11
-72.2000000000001
 21
-8.299999999999965
 31
0.0
210
0.0
220
1.0
230
0.0
  0
LINE
  5
221
330
1B2
100
AcDbEntity
  8
0
  6
Continuous
 62
     5
370
     0
100
AcDbLine
 10
-71.3888194417316
 20
-16.09999999999997
 30
0.0
 11
-72.2000000000001
 21
-16.09999999999997
 31
0.0
210
0.0
220
1.0
230
0.0
  0
LINE
  5
222
330
1B2
100
AcDbEntity
  8
0
  6
Continuous
 62
     5
370
     0
100
AcDbLine
 10
-70.60000000000005
 20
-16.54885042281287
 30
0.0
 11
-70.60000000000005
 21
-16.19874980462642
 31
0.0
210
0.0
220
1.0
230
0.0
  0
LINE
  5
223
330
1B2
100
AcDbEntity
  8
0
  6
Continuous
 62
     5
370
     0
100
AcDbLine
 10
-76.50000000000017
 20
-18.19999999999998
 30
0.0
 11
-73.50000000000017
 21
-18.19999999999998
 31
0.0
210
0.0
220
1.0
230
0.0
  0
LINE
  5
224
330
1B2
100
AcDbEntity
  8
0
  6
Continuous
 62
     5
370
     0
100
AcDbLine
 10
-70.9578126538118
 20
-8.226285418652981
 30
0.0
 11
-70.9578126538118
 21
-7.874158165858335
 31
0.0
210
0.0
220
1.0
230
0.0
  0
LINE
  5
225
330
1B2
100
AcDbEntity
  8
0
  6
Continuous
 62
     5
370
     0
100
AcDbLine
 10
-76.50000000000017
 20
-6.199999999999985
 30
0.0
 11
-73.50000000000017
 21
-6.199999999999985
 31
0.0
210
0.0
220
1.0
230
0.0
  0
LINE
  5
226
330
1B2
100
AcDbEntity
  8
0
  6
Continuous
 62
     5
370
     0
100
AcDbLine
 10
-70.60000000000005
 20
-18.19999999999998
 30
0.0
 11
-70.60000000000005
 21
-16.54885042281287
 31
0.0
210
0.0
220
1.0
230
0.0
  0
LINE
  5
227
330
1B2
100
AcDbEntity
  8
0
  6
Continuous
 62
     5
370
     0
100
AcDbLine
 10
-70.60000000000005
 20
-18.19999999999998
 30
0.0
 11
-73.50000000000017
 21
-18.19999999999998
 31
0.0
210
0.0
220
1.0
230
0.0
  0
ARC
  5
228
330
1B2
100
AcDbEntity
  8
0
  6
Continuous
 62
     5
370
     0
100
AcDbCircle
 10
-73.50000000000017
 20
-15.19999999999998
 30
0.0
 40
3.0
100
AcDbArc
 50
180.0
 51
270.0
  0
LINE
  5
229
330
1B2
100
AcDbEntity
  8
0
  6
Continuous
 62
     5
370
     0
100
AcDbLine
 10
-76.50000000000017
 20
-15.19999999999998
 30
0.0
 11
-76.50000000000017
 21
-9.199999999999985
 31
0.0
210
0.0
220
1.0
230
0.0
  0
ARC
  5
22A
330
1B2
100
AcDbEntity
  8
0
  6
Continuous
 62
     5
370
     0
100
AcDbCircle
 10
-73.50000000000017
 20
-9.199999999999985
 30
0.0
 40
3.0
100
AcDbArc
 50
90.0
 51
180.0
  0
LINE
  5
22B
330
1B2
100
AcDbEntity
  8
0
  6
Continuous
 62
     5
370
     0
100
AcDbLine
 10
-70.60000000000005
 20
-6.199999999999985
 30
0.0
 11
-73.50000000000017
 21
-6.199999999999985
 31
0.0
210
0.0
220
1.0
230
0.0
  0
LINE
  5
22C
330
1B2
100
AcDbEntity
  8
0
  6
Continuous
 62
     5
370
     0
100
AcDbLine
 10
-70.60000000000005
 20
-7.851149577187062
 30
0.0
 11
-70.60000000000005
 21
-6.199999999999985
 31
0.0
210
0.0
220
1.0
230
0.0
  0
ARC
  5
22D
330
1B2
100
AcDbEntity
  8
0
  6
Continuous
 62
     5
370
     0
100
AcDbCircle
 10
-70.50000000000007
 20
-12.19999999999997
 30
0.0
 40
4.349999999999998
100
AcDbArc
 50
91.31726039640652
 51
268.6827396035934
  0
LINE
  5
22E
330
1B2
100
AcDbEntity
  8
0
  6
Continuous
 62
     5
370
     0
100
AcDbLine
 10
-69.30000000000006
 20
-8.384243194332182
 30
0.0
 11
-69.30000000000006
 21
-8.299999999999982
 31
0.0
210
0.0
220
1.0
230
0.0
  0
LINE
  5
22F
330
1B2
100
AcDbEntity
  8
0
  6
Continuous
 62
     5
370
     0
100
AcDbLine
 10
-70.40000000000005
 20
-7.849999999999987
 30
0.0
 11
-70.50000000000007
 21
-7.849999999999987
 31
0.0
210
0.0
220
1.0
230
0.0
  0
LINE
  5
230
330
1B2
100
AcDbEntity
  8
0
  6
Continuous
 62
     5
370
     0
100
AcDbLine
 10
-68.80000000000014
 20
-8.299999999999982
 30
0.0
 11
-68.80000000000014
 21
-8.579226601953591
 31
0.0
210
0.0
220
1.0
230
0.0
  0
LINE
  5
231
330
1B2
100
AcDbEntity
  8
0
  6
Continuous
 62
     5
370
     0
100
AcDbLine
 10
-69.61118055826844
 20
-8.299999999999982
 30
0.0
 11
-68.80000000000014
 21
-8.299999999999982
 31
0.0
210
0.0
220
1.0
230
0.0
  0
LINE
  5
232
330
1B2
100
AcDbEntity
  8
0
  6
Continuous
 62
     5
370
     0
100
AcDbLine
 10
-70.40000000000003
 20
-7.851149577187081
 30
0.0
 11
-70.40000000000003
 21
-8.201250195373543
 31
0.0
210
0.0
220
1.0
230
0.0
  0
LINE
  5
233
330
1B2
100
AcDbEntity
  8
0
  6
Continuous
 62
     5
370
     0
100
AcDbLine
 10
-66.15000000000003
 20
-12.2
 30
0.0
 11
-66.5
 21
-12.2
 31
0.0
210
0.0
220
1.0
230
0.0
  0
ARC
  5
234
330
1B2
100
AcDbEntity
  8
0
  6
Continuous
 62
     5
370
     0
100
AcDbCircle
 10
-70.50000000000007
 20
-12.19999999999999
 30
0.0
 40
4.349999999999998
100
AcDbArc
 50
359.9999999999998
 51
88.68273960359308
  0
LINE
  5
235
330
1B2
100
AcDbEntity
  8
0
  6
Continuous
 62
     5
370
     0
100
AcDbLine
 10
-70.40000000000003
 20
-6.200000000000031
 30
0.0
 11
-70.40000000000003
 21
-7.851149577187081
 31
0.0
210
0.0
220
1.0
230
0.0
  0
LINE
  5
236
330
1B2
100
AcDbEntity
  8
0
  6
Continuous
 62
     5
370
     0
100
AcDbLine
 10
-67.50000000000017
 20
-6.200000000000001
 30
0.0
 11
-70.40000000000003
 21
-6.200000000000001
 31
0.0
210
0.0
220
1.0
230
0.0
  0
LINE
  5
237
330
1B2
100
AcDbEntity
  8
0
  6
Continuous
 62
     5
370
     0
100
AcDbLine
 10
-64.50000000000017
 20
-12.2
 30
0.0
 11
-66.15000000000003
 21
-12.2
 31
0.0
210
0.0
220
1.0
230
0.0
  0
LINE
  5
238
330
1B2
100
AcDbEntity
  8
0
  6
Continuous
 62
     5
370
     0
100
AcDbLine
 10
-57.72914249826764
 20
-9.000000000000008
 30
0.0
 11
-57.06855567571897
 21
-9.000000000000008
 31
0.0
210
0.0
220
1.0
230
0.0
  0
LINE
  5
239
330
1B2
100
AcDbEntity
  8
0
  6
Continuous
 62
     5
370
     0
100
AcDbLine
 10
-57.06855567571897
 20
-6.200000000000031
 30
0.0
 11
-57.72914249826764
 21
-6.200000000000031
 31
0.0
210
0.0
220
1.0
230
0.0
  0
LINE
  5
23A
330
1B2
100
AcDbEntity
  8
0
  6
Continuous
 62
     5
370
     0
100
AcDbLine
 10
-64.50000000000017
 20
-9.000000000000008
 30
0.0
 11
-57.72914249826764
 21
-9.000000000000008
 31
0.0
210
0.0
220
1.0
230
0.0
  0
LINE
  5
23B
330
1B2
100
AcDbEntity
  8
0
  6
Continuous
 62
     5
370
     0
100
AcDbLine
 10
-57.72914249826765
 20
-6.200000000000031
 30
0.0
 11
-64.50000000000017
 21
-6.200000000000031
 31
0.0
210
0.0
220
1.0
230
0.0
  0
LINE
  5
23C
330
1B2
100
AcDbEntity
  8
0
  6
Continuous
 62
     5
370
     0
100
AcDbLine
 10
-64.50000000000017
 20
-12.2
 30
0.0
 11
-64.50000000000017
 21
-9.200000000000002
 31
0.0
210
0.0
220
1.0
230
0.0
  0
ARC
  5
23D
330
1B2
100
AcDbEntity
  8
0
  6
Continuous
 62
     5
370
     0
100
AcDbCircle
 10
-67.50000000000017
 20
-9.200000000000002
 30
0.0
 40
3.0
100
AcDbArc
 50
0.0000000000000064
 51
90.0
  0
LINE
  5
23E
330
1B2
100
AcDbEntity
  8
0
  6
Continuous
 62
     5
370
     0
100
AcDbLine
 10
-64.50000000000017
 20
-9.000000000000008
 30
0.0
 11
-64.50000000000017
 21
-9.200000000000002
 31
0.0
210
0.0
220
1.0
230
0.0
  0
LINE
  5
23F
330
1B2
100
AcDbEntity
  8
0
  6
Continuous
 62
     5
370
     0
100
AcDbLine
 10
-64.50000000000017
 20
-6.200000000000001
 30
0.0
 11
-67.50000000000017
 21
-6.200000000000001
 31
0.0
210
0.0
220
1.0
230
0.0
  0
LINE
  5
240
330
1B2
100
AcDbEntity
  8
0
  6
Continuous
 62
     5
370
     0
100
AcDbLine
 10
-64.50000000000017
 20
-9.000000000000008
 30
0.0
 11
-64.50000000000017
 21
-6.200000000000031
 31
0.0
210
0.0
220
1.0
230
0.0
  0
LINE
  5
241
330
1B2
100
AcDbEntity
  8
0
  6
Continuous
 62
     5
370
     0
100
AcDbLine
 10
-57.24761705732478
 20
0.1999999999999637
 30
0.0
 11
-57.06855567571897
 21
0.1999999999999637
 31
0.0
210
0.0
220
1.0
230
0.0
  0
ELLIPSE
  5
242
330
1B2
100
AcDbEntity
  8
0
  6
Continuous
 62
     5
370
     0
100
AcDbEllipse
 10
-58.73099033454008
 20
-1.000000000000007
 30
0.0
 11
0.0000000000000004
 21
4.0
 31
0.0
210
0.0
220
0.0
230
1.0
 40
0.4220064467765933
 41
6.105247045074667
 42
6.283185307179585
  0
ELLIPSE
  5
243
330
1B2
100
AcDbEntity
  8
0
  6
Continuous
 62
     5
370
     0
100
AcDbEllipse
 10
-58.84292967539349
 20
-1.000000000000007
 30
0.0
 11
0.0000000000000005
 21
4.0
 31
0.0
210
0.0
220
0.0
230
1.0
 40
0.5801121757040587
 41
5.557247289369028
 42
6.10524704507467
  0
SPLINE
  5
244
330
1B2
100
AcDbEntity
  8
0
  6
Continuous
 62
     5
370
     0
100
AcDbSpline
210
0.0
220
0.0
230
1.0
 70
     8
 71
     3
 72
    14
 73
    10
 74
     0
 42
0.0000000001
 43
0.0000000001
 40
1.084020788869887
 40
1.084020788869887
 40
1.084020788869887
 40
1.084020788869887
 40
1.423779486503405
 40
1.423779486503405
 40
2.135669229755107
 40
2.135669229755107
 40
2.84755897300681
 40
2.84755897300681
 40
3.248676087314531
 40
3.248676087314531
 40
3.248676087314531
 40
3.248676087314531
 10
-57.24761705732476
 20
0.1999999999999637
 30
0.0
 10
-57.21500539599158
 20
0.3050384522733829
 30
0.0
 10
-57.18583306655141
 20
0.4094534786941928
 30
0.0
 10
-57.10887542043018
 20
0.7286298844017871
 30
0.0
 10
-57.07552891239934
 20
0.9388220720226916
 30
0.0
 10
-57.06351991038644
 20
1.337797014518815
 30
0.0
 10
-57.08416398069211
 20
1.526500314653193
 30
0.0
 10
-57.18095357824683
 20
1.799956701403831
 30
0.0
 10
-57.23222201802355
 20
1.900371982237292
 30
0.0
 10
-57.30252937441075
 20
1.991508239630024
 30
0.0
  0
LINE
  5
245
330
1B2
100
AcDbEntity
  8
0
  6
Continuous
 62
     5
370
     0
100
AcDbLine
 10
-61.48408900529979
 20
0.1999999999999637
 30
0.0
 11
-57.24761705732476
 21
0.1999999999999637
 31
0.0
210
0.0
220
1.0
230
0.0
  0
LINE
  5
246
330
1B2
100
AcDbEntity
  8
0
  6
Continuous
 62
     5
370
     0
100
AcDbLine
 10
-58.73099033454009
 20
3.000000000000003
 30
0.0
 11
-70.23092698876761
 21
3.000000000000003
 31
0.0
210
0.0
220
1.0
230
0.0
  0
ELLIPSE
  5
247
330
1B2
100
AcDbEntity
  8
0
  6
Continuous
 62
     5
370
     0
100
AcDbEllipse
 10
-63.69765598779327
 20
-1.000000000000007
 30
0.0
 11
0.0000000000000005
 21
4.0
 31
0.0
210
0.0
220
0.0
230
1.0
 40
0.5801121757040481
 41
4.712388980384688
 42
5.017081634400076
  0
LINE
  5
248
330
1B2
100
AcDbEntity
  8
0
  6
Continuous
 62
     5
370
     0
100
AcDbLine
 10
-61.37720728497725
 20
-6.20000000000004
 30
0.0
 11
-61.37720728497725
 21
-1.000000000000007
 31
0.0
210
0.0
220
1.0
230
0.0
  0
LINE
  5
249
330
1B2
100
AcDbEntity
  8
0
  6
Continuous
 62
     5
370
     0
100
AcDbLine
 10
-64.50000000000016
 20
-6.200000000000036
 30
0.0
 11
-61.37720728497725
 21
-6.200000000000036
 31
0.0
210
0.0
220
1.0
230
0.0
  0
LINE
  5
24A
330
1B2
100
AcDbEntity
  8
0
  6
Continuous
 62
     5
370
     0
100
AcDbLine
 10
-64.50000000000017
 20
-6.20000000000004
 30
0.0
 11
-64.50000000000017
 21
-1.000000000000007
 31
0.0
210
0.0
220
1.0
230
0.0
  0
LINE
  5
24B
330
1B2
100
AcDbEntity
  8
0
  6
Continuous
 62
     5
370
     0
100
AcDbLine
 10
-70.50000000000007
 20
-6.20000000000004
 30
0.0
 11
-70.40000000000003
 21
-6.20000000000004
 31
0.0
210
0.0
220
1.0
230
0.0
  0
LINE
  5
24C
330
1B2
100
AcDbEntity
  8
0
  6
Continuous
 62
     5
370
     0
100
AcDbLine
 10
-70.50000000000007
 20
-6.20000000000004
 30
0.0
 11
-70.50000000000007
 21
-7.84999999999999
 31
0.0
210
0.0
220
1.0
230
0.0
  0
LINE
  5
24D
330
1B2
100
AcDbEntity
  8
0
  6
Continuous
 62
     5
370
     0
100
AcDbLine
 10
-70.60000000000005
 20
-7.84999999999999
 30
0.0
 11
-70.50000000000007
 21
-7.84999999999999
 31
0.0
210
0.0
220
1.0
230
0.0
  0
LINE
  5
24E
330
1B2
100
AcDbEntity
  8
0
  6
Continuous
 62
     5
370
     0
100
AcDbLine
 10
-74.50000000000024
 20
-6.199999999999985
 30
0.0
 11
-74.50000000000024
 21
-5.85000000000004
 31
0.0
210
0.0
220
1.0
230
0.0
  0
LINE
  5
24F
330
1B2
100
AcDbEntity
  8
0
  6
Continuous
 62
     5
370
     0
100
AcDbLine
 10
-76.50000000000017
 20
-5.85000000000004
 30
0.0
 11
-74.50000000000024
 21
-5.85000000000004
 31
0.0
210
0.0
220
1.0
230
0.0
  0
LINE
  5
250
330
1B2
100
AcDbEntity
  8
0
  6
Continuous
 62
     5
370
     0
100
AcDbLine
 10
-76.50000000000017
 20
3.000000000000003
 30
0.0
 11
-70.23092698876762
 21
3.000000000000003
 31
0.0
210
0.0
220
1.0
230
0.0
  0
SPLINE
  5
251
330
1B2
100
AcDbEntity
  8
0
  6
Continuous
 62
     5
370
     0
100
AcDbSpline
210
0.0
220
0.0
230
1.0
 70
     8
 71
     3
 72
    22
 73
    18
 74
     0
 42
0.0000000001
 43
0.0000000001
 40
6.473371407158667
 40
6.473371407158667
 40
6.473371407158667
 40
6.473371407158667
 40
7.47630840818712
 40
7.47630840818712
 40
8.479245409215572
 40
8.479245409215572
 40
9.482182410244023
 40
9.482182410244023
 40
10.48511941127247
 40
10.48511941127247
 40
11.41047600539399
 40
11.41047600539399
 40
12.33583259951551
 40
12.33583259951551
 40
13.26118919363703
 40
13.26118919363703
 40
14.18654578775855
 40
14.18654578775855
 40
14.18654578775855
 40
14.18654578775855
 10
-70.23092698876761
 20
3.000000000000003
 30
0.0
 10
-69.9522089010062
 20
3.000000000000003
 30
0.0
 10
-69.65675203097028
 20
2.972676294800013
 30
0.0
 10
-69.04850531880242
 20
2.864611001265816
 30
0.0
 10
-68.73570597465954
 20
2.783963008826591
 30
0.0
 10
-68.11079249221669
 20
2.576825771837977
 30
0.0
 10
-67.79847127958465
 20
2.4503249842104
 30
0.0
 10
-67.19306604864826
 20
2.162292223062113
 30
0.0
 10
-66.89999689772946
 20
2.000760522257341
 30
0.0
 10
-66.37367919743764
 20
1.669424270518265
 30
0.0
 10
-66.11711526219079
 20
1.488407425935438
 30
0.0
 10
-65.62884856606462
 20
1.087213715624987
 30
0.0
 10
-65.39707120289313
 20
0.8671528910532551
 30
0.0
 10
-64.99292408245435
 20
0.3925827680238036
 30
0.0
 10
-64.82070042921917
 20
0.1386131879967571
 30
0.0
 10
-64.57434409741797
 20
-0.4035109346985452
 30
0.0
 10
-64.50000000000017
 20
-0.6915478019595014
 30
0.0
 10
-64.50000000000017
 20
-1.000000000000007
 30
0.0
  0
LINE
  5
252
330
1B2
100
AcDbEntity
  8
0
  6
Continuous
 62
     5
370
     0
100
AcDbLine
 10
-76.50000000000017
 20
3.000000000000001
 30
0.0
 11
-76.50000000000017
 21
-5.85000000000004
 31
0.0
210
0.0
220
1.0
230
0.0
  0
LINE
  5
253
330
1B2
100
AcDbEntity
  8
0
  6
Continuous
 62
     5
370
     0
100
AcDbLine
 10
-69.30000000000006
 20
-16.01575680566779
 30
0.0
 11
-69.30000000000006
 21
-16.09999999999999
 31
0.0
210
0.0
220
1.0
230
0.0
  0
LINE
  5
254
330
1B2
100
AcDbEntity
  8
0
  6
Continuous
 62
     5
370
     0
100
AcDbLine
 10
-64.50000000000017
 20
-18.2
 30
0.0
 11
-64.50000000000017
 21
-15.2
 31
0.0
210
0.0
220
1.0
230
0.0
  0
LINE
  5
255
330
1B2
100
AcDbEntity
  8
0
  6
Continuous
 62
     5
370
     0
100
AcDbLine
 10
-70.60000000000005
 20
-16.54999999999992
 30
0.0
 11
-70.40000000000006
 21
-16.54999999999992
 31
0.0
210
0.0
220
1.0
230
0.0
  0
LINE
  5
256
330
1B2
100
AcDbEntity
  8
0
  6
Continuous
 62
     5
370
     0
100
AcDbLine
 10
-70.40000000000006
 20
-18.2
 30
0.0
 11
-70.60000000000005
 21
-18.2
 31
0.0
210
0.0
220
1.0
230
0.0
  0
LINE
  5
257
330
1B2
100
AcDbEntity
  8
0
  6
Continuous
 62
     5
370
     0
100
AcDbLine
 10
-67.50000000000017
 20
-18.2
 30
0.0
 11
-64.50000000000017
 21
-18.2
 31
0.0
210
0.0
220
1.0
230
0.0
  0
LINE
  5
258
330
1B2
100
AcDbEntity
  8
0
  6
Continuous
 62
     5
370
     0
100
AcDbLine
 10
-64.50000000000017
 20
-15.2
 30
0.0
 11
-64.50000000000017
 21
-12.2
 31
0.0
210
0.0
220
1.0
230
0.0
  0
ARC
  5
259
330
1B2
100
AcDbEntity
  8
0
  6
Continuous
 62
     5
370
     0
100
AcDbCircle
 10
-67.50000000000017
 20
-15.2
 30
0.0
 40
3.0
100
AcDbArc
 50
270.0
 51
0.0
  0
LINE
  5
25A
330
1B2
100
AcDbEntity
  8
0
  6
Continuous
 62
     5
370
     0
100
AcDbLine
 10
-67.50000000000017
 20
-18.2
 30
0.0
 11
-70.40000000000006
 21
-18.2
 31
0.0
210
0.0
220
1.0
230
0.0
  0
LINE
  5
25B
330
1B2
100
AcDbEntity
  8
0
  6
Continuous
 62
     5
370
     0
100
AcDbLine
 10
-70.40000000000006
 20
-16.54885042281289
 30
0.0
 11
-70.40000000000006
 21
-18.2
 31
0.0
210
0.0
220
1.0
230
0.0
  0
LINE
  5
25C
330
1B2
100
AcDbEntity
  8
0
  6
Continuous
 62
     5
370
     0
100
AcDbLine
 10
-66.15000000000003
 20
-12.2
 30
0.0
 11
-64.50000000000017
 21
-12.2
 31
0.0
210
0.0
220
1.0
230
0.0
  0
ARC
  5
25D
330
1B2
100
AcDbEntity
  8
0
  6
Continuous
 62
     5
370
     0
100
AcDbCircle
 10
-70.50000000000007
 20
-12.19999999999998
 30
0.0
 40
4.349999999999998
100
AcDbArc
 50
271.3172603964066
 51
359.9999999999998
  0
LINE
  5
25E
330
1B2
100
AcDbEntity
  8
0
  6
Continuous
 62
     5
370
     0
100
AcDbLine
 10
-70.40000000000006
 20
-16.19874980462643
 30
0.0
 11
-70.40000000000006
 21
-16.54885042281289
 31
0.0
210
0.0
220
1.0
230
0.0
  0
LINE
  5
25F
330
1B2
100
AcDbEntity
  8
0
  6
Continuous
 62
     5
370
     0
100
AcDbLine
 10
-68.80000000000014
 20
-15.82077339804638
 30
0.0
 11
-68.80000000000014
 21
-16.09999999999999
 31
0.0
210
0.0
220
1.0
230
0.0
  0
LINE
  5
260
330
1B2
100
AcDbEntity
  8
0
  6
Continuous
 62
     5
370
     0
100
AcDbLine
 10
-66.5
 20
-12.2
 30
0.0
 11
-66.15000000000003
 21
-12.2
 31
0.0
210
0.0
220
1.0
230
0.0
  0
LINE
  5
261
330
1B2
100
AcDbEntity
  8
0
  6
Continuous
 62
     5
370
     0
100
AcDbLine
 10
-68.80000000000014
 20
-16.09999999999999
 30
0.0
 11
-69.61118055826847
 21
-16.09999999999999
 31
0.0
210
0.0
220
1.0
230
0.0
  0
CIRCLE
  5
262
330
1B2
100
AcDbEntity
  8
0
  6
Continuous
 62
     5
370
     0
100
AcDbCircle
 10
-70.49999999999998
 20
-32.19999999999999
 30
0.0
 40
2.2
  0
LINE
  5
263
330
1B2
100
AcDbEntity
  8
0
  6
Continuous
 62
     5
370
     0
100
AcDbLine
 10
-73.50000000000017
 20
-24.94999999999999
 30
0.0
 11
-67.50000000000015
 21
-24.95
 31
0.0
210
0.0
220
1.0
230
0.0
  0
ARC
  5
264
330
1B2
100
AcDbEntity
  8
0
  6
Continuous
 62
     5
370
     0
100
AcDbCircle
 10
-67.50000000000017
 20
-29.2
 30
0.0
 40
4.250000000000002
100
AcDbArc
 50
0.0000000000000445
 51
89.99999999999982
  0
LINE
  5
265
330
1B2
100
AcDbEntity
  8
0
  6
Continuous
 62
     5
370
     0
100
AcDbLine
 10
-63.25000000000015
 20
-29.2
 30
0.0
 11
-63.25000000000015
 21
-35.2
 31
0.0
210
0.0
220
1.0
230
0.0
  0
ARC
  5
266
330
1B2
100
AcDbEntity
  8
0
  6
Continuous
 62
     5
370
     0
100
AcDbCircle
 10
-67.50000000000015
 20
-35.20000000000001
 30
0.0
 40
4.249999999999993
100
AcDbArc
 50
270.0
 51
0.0000000000001018
  0
LINE
  5
267
330
1B2
100
AcDbEntity
  8
0
  6
Continuous
 62
     5
370
     0
100
AcDbLine
 10
-67.50000000000015
 20
-39.45
 30
0.0
 11
-73.50000000000015
 21
-39.44999999999999
 31
0.0
210
0.0
220
1.0
230
0.0
  0
ARC
  5
268
330
1B2
100
AcDbEntity
  8
0
  6
Continuous
 62
     5
370
     0
100
AcDbCircle
 10
-73.50000000000015
 20
-35.19999999999999
 30
0.0
 40
4.250000000000002
100
AcDbArc
 50
180.0
 51
270.0
  0
LINE
  5
269
330
1B2
100
AcDbEntity
  8
0
  6
Continuous
 62
     5
370
     0
100
AcDbLine
 10
-77.75000000000016
 20
-35.19999999999999
 30
0.0
 11
-77.75000000000016
 21
-29.19999999999999
 31
0.0
210
0.0
220
1.0
230
0.0
  0
ARC
  5
26A
330
1B2
100
AcDbEntity
  8
0
  6
Continuous
 62
     5
370
     0
100
AcDbCircle
 10
-73.50000000000017
 20
-29.19999999999998
 30
0.0
 40
4.249999999999993
100
AcDbArc
 50
90.0
 51
180.0000000000001
  0
LINE
  5
26B
330
1B2
100
AcDbEntity
  8
0
  6
Continuous
 62
     5
370
     0
100
AcDbLine
 10
-57.06855567571897
 20
-6.200000000000031
 30
0.0
 11
-57.06855567571897
 21
-9.000000000000008
 31
0.0
210
0.0
220
1.0
230
0.0
  0
LINE
  5
26C
330
1B2
100
AcDbEntity
  8
0
  6
Continuous
 62
     5
370
     0
100
AcDbLine
 10
-57.06855567571897
 20
1.201890013207872
 30
0.0
 11
-57.06855567571897
 21
0.1999999999999637
 31
0.0
210
0.0
220
1.0
230
0.0
  0
ENDBLK
  5
26D
330
1B2
100
AcDbEntity
  8
0
 62
     2
100
AcDbBlockEnd
  0
BLOCK
  5
26F
330
26E
100
AcDbEntity
  8
0
 62
     2
100
AcDbBlockBegin
  2
A$C2E796F9F
 70
     0
 10
0.0
 20
0.0
 30
0.0
  3
A$C2E796F9F
  1

  0
LINE
  5
270
330
26E
100
AcDbEntity
  8
0
  6
Continuous
 62
     5
370
     0
100
AcDbLine
 10
7.661017588274019
 20
-14.09078946356661
 30
0.0
 11
8.618035677389215
 21
-14.09078946356661
 31
0.0
210
0.0
220
1.0
230
0.0
  0
LINE
  5
271
330
26E
100
AcDbEntity
  8
0
  6
Continuous
 62
     5
370
     0
100
AcDbLine
 10
8.618035677389215
 20
-8.090789463566606
 30
0.0
 11
7.661017588274019
 21
-8.090789463566606
 31
0.0
210
0.0
220
1.0
230
0.0
  0
LINE
  5
272
330
26E
100
AcDbEntity
  8
0
  6
Continuous
 62
     5
370
     0
100
AcDbLine
 10
-141.1280200138029
 20
-8.090789463566578
 30
0.0
 11
-142.0640002798275
 21
-8.090789463566578
 31
0.0
210
0.0
220
1.0
230
0.0
  0
LINE
  5
273
330
26E
100
AcDbEntity
  8
0
  6
Continuous
 62
     5
370
     0
100
AcDbLine
 10
-142.0640002798277
 20
-34.09078946356655
 30
0.0
 11
-141.1280200138031
 21
-34.09078946356655
 31
0.0
210
0.0
220
1.0
230
0.0
  0
LINE
  5
274
330
26E
100
AcDbEntity
  8
0
  6
Continuous
 62
     5
370
     0
100
AcDbLine
 10
-142.0640002798277
 20
-34.09078946356655
 30
0.0
 11
-142.0640002798277
 21
-8.090789463566578
 31
0.0
210
0.0
220
1.0
230
0.0
  0
LINE
  5
275
330
26E
100
AcDbEntity
  8
0
  6
Continuous
 62
     5
370
     0
100
AcDbLine
 10
-141.1280200138031
 20
-34.09078946356655
 30
0.0
 11
-120.6945241522215
 21
-34.09078946356655
 31
0.0
210
0.0
220
1.0
230
0.0
  0
LINE
  5
276
330
26E
100
AcDbEntity
  8
0
  6
Continuous
 62
     5
370
     0
100
AcDbLine
 10
-141.1280200138031
 20
-34.09078946356655
 30
0.0
 11
-141.1280200138031
 21
-8.090789463566578
 31
0.0
210
0.0
220
1.0
230
0.0
  0
LINE
  5
277
330
26E
100
AcDbEntity
  8
0
  6
Continuous
 62
     5
370
     0
100
AcDbLine
 10
-116.9707988218223
 20
-8.090789463566578
 30
0.0
 11
-141.1280200138029
 21
-8.090789463566578
 31
0.0
210
0.0
220
1.0
230
0.0
  0
LINE
  5
278
330
26E
100
AcDbEntity
  8
0
  6
Continuous
 62
     5
370
     0
100
AcDbLine
 10
-116.9707988218226
 20
-23.52721459900867
 30
0.0
 11
-116.9707988218226
 21
-8.090789463566578
 31
0.0
210
0.0
220
1.0
230
0.0
  0
LINE
  5
279
330
26E
100
AcDbEntity
  8
0
  6
Continuous
 62
     5
370
     0
100
AcDbLine
 10
-115.994624353693
 20
-8.090789463566578
 30
0.0
 11
-116.9707988218223
 21
-8.090789463566578
 31
0.0
210
0.0
220
1.0
230
0.0
  0
ELLIPSE
  5
27A
330
26E
100
AcDbEntity
  8
0
  6
Continuous
 62
     5
370
     0
100
AcDbEllipse
 10
-96.01231655469753
 20
-34.09078946356655
 30
0.0
 11
-24.6822075975241
 21
0.0
 31
0.0
210
0.0
220
0.0
230
1.0
 40
0.8103002910487724
 41
5.726731018379938
 42
6.283185307179585
  0
ELLIPSE
  5
27B
330
26E
100
AcDbEntity
  8
0
  6
Continuous
 62
     5
370
     0
100
AcDbEllipse
 10
-96.01231655469753
 20
-34.09078946356655
 30
0.0
 11
-24.6822075975241
 21
0.0
 31
0.0
210
0.0
220
0.0
230
1.0
 40
0.8103002910487726
 41
4.712388980384776
 42
5.726731018379938
  0
LINE
  5
27C
330
26E
100
AcDbEntity
  8
0
  6
Continuous
 62
     5
370
     0
100
AcDbLine
 10
6.462267357028155
 20
-8.090789463566578
 30
0.0
 11
5.736142664983431
 21
-8.090789463566578
 31
0.0
210
0.0
220
1.0
230
0.0
  0
LINE
  5
27D
330
26E
100
AcDbEntity
  8
0
  6
Continuous
 62
     5
370
     0
100
AcDbLine
 10
6.462267357028151
 20
-13.04078946356657
 30
0.0
 11
6.462267357028151
 21
-8.090789463566578
 31
0.0
210
0.0
220
1.0
230
0.0
  0
LINE
  5
27E
330
26E
100
AcDbEntity
  8
0
  6
Continuous
 62
     5
370
     0
100
AcDbLine
 10
7.00793502501449
 20
-8.090789463566578
 30
0.0
 11
6.462267357028151
 21
-8.090789463566578
 31
0.0
210
0.0
220
1.0
230
0.0
  0
LINE
  5
27F
330
26E
100
AcDbEntity
  8
0
  6
Continuous
 62
     5
370
     0
100
AcDbLine
 10
7.007935025014474
 20
-13.04078946356657
 30
0.0
 11
7.007935025014474
 21
-8.090789463566578
 31
0.0
210
0.0
220
1.0
230
0.0
  0
LINE
  5
280
330
26E
100
AcDbEntity
  8
0
  6
Continuous
 62
     5
370
     0
100
AcDbLine
 10
7.398925243807897
 20
-8.090789463566578
 30
0.0
 11
7.007935025014474
 21
-8.090789463566578
 31
0.0
210
0.0
220
1.0
230
0.0
  0
LINE
  5
281
330
26E
100
AcDbEntity
  8
0
  6
Continuous
 62
     5
370
     0
100
AcDbLine
 10
7.398925243807909
 20
-13.04078946356657
 30
0.0
 11
7.398925243807909
 21
-8.090789463566578
 31
0.0
210
0.0
220
1.0
230
0.0
  0
LINE
  5
282
330
26E
100
AcDbEntity
  8
0
  6
Continuous
 62
     5
370
     0
100
AcDbLine
 10
7.661017588273767
 20
-8.090789463566578
 30
0.0
 11
7.398925243807909
 21
-8.090789463566578
 31
0.0
210
0.0
220
1.0
230
0.0
  0
LINE
  5
283
330
26E
100
AcDbEntity
  8
0
  6
Continuous
 62
     5
370
     0
100
AcDbLine
 10
-115.994624353693
 20
-14.09078946356658
 30
0.0
 11
-100.3154022864067
 21
-14.09078946356658
 31
0.0
210
0.0
220
1.0
230
0.0
  0
LINE
  5
284
330
26E
100
AcDbEntity
  8
0
  6
Continuous
 62
     5
370
     0
100
AcDbLine
 10
-115.994624353693
 20
-14.09078946356658
 30
0.0
 11
-115.994624353693
 21
-8.090789463566578
 31
0.0
210
0.0
220
1.0
230
0.0
  0
LINE
  5
285
330
26E
100
AcDbEntity
  8
0
  6
Continuous
 62
     5
370
     0
100
AcDbLine
 10
-100.3154022864067
 20
-8.090789463566578
 30
0.0
 11
-115.994624353693
 21
-8.090789463566578
 31
0.0
210
0.0
220
1.0
230
0.0
  0
LINE
  5
286
330
26E
100
AcDbEntity
  8
0
  6
Continuous
 62
     5
370
     0
100
AcDbLine
 10
-100.3154022864067
 20
-14.09078946356658
 30
0.0
 11
-85.55552532283051
 21
-14.09078946356658
 31
0.0
210
0.0
220
1.0
230
0.0
  0
LINE
  5
287
330
26E
100
AcDbEntity
  8
0
  6
Continuous
 62
     5
370
     0
100
AcDbLine
 10
-100.3154022864067
 20
-14.09078946356658
 30
0.0
 11
-100.3154022864067
 21
-8.090789463566578
 31
0.0
210
0.0
220
1.0
230
0.0
  0
LINE
  5
288
330
26E
100
AcDbEntity
  8
0
  6
Continuous
 62
     5
370
     0
100
AcDbLine
 10
-85.55552532283051
 20
-8.090789463566578
 30
0.0
 11
-100.3154022864067
 21
-8.090789463566578
 31
0.0
210
0.0
220
1.0
230
0.0
  0
LINE
  5
289
330
26E
100
AcDbEntity
  8
0
  6
Continuous
 62
     5
370
     0
100
AcDbLine
 10
-85.55552532283051
 20
-14.09078946356658
 30
0.0
 11
-71.78104812379095
 21
-14.09078946356658
 31
0.0
210
0.0
220
1.0
230
0.0
  0
LINE
  5
28A
330
26E
100
AcDbEntity
  8
0
  6
Continuous
 62
     5
370
     0
100
AcDbLine
 10
-85.55552532283051
 20
-14.09078946356658
 30
0.0
 11
-85.55552532283051
 21
-8.090789463566578
 31
0.0
210
0.0
220
1.0
230
0.0
  0
LINE
  5
28B
330
26E
100
AcDbEntity
  8
0
  6
Continuous
 62
     5
370
     0
100
AcDbLine
 10
-71.78104812379095
 20
-8.090789463566578
 30
0.0
 11
-85.55552532283051
 21
-8.090789463566578
 31
0.0
210
0.0
220
1.0
230
0.0
  0
LINE
  5
28C
330
26E
100
AcDbEntity
  8
0
  6
Continuous
 62
     5
370
     0
100
AcDbLine
 10
-71.78104812379095
 20
-14.09078946356658
 30
0.0
 11
-59.05802535011314
 21
-14.09078946356658
 31
0.0
210
0.0
220
1.0
230
0.0
  0
LINE
  5
28D
330
26E
100
AcDbEntity
  8
0
  6
Continuous
 62
     5
370
     0
100
AcDbLine
 10
-71.78104812379095
 20
-14.09078946356658
 30
0.0
 11
-71.78104812379095
 21
-8.090789463566578
 31
0.0
210
0.0
220
1.0
230
0.0
  0
LINE
  5
28E
330
26E
100
AcDbEntity
  8
0
  6
Continuous
 62
     5
370
     0
100
AcDbLine
 10
-59.05802535011314
 20
-8.090789463566578
 30
0.0
 11
-71.78104812379095
 21
-8.090789463566578
 31
0.0
210
0.0
220
1.0
230
0.0
  0
LINE
  5
28F
330
26E
100
AcDbEntity
  8
0
  6
Continuous
 62
     5
370
     0
100
AcDbLine
 10
-59.05802535011314
 20
-14.09078946356658
 30
0.0
 11
-47.45251166262373
 21
-14.09078946356658
 31
0.0
210
0.0
220
1.0
230
0.0
  0
LINE
  5
290
330
26E
100
AcDbEntity
  8
0
  6
Continuous
 62
     5
370
     0
100
AcDbLine
 10
-59.05802535011314
 20
-14.09078946356658
 30
0.0
 11
-59.05802535011314
 21
-8.090789463566578
 31
0.0
210
0.0
220
1.0
230
0.0
  0
LINE
  5
291
330
26E
100
AcDbEntity
  8
0
  6
Continuous
 62
     5
370
     0
100
AcDbLine
 10
-47.45251166262373
 20
-8.090789463566578
 30
0.0
 11
-59.05802535011314
 21
-8.090789463566578
 31
0.0
210
0.0
220
1.0
230
0.0
  0
LINE
  5
292
330
26E
100
AcDbEntity
  8
0
  6
Continuous
 62
     5
370
     0
100
AcDbLine
 10
-47.45251166262373
 20
-14.09078946356658
 30
0.0
 11
-37.03056172214854
 21
-14.09078946356658
 31
0.0
210
0.0
220
1.0
230
0.0
  0
LINE
  5
293
330
26E
100
AcDbEntity
  8
0
  6
Continuous
 62
     5
370
     0
100
AcDbLine
 10
-47.45251166262373
 20
-14.09078946356658
 30
0.0
 11
-47.45251166262373
 21
-8.090789463566578
 31
0.0
210
0.0
220
1.0
230
0.0
  0
LINE
  5
294
330
26E
100
AcDbEntity
  8
0
  6
Continuous
 62
     5
370
     0
100
AcDbLine
 10
-37.03056172214854
 20
-8.090789463566578
 30
0.0
 11
-47.45251166262373
 21
-8.090789463566578
 31
0.0
210
0.0
220
1.0
230
0.0
  0
LINE
  5
295
330
26E
100
AcDbEntity
  8
0
  6
Continuous
 62
     5
370
     0
100
AcDbLine
 10
-37.0305617221485
 20
-14.09078946356658
 30
0.0
 11
-36.66400027982759
 21
-14.09078946356658
 31
0.0
210
0.0
220
1.0
230
0.0
  0
LINE
  5
296
330
26E
100
AcDbEntity
  8
0
  6
Continuous
 62
     5
370
     0
100
AcDbLine
 10
-37.0305617221485
 20
-14.09078946356658
 30
0.0
 11
-37.0305617221485
 21
-8.090789463566578
 31
0.0
210
0.0
220
1.0
230
0.0
  0
LINE
  5
297
330
26E
100
AcDbEntity
  8
0
  6
Continuous
 62
     5
370
     0
100
AcDbLine
 10
-36.536983626035
 20
-8.090789463566578
 30
0.0
 11
-37.0305617221485
 21
-8.090789463566578
 31
0.0
210
0.0
220
1.0
230
0.0
  0
LINE
  5
298
330
26E
100
AcDbEntity
  8
0
  6
Continuous
 62
     5
370
     0
100
AcDbLine
 10
2.435999720172439
 20
-14.09078946356658
 30
0.0
 11
2.635999720172418
 21
-14.09078946356658
 31
0.0
210
0.0
220
1.0
230
0.0
  0
LINE
  5
299
330
26E
100
AcDbEntity
  8
0
  6
Continuous
 62
     5
370
     0
100
AcDbLine
 10
3.477861487315645
 20
-8.090789463566578
 30
0.0
 11
2.39560320020116
 21
-8.090789463566578
 31
0.0
210
0.0
220
1.0
230
0.0
  0
LINE
  5
29A
330
26E
100
AcDbEntity
  8
0
  6
Continuous
 62
     5
370
     0
100
AcDbLine
 10
3.477861487315621
 20
-13.04078946356657
 30
0.0
 11
3.477861487315621
 21
-8.090789463566578
 31
0.0
210
0.0
220
1.0
230
0.0
  0
LINE
  5
29B
330
26E
100
AcDbEntity
  8
0
  6
Continuous
 62
     5
370
     0
100
AcDbLine
 10
4.783588571271956
 20
-8.090789463566578
 30
0.0
 11
3.477861487315621
 21
-8.090789463566578
 31
0.0
210
0.0
220
1.0
230
0.0
  0
LINE
  5
29C
330
26E
100
AcDbEntity
  8
0
  6
Continuous
 62
     5
370
     0
100
AcDbLine
 10
5.736142664983431
 20
-13.04078946356657
 30
0.0
 11
5.736142664983431
 21
-8.090789463566578
 31
0.0
210
0.0
220
1.0
230
0.0
  0
LINE
  5
29D
330
26E
100
AcDbEntity
  8
0
  6
Continuous
 62
     5
370
     0
100
AcDbLine
 10
4.783588571271977
 20
-13.04078946356657
 30
0.0
 11
4.783588571271977
 21
-8.090789463566578
 31
0.0
210
0.0
220
1.0
230
0.0
  0
LINE
  5
29E
330
26E
100
AcDbEntity
  8
0
  6
Continuous
 62
     5
370
     0
100
AcDbLine
 10
5.736142664983447
 20
-8.090789463566578
 30
0.0
 11
4.783588571271977
 21
-8.090789463566578
 31
0.0
210
0.0
220
1.0
230
0.0
  0
LINE
  5
29F
330
26E
100
AcDbEntity
  8
0
  6
Continuous
 62
     5
370
     0
100
AcDbLine
 10
2.435999720172421
 20
-14.29078946356656
 30
0.0
 11
2.435999720172421
 21
-17.29078946356656
 31
0.0
210
0.0
220
1.0
230
0.0
  0
LINE
  5
2A0
330
26E
100
AcDbEntity
  8
0
  6
Continuous
 62
     5
370
     0
100
AcDbLine
 10
2.435999720172421
 20
-23.29078946356657
 30
0.0
 11
2.435999720172421
 21
-26.29078946356657
 31
0.0
210
0.0
220
1.0
230
0.0
  0
LINE
  5
2A1
330
26E
100
AcDbEntity
  8
0
  6
Continuous
 62
     5
370
     0
100
AcDbLine
 10
-43.66400027982772
 20
-21.2907894635665
 30
0.0
 11
-43.66400027982772
 21
-19.29078946356655
 31
0.0
210
0.0
220
1.0
230
0.0
  0
ARC
  5
2A2
330
26E
100
AcDbEntity
  8
0
  6
Continuous
 62
     5
370
     0
100
AcDbCircle
 10
-38.66400027982772
 20
-19.29078946356655
 30
0.0
 40
4.999999999999999
100
AcDbArc
 50
90.0
 51
180.0
  0
ARC
  5
2A3
330
26E
100
AcDbEntity
  8
0
  6
Continuous
 62
     5
370
     0
100
AcDbCircle
 10
-38.66400027982772
 20
-21.2907894635665
 30
0.0
 40
4.999999999999999
100
AcDbArc
 50
180.0
 51
270.0
  0
LINE
  5
2A4
330
26E
100
AcDbEntity
  8
0
  6
Continuous
 62
     5
370
     0
100
AcDbLine
 10
-38.66400027982772
 20
-26.29078946356657
 30
0.0
 11
2.435999720172417
 21
-26.29078946356657
 31
0.0
210
0.0
220
1.0
230
0.0
  0
LINE
  5
2A5
330
26E
100
AcDbEntity
  8
0
  6
Continuous
 62
     5
370
     0
100
AcDbLine
 10
2.435999720172421
 20
-26.29078946356657
 30
0.0
 11
2.635999720172423
 21
-26.29078946356657
 31
0.0
210
0.0
220
1.0
230
0.0
  0
LINE
  5
2A6
330
26E
100
AcDbEntity
  8
0
  6
Continuous
 62
     5
370
     0
100
AcDbLine
 10
2.435999720172421
 20
-14.29078946356656
 30
0.0
 11
2.635999720172423
 21
-14.29078946356656
 31
0.0
210
0.0
220
1.0
230
0.0
  0
LINE
  5
2A7
330
26E
100
AcDbEntity
  8
0
  6
Continuous
 62
     5
370
     0
100
AcDbLine
 10
2.435999720172421
 20
-14.29078946356656
 30
0.0
 11
-38.66400027982772
 21
-14.29078946356656
 31
0.0
210
0.0
220
1.0
230
0.0
  0
LINE
  5
2A8
330
26E
100
AcDbEntity
  8
0
  6
Continuous
 62
     5
370
     0
100
AcDbLine
 10
-36.6640002798276
 20
-13.94078946356662
 30
0.0
 11
-36.6640002798276
 21
-14.29078946356662
 31
0.0
210
0.0
220
1.0
230
0.0
  0
LINE
  5
2A9
330
26E
100
AcDbEntity
  8
0
  6
Continuous
 62
     5
370
     0
100
AcDbLine
 10
2.435999720172443
 20
-14.29078946356662
 30
0.0
 11
2.435999720172443
 21
-9.090789463566585
 31
0.0
210
0.0
220
1.0
230
0.0
  0
LINE
  5
2AA
330
26E
100
AcDbEntity
  8
0
  6
Continuous
 62
     5
370
     0
100
AcDbLine
 10
-4.209304189450736
 20
-14.29078946356656
 30
0.0
 11
-4.209304189450736
 21
-13.94078946356662
 31
0.0
210
0.0
220
1.0
230
0.0
  0
LINE
  5
2AB
330
26E
100
AcDbEntity
  8
0
  6
Continuous
 62
     5
370
     0
100
AcDbLine
 10
-11.42040674037861
 20
-13.94078946356662
 30
0.0
 11
-4.209304189450734
 21
-13.94078946356662
 31
0.0
210
0.0
220
1.0
230
0.0
  0
LINE
  5
2AC
330
26E
100
AcDbEntity
  8
0
  6
Continuous
 62
     5
370
     0
100
AcDbLine
 10
-11.42040674037861
 20
-5.090789463566576
 30
0.0
 11
0.2514726239031813
 21
-5.090789463566576
 31
0.0
210
0.0
220
1.0
230
0.0
  0
SPLINE
  5
2AD
330
26E
100
AcDbEntity
  8
0
  6
Continuous
 62
     5
370
     0
100
AcDbSpline
210
0.0
220
0.0
230
1.0
 70
     8
 71
     3
 72
    22
 73
    18
 74
     0
 42
0.0000000001
 43
0.0000000001
 40
6.473371407158667
 40
6.473371407158667
 40
6.473371407158667
 40
6.473371407158667
 40
7.47630840818712
 40
7.47630840818712
 40
8.479245409215572
 40
8.479245409215572
 40
9.482182410244023
 40
9.482182410244023
 40
10.48511941127247
 40
10.48511941127247
 40
11.41047600539399
 40
11.41047600539399
 40
12.33583259951551
 40
12.33583259951551
 40
13.26118919363703
 40
13.26118919363703
 40
14.18654578775855
 40
14.18654578775855
 40
14.18654578775855
 40
14.18654578775855
 10
0.2514726239031795
 20
-5.090789463566576
 30
0.0
 10
0.4360829269813813
 20
-5.090789463566576
 30
0.0
 10
0.6171400421647029
 20
-5.118113168766566
 30
0.0
 10
0.9585556660778527
 20
-5.226178462300762
 30
0.0
 10
1.118926865053022
 20
-5.306826454739987
 30
0.0
 10
1.410724255262986
 20
-5.513963691728601
 30
0.0
 10
1.542278206730467
 20
-5.640464479356179
 30
0.0
 10
1.773536188034294
 20
-5.928497240504466
 30
0.0
 10
1.873279476638952
 20
-6.090028941309237
 30
0.0
 10
2.03561311417584
 20
-6.421365193048313
 30
0.0
 10
2.106594075530122
 20
-6.602382037631142
 30
0.0
 10
2.227801219872484
 20
-7.003575747941592
 30
0.0
 10
2.278110918281735
 20
-7.223636572513323
 30
0.0
 10
2.357391780974746
 20
-7.698206695542776
 30
0.0
 10
2.386472184021338
 20
-7.952176275569822
 30
0.0
 10
2.42562708612129
 20
-8.494300398265124
 30
0.0
 10
2.435999720172443
 20
-8.782337265526081
 30
0.0
 10
2.435999720172443
 20
-9.090789463566585
 30
0.0
  0
LINE
  5
2AE
330
26E
100
AcDbEntity
  8
0
  6
Continuous
 62
     5
370
     0
100
AcDbLine
 10
-32.66400027982758
 20
-5.090789463566576
 30
0.0
 11
-11.42040674037861
 21
-5.090789463566576
 31
0.0
210
0.0
220
1.0
230
0.0
  0
LINE
  5
2AF
330
26E
100
AcDbEntity
  8
0
  6
Continuous
 62
     5
370
     0
100
AcDbLine
 10
-32.66400027982758
 20
-13.94078946356662
 30
0.0
 11
-11.42040674037861
 21
-13.94078946356662
 31
0.0
210
0.0
220
1.0
230
0.0
  0
LINE
  5
2B0
330
26E
100
AcDbEntity
  8
0
  6
Continuous
 62
     5
370
     0
100
AcDbLine
 10
-32.66400027982758
 20
-13.94078946356662
 30
0.0
 11
-32.66400027982758
 21
-5.090789463566576
 31
0.0
210
0.0
220
1.0
230
0.0
  0
LINE
  5
2B1
330
26E
100
AcDbEntity
  8
0
  6
Continuous
 62
     5
370
     0
100
AcDbLine
 10
-36.66400027982755
 20
-13.94078946356662
 30
0.0
 11
-32.66400027982758
 21
-13.94078946356662
 31
0.0
210
0.0
220
1.0
230
0.0
  0
LINE
  5
2B2
330
26E
100
AcDbEntity
  8
0
  6
Continuous
 62
     5
370
     0
100
AcDbLine
 10
-36.6640002798276
 20
-9.090789463566585
 30
0.0
 11
-36.6640002798276
 21
-13.94078946356662
 31
0.0
210
0.0
220
1.0
230
0.0
  0
ARC
  5
2B3
330
26E
100
AcDbEntity
  8
0
  6
Continuous
 62
     5
370
     0
100
AcDbCircle
 10
-32.66400027982758
 20
-9.090789463566585
 30
0.0
 40
4.0
100
AcDbArc
 50
90.0
 51
180.0
  0
LINE
  5
2B4
330
26E
100
AcDbEntity
  8
0
  6
Continuous
 62
     5
370
     0
100
AcDbLine
 10
2.635999720172423
 20
-27.54078946356657
 30
0.0
 11
8.135999720172423
 21
-27.54078946356657
 31
0.0
210
0.0
220
1.0
230
0.0
  0
LINE
  5
2B5
330
26E
100
AcDbEntity
  8
0
  6
Continuous
 62
     5
370
     0
100
AcDbLine
 10
2.635999720172423
 20
-27.54078946356657
 30
0.0
 11
2.635999720172423
 21
-23.29078946356657
 31
0.0
210
0.0
220
1.0
230
0.0
  0
LINE
  5
2B6
330
26E
100
AcDbEntity
  8
0
  6
Continuous
 62
     5
370
     0
100
AcDbLine
 10
8.135999720172424
 20
-27.54078946356657
 30
0.0
 11
8.135999720172424
 21
-23.29078946356657
 31
0.0
210
0.0
220
1.0
230
0.0
  0
LINE
  5
2B7
330
26E
100
AcDbEntity
  8
0
  6
Continuous
 62
     5
370
     0
100
AcDbLine
 10
2.635999720172423
 20
-23.29078946356657
 30
0.0
 11
2.635999720172423
 21
-17.29078946356657
 31
0.0
210
0.0
220
1.0
230
0.0
  0
LINE
  5
2B8
330
26E
100
AcDbEntity
  8
0
  6
Continuous
 62
     5
370
     0
100
AcDbLine
 10
8.135999720172424
 20
-23.29078946356657
 30
0.0
 11
8.135999720172424
 21
-17.29078946356657
 31
0.0
210
0.0
220
1.0
230
0.0
  0
LINE
  5
2B9
330
26E
100
AcDbEntity
  8
0
  6
Continuous
 62
     5
370
     0
100
AcDbLine
 10
2.635999720172423
 20
-17.29078946356657
 30
0.0
 11
2.635999720172423
 21
-13.04078946356656
 31
0.0
210
0.0
220
1.0
230
0.0
  0
LINE
  5
2BA
330
26E
100
AcDbEntity
  8
0
  6
Continuous
 62
     5
370
     0
100
AcDbLine
 10
2.635999720172423
 20
-13.04078946356657
 30
0.0
 11
8.135999720172423
 21
-13.04078946356657
 31
0.0
210
0.0
220
1.0
230
0.0
  0
LINE
  5
2BB
330
26E
100
AcDbEntity
  8
0
  6
Continuous
 62
     5
370
     0
100
AcDbLine
 10
8.135999720172424
 20
-17.29078946356657
 30
0.0
 11
8.135999720172424
 21
-13.04078946356656
 31
0.0
210
0.0
220
1.0
230
0.0
  0
LINE
  5
2BC
330
26E
100
AcDbEntity
  8
0
  6
Continuous
 62
     5
370
     0
100
AcDbLine
 10
8.618035677389215
 20
-14.09078946356661
 30
0.0
 11
8.618035677389215
 21
-8.090789463566606
 31
0.0
210
0.0
220
1.0
230
0.0
  0
ENDBLK
  5
2BD
330
26E
100
AcDbEntity
  8
0
 62
     2
100
AcDbBlockEnd
  0
ENDSEC
  0
SECTION
  2
ENTITIES
  0
LINE
  5
2FA
330
1F
100
AcDbEntity
  8
0
  6
Continuous
 62
     5
370
     0
100
AcDbLine
 10
46.10000000000015
 20
-0.0000000000000107
 30
11.99999999999999
 11
46.10000000000013
 21
-0.0000000000000107
 31
-0.0000000000000018
  0
LINE
  5
2FB
330
1F
100
AcDbEntity
  8
0
  6
Continuous
 62
     5
370
     0
100
AcDbLine
 10
0.0000000000000009
 20
-0.0000000000000004
 30
5.000000000000065
 11
0.0000000000000009
 21
-0.0000000000000004
 31
7.000000000000007
  0
ARC
  5
2FC
330
1F
100
AcDbEntity
  8
0
  6
Continuous
 62
     5
370
     0
100
AcDbCircle
 10
5.0
 20
7.000000000000007
 30
0.0000000000000007
 40
4.999999999999999
210
-0.0000000000000002
220
-1.0
230
0.0
100
AcDbArc
 50
90.0
 51
180.0
  0
ARC
  5
2FD
330
1F
100
AcDbEntity
  8
0
  6
Continuous
 62
     5
370
     0
100
AcDbCircle
 10
5.0
 20
5.000000000000065
 30
0.0000000000000007
 40
4.999999999999999
210
-0.0000000000000002
220
-1.0
230
0.0
100
AcDbArc
 50
180.0
 51
270.0
  0
LINE
  5
2FE
330
1F
100
AcDbEntity
  8
0
  6
Continuous
 62
     5
370
     0
100
AcDbLine
 10
5.0
 20
-0.0000000000000018
 30
-0.0000000000000018
 11
46.10000000000013
 21
-0.0000000000000107
 31
-0.0000000000000018
  0
LINE
  5
301
330
1F
100
AcDbEntity
  8
0
  6
Continuous
 62
     5
370
     0
100
AcDbLine
 10
46.10000000000013
 20
-0.0000000000000107
 30
11.99999999999999
 11
5.0
 21
-0.0000000000000018
 31
11.99999999999999
  0
LINE
  5
3DC
330
1F
100
AcDbEntity
  8
0
  6
Continuous
 62
     5
370
     0
100
AcDbLine
 10
45.60000000000015
 20
-0.0000000000000107
 30
11.49999999999999
 11
5.0
 21
-0.0000000000000018
 31
11.49999999999999
  0
ARC
  5
3DD
330
1F
100
AcDbEntity
  8
0
  6
Continuous
 62
     5
370
     0
100
AcDbCircle
 10
5.0
 20
7.000000000000007
 30
0.0000000000000007
 40
4.499999999999999
210
-0.0000000000000002
220
-1.0
230
0.0
100
AcDbArc
 50
90.0
 51
180.0
  0
LINE
  5
3DE
330
1F
100
AcDbEntity
  8
0
  6
Continuous
 62
     5
370
     0
100
AcDbLine
 10
0.5000000000000009
 20
-0.0000000000000004
 30
5.000000000000065
 11
0.5000000000000009
 21
-0.0000000000000004
 31
7.000000000000007
  0
ARC
  5
3DF
330
1F
100
AcDbEntity
  8
0
  6
Continuous
 62
     5
370
     0
100
AcDbCircle
 10
5.0
 20
5.000000000000065
 30
0.0000000000000007
 40
4.499999999999999
210
-0.0000000000000002
220
-1.0
230
0.0
100
AcDbArc
 50
180.0
 51
270.0
  0
LINE
  5
3E0
330
1F
100
AcDbEntity
  8
0
  6
Continuous
 62
     5
370
     0
100
AcDbLine
 10
5.0
 20
-0.0000000000000018
 30
0.4999999999999984
 11
45.60000000000013
 21
-0.0000000000000107
 31
0.4999999999999984
  0
LINE
  5
3E1
330
1F
100
AcDbEntity
  8
0
  6
Continuous
 62
     5
370
     0
100
AcDbLine
 10
45.60000000000015
 20
-0.0000000000000107
 30
11.49999999999999
 11
45.60000000000013
 21
-0.0000000000000107
 31
0.4999999999999984
  0
ENDSEC
  0
SECTION
  2
OBJECTS
  0
DICTIONARY
  5
C
330
0
100
AcDbDictionary
281
     1
  3
ACAD_COLOR
350
6B
  3
ACAD_GROUP
350
D
  3
ACAD_LAYOUT
350
1A
  3
ACAD_MATERIAL
350
6A
  3
ACAD_MLEADERSTYLE
350
12D
  3
ACAD_MLINESTYLE
350
17
  3
ACAD_PLOTSETTINGS
350
19
  3
ACAD_PLOTSTYLENAME
350
E
  3
ACAD_SCALELIST
350
10C
  3
ACAD_TABLESTYLE
350
7E
  3
ACAD_VISUALSTYLE
350
EF
  3
ACDB_RECOMPOSE_DATA
350
15D
  3
AcDbVariableDictionary
350
5E
  3
DWGPROPS
350
40E
  0
DICTIONARY
  5
2BE
330
2
100
AcDbDictionary
280
     1
281
     1
  3
ACAD_LAYERSTATES
360
2BF
  0
DICTIONARY
  5
13C
330
10
100
AcDbDictionary
280
     1
281
     1
  3
ADSK_XREC_LAYER_RECONCILED
360
3EB
  0
DICTIONARY
  5
317
330
1F
100
AcDbDictionary
280
     1
281
     1
  3
ACAD_SORTENTS
360
318
  0
DICTIONARY
  5
6B
102
{ACAD_REACTORS
330
C
102
}
330
C
100
AcDbDictionary
281
     1
  0
DICTIONARY
  5
D
102
{ACAD_REACTORS
330
C
102
}
330
C
100
AcDbDictionary
281
     1
  0
DICTIONARY
  5
1A
102
{ACAD_REACTORS
330
C
102
}
330
C
100
AcDbDictionary
281
     1
  3
Model
350
22
  3
Presentacin1
350
D3
  3
Presentacin2
350
D7
  0
DICTIONARY
  5
6A
102
{ACAD_REACTORS
330
C
102
}
330
C
100
AcDbDictionary
281
     1
  3
ByBlock
350
ED
  3
ByLayer
350
EC
  3
Global
350
EE
  0
DICTIONARY
  5
12D
102
{ACAD_REACTORS
330
C
102
}
330
C
100
AcDbDictionary
281
     1
  3
Anotativo
350
13B
  3
Standard
350
12E
  0
DICTIONARY
  5
17
102
{ACAD_REACTORS
330
C
102
}
330
C
100
AcDbDictionary
281
     1
  3
Standard
350
18
  0
DICTIONARY
  5
19
102
{ACAD_REACTORS
330
C
102
}
330
C
100
AcDbDictionary
281
     1
  0
ACDBDICTIONARYWDFLT
  5
E
102
{ACAD_REACTORS
330
C
102
}
330
C
100
AcDbDictionary
281
     1
  3
Normal
350
F
100
AcDbDictionaryWithDefault
340
F
  0
DICTIONARY
  5
10C
102
{ACAD_REACTORS
330
C
102
}
330
C
100
AcDbDictionary
281
     1
  3
A0
350
10D
  3
A1
350
188
  3
A2
350
189
  3
A3
350
18A
  3
A4
350
18B
  3
A5
350
18C
  3
A6
350
18D
  3
A7
350
18E
  3
A8
350
18F
  3
A9
350
190
  3
B0
350
191
  3
B1
350
192
  3
B2
350
193
  3
B3
350
194
  3
B4
350
195
  3
B5
350
196
  3
B6
350
197
  3
B7
350
198
  3
B8
350
199
  3
B9
350
19A
  3
C0
350
19B
  3
C1
350
19C
  3
C2
350
19D
  3
C3
350
19E
  3
C4
350
19F
  3
C5
350
1A0
  3
C6
350
1A1
  3
C7
350
1A2
  3
C8
350
1A3
  3
C9
350
1A4
  3
D0
350
1A5
  3
D1
350
1A6
  3
D2
350
1A7
  0
DICTIONARY
  5
7E
102
{ACAD_REACTORS
330
C
102
}
330
C
100
AcDbDictionary
281
     1
  3
Standard
350
7F
  0
DICTIONARY
  5
EF
102
{ACAD_REACTORS
330
C
102
}
330
C
100
AcDbDictionary
281
     1
  3
2dWireframe
350
F5
  3
3D Hidden
350
F7
  3
3dWireframe
350
F6
  3
Basic
350
F4
  3
Brighten
350
FB
  3
ColorChange
350
FF
  3
Conceptual
350
F8
  3
Dim
350
FA
  3
Facepattern
350
FE
  3
Flat
350
F0
  3
FlatWithEdges
350
F1
  3
Gouraud
350
F2
  3
GouraudWithEdges
350
F3
  3
Linepattern
350
FD
  3
Realistic
350
F9
  3
Thicken
350
FC
  0
XRECORD
  5
15D
102
{ACAD_REACTORS
330
C
102
}
330
C
100
AcDbXrecord
280
     1
 90
        1
330
7F
  0
DICTIONARY
  5
5E
102
{ACAD_REACTORS
330
C
102
}
330
C
100
AcDbDictionary
281
     1
  3
CANNOSCALE
350
146
  3
CMLEADERSTYLE
350
145
  3
CTABLESTYLE
350
84
  3
DIMASSOC
350
5F
  3
HIDETEXT
350
63
  3
INDEXCTL
350
40A
  3
LIGHTINGUNITS
350
3F2
  3
MSLTSCALE
350
3F1
  3
PSOLHEIGHT
350
40C
  3
PSOLWIDTH
350
40B
  3
SORTENTS
350
409
  0
XRECORD
  5
40E
102
{ACAD_REACTORS
330
C
102
}
330
C
100
AcDbXrecord
280
     1
  1
DWGPROPS COOKIE
  2

  3

  4

  6

  7

  8
OdrAdeK
  9

300
=
301
=
302
=
303
=
304
=
305
=
306
=
307
=
308
=
309
=
 40
0.0075927662037037
 41
2457179.895329861
 42
2457180.404827107
  1

 90
        0
  0
DICTIONARY
  5
2BF
102
{ACAD_REACTORS
330
2BE
102
}
330
2BE
100
AcDbDictionary
281
     1
  0
XRECORD
  5
3EB
102
{ACAD_REACTORS
330
13C
102
}
330
13C
100
AcDbXrecord
280
     1
290
     1
  0
SORTENTSTABLE
  5
318
102
{ACAD_REACTORS
330
317
102
}
330
317
100
AcDbSortentsTable
330
1F
331
2FC
  5
3E2
331
3DD
  5
3E3
331
2FA
  5
3DE
331
301
  5
3E8
331
3E0
  5
3E7
331
2FD
  5
3E4
331
3DE
  5
3E1
331
2FB
  5
3E0
331
3DC
  5
3E9
331
3E1
  5
3DF
331
2FE
  5
3E6
331
3DF
  5
3E5
  0
LAYOUT
  5
22
102
{ACAD_XDICTIONARY
360
40F
102
}
102
{ACAD_REACTORS
330
1A
102
}
330
1A
100
AcDbPlotSettings
  1

  2
none_device
  4
ISO_A4_(210.00_x_297.00_MM)
  6

 40
7.5
 41
20.0
 42
7.5
 43
20.0
 44
210.0
 45
297.0
 46
11.54999923706054
 47
-13.65000009536743
 48
0.0
 49
0.0
140
0.0
141
0.0
142
1.0
143
8.704084754739808
 70
 11952
 72
     1
 73
     0
 74
     0
  7

 75
     0
147
0.1148885871608098
148
0.0
149
0.0
100
AcDbLayout
  1
Model
 70
     1
 71
     0
 10
0.0
 20
0.0
 11
12.0
 21
9.0
 12
0.0
 22
0.0
 32
0.0
 14
0.0
 24
0.0
 34
0.0
 15
0.0
 25
0.0
 35
0.0
146
0.0
 13
0.0
 23
0.0
 33
0.0
 16
1.0
 26
0.0
 36
0.0
 17
0.0
 27
1.0
 37
0.0
 76
     0
330
1F
331
EA
1001
ACAD_PSEXT
1000
None
1000
None
1000
Not applicable
1000
The layout will not be plotted unless a new plotter configuration name is selected.
1070
     0
  0
LAYOUT
  5
D3
102
{ACAD_XDICTIONARY
360
412
102
}
102
{ACAD_REACTORS
330
1A
102
}
330
1A
100
AcDbPlotSettings
  1

  2
C:\Documents and Settings\basas\Application Data\Autodesk\AutoCAD 2005\R16.1\enu\plotters\Default Windows System Printer.pc3
  4

  6

 40
0.0
 41
0.0
 42
0.0
 43
0.0
 44
0.0
 45
0.0
 46
0.0
 47
0.0
 48
0.0
 49
0.0
140
0.0
141
0.0
142
1.0
143
1.0
 70
   688
 72
     0
 73
     0
 74
     5
  7

 75
    16
147
1.0
148
0.0
149
0.0
100
AcDbLayout
  1
Presentacin1
 70
     1
 71
     1
 10
0.0
 20
0.0
 11
12.0
 21
9.0
 12
0.0
 22
0.0
 32
0.0
 14
0.0
 24
0.0
 34
0.0
 15
0.0
 25
0.0
 35
0.0
146
0.0
 13
0.0
 23
0.0
 33
0.0
 16
1.0
 26
0.0
 36
0.0
 17
0.0
 27
1.0
 37
0.0
 76
     0
330
D2
  0
LAYOUT
  5
D7
102
{ACAD_XDICTIONARY
360
414
102
}
102
{ACAD_REACTORS
330
1A
102
}
330
1A
100
AcDbPlotSettings
  1

  2
C:\Documents and Settings\basas\Application Data\Autodesk\AutoCAD 2005\R16.1\enu\plotters\Default Windows System Printer.pc3
  4

  6

 40
0.0
 41
0.0
 42
0.0
 43
0.0
 44
0.0
 45
0.0
 46
0.0
 47
0.0
 48
0.0
 49
0.0
140
0.0
141
0.0
142
1.0
143
1.0
 70
   688
 72
     0
 73
     0
 74
     5
  7

 75
    16
147
1.0
148
0.0
149
0.0
100
AcDbLayout
  1
Presentacin2
 70
     1
 71
     2
 10
0.0
 20
0.0
 11
12.0
 21
9.0
 12
0.0
 22
0.0
 32
0.0
 14
0.0
 24
0.0
 34
0.0
 15
0.0
 25
0.0
 35
0.0
146
0.0
 13
0.0
 23
0.0
 33
0.0
 16
1.0
 26
0.0
 36
0.0
 17
0.0
 27
1.0
 37
0.0
 76
     0
330
D6
  0
MATERIAL
  5
ED
102
{ACAD_XDICTIONARY
360
400
102
}
102
{ACAD_REACTORS
330
6A
102
}
330
6A
100
AcDbMaterial
  1
ByBlock
  0
MATERIAL
  5
EC
102
{ACAD_XDICTIONARY
360
3FE
102
}
102
{ACAD_REACTORS
330
6A
102
}
330
6A
100
AcDbMaterial
  1
ByLayer
  0
MATERIAL
  5
EE
102
{ACAD_XDICTIONARY
360
173
102
}
102
{ACAD_REACTORS
330
6A
102
}
330
6A
100
AcDbMaterial
  1
Global
 43
0.0007999999797903
 43
0.0
 43
0.0
 43
0.0
 43
0.0
 43
0.0007999999797903
 43
0.0
 43
0.0
 43
0.0
 43
0.0
 43
1.0
 43
0.0
 43
0.0
 43
0.0
 43
0.0
 43
1.0
 49
0.0007999999797903
 49
0.0
 49
0.0
 49
0.0
 49
0.0
 49
0.0007999999797903
 49
0.0
 49
0.0
 49
0.0
 49
0.0
 49
1.0
 49
0.0
 49
0.0
 49
0.0
 49
0.0
 49
1.0
142
0.0007999999797903
142
0.0
142
0.0
142
0.0
142
0.0
142
0.0007999999797903
142
0.0
142
0.0
142
0.0
142
0.0
142
1.0
142
0.0
142
0.0
142
0.0
142
0.0
142
1.0
144
0.0007999999797903
144
0.0
144
0.0
144
0.0
144
0.0
144
0.0007999999797903
144
0.0
144
0.0
144
0.0
144
0.0
144
1.0
144
0.0
144
0.0
144
0.0
144
0.0
144
1.0
1001
ACAD
1070
    -1
1070
     3
1070
     0
1000

1071
        0
1070
     0
  0
MLEADERSTYLE
  5
13B
102
{ACAD_REACTORS
330
12D
102
}
330
12D
100
AcDbMLeaderStyle
170
     2
171
     1
172
     0
 90
        2
 40
0.0
 41
0.0
173
     1
 91
-1056964608
340
14
 92
       -2
290
     1
 42
2.0
291
     1
 43
8.0
  3
Standard
 44
4.0
300

342
11
174
     1
178
     1
175
     1
176
     0
 93
-1056964608
 45
4.0
292
     0
297
     0
 46
4.0
 94
-1056964608
 47
1.0
 49
1.0
140
1.0
293
     1
141
0.0
294
     1
177
     0
142
1.0
295
     0
296
     1
143
3.75
1001
ACAD_MLEADERVER
1070
     2
  0
MLEADERSTYLE
  5
12E
102
{ACAD_REACTORS
330
12D
102
}
330
12D
100
AcDbMLeaderStyle
170
     2
171
     1
172
     0
 90
        2
 40
0.0
 41
0.0
173
     1
 91
-1056964608
340
14
 92
       -2
290
     1
 42
2.0
291
     1
 43
8.0
  3
Standard
 44
4.0
300

342
11
174
     1
178
     1
175
     1
176
     0
 93
-1056964608
 45
4.0
292
     0
297
     0
 46
4.0
 94
-1056964608
 47
1.0
 49
1.0
140
1.0
293
     1
141
0.0
294
     1
177
     0
142
1.0
295
     0
296
     0
143
3.75
1001
ACAD_MLEADERVER
1070
     2
  0
MLINESTYLE
  5
18
102
{ACAD_REACTORS
330
17
102
}
330
17
100
AcDbMlineStyle
  2
STANDARD
 70
     0
  3

 62
   256
 51
90.0
 52
90.0
 71
     2
 49
0.5
 62
   256
  6
BYLAYER
 49
-0.5
 62
   256
  6
BYLAYER
  0
ACDBPLACEHOLDER
  5
F
102
{ACAD_REACTORS
330
E
102
}
330
E
  0
SCALE
  5
10D
102
{ACAD_REACTORS
330
10C
102
}
330
10C
100
AcDbScale
 70
     0
300
1:1
140
1.0
141
1.0
290
     1
  0
SCALE
  5
188
102
{ACAD_REACTORS
330
10C
102
}
330
10C
100
AcDbScale
 70
     0
300
1:2
140
1.0
141
2.0
290
     0
  0
SCALE
  5
189
102
{ACAD_REACTORS
330
10C
102
}
330
10C
100
AcDbScale
 70
     0
300
1:4
140
1.0
141
4.0
290
     0
  0
SCALE
  5
18A
102
{ACAD_REACTORS
330
10C
102
}
330
10C
100
AcDbScale
 70
     0
300
1:5
140
1.0
141
5.0
290
     0
  0
SCALE
  5
18B
102
{ACAD_REACTORS
330
10C
102
}
330
10C
100
AcDbScale
 70
     0
300
1:8
140
1.0
141
8.0
290
     0
  0
SCALE
  5
18C
102
{ACAD_REACTORS
330
10C
102
}
330
10C
100
AcDbScale
 70
     0
300
1:10
140
1.0
141
10.0
290
     0
  0
SCALE
  5
18D
102
{ACAD_REACTORS
330
10C
102
}
330
10C
100
AcDbScale
 70
     0
300
1:16
140
1.0
141
16.0
290
     0
  0
SCALE
  5
18E
102
{ACAD_REACTORS
330
10C
102
}
330
10C
100
AcDbScale
 70
     0
300
1:20
140
1.0
141
20.0
290
     0
  0
SCALE
  5
18F
102
{ACAD_REACTORS
330
10C
102
}
330
10C
100
AcDbScale
 70
     0
300
1:30
140
1.0
141
30.0
290
     0
  0
SCALE
  5
190
102
{ACAD_REACTORS
330
10C
102
}
330
10C
100
AcDbScale
 70
     0
300
1:40
140
1.0
141
40.0
290
     0
  0
SCALE
  5
191
102
{ACAD_REACTORS
330
10C
102
}
330
10C
100
AcDbScale
 70
     0
300
1:50
140
1.0
141
50.0
290
     0
  0
SCALE
  5
192
102
{ACAD_REACTORS
330
10C
102
}
330
10C
100
AcDbScale
 70
     0
300
1:100
140
1.0
141
100.0
290
     0
  0
SCALE
  5
193
102
{ACAD_REACTORS
330
10C
102
}
330
10C
100
AcDbScale
 70
     0
300
2:1
140
2.0
141
1.0
290
     0
  0
SCALE
  5
194
102
{ACAD_REACTORS
330
10C
102
}
330
10C
100
AcDbScale
 70
     0
300
4:1
140
4.0
141
1.0
290
     0
  0
SCALE
  5
195
102
{ACAD_REACTORS
330
10C
102
}
330
10C
100
AcDbScale
 70
     0
300
8:1
140
8.0
141
1.0
290
     0
  0
SCALE
  5
196
102
{ACAD_REACTORS
330
10C
102
}
330
10C
100
AcDbScale
 70
     0
300
10:1
140
10.0
141
1.0
290
     0
  0
SCALE
  5
197
102
{ACAD_REACTORS
330
10C
102
}
330
10C
100
AcDbScale
 70
     0
300
100:1
140
100.0
141
1.0
290
     0
  0
SCALE
  5
198
102
{ACAD_REACTORS
330
10C
102
}
330
10C
100
AcDbScale
 70
     0
300
1/128" = 1'-0"
140
0.0078125
141
12.0
290
     0
  0
SCALE
  5
199
102
{ACAD_REACTORS
330
10C
102
}
330
10C
100
AcDbScale
 70
     0
300
1/64" = 1'-0"
140
0.015625
141
12.0
290
     0
  0
SCALE
  5
19A
102
{ACAD_REACTORS
330
10C
102
}
330
10C
100
AcDbScale
 70
     0
300
1/32" = 1'-0"
140
0.03125
141
12.0
290
     0
  0
SCALE
  5
19B
102
{ACAD_REACTORS
330
10C
102
}
330
10C
100
AcDbScale
 70
     0
300
1/16" = 1'-0"
140
0.0625
141
12.0
290
     0
  0
SCALE
  5
19C
102
{ACAD_REACTORS
330
10C
102
}
330
10C
100
AcDbScale
 70
     0
300
3/32" = 1'-0"
140
0.09375
141
12.0
290
     0
  0
SCALE
  5
19D
102
{ACAD_REACTORS
330
10C
102
}
330
10C
100
AcDbScale
 70
     0
300
1/8" = 1'-0"
140
0.125
141
12.0
290
     0
  0
SCALE
  5
19E
102
{ACAD_REACTORS
330
10C
102
}
330
10C
100
AcDbScale
 70
     0
300
3/16" = 1'-0"
140
0.1875
141
12.0
290
     0
  0
SCALE
  5
19F
102
{ACAD_REACTORS
330
10C
102
}
330
10C
100
AcDbScale
 70
     0
300
1/4" = 1'-0"
140
0.25
141
12.0
290
     0
  0
SCALE
  5
1A0
102
{ACAD_REACTORS
330
10C
102
}
330
10C
100
AcDbScale
 70
     0
300
3/8" = 1'-0"
140
0.375
141
12.0
290
     0
  0
SCALE
  5
1A1
102
{ACAD_REACTORS
330
10C
102
}
330
10C
100
AcDbScale
 70
     0
300
1/2" = 1'-0"
140
0.5
141
12.0
290
     0
  0
SCALE
  5
1A2
102
{ACAD_REACTORS
330
10C
102
}
330
10C
100
AcDbScale
 70
     0
300
3/4" = 1'-0"
140
0.75
141
12.0
290
     0
  0
SCALE
  5
1A3
102
{ACAD_REACTORS
330
10C
102
}
330
10C
100
AcDbScale
 70
     0
300
1" = 1'-0"
140
1.0
141
12.0
290
     0
  0
SCALE
  5
1A4
102
{ACAD_REACTORS
330
10C
102
}
330
10C
100
AcDbScale
 70
     0
300
1-1/2" = 1'-0"
140
1.5
141
12.0
290
     0
  0
SCALE
  5
1A5
102
{ACAD_REACTORS
330
10C
102
}
330
10C
100
AcDbScale
 70
     0
300
3" = 1'-0"
140
3.0
141
12.0
290
     0
  0
SCALE
  5
1A6
102
{ACAD_REACTORS
330
10C
102
}
330
10C
100
AcDbScale
 70
     0
300
6" = 1'-0"
140
6.0
141
12.0
290
     0
  0
SCALE
  5
1A7
102
{ACAD_REACTORS
330
10C
102
}
330
10C
100
AcDbScale
 70
     0
300
1'-0" = 1'-0"
140
12.0
141
12.0
290
     0
  0
TABLESTYLE
  5
7F
102
{ACAD_XDICTIONARY
360
162
102
}
102
{ACAD_REACTORS
330
7E
102
}
330
7E
100
AcDbTableStyle
  3
Standard
 70
     0
 71
     0
 40
1.5
 41
1.5
280
     0
281
     0
  7
Standard
140
4.5
170
     2
 62
     0
 63
     7
283
     0
274
    -2
284
     1
 64
     0
275
    -2
285
     1
 65
     0
276
    -2
286
     1
 66
     0
277
    -2
287
     1
 67
     0
278
    -2
288
     1
 68
     0
279
    -2
289
     1
 69
     0
  7
Standard
140
6.0
170
     5
 62
     0
 63
     7
283
     0
274
    -2
284
     1
 64
     0
275
    -2
285
     1
 65
     0
276
    -2
286
     1
 66
     0
277
    -2
287
     1
 67
     0
278
    -2
288
     1
 68
     0
279
    -2
289
     1
 69
     0
  7
Standard
140
4.5
170
     5
 62
     0
 63
     7
283
     0
274
    -2
284
     1
 64
     0
275
    -2
285
     1
 65
     0
276
    -2
286
     1
 66
     0
277
    -2
287
     1
 67
     0
278
    -2
288
     1
 68
     0
279
    -2
289
     1
 69
     0
  0
VISUALSTYLE
  5
F5
102
{ACAD_REACTORS
330
EF
102
}
330
EF
100
AcDbVisualStyle
  2
2dWireframe
 70
     4
 71
     0
 72
     2
 73
     1
 90
        0
 40
-0.6
 41
-30.0
 62
     5
 63
     7
 74
     1
 91
        4
 64
     7
 65
   257
 75
     1
175
     1
 42
1.0
 92
        0
 66
   257
 43
1.0
 76
     1
 77
     6
 78
     2
 67
     7
 79
     5
170
     0
171
     0
290
     0
174
     0
 93
        1
 44
0.0
173
     0
291
     0
 45
0.0
1001
ACAD
1000
AcDbSavedByObjectVersion
1070
     0
1000
AcDbSavedByObjectVersion
1070
     0
  0
VISUALSTYLE
  5
F7
102
{ACAD_REACTORS
330
EF
102
}
330
EF
100
AcDbVisualStyle
  2
3D Hidden
 70
     6
 71
     1
 72
     2
 73
     2
 90
        0
 40
-0.6
 41
-30.0
 62
     5
 63
     7
 74
     2
 91
        2
 64
     7
 65
   257
 75
     2
175
     1
 42
40.0
 92
        0
 66
   257
 43
1.0
 76
     1
 77
     6
 78
     2
 67
     7
 79
     3
170
     0
171
     0
290
     0
174
     0
 93
        1
 44
0.0
173
     0
291
     0
 45
0.0
1001
ACAD
1000
AcDbSavedByObjectVersion
1070
     0
1000
AcDbSavedByObjectVersion
1070
     0
  0
VISUALSTYLE
  5
F6
102
{ACAD_REACTORS
330
EF
102
}
330
EF
100
AcDbVisualStyle
  2
3dWireframe
 70
     5
 71
     0
 72
     2
 73
     1
 90
        0
 40
-0.6
 41
-30.0
 62
     5
 63
     7
 74
     1
 91
        4
 64
     7
 65
   257
 75
     1
175
     1
 42
1.0
 92
        0
 66
   257
 43
1.0
 76
     1
 77
     6
 78
     2
 67
     7
 79
     5
170
     0
171
     0
290
     0
174
     0
 93
        1
 44
0.0
173
     0
291
     0
 45
0.0
1001
ACAD
1000
AcDbSavedByObjectVersion
1070
     0
1000
AcDbSavedByObjectVersion
1070
     0
  0
VISUALSTYLE
  5
F4
102
{ACAD_REACTORS
330
EF
102
}
330
EF
100
AcDbVisualStyle
  2
Basic
 70
     7
 71
     1
 72
     0
 73
     1
 90
        0
 40
-0.6
 41
-30.0
 62
     5
 63
     7
 74
     0
 91
        4
 64
     7
 65
   257
 75
     1
175
     1
 42
1.0
 92
        8
 66
     7
 43
1.0
 76
     1
 77
     6
 78
     2
 67
     7
 79
     5
170
     0
171
     0
290
     0
174
     0
 93
        1
 44
0.0
173
     0
291
     1
 45
0.0
1001
ACAD
1000
AcDbSavedByObjectVersion
1070
     0
1000
AcDbSavedByObjectVersion
1070
     0
  0
VISUALSTYLE
  5
FB
102
{ACAD_REACTORS
330
EF
102
}
330
EF
100
AcDbVisualStyle
  2
Brighten
 70
    12
 71
     2
 72
     2
 73
     1
 90
        0
 40
-0.6
 41
-30.0
 62
     5
 63
     7
 74
     1
 91
        4
 64
     7
 65
   257
 75
     1
175
     1
 42
1.0
 92
        8
 66
     7
 43
1.0
 76
     1
 77
     6
 78
     2
 67
     7
 79
     5
170
     0
171
     0
290
     0
174
     0
 93
        1
 44
50.0
173
     0
291
     1
 45
0.0
1001
ACAD
1000
AcDbSavedByObjectVersion
1070
     0
1000
AcDbSavedByObjectVersion
1070
     0
  0
VISUALSTYLE
  5
FF
102
{ACAD_REACTORS
330
EF
102
}
330
EF
100
AcDbVisualStyle
  2
ColorChange
 70
    16
 71
     2
 72
     2
 73
     3
 90
        0
 40
-0.6
 41
-30.0
 62
     5
 63
     8
 74
     1
 91
        4
 64
     7
 65
   257
 75
     1
175
     1
 42
1.0
 92
        8
 66
     8
 43
1.0
 76
     1
 77
     6
 78
     2
 67
     7
 79
     5
170
     0
171
     0
290
     0
174
     0
 93
        1
 44
0.0
173
     0
291
     1
 45
0.0
1001
ACAD
1000
AcDbSavedByObjectVersion
1070
     0
1000
AcDbSavedByObjectVersion
1070
     0
  0
VISUALSTYLE
  5
F8
102
{ACAD_REACTORS
330
EF
102
}
330
EF
100
AcDbVisualStyle
  2
Conceptual
 70
     9
 71
     3
 72
     2
 73
     1
 90
        0
 40
-0.6
 41
-30.0
 62
     5
 63
     7
 74
     2
 91
        2
 64
     7
 65
   257
 75
     1
175
     1
 42
40.0
 92
        8
 66
     7
 43
1.0
 76
     1
 77
     6
 78
     2
 67
     7
 79
     3
170
     0
171
     0
290
     0
174
     0
 93
        1
 44
0.0
173
     0
291
     0
 45
0.0
1001
ACAD
1000
AcDbSavedByObjectVersion
1070
     0
1000
AcDbSavedByObjectVersion
1070
     0
  0
VISUALSTYLE
  5
FA
102
{ACAD_REACTORS
330
EF
102
}
330
EF
100
AcDbVisualStyle
  2
Dim
 70
    11
 71
     2
 72
     2
 73
     1
 90
        0
 40
-0.6
 41
-30.0
 62
     5
 63
     7
 74
     1
 91
        4
 64
     7
 65
   257
 75
     1
175
     1
 42
1.0
 92
        8
 66
     7
 43
1.0
 76
     1
 77
     6
 78
     2
 67
     7
 79
     5
170
     0
171
     0
290
     0
174
     0
 93
        1
 44
-50.0
173
     0
291
     1
 45
0.0
1001
ACAD
1000
AcDbSavedByObjectVersion
1070
     0
1000
AcDbSavedByObjectVersion
1070
     0
  0
VISUALSTYLE
  5
FE
102
{ACAD_REACTORS
330
EF
102
}
330
EF
100
AcDbVisualStyle
  2
Facepattern
 70
    15
 71
     2
 72
     2
 73
     1
 90
        0
 40
-0.6
 41
-30.0
 62
     5
 63
     7
 74
     1
 91
        4
 64
     7
 65
   257
 75
     1
175
     1
 42
1.0
 92
        8
 66
     7
 43
1.0
 76
     1
 77
     6
 78
     2
 67
     7
 79
     5
170
     0
171
     0
290
     0
174
     0
 93
        1
 44
0.0
173
     0
291
     1
 45
0.0
1001
ACAD
1000
AcDbSavedByObjectVersion
1070
     0
1000
AcDbSavedByObjectVersion
1070
     0
  0
VISUALSTYLE
  5
F0
102
{ACAD_REACTORS
330
EF
102
}
330
EF
100
AcDbVisualStyle
  2
Flat
 70
     0
 71
     2
 72
     1
 73
     1
 90
        2
 40
-0.6
 41
30.0
 62
     5
 63
     7
 74
     0
 91
        4
 64
     7
 65
   257
 75
     1
175
     1
 42
1.0
 92
        8
 66
     7
 43
1.0
 76
     1
 77
     6
 78
     2
 67
     7
 79
     5
170
     0
171
     0
290
     0
174
     0
 93
        1
 44
0.0
173
     0
291
     1
 45
0.0
1001
ACAD
1000
AcDbSavedByObjectVersion
1070
     0
1000
AcDbSavedByObjectVersion
1070
     0
  0
VISUALSTYLE
  5
F1
102
{ACAD_REACTORS
330
EF
102
}
330
EF
100
AcDbVisualStyle
  2
FlatWithEdges
 70
     1
 71
     2
 72
     1
 73
     1
 90
        2
 40
-0.6
 41
30.0
 62
     5
 63
     7
 74
     1
 91
        4
 64
     7
 65
   257
 75
     1
175
     1
 42
1.0
 92
        0
 66
   257
 43
1.0
 76
     1
 77
     6
 78
     2
 67
     7
 79
     5
170
     0
171
     0
290
     0
174
     0
 93
        1
 44
0.0
173
     0
291
     1
 45
0.0
1001
ACAD
1000
AcDbSavedByObjectVersion
1070
     0
1000
AcDbSavedByObjectVersion
1070
     0
  0
VISUALSTYLE
  5
F2
102
{ACAD_REACTORS
330
EF
102
}
330
EF
100
AcDbVisualStyle
  2
Gouraud
 70
     2
 71
     2
 72
     2
 73
     1
 90
        2
 40
-0.6
 41
30.0
 62
     5
 63
     7
 74
     0
 91
        4
 64
     7
 65
   257
 75
     1
175
     1
 42
1.0
 92
        0
 66
     7
 43
1.0
 76
     1
 77
     6
 78
     2
 67
     7
 79
     5
170
     0
171
     0
290
     0
174
     0
 93
        1
 44
0.0
173
     0
291
     1
 45
0.0
1001
ACAD
1000
AcDbSavedByObjectVersion
1070
     0
1000
AcDbSavedByObjectVersion
1070
     0
  0
VISUALSTYLE
  5
F3
102
{ACAD_REACTORS
330
EF
102
}
330
EF
100
AcDbVisualStyle
  2
GouraudWithEdges
 70
     3
 71
     2
 72
     2
 73
     1
 90
        2
 40
-0.6
 41
30.0
 62
     5
 63
     7
 74
     1
 91
        4
 64
     7
 65
   257
 75
     1
175
     1
 42
1.0
 92
        0
 66
   257
 43
1.0
 76
     1
 77
     6
 78
     2
 67
     7
 79
     5
170
     0
171
     0
290
     0
174
     0
 93
        1
 44
0.0
173
     0
291
     1
 45
0.0
1001
ACAD
1000
AcDbSavedByObjectVersion
1070
     0
1000
AcDbSavedByObjectVersion
1070
     0
  0
VISUALSTYLE
  5
FD
102
{ACAD_REACTORS
330
EF
102
}
330
EF
100
AcDbVisualStyle
  2
Linepattern
 70
    14
 71
     2
 72
     2
 73
     1
 90
        0
 40
-0.6
 41
-30.0
 62
     5
 63
     7
 74
     1
 91
        4
 64
     7
 65
   257
 75
     7
175
     7
 42
1.0
 92
        8
 66
     7
 43
1.0
 76
     1
 77
     6
 78
     2
 67
     7
 79
     5
170
     0
171
     0
290
     0
174
     0
 93
        1
 44
0.0
173
     0
291
     1
 45
0.0
1001
ACAD
1000
AcDbSavedByObjectVersion
1070
     0
1000
AcDbSavedByObjectVersion
1070
     0
  0
VISUALSTYLE
  5
F9
102
{ACAD_REACTORS
330
EF
102
}
330
EF
100
AcDbVisualStyle
  2
Realistic
 70
     8
 71
     2
 72
     2
 73
     1
 90
        0
 40
-0.6
 41
-30.0
 62
     5
 63
     7
 74
     1
 91
        0
 64
     7
 65
   257
 75
     1
175
     1
 42
1.0
 92
        8
 66
     8
 43
1.0
 76
     1
 77
     6
 78
     2
 67
     7
 79
     5
170
     0
171
     0
290
     0
174
     0
 93
       13
 44
0.0
173
     0
291
     0
 45
0.0
1001
ACAD
1000
AcDbSavedByObjectVersion
1070
     0
1000
AcDbSavedByObjectVersion
1070
     0
  0
VISUALSTYLE
  5
FC
102
{ACAD_REACTORS
330
EF
102
}
330
EF
100
AcDbVisualStyle
  2
Thicken
 70
    13
 71
     2
 72
     2
 73
     1
 90
        0
 40
-0.6
 41
-30.0
 62
     5
 63
     7
 74
     1
 91
        4
 64
     7
 65
   257
 75
     1
175
     1
 42
1.0
 92
       12
 66
     7
 43
1.0
 76
     1
 77
     6
 78
     2
 67
     7
 79
     5
170
     0
171
     0
290
     0
174
     0
 93
        1
 44
0.0
173
     0
291
     1
 45
0.0
1001
ACAD
1000
AcDbSavedByObjectVersion
1070
     0
1000
AcDbSavedByObjectVersion
1070
     0
  0
DICTIONARYVAR
  5
146
102
{ACAD_REACTORS
330
5E
102
}
330
5E
100
DictionaryVariables
280
     0
  1
1:1
  0
DICTIONARYVAR
  5
145
102
{ACAD_REACTORS
330
5E
102
}
330
5E
100
DictionaryVariables
280
     0
  1
STANDARD
  0
DICTIONARYVAR
  5
84
102
{ACAD_REACTORS
330
5E
102
}
330
5E
100
DictionaryVariables
280
     0
  1
STANDARD
  0
DICTIONARYVAR
  5
5F
102
{ACAD_REACTORS
330
5E
102
}
330
5E
100
DictionaryVariables
280
     0
  1
2
  0
DICTIONARYVAR
  5
63
102
{ACAD_REACTORS
330
5E
102
}
330
5E
100
DictionaryVariables
280
     0
  1
1
  0
DICTIONARYVAR
  5
40A
102
{ACAD_REACTORS
330
5E
102
}
330
5E
100
DictionaryVariables
280
     0
  1
0
  0
DICTIONARYVAR
  5
3F2
102
{ACAD_REACTORS
330
5E
102
}
330
5E
100
DictionaryVariables
280
     0
  1
2
  0
DICTIONARYVAR
  5
3F1
102
{ACAD_REACTORS
330
5E
102
}
330
5E
100
DictionaryVariables
280
     0
  1
1
  0
DICTIONARYVAR
  5
40C
102
{ACAD_REACTORS
330
5E
102
}
330
5E
100
DictionaryVariables
280
     0
  1
80.000000
  0
DICTIONARYVAR
  5
40B
102
{ACAD_REACTORS
330
5E
102
}
330
5E
100
DictionaryVariables
280
     0
  1
5.000000
  0
DICTIONARYVAR
  5
409
102
{ACAD_REACTORS
330
5E
102
}
330
5E
100
DictionaryVariables
280
     0
  1
127
  0
DICTIONARY
  5
40F
330
22
100
AcDbDictionary
280
     1
281
     1
  3
ACAD_XREC_ROUNDTRIP
360
410
  0
DICTIONARY
  5
412
330
D3
100
AcDbDictionary
280
     1
281
     1
  3
ACAD_XREC_ROUNDTRIP
360
413
  0
DICTIONARY
  5
414
330
D7
100
AcDbDictionary
280
     1
281
     1
  3
ACAD_XREC_ROUNDTRIP
360
415
  0
DICTIONARY
  5
400
330
ED
100
AcDbDictionary
280
     1
281
     1
  3
ACAD_XREC_ROUNDTRIP
360
401
  0
DICTIONARY
  5
3FE
330
EC
100
AcDbDictionary
280
     1
281
     1
  3
ACAD_XREC_ROUNDTRIP
360
3FF
  0
DICTIONARY
  5
173
330
EE
100
AcDbDictionary
280
     1
281
     1
  3
ACAD_XREC_ROUNDTRIP
360
402
  3
BUMPTILE
360
175
  3
DIFFUSETILE
360
174
  3
OPACITYTILE
360
176
  3
REFLECTIONTILE
360
177
  0
DICTIONARY
  5
162
330
7F
100
AcDbDictionary
280
     1
281
     1
  3
ACAD_ROUNDTRIP_2008_TABLESTYLE_CELLSTYLEMAP
360
40D
  3
ACAD_XREC_ROUNDTRIP
360
411
  0
XRECORD
  5
410
102
{ACAD_REACTORS
330
40F
102
}
330
40F
100
AcDbXrecord
280
     1
102
SHADEPLOT
 70
     0
102
SHADEPLOTRESLEVEL
 70
     2
102
SHADEPLOTCUSTOMDPI
 70
   300
  0
XRECORD
  5
413
102
{ACAD_REACTORS
330
412
102
}
330
412
100
AcDbXrecord
280
     1
102
SHADEPLOT
 70
     0
102
SHADEPLOTRESLEVEL
 70
     2
102
SHADEPLOTCUSTOMDPI
 70
   300
  0
XRECORD
  5
415
102
{ACAD_REACTORS
330
414
102
}
330
414
100
AcDbXrecord
280
     1
102
SHADEPLOT
 70
     0
102
SHADEPLOTRESLEVEL
 70
     2
102
SHADEPLOTCUSTOMDPI
 70
   300
  0
XRECORD
  5
401
102
{ACAD_REACTORS
330
400
102
}
330
400
100
AcDbXrecord
280
     1
102
MATERIAL
148
0.0
149
0.0
149
0.0
 93
        0
 94
      127
282
     0
 72
     1
 77
     1
171
     1
175
     1
179
     1
273
     0
  0
XRECORD
  5
3FF
102
{ACAD_REACTORS
330
3FE
102
}
330
3FE
100
AcDbXrecord
280
     1
102
MATERIAL
148
0.0
149
0.0
149
0.0
 93
        0
 94
      127
282
     0
 72
     1
 77
     1
171
     1
175
     1
179
     1
273
     0
  0
XRECORD
  5
402
102
{ACAD_REACTORS
330
173
102
}
330
173
100
AcDbXrecord
280
     1
102
MATERIAL
148
0.0
149
0.0
149
0.0
 93
        0
 94
      127
282
     0
 72
     1
 77
     1
171
     1
175
     1
179
     1
273
     0
  0
XRECORD
  5
175
102
{ACAD_REACTORS
330
173
102
}
330
173
100
AcDbXrecord
280
     1
270
     1
271
     1
  0
XRECORD
  5
174
102
{ACAD_REACTORS
330
173
102
}
330
173
100
AcDbXrecord
280
     1
270
     1
271
     1
  0
XRECORD
  5
176
102
{ACAD_REACTORS
330
173
102
}
330
173
100
AcDbXrecord
280
     1
270
     1
271
     1
  0
XRECORD
  5
177
102
{ACAD_REACTORS
330
173
102
}
330
173
100
AcDbXrecord
280
     1
270
     1
271
     1
  0
CELLSTYLEMAP
  5
40D
102
{ACAD_REACTORS
330
162
102
}
330
162
100
AcDbCellStyleMap
 90
        3
300
CELLSTYLE
  1
TABLEFORMAT_BEGIN
 90
        5
170
     1
 91
        0
 92
    32768
 62
   257
 93
        1
300
CONTENTFORMAT
  1
CONTENTFORMAT_BEGIN
 90
        0
 91
        0
 92
      512
 93
        0
300

 40
0.0
140
1.0
 94
        5
 62
     0
340
11
144
6.0
309
CONTENTFORMAT_END
171
     1
301
MARGIN
  1
CELLMARGIN_BEGIN
 40
1.5
 40
1.5
 40
1.5
 40
1.5
 40
0.18
 40
0.18
309
CELLMARGIN_END
 94
        6
 95
        1
302
GRIDFORMAT
  1
GRIDFORMAT_BEGIN
 90
        0
 91
        1
 62
     0
 92
       -2
340
14
 93
        0
 40
1.125
309
GRIDFORMAT_END
 95
        2
302
GRIDFORMAT
  1
GRIDFORMAT_BEGIN
 90
        0
 91
        1
 62
     0
 92
       -2
340
14
 93
        0
 40
1.125
309
GRIDFORMAT_END
 95
        4
302
GRIDFORMAT
  1
GRIDFORMAT_BEGIN
 90
        0
 91
        1
 62
     0
 92
       -2
340
14
 93
        0
 40
1.125
309
GRIDFORMAT_END
 95
        8
302
GRIDFORMAT
  1
GRIDFORMAT_BEGIN
 90
        0
 91
        1
 62
     0
 92
       -2
340
14
 93
        0
 40
1.125
309
GRIDFORMAT_END
 95
       16
302
GRIDFORMAT
  1
GRIDFORMAT_BEGIN
 90
        0
 91
        1
 62
     0
 92
       -2
340
14
 93
        0
 40
1.125
309
GRIDFORMAT_END
 95
       32
302
GRIDFORMAT
  1
GRIDFORMAT_BEGIN
 90
        0
 91
        1
 62
     0
 92
       -2
340
14
 93
        0
 40
1.125
309
GRIDFORMAT_END
309
TABLEFORMAT_END
  1
CELLSTYLE_BEGIN
 90
        1
 91
        1
300
_TITLE
309
CELLSTYLE_END
300
CELLSTYLE
  1
TABLEFORMAT_BEGIN
 90
        5
170
     1
 91
        0
 92
        0
 62
   257
 93
        1
300
CONTENTFORMAT
  1
CONTENTFORMAT_BEGIN
 90
        0
 91
        0
 92
      512
 93
        0
300

 40
0.0
140
1.0
 94
        5
 62
     0
340
11
144
4.5
309
CONTENTFORMAT_END
171
     1
301
MARGIN
  1
CELLMARGIN_BEGIN
 40
1.5
 40
1.5
 40
1.5
 40
1.5
 40
0.18
 40
0.18
309
CELLMARGIN_END
 94
        6
 95
        1
302
GRIDFORMAT
  1
GRIDFORMAT_BEGIN
 90
        0
 91
        1
 62
     0
 92
       -2
340
14
 93
        0
 40
1.125
309
GRIDFORMAT_END
 95
        2
302
GRIDFORMAT
  1
GRIDFORMAT_BEGIN
 90
        0
 91
        1
 62
     0
 92
       -2
340
14
 93
        0
 40
1.125
309
GRIDFORMAT_END
 95
        4
302
GRIDFORMAT
  1
GRIDFORMAT_BEGIN
 90
        0
 91
        1
 62
     0
 92
       -2
340
14
 93
        0
 40
1.125
309
GRIDFORMAT_END
 95
        8
302
GRIDFORMAT
  1
GRIDFORMAT_BEGIN
 90
        0
 91
        1
 62
     0
 92
       -2
340
14
 93
        0
 40
1.125
309
GRIDFORMAT_END
 95
       16
302
GRIDFORMAT
  1
GRIDFORMAT_BEGIN
 90
        0
 91
        1
 62
     0
 92
       -2
340
14
 93
        0
 40
1.125
309
GRIDFORMAT_END
 95
       32
302
GRIDFORMAT
  1
GRIDFORMAT_BEGIN
 90
        0
 91
        1
 62
     0
 92
       -2
340
14
 93
        0
 40
1.125
309
GRIDFORMAT_END
309
TABLEFORMAT_END
  1
CELLSTYLE_BEGIN
 90
        2
 91
        1
300
_HEADER
309
CELLSTYLE_END
300
CELLSTYLE
  1
TABLEFORMAT_BEGIN
 90
        5
170
     1
 91
        0
 92
        0
 62
   257
 93
        1
300
CONTENTFORMAT
  1
CONTENTFORMAT_BEGIN
 90
        0
 91
        0
 92
      512
 93
        0
300

 40
0.0
140
1.0
 94
        2
 62
     0
340
11
144
4.5
309
CONTENTFORMAT_END
171
     1
301
MARGIN
  1
CELLMARGIN_BEGIN
 40
1.5
 40
1.5
 40
1.5
 40
1.5
 40
0.18
 40
0.18
309
CELLMARGIN_END
 94
        6
 95
        1
302
GRIDFORMAT
  1
GRIDFORMAT_BEGIN
 90
        0
 91
        1
 62
     0
 92
       -2
340
14
 93
        0
 40
1.125
309
GRIDFORMAT_END
 95
        2
302
GRIDFORMAT
  1
GRIDFORMAT_BEGIN
 90
        0
 91
        1
 62
     0
 92
       -2
340
14
 93
        0
 40
1.125
309
GRIDFORMAT_END
 95
        4
302
GRIDFORMAT
  1
GRIDFORMAT_BEGIN
 90
        0
 91
        1
 62
     0
 92
       -2
340
14
 93
        0
 40
1.125
309
GRIDFORMAT_END
 95
        8
302
GRIDFORMAT
  1
GRIDFORMAT_BEGIN
 90
        0
 91
        1
 62
     0
 92
       -2
340
14
 93
        0
 40
1.125
309
GRIDFORMAT_END
 95
       16
302
GRIDFORMAT
  1
GRIDFORMAT_BEGIN
 90
        0
 91
        1
 62
     0
 92
       -2
340
14
 93
        0
 40
1.125
309
GRIDFORMAT_END
 95
       32
302
GRIDFORMAT
  1
GRIDFORMAT_BEGIN
 90
        0
 91
        1
 62
     0
 92
       -2
340
14
 93
        0
 40
1.125
309
GRIDFORMAT_END
309
TABLEFORMAT_END
  1
CELLSTYLE_BEGIN
 90
        3
 91
        2
300
_DATA
309
CELLSTYLE_END
  0
XRECORD
  5
411
102
{ACAD_REACTORS
330
162
102
}
330
162
100
AcDbXrecord
280
     1
102
ACAD_ROUNDTRIP_PRE2007_TABLESTYLE
 90
      512
 91
        0
  1

 92
      512
 93
        0
  2

 94
      512
 95
        0
  3

  0
ENDSEC
  0
EOF
