  0
SECTION
  2
HEADER
  9
$ACADVER
  1
AC1018
  9
$ACADMAINTVER
 70
     0
  9
$DWGCODEPAGE
  3
ANSI_1252
  9
$INSBASE
 10
0.0
 20
0.0
 30
0.0
  9
$EXTMIN
 10
-58.5959
 20
-42.3465
 30
0.0
  9
$EXTMAX
 10
65.3698
 20
171.6947
 30
0.0
  9
$LIMMIN
 10
0.0
 20
0.0
  9
$LIMMAX
 10
12.0
 20
9.0
  9
$ORTHOMODE
 70
     0
  9
$REGENMODE
 70
     1
  9
$FILLMODE
 70
     1
  9
$QTEXTMODE
 70
     0
  9
$MIRRTEXT
 70
     1
  9
$LTSCALE
 40
1.0
  9
$ATTMODE
 70
     1
  9
$TEXTSIZE
 40
0.2
  9
$TRACEWID
 40
0.05
  9
$TEXTSTYLE
  7
Standard
  9
$CLAYER
  8
0
  9
$CELTYPE
  6
ByLayer
  9
$CECOLOR
 62
   256
  9
$CELTSCALE
 40
1.0
  9
$DISPSILH
 70
     0
  9
$DIMSCALE
 40
1.0
  9
$DIMASZ
 40
0.18
  9
$DIMEXO
 40
0.0625
  9
$DIMDLI
 40
0.38
  9
$DIMRND
 40
0.0
  9
$DIMDLE
 40
0.0
  9
$DIMEXE
 40
0.18
  9
$DIMTP
 40
0.0
  9
$DIMTM
 40
0.0
  9
$DIMTXT
 40
0.18
  9
$DIMCEN
 40
0.09
  9
$DIMTSZ
 40
0.0
  9
$DIMTOL
 70
     0
  9
$DIMLIM
 70
     0
  9
$DIMTIH
 70
     1
  9
$DIMTOH
 70
     1
  9
$DIMSE1
 70
     0
  9
$DIMSE2
 70
     0
  9
$DIMTAD
 70
     0
  9
$DIMZIN
 70
     0
  9
$DIMBLK
  1

  9
$DIMASO
 70
     1
  9
$DIMSHO
 70
     1
  9
$DIMPOST
  1

  9
$DIMAPOST
  1

  9
$DIMALT
 70
     0
  9
$DIMALTD
 70
     2
  9
$DIMALTF
 40
25.4
  9
$DIMLFAC
 40
1.0
  9
$DIMTOFL
 70
     0
  9
$DIMTVP
 40
0.0
  9
$DIMTIX
 70
     0
  9
$DIMSOXD
 70
     0
  9
$DIMSAH
 70
     0
  9
$DIMBLK1
  1

  9
$DIMBLK2
  1

  9
$DIMSTYLE
  2
Standard
  9
$DIMCLRD
 70
     0
  9
$DIMCLRE
 70
     0
  9
$DIMCLRT
 70
     0
  9
$DIMTFAC
 40
1.0
  9
$DIMGAP
 40
0.09
  9
$DIMJUST
 70
     0
  9
$DIMSD1
 70
     0
  9
$DIMSD2
 70
     0
  9
$DIMTOLJ
 70
     1
  9
$DIMTZIN
 70
     0
  9
$DIMALTZ
 70
     0
  9
$DIMALTTZ
 70
     0
  9
$DIMUPT
 70
     0
  9
$DIMDEC
 70
     4
  9
$DIMTDEC
 70
     4
  9
$DIMALTU
 70
     2
  9
$DIMALTTD
 70
     2
  9
$DIMTXSTY
  7
Standard
  9
$DIMAUNIT
 70
     0
  9
$DIMADEC
 70
     0
  9
$DIMALTRND
 40
0.0
  9
$DIMAZIN
 70
     0
  9
$DIMDSEP
 70
    46
  9
$DIMATFIT
 70
     3
  9
$DIMFRAC
 70
     0
  9
$DIMLDRBLK
  1

  9
$DIMLUNIT
 70
     2
  9
$DIMLWD
 70
    -2
  9
$DIMLWE
 70
    -2
  9
$DIMTMOVE
 70
     0
  9
$LUNITS
 70
     2
  9
$LUPREC
 70
     4
  9
$SKETCHINC
 40
0.1
  9
$FILLETRAD
 40
0.5
  9
$AUNITS
 70
     0
  9
$AUPREC
 70
     0
  9
$MENU
  1
.
  9
$ELEVATION
 40
0.0
  9
$PELEVATION
 40
0.0
  9
$THICKNESS
 40
0.0
  9
$LIMCHECK
 70
     0
  9
$CHAMFERA
 40
0.5
  9
$CHAMFERB
 40
0.5
  9
$CHAMFERC
 40
1.0
  9
$CHAMFERD
 40
0.0
  9
$SKPOLY
 70
     0
  9
$TDCREATE
 40
2456625.560667315
  9
$TDUCREATE
 40
2456625.519000648
  9
$TDUPDATE
 40
2456625.560667326
  9
$TDUUPDATE
 40
2456625.51900066
  9
$TDINDWG
 40
0.0000000116
  9
$TDUSRTIMER
 40
0.0000000116
  9
$USRTIMER
 70
     1
  9
$ANGBASE
 50
0.0
  9
$ANGDIR
 70
     0
  9
$PDMODE
 70
     0
  9
$PDSIZE
 40
0.0
  9
$PLINEWID
 40
0.0
  9
$SPLFRAME
 70
     0
  9
$SPLINETYPE
 70
     6
  9
$SPLINESEGS
 70
     8
  9
$HANDSEED
  5
A9
  9
$SURFTAB1
 70
     6
  9
$SURFTAB2
 70
     6
  9
$SURFTYPE
 70
     6
  9
$SURFU
 70
     6
  9
$SURFV
 70
     6
  9
$UCSBASE
  2

  9
$UCSNAME
  2

  9
$UCSORG
 10
0.0
 20
0.0
 30
0.0
  9
$UCSXDIR
 10
1.0
 20
0.0
 30
0.0
  9
$UCSYDIR
 10
0.0
 20
1.0
 30
0.0
  9
$UCSORTHOREF
  2

  9
$UCSORTHOVIEW
 70
     0
  9
$UCSORGTOP
 10
0.0
 20
0.0
 30
0.0
  9
$UCSORGBOTTOM
 10
0.0
 20
0.0
 30
0.0
  9
$UCSORGLEFT
 10
0.0
 20
0.0
 30
0.0
  9
$UCSORGRIGHT
 10
0.0
 20
0.0
 30
0.0
  9
$UCSORGFRONT
 10
0.0
 20
0.0
 30
0.0
  9
$UCSORGBACK
 10
0.0
 20
0.0
 30
0.0
  9
$PUCSBASE
  2

  9
$PUCSNAME
  2

  9
$PUCSORG
 10
0.0
 20
0.0
 30
0.0
  9
$PUCSXDIR
 10
1.0
 20
0.0
 30
0.0
  9
$PUCSYDIR
 10
0.0
 20
1.0
 30
0.0
  9
$PUCSORTHOREF
  2

  9
$PUCSORTHOVIEW
 70
     0
  9
$PUCSORGTOP
 10
0.0
 20
0.0
 30
0.0
  9
$PUCSORGBOTTOM
 10
0.0
 20
0.0
 30
0.0
  9
$PUCSORGLEFT
 10
0.0
 20
0.0
 30
0.0
  9
$PUCSORGRIGHT
 10
0.0
 20
0.0
 30
0.0
  9
$PUCSORGFRONT
 10
0.0
 20
0.0
 30
0.0
  9
$PUCSORGBACK
 10
0.0
 20
0.0
 30
0.0
  9
$USERI1
 70
     0
  9
$USERI2
 70
     0
  9
$USERI3
 70
     0
  9
$USERI4
 70
     0
  9
$USERI5
 70
     0
  9
$USERR1
 40
0.0
  9
$USERR2
 40
0.0
  9
$USERR3
 40
0.0
  9
$USERR4
 40
0.0
  9
$USERR5
 40
0.0
  9
$WORLDVIEW
 70
     1
  9
$SHADEDGE
 70
     3
  9
$SHADEDIF
 70
    70
  9
$TILEMODE
 70
     1
  9
$MAXACTVP
 70
    64
  9
$PINSBASE
 10
0.0
 20
0.0
 30
0.0
  9
$PLIMCHECK
 70
     0
  9
$PEXTMIN
 10
1.000000000000000E+20
 20
1.000000000000000E+20
 30
1.000000000000000E+20
  9
$PEXTMAX
 10
-1.000000000000000E+20
 20
-1.000000000000000E+20
 30
-1.000000000000000E+20
  9
$PLIMMIN
 10
0.0
 20
0.0
  9
$PLIMMAX
 10
12.0
 20
9.0
  9
$UNITMODE
 70
     0
  9
$VISRETAIN
 70
     1
  9
$PLINEGEN
 70
     0
  9
$PSLTSCALE
 70
     1
  9
$TREEDEPTH
 70
  3020
  9
$CMLSTYLE
  2
Standard
  9
$CMLJUST
 70
     0
  9
$CMLSCALE
 40
1.0
  9
$PROXYGRAPHICS
 70
     1
  9
$MEASUREMENT
 70
     0
  9
$CELWEIGHT
370
    -1
  9
$ENDCAPS
280
     0
  9
$JOINSTYLE
280
     0
  9
$LWDISPLAY
290
     0
  9
$INSUNITS
 70
     4
  9
$HYPERLINKBASE
  1

  9
$STYLESHEET
  1

  9
$XEDIT
290
     1
  9
$CEPSNTYPE
380
     0
  9
$PSTYLEMODE
290
     0
  9
$FINGERPRINTGUID
  2
{FAEB1C30-E019-11D5-929B-00C0DF256EC4}
  9
$VERSIONGUID
  2
{FAEB1C32-E019-11D5-929B-00C0DF256EC4}
  9
$EXTNAMES
290
     1
  9
$PSVPSCALE
 40
0.0
  9
$OLESTARTUP
290
     0
  9
$SORTENTS
280
   127
  9
$INDEXCTL
280
     0
  9
$HIDETEXT
280
     1
  9
$XCLIPFRAME
290
     0
  9
$HALOGAP
280
     0
  9
$OBSCOLOR
 70
   257
  9
$OBSLTYPE
280
     0
  9
$INTERSECTIONDISPLAY
280
     0
  9
$INTERSECTIONCOLOR
 70
   257
  9
$DIMASSOC
280
     2
  9
$PROJECTNAME
  1

  0
ENDSEC
  0
SECTION
  2
CLASSES
  0
CLASS
  1
ACDBDICTIONARYWDFLT
  2
AcDbDictionaryWithDefault
  3
ObjectDBX Classes
 90
        0
 91
        1
280
     0
281
     0
  0
CLASS
  1
IMAGEDEF
  2
AcDbRasterImageDef
  3
ISM
 90
        0
 91
        1
280
     0
281
     0
  0
CLASS
  1
IMAGE
  2
AcDbRasterImage
  3
ISM
 90
      127
 91
        1
280
     0
281
     1
  0
CLASS
  1
IMAGEDEF_REACTOR
  2
AcDbRasterImageDefReactor
  3
ISM
 90
        1
 91
        1
280
     0
281
     0
  0
ENDSEC
  0
SECTION
  2
TABLES
  0
TABLE
  2
VPORT
  5
8
330
0
100
AcDbSymbolTable
 70
     2
  0
VPORT
  5
29
330
8
100
AcDbSymbolTableRecord
100
AcDbViewportTableRecord
  2
*Active
 70
     0
 10
0.0
 20
0.0
 11
1.0
 21
1.0
 12
10.42990654205607
 22
4.5
 13
0.0
 23
0.0
 14
0.5
 24
0.5
 15
0.5
 25
0.5
 16
0.0
 26
0.0
 36
1.0
 17
0.0
 27
0.0
 37
0.0
 40
9.0
 41
1.972972972850329
 42
50.0
 43
0.0
 44
0.0
 50
0.0
 51
0.0
 71
     0
 72
   100
 73
     1
 74
     3
 75
     0
 76
     0
 77
     0
 78
     0
281
     0
 65
     1
110
0.0
120
0.0
130
0.0
111
1.0
121
0.0
131
0.0
112
0.0
122
1.0
132
0.0
 79
     0
146
0.0
  0
ENDTAB
  0
TABLE
  2
LTYPE
  5
5
330
0
100
AcDbSymbolTable
 70
     1
  0
LTYPE
  5
14
330
5
100
AcDbSymbolTableRecord
100
AcDbLinetypeTableRecord
  2
ByBlock
 70
     0
  3

 72
    65
 73
     0
 40
0.0
  0
LTYPE
  5
15
330
5
100
AcDbSymbolTableRecord
100
AcDbLinetypeTableRecord
  2
ByLayer
 70
     0
  3

 72
    65
 73
     0
 40
0.0
  0
LTYPE
  5
16
330
5
100
AcDbSymbolTableRecord
100
AcDbLinetypeTableRecord
  2
Continuous
 70
     0
  3
Solid line
 72
    65
 73
     0
 40
0.0
  0
ENDTAB
  0
TABLE
  2
LAYER
  5
2
330
0
100
AcDbSymbolTable
 70
     2
  0
LAYER
  5
10
330
2
100
AcDbSymbolTableRecord
100
AcDbLayerTableRecord
  2
0
 70
     0
 62
     7
  6
Continuous
370
    -3
390
F
  0
LAYER
  5
2B
330
2
100
AcDbSymbolTableRecord
100
AcDbLayerTableRecord
  2
Capa 1
 70
     0
 62
     7
  6
Continuous
370
    -3
390
F
  0
ENDTAB
  0
TABLE
  2
STYLE
  5
3
330
0
100
AcDbSymbolTable
 70
     1
  0
STYLE
  5
11
330
3
100
AcDbSymbolTableRecord
100
AcDbTextStyleTableRecord
  2
Standard
 70
     0
 40
0.0
 41
1.0
 50
0.0
 71
     0
 42
0.2
  3
txt
  4

  0
ENDTAB
  0
TABLE
  2
VIEW
  5
6
330
0
100
AcDbSymbolTable
 70
     0
  0
ENDTAB
  0
TABLE
  2
UCS
  5
7
330
0
100
AcDbSymbolTable
 70
     0
  0
ENDTAB
  0
TABLE
  2
APPID
  5
9
330
0
100
AcDbSymbolTable
 70
     2
  0
APPID
  5
12
330
9
100
AcDbSymbolTableRecord
100
AcDbRegAppTableRecord
  2
ACAD
 70
     0
  0
APPID
  5
2A
330
9
100
AcDbSymbolTableRecord
100
AcDbRegAppTableRecord
  2
ODA
 70
     0
  0
ENDTAB
  0
TABLE
  2
DIMSTYLE
  5
A
330
0
100
AcDbSymbolTable
 70
     1
100
AcDbDimStyleTable
  0
DIMSTYLE
105
27
330
A
100
AcDbSymbolTableRecord
100
AcDbDimStyleTableRecord
  2
Standard
 70
     0
340
11
  0
ENDTAB
  0
TABLE
  2
BLOCK_RECORD
  5
1
330
0
100
AcDbSymbolTable
 70
     1
  0
BLOCK_RECORD
  5
1F
330
1
100
AcDbSymbolTableRecord
100
AcDbBlockTableRecord
  2
*Model_Space
340
22
  0
BLOCK_RECORD
  5
1B
330
1
100
AcDbSymbolTableRecord
100
AcDbBlockTableRecord
  2
*Paper_Space
340
1E
  0
BLOCK_RECORD
  5
23
330
1
100
AcDbSymbolTableRecord
100
AcDbBlockTableRecord
  2
*Paper_Space0
340
26
  0
ENDTAB
  0
ENDSEC
  0
SECTION
  2
BLOCKS
  0
BLOCK
  5
20
330
1F
100
AcDbEntity
  8
0
100
AcDbBlockBegin
  2
*Model_Space
 70
     0
 71
     0
 10
0.0
 20
0.0
 30
0.0
  3
*Model_Space
  1

  0
ENDBLK
  5
21
330
1F
100
AcDbEntity
  8
0
100
AcDbBlockEnd
  0
BLOCK
  5
1C
330
1B
100
AcDbEntity
 67
     1
  8
0
100
AcDbBlockBegin
  2
*Paper_Space
 70
     0
 71
     0
 10
0.0
 20
0.0
 30
0.0
  3
*Paper_Space
  1

  0
ENDBLK
  5
1D
330
1B
100
AcDbEntity
 67
     1
  8
0
100
AcDbBlockEnd
  0
BLOCK
  5
24
330
23
100
AcDbEntity
  8
0
100
AcDbBlockBegin
  2
*Paper_Space0
 70
     0
 71
     0
 10
0.0
 20
0.0
 30
0.0
  3
*Paper_Space0
  1

  0
ENDBLK
  5
25
330
23
100
AcDbEntity
  8
0
100
AcDbBlockEnd
  0
ENDSEC
  0
SECTION
  2
ENTITIES
  0
IMAGE
  5
2E
330
1F
100
AcDbEntity
  8
Capa 1
 62
     0
 92
        8
310
0000000000000000
100
AcDbRasterImage
 90
        0
 10
-56.3384
 20
37.63350000000001
 30
0.0
 11
0.01388888888888889
 21
0.0
 31
0.0
 12
0.0
 22
0.01388888888888889
 32
0.0
 13
8762.0
 23
4241.0
340
2D
 70
     3
280
     1
281
    50
282
    50
283
     0
360
2F
 71
     1
 91
        2
 14
-56.3384
 24
37.63350000000001
 14
65.3698
 24
96.54730000000001
  0
IMAGE
  5
31
330
1F
100
AcDbEntity
  8
Capa 1
 62
     0
 92
        8
310
0000000000000000
100
AcDbRasterImage
 90
        0
 10
-56.3384
 20
37.63350000000001
 30
0.0
 11
0.01388888888888889
 21
0.0
 31
0.0
 12
0.0
 22
0.01388888888888889
 32
0.0
 13
8762.0
 23
4241.0
340
30
 70
     3
280
     1
281
    50
282
    50
283
     0
360
32
 71
     1
 91
        2
 14
-56.3384
 24
37.63350000000001
 14
65.3698
 24
96.54730000000001
  0
IMAGE
  5
34
330
1F
100
AcDbEntity
  8
Capa 1
 62
     0
 92
        8
310
0000000000000000
100
AcDbRasterImage
 90
        0
 10
-56.3384
 20
37.63350000000001
 30
0.0
 11
0.01388888888888889
 21
0.0
 31
0.0
 12
0.0
 22
0.01388888888888889
 32
0.0
 13
8762.0
 23
4241.0
340
33
 70
     3
280
     1
281
    50
282
    50
283
     0
360
35
 71
     1
 91
        2
 14
-56.3384
 24
37.63350000000001
 14
65.3698
 24
96.54730000000001
  0
IMAGE
  5
37
330
1F
100
AcDbEntity
  8
Capa 1
 62
     0
 92
        8
310
0000000000000000
100
AcDbRasterImage
 90
        0
 10
-56.3384
 20
37.63350000000001
 30
0.0
 11
0.01388888888888889
 21
0.0
 31
0.0
 12
0.0
 22
0.01388888888888889
 32
0.0
 13
8762.0
 23
4241.0
340
36
 70
     3
280
     1
281
    50
282
    50
283
     0
360
38
 71
     1
 91
        2
 14
-56.3384
 24
37.63350000000001
 14
65.3698
 24
96.54730000000001
  0
IMAGE
  5
3A
330
1F
100
AcDbEntity
  8
Capa 1
 62
     0
 92
        8
310
0000000000000000
100
AcDbRasterImage
 90
        0
 10
-56.3384
 20
37.63350000000001
 30
0.0
 11
0.01388888888888889
 21
0.0
 31
0.0
 12
0.0
 22
0.01388888888888889
 32
0.0
 13
8762.0
 23
4241.0
340
39
 70
     3
280
     1
281
    50
282
    50
283
     0
360
3B
 71
     1
 91
        2
 14
-56.3384
 24
37.63350000000001
 14
65.3698
 24
96.54730000000001
  0
IMAGE
  5
3D
330
1F
100
AcDbEntity
  8
Capa 1
 62
     0
 92
        8
310
0000000000000000
100
AcDbRasterImage
 90
        0
 10
-56.3384
 20
37.63350000000001
 30
0.0
 11
0.01388888888888889
 21
0.0
 31
0.0
 12
0.0
 22
0.01388888888888889
 32
0.0
 13
8762.0
 23
4241.0
340
3C
 70
     3
280
     1
281
    50
282
    50
283
     0
360
3E
 71
     1
 91
        2
 14
-56.3384
 24
37.63350000000001
 14
65.3698
 24
96.54730000000001
  0
IMAGE
  5
40
330
1F
100
AcDbEntity
  8
Capa 1
 62
     0
 92
        8
310
0000000000000000
100
AcDbRasterImage
 90
        0
 10
-56.3384
 20
37.63350000000001
 30
0.0
 11
0.01388888888888889
 21
0.0
 31
0.0
 12
0.0
 22
0.01388888888888889
 32
0.0
 13
8762.0
 23
4241.0
340
3F
 70
     3
280
     1
281
    50
282
    50
283
     0
360
41
 71
     1
 91
        2
 14
-56.3384
 24
37.63350000000001
 14
65.3698
 24
96.54730000000001
  0
IMAGE
  5
43
330
1F
100
AcDbEntity
  8
Capa 1
 62
     0
 92
        8
310
0000000000000000
100
AcDbRasterImage
 90
        0
 10
-56.3384
 20
37.63350000000001
 30
0.0
 11
0.01388888888888889
 21
0.0
 31
0.0
 12
0.0
 22
0.01388888888888889
 32
0.0
 13
8762.0
 23
4241.0
340
42
 70
     3
280
     1
281
    50
282
    50
283
     0
360
44
 71
     1
 91
        2
 14
-56.3384
 24
37.63350000000001
 14
65.3698
 24
96.54730000000001
  0
IMAGE
  5
46
330
1F
100
AcDbEntity
  8
Capa 1
 62
     0
 92
        8
310
0000000000000000
100
AcDbRasterImage
 90
        0
 10
-56.3384
 20
37.63350000000001
 30
0.0
 11
0.01388888888888889
 21
0.0
 31
0.0
 12
0.0
 22
0.01388888888888889
 32
0.0
 13
8762.0
 23
4241.0
340
45
 70
     3
280
     1
281
    50
282
    50
283
     0
360
47
 71
     1
 91
        2
 14
-56.3384
 24
37.63350000000001
 14
65.3698
 24
96.54730000000001
  0
IMAGE
  5
49
330
1F
100
AcDbEntity
  8
Capa 1
 62
     0
 92
        8
310
0000000000000000
100
AcDbRasterImage
 90
        0
 10
-56.3384
 20
37.63350000000001
 30
0.0
 11
0.01388888888888889
 21
0.0
 31
0.0
 12
0.0
 22
0.01388888888888889
 32
0.0
 13
8762.0
 23
4241.0
340
48
 70
     3
280
     1
281
    50
282
    50
283
     0
360
4A
 71
     1
 91
        2
 14
-56.3384
 24
37.63350000000001
 14
65.3698
 24
96.54730000000001
  0
IMAGE
  5
4C
330
1F
100
AcDbEntity
  8
Capa 1
 62
     0
 92
        8
310
0000000000000000
100
AcDbRasterImage
 90
        0
 10
-56.3384
 20
37.63350000000001
 30
0.0
 11
0.01388888888888889
 21
0.0
 31
0.0
 12
0.0
 22
0.01388888888888889
 32
0.0
 13
8762.0
 23
4241.0
340
4B
 70
     3
280
     1
281
    50
282
    50
283
     0
360
4D
 71
     1
 91
        2
 14
-56.3384
 24
37.63350000000001
 14
65.3698
 24
96.54730000000001
  0
IMAGE
  5
4F
330
1F
100
AcDbEntity
  8
Capa 1
 62
     0
 92
        8
310
0000000000000000
100
AcDbRasterImage
 90
        0
 10
-56.3384
 20
37.63350000000001
 30
0.0
 11
0.01388888888888889
 21
0.0
 31
0.0
 12
0.0
 22
0.01388888888888889
 32
0.0
 13
8762.0
 23
4241.0
340
4E
 70
     3
280
     1
281
    50
282
    50
283
     0
360
50
 71
     1
 91
        2
 14
-56.3384
 24
37.63350000000001
 14
65.3698
 24
96.54730000000001
  0
IMAGE
  5
52
330
1F
100
AcDbEntity
  8
Capa 1
 62
     0
 92
        8
310
0000000000000000
100
AcDbRasterImage
 90
        0
 10
-56.3384
 20
37.63350000000001
 30
0.0
 11
0.01388888888888889
 21
0.0
 31
0.0
 12
0.0
 22
0.01388888888888889
 32
0.0
 13
8762.0
 23
4241.0
340
51
 70
     3
280
     1
281
    50
282
    50
283
     0
360
53
 71
     1
 91
        2
 14
-56.3384
 24
37.63350000000001
 14
65.3698
 24
96.54730000000001
  0
IMAGE
  5
55
330
1F
100
AcDbEntity
  8
Capa 1
 62
     0
 92
        8
310
0000000000000000
100
AcDbRasterImage
 90
        0
 10
-56.3384
 20
37.63350000000001
 30
0.0
 11
0.01388888888888889
 21
0.0
 31
0.0
 12
0.0
 22
0.01388888888888889
 32
0.0
 13
8762.0
 23
4241.0
340
54
 70
     3
280
     1
281
    50
282
    50
283
     0
360
56
 71
     1
 91
        2
 14
-56.3384
 24
37.63350000000001
 14
65.3698
 24
96.54730000000001
  0
IMAGE
  5
58
330
1F
100
AcDbEntity
  8
Capa 1
 62
     0
 92
        8
310
0000000000000000
100
AcDbRasterImage
 90
        0
 10
-56.3384
 20
37.63350000000001
 30
0.0
 11
0.01388888888888889
 21
0.0
 31
0.0
 12
0.0
 22
0.01388888888888889
 32
0.0
 13
8762.0
 23
4241.0
340
57
 70
     3
280
     1
281
    50
282
    50
283
     0
360
59
 71
     1
 91
        2
 14
-56.3384
 24
37.63350000000001
 14
65.3698
 24
96.54730000000001
  0
IMAGE
  5
5B
330
1F
100
AcDbEntity
  8
Capa 1
 62
     0
 92
        8
310
0000000000000000
100
AcDbRasterImage
 90
        0
 10
-56.3384
 20
37.63350000000001
 30
0.0
 11
0.01388888888888889
 21
0.0
 31
0.0
 12
0.0
 22
0.01388888888888889
 32
0.0
 13
8762.0
 23
4241.0
340
5A
 70
     3
280
     1
281
    50
282
    50
283
     0
360
5C
 71
     1
 91
        2
 14
-56.3384
 24
37.63350000000001
 14
65.3698
 24
96.54730000000001
  0
IMAGE
  5
5E
330
1F
100
AcDbEntity
  8
Capa 1
 62
     0
 92
        8
310
0000000000000000
100
AcDbRasterImage
 90
        0
 10
-56.3384
 20
37.63350000000001
 30
0.0
 11
0.01388888888888889
 21
0.0
 31
0.0
 12
0.0
 22
0.01388888888888889
 32
0.0
 13
8762.0
 23
4241.0
340
5D
 70
     3
280
     1
281
    50
282
    50
283
     0
360
5F
 71
     1
 91
        2
 14
-56.3384
 24
37.63350000000001
 14
65.3698
 24
96.54730000000001
  0
SPLINE
  5
60
330
1F
100
AcDbEntity
  8
Capa 1
 62
     9
100
AcDbSpline
210
0.0
220
0.0
230
1.0
 70
    11
 71
     3
 72
    32
 73
    28
 74
     0
 42
0.0000000001
 43
0.0000000001
 40
0.0
 40
0.0
 40
0.0
 40
0.0
 40
0.1428571428571429
 40
0.1428571428571429
 40
0.1428571428571429
 40
0.1428571428571429
 40
0.2857142857142857
 40
0.2857142857142857
 40
0.2857142857142857
 40
0.2857142857142857
 40
0.4285714285714286
 40
0.4285714285714286
 40
0.4285714285714286
 40
0.4285714285714286
 40
0.5714285714285714
 40
0.5714285714285714
 40
0.5714285714285714
 40
0.5714285714285714
 40
0.7142857142857142
 40
0.7142857142857142
 40
0.7142857142857142
 40
0.7142857142857142
 40
0.857142857142857
 40
0.857142857142857
 40
0.857142857142857
 40
0.857142857142857
 40
1.0
 40
1.0
 40
1.0
 40
1.0
 10
5.2464
 20
125.4499
 30
0.0
 10
5.2464
 20
125.4499
 30
0.0
 10
5.599200000000001
 20
125.4499
 30
0.0
 10
5.599200000000001
 20
125.4499
 30
0.0
 10
5.599200000000001
 20
125.4499
 30
0.0
 10
5.599200000000001
 20
125.4499
 30
0.0
 10
5.599200000000001
 20
127.9194
 30
0.0
 10
5.599200000000001
 20
127.9194
 30
0.0
 10
5.599200000000001
 20
127.9194
 30
0.0
 10
5.599200000000001
 20
127.9194
 30
0.0
 10
11.2804
 20
127.9207
 30
0.0
 10
11.2804
 20
127.9207
 30
0.0
 10
11.2804
 20
127.9207
 30
0.0
 10
11.2804
 20
127.9207
 30
0.0
 10
10.8908
 20
131.4472
 30
0.0
 10
10.8908
 20
131.4472
 30
0.0
 10
10.8908
 20
131.4472
 30
0.0
 10
10.8908
 20
131.4472
 30
0.0
 10
10.8908
 20
128.2722
 30
0.0
 10
10.8908
 20
128.2722
 30
0.0
 10
10.8908
 20
128.2722
 30
0.0
 10
10.8908
 20
128.2722
 30
0.0
 10
5.2464
 20
128.2722
 30
0.0
 10
5.2464
 20
128.2722
 30
0.0
 10
5.2464
 20
128.2722
 30
0.0
 10
5.2464
 20
128.2722
 30
0.0
 10
5.2464
 20
125.4499
 30
0.0
 10
5.2464
 20
125.4499
 30
0.0
  0
SPLINE
  5
61
330
1F
100
AcDbEntity
  8
Capa 1
 62
     9
100
AcDbSpline
210
0.0
220
0.0
230
1.0
 70
    11
 71
     3
 72
    32
 73
    28
 74
     0
 42
0.0000000001
 43
0.0000000001
 40
0.0
 40
0.0
 40
0.0
 40
0.0
 40
0.1428571428571429
 40
0.1428571428571429
 40
0.1428571428571429
 40
0.1428571428571429
 40
0.2857142857142857
 40
0.2857142857142857
 40
0.2857142857142857
 40
0.2857142857142857
 40
0.4285714285714286
 40
0.4285714285714286
 40
0.4285714285714286
 40
0.4285714285714286
 40
0.5714285714285714
 40
0.5714285714285714
 40
0.5714285714285714
 40
0.5714285714285714
 40
0.7142857142857142
 40
0.7142857142857142
 40
0.7142857142857142
 40
0.7142857142857142
 40
0.857142857142857
 40
0.857142857142857
 40
0.857142857142857
 40
0.857142857142857
 40
1.0
 40
1.0
 40
1.0
 40
1.0
 10
52.1658
 20
127.5666
 30
0.0
 10
52.1658
 20
127.5666
 30
0.0
 10
52.1658
 20
116.2777
 30
0.0
 10
52.1658
 20
116.2777
 30
0.0
 10
52.1658
 20
116.2777
 30
0.0
 10
52.1658
 20
116.2777
 30
0.0
 10
48.9908
 20
116.2777
 30
0.0
 10
48.9908
 20
116.2777
 30
0.0
 10
48.9908
 20
116.2777
 30
0.0
 10
49.404
 20
115.6831
 30
0.0
 10
49.0414
 20
115.5722
 30
0.0
 10
50.0491
 20
115.5722
 30
0.0
 10
50.0491
 20
115.5722
 30
0.0
 10
50.0491
 20
115.5722
 30
0.0
 10
52.87130000000001
 20
115.5722
 30
0.0
 10
52.87130000000001
 20
115.5722
 30
0.0
 10
52.87130000000001
 20
115.5722
 30
0.0
 10
52.87130000000001
 20
115.5722
 30
0.0
 10
52.87130000000001
 20
132.1527
 30
0.0
 10
52.87130000000001
 20
132.1527
 30
0.0
 10
52.87130000000001
 20
132.1527
 30
0.0
 10
52.87130000000001
 20
132.1527
 30
0.0
 10
52.5508
 20
132.152
 30
0.0
 10
52.5508
 20
132.152
 30
0.0
 10
52.5508
 20
132.152
 30
0.0
 10
52.5508
 20
132.152
 30
0.0
 10
52.1658
 20
127.5666
 30
0.0
 10
52.1658
 20
127.5666
 30
0.0
  0
SPLINE
  5
62
330
1F
100
AcDbEntity
  8
Capa 1
 62
     9
100
AcDbSpline
210
0.0
220
0.0
230
1.0
 70
    11
 71
     3
 72
    40
 73
    36
 74
     0
 42
0.0000000001
 43
0.0000000001
 40
0.0
 40
0.0
 40
0.0
 40
0.0
 40
0.1111111111111111
 40
0.1111111111111111
 40
0.1111111111111111
 40
0.1111111111111111
 40
0.2222222222222222
 40
0.2222222222222222
 40
0.2222222222222222
 40
0.2222222222222222
 40
0.3333333333333333
 40
0.3333333333333333
 40
0.3333333333333333
 40
0.3333333333333333
 40
0.4444444444444444
 40
0.4444444444444444
 40
0.4444444444444444
 40
0.4444444444444444
 40
0.5555555555555556
 40
0.5555555555555556
 40
0.5555555555555556
 40
0.5555555555555556
 40
0.6666666666666667
 40
0.6666666666666667
 40
0.6666666666666667
 40
0.6666666666666667
 40
0.7777777777777779
 40
0.7777777777777779
 40
0.7777777777777779
 40
0.7777777777777779
 40
0.8888888888888891
 40
0.8888888888888891
 40
0.8888888888888891
 40
0.8888888888888891
 40
1.0
 40
1.0
 40
1.0
 40
1.0
 10
30.9991
 20
126.5083
 30
0.0
 10
30.9991
 20
126.5083
 30
0.0
 10
31.3519
 20
126.5083
 30
0.0
 10
31.3519
 20
126.5083
 30
0.0
 10
31.3519
 20
126.5083
 30
0.0
 10
31.3519
 20
126.5083
 30
0.0
 10
31.7047
 20
129.6833
 30
0.0
 10
31.7047
 20
129.6833
 30
0.0
 10
31.7047
 20
129.6833
 30
0.0
 10
31.7047
 20
129.6833
 30
0.0
 10
32.763
 20
129.6833
 30
0.0
 10
32.763
 20
129.6833
 30
0.0
 10
32.763
 20
129.6833
 30
0.0
 10
32.763
 20
129.6833
 30
0.0
 10
32.763
 20
129.3305
 30
0.0
 10
32.763
 20
129.3305
 30
0.0
 10
32.763
 20
129.3305
 30
0.0
 10
32.763
 20
129.3305
 30
0.0
 10
33.1158
 20
129.3305
 30
0.0
 10
33.1158
 20
129.3305
 30
0.0
 10
33.1158
 20
129.3305
 30
0.0
 10
33.1158
 20
129.3305
 30
0.0
 10
32.763
 20
129.6833
 30
0.0
 10
32.763
 20
129.6833
 30
0.0
 10
32.763
 20
129.6833
 30
0.0
 10
32.763
 20
129.6833
 30
0.0
 10
31.7047
 20
129.6833
 30
0.0
 10
31.7047
 20
129.6833
 30
0.0
 10
31.7047
 20
129.6833
 30
0.0
 10
31.7047
 20
129.6833
 30
0.0
 10
30.9991
 20
129.3305
 30
0.0
 10
30.9991
 20
129.3305
 30
0.0
 10
30.9991
 20
129.3305
 30
0.0
 10
30.9991
 20
129.3305
 30
0.0
 10
30.9991
 20
126.5083
 30
0.0
 10
30.9991
 20
126.5083
 30
0.0
  0
SPLINE
  5
63
330
1F
100
AcDbEntity
  8
Capa 1
 62
     9
100
AcDbSpline
210
0.0
220
0.0
230
1.0
 70
    11
 71
     3
 72
    36
 73
    32
 74
     0
 42
0.0000000001
 43
0.0000000001
 40
0.0
 40
0.0
 40
0.0
 40
0.0
 40
0.125
 40
0.125
 40
0.125
 40
0.125
 40
0.25
 40
0.25
 40
0.25
 40
0.25
 40
0.375
 40
0.375
 40
0.375
 40
0.375
 40
0.5
 40
0.5
 40
0.5
 40
0.5
 40
0.625
 40
0.625
 40
0.625
 40
0.625
 40
0.75
 40
0.75
 40
0.75
 40
0.75
 40
0.875
 40
0.875
 40
0.875
 40
0.875
 40
1.0
 40
1.0
 40
1.0
 40
1.0
 10
5.2464
 20
125.4499
 30
0.0
 10
5.2464
 20
125.4499
 30
0.0
 10
5.2464
 20
128.2722
 30
0.0
 10
5.2464
 20
128.2722
 30
0.0
 10
5.2464
 20
128.2722
 30
0.0
 10
5.2464
 20
128.2722
 30
0.0
 10
10.8908
 20
128.2722
 30
0.0
 10
10.8908
 20
128.2722
 30
0.0
 10
10.8908
 20
128.2722
 30
0.0
 10
10.8908
 20
128.2722
 30
0.0
 10
10.8908
 20
131.4472
 30
0.0
 10
10.8908
 20
131.4472
 30
0.0
 10
10.8908
 20
131.4472
 30
0.0
 10
10.8908
 20
131.4472
 30
0.0
 10
10.538
 20
131.7999
 30
0.0
 10
10.538
 20
131.7999
 30
0.0
 10
10.538
 20
131.7999
 30
0.0
 10
10.538
 20
131.7999
 30
0.0
 10
10.538
 20
128.6249
 30
0.0
 10
10.538
 20
128.6249
 30
0.0
 10
10.538
 20
128.6249
 30
0.0
 10
10.538
 20
128.6249
 30
0.0
 10
4.8936
 20
128.6249
 30
0.0
 10
4.8936
 20
128.6249
 30
0.0
 10
4.8936
 20
128.6249
 30
0.0
 10
4.8936
 20
128.6249
 30
0.0
 10
4.9524
 20
125.0384
 30
0.0
 10
4.9524
 20
125.0384
 30
0.0
 10
4.9524
 20
125.0384
 30
0.0
 10
4.9524
 20
125.0384
 30
0.0
 10
5.2464
 20
125.4499
 30
0.0
 10
5.2464
 20
125.4499
 30
0.0
  0
SPLINE
  5
64
330
1F
100
AcDbEntity
  8
Capa 1
 62
     9
100
AcDbSpline
210
0.0
220
0.0
230
1.0
 70
    11
 71
     3
 72
    28
 73
    24
 74
     0
 42
0.0000000001
 43
0.0000000001
 40
0.0
 40
0.0
 40
0.0
 40
0.0
 40
0.1666666666666667
 40
0.1666666666666667
 40
0.1666666666666667
 40
0.1666666666666667
 40
0.3333333333333333
 40
0.3333333333333333
 40
0.3333333333333333
 40
0.3333333333333333
 40
0.5
 40
0.5
 40
0.5
 40
0.5
 40
0.6666666666666666
 40
0.6666666666666666
 40
0.6666666666666666
 40
0.6666666666666666
 40
0.8333333333333333
 40
0.8333333333333333
 40
0.8333333333333333
 40
0.8333333333333333
 40
1.0
 40
1.0
 40
1.0
 40
1.0
 10
31.3519
 20
126.5083
 30
0.0
 10
31.3519
 20
126.5083
 30
0.0
 10
31.3519
 20
126.1555
 30
0.0
 10
31.3519
 20
126.1555
 30
0.0
 10
31.3519
 20
126.1555
 30
0.0
 10
31.3519
 20
126.1555
 30
0.0
 10
31.7047
 20
127.9194
 30
0.0
 10
31.7047
 20
127.9194
 30
0.0
 10
31.7047
 20
127.9194
 30
0.0
 10
31.8039
 20
128.9479
 30
0.0
 10
32.1114
 20
128.8941
 30
0.0
 10
32.763
 20
129.3305
 30
0.0
 10
32.763
 20
129.3305
 30
0.0
 10
32.763
 20
129.3305
 30
0.0
 10
32.763
 20
129.6833
 30
0.0
 10
32.763
 20
129.6833
 30
0.0
 10
32.763
 20
129.6833
 30
0.0
 10
32.763
 20
129.6833
 30
0.0
 10
31.7047
 20
129.6833
 30
0.0
 10
31.7047
 20
129.6833
 30
0.0
 10
31.7047
 20
129.6833
 30
0.0
 10
31.7047
 20
129.6833
 30
0.0
 10
31.3519
 20
126.5083
 30
0.0
 10
31.3519
 20
126.5083
 30
0.0
  0
SPLINE
  5
65
330
1F
100
AcDbEntity
  8
Capa 1
 62
     9
100
AcDbSpline
210
0.0
220
0.0
230
1.0
 70
    11
 71
     3
 72
    24
 73
    20
 74
     0
 42
0.0000000001
 43
0.0000000001
 40
0.0
 40
0.0
 40
0.0
 40
0.0
 40
0.2
 40
0.2
 40
0.2
 40
0.2
 40
0.4
 40
0.4
 40
0.4
 40
0.4
 40
0.6000000000000001
 40
0.6000000000000001
 40
0.6000000000000001
 40
0.6000000000000001
 40
0.8
 40
0.8
 40
0.8
 40
0.8
 40
1.0
 40
1.0
 40
1.0
 40
1.0
 10
-1.4564
 20
131.4472
 30
0.0
 10
-1.4564
 20
131.4472
 30
0.0
 10
-1.8092
 20
131.0944
 30
0.0
 10
-1.8092
 20
131.0944
 30
0.0
 10
-1.8092
 20
131.0944
 30
0.0
 10
-1.8092
 20
131.0944
 30
0.0
 10
-6.0425
 20
124.3916
 30
0.0
 10
-6.0425
 20
124.3916
 30
0.0
 10
-6.0425
 20
124.3916
 30
0.0
 10
-6.0425
 20
124.3916
 30
0.0
 10
-5.6897
 20
124.0388
 30
0.0
 10
-5.6897
 20
124.0388
 30
0.0
 10
-5.6897
 20
124.0388
 30
0.0
 10
-5.6897
 20
124.0388
 30
0.0
 10
-0.4233
 20
131.8657
 30
0.0
 10
-0.4233
 20
131.8657
 30
0.0
 10
-0.4233
 20
131.8657
 30
0.0
 10
-0.4233
 20
131.8657
 30
0.0
 10
-1.4564
 20
131.4472
 30
0.0
 10
-1.4564
 20
131.4472
 30
0.0
  0
SPLINE
  5
66
330
1F
100
AcDbEntity
  8
Capa 1
 62
     9
100
AcDbSpline
210
0.0
220
0.0
230
1.0
 70
    11
 71
     3
 72
    24
 73
    20
 74
     0
 42
0.0000000001
 43
0.0000000001
 40
0.0
 40
0.0
 40
0.0
 40
0.0
 40
0.2
 40
0.2
 40
0.2
 40
0.2
 40
0.4
 40
0.4
 40
0.4
 40
0.4
 40
0.6000000000000001
 40
0.6000000000000001
 40
0.6000000000000001
 40
0.6000000000000001
 40
0.8
 40
0.8
 40
0.8
 40
0.8
 40
1.0
 40
1.0
 40
1.0
 40
1.0
 10
-10.6286
 20
129.3305
 30
0.0
 10
-10.6286
 20
129.3305
 30
0.0
 10
-10.6286
 20
125.4499
 30
0.0
 10
-10.6286
 20
125.4499
 30
0.0
 10
-10.6286
 20
125.4499
 30
0.0
 10
-10.6286
 20
125.4499
 30
0.0
 10
-9.923
 20
125.4499
 30
0.0
 10
-9.923
 20
125.4499
 30
0.0
 10
-9.923
 20
125.4499
 30
0.0
 10
-9.923
 20
125.4499
 30
0.0
 10
-9.923
 20
131.7999
 30
0.0
 10
-9.923
 20
131.7999
 30
0.0
 10
-9.923
 20
131.7999
 30
0.0
 10
-9.923
 20
131.7999
 30
0.0
 10
-10.2334
 20
131.7974
 30
0.0
 10
-10.2334
 20
131.7974
 30
0.0
 10
-10.2334
 20
131.7974
 30
0.0
 10
-10.2334
 20
131.7974
 30
0.0
 10
-10.6286
 20
129.3305
 30
0.0
 10
-10.6286
 20
129.3305
 30
0.0
  0
SPLINE
  5
67
330
1F
100
AcDbEntity
  8
Capa 1
 62
     9
100
AcDbSpline
210
0.0
220
0.0
230
1.0
 70
    11
 71
     3
 72
    32
 73
    28
 74
     0
 42
0.0000000001
 43
0.0000000001
 40
0.0
 40
0.0
 40
0.0
 40
0.0
 40
0.1428571428571429
 40
0.1428571428571429
 40
0.1428571428571429
 40
0.1428571428571429
 40
0.2857142857142857
 40
0.2857142857142857
 40
0.2857142857142857
 40
0.2857142857142857
 40
0.4285714285714286
 40
0.4285714285714286
 40
0.4285714285714286
 40
0.4285714285714286
 40
0.5714285714285714
 40
0.5714285714285714
 40
0.5714285714285714
 40
0.5714285714285714
 40
0.7142857142857142
 40
0.7142857142857142
 40
0.7142857142857142
 40
0.7142857142857142
 40
0.857142857142857
 40
0.857142857142857
 40
0.857142857142857
 40
0.857142857142857
 40
1.0
 40
1.0
 40
1.0
 40
1.0
 10
17.5936
 20
124.7444
 30
0.0
 10
17.5936
 20
124.7444
 30
0.0
 10
18.2992
 20
124.7444
 30
0.0
 10
18.2992
 20
124.7444
 30
0.0
 10
18.2992
 20
124.7444
 30
0.0
 10
18.2992
 20
124.7444
 30
0.0
 10
18.2992
 20
128.2722
 30
0.0
 10
18.2992
 20
128.2722
 30
0.0
 10
18.2992
 20
128.2722
 30
0.0
 10
18.2992
 20
128.2722
 30
0.0
 10
20.063
 20
128.2722
 30
0.0
 10
20.063
 20
128.2722
 30
0.0
 10
20.063
 20
128.2722
 30
0.0
 10
20.063
 20
128.2722
 30
0.0
 10
19.7103
 20
128.9777
 30
0.0
 10
19.7103
 20
128.9777
 30
0.0
 10
19.7103
 20
128.9777
 30
0.0
 10
19.7103
 20
128.9777
 30
0.0
 10
19.0047
 20
128.9777
 30
0.0
 10
19.0047
 20
128.9777
 30
0.0
 10
19.0047
 20
128.9777
 30
0.0
 10
19.0047
 20
128.9777
 30
0.0
 10
17.5936
 20
128.9777
 30
0.0
 10
17.5936
 20
128.9777
 30
0.0
 10
17.5936
 20
128.9777
 30
0.0
 10
17.5936
 20
128.9777
 30
0.0
 10
17.5936
 20
124.7444
 30
0.0
 10
17.5936
 20
124.7444
 30
0.0
  0
SPLINE
  5
68
330
1F
100
AcDbEntity
  8
Capa 1
 62
     9
100
AcDbSpline
210
0.0
220
0.0
230
1.0
 70
    11
 71
     3
 72
    28
 73
    24
 74
     0
 42
0.0000000001
 43
0.0000000001
 40
0.0
 40
0.0
 40
0.0
 40
0.0
 40
0.1666666666666667
 40
0.1666666666666667
 40
0.1666666666666667
 40
0.1666666666666667
 40
0.3333333333333333
 40
0.3333333333333333
 40
0.3333333333333333
 40
0.3333333333333333
 40
0.5
 40
0.5
 40
0.5
 40
0.5
 40
0.6666666666666666
 40
0.6666666666666666
 40
0.6666666666666666
 40
0.6666666666666666
 40
0.8333333333333333
 40
0.8333333333333333
 40
0.8333333333333333
 40
0.8333333333333333
 40
1.0
 40
1.0
 40
1.0
 40
1.0
 10
25.7075
 20
127.5666
 30
0.0
 10
25.7075
 20
127.5666
 30
0.0
 10
25.0019
 20
124.7444
 30
0.0
 10
25.0019
 20
124.7444
 30
0.0
 10
25.0019
 20
124.7444
 30
0.0
 10
24.7386
 20
124.3512
 30
0.0
 10
23.9436
 20
123.5578
 30
0.0
 10
23.9436
 20
123.3333
 30
0.0
 10
23.9436
 20
123.3333
 30
0.0
 10
23.9436
 20
122.5378
 30
0.0
 10
23.8081
 20
123.4967
 30
0.0
 10
24.2964
 20
122.6277
 30
0.0
 10
24.2964
 20
122.6277
 30
0.0
 10
25.4721
 20
123.415
 30
0.0
 10
26.413
 20
124.8784
 30
0.0
 10
26.413
 20
126.8611
 30
0.0
 10
26.413
 20
126.8611
 30
0.0
 10
26.413
 20
128.012
 30
0.0
 10
26.2307
 20
128.023
 30
0.0
 10
25.7075
 20
128.6249
 30
0.0
 10
25.7075
 20
128.6249
 30
0.0
 10
25.7075
 20
128.6249
 30
0.0
 10
25.7075
 20
127.5666
 30
0.0
 10
25.7075
 20
127.5666
 30
0.0
  0
SPLINE
  5
69
330
1F
100
AcDbEntity
  8
Capa 1
 62
     9
100
AcDbSpline
210
0.0
220
0.0
230
1.0
 70
    11
 71
     3
 72
    24
 73
    20
 74
     0
 42
0.0000000001
 43
0.0000000001
 40
0.0
 40
0.0
 40
0.0
 40
0.0
 40
0.2
 40
0.2
 40
0.2
 40
0.2
 40
0.4
 40
0.4
 40
0.4
 40
0.4
 40
0.6000000000000001
 40
0.6000000000000001
 40
0.6000000000000001
 40
0.6000000000000001
 40
0.8
 40
0.8
 40
0.8
 40
0.8
 40
1.0
 40
1.0
 40
1.0
 40
1.0
 10
-26.5036
 20
122.9805
 30
0.0
 10
-26.5036
 20
122.9805
 30
0.0
 10
-25.798
 20
127.9194
 30
0.0
 10
-25.798
 20
127.9194
 30
0.0
 10
-25.798
 20
127.9194
 30
0.0
 10
-25.798
 20
127.9194
 30
0.0
 10
-26.1508
 20
128.2722
 30
0.0
 10
-26.1508
 20
128.2722
 30
0.0
 10
-26.1508
 20
128.2722
 30
0.0
 10
-26.3926
 20
127.8418
 30
0.0
 10
-26.5036
 20
127.8948
 30
0.0
 10
-26.5036
 20
127.2138
 30
0.0
 10
-26.5036
 20
127.2138
 30
0.0
 10
-26.5036
 20
125.9263
 30
0.0
 10
-27.1738
 20
124.5667
 30
0.0
 10
-27.2091
 20
122.9805
 30
0.0
 10
-27.2091
 20
122.9805
 30
0.0
 10
-27.2091
 20
122.9805
 30
0.0
 10
-26.5036
 20
122.9805
 30
0.0
 10
-26.5036
 20
122.9805
 30
0.0
  0
SPLINE
  5
6A
330
1F
100
AcDbEntity
  8
Capa 1
 62
     7
100
AcDbSpline
210
0.0
220
0.0
230
1.0
 70
    11
 71
     3
 72
    40
 73
    36
 74
     0
 42
0.0000000001
 43
0.0000000001
 40
0.0
 40
0.0
 40
0.0
 40
0.0
 40
0.1111111111111111
 40
0.1111111111111111
 40
0.1111111111111111
 40
0.1111111111111111
 40
0.2222222222222222
 40
0.2222222222222222
 40
0.2222222222222222
 40
0.2222222222222222
 40
0.3333333333333333
 40
0.3333333333333333
 40
0.3333333333333333
 40
0.3333333333333333
 40
0.4444444444444444
 40
0.4444444444444444
 40
0.4444444444444444
 40
0.4444444444444444
 40
0.5555555555555556
 40
0.5555555555555556
 40
0.5555555555555556
 40
0.5555555555555556
 40
0.6666666666666667
 40
0.6666666666666667
 40
0.6666666666666667
 40
0.6666666666666667
 40
0.7777777777777779
 40
0.7777777777777779
 40
0.7777777777777779
 40
0.7777777777777779
 40
0.8888888888888891
 40
0.8888888888888891
 40
0.8888888888888891
 40
0.8888888888888891
 40
1.0
 40
1.0
 40
1.0
 40
1.0
 10
31.3519
 20
126.1555
 30
0.0
 10
31.3519
 20
126.1555
 30
0.0
 10
30.9991
 20
126.5083
 30
0.0
 10
30.9991
 20
126.5083
 30
0.0
 10
30.9991
 20
126.5083
 30
0.0
 10
30.9991
 20
126.5083
 30
0.0
 10
30.9991
 20
129.3305
 30
0.0
 10
30.9991
 20
129.3305
 30
0.0
 10
30.9991
 20
129.3305
 30
0.0
 10
30.9991
 20
129.3305
 30
0.0
 10
31.7047
 20
129.6833
 30
0.0
 10
31.7047
 20
129.6833
 30
0.0
 10
31.7047
 20
129.6833
 30
0.0
 10
31.7047
 20
129.6833
 30
0.0
 10
32.763
 20
129.6833
 30
0.0
 10
32.763
 20
129.6833
 30
0.0
 10
32.763
 20
129.6833
 30
0.0
 10
32.763
 20
129.6833
 30
0.0
 10
33.1158
 20
129.3305
 30
0.0
 10
33.1158
 20
129.3305
 30
0.0
 10
33.1158
 20
129.3305
 30
0.0
 10
33.5769
 20
128.4006
 30
0.0
 10
33.4686
 20
129.621
 30
0.0
 10
33.4686
 20
128.2722
 30
0.0
 10
33.4686
 20
128.2722
 30
0.0
 10
33.4686
 20
128.2722
 30
0.0
 10
33.4686
 20
127.5666
 30
0.0
 10
33.4686
 20
127.5666
 30
0.0
 10
33.4686
 20
127.5666
 30
0.0
 10
33.4686
 20
126.4834
 30
0.0
 10
33.1419
 20
125.4499
 30
0.0
 10
32.05750000000001
 20
125.4499
 30
0.0
 10
32.05750000000001
 20
125.4499
 30
0.0
 10
31.5816
 20
125.4499
 30
0.0
 10
31.5283
 20
125.8415
 30
0.0
 10
31.3519
 20
126.1555
 30
0.0
  0
SPLINE
  5
6B
330
1F
100
AcDbEntity
  8
Capa 1
 62
     7
100
AcDbSpline
210
0.0
220
0.0
230
1.0
 70
    11
 71
     3
 72
    44
 73
    40
 74
     0
 42
0.0000000001
 43
0.0000000001
 40
0.0
 40
0.0
 40
0.0
 40
0.0
 40
0.1
 40
0.1
 40
0.1
 40
0.1
 40
0.2
 40
0.2
 40
0.2
 40
0.2
 40
0.3
 40
0.3
 40
0.3
 40
0.3
 40
0.4
 40
0.4
 40
0.4
 40
0.4
 40
0.5
 40
0.5
 40
0.5
 40
0.5
 40
0.6
 40
0.6
 40
0.6
 40
0.6
 40
0.7
 40
0.7
 40
0.7
 40
0.7
 40
0.7999999999999999
 40
0.7999999999999999
 40
0.7999999999999999
 40
0.7999999999999999
 40
0.8999999999999999
 40
0.8999999999999999
 40
0.8999999999999999
 40
0.8999999999999999
 40
1.0
 40
1.0
 40
1.0
 40
1.0
 10
31.3519
 20
122.6277
 30
0.0
 10
36.2348
 20
122.6277
 30
0.0
 10
37.3491
 20
124.126
 30
0.0
 10
37.3491
 20
128.9777
 30
0.0
 10
37.3491
 20
128.9777
 30
0.0
 10
37.3491
 20
128.9777
 30
0.0
 10
36.9964
 20
129.6833
 30
0.0
 10
36.9964
 20
129.6833
 30
0.0
 10
36.9964
 20
129.6833
 30
0.0
 10
36.9964
 20
129.6833
 30
0.0
 10
36.9964
 20
130.036
 30
0.0
 10
36.9964
 20
130.036
 30
0.0
 10
36.9964
 20
130.036
 30
0.0
 10
36.9964
 20
130.036
 30
0.0
 10
36.6436
 20
130.3888
 30
0.0
 10
36.6436
 20
130.3888
 30
0.0
 10
36.6436
 20
130.3888
 30
0.0
 10
36.6436
 20
130.3888
 30
0.0
 10
36.6436
 20
130.7416
 30
0.0
 10
36.6436
 20
130.7416
 30
0.0
 10
36.6436
 20
130.7416
 30
0.0
 10
35.10160000000001
 20
131.7742
 30
0.0
 10
35.1278
 20
132.8583
 30
0.0
 10
32.4102
 20
132.8583
 30
0.0
 10
32.4102
 20
132.8583
 30
0.0
 10
32.4102
 20
132.8583
 30
0.0
 10
32.05750000000001
 20
132.8583
 30
0.0
 10
32.05750000000001
 20
132.8583
 30
0.0
 10
32.05750000000001
 20
132.8583
 30
0.0
 10
29.1211
 20
132.8583
 30
0.0
 10
27.1186
 20
130.8558
 30
0.0
 10
27.1186
 20
127.9194
 30
0.0
 10
27.1186
 20
127.9194
 30
0.0
 10
27.1186
 20
127.9194
 30
0.0
 10
27.1186
 20
127.2138
 30
0.0
 10
27.1186
 20
127.2138
 30
0.0
 10
27.1186
 20
127.2138
 30
0.0
 10
27.1186
 20
124.0147
 30
0.0
 10
29.7495
 20
123.6444
 30
0.0
 10
31.3519
 20
122.6277
 30
0.0
  0
SPLINE
  5
6C
330
1F
100
AcDbEntity
  8
Capa 1
 62
     9
100
AcDbSpline
210
0.0
220
0.0
230
1.0
 70
    27
 71
     3
 72
    12
 73
     8
 74
     0
 42
0.0000000001
 43
0.0000000001
 40
0.0
 40
0.0
 40
0.0
 40
0.0
 40
0.5
 40
0.5
 40
0.5
 40
0.5
 40
1.0
 40
1.0
 40
1.0
 40
1.0
 10
36.6436
 20
130.7416
 30
0.0
 10
36.6436
 20
130.7416
 30
0.0
 10
36.6436
 20
130.3888
 30
0.0
 10
36.6436
 20
130.3888
 30
0.0
 10
36.6436
 20
130.3888
 30
0.0
 10
36.6436
 20
130.3888
 30
0.0
 10
36.6436
 20
130.7416
 30
0.0
 10
36.6436
 20
130.7416
 30
0.0
  0
SPLINE
  5
6D
330
1F
100
AcDbEntity
  8
Capa 1
 62
     9
100
AcDbSpline
210
0.0
220
0.0
230
1.0
 70
    27
 71
     3
 72
    12
 73
     8
 74
     0
 42
0.0000000001
 43
0.0000000001
 40
0.0
 40
0.0
 40
0.0
 40
0.0
 40
0.5
 40
0.5
 40
0.5
 40
0.5
 40
1.0
 40
1.0
 40
1.0
 40
1.0
 10
36.9964
 20
129.6833
 30
0.0
 10
36.9964
 20
129.6833
 30
0.0
 10
36.9964
 20
130.036
 30
0.0
 10
36.9964
 20
130.036
 30
0.0
 10
36.9964
 20
130.036
 30
0.0
 10
36.9964
 20
130.036
 30
0.0
 10
36.9964
 20
129.6833
 30
0.0
 10
36.9964
 20
129.6833
 30
0.0
  0
SPLINE
  5
6E
330
1F
100
AcDbEntity
  8
Capa 1
 62
     9
100
AcDbSpline
210
0.0
220
0.0
230
1.0
 70
    11
 71
     3
 72
    24
 73
    20
 74
     0
 42
0.0000000001
 43
0.0000000001
 40
0.0
 40
0.0
 40
0.0
 40
0.0
 40
0.2
 40
0.2
 40
0.2
 40
0.2
 40
0.4
 40
0.4
 40
0.4
 40
0.4
 40
0.6000000000000001
 40
0.6000000000000001
 40
0.6000000000000001
 40
0.6000000000000001
 40
0.8
 40
0.8
 40
0.8
 40
0.8
 40
1.0
 40
1.0
 40
1.0
 40
1.0
 10
37.3491
 20
128.9777
 30
0.0
 10
37.3491
 20
124.126
 30
0.0
 10
36.2348
 20
122.6277
 30
0.0
 10
31.3519
 20
122.6277
 30
0.0
 10
31.3519
 20
122.6277
 30
0.0
 10
29.6743
 20
122.1113
 30
0.0
 10
31.7489
 20
121.9222
 30
0.0
 10
32.4102
 20
121.9222
 30
0.0
 10
32.4102
 20
121.9222
 30
0.0
 10
35.9452
 20
121.9222
 30
0.0
 10
38.0547
 20
123.3487
 30
0.0
 10
38.0547
 20
126.8611
 30
0.0
 10
38.0547
 20
126.8611
 30
0.0
 10
38.0547
 20
126.8611
 30
0.0
 10
38.0547
 20
127.2138
 30
0.0
 10
38.0547
 20
127.2138
 30
0.0
 10
38.0547
 20
127.2138
 30
0.0
 10
38.0547
 20
127.9478
 30
0.0
 10
37.9043
 20
130.7814
 30
0.0
 10
37.3491
 20
128.9777
 30
0.0
  0
SPLINE
  5
6F
330
1F
100
AcDbEntity
  8
Capa 1
 62
     9
100
AcDbSpline
210
0.0
220
0.0
230
1.0
 70
    11
 71
     3
 72
    40
 73
    36
 74
     0
 42
0.0000000001
 43
0.0000000001
 40
0.0
 40
0.0
 40
0.0
 40
0.0
 40
0.1111111111111111
 40
0.1111111111111111
 40
0.1111111111111111
 40
0.1111111111111111
 40
0.2222222222222222
 40
0.2222222222222222
 40
0.2222222222222222
 40
0.2222222222222222
 40
0.3333333333333333
 40
0.3333333333333333
 40
0.3333333333333333
 40
0.3333333333333333
 40
0.4444444444444444
 40
0.4444444444444444
 40
0.4444444444444444
 40
0.4444444444444444
 40
0.5555555555555556
 40
0.5555555555555556
 40
0.5555555555555556
 40
0.5555555555555556
 40
0.6666666666666667
 40
0.6666666666666667
 40
0.6666666666666667
 40
0.6666666666666667
 40
0.7777777777777779
 40
0.7777777777777779
 40
0.7777777777777779
 40
0.7777777777777779
 40
0.8888888888888891
 40
0.8888888888888891
 40
0.8888888888888891
 40
0.8888888888888891
 40
1.0
 40
1.0
 40
1.0
 40
1.0
 10
7.0103
 20
122.6277
 30
0.0
 10
7.0103
 20
122.6277
 30
0.0
 10
6.657500000000001
 20
122.2749
 30
0.0
 10
6.657500000000001
 20
122.2749
 30
0.0
 10
6.657500000000001
 20
122.2749
 30
0.0
 10
7.6035
 20
122.0485
 30
0.0
 10
7.322500000000001
 20
121.9222
 30
0.0
 10
8.0686
 20
121.9222
 30
0.0
 10
8.0686
 20
121.9222
 30
0.0
 10
9.145
 20
121.9222
 30
0.0
 10
9.4922
 20
122.261
 30
0.0
 10
10.1853
 20
122.6277
 30
0.0
 10
10.1853
 20
122.6277
 30
0.0
 10
10.1853
 20
122.6277
 30
0.0
 10
10.1853
 20
123.3333
 30
0.0
 10
10.1853
 20
123.3333
 30
0.0
 10
10.1853
 20
123.3333
 30
0.0
 10
10.1853
 20
123.3333
 30
0.0
 10
10.1853
 20
124.0388
 30
0.0
 10
10.1853
 20
124.0388
 30
0.0
 10
10.1853
 20
124.0388
 30
0.0
 10
10.1853
 20
124.0388
 30
0.0
 10
10.1667
 20
124.7143
 30
0.0
 10
10.1667
 20
124.7143
 30
0.0
 10
10.1667
 20
124.7143
 30
0.0
 10
10.1667
 20
124.7143
 30
0.0
 10
9.479700000000001
 20
125.0972
 30
0.0
 10
9.479700000000001
 20
125.0972
 30
0.0
 10
9.479700000000001
 20
125.0972
 30
0.0
 10
9.479700000000001
 20
125.0972
 30
0.0
 10
9.509700000000001
 20
123.2374
 30
0.0
 10
9.509700000000001
 20
123.2374
 30
0.0
 10
9.509700000000001
 20
123.2374
 30
0.0
 10
9.509700000000001
 20
123.2374
 30
0.0
 10
7.0103
 20
122.6277
 30
0.0
 10
7.0103
 20
122.6277
 30
0.0
  0
SPLINE
  5
70
330
1F
100
AcDbEntity
  8
Capa 1
 62
     9
100
AcDbSpline
210
0.0
220
0.0
230
1.0
 70
    11
 71
     3
 72
    28
 73
    24
 74
     0
 42
0.0000000001
 43
0.0000000001
 40
0.0
 40
0.0
 40
0.0
 40
0.0
 40
0.1666666666666667
 40
0.1666666666666667
 40
0.1666666666666667
 40
0.1666666666666667
 40
0.3333333333333333
 40
0.3333333333333333
 40
0.3333333333333333
 40
0.3333333333333333
 40
0.5
 40
0.5
 40
0.5
 40
0.5
 40
0.6666666666666666
 40
0.6666666666666666
 40
0.6666666666666666
 40
0.6666666666666666
 40
0.8333333333333333
 40
0.8333333333333333
 40
0.8333333333333333
 40
0.8333333333333333
 40
1.0
 40
1.0
 40
1.0
 40
1.0
 10
6.3047
 20
122.9805
 30
0.0
 10
6.3047
 20
122.9805
 30
0.0
 10
5.2464
 20
122.9805
 30
0.0
 10
5.2464
 20
122.9805
 30
0.0
 10
5.2464
 20
122.9805
 30
0.0
 10
5.2464
 20
122.9805
 30
0.0
 10
5.2464
 20
120.1583
 30
0.0
 10
5.2464
 20
120.1583
 30
0.0
 10
5.2464
 20
120.1583
 30
0.0
 10
5.2464
 20
120.1583
 30
0.0
 10
5.599200000000001
 20
120.1583
 30
0.0
 10
5.599200000000001
 20
120.1583
 30
0.0
 10
5.599200000000001
 20
120.1583
 30
0.0
 10
5.599200000000001
 20
120.1583
 30
0.0
 10
5.614100000000001
 20
122.2483
 30
0.0
 10
5.614100000000001
 20
122.2483
 30
0.0
 10
5.614100000000001
 20
122.2483
 30
0.0
 10
5.614100000000001
 20
122.2483
 30
0.0
 10
6.657500000000001
 20
122.9805
 30
0.0
 10
6.657500000000001
 20
122.9805
 30
0.0
 10
6.657500000000001
 20
122.9805
 30
0.0
 10
6.657500000000001
 20
122.9805
 30
0.0
 10
6.3047
 20
122.9805
 30
0.0
 10
6.3047
 20
122.9805
 30
0.0
  0
SPLINE
  5
71
330
1F
100
AcDbEntity
  8
Capa 1
 62
     7
100
AcDbSpline
210
0.0
220
0.0
230
1.0
 70
    11
 71
     3
 72
    56
 73
    52
 74
     0
 42
0.0000000001
 43
0.0000000001
 40
0.0
 40
0.0
 40
0.0
 40
0.0
 40
0.0769230769230769
 40
0.0769230769230769
 40
0.0769230769230769
 40
0.0769230769230769
 40
0.1538461538461539
 40
0.1538461538461539
 40
0.1538461538461539
 40
0.1538461538461539
 40
0.2307692307692308
 40
0.2307692307692308
 40
0.2307692307692308
 40
0.2307692307692308
 40
0.3076923076923077
 40
0.3076923076923077
 40
0.3076923076923077
 40
0.3076923076923077
 40
0.3846153846153846
 40
0.3846153846153846
 40
0.3846153846153846
 40
0.3846153846153846
 40
0.4615384615384616
 40
0.4615384615384616
 40
0.4615384615384616
 40
0.4615384615384616
 40
0.5384615384615386
 40
0.5384615384615386
 40
0.5384615384615386
 40
0.5384615384615386
 40
0.6153846153846154
 40
0.6153846153846154
 40
0.6153846153846154
 40
0.6153846153846154
 40
0.6923076923076923
 40
0.6923076923076923
 40
0.6923076923076923
 40
0.6923076923076923
 40
0.7692307692307692
 40
0.7692307692307692
 40
0.7692307692307692
 40
0.7692307692307692
 40
0.846153846153846
 40
0.846153846153846
 40
0.846153846153846
 40
0.846153846153846
 40
0.9230769230769229
 40
0.9230769230769229
 40
0.9230769230769229
 40
0.9230769230769229
 40
1.0
 40
1.0
 40
1.0
 40
1.0
 10
38.76020000000001
 20
116.2777
 30
0.0
 10
38.76020000000001
 20
116.2777
 30
0.0
 10
42.288
 20
116.2777
 30
0.0
 10
42.288
 20
116.2777
 30
0.0
 10
42.288
 20
116.2777
 30
0.0
 10
42.288
 20
116.2777
 30
0.0
 10
42.3586
 20
124.4622
 30
0.0
 10
42.3586
 20
124.4622
 30
0.0
 10
42.3586
 20
124.4622
 30
0.0
 10
42.3586
 20
124.4622
 30
0.0
 10
42.9936
 20
123.6861
 30
0.0
 10
42.9936
 20
123.6861
 30
0.0
 10
42.9936
 20
123.6861
 30
0.0
 10
42.9936
 20
123.6861
 30
0.0
 10
42.9936
 20
123.3333
 30
0.0
 10
42.9936
 20
123.3333
 30
0.0
 10
42.9936
 20
123.3333
 30
0.0
 10
42.9936
 20
123.3333
 30
0.0
 10
48.9908
 20
116.2777
 30
0.0
 10
48.9908
 20
116.2777
 30
0.0
 10
48.9908
 20
116.2777
 30
0.0
 10
48.9908
 20
116.2777
 30
0.0
 10
52.1658
 20
116.2777
 30
0.0
 10
52.1658
 20
116.2777
 30
0.0
 10
52.1658
 20
116.2777
 30
0.0
 10
52.1658
 20
116.2777
 30
0.0
 10
52.1658
 20
127.5666
 30
0.0
 10
52.1658
 20
127.5666
 30
0.0
 10
52.1658
 20
127.5666
 30
0.0
 10
52.1658
 20
127.5666
 30
0.0
 10
52.5186
 20
132.8583
 30
0.0
 10
52.5186
 20
132.8583
 30
0.0
 10
52.5186
 20
132.8583
 30
0.0
 10
52.5186
 20
132.8583
 30
0.0
 10
48.63800000000001
 20
132.8583
 30
0.0
 10
48.63800000000001
 20
132.8583
 30
0.0
 10
48.63800000000001
 20
132.8583
 30
0.0
 10
48.63800000000001
 20
132.8583
 30
0.0
 10
48.4404
 20
124.9446
 30
0.0
 10
48.4404
 20
124.9446
 30
0.0
 10
48.4404
 20
124.9446
 30
0.0
 10
48.4404
 20
124.9446
 30
0.0
 10
42.6408
 20
132.8583
 30
0.0
 10
42.6408
 20
132.8583
 30
0.0
 10
42.6408
 20
132.8583
 30
0.0
 10
42.6408
 20
132.8583
 30
0.0
 10
38.3947
 20
132.8582
 30
0.0
 10
38.3947
 20
132.8582
 30
0.0
 10
38.3947
 20
132.8582
 30
0.0
 10
38.3947
 20
132.8582
 30
0.0
 10
38.76020000000001
 20
116.2777
 30
0.0
 10
38.76020000000001
 20
116.2777
 30
0.0
  0
SPLINE
  5
72
330
1F
100
AcDbEntity
  8
Capa 1
 62
     7
100
AcDbSpline
210
0.0
220
0.0
230
1.0
 70
    11
 71
     3
 72
    64
 73
    60
 74
     0
 42
0.0000000001
 43
0.0000000001
 40
0.0
 40
0.0
 40
0.0
 40
0.0
 40
0.0666666666666667
 40
0.0666666666666667
 40
0.0666666666666667
 40
0.0666666666666667
 40
0.1333333333333333
 40
0.1333333333333333
 40
0.1333333333333333
 40
0.1333333333333333
 40
0.2
 40
0.2
 40
0.2
 40
0.2
 40
0.2666666666666667
 40
0.2666666666666667
 40
0.2666666666666667
 40
0.2666666666666667
 40
0.3333333333333333
 40
0.3333333333333333
 40
0.3333333333333333
 40
0.3333333333333333
 40
0.4
 40
0.4
 40
0.4
 40
0.4
 40
0.4666666666666666
 40
0.4666666666666666
 40
0.4666666666666666
 40
0.4666666666666666
 40
0.5333333333333333
 40
0.5333333333333333
 40
0.5333333333333333
 40
0.5333333333333333
 40
0.6
 40
0.6
 40
0.6
 40
0.6
 40
0.6666666666666666
 40
0.6666666666666666
 40
0.6666666666666666
 40
0.6666666666666666
 40
0.7333333333333333
 40
0.7333333333333333
 40
0.7333333333333333
 40
0.7333333333333333
 40
0.7999999999999999
 40
0.7999999999999999
 40
0.7999999999999999
 40
0.7999999999999999
 40
0.8666666666666666
 40
0.8666666666666666
 40
0.8666666666666666
 40
0.8666666666666666
 40
0.9333333333333332
 40
0.9333333333333332
 40
0.9333333333333332
 40
0.9333333333333332
 40
1.0
 40
1.0
 40
1.0
 40
1.0
 10
-50.84520000000001
 20
116.2777
 30
0.0
 10
-50.84520000000001
 20
116.2777
 30
0.0
 10
-47.3174
 20
116.2777
 30
0.0
 10
-47.3174
 20
116.2777
 30
0.0
 10
-47.3174
 20
116.2777
 30
0.0
 10
-47.3174
 20
116.2777
 30
0.0
 10
-47.1667
 20
125.1923
 30
0.0
 10
-47.1667
 20
125.1923
 30
0.0
 10
-47.1667
 20
125.1923
 30
0.0
 10
-47.1667
 20
125.1923
 30
0.0
 10
-46.61190000000001
 20
124.0388
 30
0.0
 10
-46.61190000000001
 20
124.0388
 30
0.0
 10
-46.61190000000001
 20
124.0388
 30
0.0
 10
-46.61190000000001
 20
124.0388
 30
0.0
 10
-43.0841
 20
118.3944
 30
0.0
 10
-43.0841
 20
118.3944
 30
0.0
 10
-43.0841
 20
118.3944
 30
0.0
 10
-43.0841
 20
118.3944
 30
0.0
 10
-38.8508
 20
124.7444
 30
0.0
 10
-38.8508
 20
124.7444
 30
0.0
 10
-38.8508
 20
124.7444
 30
0.0
 10
-38.8508
 20
124.7444
 30
0.0
 10
-38.8508
 20
123.3333
 30
0.0
 10
-38.8508
 20
123.3333
 30
0.0
 10
-38.8508
 20
123.3333
 30
0.0
 10
-38.8508
 20
123.3333
 30
0.0
 10
-38.8508
 20
116.2777
 30
0.0
 10
-38.8508
 20
116.2777
 30
0.0
 10
-38.8508
 20
116.2777
 30
0.0
 10
-38.8508
 20
116.2777
 30
0.0
 10
-33.2063
 20
116.2777
 30
0.0
 10
-33.2063
 20
116.2777
 30
0.0
 10
-33.2063
 20
116.2777
 30
0.0
 10
-33.2063
 20
116.2777
 30
0.0
 10
-33.2063
 20
133.211
 30
0.0
 10
-33.2063
 20
133.211
 30
0.0
 10
-33.2063
 20
133.211
 30
0.0
 10
-33.2063
 20
133.211
 30
0.0
 10
-38.1446
 20
133.5947
 30
0.0
 10
-38.1446
 20
133.5947
 30
0.0
 10
-38.1446
 20
133.5947
 30
0.0
 10
-38.1446
 20
133.5947
 30
0.0
 10
-41.8691
 20
125.5401
 30
0.0
 10
-41.8691
 20
125.5401
 30
0.0
 10
-41.8691
 20
125.5401
 30
0.0
 10
-41.8691
 20
125.5401
 30
0.0
 10
-42.3786
 20
125.4499
 30
0.0
 10
-42.3786
 20
125.4499
 30
0.0
 10
-42.3786
 20
125.4499
 30
0.0
 10
-42.3786
 20
125.4499
 30
0.0
 10
-45.9955
 20
133.5227
 30
0.0
 10
-45.9955
 20
133.5227
 30
0.0
 10
-45.9955
 20
133.5227
 30
0.0
 10
-45.9955
 20
133.5227
 30
0.0
 10
-51.198
 20
133.5638
 30
0.0
 10
-51.198
 20
133.5638
 30
0.0
 10
-51.198
 20
133.5638
 30
0.0
 10
-51.198
 20
133.5638
 30
0.0
 10
-50.84520000000001
 20
116.2777
 30
0.0
 10
-50.84520000000001
 20
116.2777
 30
0.0
  0
SPLINE
  5
73
330
1F
100
AcDbEntity
  8
Capa 1
 62
     9
100
AcDbSpline
210
0.0
220
0.0
230
1.0
 70
    11
 71
     3
 72
    20
 73
    16
 74
     0
 42
0.0000000001
 43
0.0000000001
 40
0.0
 40
0.0
 40
0.0
 40
0.0
 40
0.25
 40
0.25
 40
0.25
 40
0.25
 40
0.5
 40
0.5
 40
0.5
 40
0.5
 40
0.75
 40
0.75
 40
0.75
 40
0.75
 40
1.0
 40
1.0
 40
1.0
 40
1.0
 10
-43.0841
 20
118.3944
 30
0.0
 10
-43.0841
 20
118.3944
 30
0.0
 10
-42.7506
 20
117.3287
 30
0.0
 10
-42.7506
 20
117.3287
 30
0.0
 10
-42.7506
 20
117.3287
 30
0.0
 10
-42.7506
 20
117.3287
 30
0.0
 10
-38.8508
 20
123.3333
 30
0.0
 10
-38.8508
 20
123.3333
 30
0.0
 10
-38.8508
 20
123.3333
 30
0.0
 10
-38.8508
 20
123.3333
 30
0.0
 10
-38.8508
 20
124.7444
 30
0.0
 10
-38.8508
 20
124.7444
 30
0.0
 10
-38.8508
 20
124.7444
 30
0.0
 10
-38.8508
 20
124.7444
 30
0.0
 10
-43.0841
 20
118.3944
 30
0.0
 10
-43.0841
 20
118.3944
 30
0.0
  0
SPLINE
  5
74
330
1F
100
AcDbEntity
  8
Capa 1
 62
     9
100
AcDbSpline
210
0.0
220
0.0
230
1.0
 70
    11
 71
     3
 72
    28
 73
    24
 74
     0
 42
0.0000000001
 43
0.0000000001
 40
0.0
 40
0.0
 40
0.0
 40
0.0
 40
0.1666666666666667
 40
0.1666666666666667
 40
0.1666666666666667
 40
0.1666666666666667
 40
0.3333333333333333
 40
0.3333333333333333
 40
0.3333333333333333
 40
0.3333333333333333
 40
0.5
 40
0.5
 40
0.5
 40
0.5
 40
0.6666666666666666
 40
0.6666666666666666
 40
0.6666666666666666
 40
0.6666666666666666
 40
0.8333333333333333
 40
0.8333333333333333
 40
0.8333333333333333
 40
0.8333333333333333
 40
1.0
 40
1.0
 40
1.0
 40
1.0
 10
-50.84520000000001
 20
116.2777
 30
0.0
 10
-50.84520000000001
 20
116.2777
 30
0.0
 10
-50.4924
 20
115.925
 30
0.0
 10
-50.4924
 20
115.925
 30
0.0
 10
-50.4924
 20
115.925
 30
0.0
 10
-50.4924
 20
115.925
 30
0.0
 10
-46.98710000000001
 20
115.9252
 30
0.0
 10
-46.98710000000001
 20
115.9252
 30
0.0
 10
-46.98710000000001
 20
115.9252
 30
0.0
 10
-46.98710000000001
 20
115.9252
 30
0.0
 10
-46.61190000000001
 20
124.0388
 30
0.0
 10
-46.61190000000001
 20
124.0388
 30
0.0
 10
-46.61190000000001
 20
124.0388
 30
0.0
 10
-46.61190000000001
 20
124.0388
 30
0.0
 10
-47.1667
 20
125.1923
 30
0.0
 10
-47.1667
 20
125.1923
 30
0.0
 10
-47.1667
 20
125.1923
 30
0.0
 10
-47.1667
 20
125.1923
 30
0.0
 10
-47.3174
 20
116.2777
 30
0.0
 10
-47.3174
 20
116.2777
 30
0.0
 10
-47.3174
 20
116.2777
 30
0.0
 10
-47.3174
 20
116.2777
 30
0.0
 10
-50.84520000000001
 20
116.2777
 30
0.0
 10
-50.84520000000001
 20
116.2777
 30
0.0
  0
SPLINE
  5
75
330
1F
100
AcDbEntity
  8
Capa 1
 62
     9
100
AcDbSpline
210
0.0
220
0.0
230
1.0
 70
    11
 71
     3
 72
    28
 73
    24
 74
     0
 42
0.0000000001
 43
0.0000000001
 40
0.0
 40
0.0
 40
0.0
 40
0.0
 40
0.1666666666666667
 40
0.1666666666666667
 40
0.1666666666666667
 40
0.1666666666666667
 40
0.3333333333333333
 40
0.3333333333333333
 40
0.3333333333333333
 40
0.3333333333333333
 40
0.5
 40
0.5
 40
0.5
 40
0.5
 40
0.6666666666666666
 40
0.6666666666666666
 40
0.6666666666666666
 40
0.6666666666666666
 40
0.8333333333333333
 40
0.8333333333333333
 40
0.8333333333333333
 40
0.8333333333333333
 40
1.0
 40
1.0
 40
1.0
 40
1.0
 10
38.76020000000001
 20
116.2777
 30
0.0
 10
38.76020000000001
 20
116.2777
 30
0.0
 10
39.113
 20
115.925
 30
0.0
 10
39.113
 20
115.925
 30
0.0
 10
39.113
 20
115.925
 30
0.0
 10
39.113
 20
115.925
 30
0.0
 10
42.6177
 20
115.9252
 30
0.0
 10
42.6177
 20
115.9252
 30
0.0
 10
42.6177
 20
115.9252
 30
0.0
 10
42.6177
 20
115.9252
 30
0.0
 10
42.9936
 20
123.6861
 30
0.0
 10
42.9936
 20
123.6861
 30
0.0
 10
42.9936
 20
123.6861
 30
0.0
 10
42.9936
 20
123.6861
 30
0.0
 10
42.3586
 20
124.4622
 30
0.0
 10
42.3586
 20
124.4622
 30
0.0
 10
42.3586
 20
124.4622
 30
0.0
 10
42.3586
 20
124.4622
 30
0.0
 10
42.288
 20
116.2777
 30
0.0
 10
42.288
 20
116.2777
 30
0.0
 10
42.288
 20
116.2777
 30
0.0
 10
42.288
 20
116.2777
 30
0.0
 10
38.76020000000001
 20
116.2777
 30
0.0
 10
38.76020000000001
 20
116.2777
 30
0.0
  0
SPLINE
  5
76
330
1F
100
AcDbEntity
  8
Capa 1
 62
     7
100
AcDbSpline
210
0.0
220
0.0
230
1.0
 70
    11
 71
     3
 72
    84
 73
    80
 74
     0
 42
0.0000000001
 43
0.0000000001
 40
0.0
 40
0.0
 40
0.0
 40
0.0
 40
0.05
 40
0.05
 40
0.05
 40
0.05
 40
0.1
 40
0.1
 40
0.1
 40
0.1
 40
0.15
 40
0.15
 40
0.15
 40
0.15
 40
0.2
 40
0.2
 40
0.2
 40
0.2
 40
0.25
 40
0.25
 40
0.25
 40
0.25
 40
0.3
 40
0.3
 40
0.3
 40
0.3
 40
0.35
 40
0.35
 40
0.35
 40
0.35
 40
0.4
 40
0.4
 40
0.4
 40
0.4
 40
0.45
 40
0.45
 40
0.45
 40
0.45
 40
0.4999999999999999
 40
0.4999999999999999
 40
0.4999999999999999
 40
0.4999999999999999
 40
0.5499999999999999
 40
0.5499999999999999
 40
0.5499999999999999
 40
0.5499999999999999
 40
0.6
 40
0.6
 40
0.6
 40
0.6
 40
0.65
 40
0.65
 40
0.65
 40
0.65
 40
0.7000000000000001
 40
0.7000000000000001
 40
0.7000000000000001
 40
0.7000000000000001
 40
0.7500000000000001
 40
0.7500000000000001
 40
0.7500000000000001
 40
0.7500000000000001
 40
0.8000000000000002
 40
0.8000000000000002
 40
0.8000000000000002
 40
0.8000000000000002
 40
0.8500000000000002
 40
0.8500000000000002
 40
0.8500000000000002
 40
0.8500000000000002
 40
0.9000000000000002
 40
0.9000000000000002
 40
0.9000000000000002
 40
0.9000000000000002
 40
0.9500000000000003
 40
0.9500000000000003
 40
0.9500000000000003
 40
0.9500000000000003
 40
1.0
 40
1.0
 40
1.0
 40
1.0
 10
-0.0453
 20
116.2777
 30
0.0
 10
-0.0453
 20
116.2777
 30
0.0
 10
11.2436
 20
116.2777
 30
0.0
 10
11.2436
 20
116.2777
 30
0.0
 10
11.2436
 20
116.2777
 30
0.0
 10
11.2436
 20
116.2777
 30
0.0
 10
11.2436
 20
119.4527
 30
0.0
 10
11.2436
 20
119.4527
 30
0.0
 10
11.2436
 20
119.4527
 30
0.0
 10
11.2436
 20
119.4527
 30
0.0
 10
11.2436
 20
120.1583
 30
0.0
 10
11.2436
 20
120.1583
 30
0.0
 10
11.2436
 20
120.1583
 30
0.0
 10
11.2436
 20
120.1583
 30
0.0
 10
5.599200000000001
 20
120.1583
 30
0.0
 10
5.599200000000001
 20
120.1583
 30
0.0
 10
5.599200000000001
 20
120.1583
 30
0.0
 10
5.599200000000001
 20
120.1583
 30
0.0
 10
5.2464
 20
120.1583
 30
0.0
 10
5.2464
 20
120.1583
 30
0.0
 10
5.2464
 20
120.1583
 30
0.0
 10
5.2464
 20
120.1583
 30
0.0
 10
4.855
 20
123.3317
 30
0.0
 10
4.855
 20
123.3317
 30
0.0
 10
4.855
 20
123.3317
 30
0.0
 10
4.855
 20
123.3317
 30
0.0
 10
6.3047
 20
122.9805
 30
0.0
 10
6.3047
 20
122.9805
 30
0.0
 10
6.3047
 20
122.9805
 30
0.0
 10
6.3047
 20
122.9805
 30
0.0
 10
6.657500000000001
 20
122.9805
 30
0.0
 10
6.657500000000001
 20
122.9805
 30
0.0
 10
6.657500000000001
 20
122.9805
 30
0.0
 10
6.657500000000001
 20
122.9805
 30
0.0
 10
7.0103
 20
122.6277
 30
0.0
 10
7.0103
 20
122.6277
 30
0.0
 10
7.0103
 20
122.6277
 30
0.0
 10
7.0103
 20
122.6277
 30
0.0
 10
9.509700000000001
 20
123.2374
 30
0.0
 10
9.509700000000001
 20
123.2374
 30
0.0
 10
9.509700000000001
 20
123.2374
 30
0.0
 10
9.509700000000001
 20
123.2374
 30
0.0
 10
9.479700000000001
 20
125.0972
 30
0.0
 10
9.479700000000001
 20
125.0972
 30
0.0
 10
9.479700000000001
 20
125.0972
 30
0.0
 10
8.7529
 20
125.5839
 30
0.0
 10
8.564
 20
126.1555
 30
0.0
 10
7.715800000000001
 20
126.1555
 30
0.0
 10
7.715800000000001
 20
126.1555
 30
0.0
 10
6.6395
 20
126.1555
 30
0.0
 10
6.2923
 20
125.8167
 30
0.0
 10
5.599200000000001
 20
125.4499
 30
0.0
 10
5.599200000000001
 20
125.4499
 30
0.0
 10
5.599200000000001
 20
125.4499
 30
0.0
 10
5.2464
 20
125.4499
 30
0.0
 10
5.2464
 20
125.4499
 30
0.0
 10
5.2464
 20
125.4499
 30
0.0
 10
5.2464
 20
125.4499
 30
0.0
 10
4.9524
 20
125.0384
 30
0.0
 10
4.9524
 20
125.0384
 30
0.0
 10
4.9524
 20
125.0384
 30
0.0
 10
4.9524
 20
125.0384
 30
0.0
 10
4.8936
 20
128.6249
 30
0.0
 10
4.8936
 20
128.6249
 30
0.0
 10
4.8936
 20
128.6249
 30
0.0
 10
4.8936
 20
128.6249
 30
0.0
 10
10.538
 20
128.6249
 30
0.0
 10
10.538
 20
128.6249
 30
0.0
 10
10.538
 20
128.6249
 30
0.0
 10
10.538
 20
128.6249
 30
0.0
 10
10.538
 20
131.7999
 30
0.0
 10
10.538
 20
131.7999
 30
0.0
 10
10.538
 20
131.7999
 30
0.0
 10
10.538
 20
131.7999
 30
0.0
 10
-0.0452
 20
132.1711
 30
0.0
 10
-0.0452
 20
132.1711
 30
0.0
 10
-0.0452
 20
132.1711
 30
0.0
 10
-0.0452
 20
132.1711
 30
0.0
 10
-0.0453
 20
116.2777
 30
0.0
 10
-0.0453
 20
116.2777
 30
0.0
  0
SPLINE
  5
77
330
1F
100
AcDbEntity
  8
Capa 1
 62
     9
100
AcDbSpline
210
0.0
220
0.0
230
1.0
 70
    11
 71
     3
 72
    28
 73
    24
 74
     0
 42
0.0000000001
 43
0.0000000001
 40
0.0
 40
0.0
 40
0.0
 40
0.0
 40
0.1666666666666667
 40
0.1666666666666667
 40
0.1666666666666667
 40
0.1666666666666667
 40
0.3333333333333333
 40
0.3333333333333333
 40
0.3333333333333333
 40
0.3333333333333333
 40
0.5
 40
0.5
 40
0.5
 40
0.5
 40
0.6666666666666666
 40
0.6666666666666666
 40
0.6666666666666666
 40
0.6666666666666666
 40
0.8333333333333333
 40
0.8333333333333333
 40
0.8333333333333333
 40
0.8333333333333333
 40
1.0
 40
1.0
 40
1.0
 40
1.0
 10
54.988
 20
116.2777
 30
0.0
 10
55.3931
 20
115.7248
 30
0.0
 10
55.0529
 20
115.5722
 30
0.0
 10
56.0463
 20
115.5722
 30
0.0
 10
56.0463
 20
115.5722
 30
0.0
 10
56.0463
 20
115.5722
 30
0.0
 10
61.338
 20
115.5722
 30
0.0
 10
61.338
 20
115.5722
 30
0.0
 10
61.338
 20
115.5722
 30
0.0
 10
61.338
 20
115.5722
 30
0.0
 10
61.338
 20
132.1527
 30
0.0
 10
61.338
 20
132.1527
 30
0.0
 10
61.338
 20
132.1527
 30
0.0
 10
61.338
 20
133.1605
 30
0.0
 10
61.227
 20
132.7979
 30
0.0
 10
60.6324
 20
133.211
 30
0.0
 10
60.6324
 20
133.211
 30
0.0
 10
60.6324
 20
133.211
 30
0.0
 10
60.6324
 20
116.2777
 30
0.0
 10
60.6324
 20
116.2777
 30
0.0
 10
60.6324
 20
116.2777
 30
0.0
 10
60.6324
 20
116.2777
 30
0.0
 10
54.988
 20
116.2777
 30
0.0
 10
54.988
 20
116.2777
 30
0.0
  0
SPLINE
  5
78
330
1F
100
AcDbEntity
  8
Capa 1
 62
     9
100
AcDbSpline
210
0.0
220
0.0
230
1.0
 70
    11
 71
     3
 72
    28
 73
    24
 74
     0
 42
0.0000000001
 43
0.0000000001
 40
0.0
 40
0.0
 40
0.0
 40
0.0
 40
0.1666666666666667
 40
0.1666666666666667
 40
0.1666666666666667
 40
0.1666666666666667
 40
0.3333333333333333
 40
0.3333333333333333
 40
0.3333333333333333
 40
0.3333333333333333
 40
0.5
 40
0.5
 40
0.5
 40
0.5
 40
0.6666666666666666
 40
0.6666666666666666
 40
0.6666666666666666
 40
0.6666666666666666
 40
0.8333333333333333
 40
0.8333333333333333
 40
0.8333333333333333
 40
0.8333333333333333
 40
1.0
 40
1.0
 40
1.0
 40
1.0
 10
-38.8508
 20
116.2777
 30
0.0
 10
-38.4456
 20
115.7248
 30
0.0
 10
-38.78590000000001
 20
115.5722
 30
0.0
 10
-37.7925
 20
115.5722
 30
0.0
 10
-37.7925
 20
115.5722
 30
0.0
 10
-37.7925
 20
115.5722
 30
0.0
 10
-32.5008
 20
115.5722
 30
0.0
 10
-32.5008
 20
115.5722
 30
0.0
 10
-32.5008
 20
115.5722
 30
0.0
 10
-32.5008
 20
115.5722
 30
0.0
 10
-32.5008
 20
132.1527
 30
0.0
 10
-32.5008
 20
132.1527
 30
0.0
 10
-32.5008
 20
132.1527
 30
0.0
 10
-32.5008
 20
133.1605
 30
0.0
 10
-32.6118
 20
132.7979
 30
0.0
 10
-33.2063
 20
133.211
 30
0.0
 10
-33.2063
 20
133.211
 30
0.0
 10
-33.2063
 20
133.211
 30
0.0
 10
-33.2063
 20
116.2777
 30
0.0
 10
-33.2063
 20
116.2777
 30
0.0
 10
-33.2063
 20
116.2777
 30
0.0
 10
-33.2063
 20
116.2777
 30
0.0
 10
-38.8508
 20
116.2777
 30
0.0
 10
-38.8508
 20
116.2777
 30
0.0
  0
SPLINE
  5
79
330
1F
100
AcDbEntity
  8
Capa 1
 62
     7
100
AcDbSpline
210
0.0
220
0.0
230
1.0
 70
    11
 71
     3
 72
    28
 73
    24
 74
     0
 42
0.0000000001
 43
0.0000000001
 40
0.0
 40
0.0
 40
0.0
 40
0.0
 40
0.1666666666666667
 40
0.1666666666666667
 40
0.1666666666666667
 40
0.1666666666666667
 40
0.3333333333333333
 40
0.3333333333333333
 40
0.3333333333333333
 40
0.3333333333333333
 40
0.5
 40
0.5
 40
0.5
 40
0.5
 40
0.6666666666666666
 40
0.6666666666666666
 40
0.6666666666666666
 40
0.6666666666666666
 40
0.8333333333333333
 40
0.8333333333333333
 40
0.8333333333333333
 40
0.8333333333333333
 40
1.0
 40
1.0
 40
1.0
 40
1.0
 10
-25.798
 20
127.9194
 30
0.0
 10
-25.798
 20
127.9194
 30
0.0
 10
-24.526
 20
122.949
 30
0.0
 10
-24.526
 20
122.949
 30
0.0
 10
-24.526
 20
122.949
 30
0.0
 10
-24.526
 20
122.949
 30
0.0
 10
-26.5036
 20
122.9805
 30
0.0
 10
-26.5036
 20
122.9805
 30
0.0
 10
-26.5036
 20
122.9805
 30
0.0
 10
-26.5036
 20
122.9805
 30
0.0
 10
-27.2091
 20
122.9805
 30
0.0
 10
-27.2091
 20
122.9805
 30
0.0
 10
-27.2091
 20
122.9805
 30
0.0
 10
-27.1738
 20
124.5667
 30
0.0
 10
-26.5036
 20
125.9263
 30
0.0
 10
-26.5036
 20
127.2138
 30
0.0
 10
-26.5036
 20
127.2138
 30
0.0
 10
-26.5036
 20
127.8948
 30
0.0
 10
-26.3926
 20
127.8418
 30
0.0
 10
-26.1508
 20
128.2722
 30
0.0
 10
-26.1508
 20
128.2722
 30
0.0
 10
-26.1508
 20
128.2722
 30
0.0
 10
-25.798
 20
127.9194
 30
0.0
 10
-25.798
 20
127.9194
 30
0.0
  0
SPLINE
  5
7A
330
1F
100
AcDbEntity
  8
Capa 1
 62
     7
100
AcDbSpline
210
0.0
220
0.0
230
1.0
 70
    11
 71
     3
 72
    80
 73
    76
 74
     0
 42
0.0000000001
 43
0.0000000001
 40
0.0
 40
0.0
 40
0.0
 40
0.0
 40
0.0526315789473684
 40
0.0526315789473684
 40
0.0526315789473684
 40
0.0526315789473684
 40
0.1052631578947368
 40
0.1052631578947368
 40
0.1052631578947368
 40
0.1052631578947368
 40
0.1578947368421053
 40
0.1578947368421053
 40
0.1578947368421053
 40
0.1578947368421053
 40
0.2105263157894737
 40
0.2105263157894737
 40
0.2105263157894737
 40
0.2105263157894737
 40
0.2631578947368421
 40
0.2631578947368421
 40
0.2631578947368421
 40
0.2631578947368421
 40
0.3157894736842105
 40
0.3157894736842105
 40
0.3157894736842105
 40
0.3157894736842105
 40
0.3684210526315789
 40
0.3684210526315789
 40
0.3684210526315789
 40
0.3684210526315789
 40
0.4210526315789474
 40
0.4210526315789474
 40
0.4210526315789474
 40
0.4210526315789474
 40
0.4736842105263158
 40
0.4736842105263158
 40
0.4736842105263158
 40
0.4736842105263158
 40
0.5263157894736842
 40
0.5263157894736842
 40
0.5263157894736842
 40
0.5263157894736842
 40
0.5789473684210527
 40
0.5789473684210527
 40
0.5789473684210527
 40
0.5789473684210527
 40
0.631578947368421
 40
0.631578947368421
 40
0.631578947368421
 40
0.631578947368421
 40
0.6842105263157894
 40
0.6842105263157894
 40
0.6842105263157894
 40
0.6842105263157894
 40
0.7368421052631577
 40
0.7368421052631577
 40
0.7368421052631577
 40
0.7368421052631577
 40
0.7894736842105261
 40
0.7894736842105261
 40
0.7894736842105261
 40
0.7894736842105261
 40
0.8421052631578945
 40
0.8421052631578945
 40
0.8421052631578945
 40
0.8421052631578945
 40
0.8947368421052628
 40
0.8947368421052628
 40
0.8947368421052628
 40
0.8947368421052628
 40
0.9473684210526312
 40
0.9473684210526312
 40
0.9473684210526312
 40
0.9473684210526312
 40
1.0
 40
1.0
 40
1.0
 40
1.0
 10
-32.148
 20
116.2777
 30
0.0
 10
-32.148
 20
116.2777
 30
0.0
 10
-28.2675
 20
116.2777
 30
0.0
 10
-28.2675
 20
116.2777
 30
0.0
 10
-28.2675
 20
116.2777
 30
0.0
 10
-28.2675
 20
116.2777
 30
0.0
 10
-28.2667
 20
119.8377
 30
0.0
 10
-28.2667
 20
119.8377
 30
0.0
 10
-28.2667
 20
119.8377
 30
0.0
 10
-28.2667
 20
119.8377
 30
0.0
 10
-23.6814
 20
119.4527
 30
0.0
 10
-23.6814
 20
119.4527
 30
0.0
 10
-23.6814
 20
119.4527
 30
0.0
 10
-23.6814
 20
119.4527
 30
0.0
 10
-23.6814
 20
119.1
 30
0.0
 10
-23.6814
 20
119.1
 30
0.0
 10
-23.6814
 20
119.1
 30
0.0
 10
-23.6814
 20
119.1
 30
0.0
 10
-22.623
 20
116.2777
 30
0.0
 10
-22.623
 20
116.2777
 30
0.0
 10
-22.623
 20
116.2777
 30
0.0
 10
-22.623
 20
116.2777
 30
0.0
 10
-16.6258
 20
116.6305
 30
0.0
 10
-16.6258
 20
116.6305
 30
0.0
 10
-16.6258
 20
116.6305
 30
0.0
 10
-16.6258
 20
116.6305
 30
0.0
 10
-16.9786
 20
116.9833
 30
0.0
 10
-16.9786
 20
116.9833
 30
0.0
 10
-16.9786
 20
116.9833
 30
0.0
 10
-16.9786
 20
116.9833
 30
0.0
 10
-18.7425
 20
122.9805
 30
0.0
 10
-18.7425
 20
122.9805
 30
0.0
 10
-18.7425
 20
122.9805
 30
0.0
 10
-18.7425
 20
122.9805
 30
0.0
 10
-19.0953
 20
123.6861
 30
0.0
 10
-19.0953
 20
123.6861
 30
0.0
 10
-19.0953
 20
123.6861
 30
0.0
 10
-19.0953
 20
123.6861
 30
0.0
 10
-19.0953
 20
124.0388
 30
0.0
 10
-19.0953
 20
124.0388
 30
0.0
 10
-19.0953
 20
124.0388
 30
0.0
 10
-19.0953
 20
124.0388
 30
0.0
 10
-19.448
 20
124.7444
 30
0.0
 10
-19.448
 20
124.7444
 30
0.0
 10
-19.448
 20
124.7444
 30
0.0
 10
-19.448
 20
124.7444
 30
0.0
 10
-19.448
 20
125.0972
 30
0.0
 10
-19.448
 20
125.0972
 30
0.0
 10
-19.448
 20
125.0972
 30
0.0
 10
-19.448
 20
125.0972
 30
0.0
 10
-19.8008
 20
125.8027
 30
0.0
 10
-19.8008
 20
125.8027
 30
0.0
 10
-19.8008
 20
125.8027
 30
0.0
 10
-19.8008
 20
125.8027
 30
0.0
 10
-19.8008
 20
126.1555
 30
0.0
 10
-19.8008
 20
126.1555
 30
0.0
 10
-19.8008
 20
126.1555
 30
0.0
 10
-19.8008
 20
126.1555
 30
0.0
 10
-20.1536
 20
126.8611
 30
0.0
 10
-20.1536
 20
126.8611
 30
0.0
 10
-20.1536
 20
126.8611
 30
0.0
 10
-20.1536
 20
126.8611
 30
0.0
 10
-21.5647
 20
131.7999
 30
0.0
 10
-21.5647
 20
131.7999
 30
0.0
 10
-21.5647
 20
131.7999
 30
0.0
 10
-21.5647
 20
131.7999
 30
0.0
 10
-21.9674
 20
132.8487
 30
0.0
 10
-21.9674
 20
132.8487
 30
0.0
 10
-21.9674
 20
132.8487
 30
0.0
 10
-21.9674
 20
132.8487
 30
0.0
 10
-28.2675
 20
132.8583
 30
0.0
 10
-28.2675
 20
132.8583
 30
0.0
 10
-28.2675
 20
132.8583
 30
0.0
 10
-28.3585
 20
128.77
 30
0.0
 10
-32.148
 20
122.929
 30
0.0
 10
-32.148
 20
116.2777
 30
0.0
  0
SPLINE
  5
7B
330
1F
100
AcDbEntity
  8
Capa 1
 62
     7
100
AcDbSpline
210
0.0
220
0.0
230
1.0
 70
    11
 71
     3
 72
    20
 73
    16
 74
     0
 42
0.0000000001
 43
0.0000000001
 40
0.0
 40
0.0
 40
0.0
 40
0.0
 40
0.25
 40
0.25
 40
0.25
 40
0.25
 40
0.5
 40
0.5
 40
0.5
 40
0.5
 40
0.75
 40
0.75
 40
0.75
 40
0.75
 40
1.0
 40
1.0
 40
1.0
 40
1.0
 10
54.988
 20
116.2777
 30
0.0
 10
54.988
 20
116.2777
 30
0.0
 10
60.6324
 20
116.2777
 30
0.0
 10
60.6324
 20
116.2777
 30
0.0
 10
60.6324
 20
116.2777
 30
0.0
 10
60.6324
 20
116.2777
 30
0.0
 10
60.6324
 20
133.211
 30
0.0
 10
60.6324
 20
133.211
 30
0.0
 10
60.6324
 20
133.211
 30
0.0
 10
60.6324
 20
133.211
 30
0.0
 10
54.6356
 20
133.5913
 30
0.0
 10
54.6356
 20
133.5913
 30
0.0
 10
54.6356
 20
133.5913
 30
0.0
 10
54.6356
 20
133.5913
 30
0.0
 10
54.988
 20
116.2777
 30
0.0
 10
54.988
 20
116.2777
 30
0.0
  0
SPLINE
  5
7C
330
1F
100
AcDbEntity
  8
Capa 1
 62
     9
100
AcDbSpline
210
0.0
220
0.0
230
1.0
 70
    11
 71
     3
 72
    40
 73
    36
 74
     0
 42
0.0000000001
 43
0.0000000001
 40
0.0
 40
0.0
 40
0.0
 40
0.0
 40
0.1111111111111111
 40
0.1111111111111111
 40
0.1111111111111111
 40
0.1111111111111111
 40
0.2222222222222222
 40
0.2222222222222222
 40
0.2222222222222222
 40
0.2222222222222222
 40
0.3333333333333333
 40
0.3333333333333333
 40
0.3333333333333333
 40
0.3333333333333333
 40
0.4444444444444444
 40
0.4444444444444444
 40
0.4444444444444444
 40
0.4444444444444444
 40
0.5555555555555556
 40
0.5555555555555556
 40
0.5555555555555556
 40
0.5555555555555556
 40
0.6666666666666667
 40
0.6666666666666667
 40
0.6666666666666667
 40
0.6666666666666667
 40
0.7777777777777779
 40
0.7777777777777779
 40
0.7777777777777779
 40
0.7777777777777779
 40
0.8888888888888891
 40
0.8888888888888891
 40
0.8888888888888891
 40
0.8888888888888891
 40
1.0
 40
1.0
 40
1.0
 40
1.0
 10
-32.148
 20
116.2777
 30
0.0
 10
-31.7429
 20
115.7248
 30
0.0
 10
-32.0831
 20
115.5722
 30
0.0
 10
-31.0897
 20
115.5722
 30
0.0
 10
-31.0897
 20
115.5722
 30
0.0
 10
-31.0897
 20
115.5722
 30
0.0
 10
-27.5619
 20
115.5722
 30
0.0
 10
-27.5619
 20
115.5722
 30
0.0
 10
-27.5619
 20
115.5722
 30
0.0
 10
-27.5619
 20
115.5722
 30
0.0
 10
-27.5619
 20
117.3361
 30
0.0
 10
-27.5619
 20
117.3361
 30
0.0
 10
-27.5619
 20
117.3361
 30
0.0
 10
-27.5619
 20
118.2889
 30
0.0
 10
-27.3935
 20
118.3088
 30
0.0
 10
-27.2091
 20
119.1
 30
0.0
 10
-27.2091
 20
119.1
 30
0.0
 10
-27.2091
 20
119.1
 30
0.0
 10
-23.6814
 20
119.1
 30
0.0
 10
-23.6814
 20
119.1
 30
0.0
 10
-23.6814
 20
119.1
 30
0.0
 10
-23.6814
 20
119.1
 30
0.0
 10
-23.6814
 20
119.4527
 30
0.0
 10
-23.6814
 20
119.4527
 30
0.0
 10
-23.6814
 20
119.4527
 30
0.0
 10
-23.6814
 20
119.4527
 30
0.0
 10
-28.2667
 20
119.8377
 30
0.0
 10
-28.2667
 20
119.8377
 30
0.0
 10
-28.2667
 20
119.8377
 30
0.0
 10
-28.2667
 20
119.8377
 30
0.0
 10
-28.2675
 20
116.2777
 30
0.0
 10
-28.2675
 20
116.2777
 30
0.0
 10
-28.2675
 20
116.2777
 30
0.0
 10
-28.2675
 20
116.2777
 30
0.0
 10
-32.148
 20
116.2777
 30
0.0
 10
-32.148
 20
116.2777
 30
0.0
  0
SPLINE
  5
7D
330
1F
100
AcDbEntity
  8
Capa 1
 62
     9
100
AcDbSpline
210
0.0
220
0.0
230
1.0
 70
    11
 71
     3
 72
    60
 73
    56
 74
     0
 42
0.0000000001
 43
0.0000000001
 40
0.0
 40
0.0
 40
0.0
 40
0.0
 40
0.0714285714285714
 40
0.0714285714285714
 40
0.0714285714285714
 40
0.0714285714285714
 40
0.1428571428571429
 40
0.1428571428571429
 40
0.1428571428571429
 40
0.1428571428571429
 40
0.2142857142857143
 40
0.2142857142857143
 40
0.2142857142857143
 40
0.2142857142857143
 40
0.2857142857142857
 40
0.2857142857142857
 40
0.2857142857142857
 40
0.2857142857142857
 40
0.3571428571428571
 40
0.3571428571428571
 40
0.3571428571428571
 40
0.3571428571428571
 40
0.4285714285714285
 40
0.4285714285714285
 40
0.4285714285714285
 40
0.4285714285714285
 40
0.4999999999999999
 40
0.4999999999999999
 40
0.4999999999999999
 40
0.4999999999999999
 40
0.5714285714285713
 40
0.5714285714285713
 40
0.5714285714285713
 40
0.5714285714285713
 40
0.6428571428571427
 40
0.6428571428571427
 40
0.6428571428571427
 40
0.6428571428571427
 40
0.7142857142857141
 40
0.7142857142857141
 40
0.7142857142857141
 40
0.7142857142857141
 40
0.7857142857142855
 40
0.7857142857142855
 40
0.7857142857142855
 40
0.7857142857142855
 40
0.8571428571428569
 40
0.8571428571428569
 40
0.8571428571428569
 40
0.8571428571428569
 40
0.9285714285714283
 40
0.9285714285714283
 40
0.9285714285714283
 40
0.9285714285714283
 40
1.0
 40
1.0
 40
1.0
 40
1.0
 10
-20.1536
 20
126.8611
 30
0.0
 10
-20.1536
 20
126.8611
 30
0.0
 10
-19.8008
 20
126.1555
 30
0.0
 10
-19.8008
 20
126.1555
 30
0.0
 10
-19.8008
 20
126.1555
 30
0.0
 10
-19.8008
 20
126.1555
 30
0.0
 10
-19.8008
 20
125.8027
 30
0.0
 10
-19.8008
 20
125.8027
 30
0.0
 10
-19.8008
 20
125.8027
 30
0.0
 10
-19.8008
 20
125.8027
 30
0.0
 10
-19.448
 20
125.0972
 30
0.0
 10
-19.448
 20
125.0972
 30
0.0
 10
-19.448
 20
125.0972
 30
0.0
 10
-19.448
 20
125.0972
 30
0.0
 10
-19.448
 20
124.7444
 30
0.0
 10
-19.448
 20
124.7444
 30
0.0
 10
-19.448
 20
124.7444
 30
0.0
 10
-19.448
 20
124.7444
 30
0.0
 10
-19.0953
 20
124.0388
 30
0.0
 10
-19.0953
 20
124.0388
 30
0.0
 10
-19.0953
 20
124.0388
 30
0.0
 10
-19.0953
 20
124.0388
 30
0.0
 10
-19.0953
 20
123.6861
 30
0.0
 10
-19.0953
 20
123.6861
 30
0.0
 10
-19.0953
 20
123.6861
 30
0.0
 10
-19.0953
 20
123.6861
 30
0.0
 10
-18.7425
 20
122.9805
 30
0.0
 10
-18.7425
 20
122.9805
 30
0.0
 10
-18.7425
 20
122.9805
 30
0.0
 10
-18.7425
 20
122.9805
 30
0.0
 10
-16.9786
 20
116.9833
 30
0.0
 10
-16.9786
 20
116.9833
 30
0.0
 10
-16.9786
 20
116.9833
 30
0.0
 10
-16.9786
 20
116.9833
 30
0.0
 10
-16.6258
 20
116.6305
 30
0.0
 10
-16.6258
 20
116.6305
 30
0.0
 10
-16.6258
 20
116.6305
 30
0.0
 10
-16.6258
 20
116.6305
 30
0.0
 10
-22.623
 20
116.2777
 30
0.0
 10
-22.623
 20
116.2777
 30
0.0
 10
-22.623
 20
116.2777
 30
0.0
 10
-22.623
 20
116.2777
 30
0.0
 10
-22.2401
 20
115.5908
 30
0.0
 10
-22.2401
 20
115.5908
 30
0.0
 10
-22.2401
 20
115.5908
 30
0.0
 10
-22.2401
 20
115.5908
 30
0.0
 10
-15.9203
 20
115.5722
 30
0.0
 10
-15.9203
 20
115.5722
 30
0.0
 10
-15.9203
 20
115.5722
 30
0.0
 10
-15.9203
 20
115.5722
 30
0.0
 10
-21.5647
 20
131.7999
 30
0.0
 10
-21.5647
 20
131.7999
 30
0.0
 10
-21.5647
 20
131.7999
 30
0.0
 10
-21.5647
 20
131.7999
 30
0.0
 10
-20.1536
 20
126.8611
 30
0.0
 10
-20.1536
 20
126.8611
 30
0.0
  0
SPLINE
  5
7E
330
1F
100
AcDbEntity
  8
Capa 1
 62
     9
100
AcDbSpline
210
0.0
220
0.0
230
1.0
 70
    11
 71
     3
 72
    28
 73
    24
 74
     0
 42
0.0000000001
 43
0.0000000001
 40
0.0
 40
0.0
 40
0.0
 40
0.0
 40
0.1666666666666667
 40
0.1666666666666667
 40
0.1666666666666667
 40
0.1666666666666667
 40
0.3333333333333333
 40
0.3333333333333333
 40
0.3333333333333333
 40
0.3333333333333333
 40
0.5
 40
0.5
 40
0.5
 40
0.5
 40
0.6666666666666666
 40
0.6666666666666666
 40
0.6666666666666666
 40
0.6666666666666666
 40
0.8333333333333333
 40
0.8333333333333333
 40
0.8333333333333333
 40
0.8333333333333333
 40
1.0
 40
1.0
 40
1.0
 40
1.0
 10
-15.5675
 20
116.2777
 30
0.0
 10
-15.1623
 20
115.7248
 30
0.0
 10
-15.5026
 20
115.5722
 30
0.0
 10
-14.5091
 20
115.5722
 30
0.0
 10
-14.5091
 20
115.5722
 30
0.0
 10
-14.5091
 20
115.5722
 30
0.0
 10
-9.923
 20
115.5722
 30
0.0
 10
-9.923
 20
115.5722
 30
0.0
 10
-9.923
 20
115.5722
 30
0.0
 10
-9.923
 20
115.5722
 30
0.0
 10
-9.923
 20
121.5694
 30
0.0
 10
-9.923
 20
121.5694
 30
0.0
 10
-9.923
 20
121.5694
 30
0.0
 10
-9.923
 20
121.5694
 30
0.0
 10
-10.6286
 20
122.6277
 30
0.0
 10
-10.6286
 20
122.6277
 30
0.0
 10
-10.6286
 20
122.6277
 30
0.0
 10
-10.6286
 20
122.6277
 30
0.0
 10
-10.6286
 20
116.2777
 30
0.0
 10
-10.6286
 20
116.2777
 30
0.0
 10
-10.6286
 20
116.2777
 30
0.0
 10
-10.6286
 20
116.2777
 30
0.0
 10
-15.5675
 20
116.2777
 30
0.0
 10
-15.5675
 20
116.2777
 30
0.0
  0
SPLINE
  5
7F
330
1F
100
AcDbEntity
  8
Capa 1
 62
     7
100
AcDbSpline
210
0.0
220
0.0
230
1.0
 70
    11
 71
     3
 72
    76
 73
    72
 74
     0
 42
0.0000000001
 43
0.0000000001
 40
0.0
 40
0.0
 40
0.0
 40
0.0
 40
0.0555555555555556
 40
0.0555555555555556
 40
0.0555555555555556
 40
0.0555555555555556
 40
0.1111111111111111
 40
0.1111111111111111
 40
0.1111111111111111
 40
0.1111111111111111
 40
0.1666666666666667
 40
0.1666666666666667
 40
0.1666666666666667
 40
0.1666666666666667
 40
0.2222222222222222
 40
0.2222222222222222
 40
0.2222222222222222
 40
0.2222222222222222
 40
0.2777777777777778
 40
0.2777777777777778
 40
0.2777777777777778
 40
0.2777777777777778
 40
0.3333333333333334
 40
0.3333333333333334
 40
0.3333333333333334
 40
0.3333333333333334
 40
0.388888888888889
 40
0.388888888888889
 40
0.388888888888889
 40
0.388888888888889
 40
0.4444444444444445
 40
0.4444444444444445
 40
0.4444444444444445
 40
0.4444444444444445
 40
0.5000000000000001
 40
0.5000000000000001
 40
0.5000000000000001
 40
0.5000000000000001
 40
0.5555555555555557
 40
0.5555555555555557
 40
0.5555555555555557
 40
0.5555555555555557
 40
0.6111111111111113
 40
0.6111111111111113
 40
0.6111111111111113
 40
0.6111111111111113
 40
0.6666666666666669
 40
0.6666666666666669
 40
0.6666666666666669
 40
0.6666666666666669
 40
0.7222222222222224
 40
0.7222222222222224
 40
0.7222222222222224
 40
0.7222222222222224
 40
0.777777777777778
 40
0.777777777777778
 40
0.777777777777778
 40
0.777777777777778
 40
0.8333333333333336
 40
0.8333333333333336
 40
0.8333333333333336
 40
0.8333333333333336
 40
0.8888888888888892
 40
0.8888888888888892
 40
0.8888888888888892
 40
0.8888888888888892
 40
0.9444444444444448
 40
0.9444444444444448
 40
0.9444444444444448
 40
0.9444444444444448
 40
1.0
 40
1.0
 40
1.0
 40
1.0
 10
-15.5675
 20
116.2777
 30
0.0
 10
-15.5675
 20
116.2777
 30
0.0
 10
-10.6286
 20
116.2777
 30
0.0
 10
-10.6286
 20
116.2777
 30
0.0
 10
-10.6286
 20
116.2777
 30
0.0
 10
-10.6286
 20
116.2777
 30
0.0
 10
-10.6286
 20
122.6277
 30
0.0
 10
-10.6286
 20
122.6277
 30
0.0
 10
-10.6286
 20
122.6277
 30
0.0
 10
-10.6286
 20
122.6277
 30
0.0
 10
-9.923
 20
121.5694
 30
0.0
 10
-9.923
 20
121.5694
 30
0.0
 10
-9.923
 20
121.5694
 30
0.0
 10
-9.923
 20
121.5694
 30
0.0
 10
-5.6897
 20
115.925
 30
0.0
 10
-5.6897
 20
115.925
 30
0.0
 10
-5.6897
 20
115.925
 30
0.0
 10
-5.6897
 20
115.925
 30
0.0
 10
-2.5147
 20
116.2777
 30
0.0
 10
-2.5147
 20
116.2777
 30
0.0
 10
-2.5147
 20
116.2777
 30
0.0
 10
-2.5147
 20
116.2777
 30
0.0
 10
-0.4014
 20
116.675
 30
0.0
 10
-0.4014
 20
116.675
 30
0.0
 10
-0.4014
 20
116.675
 30
0.0
 10
-0.4014
 20
116.675
 30
0.0
 10
-5.6897
 20
124.0388
 30
0.0
 10
-5.6897
 20
124.0388
 30
0.0
 10
-5.6897
 20
124.0388
 30
0.0
 10
-5.6897
 20
124.0388
 30
0.0
 10
-6.0425
 20
124.3916
 30
0.0
 10
-6.0425
 20
124.3916
 30
0.0
 10
-6.0425
 20
124.3916
 30
0.0
 10
-6.0425
 20
124.3916
 30
0.0
 10
-1.8092
 20
131.0944
 30
0.0
 10
-1.8092
 20
131.0944
 30
0.0
 10
-1.8092
 20
131.0944
 30
0.0
 10
-1.8092
 20
131.0944
 30
0.0
 10
-1.4564
 20
131.4472
 30
0.0
 10
-1.4564
 20
131.4472
 30
0.0
 10
-1.4564
 20
131.4472
 30
0.0
 10
-1.2044
 20
132.0571
 30
0.0
 10
-0.9601000000000001
 20
132.5055
 30
0.0
 10
-2.1619
 20
132.5055
 30
0.0
 10
-2.1619
 20
132.5055
 30
0.0
 10
-2.1619
 20
132.5055
 30
0.0
 10
-5.6897
 20
132.5055
 30
0.0
 10
-5.6897
 20
132.5055
 30
0.0
 10
-5.6897
 20
132.5055
 30
0.0
 10
-5.6897
 20
132.5055
 30
0.0
 10
-9.923
 20
125.4499
 30
0.0
 10
-9.923
 20
125.4499
 30
0.0
 10
-9.923
 20
125.4499
 30
0.0
 10
-9.923
 20
125.4499
 30
0.0
 10
-10.6286
 20
125.4499
 30
0.0
 10
-10.6286
 20
125.4499
 30
0.0
 10
-10.6286
 20
125.4499
 30
0.0
 10
-10.6286
 20
125.4499
 30
0.0
 10
-10.6286
 20
129.3305
 30
0.0
 10
-10.6286
 20
129.3305
 30
0.0
 10
-10.6286
 20
129.3305
 30
0.0
 10
-10.6286
 20
129.3305
 30
0.0
 10
-10.446
 20
132.519
 30
0.0
 10
-10.446
 20
132.519
 30
0.0
 10
-10.446
 20
132.519
 30
0.0
 10
-10.446
 20
132.519
 30
0.0
 10
-15.9203
 20
132.5055
 30
0.0
 10
-15.9203
 20
132.5055
 30
0.0
 10
-15.9203
 20
132.5055
 30
0.0
 10
-15.9203
 20
132.5055
 30
0.0
 10
-15.5675
 20
116.2777
 30
0.0
 10
-15.5675
 20
116.2777
 30
0.0
  0
SPLINE
  5
80
330
1F
100
AcDbEntity
  8
Capa 1
 62
     9
100
AcDbSpline
210
0.0
220
0.0
230
1.0
 70
    11
 71
     3
 72
    20
 73
    16
 74
     0
 42
0.0000000001
 43
0.0000000001
 40
0.0
 40
0.0
 40
0.0
 40
0.0
 40
0.25
 40
0.25
 40
0.25
 40
0.25
 40
0.5
 40
0.5
 40
0.5
 40
0.5
 40
0.75
 40
0.75
 40
0.75
 40
0.75
 40
1.0
 40
1.0
 40
1.0
 40
1.0
 10
-50.4924
 20
115.925
 30
0.0
 10
-50.4924
 20
115.925
 30
0.0
 10
-46.6129
 20
115.537
 30
0.0
 10
-46.6129
 20
115.537
 30
0.0
 10
-46.6129
 20
115.537
 30
0.0
 10
-46.6129
 20
115.537
 30
0.0
 10
-46.61190000000001
 20
124.0388
 30
0.0
 10
-46.61190000000001
 20
124.0388
 30
0.0
 10
-46.61190000000001
 20
124.0388
 30
0.0
 10
-46.61190000000001
 20
124.0388
 30
0.0
 10
-46.98710000000001
 20
115.9252
 30
0.0
 10
-46.98710000000001
 20
115.9252
 30
0.0
 10
-46.98710000000001
 20
115.9252
 30
0.0
 10
-46.98710000000001
 20
115.9252
 30
0.0
 10
-50.4924
 20
115.925
 30
0.0
 10
-50.4924
 20
115.925
 30
0.0
  0
SPLINE
  5
81
330
1F
100
AcDbEntity
  8
Capa 1
 62
     9
100
AcDbSpline
210
0.0
220
0.0
230
1.0
 70
    11
 71
     3
 72
    40
 73
    36
 74
     0
 42
0.0000000001
 43
0.0000000001
 40
0.0
 40
0.0
 40
0.0
 40
0.0
 40
0.1111111111111111
 40
0.1111111111111111
 40
0.1111111111111111
 40
0.1111111111111111
 40
0.2222222222222222
 40
0.2222222222222222
 40
0.2222222222222222
 40
0.2222222222222222
 40
0.3333333333333333
 40
0.3333333333333333
 40
0.3333333333333333
 40
0.3333333333333333
 40
0.4444444444444444
 40
0.4444444444444444
 40
0.4444444444444444
 40
0.4444444444444444
 40
0.5555555555555556
 40
0.5555555555555556
 40
0.5555555555555556
 40
0.5555555555555556
 40
0.6666666666666667
 40
0.6666666666666667
 40
0.6666666666666667
 40
0.6666666666666667
 40
0.7777777777777779
 40
0.7777777777777779
 40
0.7777777777777779
 40
0.7777777777777779
 40
0.8888888888888891
 40
0.8888888888888891
 40
0.8888888888888891
 40
0.8888888888888891
 40
1.0
 40
1.0
 40
1.0
 40
1.0
 10
-0.0453
 20
116.2777
 30
0.0
 10
-0.0453
 20
116.2777
 30
0.0
 10
-2.5147
 20
116.2777
 30
0.0
 10
-2.5147
 20
116.2777
 30
0.0
 10
-2.5147
 20
116.2777
 30
0.0
 10
-2.5147
 20
116.2777
 30
0.0
 10
-5.6897
 20
115.925
 30
0.0
 10
-5.6897
 20
115.925
 30
0.0
 10
-5.6897
 20
115.925
 30
0.0
 10
-5.6897
 20
115.925
 30
0.0
 10
-5.3068
 20
115.238
 30
0.0
 10
-5.3068
 20
115.238
 30
0.0
 10
-5.3068
 20
115.238
 30
0.0
 10
-5.3068
 20
115.238
 30
0.0
 10
2.4067
 20
115.8173
 30
0.0
 10
2.4067
 20
115.8173
 30
0.0
 10
2.4067
 20
115.8173
 30
0.0
 10
2.4067
 20
115.8173
 30
0.0
 10
11.9492
 20
115.5722
 30
0.0
 10
11.9492
 20
115.5722
 30
0.0
 10
11.9492
 20
115.5722
 30
0.0
 10
11.9492
 20
115.5722
 30
0.0
 10
11.9492
 20
119.4527
 30
0.0
 10
11.9492
 20
119.4527
 30
0.0
 10
11.9492
 20
119.4527
 30
0.0
 10
11.9492
 20
119.4527
 30
0.0
 10
11.2436
 20
119.4527
 30
0.0
 10
11.2436
 20
119.4527
 30
0.0
 10
11.2436
 20
119.4527
 30
0.0
 10
11.2436
 20
119.4527
 30
0.0
 10
11.2436
 20
116.2777
 30
0.0
 10
11.2436
 20
116.2777
 30
0.0
 10
11.2436
 20
116.2777
 30
0.0
 10
11.2436
 20
116.2777
 30
0.0
 10
-0.0453
 20
116.2777
 30
0.0
 10
-0.0453
 20
116.2777
 30
0.0
  0
SPLINE
  5
82
330
1F
100
AcDbEntity
  8
Capa 1
 62
     9
100
AcDbSpline
210
0.0
220
0.0
230
1.0
 70
    11
 71
     3
 72
    36
 73
    32
 74
     0
 42
0.0000000001
 43
0.0000000001
 40
0.0
 40
0.0
 40
0.0
 40
0.0
 40
0.125
 40
0.125
 40
0.125
 40
0.125
 40
0.25
 40
0.25
 40
0.25
 40
0.25
 40
0.375
 40
0.375
 40
0.375
 40
0.375
 40
0.5
 40
0.5
 40
0.5
 40
0.5
 40
0.625
 40
0.625
 40
0.625
 40
0.625
 40
0.75
 40
0.75
 40
0.75
 40
0.75
 40
0.875
 40
0.875
 40
0.875
 40
0.875
 40
1.0
 40
1.0
 40
1.0
 40
1.0
 10
12.6547
 20
116.2777
 30
0.0
 10
13.0598
 20
115.7248
 30
0.0
 10
12.7196
 20
115.5722
 30
0.0
 10
13.713
 20
115.5722
 30
0.0
 10
13.713
 20
115.5722
 30
0.0
 10
13.713
 20
115.5722
 30
0.0
 10
18.2992
 20
115.5722
 30
0.0
 10
18.2992
 20
115.5722
 30
0.0
 10
18.2992
 20
115.5722
 30
0.0
 10
18.2992
 20
115.5722
 30
0.0
 10
18.2992
 20
120.8638
 30
0.0
 10
18.2992
 20
120.8638
 30
0.0
 10
18.2992
 20
120.8638
 30
0.0
 10
18.2992
 20
120.8638
 30
0.0
 10
19.7103
 20
120.8638
 30
0.0
 10
19.7103
 20
120.8638
 30
0.0
 10
19.7103
 20
120.8638
 30
0.0
 10
19.2971
 20
121.4584
 30
0.0
 10
19.6597
 20
121.5694
 30
0.0
 10
18.6519
 20
121.5694
 30
0.0
 10
18.6519
 20
121.5694
 30
0.0
 10
18.6519
 20
121.5694
 30
0.0
 10
17.5936
 20
121.5694
 30
0.0
 10
17.5936
 20
121.5694
 30
0.0
 10
17.5936
 20
121.5694
 30
0.0
 10
17.5936
 20
121.5694
 30
0.0
 10
17.5936
 20
116.2777
 30
0.0
 10
17.5936
 20
116.2777
 30
0.0
 10
17.5936
 20
116.2777
 30
0.0
 10
17.5936
 20
116.2777
 30
0.0
 10
12.6547
 20
116.2777
 30
0.0
 10
12.6547
 20
116.2777
 30
0.0
  0
SPLINE
  5
83
330
1F
100
AcDbEntity
  8
Capa 1
 62
     9
100
AcDbSpline
210
0.0
220
0.0
230
1.0
 70
    11
 71
     3
 72
    24
 73
    20
 74
     0
 42
0.0000000001
 43
0.0000000001
 40
0.0
 40
0.0
 40
0.0
 40
0.0
 40
0.2
 40
0.2
 40
0.2
 40
0.2
 40
0.4
 40
0.4
 40
0.4
 40
0.4
 40
0.6000000000000001
 40
0.6000000000000001
 40
0.6000000000000001
 40
0.6000000000000001
 40
0.8
 40
0.8
 40
0.8
 40
0.8
 40
1.0
 40
1.0
 40
1.0
 40
1.0
 10
39.113
 20
115.925
 30
0.0
 10
39.113
 20
115.925
 30
0.0
 10
42.9925
 20
115.537
 30
0.0
 10
42.9925
 20
115.537
 30
0.0
 10
42.9925
 20
115.537
 30
0.0
 10
42.9925
 20
115.537
 30
0.0
 10
42.9936
 20
123.3333
 30
0.0
 10
42.9936
 20
123.3333
 30
0.0
 10
42.9936
 20
123.3333
 30
0.0
 10
42.9936
 20
123.3333
 30
0.0
 10
42.9936
 20
123.6861
 30
0.0
 10
42.9936
 20
123.6861
 30
0.0
 10
42.9936
 20
123.6861
 30
0.0
 10
42.9936
 20
123.6861
 30
0.0
 10
42.6177
 20
115.9252
 30
0.0
 10
42.6177
 20
115.9252
 30
0.0
 10
42.6177
 20
115.9252
 30
0.0
 10
42.6177
 20
115.9252
 30
0.0
 10
39.113
 20
115.925
 30
0.0
 10
39.113
 20
115.925
 30
0.0
  0
SPLINE
  5
84
330
1F
100
AcDbEntity
  8
Capa 1
 62
     7
100
AcDbSpline
210
0.0
220
0.0
230
1.0
 70
    11
 71
     3
 72
    36
 73
    32
 74
     0
 42
0.0000000001
 43
0.0000000001
 40
0.0
 40
0.0
 40
0.0
 40
0.0
 40
0.125
 40
0.125
 40
0.125
 40
0.125
 40
0.25
 40
0.25
 40
0.25
 40
0.25
 40
0.375
 40
0.375
 40
0.375
 40
0.375
 40
0.5
 40
0.5
 40
0.5
 40
0.5
 40
0.625
 40
0.625
 40
0.625
 40
0.625
 40
0.75
 40
0.75
 40
0.75
 40
0.75
 40
0.875
 40
0.875
 40
0.875
 40
0.875
 40
1.0
 40
1.0
 40
1.0
 40
1.0
 10
18.2992
 20
124.7444
 30
0.0
 10
18.2992
 20
124.7444
 30
0.0
 10
17.5936
 20
124.7444
 30
0.0
 10
17.5936
 20
124.7444
 30
0.0
 10
17.5936
 20
124.7444
 30
0.0
 10
17.5936
 20
124.7444
 30
0.0
 10
17.5936
 20
128.9777
 30
0.0
 10
17.5936
 20
128.9777
 30
0.0
 10
17.5936
 20
128.9777
 30
0.0
 10
17.5936
 20
128.9777
 30
0.0
 10
19.0047
 20
128.9777
 30
0.0
 10
19.0047
 20
128.9777
 30
0.0
 10
19.0047
 20
128.9777
 30
0.0
 10
19.0047
 20
128.9777
 30
0.0
 10
19.7103
 20
128.9777
 30
0.0
 10
19.7103
 20
128.9777
 30
0.0
 10
19.7103
 20
128.9777
 30
0.0
 10
19.7103
 20
128.9777
 30
0.0
 10
20.063
 20
128.2722
 30
0.0
 10
20.063
 20
128.2722
 30
0.0
 10
20.063
 20
128.2722
 30
0.0
 10
20.063
 20
128.2722
 30
0.0
 10
20.4622
 20
126.5128
 30
0.0
 10
20.4622
 20
126.5128
 30
0.0
 10
20.4622
 20
126.5128
 30
0.0
 10
20.5084
 20
125.5492
 30
0.0
 10
19.5454
 20
125.1065
 30
0.0
 10
19.0047
 20
124.7444
 30
0.0
 10
19.0047
 20
124.7444
 30
0.0
 10
19.0047
 20
124.7444
 30
0.0
 10
18.2992
 20
124.7444
 30
0.0
 10
18.2992
 20
124.7444
 30
0.0
  0
SPLINE
  5
85
330
1F
100
AcDbEntity
  8
Capa 1
 62
     7
100
AcDbSpline
210
0.0
220
0.0
230
1.0
 70
    11
 71
     3
 72
   116
 73
   112
 74
     0
 42
0.0000000001
 43
0.0000000001
 40
0.0
 40
0.0
 40
0.0
 40
0.0
 40
0.0357142857142857
 40
0.0357142857142857
 40
0.0357142857142857
 40
0.0357142857142857
 40
0.0714285714285714
 40
0.0714285714285714
 40
0.0714285714285714
 40
0.0714285714285714
 40
0.1071428571428571
 40
0.1071428571428571
 40
0.1071428571428571
 40
0.1071428571428571
 40
0.1428571428571429
 40
0.1428571428571429
 40
0.1428571428571429
 40
0.1428571428571429
 40
0.1785714285714286
 40
0.1785714285714286
 40
0.1785714285714286
 40
0.1785714285714286
 40
0.2142857142857143
 40
0.2142857142857143
 40
0.2142857142857143
 40
0.2142857142857143
 40
0.2499999999999999
 40
0.2499999999999999
 40
0.2499999999999999
 40
0.2499999999999999
 40
0.2857142857142856
 40
0.2857142857142856
 40
0.2857142857142856
 40
0.2857142857142856
 40
0.3214285714285713
 40
0.3214285714285713
 40
0.3214285714285713
 40
0.3214285714285713
 40
0.357142857142857
 40
0.357142857142857
 40
0.357142857142857
 40
0.357142857142857
 40
0.3928571428571427
 40
0.3928571428571427
 40
0.3928571428571427
 40
0.3928571428571427
 40
0.4285714285714284
 40
0.4285714285714284
 40
0.4285714285714284
 40
0.4285714285714284
 40
0.4642857142857141
 40
0.4642857142857141
 40
0.4642857142857141
 40
0.4642857142857141
 40
0.4999999999999998
 40
0.4999999999999998
 40
0.4999999999999998
 40
0.4999999999999998
 40
0.5357142857142856
 40
0.5357142857142856
 40
0.5357142857142856
 40
0.5357142857142856
 40
0.5714285714285713
 40
0.5714285714285713
 40
0.5714285714285713
 40
0.5714285714285713
 40
0.607142857142857
 40
0.607142857142857
 40
0.607142857142857
 40
0.607142857142857
 40
0.6428571428571427
 40
0.6428571428571427
 40
0.6428571428571427
 40
0.6428571428571427
 40
0.6785714285714284
 40
0.6785714285714284
 40
0.6785714285714284
 40
0.6785714285714284
 40
0.7142857142857141
 40
0.7142857142857141
 40
0.7142857142857141
 40
0.7142857142857141
 40
0.7499999999999998
 40
0.7499999999999998
 40
0.7499999999999998
 40
0.7499999999999998
 40
0.7857142857142855
 40
0.7857142857142855
 40
0.7857142857142855
 40
0.7857142857142855
 40
0.8214285714285712
 40
0.8214285714285712
 40
0.8214285714285712
 40
0.8214285714285712
 40
0.8571428571428569
 40
0.8571428571428569
 40
0.8571428571428569
 40
0.8571428571428569
 40
0.8928571428571426
 40
0.8928571428571426
 40
0.8928571428571426
 40
0.8928571428571426
 40
0.9285714285714283
 40
0.9285714285714283
 40
0.9285714285714283
 40
0.9285714285714283
 40
0.964285714285714
 40
0.964285714285714
 40
0.964285714285714
 40
0.964285714285714
 40
1.0
 40
1.0
 40
1.0
 40
1.0
 10
12.6547
 20
116.2777
 30
0.0
 10
12.6547
 20
116.2777
 30
0.0
 10
17.5936
 20
116.2777
 30
0.0
 10
17.5936
 20
116.2777
 30
0.0
 10
17.5936
 20
116.2777
 30
0.0
 10
17.5936
 20
116.2777
 30
0.0
 10
17.5936
 20
121.5694
 30
0.0
 10
17.5936
 20
121.5694
 30
0.0
 10
17.5936
 20
121.5694
 30
0.0
 10
17.5936
 20
121.5694
 30
0.0
 10
18.6519
 20
121.5694
 30
0.0
 10
18.6519
 20
121.5694
 30
0.0
 10
18.6519
 20
121.5694
 30
0.0
 10
19.6597
 20
121.5694
 30
0.0
 10
19.2971
 20
121.4584
 30
0.0
 10
19.7103
 20
120.8638
 30
0.0
 10
19.7103
 20
120.8638
 30
0.0
 10
19.7103
 20
120.8638
 30
0.0
 10
22.1797
 20
118.3944
 30
0.0
 10
22.1797
 20
118.3944
 30
0.0
 10
22.1797
 20
118.3944
 30
0.0
 10
22.1797
 20
118.3944
 30
0.0
 10
22.8853
 20
118.0416
 30
0.0
 10
22.8853
 20
118.0416
 30
0.0
 10
22.8853
 20
118.0416
 30
0.0
 10
22.8853
 20
118.0416
 30
0.0
 10
23.238
 20
117.6888
 30
0.0
 10
23.238
 20
117.6888
 30
0.0
 10
23.238
 20
117.6888
 30
0.0
 10
23.238
 20
117.6888
 30
0.0
 10
23.9436
 20
117.3361
 30
0.0
 10
23.9436
 20
117.3361
 30
0.0
 10
23.9436
 20
117.3361
 30
0.0
 10
23.9436
 20
117.3361
 30
0.0
 10
24.2964
 20
116.9833
 30
0.0
 10
24.2964
 20
116.9833
 30
0.0
 10
24.2964
 20
116.9833
 30
0.0
 10
24.2964
 20
116.9833
 30
0.0
 10
24.6491
 20
116.9833
 30
0.0
 10
24.6491
 20
116.9833
 30
0.0
 10
24.6491
 20
116.9833
 30
0.0
 10
24.6491
 20
116.9833
 30
0.0
 10
25.0019
 20
116.6305
 30
0.0
 10
25.0019
 20
116.6305
 30
0.0
 10
25.0019
 20
116.6305
 30
0.0
 10
25.0019
 20
116.6305
 30
0.0
 10
25.3547
 20
116.6305
 30
0.0
 10
25.3547
 20
116.6305
 30
0.0
 10
25.3547
 20
116.6305
 30
0.0
 10
25.3547
 20
116.6305
 30
0.0
 10
25.7075
 20
116.2777
 30
0.0
 10
25.7075
 20
116.2777
 30
0.0
 10
25.7075
 20
116.2777
 30
0.0
 10
25.7075
 20
116.2777
 30
0.0
 10
26.0603
 20
116.2777
 30
0.0
 10
26.0603
 20
116.2777
 30
0.0
 10
26.0603
 20
116.2777
 30
0.0
 10
26.0603
 20
116.2777
 30
0.0
 10
26.7658
 20
115.925
 30
0.0
 10
26.7658
 20
115.925
 30
0.0
 10
26.7658
 20
115.925
 30
0.0
 10
26.7658
 20
115.925
 30
0.0
 10
30.9991
 20
115.2194
 30
0.0
 10
30.9991
 20
115.2194
 30
0.0
 10
30.9991
 20
115.2194
 30
0.0
 10
30.9991
 20
115.2194
 30
0.0
 10
31.7124
 20
115.1372
 30
0.0
 10
31.7124
 20
115.1372
 30
0.0
 10
31.7124
 20
115.1372
 30
0.0
 10
31.7124
 20
115.1372
 30
0.0
 10
36.9964
 20
115.5722
 30
0.0
 10
36.9964
 20
115.5722
 30
0.0
 10
36.9964
 20
115.5722
 30
0.0
 10
36.9964
 20
115.5722
 30
0.0
 10
36.9964
 20
116.9833
 30
0.0
 10
36.9964
 20
116.9833
 30
0.0
 10
36.9964
 20
116.9833
 30
0.0
 10
36.9964
 20
116.9833
 30
0.0
 10
36.6084
 20
120.8628
 30
0.0
 10
36.6084
 20
120.8628
 30
0.0
 10
36.6084
 20
120.8628
 30
0.0
 10
36.6084
 20
120.8628
 30
0.0
 10
31.3717
 20
120.0206
 30
0.0
 10
31.3717
 20
120.0206
 30
0.0
 10
31.3717
 20
120.0206
 30
0.0
 10
28.9036
 20
119.8056
 30
0.0
 10
24.5301
 20
121.9307
 30
0.0
 10
23.5908
 20
123.3333
 30
0.0
 10
23.5908
 20
123.3333
 30
0.0
 10
23.5908
 20
123.3333
 30
0.0
 10
25.0019
 20
124.7444
 30
0.0
 10
25.0019
 20
124.7444
 30
0.0
 10
25.0019
 20
124.7444
 30
0.0
 10
25.0019
 20
124.7444
 30
0.0
 10
25.7075
 20
127.5666
 30
0.0
 10
25.7075
 20
127.5666
 30
0.0
 10
25.7075
 20
127.5666
 30
0.0
 10
24.6076
 20
129.3001
 30
0.0
 10
25.6864
 20
129.9564
 30
0.0
 10
23.245
 20
131.4542
 30
0.0
 10
23.245
 20
131.4542
 30
0.0
 10
22.0891
 20
132.1633
 30
0.0
 10
20.2063
 20
132.5055
 30
0.0
 10
18.2992
 20
132.5055
 30
0.0
 10
18.2992
 20
132.5055
 30
0.0
 10
18.2992
 20
132.5055
 30
0.0
 10
12.3019
 20
132.5055
 30
0.0
 10
12.3019
 20
132.5055
 30
0.0
 10
12.3019
 20
132.5055
 30
0.0
 10
12.3019
 20
132.5055
 30
0.0
 10
12.6547
 20
116.2777
 30
0.0
 10
12.6547
 20
116.2777
 30
0.0
  0
SPLINE
  5
86
330
1F
100
AcDbEntity
  8
Capa 1
 62
     9
100
AcDbSpline
210
0.0
220
0.0
230
1.0
 70
    11
 71
     3
 72
    88
 73
    84
 74
     0
 42
0.0000000001
 43
0.0000000001
 40
0.0
 40
0.0
 40
0.0
 40
0.0
 40
0.0476190476190476
 40
0.0476190476190476
 40
0.0476190476190476
 40
0.0476190476190476
 40
0.0952380952380952
 40
0.0952380952380952
 40
0.0952380952380952
 40
0.0952380952380952
 40
0.1428571428571429
 40
0.1428571428571429
 40
0.1428571428571429
 40
0.1428571428571429
 40
0.1904761904761905
 40
0.1904761904761905
 40
0.1904761904761905
 40
0.1904761904761905
 40
0.2380952380952381
 40
0.2380952380952381
 40
0.2380952380952381
 40
0.2380952380952381
 40
0.2857142857142857
 40
0.2857142857142857
 40
0.2857142857142857
 40
0.2857142857142857
 40
0.3333333333333333
 40
0.3333333333333333
 40
0.3333333333333333
 40
0.3333333333333333
 40
0.3809523809523809
 40
0.3809523809523809
 40
0.3809523809523809
 40
0.3809523809523809
 40
0.4285714285714286
 40
0.4285714285714286
 40
0.4285714285714286
 40
0.4285714285714286
 40
0.4761904761904762
 40
0.4761904761904762
 40
0.4761904761904762
 40
0.4761904761904762
 40
0.5238095238095237
 40
0.5238095238095237
 40
0.5238095238095237
 40
0.5238095238095237
 40
0.5714285714285714
 40
0.5714285714285714
 40
0.5714285714285714
 40
0.5714285714285714
 40
0.6190476190476191
 40
0.6190476190476191
 40
0.6190476190476191
 40
0.6190476190476191
 40
0.6666666666666667
 40
0.6666666666666667
 40
0.6666666666666667
 40
0.6666666666666667
 40
0.7142857142857144
 40
0.7142857142857144
 40
0.7142857142857144
 40
0.7142857142857144
 40
0.7619047619047621
 40
0.7619047619047621
 40
0.7619047619047621
 40
0.7619047619047621
 40
0.8095238095238098
 40
0.8095238095238098
 40
0.8095238095238098
 40
0.8095238095238098
 40
0.8571428571428574
 40
0.8571428571428574
 40
0.8571428571428574
 40
0.8571428571428574
 40
0.9047619047619051
 40
0.9047619047619051
 40
0.9047619047619051
 40
0.9047619047619051
 40
0.9523809523809528
 40
0.9523809523809528
 40
0.9523809523809528
 40
0.9523809523809528
 40
1.0
 40
1.0
 40
1.0
 40
1.0
 10
36.9964
 20
116.9833
 30
0.0
 10
36.9964
 20
116.9833
 30
0.0
 10
36.9964
 20
115.5722
 30
0.0
 10
36.9964
 20
115.5722
 30
0.0
 10
36.9964
 20
115.5722
 30
0.0
 10
36.9964
 20
115.5722
 30
0.0
 10
31.7124
 20
115.1372
 30
0.0
 10
31.7124
 20
115.1372
 30
0.0
 10
31.7124
 20
115.1372
 30
0.0
 10
31.7124
 20
115.1372
 30
0.0
 10
30.9991
 20
115.2194
 30
0.0
 10
30.9991
 20
115.2194
 30
0.0
 10
30.9991
 20
115.2194
 30
0.0
 10
30.9991
 20
115.2194
 30
0.0
 10
26.7658
 20
115.925
 30
0.0
 10
26.7658
 20
115.925
 30
0.0
 10
26.7658
 20
115.925
 30
0.0
 10
26.7658
 20
115.925
 30
0.0
 10
26.0603
 20
116.2777
 30
0.0
 10
26.0603
 20
116.2777
 30
0.0
 10
26.0603
 20
116.2777
 30
0.0
 10
26.0603
 20
116.2777
 30
0.0
 10
25.7075
 20
116.2777
 30
0.0
 10
25.7075
 20
116.2777
 30
0.0
 10
25.7075
 20
116.2777
 30
0.0
 10
25.7075
 20
116.2777
 30
0.0
 10
25.3547
 20
116.6305
 30
0.0
 10
25.3547
 20
116.6305
 30
0.0
 10
25.3547
 20
116.6305
 30
0.0
 10
25.3547
 20
116.6305
 30
0.0
 10
25.0019
 20
116.6305
 30
0.0
 10
25.0019
 20
116.6305
 30
0.0
 10
25.0019
 20
116.6305
 30
0.0
 10
25.0019
 20
116.6305
 30
0.0
 10
24.6491
 20
116.9833
 30
0.0
 10
24.6491
 20
116.9833
 30
0.0
 10
24.6491
 20
116.9833
 30
0.0
 10
24.6491
 20
116.9833
 30
0.0
 10
24.2964
 20
116.9833
 30
0.0
 10
24.2964
 20
116.9833
 30
0.0
 10
24.2964
 20
116.9833
 30
0.0
 10
24.2964
 20
116.9833
 30
0.0
 10
23.9436
 20
117.3361
 30
0.0
 10
23.9436
 20
117.3361
 30
0.0
 10
23.9436
 20
117.3361
 30
0.0
 10
23.9436
 20
117.3361
 30
0.0
 10
23.238
 20
117.6888
 30
0.0
 10
23.238
 20
117.6888
 30
0.0
 10
23.238
 20
117.6888
 30
0.0
 10
23.238
 20
117.6888
 30
0.0
 10
22.8853
 20
118.0416
 30
0.0
 10
22.8853
 20
118.0416
 30
0.0
 10
22.8853
 20
118.0416
 30
0.0
 10
22.8853
 20
118.0416
 30
0.0
 10
22.1797
 20
118.3944
 30
0.0
 10
22.1797
 20
118.3944
 30
0.0
 10
22.1797
 20
118.3944
 30
0.0
 10
23.5216
 20
116.3905
 30
0.0
 10
28.1421
 20
114.5138
 30
0.0
 10
31.7047
 20
114.5138
 30
0.0
 10
31.7047
 20
114.5138
 30
0.0
 10
31.7047
 20
114.5138
 30
0.0
 10
32.4102
 20
114.5138
 30
0.0
 10
32.4102
 20
114.5138
 30
0.0
 10
32.4102
 20
114.5138
 30
0.0
 10
32.4102
 20
114.5138
 30
0.0
 10
37.6963
 20
114.9263
 30
0.0
 10
37.6963
 20
114.9263
 30
0.0
 10
37.6963
 20
114.9263
 30
0.0
 10
37.6963
 20
114.9263
 30
0.0
 10
37.7019
 20
116.9833
 30
0.0
 10
37.7019
 20
116.9833
 30
0.0
 10
37.7019
 20
116.9833
 30
0.0
 10
37.7019
 20
116.9833
 30
0.0
 10
37.3069
 20
120.1519
 30
0.0
 10
37.3069
 20
120.1519
 30
0.0
 10
37.3069
 20
120.1519
 30
0.0
 10
37.3069
 20
120.1519
 30
0.0
 10
36.9964
 20
120.1583
 30
0.0
 10
36.9964
 20
120.1583
 30
0.0
 10
36.9964
 20
120.1583
 30
0.0
 10
36.9964
 20
120.1583
 30
0.0
 10
36.9964
 20
116.9833
 30
0.0
 10
36.9964
 20
116.9833
 30
0.0
  0
SPLINE
  5
87
330
1F
100
AcDbEntity
  8
Capa 1
 62
   254
100
AcDbSpline
210
0.0
220
0.0
230
1.0
 70
    11
 71
     3
 72
    40
 73
    36
 74
     0
 42
0.0000000001
 43
0.0000000001
 40
0.0
 40
0.0
 40
0.0
 40
0.0
 40
0.1111111111111111
 40
0.1111111111111111
 40
0.1111111111111111
 40
0.1111111111111111
 40
0.2222222222222222
 40
0.2222222222222222
 40
0.2222222222222222
 40
0.2222222222222222
 40
0.3333333333333333
 40
0.3333333333333333
 40
0.3333333333333333
 40
0.3333333333333333
 40
0.4444444444444444
 40
0.4444444444444444
 40
0.4444444444444444
 40
0.4444444444444444
 40
0.5555555555555556
 40
0.5555555555555556
 40
0.5555555555555556
 40
0.5555555555555556
 40
0.6666666666666667
 40
0.6666666666666667
 40
0.6666666666666667
 40
0.6666666666666667
 40
0.7777777777777779
 40
0.7777777777777779
 40
0.7777777777777779
 40
0.7777777777777779
 40
0.8888888888888891
 40
0.8888888888888891
 40
0.8888888888888891
 40
0.8888888888888891
 40
1.0
 40
1.0
 40
1.0
 40
1.0
 10
28.1873
 20
-8.832700000000001
 30
0.0
 10
28.1873
 20
-8.832700000000001
 30
0.0
 10
28.1873
 20
-9.891
 30
0.0
 10
28.1873
 20
-9.891
 30
0.0
 10
28.1873
 20
-9.891
 30
0.0
 10
28.1873
 20
-9.891
 30
0.0
 10
28.1873
 20
-10.5965
 30
0.0
 10
28.1873
 20
-10.5965
 30
0.0
 10
28.1873
 20
-10.5965
 30
0.0
 10
28.4233
 20
-11.0424
 30
0.0
 10
28.6721
 20
-12.0077
 30
0.0
 10
29.2457
 20
-12.0077
 30
0.0
 10
29.2457
 20
-12.0077
 30
0.0
 10
30.349
 20
-12.0077
 30
0.0
 10
30.2451
 20
-11.3745
 30
0.0
 10
30.6568
 20
-10.5965
 30
0.0
 10
30.6568
 20
-10.5965
 30
0.0
 10
30.6568
 20
-10.5965
 30
0.0
 10
30.6568
 20
-9.891
 30
0.0
 10
30.6568
 20
-9.891
 30
0.0
 10
30.6568
 20
-9.891
 30
0.0
 10
30.6568
 20
-9.891
 30
0.0
 10
30.6568
 20
-9.5382
 30
0.0
 10
30.6568
 20
-9.5382
 30
0.0
 10
30.6568
 20
-9.5382
 30
0.0
 10
30.6568
 20
-9.5382
 30
0.0
 10
30.6568
 20
-8.832700000000001
 30
0.0
 10
30.6568
 20
-8.832700000000001
 30
0.0
 10
30.6568
 20
-8.832700000000001
 30
0.0
 10
30.4208
 20
-8.386800000000001
 30
0.0
 10
30.172
 20
-7.421600000000001
 30
0.0
 10
29.5984
 20
-7.421600000000001
 30
0.0
 10
29.5984
 20
-7.421600000000001
 30
0.0
 10
28.7727
 20
-7.421600000000001
 30
0.0
 10
28.1873
 20
-8.0069
 30
0.0
 10
28.1873
 20
-8.832700000000001
 30
0.0
  0
SPLINE
  5
88
330
1F
100
AcDbEntity
  8
Capa 1
 62
     7
100
AcDbSpline
210
0.0
220
0.0
230
1.0
 70
    11
 71
     3
 72
    20
 73
    16
 74
     0
 42
0.0000000001
 43
0.0000000001
 40
0.0
 40
0.0
 40
0.0
 40
0.0
 40
0.25
 40
0.25
 40
0.25
 40
0.25
 40
0.5
 40
0.5
 40
0.5
 40
0.5
 40
0.75
 40
0.75
 40
0.75
 40
0.75
 40
1.0
 40
1.0
 40
1.0
 40
1.0
 10
51.8234
 20
-21.1799
 30
0.0
 10
51.8234
 20
-21.1799
 30
0.0
 10
57.82060000000001
 20
-21.1799
 30
0.0
 10
57.82060000000001
 20
-21.1799
 30
0.0
 10
57.82060000000001
 20
-21.1799
 30
0.0
 10
57.82060000000001
 20
-21.1799
 30
0.0
 10
57.82060000000001
 20
-3.8938
 30
0.0
 10
57.82060000000001
 20
-3.8938
 30
0.0
 10
57.82060000000001
 20
-3.8938
 30
0.0
 10
57.82060000000001
 20
-3.8938
 30
0.0
 10
51.8234
 20
-3.8938
 30
0.0
 10
51.8234
 20
-3.8938
 30
0.0
 10
51.8234
 20
-3.8938
 30
0.0
 10
51.8234
 20
-3.8938
 30
0.0
 10
51.8234
 20
-21.1799
 30
0.0
 10
51.8234
 20
-21.1799
 30
0.0
  0
SPLINE
  5
89
330
1F
100
AcDbEntity
  8
Capa 1
 62
   254
100
AcDbSpline
210
0.0
220
0.0
230
1.0
 70
    11
 71
     3
 72
    20
 73
    16
 74
     0
 42
0.0000000001
 43
0.0000000001
 40
0.0
 40
0.0
 40
0.0
 40
0.0
 40
0.25
 40
0.25
 40
0.25
 40
0.25
 40
0.5
 40
0.5
 40
0.5
 40
0.5
 40
0.75
 40
0.75
 40
0.75
 40
0.75
 40
1.0
 40
1.0
 40
1.0
 40
1.0
 10
51.8234
 20
-3.8938
 30
0.0
 10
51.8234
 20
-3.8938
 30
0.0
 10
57.82060000000001
 20
-3.8938
 30
0.0
 10
57.82060000000001
 20
-3.8938
 30
0.0
 10
57.82060000000001
 20
-3.8938
 30
0.0
 10
57.82060000000001
 20
-3.8938
 30
0.0
 10
57.82060000000001
 20
-21.1799
 30
0.0
 10
57.82060000000001
 20
-21.1799
 30
0.0
 10
57.82060000000001
 20
-21.1799
 30
0.0
 10
57.82060000000001
 20
-21.1799
 30
0.0
 10
51.8234
 20
-21.1799
 30
0.0
 10
51.8234
 20
-21.1799
 30
0.0
 10
51.8234
 20
-21.1799
 30
0.0
 10
51.8234
 20
-21.1799
 30
0.0
 10
51.8234
 20
-3.8938
 30
0.0
 10
51.8234
 20
-3.8938
 30
0.0
  0
SPLINE
  5
8A
330
1F
100
AcDbEntity
  8
Capa 1
 62
   254
100
AcDbSpline
210
0.0
220
0.0
230
1.0
 70
    11
 71
     3
 72
    40
 73
    36
 74
     0
 42
0.0000000001
 43
0.0000000001
 40
0.0
 40
0.0
 40
0.0
 40
0.0
 40
0.1111111111111111
 40
0.1111111111111111
 40
0.1111111111111111
 40
0.1111111111111111
 40
0.2222222222222222
 40
0.2222222222222222
 40
0.2222222222222222
 40
0.2222222222222222
 40
0.3333333333333333
 40
0.3333333333333333
 40
0.3333333333333333
 40
0.3333333333333333
 40
0.4444444444444444
 40
0.4444444444444444
 40
0.4444444444444444
 40
0.4444444444444444
 40
0.5555555555555556
 40
0.5555555555555556
 40
0.5555555555555556
 40
0.5555555555555556
 40
0.6666666666666667
 40
0.6666666666666667
 40
0.6666666666666667
 40
0.6666666666666667
 40
0.7777777777777779
 40
0.7777777777777779
 40
0.7777777777777779
 40
0.7777777777777779
 40
0.8888888888888891
 40
0.8888888888888891
 40
0.8888888888888891
 40
0.8888888888888891
 40
1.0
 40
1.0
 40
1.0
 40
1.0
 10
-31.0793
 20
-21.1799
 30
0.0
 10
-31.0793
 20
-21.1799
 30
0.0
 10
-34.9598
 20
-21.1799
 30
0.0
 10
-34.9598
 20
-21.1799
 30
0.0
 10
-34.9598
 20
-21.1799
 30
0.0
 10
-34.9598
 20
-17.2982
 30
0.0
 10
-34.1814
 20
-15.6481
 30
0.0
 10
-33.3252
 20
-12.5839
 30
0.0
 10
-33.3252
 20
-12.5839
 30
0.0
 10
-32.7868
 20
-10.6568
 30
0.0
 10
-31.1107
 20
-6.0103
 30
0.0
 10
-31.0793
 20
-4.5993
 30
0.0
 10
-31.0793
 20
-4.5993
 30
0.0
 10
-31.0793
 20
-4.5993
 30
0.0
 10
-24.7293
 20
-4.5993
 30
0.0
 10
-24.7293
 20
-4.5993
 30
0.0
 10
-24.7293
 20
-4.5993
 30
0.0
 10
-24.6711
 20
-5.2984
 30
0.0
 10
-19.8887
 20
-20.2397
 30
0.0
 10
-19.4376
 20
-21.1799
 30
0.0
 10
-19.4376
 20
-21.1799
 30
0.0
 10
-19.4376
 20
-21.1799
 30
0.0
 10
-25.7211
 20
-21.1639
 30
0.0
 10
-25.7211
 20
-21.1639
 30
0.0
 10
-25.7211
 20
-21.1639
 30
0.0
 10
-25.7211
 20
-21.1639
 30
0.0
 10
-26.4932
 20
-17.6521
 30
0.0
 10
-26.4932
 20
-17.6521
 30
0.0
 10
-26.4932
 20
-17.6521
 30
0.0
 10
-26.4932
 20
-17.6521
 30
0.0
 10
-31.0793
 20
-17.6521
 30
0.0
 10
-31.0793
 20
-17.6521
 30
0.0
 10
-31.0793
 20
-17.6521
 30
0.0
 10
-31.0793
 20
-17.6521
 30
0.0
 10
-31.0793
 20
-21.1799
 30
0.0
 10
-31.0793
 20
-21.1799
 30
0.0
  0
SPLINE
  5
8B
330
1F
100
AcDbEntity
  8
Capa 1
 62
   254
100
AcDbSpline
210
0.0
220
0.0
230
1.0
 70
    11
 71
     3
 72
    60
 73
    56
 74
     0
 42
0.0000000001
 43
0.0000000001
 40
0.0
 40
0.0
 40
0.0
 40
0.0
 40
0.0714285714285714
 40
0.0714285714285714
 40
0.0714285714285714
 40
0.0714285714285714
 40
0.1428571428571429
 40
0.1428571428571429
 40
0.1428571428571429
 40
0.1428571428571429
 40
0.2142857142857143
 40
0.2142857142857143
 40
0.2142857142857143
 40
0.2142857142857143
 40
0.2857142857142857
 40
0.2857142857142857
 40
0.2857142857142857
 40
0.2857142857142857
 40
0.3571428571428571
 40
0.3571428571428571
 40
0.3571428571428571
 40
0.3571428571428571
 40
0.4285714285714285
 40
0.4285714285714285
 40
0.4285714285714285
 40
0.4285714285714285
 40
0.4999999999999999
 40
0.4999999999999999
 40
0.4999999999999999
 40
0.4999999999999999
 40
0.5714285714285713
 40
0.5714285714285713
 40
0.5714285714285713
 40
0.5714285714285713
 40
0.6428571428571427
 40
0.6428571428571427
 40
0.6428571428571427
 40
0.6428571428571427
 40
0.7142857142857141
 40
0.7142857142857141
 40
0.7142857142857141
 40
0.7142857142857141
 40
0.7857142857142855
 40
0.7857142857142855
 40
0.7857142857142855
 40
0.7857142857142855
 40
0.8571428571428569
 40
0.8571428571428569
 40
0.8571428571428569
 40
0.8571428571428569
 40
0.9285714285714283
 40
0.9285714285714283
 40
0.9285714285714283
 40
0.9285714285714283
 40
1.0
 40
1.0
 40
1.0
 40
1.0
 10
-50.1292
 20
-21.1799
 30
0.0
 10
-50.1292
 20
-21.1799
 30
0.0
 10
-54.00980000000001
 20
-21.1799
 30
0.0
 10
-54.00980000000001
 20
-21.1799
 30
0.0
 10
-54.00980000000001
 20
-21.1799
 30
0.0
 10
-54.00980000000001
 20
-21.1799
 30
0.0
 10
-54.00980000000001
 20
-3.8938
 30
0.0
 10
-54.00980000000001
 20
-3.8938
 30
0.0
 10
-54.00980000000001
 20
-3.8938
 30
0.0
 10
-54.00980000000001
 20
-3.8938
 30
0.0
 10
-48.7181
 20
-3.8938
 30
0.0
 10
-48.7181
 20
-3.8938
 30
0.0
 10
-48.7181
 20
-3.8938
 30
0.0
 10
-48.1691
 20
-5.9499
 30
0.0
 10
-45.3474
 20
-10.1204
 30
0.0
 10
-45.1904
 20
-12.0077
 30
0.0
 10
-45.1904
 20
-12.0077
 30
0.0
 10
-45.1904
 20
-12.0077
 30
0.0
 10
-44.6809
 20
-11.9175
 30
0.0
 10
-44.6809
 20
-11.9175
 30
0.0
 10
-44.6809
 20
-11.9175
 30
0.0
 10
-44.6809
 20
-11.9175
 30
0.0
 10
-40.957
 20
-3.8938
 30
0.0
 10
-40.957
 20
-3.8938
 30
0.0
 10
-40.957
 20
-3.8938
 30
0.0
 10
-40.957
 20
-3.8938
 30
0.0
 10
-40.2515
 20
-3.8938
 30
0.0
 10
-40.2515
 20
-3.8938
 30
0.0
 10
-40.2515
 20
-3.8938
 30
0.0
 10
-40.2515
 20
-3.8938
 30
0.0
 10
-36.0181
 20
-3.8938
 30
0.0
 10
-36.0181
 20
-3.8938
 30
0.0
 10
-36.0181
 20
-3.8938
 30
0.0
 10
-36.0181
 20
-3.8938
 30
0.0
 10
-36.0181
 20
-21.1799
 30
0.0
 10
-36.0181
 20
-21.1799
 30
0.0
 10
-36.0181
 20
-21.1799
 30
0.0
 10
-36.0181
 20
-21.1799
 30
0.0
 10
-41.66260000000001
 20
-21.1799
 30
0.0
 10
-41.66260000000001
 20
-21.1799
 30
0.0
 10
-41.66260000000001
 20
-21.1799
 30
0.0
 10
-41.66260000000001
 20
-21.1799
 30
0.0
 10
-41.66260000000001
 20
-12.7132
 30
0.0
 10
-41.66260000000001
 20
-12.7132
 30
0.0
 10
-41.66260000000001
 20
-12.7132
 30
0.0
 10
-42.9335
 20
-13.6444
 30
0.0
 10
-45.25400000000001
 20
-19.0632
 30
0.0
 10
-45.89590000000001
 20
-19.0632
 30
0.0
 10
-45.89590000000001
 20
-19.0632
 30
0.0
 10
-46.4581
 20
-19.0632
 30
0.0
 10
-49.29980000000001
 20
-13.3147
 30
0.0
 10
-50.1292
 20
-12.3604
 30
0.0
 10
-50.1292
 20
-12.3604
 30
0.0
 10
-50.1292
 20
-12.3604
 30
0.0
 10
-50.1292
 20
-21.1799
 30
0.0
 10
-50.1292
 20
-21.1799
 30
0.0
  0
SPLINE
  5
8C
330
1F
100
AcDbEntity
  8
Capa 1
 62
   254
100
AcDbSpline
210
0.0
220
0.0
230
1.0
 70
    11
 71
     3
 72
    44
 73
    40
 74
     0
 42
0.0000000001
 43
0.0000000001
 40
0.0
 40
0.0
 40
0.0
 40
0.0
 40
0.1
 40
0.1
 40
0.1
 40
0.1
 40
0.2
 40
0.2
 40
0.2
 40
0.2
 40
0.3
 40
0.3
 40
0.3
 40
0.3
 40
0.4
 40
0.4
 40
0.4
 40
0.4
 40
0.5
 40
0.5
 40
0.5
 40
0.5
 40
0.6
 40
0.6
 40
0.6
 40
0.6
 40
0.7
 40
0.7
 40
0.7
 40
0.7
 40
0.7999999999999999
 40
0.7999999999999999
 40
0.7999999999999999
 40
0.7999999999999999
 40
0.8999999999999999
 40
0.8999999999999999
 40
0.8999999999999999
 40
0.8999999999999999
 40
1.0
 40
1.0
 40
1.0
 40
1.0
 10
24.3068
 20
-10.9493
 30
0.0
 10
24.3068
 20
-10.9493
 30
0.0
 10
24.3068
 20
-10.2438
 30
0.0
 10
24.3068
 20
-10.2438
 30
0.0
 10
24.3068
 20
-10.2438
 30
0.0
 10
24.3068
 20
-10.2438
 30
0.0
 10
24.3068
 20
-9.5382
 30
0.0
 10
24.3068
 20
-9.5382
 30
0.0
 10
24.3068
 20
-9.5382
 30
0.0
 10
24.3068
 20
-6.6018
 30
0.0
 10
26.3093
 20
-4.5993
 30
0.0
 10
29.2457
 20
-4.5993
 30
0.0
 10
29.2457
 20
-4.5993
 30
0.0
 10
29.2457
 20
-4.5993
 30
0.0
 10
29.5984
 20
-4.5993
 30
0.0
 10
29.5984
 20
-4.5993
 30
0.0
 10
29.5984
 20
-4.5993
 30
0.0
 10
32.4212
 20
-4.5993
 30
0.0
 10
34.5373
 20
-6.715500000000001
 30
0.0
 10
34.5373
 20
-9.5382
 30
0.0
 10
34.5373
 20
-9.5382
 30
0.0
 10
34.5373
 20
-9.5382
 30
0.0
 10
34.5373
 20
-10.5965
 30
0.0
 10
34.5373
 20
-10.5965
 30
0.0
 10
34.5373
 20
-10.5965
 30
0.0
 10
34.5373
 20
-10.5965
 30
0.0
 10
34.5373
 20
-11.3021
 30
0.0
 10
34.5373
 20
-11.3021
 30
0.0
 10
34.5373
 20
-11.3021
 30
0.0
 10
33.3064
 20
-13.6285
 30
0.0
 10
33.3566
 20
-13.588
 30
0.0
 10
31.0096
 20
-14.8299
 30
0.0
 10
31.0096
 20
-14.8299
 30
0.0
 10
31.0096
 20
-14.8299
 30
0.0
 10
30.304
 20
-14.8299
 30
0.0
 10
30.304
 20
-14.8299
 30
0.0
 10
30.304
 20
-14.8299
 30
0.0
 10
26.3341
 20
-14.8299
 30
0.0
 10
25.6543
 20
-13.496
 30
0.0
 10
24.3068
 20
-10.9493
 30
0.0
  0
SPLINE
  5
8D
330
1F
100
AcDbEntity
  8
Capa 1
 62
   254
100
AcDbSpline
210
0.0
220
0.0
230
1.0
 70
    11
 71
     3
 72
    72
 73
    68
 74
     0
 42
0.0000000001
 43
0.0000000001
 40
0.0
 40
0.0
 40
0.0
 40
0.0
 40
0.0588235294117647
 40
0.0588235294117647
 40
0.0588235294117647
 40
0.0588235294117647
 40
0.1176470588235294
 40
0.1176470588235294
 40
0.1176470588235294
 40
0.1176470588235294
 40
0.1764705882352941
 40
0.1764705882352941
 40
0.1764705882352941
 40
0.1764705882352941
 40
0.2352941176470588
 40
0.2352941176470588
 40
0.2352941176470588
 40
0.2352941176470588
 40
0.2941176470588235
 40
0.2941176470588235
 40
0.2941176470588235
 40
0.2941176470588235
 40
0.3529411764705883
 40
0.3529411764705883
 40
0.3529411764705883
 40
0.3529411764705883
 40
0.411764705882353
 40
0.411764705882353
 40
0.411764705882353
 40
0.411764705882353
 40
0.4705882352941177
 40
0.4705882352941177
 40
0.4705882352941177
 40
0.4705882352941177
 40
0.5294117647058824
 40
0.5294117647058824
 40
0.5294117647058824
 40
0.5294117647058824
 40
0.5882352941176471
 40
0.5882352941176471
 40
0.5882352941176471
 40
0.5882352941176471
 40
0.6470588235294118
 40
0.6470588235294118
 40
0.6470588235294118
 40
0.6470588235294118
 40
0.7058823529411765
 40
0.7058823529411765
 40
0.7058823529411765
 40
0.7058823529411765
 40
0.7647058823529412
 40
0.7647058823529412
 40
0.7647058823529412
 40
0.7647058823529412
 40
0.823529411764706
 40
0.823529411764706
 40
0.823529411764706
 40
0.823529411764706
 40
0.8823529411764707
 40
0.8823529411764707
 40
0.8823529411764707
 40
0.8823529411764707
 40
0.9411764705882354
 40
0.9411764705882354
 40
0.9411764705882354
 40
0.9411764705882354
 40
1.0
 40
1.0
 40
1.0
 40
1.0
 10
16.8985
 20
-16.5938
 30
0.0
 10
16.8985
 20
-16.5938
 30
0.0
 10
15.4874
 20
-16.5938
 30
0.0
 10
15.4874
 20
-16.5938
 30
0.0
 10
15.4874
 20
-16.5938
 30
0.0
 10
15.4874
 20
-16.5938
 30
0.0
 10
15.4874
 20
-21.8854
 30
0.0
 10
15.4874
 20
-21.8854
 30
0.0
 10
15.4874
 20
-21.8854
 30
0.0
 10
15.4874
 20
-21.8854
 30
0.0
 10
10.9012
 20
-21.8854
 30
0.0
 10
10.9012
 20
-21.8854
 30
0.0
 10
10.9012
 20
-21.8854
 30
0.0
 10
10.9012
 20
-21.8854
 30
0.0
 10
10.2258
 20
-21.8668
 30
0.0
 10
10.2258
 20
-21.8668
 30
0.0
 10
10.2258
 20
-21.8668
 30
0.0
 10
10.2258
 20
-21.8668
 30
0.0
 10
9.8429
 20
-21.1799
 30
0.0
 10
9.8429
 20
-21.1799
 30
0.0
 10
9.8429
 20
-21.1799
 30
0.0
 10
8.8992
 20
-19.6925
 30
0.0
 10
9.4901
 20
-7.8681
 30
0.0
 10
9.4901
 20
-4.952100000000001
 30
0.0
 10
9.4901
 20
-4.952100000000001
 30
0.0
 10
9.4901
 20
-4.952100000000001
 30
0.0
 10
15.4874
 20
-4.952100000000001
 30
0.0
 10
15.4874
 20
-4.952100000000001
 30
0.0
 10
15.4874
 20
-4.952100000000001
 30
0.0
 10
20.7784
 20
-4.952100000000001
 30
0.0
 10
21.9119
 20
-6.374000000000001
 30
0.0
 10
22.8957
 20
-10.5965
 30
0.0
 10
22.8957
 20
-10.5965
 30
0.0
 10
22.4603
 20
-12.4654
 30
0.0
 10
22.0363
 20
-12.7736
 30
0.0
 10
21.1318
 20
-14.1243
 30
0.0
 10
21.1318
 20
-14.1243
 30
0.0
 10
22.0901
 20
-15.9355
 30
0.0
 10
25.6175
 20
-17.6455
 30
0.0
 10
28.5516
 20
-17.3962
 30
0.0
 10
28.5516
 20
-17.3962
 30
0.0
 10
28.5516
 20
-17.3962
 30
0.0
 10
32.0859
 20
-17.0185
 30
0.0
 10
32.0859
 20
-17.0185
 30
0.0
 10
32.0859
 20
-17.0185
 30
0.0
 10
32.0859
 20
-17.0185
 30
0.0
 10
33.8318
 20
-16.5938
 30
0.0
 10
33.8318
 20
-16.5938
 30
0.0
 10
33.8318
 20
-16.5938
 30
0.0
 10
33.8318
 20
-16.5938
 30
0.0
 10
33.7534
 20
-18.7222
 30
0.0
 10
33.7534
 20
-18.7222
 30
0.0
 10
33.7534
 20
-18.7222
 30
0.0
 10
33.7534
 20
-18.7222
 30
0.0
 10
34.179
 20
-21.8257
 30
0.0
 10
34.179
 20
-21.8257
 30
0.0
 10
34.179
 20
-21.8257
 30
0.0
 10
34.179
 20
-21.8257
 30
0.0
 10
28.8929
 20
-22.2382
 30
0.0
 10
28.8929
 20
-22.2382
 30
0.0
 10
28.8929
 20
-22.2382
 30
0.0
 10
28.8929
 20
-22.2382
 30
0.0
 10
27.8346
 20
-22.2382
 30
0.0
 10
27.8346
 20
-22.2382
 30
0.0
 10
27.8346
 20
-22.2382
 30
0.0
 10
21.6721
 20
-22.2382
 30
0.0
 10
20.1755
 20
-18.7881
 30
0.0
 10
16.8985
 20
-16.5938
 30
0.0
  0
SPLINE
  5
8E
330
1F
100
AcDbEntity
  8
Capa 1
 62
   254
100
AcDbSpline
210
0.0
220
0.0
230
1.0
 70
    11
 71
     3
 72
    68
 73
    64
 74
     0
 42
0.0000000001
 43
0.0000000001
 40
0.0
 40
0.0
 40
0.0
 40
0.0
 40
0.0625
 40
0.0625
 40
0.0625
 40
0.0625
 40
0.125
 40
0.125
 40
0.125
 40
0.125
 40
0.1875
 40
0.1875
 40
0.1875
 40
0.1875
 40
0.25
 40
0.25
 40
0.25
 40
0.25
 40
0.3125
 40
0.3125
 40
0.3125
 40
0.3125
 40
0.375
 40
0.375
 40
0.375
 40
0.375
 40
0.4375
 40
0.4375
 40
0.4375
 40
0.4375
 40
0.5
 40
0.5
 40
0.5
 40
0.5
 40
0.5625
 40
0.5625
 40
0.5625
 40
0.5625
 40
0.625
 40
0.625
 40
0.625
 40
0.625
 40
0.6875
 40
0.6875
 40
0.6875
 40
0.6875
 40
0.75
 40
0.75
 40
0.75
 40
0.75
 40
0.8125
 40
0.8125
 40
0.8125
 40
0.8125
 40
0.875
 40
0.875
 40
0.875
 40
0.875
 40
0.9375
 40
0.9375
 40
0.9375
 40
0.9375
 40
1.0
 40
1.0
 40
1.0
 40
1.0
 10
2.0818
 20
-12.3604
 30
0.0
 10
2.8516
 20
-11.845
 30
0.0
 10
3.5845
 20
-11.3021
 30
0.0
 10
4.904
 20
-11.3021
 30
0.0
 10
4.904
 20
-11.3021
 30
0.0
 10
5.7266
 20
-11.3021
 30
0.0
 10
6.6679
 20
-12.2434
 30
0.0
 10
6.6679
 20
-13.066
 30
0.0
 10
6.6679
 20
-13.066
 30
0.0
 10
6.6679
 20
-13.066
 30
0.0
 10
6.6679
 20
-13.4188
 30
0.0
 10
6.6679
 20
-13.4188
 30
0.0
 10
6.6679
 20
-13.4188
 30
0.0
 10
6.6679
 20
-13.4188
 30
0.0
 10
6.6576
 20
-14.105
 30
0.0
 10
6.6576
 20
-14.105
 30
0.0
 10
6.6576
 20
-14.105
 30
0.0
 10
6.6576
 20
-14.105
 30
0.0
 10
5.2568
 20
-14.8299
 30
0.0
 10
5.2568
 20
-14.8299
 30
0.0
 10
5.2568
 20
-14.8299
 30
0.0
 10
5.2568
 20
-14.8299
 30
0.0
 10
4.5513
 20
-14.8299
 30
0.0
 10
4.5513
 20
-14.8299
 30
0.0
 10
4.5513
 20
-14.8299
 30
0.0
 10
3.1825
 20
-14.8299
 30
0.0
 10
4.487
 20
-14.1779
 30
0.0
 10
2.0818
 20
-14.1243
 30
0.0
 10
2.0818
 20
-14.1243
 30
0.0
 10
2.0818
 20
-14.1243
 30
0.0
 10
2.0818
 20
-17.2993
 30
0.0
 10
2.0818
 20
-17.2993
 30
0.0
 10
2.0818
 20
-17.2993
 30
0.0
 10
2.0818
 20
-17.2993
 30
0.0
 10
8.431800000000001
 20
-17.2993
 30
0.0
 10
8.431800000000001
 20
-17.2993
 30
0.0
 10
8.431800000000001
 20
-17.2993
 30
0.0
 10
8.431800000000001
 20
-17.2993
 30
0.0
 10
8.431800000000001
 20
-21.1799
 30
0.0
 10
8.431800000000001
 20
-21.1799
 30
0.0
 10
8.431800000000001
 20
-21.1799
 30
0.0
 10
8.431800000000001
 20
-21.1799
 30
0.0
 10
-2.8571
 20
-21.1799
 30
0.0
 10
-2.8571
 20
-21.1799
 30
0.0
 10
-2.8571
 20
-21.1799
 30
0.0
 10
-2.8571
 20
-21.1799
 30
0.0
 10
-2.8571
 20
-5.3049
 30
0.0
 10
-2.8571
 20
-5.3049
 30
0.0
 10
-2.8571
 20
-5.3049
 30
0.0
 10
-2.8571
 20
-5.3049
 30
0.0
 10
7.7262
 20
-5.3049
 30
0.0
 10
7.7262
 20
-5.3049
 30
0.0
 10
7.7262
 20
-5.3049
 30
0.0
 10
7.7262
 20
-5.3049
 30
0.0
 10
7.7262
 20
-8.832700000000001
 30
0.0
 10
7.7262
 20
-8.832700000000001
 30
0.0
 10
7.7262
 20
-8.832700000000001
 30
0.0
 10
7.7262
 20
-8.832700000000001
 30
0.0
 10
2.0818
 20
-8.832700000000001
 30
0.0
 10
2.0818
 20
-8.832700000000001
 30
0.0
 10
2.0818
 20
-8.832700000000001
 30
0.0
 10
2.0818
 20
-8.832700000000001
 30
0.0
 10
2.0818
 20
-12.3604
 30
0.0
 10
2.0818
 20
-12.3604
 30
0.0
  0
SPLINE
  5
8F
330
1F
100
AcDbEntity
  8
Capa 1
 62
   254
100
AcDbSpline
210
0.0
220
0.0
230
1.0
 70
    11
 71
     3
 72
    76
 73
    72
 74
     0
 42
0.0000000001
 43
0.0000000001
 40
0.0
 40
0.0
 40
0.0
 40
0.0
 40
0.0555555555555556
 40
0.0555555555555556
 40
0.0555555555555556
 40
0.0555555555555556
 40
0.1111111111111111
 40
0.1111111111111111
 40
0.1111111111111111
 40
0.1111111111111111
 40
0.1666666666666667
 40
0.1666666666666667
 40
0.1666666666666667
 40
0.1666666666666667
 40
0.2222222222222222
 40
0.2222222222222222
 40
0.2222222222222222
 40
0.2222222222222222
 40
0.2777777777777778
 40
0.2777777777777778
 40
0.2777777777777778
 40
0.2777777777777778
 40
0.3333333333333334
 40
0.3333333333333334
 40
0.3333333333333334
 40
0.3333333333333334
 40
0.388888888888889
 40
0.388888888888889
 40
0.388888888888889
 40
0.388888888888889
 40
0.4444444444444445
 40
0.4444444444444445
 40
0.4444444444444445
 40
0.4444444444444445
 40
0.5000000000000001
 40
0.5000000000000001
 40
0.5000000000000001
 40
0.5000000000000001
 40
0.5555555555555557
 40
0.5555555555555557
 40
0.5555555555555557
 40
0.5555555555555557
 40
0.6111111111111113
 40
0.6111111111111113
 40
0.6111111111111113
 40
0.6111111111111113
 40
0.6666666666666669
 40
0.6666666666666669
 40
0.6666666666666669
 40
0.6666666666666669
 40
0.7222222222222224
 40
0.7222222222222224
 40
0.7222222222222224
 40
0.7222222222222224
 40
0.777777777777778
 40
0.777777777777778
 40
0.777777777777778
 40
0.777777777777778
 40
0.8333333333333336
 40
0.8333333333333336
 40
0.8333333333333336
 40
0.8333333333333336
 40
0.8888888888888892
 40
0.8888888888888892
 40
0.8888888888888892
 40
0.8888888888888892
 40
0.9444444444444448
 40
0.9444444444444448
 40
0.9444444444444448
 40
0.9444444444444448
 40
1.0
 40
1.0
 40
1.0
 40
1.0
 10
-12.7348
 20
-15.8882
 30
0.0
 10
-12.7348
 20
-15.8882
 30
0.0
 10
-12.7348
 20
-21.8854
 30
0.0
 10
-12.7348
 20
-21.8854
 30
0.0
 10
-12.7348
 20
-21.8854
 30
0.0
 10
-12.7348
 20
-21.8854
 30
0.0
 10
-17.3209
 20
-21.8854
 30
0.0
 10
-17.3209
 20
-21.8854
 30
0.0
 10
-17.3209
 20
-21.8854
 30
0.0
 10
-17.3209
 20
-21.8854
 30
0.0
 10
-17.9964
 20
-21.8668
 30
0.0
 10
-17.9964
 20
-21.8668
 30
0.0
 10
-17.9964
 20
-21.8668
 30
0.0
 10
-17.9964
 20
-21.8668
 30
0.0
 10
-18.3793
 20
-21.1799
 30
0.0
 10
-18.3793
 20
-21.1799
 30
0.0
 10
-18.3793
 20
-21.1799
 30
0.0
 10
-19.323
 20
-19.6925
 30
0.0
 10
-18.7321
 20
-7.8681
 30
0.0
 10
-18.7321
 20
-4.952100000000001
 30
0.0
 10
-18.7321
 20
-4.952100000000001
 30
0.0
 10
-18.7321
 20
-4.952100000000001
 30
0.0
 10
-13.0876
 20
-4.952100000000001
 30
0.0
 10
-13.0876
 20
-4.952100000000001
 30
0.0
 10
-13.0876
 20
-4.952100000000001
 30
0.0
 10
-13.3294
 20
-5.3825
 30
0.0
 10
-13.4404
 20
-5.329400000000001
 30
0.0
 10
-13.4404
 20
-6.010400000000001
 30
0.0
 10
-13.4404
 20
-6.010400000000001
 30
0.0
 10
-13.4404
 20
-6.010400000000001
 30
0.0
 10
-13.4404
 20
-12.0077
 30
0.0
 10
-13.4404
 20
-12.0077
 30
0.0
 10
-13.4404
 20
-12.0077
 30
0.0
 10
-11.7787
 20
-11.8259
 30
0.0
 10
-11.2953
 20
-9.9899
 30
0.0
 10
-10.6206
 20
-8.830300000000001
 30
0.0
 10
-10.6206
 20
-8.830300000000001
 30
0.0
 10
-9.9602
 20
-7.695300000000001
 30
0.0
 10
-8.823
 20
-6.3319
 30
0.0
 10
-8.5015
 20
-4.952100000000001
 30
0.0
 10
-8.5015
 20
-4.952100000000001
 30
0.0
 10
-8.5015
 20
-4.952100000000001
 30
0.0
 10
-4.9737
 20
-4.952100000000001
 30
0.0
 10
-4.9737
 20
-4.952100000000001
 30
0.0
 10
-4.9737
 20
-4.952100000000001
 30
0.0
 10
-3.6249
 20
-4.952100000000001
 30
0.0
 10
-4.8453
 20
-4.8438
 30
0.0
 10
-3.8165
 20
-5.372500000000001
 30
0.0
 10
-3.8165
 20
-5.372500000000001
 30
0.0
 10
-3.8165
 20
-5.372500000000001
 30
0.0
 10
-8.9787
 20
-12.8018
 30
0.0
 10
-8.9787
 20
-12.8018
 30
0.0
 10
-8.9787
 20
-12.8018
 30
0.0
 10
-8.9787
 20
-12.8018
 30
0.0
 10
-3.2351
 20
-20.7613
 30
0.0
 10
-3.2351
 20
-20.7613
 30
0.0
 10
-3.2351
 20
-20.7613
 30
0.0
 10
-3.2351
 20
-20.7613
 30
0.0
 10
-4.2682
 20
-21.1799
 30
0.0
 10
-4.2682
 20
-21.1799
 30
0.0
 10
-4.2682
 20
-21.1799
 30
0.0
 10
-4.2682
 20
-21.1799
 30
0.0
 10
-4.9855
 20
-21.1015
 30
0.0
 10
-4.9855
 20
-21.1015
 30
0.0
 10
-4.9855
 20
-21.1015
 30
0.0
 10
-4.9855
 20
-21.1015
 30
0.0
 10
-8.1487
 20
-21.5326
 30
0.0
 10
-8.1487
 20
-21.5326
 30
0.0
 10
-8.1487
 20
-21.5326
 30
0.0
 10
-9.448700000000001
 20
-21.7276
 30
0.0
 10
-11.8228
 20
-16.9374
 30
0.0
 10
-12.7348
 20
-15.8882
 30
0.0
  0
SPLINE
  5
90
330
1F
100
AcDbEntity
  8
Capa 1
 62
   254
100
AcDbSpline
210
0.0
220
0.0
230
1.0
 70
    11
 71
     3
 72
    48
 73
    44
 74
     0
 42
0.0000000001
 43
0.0000000001
 40
0.0
 40
0.0
 40
0.0
 40
0.0
 40
0.0909090909090909
 40
0.0909090909090909
 40
0.0909090909090909
 40
0.0909090909090909
 40
0.1818181818181818
 40
0.1818181818181818
 40
0.1818181818181818
 40
0.1818181818181818
 40
0.2727272727272727
 40
0.2727272727272727
 40
0.2727272727272727
 40
0.2727272727272727
 40
0.3636363636363637
 40
0.3636363636363637
 40
0.3636363636363637
 40
0.3636363636363637
 40
0.4545454545454546
 40
0.4545454545454546
 40
0.4545454545454546
 40
0.4545454545454546
 40
0.5454545454545455
 40
0.5454545454545455
 40
0.5454545454545455
 40
0.5454545454545455
 40
0.6363636363636365
 40
0.6363636363636365
 40
0.6363636363636365
 40
0.6363636363636365
 40
0.7272727272727274
 40
0.7272727272727274
 40
0.7272727272727274
 40
0.7272727272727274
 40
0.8181818181818183
 40
0.8181818181818183
 40
0.8181818181818183
 40
0.8181818181818183
 40
0.9090909090909093
 40
0.9090909090909093
 40
0.9090909090909093
 40
0.9090909090909093
 40
1.0
 40
1.0
 40
1.0
 40
1.0
 10
49.354
 20
-5.6577
 30
0.0
 10
49.354
 20
-5.6577
 30
0.0
 10
49.354
 20
-21.1799
 30
0.0
 10
49.354
 20
-21.1799
 30
0.0
 10
49.354
 20
-21.1799
 30
0.0
 10
49.354
 20
-21.1799
 30
0.0
 10
45.98280000000001
 20
-21.0562
 30
0.0
 10
45.98280000000001
 20
-21.0562
 30
0.0
 10
45.98280000000001
 20
-21.0562
 30
0.0
 10
45.98280000000001
 20
-21.0562
 30
0.0
 10
39.4762
 20
-13.066
 30
0.0
 10
39.4762
 20
-13.066
 30
0.0
 10
39.4762
 20
-13.066
 30
0.0
 10
39.4762
 20
-13.066
 30
0.0
 10
39.4762
 20
-21.1799
 30
0.0
 10
39.4762
 20
-21.1799
 30
0.0
 10
39.4762
 20
-21.1799
 30
0.0
 10
39.4762
 20
-21.1799
 30
0.0
 10
35.5957
 20
-21.1799
 30
0.0
 10
35.5957
 20
-21.1799
 30
0.0
 10
35.5957
 20
-21.1799
 30
0.0
 10
35.5957
 20
-21.1799
 30
0.0
 10
35.5957
 20
-4.5993
 30
0.0
 10
35.5957
 20
-4.5993
 30
0.0
 10
35.5957
 20
-4.5993
 30
0.0
 10
35.5957
 20
-4.5993
 30
0.0
 10
39.6349
 20
-4.7492
 30
0.0
 10
39.6349
 20
-4.7492
 30
0.0
 10
39.6349
 20
-4.7492
 30
0.0
 10
39.6349
 20
-4.7492
 30
0.0
 10
45.8262
 20
-12.3604
 30
0.0
 10
45.8262
 20
-12.3604
 30
0.0
 10
45.8262
 20
-12.3604
 30
0.0
 10
45.8262
 20
-12.3604
 30
0.0
 10
45.8262
 20
-4.5993
 30
0.0
 10
45.8262
 20
-4.5993
 30
0.0
 10
45.8262
 20
-4.5993
 30
0.0
 10
45.8262
 20
-4.5993
 30
0.0
 10
49.7068
 20
-4.5993
 30
0.0
 10
49.7068
 20
-4.5993
 30
0.0
 10
49.7068
 20
-4.5993
 30
0.0
 10
49.465
 20
-5.0297
 30
0.0
 10
49.354
 20
-4.9767
 30
0.0
 10
49.354
 20
-5.6577
 30
0.0
  0
SPLINE
  5
91
330
1F
100
AcDbEntity
  8
Capa 1
 62
   254
100
AcDbSpline
210
0.0
220
0.0
230
1.0
 70
    11
 71
     3
 72
    20
 73
    16
 74
     0
 42
0.0000000001
 43
0.0000000001
 40
0.0
 40
0.0
 40
0.0
 40
0.0
 40
0.25
 40
0.25
 40
0.25
 40
0.25
 40
0.5
 40
0.5
 40
0.5
 40
0.5
 40
0.75
 40
0.75
 40
0.75
 40
0.75
 40
1.0
 40
1.0
 40
1.0
 40
1.0
 10
-58.5959
 20
-42.3465
 30
0.0
 10
-58.5959
 20
-42.3465
 30
0.0
 10
63.11230000000001
 20
-42.3465
 30
0.0
 10
63.11230000000001
 20
-42.3465
 30
0.0
 10
63.11230000000001
 20
-42.3465
 30
0.0
 10
63.11230000000001
 20
-42.3465
 30
0.0
 10
63.11230000000001
 20
16.5673
 30
0.0
 10
63.11230000000001
 20
16.5673
 30
0.0
 10
63.11230000000001
 20
16.5673
 30
0.0
 10
63.11230000000001
 20
16.5673
 30
0.0
 10
-58.5959
 20
16.5673
 30
0.0
 10
-58.5959
 20
16.5673
 30
0.0
 10
-58.5959
 20
16.5673
 30
0.0
 10
-58.5959
 20
16.5673
 30
0.0
 10
-58.5959
 20
-42.3465
 30
0.0
 10
-58.5959
 20
-42.3465
 30
0.0
  0
SPLINE
  5
92
330
1F
100
AcDbEntity
  8
Capa 1
 62
     7
100
AcDbSpline
210
0.0
220
0.0
230
1.0
 70
    11
 71
     3
 72
    40
 73
    36
 74
     0
 42
0.0000000001
 43
0.0000000001
 40
0.0
 40
0.0
 40
0.0
 40
0.0
 40
0.1111111111111111
 40
0.1111111111111111
 40
0.1111111111111111
 40
0.1111111111111111
 40
0.2222222222222222
 40
0.2222222222222222
 40
0.2222222222222222
 40
0.2222222222222222
 40
0.3333333333333333
 40
0.3333333333333333
 40
0.3333333333333333
 40
0.3333333333333333
 40
0.4444444444444444
 40
0.4444444444444444
 40
0.4444444444444444
 40
0.4444444444444444
 40
0.5555555555555556
 40
0.5555555555555556
 40
0.5555555555555556
 40
0.5555555555555556
 40
0.6666666666666667
 40
0.6666666666666667
 40
0.6666666666666667
 40
0.6666666666666667
 40
0.7777777777777779
 40
0.7777777777777779
 40
0.7777777777777779
 40
0.7777777777777779
 40
0.8888888888888891
 40
0.8888888888888891
 40
0.8888888888888891
 40
0.8888888888888891
 40
1.0
 40
1.0
 40
1.0
 40
1.0
 10
-31.0793
 20
-17.6521
 30
0.0
 10
-31.0793
 20
-17.6521
 30
0.0
 10
-26.4932
 20
-17.6521
 30
0.0
 10
-26.4932
 20
-17.6521
 30
0.0
 10
-26.4932
 20
-17.6521
 30
0.0
 10
-26.4932
 20
-17.6521
 30
0.0
 10
-25.7211
 20
-21.1639
 30
0.0
 10
-25.7211
 20
-21.1639
 30
0.0
 10
-25.7211
 20
-21.1639
 30
0.0
 10
-25.7211
 20
-21.1639
 30
0.0
 10
-19.4376
 20
-21.1799
 30
0.0
 10
-19.4376
 20
-21.1799
 30
0.0
 10
-19.4376
 20
-21.1799
 30
0.0
 10
-19.8887
 20
-20.2397
 30
0.0
 10
-24.6711
 20
-5.2984
 30
0.0
 10
-24.7293
 20
-4.5993
 30
0.0
 10
-24.7293
 20
-4.5993
 30
0.0
 10
-24.7293
 20
-4.5993
 30
0.0
 10
-31.0793
 20
-4.5993
 30
0.0
 10
-31.0793
 20
-4.5993
 30
0.0
 10
-31.0793
 20
-4.5993
 30
0.0
 10
-31.1107
 20
-6.0103
 30
0.0
 10
-32.7868
 20
-10.6568
 30
0.0
 10
-33.3252
 20
-12.5839
 30
0.0
 10
-33.3252
 20
-12.5839
 30
0.0
 10
-34.1814
 20
-15.6481
 30
0.0
 10
-34.9598
 20
-17.2982
 30
0.0
 10
-34.9598
 20
-21.1799
 30
0.0
 10
-34.9598
 20
-21.1799
 30
0.0
 10
-34.9598
 20
-21.1799
 30
0.0
 10
-31.0793
 20
-21.1799
 30
0.0
 10
-31.0793
 20
-21.1799
 30
0.0
 10
-31.0793
 20
-21.1799
 30
0.0
 10
-31.0793
 20
-21.1799
 30
0.0
 10
-31.0793
 20
-17.6521
 30
0.0
 10
-31.0793
 20
-17.6521
 30
0.0
  0
SPLINE
  5
93
330
1F
100
AcDbEntity
  8
Capa 1
 62
   254
100
AcDbSpline
210
0.0
220
0.0
230
1.0
 70
    11
 71
     3
 72
    24
 73
    20
 74
     0
 42
0.0000000001
 43
0.0000000001
 40
0.0
 40
0.0
 40
0.0
 40
0.0
 40
0.2
 40
0.2
 40
0.2
 40
0.2
 40
0.4
 40
0.4
 40
0.4
 40
0.4
 40
0.6000000000000001
 40
0.6000000000000001
 40
0.6000000000000001
 40
0.6000000000000001
 40
0.8
 40
0.8
 40
0.8
 40
0.8
 40
1.0
 40
1.0
 40
1.0
 40
1.0
 10
14.7818
 20
-13.066
 30
0.0
 10
15.9791
 20
-12.7871
 30
0.0
 10
17.604
 20
-12.3667
 30
0.0
 10
17.604
 20
-10.9493
 30
0.0
 10
17.604
 20
-10.9493
 30
0.0
 10
17.604
 20
-10.9493
 30
0.0
 10
17.604
 20
-9.891
 30
0.0
 10
17.604
 20
-9.891
 30
0.0
 10
17.604
 20
-9.891
 30
0.0
 10
17.604
 20
-9.065200000000001
 30
0.0
 10
17.0187
 20
-8.479900000000001
 30
0.0
 10
16.1929
 20
-8.479900000000001
 30
0.0
 10
16.1929
 20
-8.479900000000001
 30
0.0
 10
16.1929
 20
-8.479900000000001
 30
0.0
 10
14.7818
 20
-8.479900000000001
 30
0.0
 10
14.7818
 20
-8.479900000000001
 30
0.0
 10
14.7818
 20
-8.479900000000001
 30
0.0
 10
14.7818
 20
-8.479900000000001
 30
0.0
 10
14.7818
 20
-13.066
 30
0.0
 10
14.7818
 20
-13.066
 30
0.0
  0
SPLINE
  5
94
330
1F
100
AcDbEntity
  8
Capa 1
 62
     7
100
AcDbSpline
210
0.0
220
0.0
230
1.0
 70
    11
 71
     3
 72
    40
 73
    36
 74
     0
 42
0.0000000001
 43
0.0000000001
 40
0.0
 40
0.0
 40
0.0
 40
0.0
 40
0.1111111111111111
 40
0.1111111111111111
 40
0.1111111111111111
 40
0.1111111111111111
 40
0.2222222222222222
 40
0.2222222222222222
 40
0.2222222222222222
 40
0.2222222222222222
 40
0.3333333333333333
 40
0.3333333333333333
 40
0.3333333333333333
 40
0.3333333333333333
 40
0.4444444444444444
 40
0.4444444444444444
 40
0.4444444444444444
 40
0.4444444444444444
 40
0.5555555555555556
 40
0.5555555555555556
 40
0.5555555555555556
 40
0.5555555555555556
 40
0.6666666666666667
 40
0.6666666666666667
 40
0.6666666666666667
 40
0.6666666666666667
 40
0.7777777777777779
 40
0.7777777777777779
 40
0.7777777777777779
 40
0.7777777777777779
 40
0.8888888888888891
 40
0.8888888888888891
 40
0.8888888888888891
 40
0.8888888888888891
 40
1.0
 40
1.0
 40
1.0
 40
1.0
 10
30.6568
 20
-9.5382
 30
0.0
 10
30.6568
 20
-9.5382
 30
0.0
 10
30.6568
 20
-9.891
 30
0.0
 10
30.6568
 20
-9.891
 30
0.0
 10
30.6568
 20
-9.891
 30
0.0
 10
30.6568
 20
-9.891
 30
0.0
 10
30.6568
 20
-10.5965
 30
0.0
 10
30.6568
 20
-10.5965
 30
0.0
 10
30.6568
 20
-10.5965
 30
0.0
 10
30.2451
 20
-11.3745
 30
0.0
 10
30.349
 20
-12.0077
 30
0.0
 10
29.2457
 20
-12.0077
 30
0.0
 10
29.2457
 20
-12.0077
 30
0.0
 10
28.6721
 20
-12.0077
 30
0.0
 10
28.4233
 20
-11.0424
 30
0.0
 10
28.1873
 20
-10.5965
 30
0.0
 10
28.1873
 20
-10.5965
 30
0.0
 10
28.1873
 20
-10.5965
 30
0.0
 10
28.1873
 20
-9.891
 30
0.0
 10
28.1873
 20
-9.891
 30
0.0
 10
28.1873
 20
-9.891
 30
0.0
 10
28.1873
 20
-9.891
 30
0.0
 10
28.1873
 20
-8.832700000000001
 30
0.0
 10
28.1873
 20
-8.832700000000001
 30
0.0
 10
28.1873
 20
-8.832700000000001
 30
0.0
 10
28.1873
 20
-8.0069
 30
0.0
 10
28.7727
 20
-7.421600000000001
 30
0.0
 10
29.5984
 20
-7.421600000000001
 30
0.0
 10
29.5984
 20
-7.421600000000001
 30
0.0
 10
30.172
 20
-7.421600000000001
 30
0.0
 10
30.4208
 20
-8.386800000000001
 30
0.0
 10
30.6568
 20
-8.832700000000001
 30
0.0
 10
30.6568
 20
-8.832700000000001
 30
0.0
 10
30.6568
 20
-8.832700000000001
 30
0.0
 10
30.6568
 20
-9.5382
 30
0.0
 10
30.6568
 20
-9.5382
 30
0.0
  0
SPLINE
  5
95
330
1F
100
AcDbEntity
  8
Capa 1
 62
     7
100
AcDbSpline
210
0.0
220
0.0
230
1.0
 70
    11
 71
     3
 72
    44
 73
    40
 74
     0
 42
0.0000000001
 43
0.0000000001
 40
0.0
 40
0.0
 40
0.0
 40
0.0
 40
0.1
 40
0.1
 40
0.1
 40
0.1
 40
0.2
 40
0.2
 40
0.2
 40
0.2
 40
0.3
 40
0.3
 40
0.3
 40
0.3
 40
0.4
 40
0.4
 40
0.4
 40
0.4
 40
0.5
 40
0.5
 40
0.5
 40
0.5
 40
0.6
 40
0.6
 40
0.6
 40
0.6
 40
0.7
 40
0.7
 40
0.7
 40
0.7
 40
0.7999999999999999
 40
0.7999999999999999
 40
0.7999999999999999
 40
0.7999999999999999
 40
0.8999999999999999
 40
0.8999999999999999
 40
0.8999999999999999
 40
0.8999999999999999
 40
1.0
 40
1.0
 40
1.0
 40
1.0
 10
24.3068
 20
-10.9493
 30
0.0
 10
25.6543
 20
-13.496
 30
0.0
 10
26.3341
 20
-14.8299
 30
0.0
 10
30.304
 20
-14.8299
 30
0.0
 10
30.304
 20
-14.8299
 30
0.0
 10
30.304
 20
-14.8299
 30
0.0
 10
31.0096
 20
-14.8299
 30
0.0
 10
31.0096
 20
-14.8299
 30
0.0
 10
31.0096
 20
-14.8299
 30
0.0
 10
33.3566
 20
-13.588
 30
0.0
 10
33.3064
 20
-13.6285
 30
0.0
 10
34.5373
 20
-11.3021
 30
0.0
 10
34.5373
 20
-11.3021
 30
0.0
 10
34.5373
 20
-11.3021
 30
0.0
 10
34.5373
 20
-10.5965
 30
0.0
 10
34.5373
 20
-10.5965
 30
0.0
 10
34.5373
 20
-10.5965
 30
0.0
 10
34.5373
 20
-10.5965
 30
0.0
 10
34.5373
 20
-9.5382
 30
0.0
 10
34.5373
 20
-9.5382
 30
0.0
 10
34.5373
 20
-9.5382
 30
0.0
 10
34.5373
 20
-6.715500000000001
 30
0.0
 10
32.4212
 20
-4.5993
 30
0.0
 10
29.5984
 20
-4.5993
 30
0.0
 10
29.5984
 20
-4.5993
 30
0.0
 10
29.5984
 20
-4.5993
 30
0.0
 10
29.2457
 20
-4.5993
 30
0.0
 10
29.2457
 20
-4.5993
 30
0.0
 10
29.2457
 20
-4.5993
 30
0.0
 10
26.3093
 20
-4.5993
 30
0.0
 10
24.3068
 20
-6.6018
 30
0.0
 10
24.3068
 20
-9.5382
 30
0.0
 10
24.3068
 20
-9.5382
 30
0.0
 10
24.3068
 20
-9.5382
 30
0.0
 10
24.3068
 20
-10.2438
 30
0.0
 10
24.3068
 20
-10.2438
 30
0.0
 10
24.3068
 20
-10.2438
 30
0.0
 10
24.3068
 20
-10.2438
 30
0.0
 10
24.3068
 20
-10.9493
 30
0.0
 10
24.3068
 20
-10.9493
 30
0.0
  0
SPLINE
  5
96
330
1F
100
AcDbEntity
  8
Capa 1
 62
   254
100
AcDbSpline
210
0.0
220
0.0
230
1.0
 70
    11
 71
     3
 72
    44
 73
    40
 74
     0
 42
0.0000000001
 43
0.0000000001
 40
0.0
 40
0.0
 40
0.0
 40
0.0
 40
0.1
 40
0.1
 40
0.1
 40
0.1
 40
0.2
 40
0.2
 40
0.2
 40
0.2
 40
0.3
 40
0.3
 40
0.3
 40
0.3
 40
0.4
 40
0.4
 40
0.4
 40
0.4
 40
0.5
 40
0.5
 40
0.5
 40
0.5
 40
0.6
 40
0.6
 40
0.6
 40
0.6
 40
0.7
 40
0.7
 40
0.7
 40
0.7
 40
0.7999999999999999
 40
0.7999999999999999
 40
0.7999999999999999
 40
0.7999999999999999
 40
0.8999999999999999
 40
0.8999999999999999
 40
0.8999999999999999
 40
0.8999999999999999
 40
1.0
 40
1.0
 40
1.0
 40
1.0
 10
9.8429
 20
-21.1799
 30
0.0
 10
9.8429
 20
-21.1799
 30
0.0
 10
10.2258
 20
-21.8668
 30
0.0
 10
10.2258
 20
-21.8668
 30
0.0
 10
10.2258
 20
-21.8668
 30
0.0
 10
10.2258
 20
-21.8668
 30
0.0
 10
10.9012
 20
-21.8854
 30
0.0
 10
10.9012
 20
-21.8854
 30
0.0
 10
10.9012
 20
-21.8854
 30
0.0
 10
10.9012
 20
-21.8854
 30
0.0
 10
15.4874
 20
-21.8854
 30
0.0
 10
15.4874
 20
-21.8854
 30
0.0
 10
15.4874
 20
-21.8854
 30
0.0
 10
15.4874
 20
-21.8854
 30
0.0
 10
15.4874
 20
-16.5938
 30
0.0
 10
15.4874
 20
-16.5938
 30
0.0
 10
15.4874
 20
-16.5938
 30
0.0
 10
15.4874
 20
-16.5938
 30
0.0
 10
16.8985
 20
-16.5938
 30
0.0
 10
16.8985
 20
-16.5938
 30
0.0
 10
16.8985
 20
-16.5938
 30
0.0
 10
16.8985
 20
-16.5938
 30
0.0
 10
16.5457
 20
-15.8882
 30
0.0
 10
16.5457
 20
-15.8882
 30
0.0
 10
16.5457
 20
-15.8882
 30
0.0
 10
16.5457
 20
-15.8882
 30
0.0
 10
15.8401
 20
-15.8882
 30
0.0
 10
15.8401
 20
-15.8882
 30
0.0
 10
15.8401
 20
-15.8882
 30
0.0
 10
15.8401
 20
-15.8882
 30
0.0
 10
14.7818
 20
-15.8882
 30
0.0
 10
14.7818
 20
-15.8882
 30
0.0
 10
14.7818
 20
-15.8882
 30
0.0
 10
14.7818
 20
-15.8882
 30
0.0
 10
14.7818
 20
-21.1799
 30
0.0
 10
14.7818
 20
-21.1799
 30
0.0
 10
14.7818
 20
-21.1799
 30
0.0
 10
14.7818
 20
-21.1799
 30
0.0
 10
9.8429
 20
-21.1799
 30
0.0
 10
9.8429
 20
-21.1799
 30
0.0
  0
SPLINE
  5
97
330
1F
100
AcDbEntity
  8
Capa 1
 62
     7
100
AcDbSpline
210
0.0
220
0.0
230
1.0
 70
    11
 71
     3
 72
    60
 73
    56
 74
     0
 42
0.0000000001
 43
0.0000000001
 40
0.0
 40
0.0
 40
0.0
 40
0.0
 40
0.0714285714285714
 40
0.0714285714285714
 40
0.0714285714285714
 40
0.0714285714285714
 40
0.1428571428571429
 40
0.1428571428571429
 40
0.1428571428571429
 40
0.1428571428571429
 40
0.2142857142857143
 40
0.2142857142857143
 40
0.2142857142857143
 40
0.2142857142857143
 40
0.2857142857142857
 40
0.2857142857142857
 40
0.2857142857142857
 40
0.2857142857142857
 40
0.3571428571428571
 40
0.3571428571428571
 40
0.3571428571428571
 40
0.3571428571428571
 40
0.4285714285714285
 40
0.4285714285714285
 40
0.4285714285714285
 40
0.4285714285714285
 40
0.4999999999999999
 40
0.4999999999999999
 40
0.4999999999999999
 40
0.4999999999999999
 40
0.5714285714285713
 40
0.5714285714285713
 40
0.5714285714285713
 40
0.5714285714285713
 40
0.6428571428571427
 40
0.6428571428571427
 40
0.6428571428571427
 40
0.6428571428571427
 40
0.7142857142857141
 40
0.7142857142857141
 40
0.7142857142857141
 40
0.7142857142857141
 40
0.7857142857142855
 40
0.7857142857142855
 40
0.7857142857142855
 40
0.7857142857142855
 40
0.8571428571428569
 40
0.8571428571428569
 40
0.8571428571428569
 40
0.8571428571428569
 40
0.9285714285714283
 40
0.9285714285714283
 40
0.9285714285714283
 40
0.9285714285714283
 40
1.0
 40
1.0
 40
1.0
 40
1.0
 10
-50.1292
 20
-12.3604
 30
0.0
 10
-49.29980000000001
 20
-13.3147
 30
0.0
 10
-46.4581
 20
-19.0632
 30
0.0
 10
-45.89590000000001
 20
-19.0632
 30
0.0
 10
-45.89590000000001
 20
-19.0632
 30
0.0
 10
-45.25400000000001
 20
-19.0632
 30
0.0
 10
-42.9335
 20
-13.6444
 30
0.0
 10
-41.66260000000001
 20
-12.7132
 30
0.0
 10
-41.66260000000001
 20
-12.7132
 30
0.0
 10
-41.66260000000001
 20
-12.7132
 30
0.0
 10
-41.66260000000001
 20
-21.1799
 30
0.0
 10
-41.66260000000001
 20
-21.1799
 30
0.0
 10
-41.66260000000001
 20
-21.1799
 30
0.0
 10
-41.66260000000001
 20
-21.1799
 30
0.0
 10
-36.0181
 20
-21.1799
 30
0.0
 10
-36.0181
 20
-21.1799
 30
0.0
 10
-36.0181
 20
-21.1799
 30
0.0
 10
-36.0181
 20
-21.1799
 30
0.0
 10
-36.0181
 20
-3.8938
 30
0.0
 10
-36.0181
 20
-3.8938
 30
0.0
 10
-36.0181
 20
-3.8938
 30
0.0
 10
-36.0181
 20
-3.8938
 30
0.0
 10
-40.2515
 20
-3.8938
 30
0.0
 10
-40.2515
 20
-3.8938
 30
0.0
 10
-40.2515
 20
-3.8938
 30
0.0
 10
-40.2515
 20
-3.8938
 30
0.0
 10
-40.957
 20
-3.8938
 30
0.0
 10
-40.957
 20
-3.8938
 30
0.0
 10
-40.957
 20
-3.8938
 30
0.0
 10
-40.957
 20
-3.8938
 30
0.0
 10
-44.6809
 20
-11.9175
 30
0.0
 10
-44.6809
 20
-11.9175
 30
0.0
 10
-44.6809
 20
-11.9175
 30
0.0
 10
-44.6809
 20
-11.9175
 30
0.0
 10
-45.1904
 20
-12.0077
 30
0.0
 10
-45.1904
 20
-12.0077
 30
0.0
 10
-45.1904
 20
-12.0077
 30
0.0
 10
-45.3474
 20
-10.1204
 30
0.0
 10
-48.1691
 20
-5.9499
 30
0.0
 10
-48.7181
 20
-3.8938
 30
0.0
 10
-48.7181
 20
-3.8938
 30
0.0
 10
-48.7181
 20
-3.8938
 30
0.0
 10
-54.00980000000001
 20
-3.8938
 30
0.0
 10
-54.00980000000001
 20
-3.8938
 30
0.0
 10
-54.00980000000001
 20
-3.8938
 30
0.0
 10
-54.00980000000001
 20
-3.8938
 30
0.0
 10
-54.00980000000001
 20
-21.1799
 30
0.0
 10
-54.00980000000001
 20
-21.1799
 30
0.0
 10
-54.00980000000001
 20
-21.1799
 30
0.0
 10
-54.00980000000001
 20
-21.1799
 30
0.0
 10
-50.1292
 20
-21.1799
 30
0.0
 10
-50.1292
 20
-21.1799
 30
0.0
 10
-50.1292
 20
-21.1799
 30
0.0
 10
-50.1292
 20
-21.1799
 30
0.0
 10
-50.1292
 20
-12.3604
 30
0.0
 10
-50.1292
 20
-12.3604
 30
0.0
  0
SPLINE
  5
98
330
1F
100
AcDbEntity
  8
Capa 1
 62
     7
100
AcDbSpline
210
0.0
220
0.0
230
1.0
 70
    11
 71
     3
 72
    72
 73
    68
 74
     0
 42
0.0000000001
 43
0.0000000001
 40
0.0
 40
0.0
 40
0.0
 40
0.0
 40
0.0588235294117647
 40
0.0588235294117647
 40
0.0588235294117647
 40
0.0588235294117647
 40
0.1176470588235294
 40
0.1176470588235294
 40
0.1176470588235294
 40
0.1176470588235294
 40
0.1764705882352941
 40
0.1764705882352941
 40
0.1764705882352941
 40
0.1764705882352941
 40
0.2352941176470588
 40
0.2352941176470588
 40
0.2352941176470588
 40
0.2352941176470588
 40
0.2941176470588235
 40
0.2941176470588235
 40
0.2941176470588235
 40
0.2941176470588235
 40
0.3529411764705883
 40
0.3529411764705883
 40
0.3529411764705883
 40
0.3529411764705883
 40
0.411764705882353
 40
0.411764705882353
 40
0.411764705882353
 40
0.411764705882353
 40
0.4705882352941177
 40
0.4705882352941177
 40
0.4705882352941177
 40
0.4705882352941177
 40
0.5294117647058824
 40
0.5294117647058824
 40
0.5294117647058824
 40
0.5294117647058824
 40
0.5882352941176471
 40
0.5882352941176471
 40
0.5882352941176471
 40
0.5882352941176471
 40
0.6470588235294118
 40
0.6470588235294118
 40
0.6470588235294118
 40
0.6470588235294118
 40
0.7058823529411765
 40
0.7058823529411765
 40
0.7058823529411765
 40
0.7058823529411765
 40
0.7647058823529412
 40
0.7647058823529412
 40
0.7647058823529412
 40
0.7647058823529412
 40
0.823529411764706
 40
0.823529411764706
 40
0.823529411764706
 40
0.823529411764706
 40
0.8823529411764707
 40
0.8823529411764707
 40
0.8823529411764707
 40
0.8823529411764707
 40
0.9411764705882354
 40
0.9411764705882354
 40
0.9411764705882354
 40
0.9411764705882354
 40
1.0
 40
1.0
 40
1.0
 40
1.0
 10
-18.3793
 20
-21.1799
 30
0.0
 10
-18.3793
 20
-21.1799
 30
0.0
 10
-13.4404
 20
-21.1799
 30
0.0
 10
-13.4404
 20
-21.1799
 30
0.0
 10
-13.4404
 20
-21.1799
 30
0.0
 10
-13.4404
 20
-21.1799
 30
0.0
 10
-13.3274
 20
-14.7667
 30
0.0
 10
-13.3274
 20
-14.7667
 30
0.0
 10
-13.3274
 20
-14.7667
 30
0.0
 10
-13.3274
 20
-14.7667
 30
0.0
 10
-12.7348
 20
-15.8882
 30
0.0
 10
-12.7348
 20
-15.8882
 30
0.0
 10
-12.7348
 20
-15.8882
 30
0.0
 10
-11.8228
 20
-16.9374
 30
0.0
 10
-9.448700000000001
 20
-21.7276
 30
0.0
 10
-8.1487
 20
-21.5326
 30
0.0
 10
-8.1487
 20
-21.5326
 30
0.0
 10
-8.1487
 20
-21.5326
 30
0.0
 10
-4.9855
 20
-21.1015
 30
0.0
 10
-4.9855
 20
-21.1015
 30
0.0
 10
-4.9855
 20
-21.1015
 30
0.0
 10
-4.9855
 20
-21.1015
 30
0.0
 10
-4.2682
 20
-21.1799
 30
0.0
 10
-4.2682
 20
-21.1799
 30
0.0
 10
-4.2682
 20
-21.1799
 30
0.0
 10
-4.2682
 20
-21.1799
 30
0.0
 10
-3.2351
 20
-20.7613
 30
0.0
 10
-3.2351
 20
-20.7613
 30
0.0
 10
-3.2351
 20
-20.7613
 30
0.0
 10
-3.2351
 20
-20.7613
 30
0.0
 10
-8.9787
 20
-12.8018
 30
0.0
 10
-8.9787
 20
-12.8018
 30
0.0
 10
-8.9787
 20
-12.8018
 30
0.0
 10
-8.9787
 20
-12.8018
 30
0.0
 10
-3.8165
 20
-5.372500000000001
 30
0.0
 10
-3.8165
 20
-5.372500000000001
 30
0.0
 10
-3.8165
 20
-5.372500000000001
 30
0.0
 10
-4.8453
 20
-4.8438
 30
0.0
 10
-3.6249
 20
-4.952100000000001
 30
0.0
 10
-4.9737
 20
-4.952100000000001
 30
0.0
 10
-4.9737
 20
-4.952100000000001
 30
0.0
 10
-4.9737
 20
-4.952100000000001
 30
0.0
 10
-8.5015
 20
-4.952100000000001
 30
0.0
 10
-8.5015
 20
-4.952100000000001
 30
0.0
 10
-8.5015
 20
-4.952100000000001
 30
0.0
 10
-8.823
 20
-6.3319
 30
0.0
 10
-9.9602
 20
-7.695300000000001
 30
0.0
 10
-10.6206
 20
-8.830300000000001
 30
0.0
 10
-10.6206
 20
-8.830300000000001
 30
0.0
 10
-11.2953
 20
-9.9899
 30
0.0
 10
-11.7787
 20
-11.8259
 30
0.0
 10
-13.4404
 20
-12.0077
 30
0.0
 10
-13.4404
 20
-12.0077
 30
0.0
 10
-13.4404
 20
-12.0077
 30
0.0
 10
-13.4404
 20
-6.010400000000001
 30
0.0
 10
-13.4404
 20
-6.010400000000001
 30
0.0
 10
-13.4404
 20
-6.010400000000001
 30
0.0
 10
-13.4404
 20
-5.329400000000001
 30
0.0
 10
-13.3294
 20
-5.3825
 30
0.0
 10
-13.0876
 20
-4.952100000000001
 30
0.0
 10
-13.0876
 20
-4.952100000000001
 30
0.0
 10
-13.0876
 20
-4.952100000000001
 30
0.0
 10
-18.7321
 20
-4.952100000000001
 30
0.0
 10
-18.7321
 20
-4.952100000000001
 30
0.0
 10
-18.7321
 20
-4.952100000000001
 30
0.0
 10
-18.7321
 20
-7.8681
 30
0.0
 10
-19.323
 20
-19.6925
 30
0.0
 10
-18.3793
 20
-21.1799
 30
0.0
  0
SPLINE
  5
99
330
1F
100
AcDbEntity
  8
Capa 1
 62
     7
100
AcDbSpline
210
0.0
220
0.0
230
1.0
 70
    11
 71
     3
 72
    68
 73
    64
 74
     0
 42
0.0000000001
 43
0.0000000001
 40
0.0
 40
0.0
 40
0.0
 40
0.0
 40
0.0625
 40
0.0625
 40
0.0625
 40
0.0625
 40
0.125
 40
0.125
 40
0.125
 40
0.125
 40
0.1875
 40
0.1875
 40
0.1875
 40
0.1875
 40
0.25
 40
0.25
 40
0.25
 40
0.25
 40
0.3125
 40
0.3125
 40
0.3125
 40
0.3125
 40
0.375
 40
0.375
 40
0.375
 40
0.375
 40
0.4375
 40
0.4375
 40
0.4375
 40
0.4375
 40
0.5
 40
0.5
 40
0.5
 40
0.5
 40
0.5625
 40
0.5625
 40
0.5625
 40
0.5625
 40
0.625
 40
0.625
 40
0.625
 40
0.625
 40
0.6875
 40
0.6875
 40
0.6875
 40
0.6875
 40
0.75
 40
0.75
 40
0.75
 40
0.75
 40
0.8125
 40
0.8125
 40
0.8125
 40
0.8125
 40
0.875
 40
0.875
 40
0.875
 40
0.875
 40
0.9375
 40
0.9375
 40
0.9375
 40
0.9375
 40
1.0
 40
1.0
 40
1.0
 40
1.0
 10
2.0818
 20
-8.832700000000001
 30
0.0
 10
2.0818
 20
-8.832700000000001
 30
0.0
 10
7.7262
 20
-8.832700000000001
 30
0.0
 10
7.7262
 20
-8.832700000000001
 30
0.0
 10
7.7262
 20
-8.832700000000001
 30
0.0
 10
7.7262
 20
-8.832700000000001
 30
0.0
 10
7.7262
 20
-5.3049
 30
0.0
 10
7.7262
 20
-5.3049
 30
0.0
 10
7.7262
 20
-5.3049
 30
0.0
 10
7.7262
 20
-5.3049
 30
0.0
 10
-2.8571
 20
-5.3049
 30
0.0
 10
-2.8571
 20
-5.3049
 30
0.0
 10
-2.8571
 20
-5.3049
 30
0.0
 10
-2.8571
 20
-5.3049
 30
0.0
 10
-2.8571
 20
-21.1799
 30
0.0
 10
-2.8571
 20
-21.1799
 30
0.0
 10
-2.8571
 20
-21.1799
 30
0.0
 10
-2.8571
 20
-21.1799
 30
0.0
 10
8.431800000000001
 20
-21.1799
 30
0.0
 10
8.431800000000001
 20
-21.1799
 30
0.0
 10
8.431800000000001
 20
-21.1799
 30
0.0
 10
8.431800000000001
 20
-21.1799
 30
0.0
 10
8.431800000000001
 20
-17.2993
 30
0.0
 10
8.431800000000001
 20
-17.2993
 30
0.0
 10
8.431800000000001
 20
-17.2993
 30
0.0
 10
8.431800000000001
 20
-17.2993
 30
0.0
 10
2.0818
 20
-17.2993
 30
0.0
 10
2.0818
 20
-17.2993
 30
0.0
 10
2.0818
 20
-17.2993
 30
0.0
 10
2.0818
 20
-17.2993
 30
0.0
 10
2.0818
 20
-14.1243
 30
0.0
 10
2.0818
 20
-14.1243
 30
0.0
 10
2.0818
 20
-14.1243
 30
0.0
 10
4.487
 20
-14.1779
 30
0.0
 10
3.1825
 20
-14.8299
 30
0.0
 10
4.5513
 20
-14.8299
 30
0.0
 10
4.5513
 20
-14.8299
 30
0.0
 10
4.5513
 20
-14.8299
 30
0.0
 10
5.2568
 20
-14.8299
 30
0.0
 10
5.2568
 20
-14.8299
 30
0.0
 10
5.2568
 20
-14.8299
 30
0.0
 10
5.2568
 20
-14.8299
 30
0.0
 10
6.6576
 20
-14.105
 30
0.0
 10
6.6576
 20
-14.105
 30
0.0
 10
6.6576
 20
-14.105
 30
0.0
 10
6.6576
 20
-14.105
 30
0.0
 10
6.6679
 20
-13.4188
 30
0.0
 10
6.6679
 20
-13.4188
 30
0.0
 10
6.6679
 20
-13.4188
 30
0.0
 10
6.6679
 20
-13.4188
 30
0.0
 10
6.6679
 20
-13.066
 30
0.0
 10
6.6679
 20
-13.066
 30
0.0
 10
6.6679
 20
-13.066
 30
0.0
 10
6.6679
 20
-12.2434
 30
0.0
 10
5.7266
 20
-11.3021
 30
0.0
 10
4.904
 20
-11.3021
 30
0.0
 10
4.904
 20
-11.3021
 30
0.0
 10
3.5845
 20
-11.3021
 30
0.0
 10
2.8516
 20
-11.845
 30
0.0
 10
2.0818
 20
-12.3604
 30
0.0
 10
2.0818
 20
-12.3604
 30
0.0
 10
2.0818
 20
-12.3604
 30
0.0
 10
2.0818
 20
-8.832700000000001
 30
0.0
 10
2.0818
 20
-8.832700000000001
 30
0.0
  0
SPLINE
  5
9A
330
1F
100
AcDbEntity
  8
Capa 1
 62
     7
100
AcDbSpline
210
0.0
220
0.0
230
1.0
 70
    11
 71
     3
 72
    48
 73
    44
 74
     0
 42
0.0000000001
 43
0.0000000001
 40
0.0
 40
0.0
 40
0.0
 40
0.0
 40
0.0909090909090909
 40
0.0909090909090909
 40
0.0909090909090909
 40
0.0909090909090909
 40
0.1818181818181818
 40
0.1818181818181818
 40
0.1818181818181818
 40
0.1818181818181818
 40
0.2727272727272727
 40
0.2727272727272727
 40
0.2727272727272727
 40
0.2727272727272727
 40
0.3636363636363637
 40
0.3636363636363637
 40
0.3636363636363637
 40
0.3636363636363637
 40
0.4545454545454546
 40
0.4545454545454546
 40
0.4545454545454546
 40
0.4545454545454546
 40
0.5454545454545455
 40
0.5454545454545455
 40
0.5454545454545455
 40
0.5454545454545455
 40
0.6363636363636365
 40
0.6363636363636365
 40
0.6363636363636365
 40
0.6363636363636365
 40
0.7272727272727274
 40
0.7272727272727274
 40
0.7272727272727274
 40
0.7272727272727274
 40
0.8181818181818183
 40
0.8181818181818183
 40
0.8181818181818183
 40
0.8181818181818183
 40
0.9090909090909093
 40
0.9090909090909093
 40
0.9090909090909093
 40
0.9090909090909093
 40
1.0
 40
1.0
 40
1.0
 40
1.0
 10
49.354
 20
-5.6577
 30
0.0
 10
49.354
 20
-4.9767
 30
0.0
 10
49.465
 20
-5.0297
 30
0.0
 10
49.7068
 20
-4.5993
 30
0.0
 10
49.7068
 20
-4.5993
 30
0.0
 10
49.7068
 20
-4.5993
 30
0.0
 10
45.8262
 20
-4.5993
 30
0.0
 10
45.8262
 20
-4.5993
 30
0.0
 10
45.8262
 20
-4.5993
 30
0.0
 10
45.8262
 20
-4.5993
 30
0.0
 10
45.8262
 20
-12.3604
 30
0.0
 10
45.8262
 20
-12.3604
 30
0.0
 10
45.8262
 20
-12.3604
 30
0.0
 10
45.8262
 20
-12.3604
 30
0.0
 10
39.6349
 20
-4.7492
 30
0.0
 10
39.6349
 20
-4.7492
 30
0.0
 10
39.6349
 20
-4.7492
 30
0.0
 10
39.6349
 20
-4.7492
 30
0.0
 10
35.5957
 20
-4.5993
 30
0.0
 10
35.5957
 20
-4.5993
 30
0.0
 10
35.5957
 20
-4.5993
 30
0.0
 10
35.5957
 20
-4.5993
 30
0.0
 10
35.5957
 20
-21.1799
 30
0.0
 10
35.5957
 20
-21.1799
 30
0.0
 10
35.5957
 20
-21.1799
 30
0.0
 10
35.5957
 20
-21.1799
 30
0.0
 10
39.4762
 20
-21.1799
 30
0.0
 10
39.4762
 20
-21.1799
 30
0.0
 10
39.4762
 20
-21.1799
 30
0.0
 10
39.4762
 20
-21.1799
 30
0.0
 10
39.4762
 20
-13.066
 30
0.0
 10
39.4762
 20
-13.066
 30
0.0
 10
39.4762
 20
-13.066
 30
0.0
 10
39.4762
 20
-13.066
 30
0.0
 10
45.98280000000001
 20
-21.0562
 30
0.0
 10
45.98280000000001
 20
-21.0562
 30
0.0
 10
45.98280000000001
 20
-21.0562
 30
0.0
 10
45.98280000000001
 20
-21.0562
 30
0.0
 10
49.354
 20
-21.1799
 30
0.0
 10
49.354
 20
-21.1799
 30
0.0
 10
49.354
 20
-21.1799
 30
0.0
 10
49.354
 20
-21.1799
 30
0.0
 10
49.354
 20
-5.6577
 30
0.0
 10
49.354
 20
-5.6577
 30
0.0
  0
SPLINE
  5
9B
330
1F
100
AcDbEntity
  8
Capa 1
 62
   254
100
AcDbSpline
210
0.0
220
0.0
230
1.0
 70
    11
 71
     3
 72
    32
 73
    28
 74
     0
 42
0.0000000001
 43
0.0000000001
 40
0.0
 40
0.0
 40
0.0
 40
0.0
 40
0.1428571428571429
 40
0.1428571428571429
 40
0.1428571428571429
 40
0.1428571428571429
 40
0.2857142857142857
 40
0.2857142857142857
 40
0.2857142857142857
 40
0.2857142857142857
 40
0.4285714285714286
 40
0.4285714285714286
 40
0.4285714285714286
 40
0.4285714285714286
 40
0.5714285714285714
 40
0.5714285714285714
 40
0.5714285714285714
 40
0.5714285714285714
 40
0.7142857142857142
 40
0.7142857142857142
 40
0.7142857142857142
 40
0.7142857142857142
 40
0.857142857142857
 40
0.857142857142857
 40
0.857142857142857
 40
0.857142857142857
 40
1.0
 40
1.0
 40
1.0
 40
1.0
 10
-18.3793
 20
-21.1799
 30
0.0
 10
-18.3793
 20
-21.1799
 30
0.0
 10
-17.9964
 20
-21.8668
 30
0.0
 10
-17.9964
 20
-21.8668
 30
0.0
 10
-17.9964
 20
-21.8668
 30
0.0
 10
-17.9964
 20
-21.8668
 30
0.0
 10
-17.3209
 20
-21.8854
 30
0.0
 10
-17.3209
 20
-21.8854
 30
0.0
 10
-17.3209
 20
-21.8854
 30
0.0
 10
-17.3209
 20
-21.8854
 30
0.0
 10
-12.7348
 20
-21.8854
 30
0.0
 10
-12.7348
 20
-21.8854
 30
0.0
 10
-12.7348
 20
-21.8854
 30
0.0
 10
-12.7348
 20
-21.8854
 30
0.0
 10
-12.7348
 20
-15.8882
 30
0.0
 10
-12.7348
 20
-15.8882
 30
0.0
 10
-12.7348
 20
-15.8882
 30
0.0
 10
-12.7348
 20
-15.8882
 30
0.0
 10
-13.3274
 20
-14.7667
 30
0.0
 10
-13.3274
 20
-14.7667
 30
0.0
 10
-13.3274
 20
-14.7667
 30
0.0
 10
-13.3274
 20
-14.7667
 30
0.0
 10
-13.4404
 20
-21.1799
 30
0.0
 10
-13.4404
 20
-21.1799
 30
0.0
 10
-13.4404
 20
-21.1799
 30
0.0
 10
-13.4404
 20
-21.1799
 30
0.0
 10
-18.3793
 20
-21.1799
 30
0.0
 10
-18.3793
 20
-21.1799
 30
0.0
  0
SPLINE
  5
9C
330
1F
100
AcDbEntity
  8
Capa 1
 62
     7
100
AcDbSpline
210
0.0
220
0.0
230
1.0
 70
    11
 71
     3
 72
    24
 73
    20
 74
     0
 42
0.0000000001
 43
0.0000000001
 40
0.0
 40
0.0
 40
0.0
 40
0.0
 40
0.2
 40
0.2
 40
0.2
 40
0.2
 40
0.4
 40
0.4
 40
0.4
 40
0.4
 40
0.6000000000000001
 40
0.6000000000000001
 40
0.6000000000000001
 40
0.6000000000000001
 40
0.8
 40
0.8
 40
0.8
 40
0.8
 40
1.0
 40
1.0
 40
1.0
 40
1.0
 10
14.7818
 20
-8.479900000000001
 30
0.0
 10
14.7818
 20
-8.479900000000001
 30
0.0
 10
16.1929
 20
-8.479900000000001
 30
0.0
 10
16.1929
 20
-8.479900000000001
 30
0.0
 10
16.1929
 20
-8.479900000000001
 30
0.0
 10
17.0187
 20
-8.479900000000001
 30
0.0
 10
17.604
 20
-9.065200000000001
 30
0.0
 10
17.604
 20
-9.891
 30
0.0
 10
17.604
 20
-9.891
 30
0.0
 10
17.604
 20
-9.891
 30
0.0
 10
17.604
 20
-10.9493
 30
0.0
 10
17.604
 20
-10.9493
 30
0.0
 10
17.604
 20
-10.9493
 30
0.0
 10
17.604
 20
-12.3667
 30
0.0
 10
15.9791
 20
-12.7871
 30
0.0
 10
14.7818
 20
-13.066
 30
0.0
 10
14.7818
 20
-13.066
 30
0.0
 10
14.7818
 20
-13.066
 30
0.0
 10
14.7818
 20
-8.479900000000001
 30
0.0
 10
14.7818
 20
-8.479900000000001
 30
0.0
  0
SPLINE
  5
9D
330
1F
100
AcDbEntity
  8
Capa 1
 62
     7
100
AcDbSpline
210
0.0
220
0.0
230
1.0
 70
    11
 71
     3
 72
    72
 73
    68
 74
     0
 42
0.0000000001
 43
0.0000000001
 40
0.0
 40
0.0
 40
0.0
 40
0.0
 40
0.0588235294117647
 40
0.0588235294117647
 40
0.0588235294117647
 40
0.0588235294117647
 40
0.1176470588235294
 40
0.1176470588235294
 40
0.1176470588235294
 40
0.1176470588235294
 40
0.1764705882352941
 40
0.1764705882352941
 40
0.1764705882352941
 40
0.1764705882352941
 40
0.2352941176470588
 40
0.2352941176470588
 40
0.2352941176470588
 40
0.2352941176470588
 40
0.2941176470588235
 40
0.2941176470588235
 40
0.2941176470588235
 40
0.2941176470588235
 40
0.3529411764705883
 40
0.3529411764705883
 40
0.3529411764705883
 40
0.3529411764705883
 40
0.411764705882353
 40
0.411764705882353
 40
0.411764705882353
 40
0.411764705882353
 40
0.4705882352941177
 40
0.4705882352941177
 40
0.4705882352941177
 40
0.4705882352941177
 40
0.5294117647058824
 40
0.5294117647058824
 40
0.5294117647058824
 40
0.5294117647058824
 40
0.5882352941176471
 40
0.5882352941176471
 40
0.5882352941176471
 40
0.5882352941176471
 40
0.6470588235294118
 40
0.6470588235294118
 40
0.6470588235294118
 40
0.6470588235294118
 40
0.7058823529411765
 40
0.7058823529411765
 40
0.7058823529411765
 40
0.7058823529411765
 40
0.7647058823529412
 40
0.7647058823529412
 40
0.7647058823529412
 40
0.7647058823529412
 40
0.823529411764706
 40
0.823529411764706
 40
0.823529411764706
 40
0.823529411764706
 40
0.8823529411764707
 40
0.8823529411764707
 40
0.8823529411764707
 40
0.8823529411764707
 40
0.9411764705882354
 40
0.9411764705882354
 40
0.9411764705882354
 40
0.9411764705882354
 40
1.0
 40
1.0
 40
1.0
 40
1.0
 10
9.8429
 20
-21.1799
 30
0.0
 10
9.8429
 20
-21.1799
 30
0.0
 10
14.7818
 20
-21.1799
 30
0.0
 10
14.7818
 20
-21.1799
 30
0.0
 10
14.7818
 20
-21.1799
 30
0.0
 10
14.7818
 20
-21.1799
 30
0.0
 10
14.7818
 20
-15.8882
 30
0.0
 10
14.7818
 20
-15.8882
 30
0.0
 10
14.7818
 20
-15.8882
 30
0.0
 10
14.7818
 20
-15.8882
 30
0.0
 10
15.8401
 20
-15.8882
 30
0.0
 10
15.8401
 20
-15.8882
 30
0.0
 10
15.8401
 20
-15.8882
 30
0.0
 10
15.8401
 20
-15.8882
 30
0.0
 10
16.5457
 20
-15.8882
 30
0.0
 10
16.5457
 20
-15.8882
 30
0.0
 10
16.5457
 20
-15.8882
 30
0.0
 10
16.5457
 20
-15.8882
 30
0.0
 10
16.8985
 20
-16.5938
 30
0.0
 10
16.8985
 20
-16.5938
 30
0.0
 10
16.8985
 20
-16.5938
 30
0.0
 10
20.1755
 20
-18.7881
 30
0.0
 10
21.6721
 20
-22.2382
 30
0.0
 10
27.8346
 20
-22.2382
 30
0.0
 10
27.8346
 20
-22.2382
 30
0.0
 10
27.8346
 20
-22.2382
 30
0.0
 10
28.8929
 20
-22.2382
 30
0.0
 10
28.8929
 20
-22.2382
 30
0.0
 10
28.8929
 20
-22.2382
 30
0.0
 10
28.8929
 20
-22.2382
 30
0.0
 10
34.179
 20
-21.8257
 30
0.0
 10
34.179
 20
-21.8257
 30
0.0
 10
34.179
 20
-21.8257
 30
0.0
 10
34.179
 20
-21.8257
 30
0.0
 10
33.7534
 20
-18.7222
 30
0.0
 10
33.7534
 20
-18.7222
 30
0.0
 10
33.7534
 20
-18.7222
 30
0.0
 10
33.7534
 20
-18.7222
 30
0.0
 10
33.8318
 20
-16.5938
 30
0.0
 10
33.8318
 20
-16.5938
 30
0.0
 10
33.8318
 20
-16.5938
 30
0.0
 10
33.8318
 20
-16.5938
 30
0.0
 10
32.0859
 20
-17.0185
 30
0.0
 10
32.0859
 20
-17.0185
 30
0.0
 10
32.0859
 20
-17.0185
 30
0.0
 10
32.0859
 20
-17.0185
 30
0.0
 10
28.5516
 20
-17.3962
 30
0.0
 10
28.5516
 20
-17.3962
 30
0.0
 10
28.5516
 20
-17.3962
 30
0.0
 10
25.6175
 20
-17.6455
 30
0.0
 10
22.0901
 20
-15.9355
 30
0.0
 10
21.1318
 20
-14.1243
 30
0.0
 10
21.1318
 20
-14.1243
 30
0.0
 10
22.0363
 20
-12.7736
 30
0.0
 10
22.4603
 20
-12.4654
 30
0.0
 10
22.8957
 20
-10.5965
 30
0.0
 10
22.8957
 20
-10.5965
 30
0.0
 10
21.9119
 20
-6.374000000000001
 30
0.0
 10
20.7784
 20
-4.952100000000001
 30
0.0
 10
15.4874
 20
-4.952100000000001
 30
0.0
 10
15.4874
 20
-4.952100000000001
 30
0.0
 10
15.4874
 20
-4.952100000000001
 30
0.0
 10
9.4901
 20
-4.952100000000001
 30
0.0
 10
9.4901
 20
-4.952100000000001
 30
0.0
 10
9.4901
 20
-4.952100000000001
 30
0.0
 10
9.4901
 20
-7.8681
 30
0.0
 10
8.8992
 20
-19.6925
 30
0.0
 10
9.8429
 20
-21.1799
 30
0.0
  0
SPLINE
  5
9E
330
1F
100
AcDbEntity
  8
Capa 1
 62
   231
100
AcDbSpline
210
0.0
220
0.0
230
1.0
 70
    11
 71
     3
 72
    40
 73
    36
 74
     0
 42
0.0000000001
 43
0.0000000001
 40
0.0
 40
0.0
 40
0.0
 40
0.0
 40
0.1111111111111111
 40
0.1111111111111111
 40
0.1111111111111111
 40
0.1111111111111111
 40
0.2222222222222222
 40
0.2222222222222222
 40
0.2222222222222222
 40
0.2222222222222222
 40
0.3333333333333333
 40
0.3333333333333333
 40
0.3333333333333333
 40
0.3333333333333333
 40
0.4444444444444444
 40
0.4444444444444444
 40
0.4444444444444444
 40
0.4444444444444444
 40
0.5555555555555556
 40
0.5555555555555556
 40
0.5555555555555556
 40
0.5555555555555556
 40
0.6666666666666667
 40
0.6666666666666667
 40
0.6666666666666667
 40
0.6666666666666667
 40
0.7777777777777779
 40
0.7777777777777779
 40
0.7777777777777779
 40
0.7777777777777779
 40
0.8888888888888891
 40
0.8888888888888891
 40
0.8888888888888891
 40
0.8888888888888891
 40
1.0
 40
1.0
 40
1.0
 40
1.0
 10
31.3519
 20
164.2555
 30
0.0
 10
31.3519
 20
164.2555
 30
0.0
 10
30.9991
 20
164.6083
 30
0.0
 10
30.9991
 20
164.6083
 30
0.0
 10
30.9991
 20
164.6083
 30
0.0
 10
30.9991
 20
164.6083
 30
0.0
 10
30.9991
 20
167.4305
 30
0.0
 10
30.9991
 20
167.4305
 30
0.0
 10
30.9991
 20
167.4305
 30
0.0
 10
30.9991
 20
167.4305
 30
0.0
 10
31.7047
 20
167.7833
 30
0.0
 10
31.7047
 20
167.7833
 30
0.0
 10
31.7047
 20
167.7833
 30
0.0
 10
31.7047
 20
167.7833
 30
0.0
 10
32.763
 20
167.7833
 30
0.0
 10
32.763
 20
167.7833
 30
0.0
 10
32.763
 20
167.7833
 30
0.0
 10
32.763
 20
167.7833
 30
0.0
 10
33.1158
 20
167.4305
 30
0.0
 10
33.1158
 20
167.4305
 30
0.0
 10
33.1158
 20
167.4305
 30
0.0
 10
33.5769
 20
166.5006
 30
0.0
 10
33.4686
 20
167.721
 30
0.0
 10
33.4686
 20
166.3722
 30
0.0
 10
33.4686
 20
166.3722
 30
0.0
 10
33.4686
 20
166.3722
 30
0.0
 10
33.4686
 20
165.6666
 30
0.0
 10
33.4686
 20
165.6666
 30
0.0
 10
33.4686
 20
165.6666
 30
0.0
 10
33.4686
 20
164.5834
 30
0.0
 10
33.1419
 20
163.5499
 30
0.0
 10
32.05750000000001
 20
163.5499
 30
0.0
 10
32.05750000000001
 20
163.5499
 30
0.0
 10
31.5816
 20
163.5499
 30
0.0
 10
31.5283
 20
163.9415
 30
0.0
 10
31.3519
 20
164.2555
 30
0.0
  0
SPLINE
  5
9F
330
1F
100
AcDbEntity
  8
Capa 1
 62
   231
100
AcDbSpline
210
0.0
220
0.0
230
1.0
 70
    11
 71
     3
 72
    44
 73
    40
 74
     0
 42
0.0000000001
 43
0.0000000001
 40
0.0
 40
0.0
 40
0.0
 40
0.0
 40
0.1
 40
0.1
 40
0.1
 40
0.1
 40
0.2
 40
0.2
 40
0.2
 40
0.2
 40
0.3
 40
0.3
 40
0.3
 40
0.3
 40
0.4
 40
0.4
 40
0.4
 40
0.4
 40
0.5
 40
0.5
 40
0.5
 40
0.5
 40
0.6
 40
0.6
 40
0.6
 40
0.6
 40
0.7
 40
0.7
 40
0.7
 40
0.7
 40
0.7999999999999999
 40
0.7999999999999999
 40
0.7999999999999999
 40
0.7999999999999999
 40
0.8999999999999999
 40
0.8999999999999999
 40
0.8999999999999999
 40
0.8999999999999999
 40
1.0
 40
1.0
 40
1.0
 40
1.0
 10
31.3519
 20
160.7277
 30
0.0
 10
36.2348
 20
160.7277
 30
0.0
 10
37.3491
 20
162.226
 30
0.0
 10
37.3491
 20
167.0777
 30
0.0
 10
37.3491
 20
167.0777
 30
0.0
 10
37.3491
 20
167.0777
 30
0.0
 10
36.9964
 20
167.7833
 30
0.0
 10
36.9964
 20
167.7833
 30
0.0
 10
36.9964
 20
167.7833
 30
0.0
 10
36.9964
 20
167.7833
 30
0.0
 10
36.9964
 20
168.136
 30
0.0
 10
36.9964
 20
168.136
 30
0.0
 10
36.9964
 20
168.136
 30
0.0
 10
36.9964
 20
168.136
 30
0.0
 10
36.6436
 20
168.4888
 30
0.0
 10
36.6436
 20
168.4888
 30
0.0
 10
36.6436
 20
168.4888
 30
0.0
 10
36.6436
 20
168.4888
 30
0.0
 10
36.6436
 20
168.8416
 30
0.0
 10
36.6436
 20
168.8416
 30
0.0
 10
36.6436
 20
168.8416
 30
0.0
 10
35.10160000000001
 20
169.8742
 30
0.0
 10
35.1278
 20
170.9583
 30
0.0
 10
32.4102
 20
170.9583
 30
0.0
 10
32.4102
 20
170.9583
 30
0.0
 10
32.4102
 20
170.9583
 30
0.0
 10
32.05750000000001
 20
170.9583
 30
0.0
 10
32.05750000000001
 20
170.9583
 30
0.0
 10
32.05750000000001
 20
170.9583
 30
0.0
 10
29.1211
 20
170.9583
 30
0.0
 10
27.1186
 20
168.9558
 30
0.0
 10
27.1186
 20
166.0194
 30
0.0
 10
27.1186
 20
166.0194
 30
0.0
 10
27.1186
 20
166.0194
 30
0.0
 10
27.1186
 20
165.3138
 30
0.0
 10
27.1186
 20
165.3138
 30
0.0
 10
27.1186
 20
165.3138
 30
0.0
 10
27.1186
 20
162.1147
 30
0.0
 10
29.7495
 20
161.7444
 30
0.0
 10
31.3519
 20
160.7277
 30
0.0
  0
SPLINE
  5
A0
330
1F
100
AcDbEntity
  8
Capa 1
 62
   231
100
AcDbSpline
210
0.0
220
0.0
230
1.0
 70
    11
 71
     3
 72
    56
 73
    52
 74
     0
 42
0.0000000001
 43
0.0000000001
 40
0.0
 40
0.0
 40
0.0
 40
0.0
 40
0.0769230769230769
 40
0.0769230769230769
 40
0.0769230769230769
 40
0.0769230769230769
 40
0.1538461538461539
 40
0.1538461538461539
 40
0.1538461538461539
 40
0.1538461538461539
 40
0.2307692307692308
 40
0.2307692307692308
 40
0.2307692307692308
 40
0.2307692307692308
 40
0.3076923076923077
 40
0.3076923076923077
 40
0.3076923076923077
 40
0.3076923076923077
 40
0.3846153846153846
 40
0.3846153846153846
 40
0.3846153846153846
 40
0.3846153846153846
 40
0.4615384615384616
 40
0.4615384615384616
 40
0.4615384615384616
 40
0.4615384615384616
 40
0.5384615384615386
 40
0.5384615384615386
 40
0.5384615384615386
 40
0.5384615384615386
 40
0.6153846153846154
 40
0.6153846153846154
 40
0.6153846153846154
 40
0.6153846153846154
 40
0.6923076923076923
 40
0.6923076923076923
 40
0.6923076923076923
 40
0.6923076923076923
 40
0.7692307692307692
 40
0.7692307692307692
 40
0.7692307692307692
 40
0.7692307692307692
 40
0.846153846153846
 40
0.846153846153846
 40
0.846153846153846
 40
0.846153846153846
 40
0.9230769230769229
 40
0.9230769230769229
 40
0.9230769230769229
 40
0.9230769230769229
 40
1.0
 40
1.0
 40
1.0
 40
1.0
 10
38.76020000000001
 20
154.3777
 30
0.0
 10
38.76020000000001
 20
154.3777
 30
0.0
 10
42.288
 20
154.3777
 30
0.0
 10
42.288
 20
154.3777
 30
0.0
 10
42.288
 20
154.3777
 30
0.0
 10
42.288
 20
154.3777
 30
0.0
 10
42.3586
 20
162.5622
 30
0.0
 10
42.3586
 20
162.5622
 30
0.0
 10
42.3586
 20
162.5622
 30
0.0
 10
42.3586
 20
162.5622
 30
0.0
 10
42.9936
 20
161.7861
 30
0.0
 10
42.9936
 20
161.7861
 30
0.0
 10
42.9936
 20
161.7861
 30
0.0
 10
42.9936
 20
161.7861
 30
0.0
 10
42.9936
 20
161.4333
 30
0.0
 10
42.9936
 20
161.4333
 30
0.0
 10
42.9936
 20
161.4333
 30
0.0
 10
42.9936
 20
161.4333
 30
0.0
 10
48.9908
 20
154.3777
 30
0.0
 10
48.9908
 20
154.3777
 30
0.0
 10
48.9908
 20
154.3777
 30
0.0
 10
48.9908
 20
154.3777
 30
0.0
 10
52.1658
 20
154.3777
 30
0.0
 10
52.1658
 20
154.3777
 30
0.0
 10
52.1658
 20
154.3777
 30
0.0
 10
52.1658
 20
154.3777
 30
0.0
 10
52.1658
 20
165.6666
 30
0.0
 10
52.1658
 20
165.6666
 30
0.0
 10
52.1658
 20
165.6666
 30
0.0
 10
52.1658
 20
165.6666
 30
0.0
 10
52.5186
 20
170.9583
 30
0.0
 10
52.5186
 20
170.9583
 30
0.0
 10
52.5186
 20
170.9583
 30
0.0
 10
52.5186
 20
170.9583
 30
0.0
 10
48.63800000000001
 20
170.9583
 30
0.0
 10
48.63800000000001
 20
170.9583
 30
0.0
 10
48.63800000000001
 20
170.9583
 30
0.0
 10
48.63800000000001
 20
170.9583
 30
0.0
 10
48.4404
 20
163.0446
 30
0.0
 10
48.4404
 20
163.0446
 30
0.0
 10
48.4404
 20
163.0446
 30
0.0
 10
48.4404
 20
163.0446
 30
0.0
 10
42.6408
 20
170.9583
 30
0.0
 10
42.6408
 20
170.9583
 30
0.0
 10
42.6408
 20
170.9583
 30
0.0
 10
42.6408
 20
170.9583
 30
0.0
 10
38.3947
 20
170.9582
 30
0.0
 10
38.3947
 20
170.9582
 30
0.0
 10
38.3947
 20
170.9582
 30
0.0
 10
38.3947
 20
170.9582
 30
0.0
 10
38.76020000000001
 20
154.3777
 30
0.0
 10
38.76020000000001
 20
154.3777
 30
0.0
  0
SPLINE
  5
A1
330
1F
100
AcDbEntity
  8
Capa 1
 62
   231
100
AcDbSpline
210
0.0
220
0.0
230
1.0
 70
    11
 71
     3
 72
    64
 73
    60
 74
     0
 42
0.0000000001
 43
0.0000000001
 40
0.0
 40
0.0
 40
0.0
 40
0.0
 40
0.0666666666666667
 40
0.0666666666666667
 40
0.0666666666666667
 40
0.0666666666666667
 40
0.1333333333333333
 40
0.1333333333333333
 40
0.1333333333333333
 40
0.1333333333333333
 40
0.2
 40
0.2
 40
0.2
 40
0.2
 40
0.2666666666666667
 40
0.2666666666666667
 40
0.2666666666666667
 40
0.2666666666666667
 40
0.3333333333333333
 40
0.3333333333333333
 40
0.3333333333333333
 40
0.3333333333333333
 40
0.4
 40
0.4
 40
0.4
 40
0.4
 40
0.4666666666666666
 40
0.4666666666666666
 40
0.4666666666666666
 40
0.4666666666666666
 40
0.5333333333333333
 40
0.5333333333333333
 40
0.5333333333333333
 40
0.5333333333333333
 40
0.6
 40
0.6
 40
0.6
 40
0.6
 40
0.6666666666666666
 40
0.6666666666666666
 40
0.6666666666666666
 40
0.6666666666666666
 40
0.7333333333333333
 40
0.7333333333333333
 40
0.7333333333333333
 40
0.7333333333333333
 40
0.7999999999999999
 40
0.7999999999999999
 40
0.7999999999999999
 40
0.7999999999999999
 40
0.8666666666666666
 40
0.8666666666666666
 40
0.8666666666666666
 40
0.8666666666666666
 40
0.9333333333333332
 40
0.9333333333333332
 40
0.9333333333333332
 40
0.9333333333333332
 40
1.0
 40
1.0
 40
1.0
 40
1.0
 10
-50.84520000000001
 20
154.3777
 30
0.0
 10
-50.84520000000001
 20
154.3777
 30
0.0
 10
-47.3174
 20
154.3777
 30
0.0
 10
-47.3174
 20
154.3777
 30
0.0
 10
-47.3174
 20
154.3777
 30
0.0
 10
-47.3174
 20
154.3777
 30
0.0
 10
-47.1667
 20
163.2923
 30
0.0
 10
-47.1667
 20
163.2923
 30
0.0
 10
-47.1667
 20
163.2923
 30
0.0
 10
-47.1667
 20
163.2923
 30
0.0
 10
-46.61190000000001
 20
162.1388
 30
0.0
 10
-46.61190000000001
 20
162.1388
 30
0.0
 10
-46.61190000000001
 20
162.1388
 30
0.0
 10
-46.61190000000001
 20
162.1388
 30
0.0
 10
-43.0841
 20
156.4944
 30
0.0
 10
-43.0841
 20
156.4944
 30
0.0
 10
-43.0841
 20
156.4944
 30
0.0
 10
-43.0841
 20
156.4944
 30
0.0
 10
-38.8508
 20
162.8444
 30
0.0
 10
-38.8508
 20
162.8444
 30
0.0
 10
-38.8508
 20
162.8444
 30
0.0
 10
-38.8508
 20
162.8444
 30
0.0
 10
-38.8508
 20
161.4333
 30
0.0
 10
-38.8508
 20
161.4333
 30
0.0
 10
-38.8508
 20
161.4333
 30
0.0
 10
-38.8508
 20
161.4333
 30
0.0
 10
-38.8508
 20
154.3777
 30
0.0
 10
-38.8508
 20
154.3777
 30
0.0
 10
-38.8508
 20
154.3777
 30
0.0
 10
-38.8508
 20
154.3777
 30
0.0
 10
-33.2063
 20
154.3777
 30
0.0
 10
-33.2063
 20
154.3777
 30
0.0
 10
-33.2063
 20
154.3777
 30
0.0
 10
-33.2063
 20
154.3777
 30
0.0
 10
-33.2063
 20
171.311
 30
0.0
 10
-33.2063
 20
171.311
 30
0.0
 10
-33.2063
 20
171.311
 30
0.0
 10
-33.2063
 20
171.311
 30
0.0
 10
-38.1446
 20
171.6947
 30
0.0
 10
-38.1446
 20
171.6947
 30
0.0
 10
-38.1446
 20
171.6947
 30
0.0
 10
-38.1446
 20
171.6947
 30
0.0
 10
-41.8691
 20
163.6401
 30
0.0
 10
-41.8691
 20
163.6401
 30
0.0
 10
-41.8691
 20
163.6401
 30
0.0
 10
-41.8691
 20
163.6401
 30
0.0
 10
-42.3786
 20
163.5499
 30
0.0
 10
-42.3786
 20
163.5499
 30
0.0
 10
-42.3786
 20
163.5499
 30
0.0
 10
-42.3786
 20
163.5499
 30
0.0
 10
-45.9955
 20
171.6227
 30
0.0
 10
-45.9955
 20
171.6227
 30
0.0
 10
-45.9955
 20
171.6227
 30
0.0
 10
-45.9955
 20
171.6227
 30
0.0
 10
-51.198
 20
171.6638
 30
0.0
 10
-51.198
 20
171.6638
 30
0.0
 10
-51.198
 20
171.6638
 30
0.0
 10
-51.198
 20
171.6638
 30
0.0
 10
-50.84520000000001
 20
154.3777
 30
0.0
 10
-50.84520000000001
 20
154.3777
 30
0.0
  0
SPLINE
  5
A2
330
1F
100
AcDbEntity
  8
Capa 1
 62
   231
100
AcDbSpline
210
0.0
220
0.0
230
1.0
 70
    11
 71
     3
 72
    84
 73
    80
 74
     0
 42
0.0000000001
 43
0.0000000001
 40
0.0
 40
0.0
 40
0.0
 40
0.0
 40
0.05
 40
0.05
 40
0.05
 40
0.05
 40
0.1
 40
0.1
 40
0.1
 40
0.1
 40
0.15
 40
0.15
 40
0.15
 40
0.15
 40
0.2
 40
0.2
 40
0.2
 40
0.2
 40
0.25
 40
0.25
 40
0.25
 40
0.25
 40
0.3
 40
0.3
 40
0.3
 40
0.3
 40
0.35
 40
0.35
 40
0.35
 40
0.35
 40
0.4
 40
0.4
 40
0.4
 40
0.4
 40
0.45
 40
0.45
 40
0.45
 40
0.45
 40
0.4999999999999999
 40
0.4999999999999999
 40
0.4999999999999999
 40
0.4999999999999999
 40
0.5499999999999999
 40
0.5499999999999999
 40
0.5499999999999999
 40
0.5499999999999999
 40
0.6
 40
0.6
 40
0.6
 40
0.6
 40
0.65
 40
0.65
 40
0.65
 40
0.65
 40
0.7000000000000001
 40
0.7000000000000001
 40
0.7000000000000001
 40
0.7000000000000001
 40
0.7500000000000001
 40
0.7500000000000001
 40
0.7500000000000001
 40
0.7500000000000001
 40
0.8000000000000002
 40
0.8000000000000002
 40
0.8000000000000002
 40
0.8000000000000002
 40
0.8500000000000002
 40
0.8500000000000002
 40
0.8500000000000002
 40
0.8500000000000002
 40
0.9000000000000002
 40
0.9000000000000002
 40
0.9000000000000002
 40
0.9000000000000002
 40
0.9500000000000003
 40
0.9500000000000003
 40
0.9500000000000003
 40
0.9500000000000003
 40
1.0
 40
1.0
 40
1.0
 40
1.0
 10
-0.0453
 20
154.3777
 30
0.0
 10
-0.0453
 20
154.3777
 30
0.0
 10
11.2436
 20
154.3777
 30
0.0
 10
11.2436
 20
154.3777
 30
0.0
 10
11.2436
 20
154.3777
 30
0.0
 10
11.2436
 20
154.3777
 30
0.0
 10
11.2436
 20
157.5527
 30
0.0
 10
11.2436
 20
157.5527
 30
0.0
 10
11.2436
 20
157.5527
 30
0.0
 10
11.2436
 20
157.5527
 30
0.0
 10
11.2436
 20
158.2583
 30
0.0
 10
11.2436
 20
158.2583
 30
0.0
 10
11.2436
 20
158.2583
 30
0.0
 10
11.2436
 20
158.2583
 30
0.0
 10
5.599200000000001
 20
158.2583
 30
0.0
 10
5.599200000000001
 20
158.2583
 30
0.0
 10
5.599200000000001
 20
158.2583
 30
0.0
 10
5.599200000000001
 20
158.2583
 30
0.0
 10
5.2464
 20
158.2583
 30
0.0
 10
5.2464
 20
158.2583
 30
0.0
 10
5.2464
 20
158.2583
 30
0.0
 10
5.2464
 20
158.2583
 30
0.0
 10
4.855
 20
161.4317
 30
0.0
 10
4.855
 20
161.4317
 30
0.0
 10
4.855
 20
161.4317
 30
0.0
 10
4.855
 20
161.4317
 30
0.0
 10
6.3047
 20
161.0805
 30
0.0
 10
6.3047
 20
161.0805
 30
0.0
 10
6.3047
 20
161.0805
 30
0.0
 10
6.3047
 20
161.0805
 30
0.0
 10
6.657500000000001
 20
161.0805
 30
0.0
 10
6.657500000000001
 20
161.0805
 30
0.0
 10
6.657500000000001
 20
161.0805
 30
0.0
 10
6.657500000000001
 20
161.0805
 30
0.0
 10
7.0103
 20
160.7277
 30
0.0
 10
7.0103
 20
160.7277
 30
0.0
 10
7.0103
 20
160.7277
 30
0.0
 10
7.0103
 20
160.7277
 30
0.0
 10
9.509700000000001
 20
161.3374
 30
0.0
 10
9.509700000000001
 20
161.3374
 30
0.0
 10
9.509700000000001
 20
161.3374
 30
0.0
 10
9.509700000000001
 20
161.3374
 30
0.0
 10
9.479700000000001
 20
163.1972
 30
0.0
 10
9.479700000000001
 20
163.1972
 30
0.0
 10
9.479700000000001
 20
163.1972
 30
0.0
 10
8.7529
 20
163.6839
 30
0.0
 10
8.564
 20
164.2555
 30
0.0
 10
7.715800000000001
 20
164.2555
 30
0.0
 10
7.715800000000001
 20
164.2555
 30
0.0
 10
6.6395
 20
164.2555
 30
0.0
 10
6.2923
 20
163.9167
 30
0.0
 10
5.599200000000001
 20
163.5499
 30
0.0
 10
5.599200000000001
 20
163.5499
 30
0.0
 10
5.599200000000001
 20
163.5499
 30
0.0
 10
5.2464
 20
163.5499
 30
0.0
 10
5.2464
 20
163.5499
 30
0.0
 10
5.2464
 20
163.5499
 30
0.0
 10
5.2464
 20
163.5499
 30
0.0
 10
4.9524
 20
163.1384
 30
0.0
 10
4.9524
 20
163.1384
 30
0.0
 10
4.9524
 20
163.1384
 30
0.0
 10
4.9524
 20
163.1384
 30
0.0
 10
4.8936
 20
166.7249
 30
0.0
 10
4.8936
 20
166.7249
 30
0.0
 10
4.8936
 20
166.7249
 30
0.0
 10
4.8936
 20
166.7249
 30
0.0
 10
10.538
 20
166.7249
 30
0.0
 10
10.538
 20
166.7249
 30
0.0
 10
10.538
 20
166.7249
 30
0.0
 10
10.538
 20
166.7249
 30
0.0
 10
10.538
 20
169.8999
 30
0.0
 10
10.538
 20
169.8999
 30
0.0
 10
10.538
 20
169.8999
 30
0.0
 10
10.538
 20
169.8999
 30
0.0
 10
-0.0452
 20
170.2711
 30
0.0
 10
-0.0452
 20
170.2711
 30
0.0
 10
-0.0452
 20
170.2711
 30
0.0
 10
-0.0452
 20
170.2711
 30
0.0
 10
-0.0453
 20
154.3777
 30
0.0
 10
-0.0453
 20
154.3777
 30
0.0
  0
SPLINE
  5
A3
330
1F
100
AcDbEntity
  8
Capa 1
 62
   231
100
AcDbSpline
210
0.0
220
0.0
230
1.0
 70
    11
 71
     3
 72
    28
 73
    24
 74
     0
 42
0.0000000001
 43
0.0000000001
 40
0.0
 40
0.0
 40
0.0
 40
0.0
 40
0.1666666666666667
 40
0.1666666666666667
 40
0.1666666666666667
 40
0.1666666666666667
 40
0.3333333333333333
 40
0.3333333333333333
 40
0.3333333333333333
 40
0.3333333333333333
 40
0.5
 40
0.5
 40
0.5
 40
0.5
 40
0.6666666666666666
 40
0.6666666666666666
 40
0.6666666666666666
 40
0.6666666666666666
 40
0.8333333333333333
 40
0.8333333333333333
 40
0.8333333333333333
 40
0.8333333333333333
 40
1.0
 40
1.0
 40
1.0
 40
1.0
 10
-25.798
 20
166.0194
 30
0.0
 10
-25.798
 20
166.0194
 30
0.0
 10
-24.526
 20
161.049
 30
0.0
 10
-24.526
 20
161.049
 30
0.0
 10
-24.526
 20
161.049
 30
0.0
 10
-24.526
 20
161.049
 30
0.0
 10
-26.5036
 20
161.0805
 30
0.0
 10
-26.5036
 20
161.0805
 30
0.0
 10
-26.5036
 20
161.0805
 30
0.0
 10
-26.5036
 20
161.0805
 30
0.0
 10
-27.2091
 20
161.0805
 30
0.0
 10
-27.2091
 20
161.0805
 30
0.0
 10
-27.2091
 20
161.0805
 30
0.0
 10
-27.1738
 20
162.6667
 30
0.0
 10
-26.5036
 20
164.0263
 30
0.0
 10
-26.5036
 20
165.3138
 30
0.0
 10
-26.5036
 20
165.3138
 30
0.0
 10
-26.5036
 20
165.9948
 30
0.0
 10
-26.3926
 20
165.9418
 30
0.0
 10
-26.1508
 20
166.3722
 30
0.0
 10
-26.1508
 20
166.3722
 30
0.0
 10
-26.1508
 20
166.3722
 30
0.0
 10
-25.798
 20
166.0194
 30
0.0
 10
-25.798
 20
166.0194
 30
0.0
  0
SPLINE
  5
A4
330
1F
100
AcDbEntity
  8
Capa 1
 62
   231
100
AcDbSpline
210
0.0
220
0.0
230
1.0
 70
    11
 71
     3
 72
    80
 73
    76
 74
     0
 42
0.0000000001
 43
0.0000000001
 40
0.0
 40
0.0
 40
0.0
 40
0.0
 40
0.0526315789473684
 40
0.0526315789473684
 40
0.0526315789473684
 40
0.0526315789473684
 40
0.1052631578947368
 40
0.1052631578947368
 40
0.1052631578947368
 40
0.1052631578947368
 40
0.1578947368421053
 40
0.1578947368421053
 40
0.1578947368421053
 40
0.1578947368421053
 40
0.2105263157894737
 40
0.2105263157894737
 40
0.2105263157894737
 40
0.2105263157894737
 40
0.2631578947368421
 40
0.2631578947368421
 40
0.2631578947368421
 40
0.2631578947368421
 40
0.3157894736842105
 40
0.3157894736842105
 40
0.3157894736842105
 40
0.3157894736842105
 40
0.3684210526315789
 40
0.3684210526315789
 40
0.3684210526315789
 40
0.3684210526315789
 40
0.4210526315789474
 40
0.4210526315789474
 40
0.4210526315789474
 40
0.4210526315789474
 40
0.4736842105263158
 40
0.4736842105263158
 40
0.4736842105263158
 40
0.4736842105263158
 40
0.5263157894736842
 40
0.5263157894736842
 40
0.5263157894736842
 40
0.5263157894736842
 40
0.5789473684210527
 40
0.5789473684210527
 40
0.5789473684210527
 40
0.5789473684210527
 40
0.631578947368421
 40
0.631578947368421
 40
0.631578947368421
 40
0.631578947368421
 40
0.6842105263157894
 40
0.6842105263157894
 40
0.6842105263157894
 40
0.6842105263157894
 40
0.7368421052631577
 40
0.7368421052631577
 40
0.7368421052631577
 40
0.7368421052631577
 40
0.7894736842105261
 40
0.7894736842105261
 40
0.7894736842105261
 40
0.7894736842105261
 40
0.8421052631578945
 40
0.8421052631578945
 40
0.8421052631578945
 40
0.8421052631578945
 40
0.8947368421052628
 40
0.8947368421052628
 40
0.8947368421052628
 40
0.8947368421052628
 40
0.9473684210526312
 40
0.9473684210526312
 40
0.9473684210526312
 40
0.9473684210526312
 40
1.0
 40
1.0
 40
1.0
 40
1.0
 10
-32.148
 20
154.3777
 30
0.0
 10
-32.148
 20
154.3777
 30
0.0
 10
-28.2675
 20
154.3777
 30
0.0
 10
-28.2675
 20
154.3777
 30
0.0
 10
-28.2675
 20
154.3777
 30
0.0
 10
-28.2675
 20
154.3777
 30
0.0
 10
-28.2667
 20
157.9377
 30
0.0
 10
-28.2667
 20
157.9377
 30
0.0
 10
-28.2667
 20
157.9377
 30
0.0
 10
-28.2667
 20
157.9377
 30
0.0
 10
-23.6814
 20
157.5527
 30
0.0
 10
-23.6814
 20
157.5527
 30
0.0
 10
-23.6814
 20
157.5527
 30
0.0
 10
-23.6814
 20
157.5527
 30
0.0
 10
-23.6814
 20
157.2
 30
0.0
 10
-23.6814
 20
157.2
 30
0.0
 10
-23.6814
 20
157.2
 30
0.0
 10
-23.6814
 20
157.2
 30
0.0
 10
-22.623
 20
154.3777
 30
0.0
 10
-22.623
 20
154.3777
 30
0.0
 10
-22.623
 20
154.3777
 30
0.0
 10
-22.623
 20
154.3777
 30
0.0
 10
-16.6258
 20
154.7305
 30
0.0
 10
-16.6258
 20
154.7305
 30
0.0
 10
-16.6258
 20
154.7305
 30
0.0
 10
-16.6258
 20
154.7305
 30
0.0
 10
-16.9786
 20
155.0833
 30
0.0
 10
-16.9786
 20
155.0833
 30
0.0
 10
-16.9786
 20
155.0833
 30
0.0
 10
-16.9786
 20
155.0833
 30
0.0
 10
-18.7425
 20
161.0805
 30
0.0
 10
-18.7425
 20
161.0805
 30
0.0
 10
-18.7425
 20
161.0805
 30
0.0
 10
-18.7425
 20
161.0805
 30
0.0
 10
-19.0953
 20
161.7861
 30
0.0
 10
-19.0953
 20
161.7861
 30
0.0
 10
-19.0953
 20
161.7861
 30
0.0
 10
-19.0953
 20
161.7861
 30
0.0
 10
-19.0953
 20
162.1388
 30
0.0
 10
-19.0953
 20
162.1388
 30
0.0
 10
-19.0953
 20
162.1388
 30
0.0
 10
-19.0953
 20
162.1388
 30
0.0
 10
-19.448
 20
162.8444
 30
0.0
 10
-19.448
 20
162.8444
 30
0.0
 10
-19.448
 20
162.8444
 30
0.0
 10
-19.448
 20
162.8444
 30
0.0
 10
-19.448
 20
163.1972
 30
0.0
 10
-19.448
 20
163.1972
 30
0.0
 10
-19.448
 20
163.1972
 30
0.0
 10
-19.448
 20
163.1972
 30
0.0
 10
-19.8008
 20
163.9027
 30
0.0
 10
-19.8008
 20
163.9027
 30
0.0
 10
-19.8008
 20
163.9027
 30
0.0
 10
-19.8008
 20
163.9027
 30
0.0
 10
-19.8008
 20
164.2555
 30
0.0
 10
-19.8008
 20
164.2555
 30
0.0
 10
-19.8008
 20
164.2555
 30
0.0
 10
-19.8008
 20
164.2555
 30
0.0
 10
-20.1536
 20
164.9611
 30
0.0
 10
-20.1536
 20
164.9611
 30
0.0
 10
-20.1536
 20
164.9611
 30
0.0
 10
-20.1536
 20
164.9611
 30
0.0
 10
-21.5647
 20
169.8999
 30
0.0
 10
-21.5647
 20
169.8999
 30
0.0
 10
-21.5647
 20
169.8999
 30
0.0
 10
-21.5647
 20
169.8999
 30
0.0
 10
-21.9674
 20
170.9487
 30
0.0
 10
-21.9674
 20
170.9487
 30
0.0
 10
-21.9674
 20
170.9487
 30
0.0
 10
-21.9674
 20
170.9487
 30
0.0
 10
-28.2675
 20
170.9583
 30
0.0
 10
-28.2675
 20
170.9583
 30
0.0
 10
-28.2675
 20
170.9583
 30
0.0
 10
-28.3585
 20
166.87
 30
0.0
 10
-32.148
 20
161.029
 30
0.0
 10
-32.148
 20
154.3777
 30
0.0
  0
SPLINE
  5
A5
330
1F
100
AcDbEntity
  8
Capa 1
 62
   231
100
AcDbSpline
210
0.0
220
0.0
230
1.0
 70
    11
 71
     3
 72
    20
 73
    16
 74
     0
 42
0.0000000001
 43
0.0000000001
 40
0.0
 40
0.0
 40
0.0
 40
0.0
 40
0.25
 40
0.25
 40
0.25
 40
0.25
 40
0.5
 40
0.5
 40
0.5
 40
0.5
 40
0.75
 40
0.75
 40
0.75
 40
0.75
 40
1.0
 40
1.0
 40
1.0
 40
1.0
 10
54.988
 20
154.3777
 30
0.0
 10
54.988
 20
154.3777
 30
0.0
 10
60.6324
 20
154.3777
 30
0.0
 10
60.6324
 20
154.3777
 30
0.0
 10
60.6324
 20
154.3777
 30
0.0
 10
60.6324
 20
154.3777
 30
0.0
 10
60.6324
 20
171.311
 30
0.0
 10
60.6324
 20
171.311
 30
0.0
 10
60.6324
 20
171.311
 30
0.0
 10
60.6324
 20
171.311
 30
0.0
 10
54.6356
 20
171.6913
 30
0.0
 10
54.6356
 20
171.6913
 30
0.0
 10
54.6356
 20
171.6913
 30
0.0
 10
54.6356
 20
171.6913
 30
0.0
 10
54.988
 20
154.3777
 30
0.0
 10
54.988
 20
154.3777
 30
0.0
  0
SPLINE
  5
A6
330
1F
100
AcDbEntity
  8
Capa 1
 62
   231
100
AcDbSpline
210
0.0
220
0.0
230
1.0
 70
    11
 71
     3
 72
    76
 73
    72
 74
     0
 42
0.0000000001
 43
0.0000000001
 40
0.0
 40
0.0
 40
0.0
 40
0.0
 40
0.0555555555555556
 40
0.0555555555555556
 40
0.0555555555555556
 40
0.0555555555555556
 40
0.1111111111111111
 40
0.1111111111111111
 40
0.1111111111111111
 40
0.1111111111111111
 40
0.1666666666666667
 40
0.1666666666666667
 40
0.1666666666666667
 40
0.1666666666666667
 40
0.2222222222222222
 40
0.2222222222222222
 40
0.2222222222222222
 40
0.2222222222222222
 40
0.2777777777777778
 40
0.2777777777777778
 40
0.2777777777777778
 40
0.2777777777777778
 40
0.3333333333333334
 40
0.3333333333333334
 40
0.3333333333333334
 40
0.3333333333333334
 40
0.388888888888889
 40
0.388888888888889
 40
0.388888888888889
 40
0.388888888888889
 40
0.4444444444444445
 40
0.4444444444444445
 40
0.4444444444444445
 40
0.4444444444444445
 40
0.5000000000000001
 40
0.5000000000000001
 40
0.5000000000000001
 40
0.5000000000000001
 40
0.5555555555555557
 40
0.5555555555555557
 40
0.5555555555555557
 40
0.5555555555555557
 40
0.6111111111111113
 40
0.6111111111111113
 40
0.6111111111111113
 40
0.6111111111111113
 40
0.6666666666666669
 40
0.6666666666666669
 40
0.6666666666666669
 40
0.6666666666666669
 40
0.7222222222222224
 40
0.7222222222222224
 40
0.7222222222222224
 40
0.7222222222222224
 40
0.777777777777778
 40
0.777777777777778
 40
0.777777777777778
 40
0.777777777777778
 40
0.8333333333333336
 40
0.8333333333333336
 40
0.8333333333333336
 40
0.8333333333333336
 40
0.8888888888888892
 40
0.8888888888888892
 40
0.8888888888888892
 40
0.8888888888888892
 40
0.9444444444444448
 40
0.9444444444444448
 40
0.9444444444444448
 40
0.9444444444444448
 40
1.0
 40
1.0
 40
1.0
 40
1.0
 10
-15.5675
 20
154.3777
 30
0.0
 10
-15.5675
 20
154.3777
 30
0.0
 10
-10.6286
 20
154.3777
 30
0.0
 10
-10.6286
 20
154.3777
 30
0.0
 10
-10.6286
 20
154.3777
 30
0.0
 10
-10.6286
 20
154.3777
 30
0.0
 10
-10.6286
 20
160.7277
 30
0.0
 10
-10.6286
 20
160.7277
 30
0.0
 10
-10.6286
 20
160.7277
 30
0.0
 10
-10.6286
 20
160.7277
 30
0.0
 10
-9.923
 20
159.6694
 30
0.0
 10
-9.923
 20
159.6694
 30
0.0
 10
-9.923
 20
159.6694
 30
0.0
 10
-9.923
 20
159.6694
 30
0.0
 10
-5.6897
 20
154.025
 30
0.0
 10
-5.6897
 20
154.025
 30
0.0
 10
-5.6897
 20
154.025
 30
0.0
 10
-5.6897
 20
154.025
 30
0.0
 10
-2.5147
 20
154.3777
 30
0.0
 10
-2.5147
 20
154.3777
 30
0.0
 10
-2.5147
 20
154.3777
 30
0.0
 10
-2.5147
 20
154.3777
 30
0.0
 10
-0.4014
 20
154.775
 30
0.0
 10
-0.4014
 20
154.775
 30
0.0
 10
-0.4014
 20
154.775
 30
0.0
 10
-0.4014
 20
154.775
 30
0.0
 10
-5.6897
 20
162.1388
 30
0.0
 10
-5.6897
 20
162.1388
 30
0.0
 10
-5.6897
 20
162.1388
 30
0.0
 10
-5.6897
 20
162.1388
 30
0.0
 10
-6.0425
 20
162.4916
 30
0.0
 10
-6.0425
 20
162.4916
 30
0.0
 10
-6.0425
 20
162.4916
 30
0.0
 10
-6.0425
 20
162.4916
 30
0.0
 10
-1.8092
 20
169.1944
 30
0.0
 10
-1.8092
 20
169.1944
 30
0.0
 10
-1.8092
 20
169.1944
 30
0.0
 10
-1.8092
 20
169.1944
 30
0.0
 10
-1.4564
 20
169.5472
 30
0.0
 10
-1.4564
 20
169.5472
 30
0.0
 10
-1.4564
 20
169.5472
 30
0.0
 10
-1.2044
 20
170.1571
 30
0.0
 10
-0.9601000000000001
 20
170.6055
 30
0.0
 10
-2.1619
 20
170.6055
 30
0.0
 10
-2.1619
 20
170.6055
 30
0.0
 10
-2.1619
 20
170.6055
 30
0.0
 10
-5.6897
 20
170.6055
 30
0.0
 10
-5.6897
 20
170.6055
 30
0.0
 10
-5.6897
 20
170.6055
 30
0.0
 10
-5.6897
 20
170.6055
 30
0.0
 10
-9.923
 20
163.5499
 30
0.0
 10
-9.923
 20
163.5499
 30
0.0
 10
-9.923
 20
163.5499
 30
0.0
 10
-9.923
 20
163.5499
 30
0.0
 10
-10.6286
 20
163.5499
 30
0.0
 10
-10.6286
 20
163.5499
 30
0.0
 10
-10.6286
 20
163.5499
 30
0.0
 10
-10.6286
 20
163.5499
 30
0.0
 10
-10.6286
 20
167.4305
 30
0.0
 10
-10.6286
 20
167.4305
 30
0.0
 10
-10.6286
 20
167.4305
 30
0.0
 10
-10.6286
 20
167.4305
 30
0.0
 10
-10.446
 20
170.619
 30
0.0
 10
-10.446
 20
170.619
 30
0.0
 10
-10.446
 20
170.619
 30
0.0
 10
-10.446
 20
170.619
 30
0.0
 10
-15.9203
 20
170.6055
 30
0.0
 10
-15.9203
 20
170.6055
 30
0.0
 10
-15.9203
 20
170.6055
 30
0.0
 10
-15.9203
 20
170.6055
 30
0.0
 10
-15.5675
 20
154.3777
 30
0.0
 10
-15.5675
 20
154.3777
 30
0.0
  0
SPLINE
  5
A7
330
1F
100
AcDbEntity
  8
Capa 1
 62
   231
100
AcDbSpline
210
0.0
220
0.0
230
1.0
 70
    11
 71
     3
 72
    36
 73
    32
 74
     0
 42
0.0000000001
 43
0.0000000001
 40
0.0
 40
0.0
 40
0.0
 40
0.0
 40
0.125
 40
0.125
 40
0.125
 40
0.125
 40
0.25
 40
0.25
 40
0.25
 40
0.25
 40
0.375
 40
0.375
 40
0.375
 40
0.375
 40
0.5
 40
0.5
 40
0.5
 40
0.5
 40
0.625
 40
0.625
 40
0.625
 40
0.625
 40
0.75
 40
0.75
 40
0.75
 40
0.75
 40
0.875
 40
0.875
 40
0.875
 40
0.875
 40
1.0
 40
1.0
 40
1.0
 40
1.0
 10
18.2992
 20
162.8444
 30
0.0
 10
18.2992
 20
162.8444
 30
0.0
 10
17.5936
 20
162.8444
 30
0.0
 10
17.5936
 20
162.8444
 30
0.0
 10
17.5936
 20
162.8444
 30
0.0
 10
17.5936
 20
162.8444
 30
0.0
 10
17.5936
 20
167.0777
 30
0.0
 10
17.5936
 20
167.0777
 30
0.0
 10
17.5936
 20
167.0777
 30
0.0
 10
17.5936
 20
167.0777
 30
0.0
 10
19.0047
 20
167.0777
 30
0.0
 10
19.0047
 20
167.0777
 30
0.0
 10
19.0047
 20
167.0777
 30
0.0
 10
19.0047
 20
167.0777
 30
0.0
 10
19.7103
 20
167.0777
 30
0.0
 10
19.7103
 20
167.0777
 30
0.0
 10
19.7103
 20
167.0777
 30
0.0
 10
19.7103
 20
167.0777
 30
0.0
 10
20.063
 20
166.3722
 30
0.0
 10
20.063
 20
166.3722
 30
0.0
 10
20.063
 20
166.3722
 30
0.0
 10
20.063
 20
166.3722
 30
0.0
 10
20.4622
 20
164.6128
 30
0.0
 10
20.4622
 20
164.6128
 30
0.0
 10
20.4622
 20
164.6128
 30
0.0
 10
20.5084
 20
163.6492
 30
0.0
 10
19.5454
 20
163.2065
 30
0.0
 10
19.0047
 20
162.8444
 30
0.0
 10
19.0047
 20
162.8444
 30
0.0
 10
19.0047
 20
162.8444
 30
0.0
 10
18.2992
 20
162.8444
 30
0.0
 10
18.2992
 20
162.8444
 30
0.0
  0
SPLINE
  5
A8
330
1F
100
AcDbEntity
  8
Capa 1
 62
   231
100
AcDbSpline
210
0.0
220
0.0
230
1.0
 70
    11
 71
     3
 72
   116
 73
   112
 74
     0
 42
0.0000000001
 43
0.0000000001
 40
0.0
 40
0.0
 40
0.0
 40
0.0
 40
0.0357142857142857
 40
0.0357142857142857
 40
0.0357142857142857
 40
0.0357142857142857
 40
0.0714285714285714
 40
0.0714285714285714
 40
0.0714285714285714
 40
0.0714285714285714
 40
0.1071428571428571
 40
0.1071428571428571
 40
0.1071428571428571
 40
0.1071428571428571
 40
0.1428571428571429
 40
0.1428571428571429
 40
0.1428571428571429
 40
0.1428571428571429
 40
0.1785714285714286
 40
0.1785714285714286
 40
0.1785714285714286
 40
0.1785714285714286
 40
0.2142857142857143
 40
0.2142857142857143
 40
0.2142857142857143
 40
0.2142857142857143
 40
0.2499999999999999
 40
0.2499999999999999
 40
0.2499999999999999
 40
0.2499999999999999
 40
0.2857142857142856
 40
0.2857142857142856
 40
0.2857142857142856
 40
0.2857142857142856
 40
0.3214285714285713
 40
0.3214285714285713
 40
0.3214285714285713
 40
0.3214285714285713
 40
0.357142857142857
 40
0.357142857142857
 40
0.357142857142857
 40
0.357142857142857
 40
0.3928571428571427
 40
0.3928571428571427
 40
0.3928571428571427
 40
0.3928571428571427
 40
0.4285714285714284
 40
0.4285714285714284
 40
0.4285714285714284
 40
0.4285714285714284
 40
0.4642857142857141
 40
0.4642857142857141
 40
0.4642857142857141
 40
0.4642857142857141
 40
0.4999999999999998
 40
0.4999999999999998
 40
0.4999999999999998
 40
0.4999999999999998
 40
0.5357142857142856
 40
0.5357142857142856
 40
0.5357142857142856
 40
0.5357142857142856
 40
0.5714285714285713
 40
0.5714285714285713
 40
0.5714285714285713
 40
0.5714285714285713
 40
0.607142857142857
 40
0.607142857142857
 40
0.607142857142857
 40
0.607142857142857
 40
0.6428571428571427
 40
0.6428571428571427
 40
0.6428571428571427
 40
0.6428571428571427
 40
0.6785714285714284
 40
0.6785714285714284
 40
0.6785714285714284
 40
0.6785714285714284
 40
0.7142857142857141
 40
0.7142857142857141
 40
0.7142857142857141
 40
0.7142857142857141
 40
0.7499999999999998
 40
0.7499999999999998
 40
0.7499999999999998
 40
0.7499999999999998
 40
0.7857142857142855
 40
0.7857142857142855
 40
0.7857142857142855
 40
0.7857142857142855
 40
0.8214285714285712
 40
0.8214285714285712
 40
0.8214285714285712
 40
0.8214285714285712
 40
0.8571428571428569
 40
0.8571428571428569
 40
0.8571428571428569
 40
0.8571428571428569
 40
0.8928571428571426
 40
0.8928571428571426
 40
0.8928571428571426
 40
0.8928571428571426
 40
0.9285714285714283
 40
0.9285714285714283
 40
0.9285714285714283
 40
0.9285714285714283
 40
0.964285714285714
 40
0.964285714285714
 40
0.964285714285714
 40
0.964285714285714
 40
1.0
 40
1.0
 40
1.0
 40
1.0
 10
12.6547
 20
154.3777
 30
0.0
 10
12.6547
 20
154.3777
 30
0.0
 10
17.5936
 20
154.3777
 30
0.0
 10
17.5936
 20
154.3777
 30
0.0
 10
17.5936
 20
154.3777
 30
0.0
 10
17.5936
 20
154.3777
 30
0.0
 10
17.5936
 20
159.6694
 30
0.0
 10
17.5936
 20
159.6694
 30
0.0
 10
17.5936
 20
159.6694
 30
0.0
 10
17.5936
 20
159.6694
 30
0.0
 10
18.6519
 20
159.6694
 30
0.0
 10
18.6519
 20
159.6694
 30
0.0
 10
18.6519
 20
159.6694
 30
0.0
 10
19.6597
 20
159.6694
 30
0.0
 10
19.2971
 20
159.5584
 30
0.0
 10
19.7103
 20
158.9638
 30
0.0
 10
19.7103
 20
158.9638
 30
0.0
 10
19.7103
 20
158.9638
 30
0.0
 10
22.1797
 20
156.4944
 30
0.0
 10
22.1797
 20
156.4944
 30
0.0
 10
22.1797
 20
156.4944
 30
0.0
 10
22.1797
 20
156.4944
 30
0.0
 10
22.8853
 20
156.1416
 30
0.0
 10
22.8853
 20
156.1416
 30
0.0
 10
22.8853
 20
156.1416
 30
0.0
 10
22.8853
 20
156.1416
 30
0.0
 10
23.238
 20
155.7888
 30
0.0
 10
23.238
 20
155.7888
 30
0.0
 10
23.238
 20
155.7888
 30
0.0
 10
23.238
 20
155.7888
 30
0.0
 10
23.9436
 20
155.4361
 30
0.0
 10
23.9436
 20
155.4361
 30
0.0
 10
23.9436
 20
155.4361
 30
0.0
 10
23.9436
 20
155.4361
 30
0.0
 10
24.2964
 20
155.0833
 30
0.0
 10
24.2964
 20
155.0833
 30
0.0
 10
24.2964
 20
155.0833
 30
0.0
 10
24.2964
 20
155.0833
 30
0.0
 10
24.6491
 20
155.0833
 30
0.0
 10
24.6491
 20
155.0833
 30
0.0
 10
24.6491
 20
155.0833
 30
0.0
 10
24.6491
 20
155.0833
 30
0.0
 10
25.0019
 20
154.7305
 30
0.0
 10
25.0019
 20
154.7305
 30
0.0
 10
25.0019
 20
154.7305
 30
0.0
 10
25.0019
 20
154.7305
 30
0.0
 10
25.3547
 20
154.7305
 30
0.0
 10
25.3547
 20
154.7305
 30
0.0
 10
25.3547
 20
154.7305
 30
0.0
 10
25.3547
 20
154.7305
 30
0.0
 10
25.7075
 20
154.3777
 30
0.0
 10
25.7075
 20
154.3777
 30
0.0
 10
25.7075
 20
154.3777
 30
0.0
 10
25.7075
 20
154.3777
 30
0.0
 10
26.0603
 20
154.3777
 30
0.0
 10
26.0603
 20
154.3777
 30
0.0
 10
26.0603
 20
154.3777
 30
0.0
 10
26.0603
 20
154.3777
 30
0.0
 10
26.7658
 20
154.025
 30
0.0
 10
26.7658
 20
154.025
 30
0.0
 10
26.7658
 20
154.025
 30
0.0
 10
26.7658
 20
154.025
 30
0.0
 10
30.9991
 20
153.3194
 30
0.0
 10
30.9991
 20
153.3194
 30
0.0
 10
30.9991
 20
153.3194
 30
0.0
 10
30.9991
 20
153.3194
 30
0.0
 10
31.7124
 20
153.2372
 30
0.0
 10
31.7124
 20
153.2372
 30
0.0
 10
31.7124
 20
153.2372
 30
0.0
 10
31.7124
 20
153.2372
 30
0.0
 10
36.9964
 20
153.6722
 30
0.0
 10
36.9964
 20
153.6722
 30
0.0
 10
36.9964
 20
153.6722
 30
0.0
 10
36.9964
 20
153.6722
 30
0.0
 10
36.9964
 20
155.0833
 30
0.0
 10
36.9964
 20
155.0833
 30
0.0
 10
36.9964
 20
155.0833
 30
0.0
 10
36.9964
 20
155.0833
 30
0.0
 10
36.6084
 20
158.9628
 30
0.0
 10
36.6084
 20
158.9628
 30
0.0
 10
36.6084
 20
158.9628
 30
0.0
 10
36.6084
 20
158.9628
 30
0.0
 10
31.3717
 20
158.1206
 30
0.0
 10
31.3717
 20
158.1206
 30
0.0
 10
31.3717
 20
158.1206
 30
0.0
 10
28.9036
 20
157.9056
 30
0.0
 10
24.5301
 20
160.0307
 30
0.0
 10
23.5908
 20
161.4333
 30
0.0
 10
23.5908
 20
161.4333
 30
0.0
 10
23.5908
 20
161.4333
 30
0.0
 10
25.0019
 20
162.8444
 30
0.0
 10
25.0019
 20
162.8444
 30
0.0
 10
25.0019
 20
162.8444
 30
0.0
 10
25.0019
 20
162.8444
 30
0.0
 10
25.7075
 20
165.6666
 30
0.0
 10
25.7075
 20
165.6666
 30
0.0
 10
25.7075
 20
165.6666
 30
0.0
 10
24.6076
 20
167.4001
 30
0.0
 10
25.6864
 20
168.0564
 30
0.0
 10
23.245
 20
169.5542
 30
0.0
 10
23.245
 20
169.5542
 30
0.0
 10
22.0891
 20
170.2633
 30
0.0
 10
20.2063
 20
170.6055
 30
0.0
 10
18.2992
 20
170.6055
 30
0.0
 10
18.2992
 20
170.6055
 30
0.0
 10
18.2992
 20
170.6055
 30
0.0
 10
12.3019
 20
170.6055
 30
0.0
 10
12.3019
 20
170.6055
 30
0.0
 10
12.3019
 20
170.6055
 30
0.0
 10
12.3019
 20
170.6055
 30
0.0
 10
12.6547
 20
154.3777
 30
0.0
 10
12.6547
 20
154.3777
 30
0.0
  0
ENDSEC
  0
SECTION
  2
OBJECTS
  0
DICTIONARY
  5
C
330
0
100
AcDbDictionary
281
     1
  3
ACAD_GROUP
350
D
  3
ACAD_IMAGE_DICT
350
2C
  3
ACAD_LAYOUT
350
1A
  3
ACAD_MLINESTYLE
350
17
  3
ACAD_PLOTSETTINGS
350
19
  3
ACAD_PLOTSTYLENAME
350
E
  0
IMAGEDEF_REACTOR
  5
2F
330
2E
100
AcDbRasterImageDefReactor
 90
        2
330
2E
  0
IMAGEDEF_REACTOR
  5
32
330
31
100
AcDbRasterImageDefReactor
 90
        2
330
31
  0
IMAGEDEF_REACTOR
  5
35
330
34
100
AcDbRasterImageDefReactor
 90
        2
330
34
  0
IMAGEDEF_REACTOR
  5
38
330
37
100
AcDbRasterImageDefReactor
 90
        2
330
37
  0
IMAGEDEF_REACTOR
  5
3B
330
3A
100
AcDbRasterImageDefReactor
 90
        2
330
3A
  0
IMAGEDEF_REACTOR
  5
3E
330
3D
100
AcDbRasterImageDefReactor
 90
        2
330
3D
  0
IMAGEDEF_REACTOR
  5
41
330
40
100
AcDbRasterImageDefReactor
 90
        2
330
40
  0
IMAGEDEF_REACTOR
  5
44
330
43
100
AcDbRasterImageDefReactor
 90
        2
330
43
  0
IMAGEDEF_REACTOR
  5
47
330
46
100
AcDbRasterImageDefReactor
 90
        2
330
46
  0
IMAGEDEF_REACTOR
  5
4A
330
49
100
AcDbRasterImageDefReactor
 90
        2
330
49
  0
IMAGEDEF_REACTOR
  5
4D
330
4C
100
AcDbRasterImageDefReactor
 90
        2
330
4C
  0
IMAGEDEF_REACTOR
  5
50
330
4F
100
AcDbRasterImageDefReactor
 90
        2
330
4F
  0
IMAGEDEF_REACTOR
  5
53
330
52
100
AcDbRasterImageDefReactor
 90
        2
330
52
  0
IMAGEDEF_REACTOR
  5
56
330
55
100
AcDbRasterImageDefReactor
 90
        2
330
55
  0
IMAGEDEF_REACTOR
  5
59
330
58
100
AcDbRasterImageDefReactor
 90
        2
330
58
  0
IMAGEDEF_REACTOR
  5
5C
330
5B
100
AcDbRasterImageDefReactor
 90
        2
330
5B
  0
IMAGEDEF_REACTOR
  5
5F
330
5E
100
AcDbRasterImageDefReactor
 90
        2
330
5E
  0
DICTIONARY
  5
D
102
{ACAD_REACTORS
330
C
102
}
330
C
100
AcDbDictionary
281
     1
  0
DICTIONARY
  5
2C
102
{ACAD_REACTORS
330
C
102
}
330
C
100
AcDbDictionary
281
     1
  3
Image #1
350
2D
  3
Image #10
350
48
  3
Image #11
350
4B
  3
Image #12
350
4E
  3
Image #13
350
51
  3
Image #14
350
54
  3
Image #15
350
57
  3
Image #16
350
5A
  3
Image #17
350
5D
  3
Image #2
350
30
  3
Image #3
350
33
  3
Image #4
350
36
  3
Image #5
350
39
  3
Image #6
350
3C
  3
Image #7
350
3F
  3
Image #8
350
42
  3
Image #9
350
45
  0
DICTIONARY
  5
1A
102
{ACAD_REACTORS
330
C
102
}
330
C
100
AcDbDictionary
281
     1
  3
Layout1
350
1E
  3
Layout2
350
26
  3
Model
350
22
  0
DICTIONARY
  5
17
102
{ACAD_REACTORS
330
C
102
}
330
C
100
AcDbDictionary
281
     1
  3
Standard
350
18
  0
DICTIONARY
  5
19
102
{ACAD_REACTORS
330
C
102
}
330
C
100
AcDbDictionary
281
     1
  0
ACDBDICTIONARYWDFLT
  5
E
102
{ACAD_REACTORS
330
C
102
}
330
C
100
AcDbDictionary
281
     1
  3
Normal
350
F
100
AcDbDictionaryWithDefault
340
F
  0
IMAGEDEF
  5
2D
102
{ACAD_REACTORS
330
2C
330
2F
102
}
330
2C
100
AcDbRasterImageDef
 90
        0
  1
O:\Ruben\Makeroni\Logo\Makeroni_ACD_0.jpg
 10
8762.0
 20
4241.0
 11
0.0001141291942478886
 21
0.0001141291942478886
280
     1
281
     5
  0
IMAGEDEF
  5
48
102
{ACAD_REACTORS
330
2C
330
4A
102
}
330
2C
100
AcDbRasterImageDef
 90
        0
  1
O:\Ruben\Makeroni\Logo\Makeroni_ACD_9.jpg
 10
8762.0
 20
4241.0
 11
0.0001141291942478886
 21
0.0001141291942478886
280
     1
281
     5
  0
IMAGEDEF
  5
4B
102
{ACAD_REACTORS
330
2C
330
4D
102
}
330
2C
100
AcDbRasterImageDef
 90
        0
  1
O:\Ruben\Makeroni\Logo\Makeroni_ACD_10.jpg
 10
8762.0
 20
4241.0
 11
0.0001141291942478886
 21
0.0001141291942478886
280
     1
281
     5
  0
IMAGEDEF
  5
4E
102
{ACAD_REACTORS
330
2C
330
50
102
}
330
2C
100
AcDbRasterImageDef
 90
        0
  1
O:\Ruben\Makeroni\Logo\Makeroni_ACD_11.jpg
 10
8762.0
 20
4241.0
 11
0.0001141291942478886
 21
0.0001141291942478886
280
     1
281
     5
  0
IMAGEDEF
  5
51
102
{ACAD_REACTORS
330
2C
330
53
102
}
330
2C
100
AcDbRasterImageDef
 90
        0
  1
O:\Ruben\Makeroni\Logo\Makeroni_ACD_12.jpg
 10
8762.0
 20
4241.0
 11
0.0001141291942478886
 21
0.0001141291942478886
280
     1
281
     5
  0
IMAGEDEF
  5
54
102
{ACAD_REACTORS
330
2C
330
56
102
}
330
2C
100
AcDbRasterImageDef
 90
        0
  1
O:\Ruben\Makeroni\Logo\Makeroni_ACD_13.jpg
 10
8762.0
 20
4241.0
 11
0.0001141291942478886
 21
0.0001141291942478886
280
     1
281
     5
  0
IMAGEDEF
  5
57
102
{ACAD_REACTORS
330
2C
330
59
102
}
330
2C
100
AcDbRasterImageDef
 90
        0
  1
O:\Ruben\Makeroni\Logo\Makeroni_ACD_14.jpg
 10
8762.0
 20
4241.0
 11
0.0001141291942478886
 21
0.0001141291942478886
280
     1
281
     5
  0
IMAGEDEF
  5
5A
102
{ACAD_REACTORS
330
2C
330
5C
102
}
330
2C
100
AcDbRasterImageDef
 90
        0
  1
O:\Ruben\Makeroni\Logo\Makeroni_ACD_15.jpg
 10
8762.0
 20
4241.0
 11
0.0001141291942478886
 21
0.0001141291942478886
280
     1
281
     5
  0
IMAGEDEF
  5
5D
102
{ACAD_REACTORS
330
2C
330
5F
102
}
330
2C
100
AcDbRasterImageDef
 90
        0
  1
O:\Ruben\Makeroni\Logo\Makeroni_ACD_16.jpg
 10
8762.0
 20
4241.0
 11
0.0001141291942478886
 21
0.0001141291942478886
280
     1
281
     5
  0
IMAGEDEF
  5
30
102
{ACAD_REACTORS
330
2C
330
32
102
}
330
2C
100
AcDbRasterImageDef
 90
        0
  1
O:\Ruben\Makeroni\Logo\Makeroni_ACD_1.jpg
 10
8762.0
 20
4241.0
 11
0.0001141291942478886
 21
0.0001141291942478886
280
     1
281
     5
  0
IMAGEDEF
  5
33
102
{ACAD_REACTORS
330
2C
330
35
102
}
330
2C
100
AcDbRasterImageDef
 90
        0
  1
O:\Ruben\Makeroni\Logo\Makeroni_ACD_2.jpg
 10
8762.0
 20
4241.0
 11
0.0001141291942478886
 21
0.0001141291942478886
280
     1
281
     5
  0
IMAGEDEF
  5
36
102
{ACAD_REACTORS
330
2C
330
38
102
}
330
2C
100
AcDbRasterImageDef
 90
        0
  1
O:\Ruben\Makeroni\Logo\Makeroni_ACD_3.jpg
 10
8762.0
 20
4241.0
 11
0.0001141291942478886
 21
0.0001141291942478886
280
     1
281
     5
  0
IMAGEDEF
  5
39
102
{ACAD_REACTORS
330
2C
330
3B
102
}
330
2C
100
AcDbRasterImageDef
 90
        0
  1
O:\Ruben\Makeroni\Logo\Makeroni_ACD_4.jpg
 10
8762.0
 20
4241.0
 11
0.0001141291942478886
 21
0.0001141291942478886
280
     1
281
     5
  0
IMAGEDEF
  5
3C
102
{ACAD_REACTORS
330
2C
330
3E
102
}
330
2C
100
AcDbRasterImageDef
 90
        0
  1
O:\Ruben\Makeroni\Logo\Makeroni_ACD_5.jpg
 10
8762.0
 20
4241.0
 11
0.0001141291942478886
 21
0.0001141291942478886
280
     1
281
     5
  0
IMAGEDEF
  5
3F
102
{ACAD_REACTORS
330
2C
330
41
102
}
330
2C
100
AcDbRasterImageDef
 90
        0
  1
O:\Ruben\Makeroni\Logo\Makeroni_ACD_6.jpg
 10
8762.0
 20
4241.0
 11
0.0001141291942478886
 21
0.0001141291942478886
280
     1
281
     5
  0
IMAGEDEF
  5
42
102
{ACAD_REACTORS
330
2C
330
44
102
}
330
2C
100
AcDbRasterImageDef
 90
        0
  1
O:\Ruben\Makeroni\Logo\Makeroni_ACD_7.jpg
 10
8762.0
 20
4241.0
 11
0.0001141291942478886
 21
0.0001141291942478886
280
     1
281
     5
  0
IMAGEDEF
  5
45
102
{ACAD_REACTORS
330
2C
330
47
102
}
330
2C
100
AcDbRasterImageDef
 90
        0
  1
O:\Ruben\Makeroni\Logo\Makeroni_ACD_8.jpg
 10
8762.0
 20
4241.0
 11
0.0001141291942478886
 21
0.0001141291942478886
280
     1
281
     5
  0
LAYOUT
  5
1E
102
{ACAD_REACTORS
330
1A
102
}
330
1A
100
AcDbPlotSettings
  1

  2

  4

  6

 40
0.0
 41
0.0
 42
0.0
 43
0.0
 44
0.0
 45
0.0
 46
0.0
 47
0.0
 48
0.0
 49
0.0
140
0.0
141
0.0
142
1.0
143
1.0
 70
   688
 72
     0
 73
     0
 74
     5
  7

 75
    16
 76
     0
 77
     2
 78
   300
147
1.0
148
0.0
149
0.0
100
AcDbLayout
  1
Layout1
 70
     1
 71
     1
 10
0.0
 20
0.0
 11
12.0
 21
9.0
 12
0.0
 22
0.0
 32
0.0
 14
1.000000000000000E+20
 24
1.000000000000000E+20
 34
1.000000000000000E+20
 15
-1.000000000000000E+20
 25
-1.000000000000000E+20
 35
-1.000000000000000E+20
146
0.0
 13
0.0
 23
0.0
 33
0.0
 16
1.0
 26
0.0
 36
0.0
 17
0.0
 27
1.0
 37
0.0
 76
     0
330
1B
  0
LAYOUT
  5
26
102
{ACAD_REACTORS
330
1A
102
}
330
1A
100
AcDbPlotSettings
  1

  2

  4

  6

 40
0.0
 41
0.0
 42
0.0
 43
0.0
 44
0.0
 45
0.0
 46
0.0
 47
0.0
 48
0.0
 49
0.0
140
0.0
141
0.0
142
1.0
143
1.0
 70
   688
 72
     0
 73
     0
 74
     5
  7

 75
    16
 76
     0
 77
     2
 78
   300
147
1.0
148
0.0
149
0.0
100
AcDbLayout
  1
Layout2
 70
     1
 71
     2
 10
0.0
 20
0.0
 11
0.0
 21
0.0
 12
0.0
 22
0.0
 32
0.0
 14
0.0
 24
0.0
 34
0.0
 15
0.0
 25
0.0
 35
0.0
146
0.0
 13
0.0
 23
0.0
 33
0.0
 16
1.0
 26
0.0
 36
0.0
 17
0.0
 27
1.0
 37
0.0
 76
     0
330
23
  0
LAYOUT
  5
22
102
{ACAD_REACTORS
330
1A
102
}
330
1A
100
AcDbPlotSettings
  1

  2

  4

  6

 40
0.0
 41
0.0
 42
0.0
 43
0.0
 44
0.0
 45
0.0
 46
0.0
 47
0.0
 48
0.0
 49
0.0
140
0.0
141
0.0
142
1.0
143
1.0
 70
  1712
 72
     0
 73
     0
 74
     0
  7

 75
     0
 76
     0
 77
     2
 78
   300
147
1.0
148
0.0
149
0.0
100
AcDbLayout
  1
Model
 70
     1
 71
     0
 10
0.0
 20
0.0
 11
0.0
 21
0.0
 12
0.0
 22
0.0
 32
0.0
 14
-58.5959
 24
-42.3465
 34
0.0
 15
65.3698
 25
171.6947
 35
0.0
146
0.0
 13
0.0
 23
0.0
 33
0.0
 16
1.0
 26
0.0
 36
0.0
 17
0.0
 27
1.0
 37
0.0
 76
     0
330
1F
  0
MLINESTYLE
  5
18
102
{ACAD_REACTORS
330
17
102
}
330
17
100
AcDbMlineStyle
  2
Standard
 70
     0
  3

 62
   256
 51
90.0
 52
90.0
 71
     2
 49
0.5
 62
   256
  6
BYLAYER
 49
-0.5
 62
   256
  6
BYLAYER
  0
ACDBPLACEHOLDER
  5
F
102
{ACAD_REACTORS
330
E
102
}
330
E
  0
ENDSEC
  0
EOF
