<?xml version="1.0" encoding="UTF-8"?>
<!DOCTYPE svg PUBLIC "-//W3C//DTD SVG 1.1//EN" "http://www.w3.org/Graphics/SVG/1.1/DTD/svg11.dtd">
<!-- Creator: CorelDRAW -->
<svg xmlns="http://www.w3.org/2000/svg" xml:space="preserve" width="210mm" height="297mm" style="shape-rendering:geometricPrecision; text-rendering:geometricPrecision; image-rendering:optimizeQuality; fill-rule:evenodd; clip-rule:evenodd"
viewBox="0 0 210 297"
 xmlns:xlink="http://www.w3.org/1999/xlink">
 <defs>
  <style type="text/css">
   <![CDATA[
    .fil1 {fill:#F19ABE;fill-rule:nonzero}
    .fil2 {fill:white;fill-rule:nonzero}
    .fil0 {fill:#212121;fill-rule:nonzero}
   ]]>
  </style>
 </defs>
 <g id="Capa_x0020_1">
  <metadata id="CorelCorpID_0Corel-Layer"/>
  <path class="fil0" d="M38.0579 156.89c-0.1919,0 -0.3711,-0.3008 -0.5375,-0.9024 -0.1536,-0.5119 -0.2304,-0.9087 -0.2304,-1.1903 0,-0.3712 0.96,-0.6719 2.8798,-0.9024 1.3952,-0.1663 2.5855,-0.2495 3.571,-0.2495 0.2304,0 0.512,0.2527 0.8448,0.7584 0.3328,0.5055 0.4991,0.8862 0.4991,1.1422 0,0.5376 -0.2752,0.9024 -0.8255,1.0943 -0.3328,0.1153 -0.8384,0.1729 -1.5167,0.1729l-0.1344 0.0959c-0.0128,0.0768 -0.0192,0.1601 -0.0192,0.2497l0 0.2112c0,0.1151 0,0.2975 0,0.5471 0,0.2496 0,0.4384 0,0.5664l0 8.5818c0,0.2304 -0.1056,0.4384 -0.3168,0.624 -0.2112,0.1856 -0.432,0.2784 -0.6623,0.2784 -0.1281,0 -0.4609,-0.128 -0.9984,-0.384 -0.5376,-0.256 -0.8896,-0.4416 -1.0559,-0.5568l-0.1536 -0.4224c0,-1.1646 0.0128,-2.2782 0.0383,-3.3405l0.0961 -3.5518c0.0384,-1.3055 0.0576,-2.291 0.0576,-2.9566l-0.1153 -0.0961c-0.6143,0.1537 -1.0879,0.2305 -1.4207,0.2305zm9.065 -0.652c1.0025,-0.2239 1.7064,-0.336 2.1117,-0.336 0.6506,0 1.1972,0.2053 1.6397,0.616 0.4427,0.4105 0.664,0.9359 0.664,1.5757 0,0.224 -0.4106,0.384 -1.2319,0.4799 -0.4906,0.0641 -0.9971,0.0961 -1.5197,0.0961 -0.3413,0 -0.5706,-0.016 -0.688,-0.048l-0.0799 0.08 0.0959 0.9599c0,0.2559 -0.0532,0.5758 -0.1599,0.9598l0.048 0.064c0.1786,-0.0427 0.3545,-0.08 0.5226,-0.112 0.3066,-0.0534 0.6079,-0.0799 0.9039,-0.0799 0.6452,0 1.0825,0.0692 1.3144,0.2079 0.3173,0.2026 0.4773,0.5973 0.4773,1.1838 0,0.032 0.0267,0.112 0.0773,0.24 0.0534,0.128 0.0854,0.208 0.0961,0.24l-0.1121 0.288c-0.2559,0.1386 -0.7412,0.2506 -1.4558,0.3359 -0.5866,0.0746 -1.0932,0.112 -1.5197,0.112 -0.1814,0 -0.304,-0.0054 -0.368,-0.016l-0.048 0.048c0.0426,0.4692 0.064,0.6932 0.064,0.6719 0,0.192 -0.0534,0.5439 -0.1601,1.0559l0.0641 0.064c0.3519,-0.0961 0.6132,-0.1441 0.7838,-0.1441 1.0133,0 1.6691,0.0587 1.9678,0.176 0.5866,0.2347 0.8799,0.784 0.8799,1.6477 0,0.2773 -0.208,0.416 -0.624,0.416 -0.2026,0.0214 -1.0611,0.1706 -2.5755,0.4479 -0.6507,0.1174 -1.0826,0.1761 -1.2959,0.1761 -0.1386,0 -0.304,-0.1014 -0.4959,-0.304 -0.4373,-0.4693 -0.6932,-0.7785 -0.7679,-0.9279 -0.1387,-0.2453 -0.208,-0.6239 -0.208,-1.1359l0 -0.6239c0,-5.0872 0.1493,-7.9509 0.4479,-8.5907 0.1493,-0.0747 0.336,-0.1281 0.56,-0.1601 0.128,0.0747 0.3253,0.1866 0.5919,0.336zm9.3907 3.7755c0,-0.128 0.032,-0.256 0.0961,-0.3839 0.1172,-0.2453 0.1759,-0.3733 0.1759,-0.384l-0.1919 -0.208c-0.416,0.2133 -0.8106,0.9119 -1.1839,2.0957 -0.3307,1.0452 -0.4959,1.8877 -0.4959,2.5277 0,1.1732 0.2346,1.7598 0.7038,1.7598 0.512,0 0.976,-0.2666 1.3918,-0.7999 0.288,-0.3947 0.7147,-0.9813 1.2799,-1.7598 0.2133,0 0.4613,0.2133 0.7439,0.64 0.2826,0.4265 0.424,0.7518 0.424,0.9758 0,0.7465 -0.368,1.5171 -1.1039,2.3117 -0.7359,0.7945 -1.4771,1.1918 -2.2237,1.1918 -0.9172,0 -1.7971,-0.528 -2.6396,-1.5838 -0.7999,-1.0132 -1.1999,-1.9891 -1.1999,-2.9276 0,-0.6186 0.2027,-1.5305 0.6079,-2.7356 0.384,-1.1518 0.8212,-2.1491 1.3119,-2.9916 0.7786,-1.3225 1.5464,-1.9837 2.3036,-1.9837 0.032,0 0.2987,0.1653 0.7999,0.4959 0.0854,0.0534 0.2454,0.1173 0.48,0.192 0.2346,0.0746 0.4106,0.1653 0.5279,0.2719 0.608,0.576 0.9119,1.5465 0.9119,2.9117 0,0.7785 -0.08,1.2958 -0.24,1.5517 -0.2133,0.3413 -0.6825,0.5119 -1.4078,0.5119 -0.7146,0 -1.0719,-0.5599 -1.0719,-1.6797zm6.1912 2.7196c-0.0107,0.2027 0.0053,0.8265 0.048,1.8718 0.0747,1.6851 0.1119,2.7409 0.1119,3.1675 0,0.1494 -0.1199,0.2906 -0.3599,0.424 -0.2399,0.1333 -0.4453,0.2 -0.6159,0.2 -0.1919,0 -0.4932,-0.0961 -0.9039,-0.288 -0.4106,-0.192 -0.6532,-0.3627 -0.7279,-0.5119 0.064,-0.416 0.096,-1.1519 0.096,-2.2077 0,-0.8853 -0.0106,-1.8611 -0.032,-2.9277l-0.064 -2.6556c-0.0106,-1.4825 0.0694,-2.4636 0.24,-2.9435l0.304 -0.1761 0.2879 0.016c0.096,0 0.2186,-0.0293 0.368,-0.0879 0.1493,-0.0587 0.256,-0.088 0.3199,-0.088 0.8639,0 1.9517,1.9571 3.2636,5.8712 0,-0.6826 -0.0293,-1.7011 -0.088,-3.0556 -0.0587,-1.3545 -0.088,-2.3731 -0.088,-3.0556 0,-0.448 0.3786,-0.6719 1.1358,-0.6719 0.7892,0 1.1839,0.6506 1.1839,1.9517 0,1.2372 -0.016,2.4637 -0.048,3.6795l-0.0959 2.9116c-0.032,1.0772 -0.0481,1.9517 -0.0481,2.6237 0,0.5546 -0.2559,0.8319 -0.7679,0.8319 -0.128,0 -0.4266,-0.0907 -0.8958,-0.272 -0.4694,-0.1814 -0.7627,-0.32 -0.8799,-0.416 -0.0427,-0.032 -0.3093,-0.7785 -0.7999,-2.2397 -0.5439,-1.6318 -0.8426,-2.517 -0.8959,-2.6556l-0.048 0.7039zm9.5507 -6.4471c0.1173,0.064 0.3786,0.1706 0.7839,0.32 0.32,0.1173 0.5759,0.2506 0.7679,0.3999 0.5866,0.448 1.0346,1.1518 1.3438,2.1118 0.2667,0.7998 0.4,1.6371 0.4,2.5115 0,1.1946 -0.2667,2.4478 -0.7999,3.7596 -0.672,1.6424 -1.5145,2.4636 -2.5277,2.4636 -0.1493,0 -0.32,-0.048 -0.5119,-0.144 -0.0854,-0.0319 -0.3306,-0.0799 -0.736,-0.1439 -0.2879,-0.0534 -0.5226,-0.1387 -0.7038,-0.256 -1.4399,-0.9172 -2.1597,-2.453 -2.1597,-4.6073 0,-1.1412 0.2773,-2.4638 0.8319,-3.9675 0.6932,-1.8771 1.509,-2.8157 2.4476,-2.8157 0.1174,0 0.4052,0.1227 0.8639,0.368zm-0.6879 2.7997c-0.3946,0.7038 -0.6612,1.3491 -0.7999,1.9357 -0.1279,0.5439 -0.192,1.2424 -0.192,2.0957 0,0.4799 0.0641,0.9811 0.192,1.5038 0.1814,0.7465 0.448,1.1199 0.7999,1.1199 0.064,0 0.16,-0.1014 0.2879,-0.304 0.704,-1.1199 1.056,-2.485 1.056,-4.0955 0,-0.5013 -0.0641,-1.0132 -0.1921,-1.5358 -0.1813,-0.7358 -0.4372,-1.1358 -0.7679,-1.1999 -0.096,0.0321 -0.2239,0.1921 -0.3839,0.4801zm10.2706 6.9909c0,0.2134 -0.0693,0.3894 -0.208,0.5279 -0.0214,0.0107 -0.624,0.1761 -1.8077,0.4961l-1.9198 0.5279c-0.9279,-0.384 -1.3918,-0.8746 -1.3918,-1.4719 0,-0.8105 0.0267,-1.7277 0.08,-2.7516 0.128,-2.4743 0.192,-4.0207 0.192,-4.6393 0,-0.8639 -0.0373,-1.6638 -0.112,-2.3998 0.1387,-0.3305 0.384,-0.4959 0.7358,-0.4959 0.5546,0 1.0026,0.1494 1.3439,0.448 0.3412,0.2987 0.512,0.7199 0.512,1.2638 0,0.5546 -0.0214,1.3918 -0.0641,2.5117 -0.0426,1.1198 -0.064,1.9571 -0.064,2.5116 0,0.1813 -0.0533,0.5653 -0.1599,1.1519 -0.0534,0.2986 -0.08,0.5226 -0.08,0.6719l0.08 0.096c0.4692,-0.0854 0.8159,-0.128 1.0398,-0.128 0.5439,0 0.9839,0.1467 1.3198,0.44 0.336,0.2933 0.504,0.7065 0.504,1.2397zm4.6554 -9.7906c0.1173,0.064 0.3786,0.1706 0.7839,0.32 0.32,0.1173 0.5759,0.2506 0.7679,0.3999 0.5866,0.448 1.0346,1.1518 1.3438,2.1118 0.2667,0.7998 0.4,1.6371 0.4,2.5115 0,1.1946 -0.2667,2.4478 -0.7999,3.7596 -0.672,1.6424 -1.5145,2.4636 -2.5277,2.4636 -0.1494,0 -0.32,-0.048 -0.5119,-0.144 -0.0854,-0.0319 -0.3306,-0.0799 -0.736,-0.1439 -0.2879,-0.0534 -0.5226,-0.1387 -0.7038,-0.256 -1.4399,-0.9172 -2.1597,-2.453 -2.1597,-4.6073 0,-1.1412 0.2773,-2.4638 0.8319,-3.9675 0.6932,-1.8771 1.509,-2.8157 2.4476,-2.8157 0.1174,0 0.4052,0.1227 0.8639,0.368zm-0.6879 2.7997c-0.3946,0.7038 -0.6612,1.3491 -0.7999,1.9357 -0.1279,0.5439 -0.192,1.2424 -0.192,2.0957 0,0.4799 0.0641,0.9811 0.192,1.5038 0.1814,0.7465 0.448,1.1199 0.7999,1.1199 0.064,0 0.16,-0.1014 0.2879,-0.304 0.704,-1.1199 1.0559,-2.485 1.0559,-4.0955 0,-0.5013 -0.064,-1.0132 -0.192,-1.5358 -0.1813,-0.7358 -0.4372,-1.1358 -0.7679,-1.1999 -0.096,0.0321 -0.2239,0.1921 -0.3839,0.4801zm8.7028 4.7512c-0.5333,0 -0.8372,-0.2293 -0.9119,-0.6878 -0.0214,-0.2133 -0.0533,-0.4799 -0.0959,-0.7999 0.0852,-0.1707 0.1919,-0.256 0.3199,-0.256 0.0533,0 0.1333,0.0134 0.24,0.04 0.1066,0.0267 0.1813,0.04 0.2239,0.04 0.2773,0 0.6133,-0.0373 1.0079,-0.112 0.9065,-0.1707 1.4718,-0.2559 1.6957,-0.2559 0.1921,0 0.3787,0.2026 0.56,0.6079 0.16,0.3519 0.2399,0.6452 0.2399,0.8798 0,0.8212 -0.3252,1.7651 -0.9758,2.8316 -0.7253,1.1839 -1.4772,1.7758 -2.2557,1.7758 -0.1387,0 -0.2613,-0.016 -0.368,-0.048l-0.336 -0.144c-0.2879,-0.0746 -0.5758,-0.1439 -0.8638,-0.2079 -1.6425,-0.8106 -2.4637,-2.3623 -2.4637,-4.6554 0,-0.7145 0.128,-1.5838 0.384,-2.6077 0.2773,-1.1092 0.6292,-2.037 1.0558,-2.7835 0.64,-1.1199 1.3758,-1.6798 2.2077,-1.6798 0.2666,0 0.6346,0.176 1.1039,0.5279 0.3733,0.2773 0.8799,0.6452 1.5198,1.1039 0.3413,0.3625 0.5119,0.9811 0.5119,1.8557l0 0.24c0,0.7146 -0.1226,1.2212 -0.368,1.5198 -0.1066,0.0426 -0.2079,0.0799 -0.3039,0.1119l-1.2798 0c-0.4479,0 -0.672,-0.3625 -0.672,-1.0878 0,-0.1173 0.016,-0.256 0.048,-0.4159 0.0747,-0.384 0.1121,-0.624 0.1121,-0.72l-0.224 -0.2719c-0.5226,0.1813 -0.9279,0.8639 -1.2159,2.0477 -0.2239,0.9173 -0.3359,1.765 -0.3359,2.5437 0,0.5119 0.0533,1.0132 0.16,1.5037 0.1493,0.6933 0.3679,1.1092 0.6558,1.2479 0.3413,-0.1067 0.6346,-0.4267 0.8799,-0.9599 0.1174,-0.288 0.304,-0.7199 0.56,-1.2958 -0.0747,0.0747 -0.2827,0.1119 -0.624,0.1119l-0.1919 0zm6.959 -7.199c0,0.448 -0.0293,1.1145 -0.088,1.9998 -0.0586,0.8852 -0.0879,1.5518 -0.0879,1.9997 0,0.4799 0.016,1.2052 0.048,2.1757 0.032,0.9706 0.0479,1.6958 0.0479,2.1757l0 0.368c0,0.0533 0,0.1279 0,0.2239 0,0.096 0,0.1707 0,0.224 0.0214,1.2158 -0.1946,1.8238 -0.6478,1.8238 -0.2106,0 -0.5786,-0.1334 -1.1065,-0.4 -0.528,-0.2666 -0.8159,-0.4853 -0.8693,-0.6559 0.0107,-0.0213 0.048,-0.112 0.1173,-0.2719 0.0507,-0.1067 0.0747,-0.1921 0.0747,-0.2561 0,-0.5652 -0.016,-1.1357 -0.048,-1.7117l-0.144 -2.8636 0 -5.3113c0,-0.0427 0.0267,-0.1093 0.0801,-0.1999 0.0532,-0.0907 0.1012,-0.1414 0.1466,-0.1521 0.2879,-0.0959 0.5839,-0.1439 0.8825,-0.1439 0.248,0 0.5653,0.1013 0.9518,0.304 0.4294,0.2346 0.6426,0.4585 0.6426,0.6718zm0.7999 -3.5515c0.1494,-0.0107 0.2241,0.0694 0.2241,0.24 0,0.1387 -0.0747,0.2773 -0.2241,0.416 -0.1812,0.1812 -0.5812,0.4745 -1.1997,0.8799 -0.704,0.4692 -1.1199,0.7038 -1.2479,0.7038 -0.2667,0 -0.3999,-0.0693 -0.3999,-0.2106 0,-0.0854 0.2213,-0.4212 0.6638,-1.0052 0.4427,-0.5866 0.7093,-0.9039 0.7999,-0.9519 0.0907,-0.048 0.1894,-0.072 0.296,-0.072 0.2026,0.032 0.3306,0.048 0.384,0.048l0.7038 -0.048zm5.986 3.9515c-0.0534,0.3733 -0.0801,0.5279 -0.0801,0.4639 0,0.8105 0.0961,1.7651 0.288,2.8636l0.5759 3.3436c0.192,1.1305 0.288,2.053 0.288,2.7676 0,0.3413 -0.3466,0.5119 -1.0398,0.5119 -0.5013,0 -0.8479,-0.2239 -1.04,-0.6719 -0.0532,-0.1173 -0.1546,-0.5546 -0.3038,-1.3118 -0.0427,-0.2346 -0.1227,-0.352 -0.2401,-0.352 -1.0025,0 -1.6531,0.1707 -1.9517,0.512 -0.16,0.192 -0.2613,0.6159 -0.3039,1.2718 -0.0427,0.656 -0.208,1.1705 -0.496,1.5438 -0.224,0.0853 -0.3626,0.128 -0.4159,0.128 -0.5759,0 -1.0558,-0.368 -1.4398,-1.1039 0,-0.3306 0.2079,-1.3918 0.6239,-3.1836 0.2666,-1.1411 0.608,-2.5115 1.0238,-4.1114 0.5866,-2.3036 0.9546,-3.5355 1.1039,-3.6954 0.2666,-0.0747 0.4213,-0.1121 0.4639,-0.1121 0.4373,0 0.9706,0.1014 1.5999,0.304 0.7678,0.2453 1.2157,0.5226 1.3438,0.8319zm-3.1837 5.5032c0,0.224 0.4107,0.336 1.2319,0.336 0.1813,0 0.272,-0.064 0.272,-0.1919 0,-0.2348 -0.0214,-0.5014 -0.064,-0.8 -0.128,-0.8851 -0.192,-1.3971 -0.192,-1.5358 0,-0.2026 -0.0106,-0.5439 -0.032,-1.0238l-0.032 -0.7839c-0.0533,0.1706 -0.1973,0.6399 -0.4319,1.4078 -0.5013,1.6532 -0.752,2.517 -0.752,2.5916zm14.9625 -3.9808c0,-0.1536 0.0384,-0.3072 0.1152,-0.4608 0.1408,-0.2944 0.2111,-0.448 0.2111,-0.4608l-0.2303 -0.2495c-0.4992,0.2559 -0.9727,1.0943 -1.4208,2.515 -0.3967,1.2543 -0.595,2.2654 -0.595,3.0334 0,1.4079 0.2815,2.1118 0.8447,2.1118 0.6143,0 1.1711,-0.32 1.6703,-0.9598 0.3455,-0.4737 0.8575,-1.1776 1.5359,-2.112 0.2559,0 0.5535,0.256 0.8927,0.768 0.3392,0.512 0.5088,0.9023 0.5088,1.1711 0,0.896 -0.4415,1.8207 -1.3247,2.7742 -0.8832,0.9536 -1.7727,1.4304 -2.6687,1.4304 -1.1007,0 -2.1566,-0.6336 -3.1677,-1.9007 -0.96,-1.216 -1.44,-2.3871 -1.44,-3.5134 0,-0.7424 0.2432,-1.8367 0.7295,-3.283 0.4609,-1.3823 0.9856,-2.579 1.5744,-3.5902 0.9343,-1.5871 1.8559,-2.3806 2.7646,-2.3806 0.0384,0 0.3583,0.1984 0.9599,0.5952 0.1025,0.064 0.2944,0.1407 0.576,0.2303 0.2816,0.0897 0.4927,0.1984 0.6336,0.3264 0.7295,0.6911 1.0943,1.8559 1.0943,3.4942 0,0.9344 -0.096,1.5551 -0.288,1.8622 -0.256,0.4097 -0.8191,0.6144 -1.6895,0.6144 -0.8575,0 -1.2863,-0.6719 -1.2863,-2.0158zm6.8698 7.2444c0,0.5226 -0.0213,0.9065 -0.064,1.1518 -0.0959,0.5653 -0.2933,0.8479 -0.592,0.8479 -0.1919,0 -0.4692,-0.096 -0.8318,-0.2879 -0.1706,-0.0854 -0.3252,-0.1707 -0.4639,-0.256 -0.32,-0.1813 -0.48,-0.4106 -0.48,-0.6879 0,-0.096 0.0134,-0.2347 0.0401,-0.416 0.0266,-0.1812 0.0399,-0.3199 0.0399,-0.4158 0,-0.4587 -0.0159,-0.9973 -0.0479,-1.6159 -0.0747,-1.4397 -0.1121,-2.341 -0.1121,-2.7036 0,-3.1462 0.064,-4.826 0.192,-5.0394 0.0747,-0.1279 0.2347,-0.2452 0.48,-0.3518 0.2453,-0.1067 0.4532,-0.1601 0.6238,-0.1601 0.1174,0 0.2454,0.0694 0.384,0.2081 0.1067,0.1066 0.2133,0.2186 0.32,0.3359 0.1279,-0.0321 0.4372,-0.144 0.9279,-0.3307 0.3732,-0.1413 0.7092,-0.2133 1.0078,-0.2133 0.7679,0 1.5092,0.4054 2.2237,1.2186 0.6826,0.7785 1.0238,1.5624 1.0238,2.3543 0,0.8425 -0.3518,1.5705 -1.0558,2.1783 -0.0427,0.0427 -0.4852,0.4107 -1.3278,1.1065 0.0854,0.1281 0.5333,0.6987 1.3438,1.7118 0.5759,0.7173 0.9439,1.3305 1.1039,1.8425 -0.1813,0.3332 -0.3574,0.6639 -0.528,0.9945 -0.0213,0 -0.0773,0.0187 -0.1679,0.056 -0.0907,0.0374 -0.1467,0.056 -0.168,0.056 -0.9279,0 -2.2557,-1.3012 -3.9835,-3.9035 0,0.256 0.0186,0.6426 0.056,1.1599 0.0373,0.5173 0.056,0.9038 0.056,1.1598zm0.144 -6.9723l0 0.4665 -0.192 2.1704 0.08 0.064c0.1279,0 0.3999,-0.1867 0.8159,-0.5626 0.9706,-0.8772 1.4558,-1.6824 1.4558,-2.4103 0,-0.376 -0.192,-0.5626 -0.5759,-0.5626 -0.2987,0 -0.6186,0.0693 -0.9599,0.208 -0.4159,0.1732 -0.6239,0.3812 -0.6239,0.6266zm7.007 -2.5944c1.0026,-0.2239 1.7064,-0.336 2.1118,-0.336 0.6506,0 1.1972,0.2053 1.6397,0.616 0.4426,0.4105 0.664,0.9359 0.664,1.5757 0,0.224 -0.4107,0.384 -1.2319,0.4799 -0.4906,0.0641 -0.9971,0.0961 -1.5198,0.0961 -0.3412,0 -0.5705,-0.016 -0.6879,-0.048l-0.08 0.08 0.096 0.9599c0,0.2559 -0.0533,0.5758 -0.16,0.9598l0.048 0.064c0.1787,-0.0427 0.3546,-0.08 0.5226,-0.112 0.3066,-0.0534 0.6079,-0.0799 0.9039,-0.0799 0.6453,0 1.0825,0.0692 1.3144,0.2079 0.3173,0.2026 0.4774,0.5973 0.4774,1.1838 0,0.032 0.0267,0.112 0.0772,0.24 0.0534,0.128 0.0854,0.208 0.0961,0.24l-0.112 0.288c-0.256,0.1386 -0.7413,0.2506 -1.4558,0.3359 -0.5866,0.0746 -1.0932,0.112 -1.5198,0.112 -0.1813,0 -0.304,-0.0054 -0.368,-0.016l-0.0479 0.048c0.0426,0.4692 0.0639,0.6932 0.0639,0.6719 0,0.192 -0.0533,0.5439 -0.16,1.0559l0.0641 0.064c0.3519,-0.0961 0.6132,-0.1441 0.7838,-0.1441 1.0132,0 1.6691,0.0587 1.9678,0.176 0.5866,0.2347 0.8799,0.784 0.8799,1.6477 0,0.2773 -0.208,0.416 -0.624,0.416 -0.2026,0.0214 -1.0611,0.1706 -2.5756,0.4479 -0.6506,0.1174 -1.0826,0.1761 -1.2958,0.1761 -0.1387,0 -0.304,-0.1014 -0.4959,-0.304 -0.4374,-0.4693 -0.6933,-0.7785 -0.768,-0.9279 -0.1386,-0.2453 -0.208,-0.6239 -0.208,-1.1359l0 -0.6239c0,-5.0872 0.1494,-7.9509 0.448,-8.5907 0.1493,-0.0747 0.3359,-0.1281 0.56,-0.1601 0.1279,0.0747 0.3252,0.1866 0.5918,0.336zm10.9933 0.7999c-0.0534,0.3733 -0.0801,0.5279 -0.0801,0.4639 0,0.8105 0.0961,1.7651 0.288,2.8636l0.5759 3.3436c0.1921,1.1305 0.288,2.053 0.288,2.7676 0,0.3413 -0.3466,0.5119 -1.0398,0.5119 -0.5013,0 -0.8479,-0.2239 -1.0399,-0.6719 -0.0533,-0.1173 -0.1547,-0.5546 -0.3039,-1.3118 -0.0427,-0.2346 -0.1227,-0.352 -0.24,-0.352 -1.0026,0 -1.6531,0.1707 -1.9517,0.512 -0.1601,0.192 -0.2613,0.6159 -0.304,1.2718 -0.0427,0.656 -0.208,1.1705 -0.496,1.5438 -0.224,0.0853 -0.3626,0.128 -0.4159,0.128 -0.5759,0 -1.0558,-0.368 -1.4398,-1.1039 0,-0.3306 0.2079,-1.3918 0.6239,-3.1836 0.2666,-1.1411 0.608,-2.5115 1.0238,-4.1114 0.5866,-2.3036 0.9546,-3.5355 1.1039,-3.6954 0.2666,-0.0747 0.4213,-0.1121 0.464,-0.1121 0.4372,0 0.9705,0.1014 1.5998,0.304 0.7678,0.2453 1.2157,0.5226 1.3438,0.8319zm-3.1837 5.5032c0,0.224 0.4107,0.336 1.2319,0.336 0.1813,0 0.272,-0.064 0.272,-0.1919 0,-0.2348 -0.0214,-0.5014 -0.064,-0.8 -0.128,-0.8851 -0.192,-1.3971 -0.192,-1.5358 0,-0.2026 -0.0106,-0.5439 -0.032,-1.0238l-0.032 -0.7839c-0.0533,0.1706 -0.1973,0.6399 -0.4319,1.4078 -0.5012,1.6532 -0.752,2.517 -0.752,2.5916zm5.2607 -3.9194c-0.16,0 -0.3093,-0.2507 -0.448,-0.7519 -0.1279,-0.4266 -0.1919,-0.7572 -0.1919,-0.9918 0,-0.3093 0.7999,-0.56 2.3996,-0.752 1.1626,-0.1386 2.1545,-0.208 2.9757,-0.208 0.1919,0 0.4266,0.2107 0.7039,0.632 0.2773,0.4212 0.416,0.7385 0.416,0.9518 0,0.448 -0.2294,0.752 -0.688,0.9119 -0.2773,0.096 -0.6985,0.144 -1.2638,0.144l-0.112 0.08c-0.0107,0.064 -0.016,0.1333 -0.016,0.2079l0 0.176c0,0.0961 0,0.248 0,0.4559 0,0.208 0,0.3654 0,0.472l0 7.1511c0,0.1919 -0.088,0.3652 -0.264,0.5199 -0.1759,0.1546 -0.36,0.2319 -0.5519,0.2319 -0.1067,0 -0.384,-0.1067 -0.8319,-0.3199 -0.4479,-0.2133 -0.7412,-0.368 -0.8799,-0.4639l-0.1279 -0.352c0,-0.9705 0.0107,-1.8984 0.0319,-2.7837l0.08 -2.9595c0.032,-1.0879 0.048,-1.9091 0.048,-2.4637l-0.096 -0.08c-0.5119,0.128 -0.9065,0.192 -1.1838,0.192zm9.0387 -1.9838c0,0.448 -0.0293,1.1145 -0.0879,1.9998 -0.0587,0.8852 -0.088,1.5518 -0.088,1.9997 0,0.4799 0.016,1.2052 0.048,2.1757 0.032,0.9706 0.0479,1.6958 0.0479,2.1757l0 0.368c0,0.0533 0,0.1279 0,0.2239 0,0.096 0,0.1707 0,0.224 0.0214,1.2158 -0.1946,1.8238 -0.6478,1.8238 -0.2106,0 -0.5786,-0.1334 -1.1065,-0.4 -0.528,-0.2666 -0.8159,-0.4853 -0.8693,-0.6559 0.0107,-0.0213 0.048,-0.112 0.1173,-0.2719 0.0507,-0.1067 0.0747,-0.1921 0.0747,-0.2561 0,-0.5652 -0.016,-1.1357 -0.048,-1.7117l-0.144 -2.8636 0 -5.3113c0,-0.1706 0.0934,-0.2933 0.2827,-0.3679 0.1866,-0.0747 0.4639,-0.112 0.8265,-0.112 0.248,0 0.5653,0.1013 0.9519,0.304 0.4293,0.2239 0.6425,0.4425 0.6425,0.6558zm5.89 -0.8478c0.2879,-0.0533 0.5759,-0.112 0.8639,-0.176 0.2346,0 0.4745,0.2266 0.7198,0.6799 0.2454,0.4533 0.368,0.8132 0.368,1.0799 0,0.2453 -0.1546,1.2371 -0.4639,2.9755 -0.3306,1.8771 -0.5706,3.189 -0.72,3.9355 -0.3945,2.1224 -0.6665,3.3276 -0.8159,3.6155 -0.1385,0.096 -0.2772,0.144 -0.4158,0.144 -0.0427,0 -0.3093,-0.064 -0.7999,-0.192 -1.0133,-0.2666 -1.5572,-0.4213 -1.6319,-0.4639 -0.2985,-0.6079 -0.6238,-1.6851 -0.9758,-3.2316 -0.0534,-0.2666 -0.2826,-1.3971 -0.688,-3.3915 -0.2773,-1.3652 -0.4532,-2.325 -0.5279,-2.8796l0.112 -0.272 1.0239 -0.336c0.6933,0 1.2212,0.4853 1.5838,1.4559 0.256,0.6932 0.4319,1.6157 0.5279,2.7676 0.128,1.5464 0.224,2.485 0.288,2.8156l0.3519 -2.6077c0.5013,-3.6475 0.9012,-5.6206 1.1999,-5.9191zm8.3989 1.2478c-0.0534,0.3733 -0.0801,0.5279 -0.0801,0.4639 0,0.8105 0.0961,1.7651 0.288,2.8636l0.5759 3.3436c0.1921,1.1305 0.288,2.053 0.288,2.7676 0,0.3413 -0.3466,0.5119 -1.0398,0.5119 -0.5013,0 -0.8479,-0.2239 -1.0399,-0.6719 -0.0533,-0.1173 -0.1547,-0.5546 -0.3039,-1.3118 -0.0427,-0.2346 -0.1227,-0.352 -0.24,-0.352 -1.0026,0 -1.6532,0.1707 -1.9517,0.512 -0.1601,0.192 -0.2614,0.6159 -0.304,1.2718 -0.0427,0.656 -0.208,1.1705 -0.496,1.5438 -0.224,0.0853 -0.3626,0.128 -0.4159,0.128 -0.5759,0 -1.0558,-0.368 -1.4398,-1.1039 0,-0.3306 0.2079,-1.3918 0.6239,-3.1836 0.2666,-1.1411 0.608,-2.5115 1.0238,-4.1114 0.5866,-2.3036 0.9546,-3.5355 1.1039,-3.6954 0.2666,-0.0747 0.4213,-0.1121 0.464,-0.1121 0.4372,0 0.9705,0.1014 1.5998,0.304 0.7678,0.2453 1.2157,0.5226 1.3438,0.8319zm-3.1837 5.5032c0,0.224 0.4107,0.336 1.2319,0.336 0.1813,0 0.272,-0.064 0.272,-0.1919 0,-0.2348 -0.0214,-0.5014 -0.064,-0.8 -0.128,-0.8851 -0.192,-1.3971 -0.192,-1.5358 0,-0.2026 -0.0106,-0.5439 -0.032,-1.0238l-0.032 -0.7839c-0.0533,0.1706 -0.1973,0.6399 -0.4319,1.4078 -0.5012,1.6532 -0.752,2.517 -0.752,2.5916z"/>
  <path class="fil1" d="M180.23 126.025c-0.2607,5.4095 -0.391,9.3386 -0.391,11.7874 0,0.9349 0.0163,2.6992 0.0489,5.2926 0.0326,2.5933 0.0488,4.6469 0.0488,6.1607l-7.5593 0c0.1087,-4.3409 0.1629,-8.1921 0.1629,-11.5535l-0.2281 -11.6872 7.9178 0z"/>
  <path class="fil1" d="M168.357 138.414c0,0.8859 0.0153,2.5574 0.0458,5.0146 0.0305,2.4571 0.0458,4.4029 0.0458,5.8371l-4.5188 0c-0.346,-0.4429 -1.5316,-1.9563 -3.557,-4.54 -2.0253,-2.5837 -3.6689,-4.7508 -4.9309,-6.5015 0,0.9281 0.0153,2.6312 0.0458,5.1095 0.0305,2.4783 0.0458,4.4557 0.0458,5.932l-5.0073 0c0.0814,-4.1128 0.1221,-7.7722 0.1221,-10.9782l-0.1832 -11.0416 5.2821 0c5.0887,6.9181 7.7349,10.5037 7.9384,10.7568l-0.1832 -10.7568 5.2515 0c-0.2442,5.1253 -0.3766,8.848 -0.3969,11.1681z"/>
  <path class="fil1" d="M105.534 144.419l8.5737 -0.2992c-0.2998,1.9747 -0.4597,3.6902 -0.4796,5.1462l-14.9891 0c0.0799,-3.8896 0.1199,-7.3404 0.1199,-10.3524l-0.2098 -10.4721 14.4794 0 0 4.4582 -7.4046 0 -0.1199 4.847c0.8794,-0.9574 2.0285,-1.4361 3.4475,-1.4361 0.8593,0 1.5239,0.2393 1.9935,0.7181 0.4697,0.4787 0.7045,1.0472 0.7045,1.7054 0,0.6982 -0.2548,1.2616 -0.7644,1.6905 -0.5096,0.4289 -1.1741,0.6433 -1.9936,0.6433 -0.4197,0 -0.9293,-0.1447 -1.5289,-0.4339 -0.5995,-0.2891 -0.9993,-0.4338 -1.1991,-0.4338 -0.4396,0 -0.6595,0.2693 -0.6595,0.8078 0.02,2.0545 0.03,3.1915 0.03,3.411z"/>
  <path class="fil1" d="M84.2268 137.186l1.2076 0c2.7882,-4.5059 4.5947,-7.72 5.4194,-9.6422l6.0085 0.434c-2.5919,4.072 -4.8303,7.4514 -6.7153,10.1384 0.4123,0.5994 1.183,1.7311 2.312,3.3949 1.1291,1.6639 2.1403,3.1314 3.0337,4.4026 0.8935,1.2712 1.6446,2.2478 2.2532,2.9299l-7.4222 1.0231c-1.0014,-0.8681 -3.0337,-4.0615 -6.0969,-9.5802 0,0.8474 0.0148,2.2477 0.0442,4.201 0.0295,1.9533 0.0442,3.5603 0.0442,4.8211l-6.8037 0c0.0785,-4.0305 0.1178,-7.6063 0.1178,-10.7274l-0.2062 -10.8514 7.1572 0c-0.1768,3.8239 -0.2946,6.9759 -0.3535,9.4562z"/>
  <path class="fil1" d="M68.8142 127.253l6.8474 22.1929c-2.9361,-0.0426 -5.5805,-0.0107 -7.9333,0.0956l-1.1161 -4.5916 -5.5805 0c-0.2413,1.7644 -0.4022,3.2631 -0.4826,4.496l-5.0375 0c0.1609,-2.2533 0.7138,-5.2294 1.659,-8.9282 0.9452,-3.6988 1.8502,-6.8343 2.7148,-9.4064l1.2971 -3.8583 7.6317 0z"/>
  <path class="fil2" d="M62.837 140.283l3.9665 0 -1.9676 -8.0808c-0.7288,2.4042 -1.395,5.0978 -1.9989,8.0808z"/>
  <path class="fil1" d="M53.9593 126.416c-0.2583,5.3652 -0.3874,9.262 -0.3874,11.6907 0,0.9273 0.0108,2.6771 0.0323,5.2493 0.0214,2.5721 0.0322,4.6089 0.0322,6.1103l-7.4578 0c0,0.022 0.0054,-0.2208 0.0162,-0.7286 0.0108,-0.5079 0.0269,-1.1923 0.0484,-2.0534 0.0215,-0.861 0.0376,-1.7938 0.0484,-2.7984 0.0108,-1.0047 0.0215,-2.0754 0.0323,-3.2125 0.0108,-1.1371 0.0162,-2.1582 0.0162,-3.0634 -1.4637,2.7599 -3.2931,5.9501 -5.4885,9.5711 -0.2152,-0.2649 -0.6349,-0.977 -1.2591,-2.1361 -0.6242,-1.1591 -1.356,-2.5115 -2.1954,-4.057 -0.8394,-1.5455 -1.5282,-2.7599 -2.0662,-3.643 0,1.0598 0.0108,2.9365 0.0323,5.6301 0.0215,2.6937 0.0323,4.8573 0.0323,6.4912l-5.2947 0c0.1076,-4.3054 0.1614,-8.1251 0.1614,-11.4589l-0.2583 -11.5914 7.135 0c0.3228,0.5079 1.1514,2.2521 2.4859,5.2327 1.3345,2.9806 2.2277,4.8684 2.6796,5.6632 2.6474,-5.7183 4.3477,-9.3504 5.1011,-10.8959l6.5538 0z"/>
  <path class="fil1" d="M147.835 143.376l0.5219 7.1138c-0.4994,0.083 -4.4476,0.6673 -9.1359,0.2957 -4.6883,-0.3717 -7.9414,-2.1934 -9.3641,-3.1418 -1.5939,-1.0624 -4.126,-3.0899 -5.2652,-5.1275l-2.2675 0.0926c0.04,3.0736 0.0599,5.3062 0.0599,6.6976l-6.9222 0c0.0999,-4.0497 0.1498,-7.6426 0.1498,-10.7785l-0.2397 -10.9031 7.3118 0c1.3983,0.0208 2.647,0.1298 3.7457,0.3271 1.0988,0.1974 2.1726,0.5245 3.2214,0.9813 1.0488,0.4569 1.8629,1.1475 2.4422,2.0716 0.5794,0.9241 0.8691,2.0508 0.8691,3.3799 0,1.4953 -0.3596,2.783 -1.0788,3.8628 -0.7192,1.0799 -0.3624,0.5821 -1.5521,1.8063 2.1278,2.6921 6.2249,4.082 9.6369,4.4664 3.4121,0.3843 5.6249,-0.7837 7.8668,-1.1442z"/>
  <path class="fil2" d="M122.268 137.75c2.0703,-0.0668 3.1054,-1.3691 3.1054,-3.9068 0,-0.7347 -0.1083,-1.3245 -0.325,-1.7698 -0.2166,-0.4453 -0.4854,-0.7235 -0.8064,-0.8348 -0.321,-0.1113 -0.662,-0.1948 -1.0231,-0.2504 -0.3611,-0.0556 -0.678,-0.0501 -0.9509,0.0167l0 6.7451z"/>
  <path class="fil1" d="M141.789 127.123c2.1919,0 3.9096,0.5942 5.1531,1.7824 1.2434,1.1882 1.8652,2.9075 1.8652,5.1576 0,2.2249 -0.6218,3.9377 -1.8652,5.1386 -1.2435,1.201 -2.9612,1.8014 -5.1531,1.8014 -2.1779,0 -3.892,-0.6004 -5.1425,-1.8014 -1.2506,-1.2009 -1.8758,-2.9137 -1.8758,-5.1386 0,-2.2501 0.6252,-3.9694 1.8758,-5.1576 1.2505,-1.1882 2.9646,-1.7824 5.1425,-1.7824z"/>
  <path class="fil2" d="M139.597 133.949c0,2.7811 0.7377,4.1716 2.213,4.1716 1.4331,0 2.1497,-1.3083 2.1497,-3.9251 0,-1.2894 -0.1897,-2.3164 -0.569,-3.0813 -0.3794,-0.7648 -0.9485,-1.1471 -1.7072,-1.1471 -0.7166,0 -1.2435,0.3097 -1.5807,0.9291 -0.3372,0.6194 -0.5058,1.637 -0.5058,3.0528z"/>
 </g>
</svg>
